  0
SECTION
  2
BLOCKS
  0
ENDSEC
  0
SECTION
  2
ENTITIES
  0
LINE
  8
0
 10
-19.3476
 20
95.0194
 11
-18.1845
 21
95.1509
  0
LINE
  8
0
 10
-18.1845
 20
95.1509
 11
-17.0604
 21
95.4001
  0
LINE
  8
0
 10
-17.0604
 20
95.4001
 11
-15.9685
 21
95.7654
  0
LINE
  8
0
 10
-15.9685
 20
95.7654
 11
-14.9208
 21
96.2429
  0
LINE
  8
0
 10
-14.9208
 20
96.2429
 11
-13.9287
 21
96.8273
  0
LINE
  8
0
 10
-13.9287
 20
96.8273
 11
-13.0031
 21
97.5121
  0
LINE
  8
0
 10
-13.0031
 20
97.5121
 11
-12.1543
 21
98.29
  0
LINE
  8
0
 10
-12.1543
 20
98.29
 11
-11.3913
 21
99.1523
  0
LINE
  8
0
 10
-11.3913
 20
99.1523
 11
-10.7227
 21
100.09
  0
LINE
  8
0
 10
-10.7227
 20
100.09
 11
-10.1557
 21
101.092
  0
LINE
  8
0
 10
-10.1557
 20
101.092
 11
-9.69661
 21
102.148
  0
LINE
  8
0
 10
-9.69661
 20
102.148
 11
-9.35039
 21
103.246
  0
LINE
  8
0
 10
-9.35039
 20
103.246
 11
-9.12083
 21
104.374
  0
LINE
  8
0
 10
-9.12083
 20
104.374
 11
-9.01048
 21
105.52
  0
LINE
  8
0
 10
-9.01048
 20
105.52
 11
-9
 21
106
  0
LINE
  8
0
 10
-9
 20
106
 11
-9
 21
151.7
  0
LINE
  8
0
 10
-9
 20
151.7
 11
-9.04372
 21
152.116
  0
LINE
  8
0
 10
-9.04372
 20
152.116
 11
-9.17291
 21
152.513
  0
LINE
  8
0
 10
-9.17291
 20
152.513
 11
-9.38197
 21
152.876
  0
LINE
  8
0
 10
-9.38197
 20
152.876
 11
-9.66174
 21
153.186
  0
LINE
  8
0
 10
-9.66174
 20
153.186
 11
-10
 21
153.432
  0
LINE
  8
0
 10
-10
 20
153.432
 11
-10.382
 21
153.602
  0
LINE
  8
0
 10
-10.382
 20
153.602
 11
-10.791
 21
153.689
  0
LINE
  8
0
 10
-10.791
 20
153.689
 11
-11
 21
153.689
  0
LINE
  8
0
 10
-11
 20
153.689
 11
-11
 21
153.7
  0
LINE
  8
0
 10
-11
 20
153.7
 11
-29
 21
153.7
  0
LINE
  8
0
 10
-29
 20
153.7
 11
-29
 21
153.689
  0
LINE
  8
0
 10
-29
 20
153.689
 11
-29.209
 21
153.689
  0
LINE
  8
0
 10
-29.209
 20
153.689
 11
-29.618
 21
153.602
  0
LINE
  8
0
 10
-29.618
 20
153.602
 11
-30
 21
153.432
  0
LINE
  8
0
 10
-30
 20
153.432
 11
-30.3383
 21
153.186
  0
LINE
  8
0
 10
-30.3383
 20
153.186
 11
-30.618
 21
152.876
  0
LINE
  8
0
 10
-30.618
 20
152.876
 11
-30.8271
 21
152.513
  0
LINE
  8
0
 10
-30.8271
 20
152.513
 11
-30.9563
 21
152.116
  0
LINE
  8
0
 10
-30.9563
 20
152.116
 11
-31
 21
151.7
  0
LINE
  8
0
 10
-31
 20
151.7
 11
-30.9849
 21
105.424
  0
LINE
  8
0
 10
-30.9849
 20
105.424
 11
-30.8646
 21
104.279
  0
LINE
  8
0
 10
-30.8646
 20
104.279
 11
-30.6252
 21
103.153
  0
LINE
  8
0
 10
-30.6252
 20
103.153
 11
-30.2694
 21
102.058
  0
LINE
  8
0
 10
-30.2694
 20
102.058
 11
-29.8011
 21
101.006
  0
LINE
  8
0
 10
-29.8011
 20
101.006
 11
-29.2254
 21
100.009
  0
LINE
  8
0
 10
-29.2254
 20
100.009
 11
-28.5486
 21
99.0775
  0
LINE
  8
0
 10
-28.5486
 20
99.0775
 11
-27.7782
 21
98.2218
  0
LINE
  8
0
 10
-27.7782
 20
98.2218
 11
-26.9076
 21
97.4393
  0
LINE
  8
0
 10
-26.9076
 20
97.4393
 11
-25.9588
 21
96.7538
  0
LINE
  8
0
 10
-25.9588
 20
96.7538
 11
-24.9596
 21
96.1816
  0
LINE
  8
0
 10
-24.9596
 20
96.1816
 11
-23.9062
 21
95.7169
  0
LINE
  8
0
 10
-23.9062
 20
95.7169
 11
-22.8099
 21
95.3649
  0
LINE
  8
0
 10
-22.8099
 20
95.3649
 11
-21.6639
 21
95.1266
  0
LINE
  8
0
 10
-21.6639
 20
95.1266
 11
-20.5182
 21
95.0122
  0
LINE
  8
0
 10
-20.5182
 20
95.0122
 11
-19.3476
 21
95.0194
  0
LINE
  8
0
 10
-20.0836
 20
150.404
 11
-20.2472
 21
150.439
  0
LINE
  8
0
 10
-20.2472
 20
150.439
 11
-20.4
 21
150.507
  0
LINE
  8
0
 10
-20.4
 20
150.507
 11
-20.5353
 21
150.605
  0
LINE
  8
0
 10
-20.5353
 20
150.605
 11
-20.6472
 21
150.73
  0
LINE
  8
0
 10
-20.6472
 20
150.73
 11
-20.7308
 21
150.875
  0
LINE
  8
0
 10
-20.7308
 20
150.875
 11
-20.7825
 21
151.034
  0
LINE
  8
0
 10
-20.7825
 20
151.034
 11
-20.8
 21
151.2
  0
LINE
  8
0
 10
-20.8
 20
151.2
 11
-20.7825
 21
151.366
  0
LINE
  8
0
 10
-20.7825
 20
151.366
 11
-20.7308
 21
151.525
  0
LINE
  8
0
 10
-20.7308
 20
151.525
 11
-20.6472
 21
151.67
  0
LINE
  8
0
 10
-20.6472
 20
151.67
 11
-20.5353
 21
151.795
  0
LINE
  8
0
 10
-20.5353
 20
151.795
 11
-20.4
 21
151.893
  0
LINE
  8
0
 10
-20.4
 20
151.893
 11
-20.2472
 21
151.961
  0
LINE
  8
0
 10
-20.2472
 20
151.961
 11
-20.0836
 21
151.996
  0
LINE
  8
0
 10
-20.0836
 20
151.996
 11
-19.9164
 21
151.996
  0
LINE
  8
0
 10
-19.9164
 20
151.996
 11
-19.7528
 21
151.961
  0
LINE
  8
0
 10
-19.7528
 20
151.961
 11
-19.6
 21
151.893
  0
LINE
  8
0
 10
-19.6
 20
151.893
 11
-19.4647
 21
151.795
  0
LINE
  8
0
 10
-19.4647
 20
151.795
 11
-19.3528
 21
151.67
  0
LINE
  8
0
 10
-19.3528
 20
151.67
 11
-19.2692
 21
151.525
  0
LINE
  8
0
 10
-19.2692
 20
151.525
 11
-19.2175
 21
151.366
  0
LINE
  8
0
 10
-19.2175
 20
151.366
 11
-19.2
 21
151.2
  0
LINE
  8
0
 10
-19.2
 20
151.2
 11
-19.2175
 21
151.034
  0
LINE
  8
0
 10
-19.2175
 20
151.034
 11
-19.2692
 21
150.875
  0
LINE
  8
0
 10
-19.2692
 20
150.875
 11
-19.3528
 21
150.73
  0
LINE
  8
0
 10
-19.3528
 20
150.73
 11
-19.4647
 21
150.605
  0
LINE
  8
0
 10
-19.4647
 20
150.605
 11
-19.6
 21
150.507
  0
LINE
  8
0
 10
-19.6
 20
150.507
 11
-19.7528
 21
150.439
  0
LINE
  8
0
 10
-19.7528
 20
150.439
 11
-19.9164
 21
150.404
  0
LINE
  8
0
 10
-19.9164
 20
150.404
 11
-20.0836
 21
150.404
  0
LINE
  8
0
 10
-20.2613
 20
134.214
 11
-20.7725
 21
134.322
  0
LINE
  8
0
 10
-20.7725
 20
134.322
 11
-21.25
 21
134.535
  0
LINE
  8
0
 10
-21.25
 20
134.535
 11
-21.6728
 21
134.842
  0
LINE
  8
0
 10
-21.6728
 20
134.842
 11
-22.0225
 21
135.231
  0
LINE
  8
0
 10
-22.0225
 20
135.231
 11
-22.2839
 21
135.683
  0
LINE
  8
0
 10
-22.2839
 20
135.683
 11
-22.4454
 21
136.18
  0
LINE
  8
0
 10
-22.4454
 20
136.18
 11
-22.5
 21
136.7
  0
LINE
  8
0
 10
-22.5
 20
136.7
 11
-22.5
 21
137.553
  0
LINE
  8
0
 10
-22.5
 20
137.553
 11
-22.875
 21
137.72
  0
LINE
  8
0
 10
-22.875
 20
137.72
 11
-23.8475
 21
138.427
  0
LINE
  8
0
 10
-23.8475
 20
138.427
 11
-24.6518
 21
139.32
  0
LINE
  8
0
 10
-24.6518
 20
139.32
 11
-25.2529
 21
140.361
  0
LINE
  8
0
 10
-25.2529
 20
140.361
 11
-25.6243
 21
141.505
  0
LINE
  8
0
 10
-25.6243
 20
141.505
 11
-25.75
 21
142.7
  0
LINE
  8
0
 10
-25.75
 20
142.7
 11
-25.6243
 21
143.895
  0
LINE
  8
0
 10
-25.6243
 20
143.895
 11
-25.2529
 21
145.039
  0
LINE
  8
0
 10
-25.2529
 20
145.039
 11
-24.6518
 21
146.08
  0
LINE
  8
0
 10
-24.6518
 20
146.08
 11
-23.8475
 21
146.973
  0
LINE
  8
0
 10
-23.8475
 20
146.973
 11
-22.875
 21
147.68
  0
LINE
  8
0
 10
-22.875
 20
147.68
 11
-21.7768
 21
148.169
  0
LINE
  8
0
 10
-21.7768
 20
148.169
 11
-20.601
 21
148.419
  0
LINE
  8
0
 10
-20.601
 20
148.419
 11
-19.399
 21
148.419
  0
LINE
  8
0
 10
-19.399
 20
148.419
 11
-18.2232
 21
148.169
  0
LINE
  8
0
 10
-18.2232
 20
148.169
 11
-17.125
 21
147.68
  0
LINE
  8
0
 10
-17.125
 20
147.68
 11
-16.1525
 21
146.973
  0
LINE
  8
0
 10
-16.1525
 20
146.973
 11
-15.3482
 21
146.08
  0
LINE
  8
0
 10
-15.3482
 20
146.08
 11
-14.7471
 21
145.039
  0
LINE
  8
0
 10
-14.7471
 20
145.039
 11
-14.3757
 21
143.895
  0
LINE
  8
0
 10
-14.3757
 20
143.895
 11
-14.25
 21
142.7
  0
LINE
  8
0
 10
-14.25
 20
142.7
 11
-14.3757
 21
141.505
  0
LINE
  8
0
 10
-14.3757
 20
141.505
 11
-14.7471
 21
140.361
  0
LINE
  8
0
 10
-14.7471
 20
140.361
 11
-15.3482
 21
139.32
  0
LINE
  8
0
 10
-15.3482
 20
139.32
 11
-16.1525
 21
138.427
  0
LINE
  8
0
 10
-16.1525
 20
138.427
 11
-17.125
 21
137.72
  0
LINE
  8
0
 10
-17.125
 20
137.72
 11
-17.5
 21
137.553
  0
LINE
  8
0
 10
-17.5
 20
137.553
 11
-17.5
 21
136.7
  0
LINE
  8
0
 10
-17.5
 20
136.7
 11
-17.5546
 21
136.18
  0
LINE
  8
0
 10
-17.5546
 20
136.18
 11
-17.7161
 21
135.683
  0
LINE
  8
0
 10
-17.7161
 20
135.683
 11
-17.9775
 21
135.231
  0
LINE
  8
0
 10
-17.9775
 20
135.231
 11
-18.3272
 21
134.842
  0
LINE
  8
0
 10
-18.3272
 20
134.842
 11
-18.75
 21
134.535
  0
LINE
  8
0
 10
-18.75
 20
134.535
 11
-19.2275
 21
134.322
  0
LINE
  8
0
 10
-19.2275
 20
134.322
 11
-19.7387
 21
134.214
  0
LINE
  8
0
 10
-19.7387
 20
134.214
 11
-20.2613
 21
134.214
  0
LINE
  8
0
 10
-20.0836
 20
122.704
 11
-20.2472
 21
122.739
  0
LINE
  8
0
 10
-20.2472
 20
122.739
 11
-20.4
 21
122.807
  0
LINE
  8
0
 10
-20.4
 20
122.807
 11
-20.5353
 21
122.905
  0
LINE
  8
0
 10
-20.5353
 20
122.905
 11
-20.6472
 21
123.03
  0
LINE
  8
0
 10
-20.6472
 20
123.03
 11
-20.7308
 21
123.175
  0
LINE
  8
0
 10
-20.7308
 20
123.175
 11
-20.7825
 21
123.334
  0
LINE
  8
0
 10
-20.7825
 20
123.334
 11
-20.8
 21
123.5
  0
LINE
  8
0
 10
-20.8
 20
123.5
 11
-20.7825
 21
123.666
  0
LINE
  8
0
 10
-20.7825
 20
123.666
 11
-20.7308
 21
123.825
  0
LINE
  8
0
 10
-20.7308
 20
123.825
 11
-20.6472
 21
123.97
  0
LINE
  8
0
 10
-20.6472
 20
123.97
 11
-20.5353
 21
124.095
  0
LINE
  8
0
 10
-20.5353
 20
124.095
 11
-20.4
 21
124.193
  0
LINE
  8
0
 10
-20.4
 20
124.193
 11
-20.2472
 21
124.261
  0
LINE
  8
0
 10
-20.2472
 20
124.261
 11
-20.0836
 21
124.296
  0
LINE
  8
0
 10
-20.0836
 20
124.296
 11
-19.9164
 21
124.296
  0
LINE
  8
0
 10
-19.9164
 20
124.296
 11
-19.7528
 21
124.261
  0
LINE
  8
0
 10
-19.7528
 20
124.261
 11
-19.6
 21
124.193
  0
LINE
  8
0
 10
-19.6
 20
124.193
 11
-19.4647
 21
124.095
  0
LINE
  8
0
 10
-19.4647
 20
124.095
 11
-19.3528
 21
123.97
  0
LINE
  8
0
 10
-19.3528
 20
123.97
 11
-19.2692
 21
123.825
  0
LINE
  8
0
 10
-19.2692
 20
123.825
 11
-19.2175
 21
123.666
  0
LINE
  8
0
 10
-19.2175
 20
123.666
 11
-19.2
 21
123.5
  0
LINE
  8
0
 10
-19.2
 20
123.5
 11
-19.2175
 21
123.334
  0
LINE
  8
0
 10
-19.2175
 20
123.334
 11
-19.2692
 21
123.175
  0
LINE
  8
0
 10
-19.2692
 20
123.175
 11
-19.3528
 21
123.03
  0
LINE
  8
0
 10
-19.3528
 20
123.03
 11
-19.4647
 21
122.905
  0
LINE
  8
0
 10
-19.4647
 20
122.905
 11
-19.6
 21
122.807
  0
LINE
  8
0
 10
-19.6
 20
122.807
 11
-19.7528
 21
122.739
  0
LINE
  8
0
 10
-19.7528
 20
122.739
 11
-19.9164
 21
122.704
  0
LINE
  8
0
 10
-19.9164
 20
122.704
 11
-20.0836
 21
122.704
  0
LINE
  8
0
 10
-14.804
 20
114.691
 11
-14.9034
 21
114.723
  0
LINE
  8
0
 10
-14.9034
 20
114.723
 11
-14.9939
 21
114.775
  0
LINE
  8
0
 10
-14.9939
 20
114.775
 11
-15.0716
 21
114.845
  0
LINE
  8
0
 10
-15.0716
 20
114.845
 11
-15.133
 21
114.93
  0
LINE
  8
0
 10
-15.133
 20
114.93
 11
-15.1755
 21
115.025
  0
LINE
  8
0
 10
-15.1755
 20
115.025
 11
-15.1973
 21
115.128
  0
LINE
  8
0
 10
-15.1973
 20
115.128
 11
-15.1973
 21
115.232
  0
LINE
  8
0
 10
-15.1973
 20
115.232
 11
-15.1755
 21
115.334
  0
LINE
  8
0
 10
-15.1755
 20
115.334
 11
-15.133
 21
115.43
  0
LINE
  8
0
 10
-15.133
 20
115.43
 11
-15.0716
 21
115.514
  0
LINE
  8
0
 10
-15.0716
 20
115.514
 11
-14.9939
 21
115.584
  0
LINE
  8
0
 10
-14.9939
 20
115.584
 11
-14.9034
 21
115.637
  0
LINE
  8
0
 10
-14.9034
 20
115.637
 11
-14.804
 21
115.669
  0
LINE
  8
0
 10
-14.804
 20
115.669
 11
-14.7
 21
115.68
  0
LINE
  8
0
 10
-14.7
 20
115.68
 11
-14.5961
 21
115.669
  0
LINE
  8
0
 10
-14.5961
 20
115.669
 11
-14.4966
 21
115.637
  0
LINE
  8
0
 10
-14.4966
 20
115.637
 11
-14.4061
 21
115.584
  0
LINE
  8
0
 10
-14.4061
 20
115.584
 11
-14.3284
 21
115.514
  0
LINE
  8
0
 10
-14.3284
 20
115.514
 11
-14.267
 21
115.43
  0
LINE
  8
0
 10
-14.267
 20
115.43
 11
-14.2245
 21
115.334
  0
LINE
  8
0
 10
-14.2245
 20
115.334
 11
-14.2027
 21
115.232
  0
LINE
  8
0
 10
-14.2027
 20
115.232
 11
-14.2027
 21
115.128
  0
LINE
  8
0
 10
-14.2027
 20
115.128
 11
-14.2245
 21
115.025
  0
LINE
  8
0
 10
-14.2245
 20
115.025
 11
-14.267
 21
114.93
  0
LINE
  8
0
 10
-14.267
 20
114.93
 11
-14.3284
 21
114.845
  0
LINE
  8
0
 10
-14.3284
 20
114.845
 11
-14.4061
 21
114.775
  0
LINE
  8
0
 10
-14.4061
 20
114.775
 11
-14.4966
 21
114.723
  0
LINE
  8
0
 10
-14.4966
 20
114.723
 11
-14.5961
 21
114.691
  0
LINE
  8
0
 10
-14.5961
 20
114.691
 11
-14.7
 21
114.68
  0
LINE
  8
0
 10
-14.7
 20
114.68
 11
-14.804
 21
114.691
  0
LINE
  8
0
 10
-20.3658
 20
102.519
 11
-21.0816
 21
102.671
  0
LINE
  8
0
 10
-21.0816
 20
102.671
 11
-21.75
 21
102.969
  0
LINE
  8
0
 10
-21.75
 20
102.969
 11
-22.3419
 21
103.399
  0
LINE
  8
0
 10
-22.3419
 20
103.399
 11
-22.8316
 21
103.943
  0
LINE
  8
0
 10
-22.8316
 20
103.943
 11
-23.1974
 21
104.576
  0
LINE
  8
0
 10
-23.1974
 20
104.576
 11
-23.4235
 21
105.272
  0
LINE
  8
0
 10
-23.4235
 20
105.272
 11
-23.5
 21
106
  0
LINE
  8
0
 10
-23.5
 20
106
 11
-23.4235
 21
106.728
  0
LINE
  8
0
 10
-23.4235
 20
106.728
 11
-23.1974
 21
107.424
  0
LINE
  8
0
 10
-23.1974
 20
107.424
 11
-22.8316
 21
108.057
  0
LINE
  8
0
 10
-22.8316
 20
108.057
 11
-22.3419
 21
108.601
  0
LINE
  8
0
 10
-22.3419
 20
108.601
 11
-21.75
 21
109.031
  0
LINE
  8
0
 10
-21.75
 20
109.031
 11
-21.0816
 21
109.329
  0
LINE
  8
0
 10
-21.0816
 20
109.329
 11
-20.3658
 21
109.481
  0
LINE
  8
0
 10
-20.3658
 20
109.481
 11
-19.6342
 21
109.481
  0
LINE
  8
0
 10
-19.6342
 20
109.481
 11
-18.9184
 21
109.329
  0
LINE
  8
0
 10
-18.9184
 20
109.329
 11
-18.25
 21
109.031
  0
LINE
  8
0
 10
-18.25
 20
109.031
 11
-17.6581
 21
108.601
  0
LINE
  8
0
 10
-17.6581
 20
108.601
 11
-17.1684
 21
108.057
  0
LINE
  8
0
 10
-17.1684
 20
108.057
 11
-16.8026
 21
107.424
  0
LINE
  8
0
 10
-16.8026
 20
107.424
 11
-16.5765
 21
106.728
  0
LINE
  8
0
 10
-16.5765
 20
106.728
 11
-16.5
 21
106
  0
LINE
  8
0
 10
-16.5
 20
106
 11
-16.5765
 21
105.272
  0
LINE
  8
0
 10
-16.5765
 20
105.272
 11
-16.8026
 21
104.576
  0
LINE
  8
0
 10
-16.8026
 20
104.576
 11
-17.1684
 21
103.943
  0
LINE
  8
0
 10
-17.1684
 20
103.943
 11
-17.6581
 21
103.399
  0
LINE
  8
0
 10
-17.6581
 20
103.399
 11
-18.25
 21
102.969
  0
LINE
  8
0
 10
-18.25
 20
102.969
 11
-18.9184
 21
102.671
  0
LINE
  8
0
 10
-18.9184
 20
102.671
 11
-19.6342
 21
102.519
  0
LINE
  8
0
 10
-19.6342
 20
102.519
 11
-20.3658
 21
102.519
  0
LINE
  8
0
 10
20.6524
 20
95.0193
 11
21.8155
 21
95.1508
  0
LINE
  8
0
 10
21.8155
 20
95.1508
 11
22.9396
 21
95.4001
  0
LINE
  8
0
 10
22.9396
 20
95.4001
 11
24.0315
 21
95.7654
  0
LINE
  8
0
 10
24.0315
 20
95.7654
 11
25.0792
 21
96.2429
  0
LINE
  8
0
 10
25.0792
 20
96.2429
 11
26.0713
 21
96.8273
  0
LINE
  8
0
 10
26.0713
 20
96.8273
 11
26.9969
 21
97.5121
  0
LINE
  8
0
 10
26.9969
 20
97.5121
 11
27.8457
 21
98.29
  0
LINE
  8
0
 10
27.8457
 20
98.29
 11
28.6087
 21
99.1523
  0
LINE
  8
0
 10
28.6087
 20
99.1523
 11
29.2773
 21
100.09
  0
LINE
  8
0
 10
29.2773
 20
100.09
 11
29.8443
 21
101.092
  0
LINE
  8
0
 10
29.8443
 20
101.092
 11
30.3034
 21
102.148
  0
LINE
  8
0
 10
30.3034
 20
102.148
 11
30.6496
 21
103.246
  0
LINE
  8
0
 10
30.6496
 20
103.246
 11
30.8792
 21
104.374
  0
LINE
  8
0
 10
30.8792
 20
104.374
 11
30.9895
 21
105.52
  0
LINE
  8
0
 10
30.9895
 20
105.52
 11
31
 21
106
  0
LINE
  8
0
 10
31
 20
106
 11
31
 21
151.7
  0
LINE
  8
0
 10
31
 20
151.7
 11
30.9563
 21
152.116
  0
LINE
  8
0
 10
30.9563
 20
152.116
 11
30.8271
 21
152.513
  0
LINE
  8
0
 10
30.8271
 20
152.513
 11
30.618
 21
152.876
  0
LINE
  8
0
 10
30.618
 20
152.876
 11
30.3383
 21
153.186
  0
LINE
  8
0
 10
30.3383
 20
153.186
 11
30
 21
153.432
  0
LINE
  8
0
 10
30
 20
153.432
 11
29.618
 21
153.602
  0
LINE
  8
0
 10
29.618
 20
153.602
 11
29.209
 21
153.689
  0
LINE
  8
0
 10
29.209
 20
153.689
 11
29
 21
153.689
  0
LINE
  8
0
 10
29
 20
153.689
 11
29
 21
153.7
  0
LINE
  8
0
 10
29
 20
153.7
 11
11
 21
153.7
  0
LINE
  8
0
 10
11
 20
153.7
 11
11
 21
153.689
  0
LINE
  8
0
 10
11
 20
153.689
 11
10.791
 21
153.689
  0
LINE
  8
0
 10
10.791
 20
153.689
 11
10.382
 21
153.602
  0
LINE
  8
0
 10
10.382
 20
153.602
 11
10
 21
153.432
  0
LINE
  8
0
 10
10
 20
153.432
 11
9.66174
 21
153.186
  0
LINE
  8
0
 10
9.66174
 20
153.186
 11
9.38197
 21
152.876
  0
LINE
  8
0
 10
9.38197
 20
152.876
 11
9.17291
 21
152.513
  0
LINE
  8
0
 10
9.17291
 20
152.513
 11
9.04372
 21
152.116
  0
LINE
  8
0
 10
9.04372
 20
152.116
 11
9
 21
151.7
  0
LINE
  8
0
 10
9
 20
151.7
 11
9.01508
 21
105.424
  0
LINE
  8
0
 10
9.01508
 20
105.424
 11
9.13544
 21
104.279
  0
LINE
  8
0
 10
9.13544
 20
104.279
 11
9.37482
 21
103.153
  0
LINE
  8
0
 10
9.37482
 20
103.153
 11
9.73062
 21
102.058
  0
LINE
  8
0
 10
9.73062
 20
102.058
 11
10.1989
 21
101.006
  0
LINE
  8
0
 10
10.1989
 20
101.006
 11
10.7746
 21
100.009
  0
LINE
  8
0
 10
10.7746
 20
100.009
 11
11.4514
 21
99.0775
  0
LINE
  8
0
 10
11.4514
 20
99.0775
 11
12.2218
 21
98.2218
  0
LINE
  8
0
 10
12.2218
 20
98.2218
 11
13.0924
 21
97.4393
  0
LINE
  8
0
 10
13.0924
 20
97.4393
 11
14.0412
 21
96.7538
  0
LINE
  8
0
 10
14.0412
 20
96.7538
 11
15.0404
 21
96.1815
  0
LINE
  8
0
 10
15.0404
 20
96.1815
 11
16.0938
 21
95.7169
  0
LINE
  8
0
 10
16.0938
 20
95.7169
 11
17.1901
 21
95.3649
  0
LINE
  8
0
 10
17.1901
 20
95.3649
 11
18.3361
 21
95.1266
  0
LINE
  8
0
 10
18.3361
 20
95.1266
 11
19.4818
 21
95.0122
  0
LINE
  8
0
 10
19.4818
 20
95.0122
 11
20.6524
 21
95.0193
  0
LINE
  8
0
 10
19.9164
 20
150.404
 11
19.7528
 21
150.439
  0
LINE
  8
0
 10
19.7528
 20
150.439
 11
19.6
 21
150.507
  0
LINE
  8
0
 10
19.6
 20
150.507
 11
19.4647
 21
150.605
  0
LINE
  8
0
 10
19.4647
 20
150.605
 11
19.3528
 21
150.73
  0
LINE
  8
0
 10
19.3528
 20
150.73
 11
19.2692
 21
150.875
  0
LINE
  8
0
 10
19.2692
 20
150.875
 11
19.2175
 21
151.034
  0
LINE
  8
0
 10
19.2175
 20
151.034
 11
19.2
 21
151.2
  0
LINE
  8
0
 10
19.2
 20
151.2
 11
19.2175
 21
151.366
  0
LINE
  8
0
 10
19.2175
 20
151.366
 11
19.2692
 21
151.525
  0
LINE
  8
0
 10
19.2692
 20
151.525
 11
19.3528
 21
151.67
  0
LINE
  8
0
 10
19.3528
 20
151.67
 11
19.4647
 21
151.795
  0
LINE
  8
0
 10
19.4647
 20
151.795
 11
19.6
 21
151.893
  0
LINE
  8
0
 10
19.6
 20
151.893
 11
19.7528
 21
151.961
  0
LINE
  8
0
 10
19.7528
 20
151.961
 11
19.9164
 21
151.996
  0
LINE
  8
0
 10
19.9164
 20
151.996
 11
20.0836
 21
151.996
  0
LINE
  8
0
 10
20.0836
 20
151.996
 11
20.2472
 21
151.961
  0
LINE
  8
0
 10
20.2472
 20
151.961
 11
20.4
 21
151.893
  0
LINE
  8
0
 10
20.4
 20
151.893
 11
20.5353
 21
151.795
  0
LINE
  8
0
 10
20.5353
 20
151.795
 11
20.6472
 21
151.67
  0
LINE
  8
0
 10
20.6472
 20
151.67
 11
20.7308
 21
151.525
  0
LINE
  8
0
 10
20.7308
 20
151.525
 11
20.7825
 21
151.366
  0
LINE
  8
0
 10
20.7825
 20
151.366
 11
20.8
 21
151.2
  0
LINE
  8
0
 10
20.8
 20
151.2
 11
20.7825
 21
151.034
  0
LINE
  8
0
 10
20.7825
 20
151.034
 11
20.7308
 21
150.875
  0
LINE
  8
0
 10
20.7308
 20
150.875
 11
20.6472
 21
150.73
  0
LINE
  8
0
 10
20.6472
 20
150.73
 11
20.5353
 21
150.605
  0
LINE
  8
0
 10
20.5353
 20
150.605
 11
20.4
 21
150.507
  0
LINE
  8
0
 10
20.4
 20
150.507
 11
20.2472
 21
150.439
  0
LINE
  8
0
 10
20.2472
 20
150.439
 11
20.0836
 21
150.404
  0
LINE
  8
0
 10
20.0836
 20
150.404
 11
19.9164
 21
150.404
  0
LINE
  8
0
 10
19.7387
 20
134.214
 11
19.2275
 21
134.322
  0
LINE
  8
0
 10
19.2275
 20
134.322
 11
18.75
 21
134.535
  0
LINE
  8
0
 10
18.75
 20
134.535
 11
18.3272
 21
134.842
  0
LINE
  8
0
 10
18.3272
 20
134.842
 11
17.9775
 21
135.231
  0
LINE
  8
0
 10
17.9775
 20
135.231
 11
17.7161
 21
135.683
  0
LINE
  8
0
 10
17.7161
 20
135.683
 11
17.5546
 21
136.18
  0
LINE
  8
0
 10
17.5546
 20
136.18
 11
17.5
 21
136.7
  0
LINE
  8
0
 10
17.5
 20
136.7
 11
17.5
 21
137.553
  0
LINE
  8
0
 10
17.5
 20
137.553
 11
17.125
 21
137.72
  0
LINE
  8
0
 10
17.125
 20
137.72
 11
16.1525
 21
138.427
  0
LINE
  8
0
 10
16.1525
 20
138.427
 11
15.3482
 21
139.32
  0
LINE
  8
0
 10
15.3482
 20
139.32
 11
14.7471
 21
140.361
  0
LINE
  8
0
 10
14.7471
 20
140.361
 11
14.3757
 21
141.505
  0
LINE
  8
0
 10
14.3757
 20
141.505
 11
14.25
 21
142.7
  0
LINE
  8
0
 10
14.25
 20
142.7
 11
14.3757
 21
143.895
  0
LINE
  8
0
 10
14.3757
 20
143.895
 11
14.7471
 21
145.039
  0
LINE
  8
0
 10
14.7471
 20
145.039
 11
15.3482
 21
146.08
  0
LINE
  8
0
 10
15.3482
 20
146.08
 11
16.1525
 21
146.973
  0
LINE
  8
0
 10
16.1525
 20
146.973
 11
17.125
 21
147.68
  0
LINE
  8
0
 10
17.125
 20
147.68
 11
18.2232
 21
148.169
  0
LINE
  8
0
 10
18.2232
 20
148.169
 11
19.399
 21
148.419
  0
LINE
  8
0
 10
19.399
 20
148.419
 11
20.601
 21
148.419
  0
LINE
  8
0
 10
20.601
 20
148.419
 11
21.7768
 21
148.169
  0
LINE
  8
0
 10
21.7768
 20
148.169
 11
22.875
 21
147.68
  0
LINE
  8
0
 10
22.875
 20
147.68
 11
23.8475
 21
146.973
  0
LINE
  8
0
 10
23.8475
 20
146.973
 11
24.6518
 21
146.08
  0
LINE
  8
0
 10
24.6518
 20
146.08
 11
25.2529
 21
145.039
  0
LINE
  8
0
 10
25.2529
 20
145.039
 11
25.6243
 21
143.895
  0
LINE
  8
0
 10
25.6243
 20
143.895
 11
25.75
 21
142.7
  0
LINE
  8
0
 10
25.75
 20
142.7
 11
25.6243
 21
141.505
  0
LINE
  8
0
 10
25.6243
 20
141.505
 11
25.2529
 21
140.361
  0
LINE
  8
0
 10
25.2529
 20
140.361
 11
24.6518
 21
139.32
  0
LINE
  8
0
 10
24.6518
 20
139.32
 11
23.8475
 21
138.427
  0
LINE
  8
0
 10
23.8475
 20
138.427
 11
22.875
 21
137.72
  0
LINE
  8
0
 10
22.875
 20
137.72
 11
22.5
 21
137.553
  0
LINE
  8
0
 10
22.5
 20
137.553
 11
22.5
 21
136.7
  0
LINE
  8
0
 10
22.5
 20
136.7
 11
22.4454
 21
136.18
  0
LINE
  8
0
 10
22.4454
 20
136.18
 11
22.2839
 21
135.683
  0
LINE
  8
0
 10
22.2839
 20
135.683
 11
22.0225
 21
135.231
  0
LINE
  8
0
 10
22.0225
 20
135.231
 11
21.6728
 21
134.842
  0
LINE
  8
0
 10
21.6728
 20
134.842
 11
21.25
 21
134.535
  0
LINE
  8
0
 10
21.25
 20
134.535
 11
20.7725
 21
134.322
  0
LINE
  8
0
 10
20.7725
 20
134.322
 11
20.2613
 21
134.214
  0
LINE
  8
0
 10
20.2613
 20
134.214
 11
19.7387
 21
134.214
  0
LINE
  8
0
 10
19.9164
 20
122.704
 11
19.7528
 21
122.739
  0
LINE
  8
0
 10
19.7528
 20
122.739
 11
19.6
 21
122.807
  0
LINE
  8
0
 10
19.6
 20
122.807
 11
19.4647
 21
122.905
  0
LINE
  8
0
 10
19.4647
 20
122.905
 11
19.3528
 21
123.03
  0
LINE
  8
0
 10
19.3528
 20
123.03
 11
19.2692
 21
123.175
  0
LINE
  8
0
 10
19.2692
 20
123.175
 11
19.2175
 21
123.334
  0
LINE
  8
0
 10
19.2175
 20
123.334
 11
19.2
 21
123.5
  0
LINE
  8
0
 10
19.2
 20
123.5
 11
19.2175
 21
123.666
  0
LINE
  8
0
 10
19.2175
 20
123.666
 11
19.2692
 21
123.825
  0
LINE
  8
0
 10
19.2692
 20
123.825
 11
19.3528
 21
123.97
  0
LINE
  8
0
 10
19.3528
 20
123.97
 11
19.4647
 21
124.095
  0
LINE
  8
0
 10
19.4647
 20
124.095
 11
19.6
 21
124.193
  0
LINE
  8
0
 10
19.6
 20
124.193
 11
19.7528
 21
124.261
  0
LINE
  8
0
 10
19.7528
 20
124.261
 11
19.9164
 21
124.296
  0
LINE
  8
0
 10
19.9164
 20
124.296
 11
20.0836
 21
124.296
  0
LINE
  8
0
 10
20.0836
 20
124.296
 11
20.2472
 21
124.261
  0
LINE
  8
0
 10
20.2472
 20
124.261
 11
20.4
 21
124.193
  0
LINE
  8
0
 10
20.4
 20
124.193
 11
20.5353
 21
124.095
  0
LINE
  8
0
 10
20.5353
 20
124.095
 11
20.6472
 21
123.97
  0
LINE
  8
0
 10
20.6472
 20
123.97
 11
20.7308
 21
123.825
  0
LINE
  8
0
 10
20.7308
 20
123.825
 11
20.7825
 21
123.666
  0
LINE
  8
0
 10
20.7825
 20
123.666
 11
20.8
 21
123.5
  0
LINE
  8
0
 10
20.8
 20
123.5
 11
20.7825
 21
123.334
  0
LINE
  8
0
 10
20.7825
 20
123.334
 11
20.7308
 21
123.175
  0
LINE
  8
0
 10
20.7308
 20
123.175
 11
20.6472
 21
123.03
  0
LINE
  8
0
 10
20.6472
 20
123.03
 11
20.5353
 21
122.905
  0
LINE
  8
0
 10
20.5353
 20
122.905
 11
20.4
 21
122.807
  0
LINE
  8
0
 10
20.4
 20
122.807
 11
20.2472
 21
122.739
  0
LINE
  8
0
 10
20.2472
 20
122.739
 11
20.0836
 21
122.704
  0
LINE
  8
0
 10
20.0836
 20
122.704
 11
19.9164
 21
122.704
  0
LINE
  8
0
 10
25.196
 20
114.691
 11
25.0966
 21
114.723
  0
LINE
  8
0
 10
25.0966
 20
114.723
 11
25.0061
 21
114.775
  0
LINE
  8
0
 10
25.0061
 20
114.775
 11
24.9284
 21
114.845
  0
LINE
  8
0
 10
24.9284
 20
114.845
 11
24.867
 21
114.93
  0
LINE
  8
0
 10
24.867
 20
114.93
 11
24.8245
 21
115.025
  0
LINE
  8
0
 10
24.8245
 20
115.025
 11
24.8027
 21
115.128
  0
LINE
  8
0
 10
24.8027
 20
115.128
 11
24.8027
 21
115.232
  0
LINE
  8
0
 10
24.8027
 20
115.232
 11
24.8245
 21
115.334
  0
LINE
  8
0
 10
24.8245
 20
115.334
 11
24.867
 21
115.43
  0
LINE
  8
0
 10
24.867
 20
115.43
 11
24.9284
 21
115.514
  0
LINE
  8
0
 10
24.9284
 20
115.514
 11
25.0061
 21
115.584
  0
LINE
  8
0
 10
25.0061
 20
115.584
 11
25.0966
 21
115.637
  0
LINE
  8
0
 10
25.0966
 20
115.637
 11
25.196
 21
115.669
  0
LINE
  8
0
 10
25.196
 20
115.669
 11
25.3
 21
115.68
  0
LINE
  8
0
 10
25.3
 20
115.68
 11
25.4039
 21
115.669
  0
LINE
  8
0
 10
25.4039
 20
115.669
 11
25.5034
 21
115.637
  0
LINE
  8
0
 10
25.5034
 20
115.637
 11
25.5939
 21
115.584
  0
LINE
  8
0
 10
25.5939
 20
115.584
 11
25.6716
 21
115.514
  0
LINE
  8
0
 10
25.6716
 20
115.514
 11
25.733
 21
115.43
  0
LINE
  8
0
 10
25.733
 20
115.43
 11
25.7755
 21
115.334
  0
LINE
  8
0
 10
25.7755
 20
115.334
 11
25.7973
 21
115.232
  0
LINE
  8
0
 10
25.7973
 20
115.232
 11
25.7973
 21
115.128
  0
LINE
  8
0
 10
25.7973
 20
115.128
 11
25.7755
 21
115.025
  0
LINE
  8
0
 10
25.7755
 20
115.025
 11
25.733
 21
114.93
  0
LINE
  8
0
 10
25.733
 20
114.93
 11
25.6716
 21
114.845
  0
LINE
  8
0
 10
25.6716
 20
114.845
 11
25.5939
 21
114.775
  0
LINE
  8
0
 10
25.5939
 20
114.775
 11
25.5034
 21
114.723
  0
LINE
  8
0
 10
25.5034
 20
114.723
 11
25.4039
 21
114.691
  0
LINE
  8
0
 10
25.4039
 20
114.691
 11
25.3
 21
114.68
  0
LINE
  8
0
 10
25.3
 20
114.68
 11
25.196
 21
114.691
  0
LINE
  8
0
 10
19.6342
 20
102.519
 11
18.9184
 21
102.671
  0
LINE
  8
0
 10
18.9184
 20
102.671
 11
18.25
 21
102.969
  0
LINE
  8
0
 10
18.25
 20
102.969
 11
17.6581
 21
103.399
  0
LINE
  8
0
 10
17.6581
 20
103.399
 11
17.1684
 21
103.943
  0
LINE
  8
0
 10
17.1684
 20
103.943
 11
16.8026
 21
104.576
  0
LINE
  8
0
 10
16.8026
 20
104.576
 11
16.5765
 21
105.272
  0
LINE
  8
0
 10
16.5765
 20
105.272
 11
16.5
 21
106
  0
LINE
  8
0
 10
16.5
 20
106
 11
16.5765
 21
106.728
  0
LINE
  8
0
 10
16.5765
 20
106.728
 11
16.8026
 21
107.424
  0
LINE
  8
0
 10
16.8026
 20
107.424
 11
17.1684
 21
108.057
  0
LINE
  8
0
 10
17.1684
 20
108.057
 11
17.6581
 21
108.601
  0
LINE
  8
0
 10
17.6581
 20
108.601
 11
18.25
 21
109.031
  0
LINE
  8
0
 10
18.25
 20
109.031
 11
18.9184
 21
109.329
  0
LINE
  8
0
 10
18.9184
 20
109.329
 11
19.6342
 21
109.481
  0
LINE
  8
0
 10
19.6342
 20
109.481
 11
20.3658
 21
109.481
  0
LINE
  8
0
 10
20.3658
 20
109.481
 11
21.0816
 21
109.329
  0
LINE
  8
0
 10
21.0816
 20
109.329
 11
21.75
 21
109.031
  0
LINE
  8
0
 10
21.75
 20
109.031
 11
22.3419
 21
108.601
  0
LINE
  8
0
 10
22.3419
 20
108.601
 11
22.8316
 21
108.057
  0
LINE
  8
0
 10
22.8316
 20
108.057
 11
23.1974
 21
107.424
  0
LINE
  8
0
 10
23.1974
 20
107.424
 11
23.4235
 21
106.728
  0
LINE
  8
0
 10
23.4235
 20
106.728
 11
23.5
 21
106
  0
LINE
  8
0
 10
23.5
 20
106
 11
23.4235
 21
105.272
  0
LINE
  8
0
 10
23.4235
 20
105.272
 11
23.1974
 21
104.576
  0
LINE
  8
0
 10
23.1974
 20
104.576
 11
22.8316
 21
103.943
  0
LINE
  8
0
 10
22.8316
 20
103.943
 11
22.3419
 21
103.399
  0
LINE
  8
0
 10
22.3419
 20
103.399
 11
21.75
 21
102.969
  0
LINE
  8
0
 10
21.75
 20
102.969
 11
21.0816
 21
102.671
  0
LINE
  8
0
 10
21.0816
 20
102.671
 11
20.3658
 21
102.519
  0
LINE
  8
0
 10
20.3658
 20
102.519
 11
19.6342
 21
102.519
  0
LINE
  8
0
 10
31.9627
 20
67
 11
32
 21
67
  0
LINE
  8
0
 10
32
 20
67
 11
32
 21
67.0373
  0
LINE
  8
0
 10
32
 20
67.0373
 11
70.1421
 21
105.179
  0
LINE
  8
0
 10
70.1421
 20
105.179
 11
70.4053
 21
105.504
  0
LINE
  8
0
 10
70.4053
 20
105.504
 11
70.5951
 21
105.877
  0
LINE
  8
0
 10
70.5951
 20
105.877
 11
70.7033
 21
106.281
  0
LINE
  8
0
 10
70.7033
 20
106.281
 11
70.7252
 21
106.698
  0
LINE
  8
0
 10
70.7252
 20
106.698
 11
70.6598
 21
107.111
  0
LINE
  8
0
 10
70.6598
 20
107.111
 11
70.5099
 21
107.502
  0
LINE
  8
0
 10
70.5099
 20
107.502
 11
70.2822
 21
107.852
  0
LINE
  8
0
 10
70.2822
 20
107.852
 11
70.1344
 21
108
  0
LINE
  8
0
 10
70.1344
 20
108
 11
70.1421
 21
108.008
  0
LINE
  8
0
 10
70.1421
 20
108.008
 11
57.4142
 21
120.736
  0
LINE
  8
0
 10
57.4142
 20
120.736
 11
57.4065
 21
120.728
  0
LINE
  8
0
 10
57.4065
 20
120.728
 11
57.2586
 21
120.876
  0
LINE
  8
0
 10
57.2586
 20
120.876
 11
56.908
 21
121.104
  0
LINE
  8
0
 10
56.908
 20
121.104
 11
56.5176
 21
121.253
  0
LINE
  8
0
 10
56.5176
 20
121.253
 11
56.1047
 21
121.319
  0
LINE
  8
0
 10
56.1047
 20
121.319
 11
55.6871
 21
121.297
  0
LINE
  8
0
 10
55.6871
 20
121.297
 11
55.2833
 21
121.189
  0
LINE
  8
0
 10
55.2833
 20
121.189
 11
54.9107
 21
120.999
  0
LINE
  8
0
 10
54.9107
 20
120.999
 11
54.5858
 21
120.736
  0
LINE
  8
0
 10
54.5858
 20
120.736
 11
26.85
 21
93
  0
LINE
  8
0
 10
26.85
 20
93
 11
5
 21
93
  0
LINE
  8
0
 10
5
 20
93
 11
5
 21
108
  0
LINE
  8
0
 10
5
 20
108
 11
4.89075
 21
109.04
  0
LINE
  8
0
 10
4.89075
 20
109.04
 11
4.56773
 21
110.034
  0
LINE
  8
0
 10
4.56773
 20
110.034
 11
4.04509
 21
110.939
  0
LINE
  8
0
 10
4.04509
 20
110.939
 11
3.34566
 21
111.716
  0
LINE
  8
0
 10
3.34566
 20
111.716
 11
2.5
 21
112.33
  0
LINE
  8
0
 10
2.5
 20
112.33
 11
1.54509
 21
112.755
  0
LINE
  8
0
 10
1.54509
 20
112.755
 11
0.522644
 21
112.973
  0
LINE
  8
0
 10
0.522644
 20
112.973
 11
-0.522644
 21
112.973
  0
LINE
  8
0
 10
-0.522644
 20
112.973
 11
-1.54507
 21
112.755
  0
LINE
  8
0
 10
-1.54507
 20
112.755
 11
-2.5
 21
112.33
  0
LINE
  8
0
 10
-2.5
 20
112.33
 11
-3.34564
 21
111.716
  0
LINE
  8
0
 10
-3.34564
 20
111.716
 11
-4.04507
 21
110.939
  0
LINE
  8
0
 10
-4.04507
 20
110.939
 11
-4.56772
 21
110.034
  0
LINE
  8
0
 10
-4.56772
 20
110.034
 11
-4.89073
 21
109.04
  0
LINE
  8
0
 10
-4.89073
 20
109.04
 11
-5
 21
108
  0
LINE
  8
0
 10
-5
 20
108
 11
-5
 21
93
  0
LINE
  8
0
 10
-5
 20
93
 11
-26.9
 21
93
  0
LINE
  8
0
 10
-26.9
 20
93
 11
-54.6358
 21
120.736
  0
LINE
  8
0
 10
-54.6358
 20
120.736
 11
-54.9607
 21
120.999
  0
LINE
  8
0
 10
-54.9607
 20
120.999
 11
-55.3333
 21
121.189
  0
LINE
  8
0
 10
-55.3333
 20
121.189
 11
-55.7371
 21
121.297
  0
LINE
  8
0
 10
-55.7371
 20
121.297
 11
-56.1547
 21
121.319
  0
LINE
  8
0
 10
-56.1547
 20
121.319
 11
-56.5676
 21
121.253
  0
LINE
  8
0
 10
-56.5676
 20
121.253
 11
-56.958
 21
121.104
  0
LINE
  8
0
 10
-56.958
 20
121.104
 11
-57.3086
 21
120.876
  0
LINE
  8
0
 10
-57.3086
 20
120.876
 11
-57.4565
 21
120.728
  0
LINE
  8
0
 10
-57.4565
 20
120.728
 11
-57.4642
 21
120.736
  0
LINE
  8
0
 10
-57.4642
 20
120.736
 11
-70.1921
 21
108.008
  0
LINE
  8
0
 10
-70.1921
 20
108.008
 11
-70.1844
 21
108
  0
LINE
  8
0
 10
-70.1844
 20
108
 11
-70.3322
 21
107.852
  0
LINE
  8
0
 10
-70.3322
 20
107.852
 11
-70.5599
 21
107.502
  0
LINE
  8
0
 10
-70.5599
 20
107.502
 11
-70.7098
 21
107.111
  0
LINE
  8
0
 10
-70.7098
 20
107.111
 11
-70.7752
 21
106.698
  0
LINE
  8
0
 10
-70.7752
 20
106.698
 11
-70.7533
 21
106.281
  0
LINE
  8
0
 10
-70.7533
 20
106.281
 11
-70.6451
 21
105.877
  0
LINE
  8
0
 10
-70.6451
 20
105.877
 11
-70.4553
 21
105.504
  0
LINE
  8
0
 10
-70.4553
 20
105.504
 11
-70.1921
 21
105.179
  0
LINE
  8
0
 10
-70.1921
 20
105.179
 11
-32.0084
 21
66.9957
  0
LINE
  8
0
 10
-32.0084
 20
66.9957
 11
-32
 21
67.004
  0
LINE
  8
0
 10
-32
 20
67.004
 11
-32
 21
67
  0
LINE
  8
0
 10
-32
 20
67
 11
31.954
 21
67
  0
LINE
  8
0
 10
31.954
 20
67
 11
31.9584
 21
66.9957
  0
LINE
  8
0
 10
31.9584
 20
66.9957
 11
31.9627
 21
67
  0
LINE
  8
0
 10
39.9487
 20
99.0276
 11
56
 21
115.079
  0
LINE
  8
0
 10
56
 20
115.079
 11
64.4853
 21
106.594
  0
LINE
  8
0
 10
64.4853
 20
106.594
 11
48.4339
 21
90.5423
  0
LINE
  8
0
 10
48.4339
 20
90.5423
 11
39.9487
 21
99.0276
  0
LINE
  8
0
 10
-64.5353
 20
106.594
 11
-56.05
 21
115.079
  0
LINE
  8
0
 10
-56.05
 20
115.079
 11
-39.9987
 21
99.0276
  0
LINE
  8
0
 10
-39.9987
 20
99.0276
 11
-48.4839
 21
90.5423
  0
LINE
  8
0
 10
-48.4839
 20
90.5423
 11
-64.5353
 21
106.594
  0
LINE
  8
0
 10
61.8033
 20
111.831
 11
61.6472
 21
111.891
  0
LINE
  8
0
 10
61.6472
 20
111.891
 11
61.5069
 21
111.982
  0
LINE
  8
0
 10
61.5069
 20
111.982
 11
61.3887
 21
112.101
  0
LINE
  8
0
 10
61.3887
 20
112.101
 11
61.2976
 21
112.241
  0
LINE
  8
0
 10
61.2976
 20
112.241
 11
61.2377
 21
112.397
  0
LINE
  8
0
 10
61.2377
 20
112.397
 11
61.2115
 21
112.562
  0
LINE
  8
0
 10
61.2115
 20
112.562
 11
61.2202
 21
112.729
  0
LINE
  8
0
 10
61.2202
 20
112.729
 11
61.2635
 21
112.891
  0
LINE
  8
0
 10
61.2635
 20
112.891
 11
61.3395
 21
113.04
  0
LINE
  8
0
 10
61.3395
 20
113.04
 11
61.4447
 21
113.17
  0
LINE
  8
0
 10
61.4447
 20
113.17
 11
61.5747
 21
113.275
  0
LINE
  8
0
 10
61.5747
 20
113.275
 11
61.7237
 21
113.351
  0
LINE
  8
0
 10
61.7237
 20
113.351
 11
61.8853
 21
113.394
  0
LINE
  8
0
 10
61.8853
 20
113.394
 11
62.0523
 21
113.403
  0
LINE
  8
0
 10
62.0523
 20
113.403
 11
62.2175
 21
113.377
  0
LINE
  8
0
 10
62.2175
 20
113.377
 11
62.3736
 21
113.317
  0
LINE
  8
0
 10
62.3736
 20
113.317
 11
62.5139
 21
113.226
  0
LINE
  8
0
 10
62.5139
 20
113.226
 11
62.6321
 21
113.108
  0
LINE
  8
0
 10
62.6321
 20
113.108
 11
62.7232
 21
112.967
  0
LINE
  8
0
 10
62.7232
 20
112.967
 11
62.7831
 21
112.811
  0
LINE
  8
0
 10
62.7831
 20
112.811
 11
62.8093
 21
112.646
  0
LINE
  8
0
 10
62.8093
 20
112.646
 11
62.8006
 21
112.479
  0
LINE
  8
0
 10
62.8006
 20
112.479
 11
62.7573
 21
112.317
  0
LINE
  8
0
 10
62.7573
 20
112.317
 11
62.6813
 21
112.168
  0
LINE
  8
0
 10
62.6813
 20
112.168
 11
62.5761
 21
112.038
  0
LINE
  8
0
 10
62.5761
 20
112.038
 11
62.4461
 21
111.933
  0
LINE
  8
0
 10
62.4461
 20
111.933
 11
62.2971
 21
111.857
  0
LINE
  8
0
 10
62.2971
 20
111.857
 11
62.1355
 21
111.814
  0
LINE
  8
0
 10
62.1355
 20
111.814
 11
61.9685
 21
111.805
  0
LINE
  8
0
 10
61.9685
 20
111.805
 11
61.8033
 21
111.831
  0
LINE
  8
0
 10
-62.1855
 20
111.814
 11
-62.3471
 21
111.857
  0
LINE
  8
0
 10
-62.3471
 20
111.857
 11
-62.4961
 21
111.933
  0
LINE
  8
0
 10
-62.4961
 20
111.933
 11
-62.6261
 21
112.038
  0
LINE
  8
0
 10
-62.6261
 20
112.038
 11
-62.7313
 21
112.168
  0
LINE
  8
0
 10
-62.7313
 20
112.168
 11
-62.8073
 21
112.317
  0
LINE
  8
0
 10
-62.8073
 20
112.317
 11
-62.8506
 21
112.479
  0
LINE
  8
0
 10
-62.8506
 20
112.479
 11
-62.8593
 21
112.646
  0
LINE
  8
0
 10
-62.8593
 20
112.646
 11
-62.8331
 21
112.811
  0
LINE
  8
0
 10
-62.8331
 20
112.811
 11
-62.7732
 21
112.967
  0
LINE
  8
0
 10
-62.7732
 20
112.967
 11
-62.6821
 21
113.108
  0
LINE
  8
0
 10
-62.6821
 20
113.108
 11
-62.5639
 21
113.226
  0
LINE
  8
0
 10
-62.5639
 20
113.226
 11
-62.4236
 21
113.317
  0
LINE
  8
0
 10
-62.4236
 20
113.317
 11
-62.2675
 21
113.377
  0
LINE
  8
0
 10
-62.2675
 20
113.377
 11
-62.1023
 21
113.403
  0
LINE
  8
0
 10
-62.1023
 20
113.403
 11
-61.9353
 21
113.394
  0
LINE
  8
0
 10
-61.9353
 20
113.394
 11
-61.7737
 21
113.351
  0
LINE
  8
0
 10
-61.7737
 20
113.351
 11
-61.6247
 21
113.275
  0
LINE
  8
0
 10
-61.6247
 20
113.275
 11
-61.4947
 21
113.17
  0
LINE
  8
0
 10
-61.4947
 20
113.17
 11
-61.3895
 21
113.04
  0
LINE
  8
0
 10
-61.3895
 20
113.04
 11
-61.3135
 21
112.891
  0
LINE
  8
0
 10
-61.3135
 20
112.891
 11
-61.2702
 21
112.729
  0
LINE
  8
0
 10
-61.2702
 20
112.729
 11
-61.2615
 21
112.562
  0
LINE
  8
0
 10
-61.2615
 20
112.562
 11
-61.2877
 21
112.397
  0
LINE
  8
0
 10
-61.2877
 20
112.397
 11
-61.3476
 21
112.241
  0
LINE
  8
0
 10
-61.3476
 20
112.241
 11
-61.4387
 21
112.101
  0
LINE
  8
0
 10
-61.4387
 20
112.101
 11
-61.5569
 21
111.982
  0
LINE
  8
0
 10
-61.5569
 20
111.982
 11
-61.6972
 21
111.891
  0
LINE
  8
0
 10
-61.6972
 20
111.891
 11
-61.8533
 21
111.831
  0
LINE
  8
0
 10
-61.8533
 20
111.831
 11
-62.0185
 21
111.805
  0
LINE
  8
0
 10
-62.0185
 20
111.805
 11
-62.1855
 21
111.814
  0
LINE
  8
0
 10
-0.156784
 20
106.508
 11
-0.463516
 21
106.573
  0
LINE
  8
0
 10
-0.463516
 20
106.573
 11
-0.75
 21
106.701
  0
LINE
  8
0
 10
-0.75
 20
106.701
 11
-1.00369
 21
106.885
  0
LINE
  8
0
 10
-1.00369
 20
106.885
 11
-1.21352
 21
107.118
  0
LINE
  8
0
 10
-1.21352
 20
107.118
 11
-1.37032
 21
107.39
  0
LINE
  8
0
 10
-1.37032
 20
107.39
 11
-1.46721
 21
107.688
  0
LINE
  8
0
 10
-1.46721
 20
107.688
 11
-1.5
 21
108
  0
LINE
  8
0
 10
-1.5
 20
108
 11
-1.46721
 21
108.312
  0
LINE
  8
0
 10
-1.46721
 20
108.312
 11
-1.37032
 21
108.61
  0
LINE
  8
0
 10
-1.37032
 20
108.61
 11
-1.21352
 21
108.882
  0
LINE
  8
0
 10
-1.21352
 20
108.882
 11
-1.00369
 21
109.115
  0
LINE
  8
0
 10
-1.00369
 20
109.115
 11
-0.75
 21
109.299
  0
LINE
  8
0
 10
-0.75
 20
109.299
 11
-0.463516
 21
109.427
  0
LINE
  8
0
 10
-0.463516
 20
109.427
 11
-0.156784
 21
109.492
  0
LINE
  8
0
 10
-0.156784
 20
109.492
 11
0.156799
 21
109.492
  0
LINE
  8
0
 10
0.156799
 20
109.492
 11
0.463531
 21
109.427
  0
LINE
  8
0
 10
0.463531
 20
109.427
 11
0.75
 21
109.299
  0
LINE
  8
0
 10
0.75
 20
109.299
 11
1.00371
 21
109.115
  0
LINE
  8
0
 10
1.00371
 20
109.115
 11
1.21353
 21
108.882
  0
LINE
  8
0
 10
1.21353
 20
108.882
 11
1.37033
 21
108.61
  0
LINE
  8
0
 10
1.37033
 20
108.61
 11
1.46722
 21
108.312
  0
LINE
  8
0
 10
1.46722
 20
108.312
 11
1.5
 21
108
  0
LINE
  8
0
 10
1.5
 20
108
 11
1.46722
 21
107.688
  0
LINE
  8
0
 10
1.46722
 20
107.688
 11
1.37033
 21
107.39
  0
LINE
  8
0
 10
1.37033
 20
107.39
 11
1.21353
 21
107.118
  0
LINE
  8
0
 10
1.21353
 20
107.118
 11
1.00371
 21
106.885
  0
LINE
  8
0
 10
1.00371
 20
106.885
 11
0.75
 21
106.701
  0
LINE
  8
0
 10
0.75
 20
106.701
 11
0.463531
 21
106.573
  0
LINE
  8
0
 10
0.463531
 20
106.573
 11
0.156799
 21
106.508
  0
LINE
  8
0
 10
0.156799
 20
106.508
 11
-0.156784
 21
106.508
  0
LINE
  8
0
 10
42.2165
 20
92.2445
 11
42.0603
 21
92.3044
  0
LINE
  8
0
 10
42.0603
 20
92.3044
 11
41.9201
 21
92.3955
  0
LINE
  8
0
 10
41.9201
 20
92.3955
 11
41.8018
 21
92.5137
  0
LINE
  8
0
 10
41.8018
 20
92.5137
 11
41.7107
 21
92.654
  0
LINE
  8
0
 10
41.7107
 20
92.654
 11
41.6508
 21
92.8102
  0
LINE
  8
0
 10
41.6508
 20
92.8102
 11
41.6246
 21
92.9753
  0
LINE
  8
0
 10
41.6246
 20
92.9753
 11
41.6334
 21
93.1423
  0
LINE
  8
0
 10
41.6334
 20
93.1423
 11
41.6767
 21
93.3039
  0
LINE
  8
0
 10
41.6767
 20
93.3039
 11
41.7526
 21
93.4529
  0
LINE
  8
0
 10
41.7526
 20
93.4529
 11
41.8579
 21
93.5829
  0
LINE
  8
0
 10
41.8579
 20
93.5829
 11
41.9878
 21
93.6881
  0
LINE
  8
0
 10
41.9878
 20
93.6881
 11
42.1369
 21
93.7641
  0
LINE
  8
0
 10
42.1369
 20
93.7641
 11
42.2984
 21
93.8073
  0
LINE
  8
0
 10
42.2984
 20
93.8073
 11
42.4654
 21
93.8161
  0
LINE
  8
0
 10
42.4654
 20
93.8161
 11
42.6306
 21
93.7899
  0
LINE
  8
0
 10
42.6306
 20
93.7899
 11
42.7867
 21
93.73
  0
LINE
  8
0
 10
42.7867
 20
93.73
 11
42.927
 21
93.6389
  0
LINE
  8
0
 10
42.927
 20
93.6389
 11
43.0453
 21
93.5206
  0
LINE
  8
0
 10
43.0453
 20
93.5206
 11
43.1364
 21
93.3804
  0
LINE
  8
0
 10
43.1364
 20
93.3804
 11
43.1963
 21
93.2242
  0
LINE
  8
0
 10
43.1963
 20
93.2242
 11
43.2224
 21
93.0591
  0
LINE
  8
0
 10
43.2224
 20
93.0591
 11
43.2137
 21
92.8921
  0
LINE
  8
0
 10
43.2137
 20
92.8921
 11
43.1704
 21
92.7305
  0
LINE
  8
0
 10
43.1704
 20
92.7305
 11
43.0945
 21
92.5815
  0
LINE
  8
0
 10
43.0945
 20
92.5815
 11
42.9892
 21
92.4515
  0
LINE
  8
0
 10
42.9892
 20
92.4515
 11
42.8593
 21
92.3463
  0
LINE
  8
0
 10
42.8593
 20
92.3463
 11
42.7102
 21
92.2703
  0
LINE
  8
0
 10
42.7102
 20
92.2703
 11
42.5487
 21
92.2271
  0
LINE
  8
0
 10
42.5487
 20
92.2271
 11
42.3817
 21
92.2183
  0
LINE
  8
0
 10
42.3817
 20
92.2183
 11
42.2165
 21
92.2445
  0
LINE
  8
0
 10
-42.5987
 20
92.2271
 11
-42.7602
 21
92.2703
  0
LINE
  8
0
 10
-42.7602
 20
92.2703
 11
-42.9093
 21
92.3463
  0
LINE
  8
0
 10
-42.9093
 20
92.3463
 11
-43.0392
 21
92.4515
  0
LINE
  8
0
 10
-43.0392
 20
92.4515
 11
-43.1445
 21
92.5815
  0
LINE
  8
0
 10
-43.1445
 20
92.5815
 11
-43.2204
 21
92.7305
  0
LINE
  8
0
 10
-43.2204
 20
92.7305
 11
-43.2637
 21
92.8921
  0
LINE
  8
0
 10
-43.2637
 20
92.8921
 11
-43.2724
 21
93.0591
  0
LINE
  8
0
 10
-43.2724
 20
93.0591
 11
-43.2463
 21
93.2242
  0
LINE
  8
0
 10
-43.2463
 20
93.2242
 11
-43.1864
 21
93.3804
  0
LINE
  8
0
 10
-43.1864
 20
93.3804
 11
-43.0953
 21
93.5206
  0
LINE
  8
0
 10
-43.0953
 20
93.5206
 11
-42.977
 21
93.6389
  0
LINE
  8
0
 10
-42.977
 20
93.6389
 11
-42.8367
 21
93.73
  0
LINE
  8
0
 10
-42.8367
 20
93.73
 11
-42.6806
 21
93.7899
  0
LINE
  8
0
 10
-42.6806
 20
93.7899
 11
-42.5154
 21
93.8161
  0
LINE
  8
0
 10
-42.5154
 20
93.8161
 11
-42.3484
 21
93.8073
  0
LINE
  8
0
 10
-42.3484
 20
93.8073
 11
-42.1869
 21
93.7641
  0
LINE
  8
0
 10
-42.1869
 20
93.7641
 11
-42.0378
 21
93.6881
  0
LINE
  8
0
 10
-42.0378
 20
93.6881
 11
-41.9079
 21
93.5829
  0
LINE
  8
0
 10
-41.9079
 20
93.5829
 11
-41.8026
 21
93.4529
  0
LINE
  8
0
 10
-41.8026
 20
93.4529
 11
-41.7267
 21
93.3039
  0
LINE
  8
0
 10
-41.7267
 20
93.3039
 11
-41.6834
 21
93.1423
  0
LINE
  8
0
 10
-41.6834
 20
93.1423
 11
-41.6746
 21
92.9753
  0
LINE
  8
0
 10
-41.6746
 20
92.9753
 11
-41.7008
 21
92.8102
  0
LINE
  8
0
 10
-41.7008
 20
92.8102
 11
-41.7607
 21
92.654
  0
LINE
  8
0
 10
-41.7607
 20
92.654
 11
-41.8518
 21
92.5137
  0
LINE
  8
0
 10
-41.8518
 20
92.5137
 11
-41.9701
 21
92.3955
  0
LINE
  8
0
 10
-41.9701
 20
92.3955
 11
-42.1104
 21
92.3044
  0
LINE
  8
0
 10
-42.1104
 20
92.3044
 11
-42.2665
 21
92.2445
  0
LINE
  8
0
 10
-42.2665
 20
92.2445
 11
-42.4317
 21
92.2183
  0
LINE
  8
0
 10
-42.4317
 20
92.2183
 11
-42.5987
 21
92.2271
  0
LINE
  8
0
 10
-30.6568
 20
69.5082
 11
-30.9635
 21
69.5734
  0
LINE
  8
0
 10
-30.9635
 20
69.5734
 11
-31.25
 21
69.701
  0
LINE
  8
0
 10
-31.25
 20
69.701
 11
-31.5037
 21
69.8853
  0
LINE
  8
0
 10
-31.5037
 20
69.8853
 11
-31.7135
 21
70.1183
  0
LINE
  8
0
 10
-31.7135
 20
70.1183
 11
-31.8703
 21
70.3899
  0
LINE
  8
0
 10
-31.8703
 20
70.3899
 11
-31.9672
 21
70.6881
  0
LINE
  8
0
 10
-31.9672
 20
70.6881
 11
-32
 21
71
  0
LINE
  8
0
 10
-32
 20
71
 11
-31.9672
 21
71.3119
  0
LINE
  8
0
 10
-31.9672
 20
71.3119
 11
-31.8703
 21
71.6101
  0
LINE
  8
0
 10
-31.8703
 20
71.6101
 11
-31.7135
 21
71.8817
  0
LINE
  8
0
 10
-31.7135
 20
71.8817
 11
-31.5037
 21
72.1147
  0
LINE
  8
0
 10
-31.5037
 20
72.1147
 11
-31.25
 21
72.299
  0
LINE
  8
0
 10
-31.25
 20
72.299
 11
-30.9635
 21
72.4266
  0
LINE
  8
0
 10
-30.9635
 20
72.4266
 11
-30.6568
 21
72.4918
  0
LINE
  8
0
 10
-30.6568
 20
72.4918
 11
-30.3432
 21
72.4918
  0
LINE
  8
0
 10
-30.3432
 20
72.4918
 11
-30.0365
 21
72.4266
  0
LINE
  8
0
 10
-30.0365
 20
72.4266
 11
-29.75
 21
72.299
  0
LINE
  8
0
 10
-29.75
 20
72.299
 11
-29.4963
 21
72.1147
  0
LINE
  8
0
 10
-29.4963
 20
72.1147
 11
-29.2865
 21
71.8817
  0
LINE
  8
0
 10
-29.2865
 20
71.8817
 11
-29.1297
 21
71.6101
  0
LINE
  8
0
 10
-29.1297
 20
71.6101
 11
-29.0328
 21
71.3119
  0
LINE
  8
0
 10
-29.0328
 20
71.3119
 11
-29
 21
71
  0
LINE
  8
0
 10
-29
 20
71
 11
-29.0328
 21
70.6881
  0
LINE
  8
0
 10
-29.0328
 20
70.6881
 11
-29.1297
 21
70.3899
  0
LINE
  8
0
 10
-29.1297
 20
70.3899
 11
-29.2865
 21
70.1183
  0
LINE
  8
0
 10
-29.2865
 20
70.1183
 11
-29.4963
 21
69.8853
  0
LINE
  8
0
 10
-29.4963
 20
69.8853
 11
-29.75
 21
69.701
  0
LINE
  8
0
 10
-29.75
 20
69.701
 11
-30.0365
 21
69.5734
  0
LINE
  8
0
 10
-30.0365
 20
69.5734
 11
-30.3432
 21
69.5082
  0
LINE
  8
0
 10
-30.3432
 20
69.5082
 11
-30.6568
 21
69.5082
  0
LINE
  8
0
 10
30.3432
 20
69.5082
 11
30.0365
 21
69.5734
  0
LINE
  8
0
 10
30.0365
 20
69.5734
 11
29.75
 21
69.701
  0
LINE
  8
0
 10
29.75
 20
69.701
 11
29.4963
 21
69.8853
  0
LINE
  8
0
 10
29.4963
 20
69.8853
 11
29.2865
 21
70.1183
  0
LINE
  8
0
 10
29.2865
 20
70.1183
 11
29.1297
 21
70.3899
  0
LINE
  8
0
 10
29.1297
 20
70.3899
 11
29.0328
 21
70.6881
  0
LINE
  8
0
 10
29.0328
 20
70.6881
 11
29
 21
71
  0
LINE
  8
0
 10
29
 20
71
 11
29.0328
 21
71.3119
  0
LINE
  8
0
 10
29.0328
 20
71.3119
 11
29.1297
 21
71.6101
  0
LINE
  8
0
 10
29.1297
 20
71.6101
 11
29.2865
 21
71.8817
  0
LINE
  8
0
 10
29.2865
 20
71.8817
 11
29.4963
 21
72.1147
  0
LINE
  8
0
 10
29.4963
 20
72.1147
 11
29.75
 21
72.299
  0
LINE
  8
0
 10
29.75
 20
72.299
 11
30.0365
 21
72.4266
  0
LINE
  8
0
 10
30.0365
 20
72.4266
 11
30.3432
 21
72.4918
  0
LINE
  8
0
 10
30.3432
 20
72.4918
 11
30.6568
 21
72.4918
  0
LINE
  8
0
 10
30.6568
 20
72.4918
 11
30.9635
 21
72.4266
  0
LINE
  8
0
 10
30.9635
 20
72.4266
 11
31.25
 21
72.299
  0
LINE
  8
0
 10
31.25
 20
72.299
 11
31.5037
 21
72.1147
  0
LINE
  8
0
 10
31.5037
 20
72.1147
 11
31.7135
 21
71.8817
  0
LINE
  8
0
 10
31.7135
 20
71.8817
 11
31.8703
 21
71.6101
  0
LINE
  8
0
 10
31.8703
 20
71.6101
 11
31.9672
 21
71.3119
  0
LINE
  8
0
 10
31.9672
 20
71.3119
 11
32
 21
71
  0
LINE
  8
0
 10
32
 20
71
 11
31.9672
 21
70.6881
  0
LINE
  8
0
 10
31.9672
 20
70.6881
 11
31.8703
 21
70.3899
  0
LINE
  8
0
 10
31.8703
 20
70.3899
 11
31.7135
 21
70.1183
  0
LINE
  8
0
 10
31.7135
 20
70.1183
 11
31.5037
 21
69.8853
  0
LINE
  8
0
 10
31.5037
 20
69.8853
 11
31.25
 21
69.701
  0
LINE
  8
0
 10
31.25
 20
69.701
 11
30.9635
 21
69.5734
  0
LINE
  8
0
 10
30.9635
 20
69.5734
 11
30.6568
 21
69.5082
  0
LINE
  8
0
 10
30.6568
 20
69.5082
 11
30.3432
 21
69.5082
  0
LINE
  8
0
 10
-82.2816
 20
43.3496
 11
-81.1632
 21
43.5257
  0
LINE
  8
0
 10
-81.1632
 20
43.5257
 11
-80.0505
 21
43.8218
  0
LINE
  8
0
 10
-80.0505
 20
43.8218
 11
-78.9749
 21
44.2325
  0
LINE
  8
0
 10
-78.9749
 20
44.2325
 11
-77.9481
 21
44.7535
  0
LINE
  8
0
 10
-77.9481
 20
44.7535
 11
-76.9814
 21
45.3789
  0
LINE
  8
0
 10
-76.9814
 20
45.3789
 11
-76.0853
 21
46.1019
  0
LINE
  8
0
 10
-76.0853
 20
46.1019
 11
-75.2697
 21
46.9146
  0
LINE
  8
0
 10
-75.2697
 20
46.9146
 11
-74.5435
 21
47.8082
  0
LINE
  8
0
 10
-74.5435
 20
47.8082
 11
-73.9148
 21
48.7727
  0
LINE
  8
0
 10
-73.9148
 20
48.7727
 11
-73.406
 21
49.7627
  0
LINE
  8
0
 10
-73.406
 20
49.7627
 11
-58.0151
 21
83.9
  0
LINE
  8
0
 10
-58.0151
 20
83.9
 11
-57.8381
 21
84.6786
  0
LINE
  8
0
 10
-57.8381
 20
84.6786
 11
-57.8079
 21
85.1272
  0
LINE
  8
0
 10
-57.8079
 20
85.1272
 11
-57.849
 21
85.745
  0
LINE
  8
0
 10
-57.849
 20
85.745
 11
-58.0452
 21
86.5293
  0
LINE
  8
0
 10
-58.0452
 20
86.5293
 11
-58.2258
 21
86.9519
  0
LINE
  8
0
 10
-58.2258
 20
86.9519
 11
-58.6508
 21
87.6278
  0
LINE
  8
0
 10
-58.6508
 20
87.6278
 11
-58.9886
 21
88.0092
  0
LINE
  8
0
 10
-58.9886
 20
88.0092
 11
-59.0029
 21
88.0233
  0
LINE
  8
0
 10
-59.0029
 20
88.0233
 11
-59.6335
 21
88.5289
  0
LINE
  8
0
 10
-59.6335
 20
88.5289
 11
-60.087
 21
88.7824
  0
LINE
  8
0
 10
-60.087
 20
88.7824
 11
-60.8385
 21
89.0522
  0
LINE
  8
0
 10
-60.8385
 20
89.0522
 11
-61.3397
 21
89.1439
  0
LINE
  8
0
 10
-61.3397
 20
89.1439
 11
-61.7385
 21
89.1707
  0
LINE
  8
0
 10
-61.7385
 20
89.1707
 11
-62.5342
 21
89.1048
  0
LINE
  8
0
 10
-62.5342
 20
89.1048
 11
-63.1796
 21
88.9287
  0
LINE
  8
0
 10
-63.1796
 20
88.9287
 11
-63.8986
 21
88.5813
  0
LINE
  8
0
 10
-63.8986
 20
88.5813
 11
-64.5342
 21
88.0981
  0
LINE
  8
0
 10
-64.5342
 20
88.0981
 11
-64.5993
 21
88.036
  0
LINE
  8
0
 10
-64.5993
 20
88.036
 11
-91.5155
 21
61.7491
  0
LINE
  8
0
 10
-91.5155
 20
61.7491
 11
-92.251
 21
60.8632
  0
LINE
  8
0
 10
-92.251
 20
60.8632
 11
-92.8996
 21
59.8888
  0
LINE
  8
0
 10
-92.8996
 20
59.8888
 11
-93.433
 21
58.8684
  0
LINE
  8
0
 10
-93.433
 20
58.8684
 11
-93.863
 21
57.7797
  0
LINE
  8
0
 10
-93.863
 20
57.7797
 11
-94.1707
 21
56.6702
  0
LINE
  8
0
 10
-94.1707
 20
56.6702
 11
-94.3629
 21
55.5155
  0
LINE
  8
0
 10
-94.3629
 20
55.5155
 11
-94.4312
 21
54.3661
  0
LINE
  8
0
 10
-94.4312
 20
54.3661
 11
-94.3771
 21
53.1968
  0
LINE
  8
0
 10
-94.3771
 20
53.1968
 11
-94.2029
 21
52.0587
  0
LINE
  8
0
 10
-94.2029
 20
52.0587
 11
-93.9049
 21
50.9267
  0
LINE
  8
0
 10
-93.9049
 20
50.9267
 11
-93.496
 21
49.8503
  0
LINE
  8
0
 10
-93.496
 20
49.8503
 11
-92.9769
 21
48.8226
  0
LINE
  8
0
 10
-92.9769
 20
48.8226
 11
-92.3531
 21
47.8548
  0
LINE
  8
0
 10
-92.3531
 20
47.8548
 11
-91.6317
 21
46.9575
  0
LINE
  8
0
 10
-91.6317
 20
46.9575
 11
-90.8204
 21
46.1405
  0
LINE
  8
0
 10
-90.8204
 20
46.1405
 11
-89.9126
 21
45.4014
  0
LINE
  8
0
 10
-89.9126
 20
45.4014
 11
-88.9481
 21
44.7727
  0
LINE
  8
0
 10
-88.9481
 20
44.7727
 11
-87.9231
 21
44.2482
  0
LINE
  8
0
 10
-87.9231
 20
44.2482
 11
-86.8489
 21
43.8336
  0
LINE
  8
0
 10
-86.8489
 20
43.8336
 11
-85.7185
 21
43.5297
  0
LINE
  8
0
 10
-85.7185
 20
43.5297
 11
-84.5813
 21
43.3496
  0
LINE
  8
0
 10
-84.5813
 20
43.3496
 11
-83.4315
 21
43.2893
  0
LINE
  8
0
 10
-83.4315
 20
43.2893
 11
-82.2816
 21
43.3496
  0
LINE
  8
0
 10
-77.4977
 20
62.4942
 11
-77.5939
 21
62.535
  0
LINE
  8
0
 10
-77.5939
 20
62.535
 11
-77.6796
 21
62.595
  0
LINE
  8
0
 10
-77.6796
 20
62.595
 11
-77.7509
 21
62.6714
  0
LINE
  8
0
 10
-77.7509
 20
62.6714
 11
-77.8047
 21
62.761
  0
LINE
  8
0
 10
-77.8047
 20
62.761
 11
-77.8387
 21
62.8598
  0
LINE
  8
0
 10
-77.8387
 20
62.8598
 11
-77.8515
 21
62.9636
  0
LINE
  8
0
 10
-77.8515
 20
62.9636
 11
-77.8424
 21
63.0677
  0
LINE
  8
0
 10
-77.8424
 20
63.0677
 11
-77.8118
 21
63.1677
  0
LINE
  8
0
 10
-77.8118
 20
63.1677
 11
-77.7611
 21
63.2591
  0
LINE
  8
0
 10
-77.7611
 20
63.2591
 11
-77.6925
 21
63.338
  0
LINE
  8
0
 10
-77.6925
 20
63.338
 11
-77.6091
 21
63.4009
  0
LINE
  8
0
 10
-77.6091
 20
63.4009
 11
-77.5143
 21
63.4451
  0
LINE
  8
0
 10
-77.5143
 20
63.4451
 11
-77.4125
 21
63.4686
  0
LINE
  8
0
 10
-77.4125
 20
63.4686
 11
-77.308
 21
63.4704
  0
LINE
  8
0
 10
-77.308
 20
63.4704
 11
-77.2054
 21
63.4505
  0
LINE
  8
0
 10
-77.2054
 20
63.4505
 11
-77.1091
 21
63.4096
  0
LINE
  8
0
 10
-77.1091
 20
63.4096
 11
-77.0235
 21
63.3497
  0
LINE
  8
0
 10
-77.0235
 20
63.3497
 11
-76.9523
 21
63.2732
  0
LINE
  8
0
 10
-76.9523
 20
63.2732
 11
-76.8984
 21
63.1836
  0
LINE
  8
0
 10
-76.8984
 20
63.1836
 11
-76.8644
 21
63.0848
  0
LINE
  8
0
 10
-76.8644
 20
63.0848
 11
-76.8516
 21
62.981
  0
LINE
  8
0
 10
-76.8516
 20
62.981
 11
-76.8607
 21
62.8769
  0
LINE
  8
0
 10
-76.8607
 20
62.8769
 11
-76.8913
 21
62.777
  0
LINE
  8
0
 10
-76.8913
 20
62.777
 11
-76.942
 21
62.6855
  0
LINE
  8
0
 10
-76.942
 20
62.6855
 11
-77.0106
 21
62.6066
  0
LINE
  8
0
 10
-77.0106
 20
62.6066
 11
-77.094
 21
62.5437
  0
LINE
  8
0
 10
-77.094
 20
62.5437
 11
-77.1888
 21
62.4996
  0
LINE
  8
0
 10
-77.1888
 20
62.4996
 11
-77.2906
 21
62.476
  0
LINE
  8
0
 10
-77.2906
 20
62.476
 11
-77.3951
 21
62.4742
  0
LINE
  8
0
 10
-77.3951
 20
62.4742
 11
-77.4977
 21
62.4942
  0
LINE
  8
0
 10
-84.4547
 20
50.9423
 11
-85.1283
 21
51.2282
  0
LINE
  8
0
 10
-85.1283
 20
51.2282
 11
-85.7276
 21
51.6478
  0
LINE
  8
0
 10
-85.7276
 20
51.6478
 11
-86.2267
 21
52.183
  0
LINE
  8
0
 10
-86.2267
 20
52.183
 11
-86.6035
 21
52.8102
  0
LINE
  8
0
 10
-86.6035
 20
52.8102
 11
-86.8417
 21
53.502
  0
LINE
  8
0
 10
-86.8417
 20
53.502
 11
-86.9309
 21
54.2283
  0
LINE
  8
0
 10
-86.9309
 20
54.2283
 11
-86.8671
 21
54.9572
  0
LINE
  8
0
 10
-86.8671
 20
54.9572
 11
-86.6532
 21
55.6569
  0
LINE
  8
0
 10
-86.6532
 20
55.6569
 11
-86.2985
 21
56.2968
  0
LINE
  8
0
 10
-86.2985
 20
56.2968
 11
-85.8184
 21
56.849
  0
LINE
  8
0
 10
-85.8184
 20
56.849
 11
-85.2341
 21
57.2894
  0
LINE
  8
0
 10
-85.2341
 20
57.2894
 11
-84.5709
 21
57.5986
  0
LINE
  8
0
 10
-84.5709
 20
57.5986
 11
-83.858
 21
57.7632
  0
LINE
  8
0
 10
-83.858
 20
57.7632
 11
-83.1264
 21
57.776
  0
LINE
  8
0
 10
-83.1264
 20
57.776
 11
-82.4082
 21
57.6364
  0
LINE
  8
0
 10
-82.4082
 20
57.6364
 11
-81.7346
 21
57.3505
  0
LINE
  8
0
 10
-81.7346
 20
57.3505
 11
-81.1353
 21
56.9308
  0
LINE
  8
0
 10
-81.1353
 20
56.9308
 11
-80.6362
 21
56.3957
  0
LINE
  8
0
 10
-80.6362
 20
56.3957
 11
-80.2594
 21
55.7685
  0
LINE
  8
0
 10
-80.2594
 20
55.7685
 11
-80.0212
 21
55.0766
  0
LINE
  8
0
 10
-80.0212
 20
55.0766
 11
-79.932
 21
54.3504
  0
LINE
  8
0
 10
-79.932
 20
54.3504
 11
-79.9958
 21
53.6215
  0
LINE
  8
0
 10
-79.9958
 20
53.6215
 11
-80.2097
 21
52.9218
  0
LINE
  8
0
 10
-80.2097
 20
52.9218
 11
-80.5644
 21
52.2818
  0
LINE
  8
0
 10
-80.5644
 20
52.2818
 11
-81.0445
 21
51.7296
  0
LINE
  8
0
 10
-81.0445
 20
51.7296
 11
-81.6288
 21
51.2892
  0
LINE
  8
0
 10
-81.6288
 20
51.2892
 11
-82.292
 21
50.98
  0
LINE
  8
0
 10
-82.292
 20
50.98
 11
-83.0049
 21
50.8154
  0
LINE
  8
0
 10
-83.0049
 20
50.8154
 11
-83.7365
 21
50.8027
  0
LINE
  8
0
 10
-83.7365
 20
50.8027
 11
-84.4547
 21
50.9423
  0
LINE
  8
0
 10
93.745
 20
51.849
 11
94.5293
 21
52.0452
  0
LINE
  8
0
 10
94.5293
 20
52.0452
 11
94.9519
 21
52.2258
  0
LINE
  8
0
 10
94.9519
 20
52.2258
 11
95.6278
 21
52.6508
  0
LINE
  8
0
 10
95.6278
 20
52.6508
 11
96.0092
 21
52.9886
  0
LINE
  8
0
 10
96.0092
 20
52.9886
 11
96.0233
 21
53.0029
  0
LINE
  8
0
 10
96.0233
 20
53.0029
 11
96.5289
 21
53.6335
  0
LINE
  8
0
 10
96.5289
 20
53.6335
 11
96.7824
 21
54.087
  0
LINE
  8
0
 10
96.7824
 20
54.087
 11
97.0522
 21
54.8385
  0
LINE
  8
0
 10
97.0522
 20
54.8385
 11
97.1439
 21
55.3397
  0
LINE
  8
0
 10
97.1439
 20
55.3397
 11
97.1707
 21
55.7385
  0
LINE
  8
0
 10
97.1707
 20
55.7385
 11
97.1048
 21
56.5342
  0
LINE
  8
0
 10
97.1048
 20
56.5342
 11
96.9287
 21
57.1796
  0
LINE
  8
0
 10
96.9287
 20
57.1796
 11
96.5813
 21
57.8986
  0
LINE
  8
0
 10
96.5813
 20
57.8986
 11
96.0981
 21
58.5342
  0
LINE
  8
0
 10
96.0981
 20
58.5342
 11
96.036
 21
58.5993
  0
LINE
  8
0
 10
96.036
 20
58.5993
 11
69.7491
 21
85.5155
  0
LINE
  8
0
 10
69.7491
 20
85.5155
 11
68.8632
 21
86.251
  0
LINE
  8
0
 10
68.8632
 20
86.251
 11
67.8888
 21
86.8996
  0
LINE
  8
0
 10
67.8888
 20
86.8996
 11
66.8684
 21
87.433
  0
LINE
  8
0
 10
66.8684
 20
87.433
 11
65.7797
 21
87.863
  0
LINE
  8
0
 10
65.7797
 20
87.863
 11
64.6702
 21
88.1707
  0
LINE
  8
0
 10
64.6702
 20
88.1707
 11
63.5155
 21
88.3629
  0
LINE
  8
0
 10
63.5155
 20
88.3629
 11
62.3661
 21
88.4312
  0
LINE
  8
0
 10
62.3661
 20
88.4312
 11
61.1968
 21
88.3771
  0
LINE
  8
0
 10
61.1968
 20
88.3771
 11
60.0587
 21
88.2029
  0
LINE
  8
0
 10
60.0587
 20
88.2029
 11
58.9267
 21
87.9049
  0
LINE
  8
0
 10
58.9267
 20
87.9049
 11
57.8503
 21
87.496
  0
LINE
  8
0
 10
57.8503
 20
87.496
 11
56.8226
 21
86.9769
  0
LINE
  8
0
 10
56.8226
 20
86.9769
 11
55.8548
 21
86.3531
  0
LINE
  8
0
 10
55.8548
 20
86.3531
 11
54.9575
 21
85.6317
  0
LINE
  8
0
 10
54.9575
 20
85.6317
 11
54.1405
 21
84.8204
  0
LINE
  8
0
 10
54.1405
 20
84.8204
 11
53.4014
 21
83.9126
  0
LINE
  8
0
 10
53.4014
 20
83.9126
 11
52.7727
 21
82.9481
  0
LINE
  8
0
 10
52.7727
 20
82.9481
 11
52.2482
 21
81.9231
  0
LINE
  8
0
 10
52.2482
 20
81.9231
 11
51.8336
 21
80.8489
  0
LINE
  8
0
 10
51.8336
 20
80.8489
 11
51.5297
 21
79.7185
  0
LINE
  8
0
 10
51.5297
 20
79.7185
 11
51.3496
 21
78.5813
  0
LINE
  8
0
 10
51.3496
 20
78.5813
 11
51.2893
 21
77.4315
  0
LINE
  8
0
 10
51.2893
 20
77.4315
 11
51.3496
 21
76.2816
  0
LINE
  8
0
 10
51.3496
 20
76.2816
 11
51.5257
 21
75.1632
  0
LINE
  8
0
 10
51.5257
 20
75.1632
 11
51.8218
 21
74.0505
  0
LINE
  8
0
 10
51.8218
 20
74.0505
 11
52.2325
 21
72.9749
  0
LINE
  8
0
 10
52.2325
 20
72.9749
 11
52.7535
 21
71.9481
  0
LINE
  8
0
 10
52.7535
 20
71.9481
 11
53.3789
 21
70.9814
  0
LINE
  8
0
 10
53.3789
 20
70.9814
 11
54.1019
 21
70.0853
  0
LINE
  8
0
 10
54.1019
 20
70.0853
 11
54.9146
 21
69.2697
  0
LINE
  8
0
 10
54.9146
 20
69.2697
 11
55.8082
 21
68.5435
  0
LINE
  8
0
 10
55.8082
 20
68.5435
 11
56.7727
 21
67.9148
  0
LINE
  8
0
 10
56.7727
 20
67.9148
 11
57.7627
 21
67.406
  0
LINE
  8
0
 10
57.7627
 20
67.406
 11
91.9
 21
52.0151
  0
LINE
  8
0
 10
91.9
 20
52.0151
 11
92.6786
 21
51.8381
  0
LINE
  8
0
 10
92.6786
 20
51.8381
 11
93.1272
 21
51.8079
  0
LINE
  8
0
 10
93.1272
 20
51.8079
 11
93.745
 21
51.849
  0
LINE
  8
0
 10
61.6215
 20
73.9958
 11
60.9218
 21
74.2097
  0
LINE
  8
0
 10
60.9218
 20
74.2097
 11
60.2818
 21
74.5644
  0
LINE
  8
0
 10
60.2818
 20
74.5644
 11
59.7296
 21
75.0445
  0
LINE
  8
0
 10
59.7296
 20
75.0445
 11
59.2892
 21
75.6288
  0
LINE
  8
0
 10
59.2892
 20
75.6288
 11
58.98
 21
76.292
  0
LINE
  8
0
 10
58.98
 20
76.292
 11
58.8154
 21
77.0049
  0
LINE
  8
0
 10
58.8154
 20
77.0049
 11
58.8027
 21
77.7365
  0
LINE
  8
0
 10
58.8027
 20
77.7365
 11
58.9423
 21
78.4547
  0
LINE
  8
0
 10
58.9423
 20
78.4547
 11
59.2282
 21
79.1283
  0
LINE
  8
0
 10
59.2282
 20
79.1283
 11
59.6478
 21
79.7276
  0
LINE
  8
0
 10
59.6478
 20
79.7276
 11
60.183
 21
80.2267
  0
LINE
  8
0
 10
60.183
 20
80.2267
 11
60.8102
 21
80.6035
  0
LINE
  8
0
 10
60.8102
 20
80.6035
 11
61.502
 21
80.8417
  0
LINE
  8
0
 10
61.502
 20
80.8417
 11
62.2283
 21
80.9309
  0
LINE
  8
0
 10
62.2283
 20
80.9309
 11
62.9572
 21
80.8671
  0
LINE
  8
0
 10
62.9572
 20
80.8671
 11
63.6569
 21
80.6532
  0
LINE
  8
0
 10
63.6569
 20
80.6532
 11
64.2968
 21
80.2985
  0
LINE
  8
0
 10
64.2968
 20
80.2985
 11
64.849
 21
79.8184
  0
LINE
  8
0
 10
64.849
 20
79.8184
 11
65.2894
 21
79.2341
  0
LINE
  8
0
 10
65.2894
 20
79.2341
 11
65.5986
 21
78.5709
  0
LINE
  8
0
 10
65.5986
 20
78.5709
 11
65.7632
 21
77.858
  0
LINE
  8
0
 10
65.7632
 20
77.858
 11
65.776
 21
77.1264
  0
LINE
  8
0
 10
65.776
 20
77.1264
 11
65.6364
 21
76.4082
  0
LINE
  8
0
 10
65.6364
 20
76.4082
 11
65.3505
 21
75.7346
  0
LINE
  8
0
 10
65.3505
 20
75.7346
 11
64.9308
 21
75.1353
  0
LINE
  8
0
 10
64.9308
 20
75.1353
 11
64.3957
 21
74.6362
  0
LINE
  8
0
 10
64.3957
 20
74.6362
 11
63.7685
 21
74.2594
  0
LINE
  8
0
 10
63.7685
 20
74.2594
 11
63.0766
 21
74.0212
  0
LINE
  8
0
 10
63.0766
 20
74.0212
 11
62.3504
 21
73.932
  0
LINE
  8
0
 10
62.3504
 20
73.932
 11
61.6215
 21
73.9958
  0
LINE
  8
0
 10
70.8769
 20
70.8607
 11
70.777
 21
70.8913
  0
LINE
  8
0
 10
70.777
 20
70.8913
 11
70.6855
 21
70.942
  0
LINE
  8
0
 10
70.6855
 20
70.942
 11
70.6066
 21
71.0106
  0
LINE
  8
0
 10
70.6066
 20
71.0106
 11
70.5437
 21
71.094
  0
LINE
  8
0
 10
70.5437
 20
71.094
 11
70.4996
 21
71.1888
  0
LINE
  8
0
 10
70.4996
 20
71.1888
 11
70.476
 21
71.2906
  0
LINE
  8
0
 10
70.476
 20
71.2906
 11
70.4742
 21
71.3951
  0
LINE
  8
0
 10
70.4742
 20
71.3951
 11
70.4942
 21
71.4977
  0
LINE
  8
0
 10
70.4942
 20
71.4977
 11
70.535
 21
71.5939
  0
LINE
  8
0
 10
70.535
 20
71.5939
 11
70.595
 21
71.6796
  0
LINE
  8
0
 10
70.595
 20
71.6796
 11
70.6714
 21
71.7509
  0
LINE
  8
0
 10
70.6714
 20
71.7509
 11
70.761
 21
71.8047
  0
LINE
  8
0
 10
70.761
 20
71.8047
 11
70.8598
 21
71.8387
  0
LINE
  8
0
 10
70.8598
 20
71.8387
 11
70.9636
 21
71.8515
  0
LINE
  8
0
 10
70.9636
 20
71.8515
 11
71.0677
 21
71.8424
  0
LINE
  8
0
 10
71.0677
 20
71.8424
 11
71.1677
 21
71.8118
  0
LINE
  8
0
 10
71.1677
 20
71.8118
 11
71.2591
 21
71.7611
  0
LINE
  8
0
 10
71.2591
 20
71.7611
 11
71.338
 21
71.6925
  0
LINE
  8
0
 10
71.338
 20
71.6925
 11
71.4009
 21
71.6091
  0
LINE
  8
0
 10
71.4009
 20
71.6091
 11
71.4451
 21
71.5143
  0
LINE
  8
0
 10
71.4451
 20
71.5143
 11
71.4686
 21
71.4125
  0
LINE
  8
0
 10
71.4686
 20
71.4125
 11
71.4704
 21
71.308
  0
LINE
  8
0
 10
71.4704
 20
71.308
 11
71.4505
 21
71.2054
  0
LINE
  8
0
 10
71.4505
 20
71.2054
 11
71.4096
 21
71.1091
  0
LINE
  8
0
 10
71.4096
 20
71.1091
 11
71.3497
 21
71.0235
  0
LINE
  8
0
 10
71.3497
 20
71.0235
 11
71.2732
 21
70.9523
  0
LINE
  8
0
 10
71.2732
 20
70.9523
 11
71.1836
 21
70.8984
  0
LINE
  8
0
 10
71.1836
 20
70.8984
 11
71.0848
 21
70.8644
  0
LINE
  8
0
 10
71.0848
 20
70.8644
 11
70.981
 21
70.8516
  0
LINE
  8
0
 10
70.981
 20
70.8516
 11
70.8769
 21
70.8607
  0
LINE
  8
0
 10
-70.3876
 20
32.2018
 11
-69.7422
 21
32.3779
  0
LINE
  8
0
 10
-69.7422
 20
32.3779
 11
-69.0232
 21
32.7252
  0
LINE
  8
0
 10
-69.0232
 20
32.7252
 11
-68.3876
 21
33.2085
  0
LINE
  8
0
 10
-68.3876
 20
33.2085
 11
-68.3225
 21
33.2705
  0
LINE
  8
0
 10
-68.3225
 20
33.2705
 11
-41.4063
 21
59.5575
  0
LINE
  8
0
 10
-41.4063
 20
59.5575
 11
-40.6708
 21
60.4434
  0
LINE
  8
0
 10
-40.6708
 20
60.4434
 11
-40.0222
 21
61.4178
  0
LINE
  8
0
 10
-40.0222
 20
61.4178
 11
-39.4888
 21
62.4381
  0
LINE
  8
0
 10
-39.4888
 20
62.4381
 11
-39.0588
 21
63.5269
  0
LINE
  8
0
 10
-39.0588
 20
63.5269
 11
-38.7511
 21
64.6364
  0
LINE
  8
0
 10
-38.7511
 20
64.6364
 11
-38.5589
 21
65.7911
  0
LINE
  8
0
 10
-38.5589
 20
65.7911
 11
-38.4906
 21
66.9404
  0
LINE
  8
0
 10
-38.4906
 20
66.9404
 11
-38.5447
 21
68.1098
  0
LINE
  8
0
 10
-38.5447
 20
68.1098
 11
-38.7189
 21
69.2479
  0
LINE
  8
0
 10
-38.7189
 20
69.2479
 11
-39.0169
 21
70.3799
  0
LINE
  8
0
 10
-39.0169
 20
70.3799
 11
-39.4258
 21
71.4562
  0
LINE
  8
0
 10
-39.4258
 20
71.4562
 11
-39.9449
 21
72.484
  0
LINE
  8
0
 10
-39.9449
 20
72.484
 11
-40.5686
 21
73.4518
  0
LINE
  8
0
 10
-40.5686
 20
73.4518
 11
-41.2901
 21
74.3491
  0
LINE
  8
0
 10
-41.2901
 20
74.3491
 11
-42.1014
 21
75.1661
  0
LINE
  8
0
 10
-42.1014
 20
75.1661
 11
-43.0092
 21
75.9051
  0
LINE
  8
0
 10
-43.0092
 20
75.9051
 11
-43.9737
 21
76.5339
  0
LINE
  8
0
 10
-43.9737
 20
76.5339
 11
-44.9987
 21
77.0584
  0
LINE
  8
0
 10
-44.9987
 20
77.0584
 11
-46.0729
 21
77.4729
  0
LINE
  8
0
 10
-46.0729
 20
77.4729
 11
-47.2033
 21
77.7769
  0
LINE
  8
0
 10
-47.2033
 20
77.7769
 11
-48.3405
 21
77.957
  0
LINE
  8
0
 10
-48.3405
 20
77.957
 11
-49.4903
 21
78.0172
  0
LINE
  8
0
 10
-49.4903
 20
78.0172
 11
-50.6402
 21
77.957
  0
LINE
  8
0
 10
-50.6402
 20
77.957
 11
-51.7586
 21
77.7808
  0
LINE
  8
0
 10
-51.7586
 20
77.7808
 11
-52.8713
 21
77.4848
  0
LINE
  8
0
 10
-52.8713
 20
77.4848
 11
-53.9469
 21
77.074
  0
LINE
  8
0
 10
-53.9469
 20
77.074
 11
-54.9737
 21
76.5531
  0
LINE
  8
0
 10
-54.9737
 20
76.5531
 11
-55.9404
 21
75.9277
  0
LINE
  8
0
 10
-55.9404
 20
75.9277
 11
-56.8365
 21
75.2047
  0
LINE
  8
0
 10
-56.8365
 20
75.2047
 11
-57.6521
 21
74.3919
  0
LINE
  8
0
 10
-57.6521
 20
74.3919
 11
-58.3782
 21
73.4984
  0
LINE
  8
0
 10
-58.3782
 20
73.4984
 11
-59.007
 21
72.5339
  0
LINE
  8
0
 10
-59.007
 20
72.5339
 11
-59.5158
 21
71.5439
  0
LINE
  8
0
 10
-59.5158
 20
71.5439
 11
-74.9067
 21
37.4066
  0
LINE
  8
0
 10
-74.9067
 20
37.4066
 11
-75.0837
 21
36.628
  0
LINE
  8
0
 10
-75.0837
 20
36.628
 11
-75.1139
 21
36.1794
  0
LINE
  8
0
 10
-75.1139
 20
36.1794
 11
-75.0728
 21
35.5615
  0
LINE
  8
0
 10
-75.0728
 20
35.5615
 11
-74.8766
 21
34.7773
  0
LINE
  8
0
 10
-74.8766
 20
34.7773
 11
-74.696
 21
34.3547
  0
LINE
  8
0
 10
-74.696
 20
34.3547
 11
-74.271
 21
33.6788
  0
LINE
  8
0
 10
-74.271
 20
33.6788
 11
-73.9332
 21
33.2974
  0
LINE
  8
0
 10
-73.9332
 20
33.2974
 11
-73.9189
 21
33.2833
  0
LINE
  8
0
 10
-73.9189
 20
33.2833
 11
-73.2883
 21
32.7776
  0
LINE
  8
0
 10
-73.2883
 20
32.7776
 11
-72.8348
 21
32.5242
  0
LINE
  8
0
 10
-72.8348
 20
32.5242
 11
-72.0833
 21
32.2544
  0
LINE
  8
0
 10
-72.0833
 20
32.2544
 11
-71.5821
 21
32.1627
  0
LINE
  8
0
 10
-71.5821
 20
32.1627
 11
-71.1833
 21
32.1358
  0
LINE
  8
0
 10
-71.1833
 20
32.1358
 11
-70.3876
 21
32.2018
  0
LINE
  8
0
 10
-50.5136
 20
63.6702
 11
-51.1872
 21
63.9561
  0
LINE
  8
0
 10
-51.1872
 20
63.9561
 11
-51.7865
 21
64.3758
  0
LINE
  8
0
 10
-51.7865
 20
64.3758
 11
-52.2856
 21
64.9109
  0
LINE
  8
0
 10
-52.2856
 20
64.9109
 11
-52.6624
 21
65.5381
  0
LINE
  8
0
 10
-52.6624
 20
65.5381
 11
-52.9006
 21
66.2299
  0
LINE
  8
0
 10
-52.9006
 20
66.2299
 11
-52.9898
 21
66.9562
  0
LINE
  8
0
 10
-52.9898
 20
66.9562
 11
-52.926
 21
67.6851
  0
LINE
  8
0
 10
-52.926
 20
67.6851
 11
-52.7121
 21
68.3848
  0
LINE
  8
0
 10
-52.7121
 20
68.3848
 11
-52.3574
 21
69.0248
  0
LINE
  8
0
 10
-52.3574
 20
69.0248
 11
-51.8773
 21
69.577
  0
LINE
  8
0
 10
-51.8773
 20
69.577
 11
-51.293
 21
70.0173
  0
LINE
  8
0
 10
-51.293
 20
70.0173
 11
-50.6298
 21
70.3265
  0
LINE
  8
0
 10
-50.6298
 20
70.3265
 11
-49.9169
 21
70.4911
  0
LINE
  8
0
 10
-49.9169
 20
70.4911
 11
-49.1853
 21
70.5039
  0
LINE
  8
0
 10
-49.1853
 20
70.5039
 11
-48.467
 21
70.3643
  0
LINE
  8
0
 10
-48.467
 20
70.3643
 11
-47.7935
 21
70.0784
  0
LINE
  8
0
 10
-47.7935
 20
70.0784
 11
-47.1941
 21
69.6587
  0
LINE
  8
0
 10
-47.1941
 20
69.6587
 11
-46.6951
 21
69.1236
  0
LINE
  8
0
 10
-46.6951
 20
69.1236
 11
-46.3183
 21
68.4964
  0
LINE
  8
0
 10
-46.3183
 20
68.4964
 11
-46.08
 21
67.8046
  0
LINE
  8
0
 10
-46.08
 20
67.8046
 11
-45.9909
 21
67.0783
  0
LINE
  8
0
 10
-45.9909
 20
67.0783
 11
-46.0546
 21
66.3494
  0
LINE
  8
0
 10
-46.0546
 20
66.3494
 11
-46.2686
 21
65.6497
  0
LINE
  8
0
 10
-46.2686
 20
65.6497
 11
-46.6233
 21
65.0097
  0
LINE
  8
0
 10
-46.6233
 20
65.0097
 11
-47.1033
 21
64.4575
  0
LINE
  8
0
 10
-47.1033
 20
64.4575
 11
-47.6877
 21
64.0172
  0
LINE
  8
0
 10
-47.6877
 20
64.0172
 11
-48.3508
 21
63.7079
  0
LINE
  8
0
 10
-48.3508
 20
63.7079
 11
-49.0638
 21
63.5433
  0
LINE
  8
0
 10
-49.0638
 20
63.5433
 11
-49.7954
 21
63.5306
  0
LINE
  8
0
 10
-49.7954
 20
63.5306
 11
-50.5136
 21
63.6702
  0
LINE
  8
0
 10
-55.7164
 20
57.8561
 11
-55.8127
 21
57.8969
  0
LINE
  8
0
 10
-55.8127
 20
57.8969
 11
-55.8983
 21
57.9569
  0
LINE
  8
0
 10
-55.8983
 20
57.9569
 11
-55.9695
 21
58.0333
  0
LINE
  8
0
 10
-55.9695
 20
58.0333
 11
-56.0234
 21
58.1229
  0
LINE
  8
0
 10
-56.0234
 20
58.1229
 11
-56.0574
 21
58.2218
  0
LINE
  8
0
 10
-56.0574
 20
58.2218
 11
-56.0702
 21
58.3255
  0
LINE
  8
0
 10
-56.0702
 20
58.3255
 11
-56.0611
 21
58.4296
  0
LINE
  8
0
 10
-56.0611
 20
58.4296
 11
-56.0305
 21
58.5296
  0
LINE
  8
0
 10
-56.0305
 20
58.5296
 11
-55.9798
 21
58.621
  0
LINE
  8
0
 10
-55.9798
 20
58.621
 11
-55.9112
 21
58.6999
  0
LINE
  8
0
 10
-55.9112
 20
58.6999
 11
-55.8278
 21
58.7628
  0
LINE
  8
0
 10
-55.8278
 20
58.7628
 11
-55.733
 21
58.807
  0
LINE
  8
0
 10
-55.733
 20
58.807
 11
-55.6312
 21
58.8305
  0
LINE
  8
0
 10
-55.6312
 20
58.8305
 11
-55.5266
 21
58.8323
  0
LINE
  8
0
 10
-55.5266
 20
58.8323
 11
-55.424
 21
58.8124
  0
LINE
  8
0
 10
-55.424
 20
58.8124
 11
-55.3278
 21
58.7715
  0
LINE
  8
0
 10
-55.3278
 20
58.7715
 11
-55.2422
 21
58.7116
  0
LINE
  8
0
 10
-55.2422
 20
58.7116
 11
-55.1709
 21
58.6351
  0
LINE
  8
0
 10
-55.1709
 20
58.6351
 11
-55.1171
 21
58.5455
  0
LINE
  8
0
 10
-55.1171
 20
58.5455
 11
-55.0831
 21
58.4467
  0
LINE
  8
0
 10
-55.0831
 20
58.4467
 11
-55.0703
 21
58.343
  0
LINE
  8
0
 10
-55.0703
 20
58.343
 11
-55.0794
 21
58.2388
  0
LINE
  8
0
 10
-55.0794
 20
58.2388
 11
-55.11
 21
58.1389
  0
LINE
  8
0
 10
-55.11
 20
58.1389
 11
-55.1607
 21
58.0474
  0
LINE
  8
0
 10
-55.1607
 20
58.0474
 11
-55.2292
 21
57.9686
  0
LINE
  8
0
 10
-55.2292
 20
57.9686
 11
-55.3127
 21
57.9057
  0
LINE
  8
0
 10
-55.3127
 20
57.9057
 11
-55.4075
 21
57.8615
  0
LINE
  8
0
 10
-55.4075
 20
57.8615
 11
-55.5093
 21
57.838
  0
LINE
  8
0
 10
-55.5093
 20
57.838
 11
-55.6138
 21
57.8361
  0
LINE
  8
0
 10
-55.6138
 20
57.8361
 11
-55.7164
 21
57.8561
  0
LINE
  8
0
 10
76.1098
 20
32.5447
 11
77.2479
 21
32.7189
  0
LINE
  8
0
 10
77.2479
 20
32.7189
 11
78.3799
 21
33.0169
  0
LINE
  8
0
 10
78.3799
 20
33.0169
 11
79.4562
 21
33.4258
  0
LINE
  8
0
 10
79.4562
 20
33.4258
 11
80.484
 21
33.9449
  0
LINE
  8
0
 10
80.484
 20
33.9449
 11
81.4518
 21
34.5686
  0
LINE
  8
0
 10
81.4518
 20
34.5686
 11
82.3491
 21
35.2901
  0
LINE
  8
0
 10
82.3491
 20
35.2901
 11
83.1661
 21
36.1014
  0
LINE
  8
0
 10
83.1661
 20
36.1014
 11
83.9051
 21
37.0092
  0
LINE
  8
0
 10
83.9051
 20
37.0092
 11
84.5339
 21
37.9737
  0
LINE
  8
0
 10
84.5339
 20
37.9737
 11
85.0584
 21
38.9987
  0
LINE
  8
0
 10
85.0584
 20
38.9987
 11
85.4729
 21
40.0729
  0
LINE
  8
0
 10
85.4729
 20
40.0729
 11
85.7769
 21
41.2033
  0
LINE
  8
0
 10
85.7769
 20
41.2033
 11
85.957
 21
42.3405
  0
LINE
  8
0
 10
85.957
 20
42.3405
 11
86.0172
 21
43.4903
  0
LINE
  8
0
 10
86.0172
 20
43.4903
 11
85.957
 21
44.6402
  0
LINE
  8
0
 10
85.957
 20
44.6402
 11
85.7808
 21
45.7586
  0
LINE
  8
0
 10
85.7808
 20
45.7586
 11
85.4848
 21
46.8713
  0
LINE
  8
0
 10
85.4848
 20
46.8713
 11
85.074
 21
47.9469
  0
LINE
  8
0
 10
85.074
 20
47.9469
 11
84.5531
 21
48.9737
  0
LINE
  8
0
 10
84.5531
 20
48.9737
 11
83.9277
 21
49.9404
  0
LINE
  8
0
 10
83.9277
 20
49.9404
 11
83.2047
 21
50.8365
  0
LINE
  8
0
 10
83.2047
 20
50.8365
 11
82.3919
 21
51.6521
  0
LINE
  8
0
 10
82.3919
 20
51.6521
 11
81.4984
 21
52.3782
  0
LINE
  8
0
 10
81.4984
 20
52.3782
 11
80.5339
 21
53.007
  0
LINE
  8
0
 10
80.5339
 20
53.007
 11
79.5439
 21
53.5158
  0
LINE
  8
0
 10
79.5439
 20
53.5158
 11
45.4066
 21
68.9067
  0
LINE
  8
0
 10
45.4066
 20
68.9067
 11
44.628
 21
69.0837
  0
LINE
  8
0
 10
44.628
 20
69.0837
 11
44.1794
 21
69.1139
  0
LINE
  8
0
 10
44.1794
 20
69.1139
 11
43.5615
 21
69.0728
  0
LINE
  8
0
 10
43.5615
 20
69.0728
 11
42.7773
 21
68.8766
  0
LINE
  8
0
 10
42.7773
 20
68.8766
 11
42.3547
 21
68.696
  0
LINE
  8
0
 10
42.3547
 20
68.696
 11
41.6787
 21
68.271
  0
LINE
  8
0
 10
41.6787
 20
68.271
 11
41.2974
 21
67.9332
  0
LINE
  8
0
 10
41.2974
 20
67.9332
 11
41.2833
 21
67.9189
  0
LINE
  8
0
 10
41.2833
 20
67.9189
 11
40.7776
 21
67.2883
  0
LINE
  8
0
 10
40.7776
 20
67.2883
 11
40.5242
 21
66.8348
  0
LINE
  8
0
 10
40.5242
 20
66.8348
 11
40.2544
 21
66.0833
  0
LINE
  8
0
 10
40.2544
 20
66.0833
 11
40.1627
 21
65.5821
  0
LINE
  8
0
 10
40.1627
 20
65.5821
 11
40.1358
 21
65.1833
  0
LINE
  8
0
 10
40.1358
 20
65.1833
 11
40.2018
 21
64.3876
  0
LINE
  8
0
 10
40.2018
 20
64.3876
 11
40.3779
 21
63.7422
  0
LINE
  8
0
 10
40.3779
 20
63.7422
 11
40.7252
 21
63.0232
  0
LINE
  8
0
 10
40.7252
 20
63.0232
 11
41.2084
 21
62.3876
  0
LINE
  8
0
 10
41.2084
 20
62.3876
 11
41.2705
 21
62.3225
  0
LINE
  8
0
 10
41.2705
 20
62.3225
 11
67.5575
 21
35.4063
  0
LINE
  8
0
 10
67.5575
 20
35.4063
 11
68.4434
 21
34.6708
  0
LINE
  8
0
 10
68.4434
 20
34.6708
 11
69.4178
 21
34.0222
  0
LINE
  8
0
 10
69.4178
 20
34.0222
 11
70.4381
 21
33.4888
  0
LINE
  8
0
 10
70.4381
 20
33.4888
 11
71.5269
 21
33.0588
  0
LINE
  8
0
 10
71.5269
 20
33.0588
 11
72.6364
 21
32.7511
  0
LINE
  8
0
 10
72.6364
 20
32.7511
 11
73.7911
 21
32.5589
  0
LINE
  8
0
 10
73.7911
 20
32.5589
 11
74.9404
 21
32.4906
  0
LINE
  8
0
 10
74.9404
 20
32.4906
 11
76.1098
 21
32.5447
  0
LINE
  8
0
 10
66.2388
 20
49.0794
 11
66.1389
 21
49.11
  0
LINE
  8
0
 10
66.1389
 20
49.11
 11
66.0474
 21
49.1607
  0
LINE
  8
0
 10
66.0474
 20
49.1607
 11
65.9686
 21
49.2292
  0
LINE
  8
0
 10
65.9686
 20
49.2292
 11
65.9057
 21
49.3127
  0
LINE
  8
0
 10
65.9057
 20
49.3127
 11
65.8615
 21
49.4075
  0
LINE
  8
0
 10
65.8615
 20
49.4075
 11
65.838
 21
49.5093
  0
LINE
  8
0
 10
65.838
 20
49.5093
 11
65.8361
 21
49.6138
  0
LINE
  8
0
 10
65.8361
 20
49.6138
 11
65.8561
 21
49.7164
  0
LINE
  8
0
 10
65.8561
 20
49.7164
 11
65.8969
 21
49.8127
  0
LINE
  8
0
 10
65.8969
 20
49.8127
 11
65.9569
 21
49.8983
  0
LINE
  8
0
 10
65.9569
 20
49.8983
 11
66.0333
 21
49.9695
  0
LINE
  8
0
 10
66.0333
 20
49.9695
 11
66.1229
 21
50.0234
  0
LINE
  8
0
 10
66.1229
 20
50.0234
 11
66.2218
 21
50.0574
  0
LINE
  8
0
 10
66.2218
 20
50.0574
 11
66.3255
 21
50.0702
  0
LINE
  8
0
 10
66.3255
 20
50.0702
 11
66.4296
 21
50.0611
  0
LINE
  8
0
 10
66.4296
 20
50.0611
 11
66.5296
 21
50.0305
  0
LINE
  8
0
 10
66.5296
 20
50.0305
 11
66.621
 21
49.9798
  0
LINE
  8
0
 10
66.621
 20
49.9798
 11
66.6999
 21
49.9112
  0
LINE
  8
0
 10
66.6999
 20
49.9112
 11
66.7628
 21
49.8278
  0
LINE
  8
0
 10
66.7628
 20
49.8278
 11
66.807
 21
49.733
  0
LINE
  8
0
 10
66.807
 20
49.733
 11
66.8305
 21
49.6312
  0
LINE
  8
0
 10
66.8305
 20
49.6312
 11
66.8323
 21
49.5266
  0
LINE
  8
0
 10
66.8323
 20
49.5266
 11
66.8124
 21
49.424
  0
LINE
  8
0
 10
66.8124
 20
49.424
 11
66.7715
 21
49.3278
  0
LINE
  8
0
 10
66.7715
 20
49.3278
 11
66.7116
 21
49.2422
  0
LINE
  8
0
 10
66.7116
 20
49.2422
 11
66.6351
 21
49.1709
  0
LINE
  8
0
 10
66.6351
 20
49.1709
 11
66.5455
 21
49.1171
  0
LINE
  8
0
 10
66.5455
 20
49.1171
 11
66.4467
 21
49.0831
  0
LINE
  8
0
 10
66.4467
 20
49.0831
 11
66.343
 21
49.0703
  0
LINE
  8
0
 10
66.343
 20
49.0703
 11
66.2388
 21
49.0794
  0
LINE
  8
0
 10
74.3494
 20
40.0546
 11
73.6497
 21
40.2686
  0
LINE
  8
0
 10
73.6497
 20
40.2686
 11
73.0097
 21
40.6233
  0
LINE
  8
0
 10
73.0097
 20
40.6233
 11
72.4575
 21
41.1033
  0
LINE
  8
0
 10
72.4575
 20
41.1033
 11
72.0172
 21
41.6877
  0
LINE
  8
0
 10
72.0172
 20
41.6877
 11
71.7079
 21
42.3508
  0
LINE
  8
0
 10
71.7079
 20
42.3508
 11
71.5433
 21
43.0638
  0
LINE
  8
0
 10
71.5433
 20
43.0638
 11
71.5306
 21
43.7954
  0
LINE
  8
0
 10
71.5306
 20
43.7954
 11
71.6702
 21
44.5136
  0
LINE
  8
0
 10
71.6702
 20
44.5136
 11
71.9561
 21
45.1872
  0
LINE
  8
0
 10
71.9561
 20
45.1872
 11
72.3758
 21
45.7865
  0
LINE
  8
0
 10
72.3758
 20
45.7865
 11
72.9109
 21
46.2856
  0
LINE
  8
0
 10
72.9109
 20
46.2856
 11
73.5381
 21
46.6624
  0
LINE
  8
0
 10
73.5381
 20
46.6624
 11
74.2299
 21
46.9006
  0
LINE
  8
0
 10
74.2299
 20
46.9006
 11
74.9562
 21
46.9898
  0
LINE
  8
0
 10
74.9562
 20
46.9898
 11
75.6851
 21
46.926
  0
LINE
  8
0
 10
75.6851
 20
46.926
 11
76.3848
 21
46.7121
  0
LINE
  8
0
 10
76.3848
 20
46.7121
 11
77.0248
 21
46.3574
  0
LINE
  8
0
 10
77.0248
 20
46.3574
 11
77.577
 21
45.8773
  0
LINE
  8
0
 10
77.577
 20
45.8773
 11
78.0173
 21
45.293
  0
LINE
  8
0
 10
78.0173
 20
45.293
 11
78.3265
 21
44.6298
  0
LINE
  8
0
 10
78.3265
 20
44.6298
 11
78.4911
 21
43.9169
  0
LINE
  8
0
 10
78.4911
 20
43.9169
 11
78.5039
 21
43.1853
  0
LINE
  8
0
 10
78.5039
 20
43.1853
 11
78.3643
 21
42.467
  0
LINE
  8
0
 10
78.3643
 20
42.467
 11
78.0784
 21
41.7935
  0
LINE
  8
0
 10
78.0784
 20
41.7935
 11
77.6587
 21
41.1941
  0
LINE
  8
0
 10
77.6587
 20
41.1941
 11
77.1236
 21
40.6951
  0
LINE
  8
0
 10
77.1236
 20
40.6951
 11
76.4964
 21
40.3183
  0
LINE
  8
0
 10
76.4964
 20
40.3183
 11
75.8046
 21
40.08
  0
LINE
  8
0
 10
75.8046
 20
40.08
 11
75.0783
 21
39.9909
  0
LINE
  8
0
 10
75.0783
 20
39.9909
 11
74.3494
 21
40.0546
  0
LINE
  8
0
 10
56.5676
 20
9.74658
 11
56.958
 21
9.89642
  0
LINE
  8
0
 10
56.958
 20
9.89642
 11
57.3086
 21
10.1241
  0
LINE
  8
0
 10
57.3086
 20
10.1241
 11
57.4565
 21
10.272
  0
LINE
  8
0
 10
57.4565
 20
10.272
 11
57.4642
 21
10.2642
  0
LINE
  8
0
 10
57.4642
 20
10.2642
 11
70.1921
 21
22.9921
  0
LINE
  8
0
 10
70.1921
 20
22.9921
 11
70.1844
 21
22.9999
  0
LINE
  8
0
 10
70.1844
 20
22.9999
 11
70.3322
 21
23.1477
  0
LINE
  8
0
 10
70.3322
 20
23.1477
 11
70.5599
 21
23.4984
  0
LINE
  8
0
 10
70.5599
 20
23.4984
 11
70.7098
 21
23.8887
  0
LINE
  8
0
 10
70.7098
 20
23.8887
 11
70.7752
 21
24.3017
  0
LINE
  8
0
 10
70.7752
 20
24.3017
 11
70.7533
 21
24.7192
  0
LINE
  8
0
 10
70.7533
 20
24.7192
 11
70.6451
 21
25.1231
  0
LINE
  8
0
 10
70.6451
 20
25.1231
 11
70.4553
 21
25.4956
  0
LINE
  8
0
 10
70.4553
 20
25.4956
 11
70.1921
 21
25.8206
  0
LINE
  8
0
 10
70.1921
 20
25.8206
 11
32.0084
 21
64.0043
  0
LINE
  8
0
 10
32.0084
 20
64.0043
 11
32
 21
63.996
  0
LINE
  8
0
 10
32
 20
63.996
 11
32
 21
64
  0
LINE
  8
0
 10
32
 20
64
 11
-31.954
 21
64
  0
LINE
  8
0
 10
-31.954
 20
64
 11
-31.9584
 21
64.0043
  0
LINE
  8
0
 10
-31.9584
 20
64.0043
 11
-31.9627
 21
64
  0
LINE
  8
0
 10
-31.9627
 20
64
 11
-32
 21
64
  0
LINE
  8
0
 10
-32
 20
64
 11
-32
 21
63.9627
  0
LINE
  8
0
 10
-32
 20
63.9627
 11
-70.1421
 21
25.8206
  0
LINE
  8
0
 10
-70.1421
 20
25.8206
 11
-70.4053
 21
25.4956
  0
LINE
  8
0
 10
-70.4053
 20
25.4956
 11
-70.5951
 21
25.1231
  0
LINE
  8
0
 10
-70.5951
 20
25.1231
 11
-70.7033
 21
24.7192
  0
LINE
  8
0
 10
-70.7033
 20
24.7192
 11
-70.7252
 21
24.3017
  0
LINE
  8
0
 10
-70.7252
 20
24.3017
 11
-70.6598
 21
23.8887
  0
LINE
  8
0
 10
-70.6598
 20
23.8887
 11
-70.5099
 21
23.4984
  0
LINE
  8
0
 10
-70.5099
 20
23.4984
 11
-70.2822
 21
23.1477
  0
LINE
  8
0
 10
-70.2822
 20
23.1477
 11
-70.1344
 21
22.9999
  0
LINE
  8
0
 10
-70.1344
 20
22.9999
 11
-70.1421
 21
22.9921
  0
LINE
  8
0
 10
-70.1421
 20
22.9921
 11
-57.4142
 21
10.2642
  0
LINE
  8
0
 10
-57.4142
 20
10.2642
 11
-57.4065
 21
10.272
  0
LINE
  8
0
 10
-57.4065
 20
10.272
 11
-57.2586
 21
10.1241
  0
LINE
  8
0
 10
-57.2586
 20
10.1241
 11
-56.908
 21
9.89642
  0
LINE
  8
0
 10
-56.908
 20
9.89642
 11
-56.5176
 21
9.74658
  0
LINE
  8
0
 10
-56.5176
 20
9.74658
 11
-56.1047
 21
9.68118
  0
LINE
  8
0
 10
-56.1047
 20
9.68118
 11
-55.6871
 21
9.70306
  0
LINE
  8
0
 10
-55.6871
 20
9.70306
 11
-55.2833
 21
9.81128
  0
LINE
  8
0
 10
-55.2833
 20
9.81128
 11
-54.9107
 21
10.0011
  0
LINE
  8
0
 10
-54.9107
 20
10.0011
 11
-54.5858
 21
10.2642
  0
LINE
  8
0
 10
-54.5858
 20
10.2642
 11
-26.85
 21
38
  0
LINE
  8
0
 10
-26.85
 20
38
 11
-5
 21
38
  0
LINE
  8
0
 10
-5
 20
38
 11
-5
 21
23
  0
LINE
  8
0
 10
-5
 20
23
 11
-4.89075
 21
21.9604
  0
LINE
  8
0
 10
-4.89075
 20
21.9604
 11
-4.56773
 21
20.9663
  0
LINE
  8
0
 10
-4.56773
 20
20.9663
 11
-4.04509
 21
20.0611
  0
LINE
  8
0
 10
-4.04509
 20
20.0611
 11
-3.34566
 21
19.2843
  0
LINE
  8
0
 10
-3.34566
 20
19.2843
 11
-2.5
 21
18.6699
  0
LINE
  8
0
 10
-2.5
 20
18.6699
 11
-1.54509
 21
18.2447
  0
LINE
  8
0
 10
-1.54509
 20
18.2447
 11
-0.522644
 21
18.0274
  0
LINE
  8
0
 10
-0.522644
 20
18.0274
 11
0.522644
 21
18.0274
  0
LINE
  8
0
 10
0.522644
 20
18.0274
 11
1.54507
 21
18.2447
  0
LINE
  8
0
 10
1.54507
 20
18.2447
 11
2.5
 21
18.6699
  0
LINE
  8
0
 10
2.5
 20
18.6699
 11
3.34564
 21
19.2843
  0
LINE
  8
0
 10
3.34564
 20
19.2843
 11
4.04507
 21
20.0611
  0
LINE
  8
0
 10
4.04507
 20
20.0611
 11
4.56772
 21
20.9663
  0
LINE
  8
0
 10
4.56772
 20
20.9663
 11
4.89073
 21
21.9604
  0
LINE
  8
0
 10
4.89073
 20
21.9604
 11
5
 21
23
  0
LINE
  8
0
 10
5
 20
23
 11
5
 21
38
  0
LINE
  8
0
 10
5
 20
38
 11
26.9
 21
38
  0
LINE
  8
0
 10
26.9
 20
38
 11
54.6358
 21
10.2642
  0
LINE
  8
0
 10
54.6358
 20
10.2642
 11
54.9607
 21
10.0011
  0
LINE
  8
0
 10
54.9607
 20
10.0011
 11
55.3333
 21
9.81128
  0
LINE
  8
0
 10
55.3333
 20
9.81128
 11
55.7371
 21
9.70306
  0
LINE
  8
0
 10
55.7371
 20
9.70306
 11
56.1547
 21
9.68118
  0
LINE
  8
0
 10
56.1547
 20
9.68118
 11
56.5676
 21
9.74658
  0
LINE
  8
0
 10
-30.6568
 20
58.5082
 11
-30.9635
 21
58.5734
  0
LINE
  8
0
 10
-30.9635
 20
58.5734
 11
-31.25
 21
58.701
  0
LINE
  8
0
 10
-31.25
 20
58.701
 11
-31.5037
 21
58.8853
  0
LINE
  8
0
 10
-31.5037
 20
58.8853
 11
-31.7135
 21
59.1183
  0
LINE
  8
0
 10
-31.7135
 20
59.1183
 11
-31.8703
 21
59.3899
  0
LINE
  8
0
 10
-31.8703
 20
59.3899
 11
-31.9672
 21
59.6881
  0
LINE
  8
0
 10
-31.9672
 20
59.6881
 11
-32
 21
60
  0
LINE
  8
0
 10
-32
 20
60
 11
-31.9672
 21
60.3119
  0
LINE
  8
0
 10
-31.9672
 20
60.3119
 11
-31.8703
 21
60.6101
  0
LINE
  8
0
 10
-31.8703
 20
60.6101
 11
-31.7135
 21
60.8817
  0
LINE
  8
0
 10
-31.7135
 20
60.8817
 11
-31.5037
 21
61.1147
  0
LINE
  8
0
 10
-31.5037
 20
61.1147
 11
-31.25
 21
61.299
  0
LINE
  8
0
 10
-31.25
 20
61.299
 11
-30.9635
 21
61.4266
  0
LINE
  8
0
 10
-30.9635
 20
61.4266
 11
-30.6568
 21
61.4918
  0
LINE
  8
0
 10
-30.6568
 20
61.4918
 11
-30.3432
 21
61.4918
  0
LINE
  8
0
 10
-30.3432
 20
61.4918
 11
-30.0365
 21
61.4266
  0
LINE
  8
0
 10
-30.0365
 20
61.4266
 11
-29.75
 21
61.299
  0
LINE
  8
0
 10
-29.75
 20
61.299
 11
-29.4963
 21
61.1147
  0
LINE
  8
0
 10
-29.4963
 20
61.1147
 11
-29.2865
 21
60.8817
  0
LINE
  8
0
 10
-29.2865
 20
60.8817
 11
-29.1297
 21
60.6101
  0
LINE
  8
0
 10
-29.1297
 20
60.6101
 11
-29.0328
 21
60.3119
  0
LINE
  8
0
 10
-29.0328
 20
60.3119
 11
-29
 21
60
  0
LINE
  8
0
 10
-29
 20
60
 11
-29.0328
 21
59.6881
  0
LINE
  8
0
 10
-29.0328
 20
59.6881
 11
-29.1297
 21
59.3899
  0
LINE
  8
0
 10
-29.1297
 20
59.3899
 11
-29.2865
 21
59.1183
  0
LINE
  8
0
 10
-29.2865
 20
59.1183
 11
-29.4963
 21
58.8853
  0
LINE
  8
0
 10
-29.4963
 20
58.8853
 11
-29.75
 21
58.701
  0
LINE
  8
0
 10
-29.75
 20
58.701
 11
-30.0365
 21
58.5734
  0
LINE
  8
0
 10
-30.0365
 20
58.5734
 11
-30.3432
 21
58.5082
  0
LINE
  8
0
 10
-30.3432
 20
58.5082
 11
-30.6568
 21
58.5082
  0
LINE
  8
0
 10
30.3432
 20
58.5082
 11
30.0365
 21
58.5734
  0
LINE
  8
0
 10
30.0365
 20
58.5734
 11
29.75
 21
58.701
  0
LINE
  8
0
 10
29.75
 20
58.701
 11
29.4963
 21
58.8853
  0
LINE
  8
0
 10
29.4963
 20
58.8853
 11
29.2865
 21
59.1183
  0
LINE
  8
0
 10
29.2865
 20
59.1183
 11
29.1297
 21
59.3899
  0
LINE
  8
0
 10
29.1297
 20
59.3899
 11
29.0328
 21
59.6881
  0
LINE
  8
0
 10
29.0328
 20
59.6881
 11
29
 21
60
  0
LINE
  8
0
 10
29
 20
60
 11
29.0328
 21
60.3119
  0
LINE
  8
0
 10
29.0328
 20
60.3119
 11
29.1297
 21
60.6101
  0
LINE
  8
0
 10
29.1297
 20
60.6101
 11
29.2865
 21
60.8817
  0
LINE
  8
0
 10
29.2865
 20
60.8817
 11
29.4963
 21
61.1147
  0
LINE
  8
0
 10
29.4963
 20
61.1147
 11
29.75
 21
61.299
  0
LINE
  8
0
 10
29.75
 20
61.299
 11
30.0365
 21
61.4266
  0
LINE
  8
0
 10
30.0365
 20
61.4266
 11
30.3432
 21
61.4918
  0
LINE
  8
0
 10
30.3432
 20
61.4918
 11
30.6568
 21
61.4918
  0
LINE
  8
0
 10
30.6568
 20
61.4918
 11
30.9635
 21
61.4266
  0
LINE
  8
0
 10
30.9635
 20
61.4266
 11
31.25
 21
61.299
  0
LINE
  8
0
 10
31.25
 20
61.299
 11
31.5037
 21
61.1147
  0
LINE
  8
0
 10
31.5037
 20
61.1147
 11
31.7135
 21
60.8817
  0
LINE
  8
0
 10
31.7135
 20
60.8817
 11
31.8703
 21
60.6101
  0
LINE
  8
0
 10
31.8703
 20
60.6101
 11
31.9672
 21
60.3119
  0
LINE
  8
0
 10
31.9672
 20
60.3119
 11
32
 21
60
  0
LINE
  8
0
 10
32
 20
60
 11
31.9672
 21
59.6881
  0
LINE
  8
0
 10
31.9672
 20
59.6881
 11
31.8703
 21
59.3899
  0
LINE
  8
0
 10
31.8703
 20
59.3899
 11
31.7135
 21
59.1183
  0
LINE
  8
0
 10
31.7135
 20
59.1183
 11
31.5037
 21
58.8853
  0
LINE
  8
0
 10
31.5037
 20
58.8853
 11
31.25
 21
58.701
  0
LINE
  8
0
 10
31.25
 20
58.701
 11
30.9635
 21
58.5734
  0
LINE
  8
0
 10
30.9635
 20
58.5734
 11
30.6568
 21
58.5082
  0
LINE
  8
0
 10
30.6568
 20
58.5082
 11
30.3432
 21
58.5082
  0
LINE
  8
0
 10
-64.4853
 20
24.4064
 11
-48.4339
 21
40.4577
  0
LINE
  8
0
 10
-48.4339
 20
40.4577
 11
-39.9487
 21
31.9724
  0
LINE
  8
0
 10
-39.9487
 20
31.9724
 11
-56
 21
15.9211
  0
LINE
  8
0
 10
-56
 20
15.9211
 11
-64.4853
 21
24.4064
  0
LINE
  8
0
 10
39.9987
 20
31.9724
 11
48.4839
 21
40.4577
  0
LINE
  8
0
 10
48.4839
 20
40.4577
 11
64.5353
 21
24.4064
  0
LINE
  8
0
 10
64.5353
 20
24.4064
 11
56.05
 21
15.9211
  0
LINE
  8
0
 10
56.05
 20
15.9211
 11
39.9987
 21
31.9724
  0
LINE
  8
0
 10
-42.6306
 20
37.2101
 11
-42.7867
 21
37.27
  0
LINE
  8
0
 10
-42.7867
 20
37.27
 11
-42.927
 21
37.3611
  0
LINE
  8
0
 10
-42.927
 20
37.3611
 11
-43.0453
 21
37.4794
  0
LINE
  8
0
 10
-43.0453
 20
37.4794
 11
-43.1364
 21
37.6196
  0
LINE
  8
0
 10
-43.1364
 20
37.6196
 11
-43.1963
 21
37.7758
  0
LINE
  8
0
 10
-43.1963
 20
37.7758
 11
-43.2224
 21
37.9409
  0
LINE
  8
0
 10
-43.2224
 20
37.9409
 11
-43.2137
 21
38.1079
  0
LINE
  8
0
 10
-43.2137
 20
38.1079
 11
-43.1704
 21
38.2695
  0
LINE
  8
0
 10
-43.1704
 20
38.2695
 11
-43.0945
 21
38.4185
  0
LINE
  8
0
 10
-43.0945
 20
38.4185
 11
-42.9892
 21
38.5485
  0
LINE
  8
0
 10
-42.9892
 20
38.5485
 11
-42.8593
 21
38.6537
  0
LINE
  8
0
 10
-42.8593
 20
38.6537
 11
-42.7102
 21
38.7297
  0
LINE
  8
0
 10
-42.7102
 20
38.7297
 11
-42.5487
 21
38.7729
  0
LINE
  8
0
 10
-42.5487
 20
38.7729
 11
-42.3817
 21
38.7817
  0
LINE
  8
0
 10
-42.3817
 20
38.7817
 11
-42.2165
 21
38.7555
  0
LINE
  8
0
 10
-42.2165
 20
38.7555
 11
-42.0603
 21
38.6956
  0
LINE
  8
0
 10
-42.0603
 20
38.6956
 11
-41.9201
 21
38.6045
  0
LINE
  8
0
 10
-41.9201
 20
38.6045
 11
-41.8018
 21
38.4863
  0
LINE
  8
0
 10
-41.8018
 20
38.4863
 11
-41.7107
 21
38.346
  0
LINE
  8
0
 10
-41.7107
 20
38.346
 11
-41.6508
 21
38.1898
  0
LINE
  8
0
 10
-41.6508
 20
38.1898
 11
-41.6246
 21
38.0247
  0
LINE
  8
0
 10
-41.6246
 20
38.0247
 11
-41.6334
 21
37.8577
  0
LINE
  8
0
 10
-41.6334
 20
37.8577
 11
-41.6767
 21
37.6961
  0
LINE
  8
0
 10
-41.6767
 20
37.6961
 11
-41.7526
 21
37.5471
  0
LINE
  8
0
 10
-41.7526
 20
37.5471
 11
-41.8579
 21
37.4171
  0
LINE
  8
0
 10
-41.8579
 20
37.4171
 11
-41.9878
 21
37.3119
  0
LINE
  8
0
 10
-41.9878
 20
37.3119
 11
-42.1369
 21
37.2359
  0
LINE
  8
0
 10
-42.1369
 20
37.2359
 11
-42.2984
 21
37.1927
  0
LINE
  8
0
 10
-42.2984
 20
37.1927
 11
-42.4654
 21
37.1839
  0
LINE
  8
0
 10
-42.4654
 20
37.1839
 11
-42.6306
 21
37.2101
  0
LINE
  8
0
 10
42.3484
 20
37.1927
 11
42.1869
 21
37.2359
  0
LINE
  8
0
 10
42.1869
 20
37.2359
 11
42.0378
 21
37.3119
  0
LINE
  8
0
 10
42.0378
 20
37.3119
 11
41.9079
 21
37.4171
  0
LINE
  8
0
 10
41.9079
 20
37.4171
 11
41.8026
 21
37.5471
  0
LINE
  8
0
 10
41.8026
 20
37.5471
 11
41.7267
 21
37.6961
  0
LINE
  8
0
 10
41.7267
 20
37.6961
 11
41.6834
 21
37.8577
  0
LINE
  8
0
 10
41.6834
 20
37.8577
 11
41.6746
 21
38.0247
  0
LINE
  8
0
 10
41.6746
 20
38.0247
 11
41.7008
 21
38.1898
  0
LINE
  8
0
 10
41.7008
 20
38.1898
 11
41.7607
 21
38.346
  0
LINE
  8
0
 10
41.7607
 20
38.346
 11
41.8518
 21
38.4863
  0
LINE
  8
0
 10
41.8518
 20
38.4863
 11
41.9701
 21
38.6045
  0
LINE
  8
0
 10
41.9701
 20
38.6045
 11
42.1104
 21
38.6956
  0
LINE
  8
0
 10
42.1104
 20
38.6956
 11
42.2665
 21
38.7555
  0
LINE
  8
0
 10
42.2665
 20
38.7555
 11
42.4317
 21
38.7817
  0
LINE
  8
0
 10
42.4317
 20
38.7817
 11
42.5987
 21
38.7729
  0
LINE
  8
0
 10
42.5987
 20
38.7729
 11
42.7602
 21
38.7297
  0
LINE
  8
0
 10
42.7602
 20
38.7297
 11
42.9093
 21
38.6537
  0
LINE
  8
0
 10
42.9093
 20
38.6537
 11
43.0392
 21
38.5485
  0
LINE
  8
0
 10
43.0392
 20
38.5485
 11
43.1445
 21
38.4185
  0
LINE
  8
0
 10
43.1445
 20
38.4185
 11
43.2204
 21
38.2695
  0
LINE
  8
0
 10
43.2204
 20
38.2695
 11
43.2637
 21
38.1079
  0
LINE
  8
0
 10
43.2637
 20
38.1079
 11
43.2724
 21
37.9409
  0
LINE
  8
0
 10
43.2724
 20
37.9409
 11
43.2463
 21
37.7758
  0
LINE
  8
0
 10
43.2463
 20
37.7758
 11
43.1864
 21
37.6196
  0
LINE
  8
0
 10
43.1864
 20
37.6196
 11
43.0953
 21
37.4794
  0
LINE
  8
0
 10
43.0953
 20
37.4794
 11
42.977
 21
37.3611
  0
LINE
  8
0
 10
42.977
 20
37.3611
 11
42.8367
 21
37.27
  0
LINE
  8
0
 10
42.8367
 20
37.27
 11
42.6806
 21
37.2101
  0
LINE
  8
0
 10
42.6806
 20
37.2101
 11
42.5154
 21
37.1839
  0
LINE
  8
0
 10
42.5154
 20
37.1839
 11
42.3484
 21
37.1927
  0
LINE
  8
0
 10
-0.156799
 20
21.5082
 11
-0.463531
 21
21.5734
  0
LINE
  8
0
 10
-0.463531
 20
21.5734
 11
-0.75
 21
21.701
  0
LINE
  8
0
 10
-0.75
 20
21.701
 11
-1.00371
 21
21.8853
  0
LINE
  8
0
 10
-1.00371
 20
21.8853
 11
-1.21353
 21
22.1183
  0
LINE
  8
0
 10
-1.21353
 20
22.1183
 11
-1.37033
 21
22.3899
  0
LINE
  8
0
 10
-1.37033
 20
22.3899
 11
-1.46722
 21
22.6881
  0
LINE
  8
0
 10
-1.46722
 20
22.6881
 11
-1.5
 21
23
  0
LINE
  8
0
 10
-1.5
 20
23
 11
-1.46722
 21
23.3119
  0
LINE
  8
0
 10
-1.46722
 20
23.3119
 11
-1.37033
 21
23.6101
  0
LINE
  8
0
 10
-1.37033
 20
23.6101
 11
-1.21353
 21
23.8817
  0
LINE
  8
0
 10
-1.21353
 20
23.8817
 11
-1.00371
 21
24.1147
  0
LINE
  8
0
 10
-1.00371
 20
24.1147
 11
-0.75
 21
24.299
  0
LINE
  8
0
 10
-0.75
 20
24.299
 11
-0.463531
 21
24.4266
  0
LINE
  8
0
 10
-0.463531
 20
24.4266
 11
-0.156799
 21
24.4918
  0
LINE
  8
0
 10
-0.156799
 20
24.4918
 11
0.156784
 21
24.4918
  0
LINE
  8
0
 10
0.156784
 20
24.4918
 11
0.463516
 21
24.4266
  0
LINE
  8
0
 10
0.463516
 20
24.4266
 11
0.75
 21
24.299
  0
LINE
  8
0
 10
0.75
 20
24.299
 11
1.00369
 21
24.1147
  0
LINE
  8
0
 10
1.00369
 20
24.1147
 11
1.21352
 21
23.8817
  0
LINE
  8
0
 10
1.21352
 20
23.8817
 11
1.37032
 21
23.6101
  0
LINE
  8
0
 10
1.37032
 20
23.6101
 11
1.46721
 21
23.3119
  0
LINE
  8
0
 10
1.46721
 20
23.3119
 11
1.5
 21
23
  0
LINE
  8
0
 10
1.5
 20
23
 11
1.46721
 21
22.6881
  0
LINE
  8
0
 10
1.46721
 20
22.6881
 11
1.37032
 21
22.3899
  0
LINE
  8
0
 10
1.37032
 20
22.3899
 11
1.21352
 21
22.1183
  0
LINE
  8
0
 10
1.21352
 20
22.1183
 11
1.00369
 21
21.8853
  0
LINE
  8
0
 10
1.00369
 20
21.8853
 11
0.75
 21
21.701
  0
LINE
  8
0
 10
0.75
 20
21.701
 11
0.463516
 21
21.5734
  0
LINE
  8
0
 10
0.463516
 20
21.5734
 11
0.156784
 21
21.5082
  0
LINE
  8
0
 10
0.156784
 20
21.5082
 11
-0.156799
 21
21.5082
  0
LINE
  8
0
 10
-62.2175
 20
17.6232
 11
-62.3736
 21
17.6831
  0
LINE
  8
0
 10
-62.3736
 20
17.6831
 11
-62.5139
 21
17.7742
  0
LINE
  8
0
 10
-62.5139
 20
17.7742
 11
-62.6321
 21
17.8925
  0
LINE
  8
0
 10
-62.6321
 20
17.8925
 11
-62.7232
 21
18.0328
  0
LINE
  8
0
 10
-62.7232
 20
18.0328
 11
-62.7831
 21
18.1889
  0
LINE
  8
0
 10
-62.7831
 20
18.1889
 11
-62.8093
 21
18.3541
  0
LINE
  8
0
 10
-62.8093
 20
18.3541
 11
-62.8006
 21
18.5211
  0
LINE
  8
0
 10
-62.8006
 20
18.5211
 11
-62.7573
 21
18.6826
  0
LINE
  8
0
 10
-62.7573
 20
18.6826
 11
-62.6813
 21
18.8317
  0
LINE
  8
0
 10
-62.6813
 20
18.8317
 11
-62.5761
 21
18.9616
  0
LINE
  8
0
 10
-62.5761
 20
18.9616
 11
-62.4461
 21
19.0669
  0
LINE
  8
0
 10
-62.4461
 20
19.0669
 11
-62.2971
 21
19.1428
  0
LINE
  8
0
 10
-62.2971
 20
19.1428
 11
-62.1355
 21
19.1861
  0
LINE
  8
0
 10
-62.1355
 20
19.1861
 11
-61.9685
 21
19.1949
  0
LINE
  8
0
 10
-61.9685
 20
19.1949
 11
-61.8033
 21
19.1687
  0
LINE
  8
0
 10
-61.8033
 20
19.1687
 11
-61.6472
 21
19.1087
  0
LINE
  8
0
 10
-61.6472
 20
19.1087
 11
-61.5069
 21
19.0177
  0
LINE
  8
0
 10
-61.5069
 20
19.0177
 11
-61.3887
 21
18.8994
  0
LINE
  8
0
 10
-61.3887
 20
18.8994
 11
-61.2976
 21
18.7591
  0
LINE
  8
0
 10
-61.2976
 20
18.7591
 11
-61.2377
 21
18.603
  0
LINE
  8
0
 10
-61.2377
 20
18.603
 11
-61.2115
 21
18.4378
  0
LINE
  8
0
 10
-61.2115
 20
18.4378
 11
-61.2202
 21
18.2708
  0
LINE
  8
0
 10
-61.2202
 20
18.2708
 11
-61.2635
 21
18.1093
  0
LINE
  8
0
 10
-61.2635
 20
18.1093
 11
-61.3395
 21
17.9602
  0
LINE
  8
0
 10
-61.3395
 20
17.9602
 11
-61.4447
 21
17.8303
  0
LINE
  8
0
 10
-61.4447
 20
17.8303
 11
-61.5747
 21
17.725
  0
LINE
  8
0
 10
-61.5747
 20
17.725
 11
-61.7237
 21
17.6491
  0
LINE
  8
0
 10
-61.7237
 20
17.6491
 11
-61.8853
 21
17.6058
  0
LINE
  8
0
 10
-61.8853
 20
17.6058
 11
-62.0523
 21
17.597
  0
LINE
  8
0
 10
-62.0523
 20
17.597
 11
-62.2175
 21
17.6232
  0
LINE
  8
0
 10
61.9353
 20
17.6058
 11
61.7737
 21
17.6491
  0
LINE
  8
0
 10
61.7737
 20
17.6491
 11
61.6247
 21
17.725
  0
LINE
  8
0
 10
61.6247
 20
17.725
 11
61.4947
 21
17.8303
  0
LINE
  8
0
 10
61.4947
 20
17.8303
 11
61.3895
 21
17.9602
  0
LINE
  8
0
 10
61.3895
 20
17.9602
 11
61.3135
 21
18.1093
  0
LINE
  8
0
 10
61.3135
 20
18.1093
 11
61.2702
 21
18.2708
  0
LINE
  8
0
 10
61.2702
 20
18.2708
 11
61.2615
 21
18.4378
  0
LINE
  8
0
 10
61.2615
 20
18.4378
 11
61.2877
 21
18.603
  0
LINE
  8
0
 10
61.2877
 20
18.603
 11
61.3476
 21
18.7591
  0
LINE
  8
0
 10
61.3476
 20
18.7591
 11
61.4387
 21
18.8994
  0
LINE
  8
0
 10
61.4387
 20
18.8994
 11
61.5569
 21
19.0177
  0
LINE
  8
0
 10
61.5569
 20
19.0177
 11
61.6972
 21
19.1087
  0
LINE
  8
0
 10
61.6972
 20
19.1087
 11
61.8533
 21
19.1687
  0
LINE
  8
0
 10
61.8533
 20
19.1687
 11
62.0185
 21
19.1949
  0
LINE
  8
0
 10
62.0185
 20
19.1949
 11
62.1855
 21
19.1861
  0
LINE
  8
0
 10
62.1855
 20
19.1861
 11
62.3471
 21
19.1428
  0
LINE
  8
0
 10
62.3471
 20
19.1428
 11
62.4961
 21
19.0669
  0
LINE
  8
0
 10
62.4961
 20
19.0669
 11
62.6261
 21
18.9616
  0
LINE
  8
0
 10
62.6261
 20
18.9616
 11
62.7313
 21
18.8317
  0
LINE
  8
0
 10
62.7313
 20
18.8317
 11
62.8073
 21
18.6826
  0
LINE
  8
0
 10
62.8073
 20
18.6826
 11
62.8506
 21
18.5211
  0
LINE
  8
0
 10
62.8506
 20
18.5211
 11
62.8593
 21
18.3541
  0
LINE
  8
0
 10
62.8593
 20
18.3541
 11
62.8331
 21
18.1889
  0
LINE
  8
0
 10
62.8331
 20
18.1889
 11
62.7732
 21
18.0328
  0
LINE
  8
0
 10
62.7732
 20
18.0328
 11
62.6821
 21
17.8925
  0
LINE
  8
0
 10
62.6821
 20
17.8925
 11
62.5639
 21
17.7742
  0
LINE
  8
0
 10
62.5639
 20
17.7742
 11
62.4236
 21
17.6831
  0
LINE
  8
0
 10
62.4236
 20
17.6831
 11
62.2675
 21
17.6232
  0
LINE
  8
0
 10
62.2675
 20
17.6232
 11
62.1023
 21
17.597
  0
LINE
  8
0
 10
62.1023
 20
17.597
 11
61.9353
 21
17.6058
  0
LINE
  8
0
 10
29
 20
-23.689
 11
29.209
 21
-23.689
  0
LINE
  8
0
 10
29.209
 20
-23.689
 11
29.618
 21
-23.6021
  0
LINE
  8
0
 10
29.618
 20
-23.6021
 11
30
 21
-23.432
  0
LINE
  8
0
 10
30
 20
-23.432
 11
30.3383
 21
-23.1863
  0
LINE
  8
0
 10
30.3383
 20
-23.1863
 11
30.618
 21
-22.8756
  0
LINE
  8
0
 10
30.618
 20
-22.8756
 11
30.8271
 21
-22.5135
  0
LINE
  8
0
 10
30.8271
 20
-22.5135
 11
30.9563
 21
-22.1158
  0
LINE
  8
0
 10
30.9563
 20
-22.1158
 11
31
 21
-21.7
  0
LINE
  8
0
 10
31
 20
-21.7
 11
30.9849
 21
24.5757
  0
LINE
  8
0
 10
30.9849
 20
24.5757
 11
30.8646
 21
25.7208
  0
LINE
  8
0
 10
30.8646
 20
25.7208
 11
30.6252
 21
26.847
  0
LINE
  8
0
 10
30.6252
 20
26.847
 11
30.2694
 21
27.942
  0
LINE
  8
0
 10
30.2694
 20
27.942
 11
29.8011
 21
28.9939
  0
LINE
  8
0
 10
29.8011
 20
28.9939
 11
29.2254
 21
29.991
  0
LINE
  8
0
 10
29.2254
 20
29.991
 11
28.5486
 21
30.9225
  0
LINE
  8
0
 10
28.5486
 20
30.9225
 11
27.7782
 21
31.7782
  0
LINE
  8
0
 10
27.7782
 20
31.7782
 11
26.9076
 21
32.5607
  0
LINE
  8
0
 10
26.9076
 20
32.5607
 11
25.9588
 21
33.2462
  0
LINE
  8
0
 10
25.9588
 20
33.2462
 11
24.9596
 21
33.8184
  0
LINE
  8
0
 10
24.9596
 20
33.8184
 11
23.9062
 21
34.2831
  0
LINE
  8
0
 10
23.9062
 20
34.2831
 11
22.8099
 21
34.6351
  0
LINE
  8
0
 10
22.8099
 20
34.6351
 11
21.6639
 21
34.8734
  0
LINE
  8
0
 10
21.6639
 20
34.8734
 11
20.5182
 21
34.9878
  0
LINE
  8
0
 10
20.5182
 20
34.9878
 11
19.3476
 21
34.9806
  0
LINE
  8
0
 10
19.3476
 20
34.9806
 11
18.1845
 21
34.8491
  0
LINE
  8
0
 10
18.1845
 20
34.8491
 11
17.0604
 21
34.5999
  0
LINE
  8
0
 10
17.0604
 20
34.5999
 11
15.9685
 21
34.2346
  0
LINE
  8
0
 10
15.9685
 20
34.2346
 11
14.9208
 21
33.7571
  0
LINE
  8
0
 10
14.9208
 20
33.7571
 11
13.9287
 21
33.1727
  0
LINE
  8
0
 10
13.9287
 20
33.1727
 11
13.0031
 21
32.4879
  0
LINE
  8
0
 10
13.0031
 20
32.4879
 11
12.1543
 21
31.71
  0
LINE
  8
0
 10
12.1543
 20
31.71
 11
11.3913
 21
30.8477
  0
LINE
  8
0
 10
11.3913
 20
30.8477
 11
10.7227
 21
29.9103
  0
LINE
  8
0
 10
10.7227
 20
29.9103
 11
10.1557
 21
28.9082
  0
LINE
  8
0
 10
10.1557
 20
28.9082
 11
9.69661
 21
27.8523
  0
LINE
  8
0
 10
9.69661
 20
27.8523
 11
9.35039
 21
26.7542
  0
LINE
  8
0
 10
9.35039
 20
26.7542
 11
9.12083
 21
25.6259
  0
LINE
  8
0
 10
9.12083
 20
25.6259
 11
9.01048
 21
24.4798
  0
LINE
  8
0
 10
9.01048
 20
24.4798
 11
9
 21
24
  0
LINE
  8
0
 10
9
 20
24
 11
9
 21
-21.7
  0
LINE
  8
0
 10
9
 20
-21.7
 11
9.04372
 21
-22.1158
  0
LINE
  8
0
 10
9.04372
 20
-22.1158
 11
9.17291
 21
-22.5135
  0
LINE
  8
0
 10
9.17291
 20
-22.5135
 11
9.38197
 21
-22.8756
  0
LINE
  8
0
 10
9.38197
 20
-22.8756
 11
9.66174
 21
-23.1863
  0
LINE
  8
0
 10
9.66174
 20
-23.1863
 11
10
 21
-23.432
  0
LINE
  8
0
 10
10
 20
-23.432
 11
10.382
 21
-23.6021
  0
LINE
  8
0
 10
10.382
 20
-23.6021
 11
10.791
 21
-23.689
  0
LINE
  8
0
 10
10.791
 20
-23.689
 11
11
 21
-23.689
  0
LINE
  8
0
 10
11
 20
-23.689
 11
11
 21
-23.7
  0
LINE
  8
0
 10
11
 20
-23.7
 11
29
 21
-23.7
  0
LINE
  8
0
 10
29
 20
-23.7
 11
29
 21
-23.689
  0
LINE
  8
0
 10
19.6342
 20
20.5192
 11
18.9184
 21
20.6713
  0
LINE
  8
0
 10
18.9184
 20
20.6713
 11
18.25
 21
20.9689
  0
LINE
  8
0
 10
18.25
 20
20.9689
 11
17.6581
 21
21.399
  0
LINE
  8
0
 10
17.6581
 20
21.399
 11
17.1684
 21
21.9428
  0
LINE
  8
0
 10
17.1684
 20
21.9428
 11
16.8026
 21
22.5764
  0
LINE
  8
0
 10
16.8026
 20
22.5764
 11
16.5765
 21
23.2723
  0
LINE
  8
0
 10
16.5765
 20
23.2723
 11
16.5
 21
24
  0
LINE
  8
0
 10
16.5
 20
24
 11
16.5765
 21
24.7277
  0
LINE
  8
0
 10
16.5765
 20
24.7277
 11
16.8026
 21
25.4236
  0
LINE
  8
0
 10
16.8026
 20
25.4236
 11
17.1684
 21
26.0572
  0
LINE
  8
0
 10
17.1684
 20
26.0572
 11
17.6581
 21
26.601
  0
LINE
  8
0
 10
17.6581
 20
26.601
 11
18.25
 21
27.0311
  0
LINE
  8
0
 10
18.25
 20
27.0311
 11
18.9184
 21
27.3287
  0
LINE
  8
0
 10
18.9184
 20
27.3287
 11
19.6342
 21
27.4808
  0
LINE
  8
0
 10
19.6342
 20
27.4808
 11
20.3658
 21
27.4808
  0
LINE
  8
0
 10
20.3658
 20
27.4808
 11
21.0816
 21
27.3287
  0
LINE
  8
0
 10
21.0816
 20
27.3287
 11
21.75
 21
27.0311
  0
LINE
  8
0
 10
21.75
 20
27.0311
 11
22.3419
 21
26.601
  0
LINE
  8
0
 10
22.3419
 20
26.601
 11
22.8316
 21
26.0572
  0
LINE
  8
0
 10
22.8316
 20
26.0572
 11
23.1974
 21
25.4236
  0
LINE
  8
0
 10
23.1974
 20
25.4236
 11
23.4235
 21
24.7277
  0
LINE
  8
0
 10
23.4235
 20
24.7277
 11
23.5
 21
24
  0
LINE
  8
0
 10
23.5
 20
24
 11
23.4235
 21
23.2723
  0
LINE
  8
0
 10
23.4235
 20
23.2723
 11
23.1974
 21
22.5764
  0
LINE
  8
0
 10
23.1974
 20
22.5764
 11
22.8316
 21
21.9428
  0
LINE
  8
0
 10
22.8316
 20
21.9428
 11
22.3419
 21
21.399
  0
LINE
  8
0
 10
22.3419
 20
21.399
 11
21.75
 21
20.9689
  0
LINE
  8
0
 10
21.75
 20
20.9689
 11
21.0816
 21
20.6713
  0
LINE
  8
0
 10
21.0816
 20
20.6713
 11
20.3658
 21
20.5192
  0
LINE
  8
0
 10
20.3658
 20
20.5192
 11
19.6342
 21
20.5192
  0
LINE
  8
0
 10
14.5961
 20
14.3311
 11
14.4966
 21
14.3634
  0
LINE
  8
0
 10
14.4966
 20
14.3634
 11
14.4061
 21
14.4156
  0
LINE
  8
0
 10
14.4061
 20
14.4156
 11
14.3284
 21
14.4856
  0
LINE
  8
0
 10
14.3284
 20
14.4856
 11
14.267
 21
14.5701
  0
LINE
  8
0
 10
14.267
 20
14.5701
 11
14.2245
 21
14.6656
  0
LINE
  8
0
 10
14.2245
 20
14.6656
 11
14.2027
 21
14.7679
  0
LINE
  8
0
 10
14.2027
 20
14.7679
 11
14.2027
 21
14.8724
  0
LINE
  8
0
 10
14.2027
 20
14.8724
 11
14.2245
 21
14.9746
  0
LINE
  8
0
 10
14.2245
 20
14.9746
 11
14.267
 21
15.0701
  0
LINE
  8
0
 10
14.267
 20
15.0701
 11
14.3284
 21
15.1547
  0
LINE
  8
0
 10
14.3284
 20
15.1547
 11
14.4061
 21
15.2246
  0
LINE
  8
0
 10
14.4061
 20
15.2246
 11
14.4966
 21
15.2769
  0
LINE
  8
0
 10
14.4966
 20
15.2769
 11
14.5961
 21
15.3092
  0
LINE
  8
0
 10
14.5961
 20
15.3092
 11
14.7
 21
15.3201
  0
LINE
  8
0
 10
14.7
 20
15.3201
 11
14.804
 21
15.3092
  0
LINE
  8
0
 10
14.804
 20
15.3092
 11
14.9034
 21
15.2769
  0
LINE
  8
0
 10
14.9034
 20
15.2769
 11
14.9939
 21
15.2246
  0
LINE
  8
0
 10
14.9939
 20
15.2246
 11
15.0716
 21
15.1547
  0
LINE
  8
0
 10
15.0716
 20
15.1547
 11
15.133
 21
15.0701
  0
LINE
  8
0
 10
15.133
 20
15.0701
 11
15.1755
 21
14.9746
  0
LINE
  8
0
 10
15.1755
 20
14.9746
 11
15.1973
 21
14.8724
  0
LINE
  8
0
 10
15.1973
 20
14.8724
 11
15.1973
 21
14.7679
  0
LINE
  8
0
 10
15.1973
 20
14.7679
 11
15.1755
 21
14.6656
  0
LINE
  8
0
 10
15.1755
 20
14.6656
 11
15.133
 21
14.5701
  0
LINE
  8
0
 10
15.133
 20
14.5701
 11
15.0716
 21
14.4856
  0
LINE
  8
0
 10
15.0716
 20
14.4856
 11
14.9939
 21
14.4156
  0
LINE
  8
0
 10
14.9939
 20
14.4156
 11
14.9034
 21
14.3634
  0
LINE
  8
0
 10
14.9034
 20
14.3634
 11
14.804
 21
14.3311
  0
LINE
  8
0
 10
14.804
 20
14.3311
 11
14.7
 21
14.3201
  0
LINE
  8
0
 10
14.7
 20
14.3201
 11
14.5961
 21
14.3311
  0
LINE
  8
0
 10
19.9164
 20
5.70439
 11
19.7528
 21
5.73917
  0
LINE
  8
0
 10
19.7528
 20
5.73917
 11
19.6
 21
5.80719
  0
LINE
  8
0
 10
19.6
 20
5.80719
 11
19.4647
 21
5.90549
  0
LINE
  8
0
 10
19.4647
 20
5.90549
 11
19.3528
 21
6.02979
  0
LINE
  8
0
 10
19.3528
 20
6.02979
 11
19.2692
 21
6.17462
  0
LINE
  8
0
 10
19.2692
 20
6.17462
 11
19.2175
 21
6.33368
  0
LINE
  8
0
 10
19.2175
 20
6.33368
 11
19.2
 21
6.5
  0
LINE
  8
0
 10
19.2
 20
6.5
 11
19.2175
 21
6.66634
  0
LINE
  8
0
 10
19.2175
 20
6.66634
 11
19.2692
 21
6.82539
  0
LINE
  8
0
 10
19.2692
 20
6.82539
 11
19.3528
 21
6.97023
  0
LINE
  8
0
 10
19.3528
 20
6.97023
 11
19.4647
 21
7.09453
  0
LINE
  8
0
 10
19.4647
 20
7.09453
 11
19.6
 21
7.19283
  0
LINE
  8
0
 10
19.6
 20
7.19283
 11
19.7528
 21
7.26085
  0
LINE
  8
0
 10
19.7528
 20
7.26085
 11
19.9164
 21
7.29562
  0
LINE
  8
0
 10
19.9164
 20
7.29562
 11
20.0836
 21
7.29562
  0
LINE
  8
0
 10
20.0836
 20
7.29562
 11
20.2472
 21
7.26085
  0
LINE
  8
0
 10
20.2472
 20
7.26085
 11
20.4
 21
7.19283
  0
LINE
  8
0
 10
20.4
 20
7.19283
 11
20.5353
 21
7.09453
  0
LINE
  8
0
 10
20.5353
 20
7.09453
 11
20.6472
 21
6.97023
  0
LINE
  8
0
 10
20.6472
 20
6.97023
 11
20.7308
 21
6.82539
  0
LINE
  8
0
 10
20.7308
 20
6.82539
 11
20.7825
 21
6.66634
  0
LINE
  8
0
 10
20.7825
 20
6.66634
 11
20.8
 21
6.5
  0
LINE
  8
0
 10
20.8
 20
6.5
 11
20.7825
 21
6.33368
  0
LINE
  8
0
 10
20.7825
 20
6.33368
 11
20.7308
 21
6.17462
  0
LINE
  8
0
 10
20.7308
 20
6.17462
 11
20.6472
 21
6.02979
  0
LINE
  8
0
 10
20.6472
 20
6.02979
 11
20.5353
 21
5.90549
  0
LINE
  8
0
 10
20.5353
 20
5.90549
 11
20.4
 21
5.80719
  0
LINE
  8
0
 10
20.4
 20
5.80719
 11
20.2472
 21
5.73917
  0
LINE
  8
0
 10
20.2472
 20
5.73917
 11
20.0836
 21
5.70439
  0
LINE
  8
0
 10
20.0836
 20
5.70439
 11
19.9164
 21
5.70439
  0
LINE
  8
0
 10
19.399
 20
-18.4185
 11
18.2232
 21
-18.1686
  0
LINE
  8
0
 10
18.2232
 20
-18.1686
 11
17.125
 21
-17.6796
  0
LINE
  8
0
 10
17.125
 20
-17.6796
 11
16.1525
 21
-16.9731
  0
LINE
  8
0
 10
16.1525
 20
-16.9731
 11
15.3482
 21
-16.0798
  0
LINE
  8
0
 10
15.3482
 20
-16.0798
 11
14.7471
 21
-15.0387
  0
LINE
  8
0
 10
14.7471
 20
-15.0387
 11
14.3757
 21
-13.8955
  0
LINE
  8
0
 10
14.3757
 20
-13.8955
 11
14.25
 21
-12.7
  0
LINE
  8
0
 10
14.25
 20
-12.7
 11
14.3757
 21
-11.5045
  0
LINE
  8
0
 10
14.3757
 20
-11.5045
 11
14.7471
 21
-10.3613
  0
LINE
  8
0
 10
14.7471
 20
-10.3613
 11
15.3482
 21
-9.32024
  0
LINE
  8
0
 10
15.3482
 20
-9.32024
 11
16.1525
 21
-8.42691
  0
LINE
  8
0
 10
16.1525
 20
-8.42691
 11
17.125
 21
-7.72035
  0
LINE
  8
0
 10
17.125
 20
-7.72035
 11
17.5
 21
-7.55339
  0
LINE
  8
0
 10
17.5
 20
-7.55339
 11
17.5
 21
-6.7
  0
LINE
  8
0
 10
17.5
 20
-6.7
 11
17.5546
 21
-6.18022
  0
LINE
  8
0
 10
17.5546
 20
-6.18022
 11
17.7161
 21
-5.68315
  0
LINE
  8
0
 10
17.7161
 20
-5.68315
 11
17.9775
 21
-5.23053
  0
LINE
  8
0
 10
17.9775
 20
-5.23053
 11
18.3272
 21
-4.84213
  0
LINE
  8
0
 10
18.3272
 20
-4.84213
 11
18.75
 21
-4.53493
  0
LINE
  8
0
 10
18.75
 20
-4.53493
 11
19.2275
 21
-4.32236
  0
LINE
  8
0
 10
19.2275
 20
-4.32236
 11
19.7387
 21
-4.21368
  0
LINE
  8
0
 10
19.7387
 20
-4.21368
 11
20.2613
 21
-4.21368
  0
LINE
  8
0
 10
20.2613
 20
-4.21368
 11
20.7725
 21
-4.32236
  0
LINE
  8
0
 10
20.7725
 20
-4.32236
 11
21.25
 21
-4.53493
  0
LINE
  8
0
 10
21.25
 20
-4.53493
 11
21.6728
 21
-4.84213
  0
LINE
  8
0
 10
21.6728
 20
-4.84213
 11
22.0225
 21
-5.23053
  0
LINE
  8
0
 10
22.0225
 20
-5.23053
 11
22.2839
 21
-5.68315
  0
LINE
  8
0
 10
22.2839
 20
-5.68315
 11
22.4454
 21
-6.18022
  0
LINE
  8
0
 10
22.4454
 20
-6.18022
 11
22.5
 21
-6.7
  0
LINE
  8
0
 10
22.5
 20
-6.7
 11
22.5
 21
-7.55339
  0
LINE
  8
0
 10
22.5
 20
-7.55339
 11
22.875
 21
-7.72035
  0
LINE
  8
0
 10
22.875
 20
-7.72035
 11
23.8475
 21
-8.42691
  0
LINE
  8
0
 10
23.8475
 20
-8.42691
 11
24.6518
 21
-9.32024
  0
LINE
  8
0
 10
24.6518
 20
-9.32024
 11
25.2529
 21
-10.3613
  0
LINE
  8
0
 10
25.2529
 20
-10.3613
 11
25.6243
 21
-11.5045
  0
LINE
  8
0
 10
25.6243
 20
-11.5045
 11
25.75
 21
-12.7
  0
LINE
  8
0
 10
25.75
 20
-12.7
 11
25.6243
 21
-13.8955
  0
LINE
  8
0
 10
25.6243
 20
-13.8955
 11
25.2529
 21
-15.0387
  0
LINE
  8
0
 10
25.2529
 20
-15.0387
 11
24.6518
 21
-16.0798
  0
LINE
  8
0
 10
24.6518
 20
-16.0798
 11
23.8475
 21
-16.9731
  0
LINE
  8
0
 10
23.8475
 20
-16.9731
 11
22.875
 21
-17.6796
  0
LINE
  8
0
 10
22.875
 20
-17.6796
 11
21.7768
 21
-18.1686
  0
LINE
  8
0
 10
21.7768
 20
-18.1686
 11
20.601
 21
-18.4185
  0
LINE
  8
0
 10
20.601
 20
-18.4185
 11
19.399
 21
-18.4185
  0
LINE
  8
0
 10
19.9164
 20
-21.9956
 11
19.7528
 21
-21.9608
  0
LINE
  8
0
 10
19.7528
 20
-21.9608
 11
19.6
 21
-21.8928
  0
LINE
  8
0
 10
19.6
 20
-21.8928
 11
19.4647
 21
-21.7945
  0
LINE
  8
0
 10
19.4647
 20
-21.7945
 11
19.3528
 21
-21.6702
  0
LINE
  8
0
 10
19.3528
 20
-21.6702
 11
19.2692
 21
-21.5254
  0
LINE
  8
0
 10
19.2692
 20
-21.5254
 11
19.2175
 21
-21.3663
  0
LINE
  8
0
 10
19.2175
 20
-21.3663
 11
19.2
 21
-21.2
  0
LINE
  8
0
 10
19.2
 20
-21.2
 11
19.2175
 21
-21.0337
  0
LINE
  8
0
 10
19.2175
 20
-21.0337
 11
19.2692
 21
-20.8746
  0
LINE
  8
0
 10
19.2692
 20
-20.8746
 11
19.3528
 21
-20.7298
  0
LINE
  8
0
 10
19.3528
 20
-20.7298
 11
19.4647
 21
-20.6055
  0
LINE
  8
0
 10
19.4647
 20
-20.6055
 11
19.6
 21
-20.5072
  0
LINE
  8
0
 10
19.6
 20
-20.5072
 11
19.7528
 21
-20.4391
  0
LINE
  8
0
 10
19.7528
 20
-20.4391
 11
19.9164
 21
-20.4044
  0
LINE
  8
0
 10
19.9164
 20
-20.4044
 11
20.0836
 21
-20.4044
  0
LINE
  8
0
 10
20.0836
 20
-20.4044
 11
20.2472
 21
-20.4391
  0
LINE
  8
0
 10
20.2472
 20
-20.4391
 11
20.4
 21
-20.5072
  0
LINE
  8
0
 10
20.4
 20
-20.5072
 11
20.5353
 21
-20.6055
  0
LINE
  8
0
 10
20.5353
 20
-20.6055
 11
20.6472
 21
-20.7298
  0
LINE
  8
0
 10
20.6472
 20
-20.7298
 11
20.7308
 21
-20.8746
  0
LINE
  8
0
 10
20.7308
 20
-20.8746
 11
20.7825
 21
-21.0337
  0
LINE
  8
0
 10
20.7825
 20
-21.0337
 11
20.8
 21
-21.2
  0
LINE
  8
0
 10
20.8
 20
-21.2
 11
20.7825
 21
-21.3663
  0
LINE
  8
0
 10
20.7825
 20
-21.3663
 11
20.7308
 21
-21.5254
  0
LINE
  8
0
 10
20.7308
 20
-21.5254
 11
20.6472
 21
-21.6702
  0
LINE
  8
0
 10
20.6472
 20
-21.6702
 11
20.5353
 21
-21.7945
  0
LINE
  8
0
 10
20.5353
 20
-21.7945
 11
20.4
 21
-21.8928
  0
LINE
  8
0
 10
20.4
 20
-21.8928
 11
20.2472
 21
-21.9608
  0
LINE
  8
0
 10
20.2472
 20
-21.9608
 11
20.0836
 21
-21.9956
  0
LINE
  8
0
 10
20.0836
 20
-21.9956
 11
19.9164
 21
-21.9956
  0
LINE
  8
0
 10
-11
 20
-23.689
 11
-10.791
 21
-23.689
  0
LINE
  8
0
 10
-10.791
 20
-23.689
 11
-10.382
 21
-23.6021
  0
LINE
  8
0
 10
-10.382
 20
-23.6021
 11
-10
 21
-23.432
  0
LINE
  8
0
 10
-10
 20
-23.432
 11
-9.66174
 21
-23.1863
  0
LINE
  8
0
 10
-9.66174
 20
-23.1863
 11
-9.38197
 21
-22.8756
  0
LINE
  8
0
 10
-9.38197
 20
-22.8756
 11
-9.17291
 21
-22.5135
  0
LINE
  8
0
 10
-9.17291
 20
-22.5135
 11
-9.04372
 21
-22.1158
  0
LINE
  8
0
 10
-9.04372
 20
-22.1158
 11
-9
 21
-21.7
  0
LINE
  8
0
 10
-9
 20
-21.7
 11
-9.01508
 21
24.5757
  0
LINE
  8
0
 10
-9.01508
 20
24.5757
 11
-9.13544
 21
25.7208
  0
LINE
  8
0
 10
-9.13544
 20
25.7208
 11
-9.37482
 21
26.847
  0
LINE
  8
0
 10
-9.37482
 20
26.847
 11
-9.73062
 21
27.942
  0
LINE
  8
0
 10
-9.73062
 20
27.942
 11
-10.1989
 21
28.9939
  0
LINE
  8
0
 10
-10.1989
 20
28.9939
 11
-10.7746
 21
29.991
  0
LINE
  8
0
 10
-10.7746
 20
29.991
 11
-11.4514
 21
30.9225
  0
LINE
  8
0
 10
-11.4514
 20
30.9225
 11
-12.2218
 21
31.7782
  0
LINE
  8
0
 10
-12.2218
 20
31.7782
 11
-13.0924
 21
32.5607
  0
LINE
  8
0
 10
-13.0924
 20
32.5607
 11
-14.0412
 21
33.2462
  0
LINE
  8
0
 10
-14.0412
 20
33.2462
 11
-15.0404
 21
33.8184
  0
LINE
  8
0
 10
-15.0404
 20
33.8184
 11
-16.0938
 21
34.2831
  0
LINE
  8
0
 10
-16.0938
 20
34.2831
 11
-17.1901
 21
34.6351
  0
LINE
  8
0
 10
-17.1901
 20
34.6351
 11
-18.3361
 21
34.8734
  0
LINE
  8
0
 10
-18.3361
 20
34.8734
 11
-19.4818
 21
34.9878
  0
LINE
  8
0
 10
-19.4818
 20
34.9878
 11
-20.6524
 21
34.9806
  0
LINE
  8
0
 10
-20.6524
 20
34.9806
 11
-21.8155
 21
34.8491
  0
LINE
  8
0
 10
-21.8155
 20
34.8491
 11
-22.9396
 21
34.5999
  0
LINE
  8
0
 10
-22.9396
 20
34.5999
 11
-24.0315
 21
34.2346
  0
LINE
  8
0
 10
-24.0315
 20
34.2346
 11
-25.0792
 21
33.7571
  0
LINE
  8
0
 10
-25.0792
 20
33.7571
 11
-26.0713
 21
33.1727
  0
LINE
  8
0
 10
-26.0713
 20
33.1727
 11
-26.9969
 21
32.4879
  0
LINE
  8
0
 10
-26.9969
 20
32.4879
 11
-27.8457
 21
31.71
  0
LINE
  8
0
 10
-27.8457
 20
31.71
 11
-28.6087
 21
30.8477
  0
LINE
  8
0
 10
-28.6087
 20
30.8477
 11
-29.2773
 21
29.9103
  0
LINE
  8
0
 10
-29.2773
 20
29.9103
 11
-29.8443
 21
28.9082
  0
LINE
  8
0
 10
-29.8443
 20
28.9082
 11
-30.3034
 21
27.8523
  0
LINE
  8
0
 10
-30.3034
 20
27.8523
 11
-30.6496
 21
26.7542
  0
LINE
  8
0
 10
-30.6496
 20
26.7542
 11
-30.8792
 21
25.6259
  0
LINE
  8
0
 10
-30.8792
 20
25.6259
 11
-30.9895
 21
24.4798
  0
LINE
  8
0
 10
-30.9895
 20
24.4798
 11
-31
 21
24
  0
LINE
  8
0
 10
-31
 20
24
 11
-31
 21
-21.7
  0
LINE
  8
0
 10
-31
 20
-21.7
 11
-30.9563
 21
-22.1158
  0
LINE
  8
0
 10
-30.9563
 20
-22.1158
 11
-30.8271
 21
-22.5135
  0
LINE
  8
0
 10
-30.8271
 20
-22.5135
 11
-30.618
 21
-22.8756
  0
LINE
  8
0
 10
-30.618
 20
-22.8756
 11
-30.3383
 21
-23.1863
  0
LINE
  8
0
 10
-30.3383
 20
-23.1863
 11
-30
 21
-23.432
  0
LINE
  8
0
 10
-30
 20
-23.432
 11
-29.618
 21
-23.6021
  0
LINE
  8
0
 10
-29.618
 20
-23.6021
 11
-29.209
 21
-23.689
  0
LINE
  8
0
 10
-29.209
 20
-23.689
 11
-29
 21
-23.689
  0
LINE
  8
0
 10
-29
 20
-23.689
 11
-29
 21
-23.7
  0
LINE
  8
0
 10
-29
 20
-23.7
 11
-11
 21
-23.7
  0
LINE
  8
0
 10
-11
 20
-23.7
 11
-11
 21
-23.689
  0
LINE
  8
0
 10
-20.3658
 20
20.5192
 11
-21.0816
 21
20.6713
  0
LINE
  8
0
 10
-21.0816
 20
20.6713
 11
-21.75
 21
20.9689
  0
LINE
  8
0
 10
-21.75
 20
20.9689
 11
-22.3419
 21
21.399
  0
LINE
  8
0
 10
-22.3419
 20
21.399
 11
-22.8316
 21
21.9428
  0
LINE
  8
0
 10
-22.8316
 20
21.9428
 11
-23.1974
 21
22.5764
  0
LINE
  8
0
 10
-23.1974
 20
22.5764
 11
-23.4235
 21
23.2723
  0
LINE
  8
0
 10
-23.4235
 20
23.2723
 11
-23.5
 21
24
  0
LINE
  8
0
 10
-23.5
 20
24
 11
-23.4235
 21
24.7277
  0
LINE
  8
0
 10
-23.4235
 20
24.7277
 11
-23.1974
 21
25.4236
  0
LINE
  8
0
 10
-23.1974
 20
25.4236
 11
-22.8316
 21
26.0572
  0
LINE
  8
0
 10
-22.8316
 20
26.0572
 11
-22.3419
 21
26.601
  0
LINE
  8
0
 10
-22.3419
 20
26.601
 11
-21.75
 21
27.0311
  0
LINE
  8
0
 10
-21.75
 20
27.0311
 11
-21.0816
 21
27.3287
  0
LINE
  8
0
 10
-21.0816
 20
27.3287
 11
-20.3658
 21
27.4808
  0
LINE
  8
0
 10
-20.3658
 20
27.4808
 11
-19.6342
 21
27.4808
  0
LINE
  8
0
 10
-19.6342
 20
27.4808
 11
-18.9184
 21
27.3287
  0
LINE
  8
0
 10
-18.9184
 20
27.3287
 11
-18.25
 21
27.0311
  0
LINE
  8
0
 10
-18.25
 20
27.0311
 11
-17.6581
 21
26.601
  0
LINE
  8
0
 10
-17.6581
 20
26.601
 11
-17.1684
 21
26.0572
  0
LINE
  8
0
 10
-17.1684
 20
26.0572
 11
-16.8026
 21
25.4236
  0
LINE
  8
0
 10
-16.8026
 20
25.4236
 11
-16.5765
 21
24.7277
  0
LINE
  8
0
 10
-16.5765
 20
24.7277
 11
-16.5
 21
24
  0
LINE
  8
0
 10
-16.5
 20
24
 11
-16.5765
 21
23.2723
  0
LINE
  8
0
 10
-16.5765
 20
23.2723
 11
-16.8026
 21
22.5764
  0
LINE
  8
0
 10
-16.8026
 20
22.5764
 11
-17.1684
 21
21.9428
  0
LINE
  8
0
 10
-17.1684
 20
21.9428
 11
-17.6581
 21
21.399
  0
LINE
  8
0
 10
-17.6581
 20
21.399
 11
-18.25
 21
20.9689
  0
LINE
  8
0
 10
-18.25
 20
20.9689
 11
-18.9184
 21
20.6713
  0
LINE
  8
0
 10
-18.9184
 20
20.6713
 11
-19.6342
 21
20.5192
  0
LINE
  8
0
 10
-19.6342
 20
20.5192
 11
-20.3658
 21
20.5192
  0
LINE
  8
0
 10
-25.4039
 20
14.3311
 11
-25.5034
 21
14.3634
  0
LINE
  8
0
 10
-25.5034
 20
14.3634
 11
-25.5939
 21
14.4156
  0
LINE
  8
0
 10
-25.5939
 20
14.4156
 11
-25.6716
 21
14.4856
  0
LINE
  8
0
 10
-25.6716
 20
14.4856
 11
-25.733
 21
14.5701
  0
LINE
  8
0
 10
-25.733
 20
14.5701
 11
-25.7755
 21
14.6656
  0
LINE
  8
0
 10
-25.7755
 20
14.6656
 11
-25.7973
 21
14.7679
  0
LINE
  8
0
 10
-25.7973
 20
14.7679
 11
-25.7973
 21
14.8724
  0
LINE
  8
0
 10
-25.7973
 20
14.8724
 11
-25.7755
 21
14.9746
  0
LINE
  8
0
 10
-25.7755
 20
14.9746
 11
-25.733
 21
15.0701
  0
LINE
  8
0
 10
-25.733
 20
15.0701
 11
-25.6716
 21
15.1547
  0
LINE
  8
0
 10
-25.6716
 20
15.1547
 11
-25.5939
 21
15.2246
  0
LINE
  8
0
 10
-25.5939
 20
15.2246
 11
-25.5034
 21
15.2769
  0
LINE
  8
0
 10
-25.5034
 20
15.2769
 11
-25.4039
 21
15.3092
  0
LINE
  8
0
 10
-25.4039
 20
15.3092
 11
-25.3
 21
15.3201
  0
LINE
  8
0
 10
-25.3
 20
15.3201
 11
-25.196
 21
15.3092
  0
LINE
  8
0
 10
-25.196
 20
15.3092
 11
-25.0966
 21
15.2769
  0
LINE
  8
0
 10
-25.0966
 20
15.2769
 11
-25.0061
 21
15.2246
  0
LINE
  8
0
 10
-25.0061
 20
15.2246
 11
-24.9284
 21
15.1547
  0
LINE
  8
0
 10
-24.9284
 20
15.1547
 11
-24.867
 21
15.0701
  0
LINE
  8
0
 10
-24.867
 20
15.0701
 11
-24.8245
 21
14.9746
  0
LINE
  8
0
 10
-24.8245
 20
14.9746
 11
-24.8027
 21
14.8724
  0
LINE
  8
0
 10
-24.8027
 20
14.8724
 11
-24.8027
 21
14.7679
  0
LINE
  8
0
 10
-24.8027
 20
14.7679
 11
-24.8245
 21
14.6656
  0
LINE
  8
0
 10
-24.8245
 20
14.6656
 11
-24.867
 21
14.5701
  0
LINE
  8
0
 10
-24.867
 20
14.5701
 11
-24.9284
 21
14.4856
  0
LINE
  8
0
 10
-24.9284
 20
14.4856
 11
-25.0061
 21
14.4156
  0
LINE
  8
0
 10
-25.0061
 20
14.4156
 11
-25.0966
 21
14.3634
  0
LINE
  8
0
 10
-25.0966
 20
14.3634
 11
-25.196
 21
14.3311
  0
LINE
  8
0
 10
-25.196
 20
14.3311
 11
-25.3
 21
14.3201
  0
LINE
  8
0
 10
-25.3
 20
14.3201
 11
-25.4039
 21
14.3311
  0
LINE
  8
0
 10
-20.0836
 20
5.70439
 11
-20.2472
 21
5.73917
  0
LINE
  8
0
 10
-20.2472
 20
5.73917
 11
-20.4
 21
5.80719
  0
LINE
  8
0
 10
-20.4
 20
5.80719
 11
-20.5353
 21
5.90549
  0
LINE
  8
0
 10
-20.5353
 20
5.90549
 11
-20.6472
 21
6.02979
  0
LINE
  8
0
 10
-20.6472
 20
6.02979
 11
-20.7308
 21
6.17462
  0
LINE
  8
0
 10
-20.7308
 20
6.17462
 11
-20.7825
 21
6.33368
  0
LINE
  8
0
 10
-20.7825
 20
6.33368
 11
-20.8
 21
6.5
  0
LINE
  8
0
 10
-20.8
 20
6.5
 11
-20.7825
 21
6.66634
  0
LINE
  8
0
 10
-20.7825
 20
6.66634
 11
-20.7308
 21
6.82539
  0
LINE
  8
0
 10
-20.7308
 20
6.82539
 11
-20.6472
 21
6.97023
  0
LINE
  8
0
 10
-20.6472
 20
6.97023
 11
-20.5353
 21
7.09453
  0
LINE
  8
0
 10
-20.5353
 20
7.09453
 11
-20.4
 21
7.19283
  0
LINE
  8
0
 10
-20.4
 20
7.19283
 11
-20.2472
 21
7.26085
  0
LINE
  8
0
 10
-20.2472
 20
7.26085
 11
-20.0836
 21
7.29562
  0
LINE
  8
0
 10
-20.0836
 20
7.29562
 11
-19.9164
 21
7.29562
  0
LINE
  8
0
 10
-19.9164
 20
7.29562
 11
-19.7528
 21
7.26085
  0
LINE
  8
0
 10
-19.7528
 20
7.26085
 11
-19.6
 21
7.19283
  0
LINE
  8
0
 10
-19.6
 20
7.19283
 11
-19.4647
 21
7.09453
  0
LINE
  8
0
 10
-19.4647
 20
7.09453
 11
-19.3528
 21
6.97023
  0
LINE
  8
0
 10
-19.3528
 20
6.97023
 11
-19.2692
 21
6.82539
  0
LINE
  8
0
 10
-19.2692
 20
6.82539
 11
-19.2175
 21
6.66634
  0
LINE
  8
0
 10
-19.2175
 20
6.66634
 11
-19.2
 21
6.5
  0
LINE
  8
0
 10
-19.2
 20
6.5
 11
-19.2175
 21
6.33368
  0
LINE
  8
0
 10
-19.2175
 20
6.33368
 11
-19.2692
 21
6.17462
  0
LINE
  8
0
 10
-19.2692
 20
6.17462
 11
-19.3528
 21
6.02979
  0
LINE
  8
0
 10
-19.3528
 20
6.02979
 11
-19.4647
 21
5.90549
  0
LINE
  8
0
 10
-19.4647
 20
5.90549
 11
-19.6
 21
5.80719
  0
LINE
  8
0
 10
-19.6
 20
5.80719
 11
-19.7528
 21
5.73917
  0
LINE
  8
0
 10
-19.7528
 20
5.73917
 11
-19.9164
 21
5.70439
  0
LINE
  8
0
 10
-19.9164
 20
5.70439
 11
-20.0836
 21
5.70439
  0
LINE
  8
0
 10
-20.601
 20
-18.4185
 11
-21.7768
 21
-18.1686
  0
LINE
  8
0
 10
-21.7768
 20
-18.1686
 11
-22.875
 21
-17.6796
  0
LINE
  8
0
 10
-22.875
 20
-17.6796
 11
-23.8475
 21
-16.9731
  0
LINE
  8
0
 10
-23.8475
 20
-16.9731
 11
-24.6518
 21
-16.0798
  0
LINE
  8
0
 10
-24.6518
 20
-16.0798
 11
-25.2529
 21
-15.0387
  0
LINE
  8
0
 10
-25.2529
 20
-15.0387
 11
-25.6243
 21
-13.8955
  0
LINE
  8
0
 10
-25.6243
 20
-13.8955
 11
-25.75
 21
-12.7
  0
LINE
  8
0
 10
-25.75
 20
-12.7
 11
-25.6243
 21
-11.5045
  0
LINE
  8
0
 10
-25.6243
 20
-11.5045
 11
-25.2529
 21
-10.3613
  0
LINE
  8
0
 10
-25.2529
 20
-10.3613
 11
-24.6518
 21
-9.32024
  0
LINE
  8
0
 10
-24.6518
 20
-9.32024
 11
-23.8475
 21
-8.42691
  0
LINE
  8
0
 10
-23.8475
 20
-8.42691
 11
-22.875
 21
-7.72035
  0
LINE
  8
0
 10
-22.875
 20
-7.72035
 11
-22.5
 21
-7.55339
  0
LINE
  8
0
 10
-22.5
 20
-7.55339
 11
-22.5
 21
-6.7
  0
LINE
  8
0
 10
-22.5
 20
-6.7
 11
-22.4454
 21
-6.18022
  0
LINE
  8
0
 10
-22.4454
 20
-6.18022
 11
-22.2839
 21
-5.68315
  0
LINE
  8
0
 10
-22.2839
 20
-5.68315
 11
-22.0225
 21
-5.23053
  0
LINE
  8
0
 10
-22.0225
 20
-5.23053
 11
-21.6728
 21
-4.84213
  0
LINE
  8
0
 10
-21.6728
 20
-4.84213
 11
-21.25
 21
-4.53493
  0
LINE
  8
0
 10
-21.25
 20
-4.53493
 11
-20.7725
 21
-4.32236
  0
LINE
  8
0
 10
-20.7725
 20
-4.32236
 11
-20.2613
 21
-4.21368
  0
LINE
  8
0
 10
-20.2613
 20
-4.21368
 11
-19.7387
 21
-4.21368
  0
LINE
  8
0
 10
-19.7387
 20
-4.21368
 11
-19.2275
 21
-4.32236
  0
LINE
  8
0
 10
-19.2275
 20
-4.32236
 11
-18.75
 21
-4.53493
  0
LINE
  8
0
 10
-18.75
 20
-4.53493
 11
-18.3272
 21
-4.84213
  0
LINE
  8
0
 10
-18.3272
 20
-4.84213
 11
-17.9775
 21
-5.23053
  0
LINE
  8
0
 10
-17.9775
 20
-5.23053
 11
-17.7161
 21
-5.68315
  0
LINE
  8
0
 10
-17.7161
 20
-5.68315
 11
-17.5546
 21
-6.18022
  0
LINE
  8
0
 10
-17.5546
 20
-6.18022
 11
-17.5
 21
-6.7
  0
LINE
  8
0
 10
-17.5
 20
-6.7
 11
-17.5
 21
-7.55339
  0
LINE
  8
0
 10
-17.5
 20
-7.55339
 11
-17.125
 21
-7.72035
  0
LINE
  8
0
 10
-17.125
 20
-7.72035
 11
-16.1525
 21
-8.42691
  0
LINE
  8
0
 10
-16.1525
 20
-8.42691
 11
-15.3482
 21
-9.32024
  0
LINE
  8
0
 10
-15.3482
 20
-9.32024
 11
-14.7471
 21
-10.3613
  0
LINE
  8
0
 10
-14.7471
 20
-10.3613
 11
-14.3757
 21
-11.5045
  0
LINE
  8
0
 10
-14.3757
 20
-11.5045
 11
-14.25
 21
-12.7
  0
LINE
  8
0
 10
-14.25
 20
-12.7
 11
-14.3757
 21
-13.8955
  0
LINE
  8
0
 10
-14.3757
 20
-13.8955
 11
-14.7471
 21
-15.0387
  0
LINE
  8
0
 10
-14.7471
 20
-15.0387
 11
-15.3482
 21
-16.0798
  0
LINE
  8
0
 10
-15.3482
 20
-16.0798
 11
-16.1525
 21
-16.9731
  0
LINE
  8
0
 10
-16.1525
 20
-16.9731
 11
-17.125
 21
-17.6796
  0
LINE
  8
0
 10
-17.125
 20
-17.6796
 11
-18.2232
 21
-18.1686
  0
LINE
  8
0
 10
-18.2232
 20
-18.1686
 11
-19.399
 21
-18.4185
  0
LINE
  8
0
 10
-19.399
 20
-18.4185
 11
-20.601
 21
-18.4185
  0
LINE
  8
0
 10
-20.0836
 20
-21.9956
 11
-20.2472
 21
-21.9608
  0
LINE
  8
0
 10
-20.2472
 20
-21.9608
 11
-20.4
 21
-21.8928
  0
LINE
  8
0
 10
-20.4
 20
-21.8928
 11
-20.5353
 21
-21.7945
  0
LINE
  8
0
 10
-20.5353
 20
-21.7945
 11
-20.6472
 21
-21.6702
  0
LINE
  8
0
 10
-20.6472
 20
-21.6702
 11
-20.7308
 21
-21.5254
  0
LINE
  8
0
 10
-20.7308
 20
-21.5254
 11
-20.7825
 21
-21.3663
  0
LINE
  8
0
 10
-20.7825
 20
-21.3663
 11
-20.8
 21
-21.2
  0
LINE
  8
0
 10
-20.8
 20
-21.2
 11
-20.7825
 21
-21.0337
  0
LINE
  8
0
 10
-20.7825
 20
-21.0337
 11
-20.7308
 21
-20.8746
  0
LINE
  8
0
 10
-20.7308
 20
-20.8746
 11
-20.6472
 21
-20.7298
  0
LINE
  8
0
 10
-20.6472
 20
-20.7298
 11
-20.5353
 21
-20.6055
  0
LINE
  8
0
 10
-20.5353
 20
-20.6055
 11
-20.4
 21
-20.5072
  0
LINE
  8
0
 10
-20.4
 20
-20.5072
 11
-20.2472
 21
-20.4391
  0
LINE
  8
0
 10
-20.2472
 20
-20.4391
 11
-20.0836
 21
-20.4044
  0
LINE
  8
0
 10
-20.0836
 20
-20.4044
 11
-19.9164
 21
-20.4044
  0
LINE
  8
0
 10
-19.9164
 20
-20.4044
 11
-19.7528
 21
-20.4391
  0
LINE
  8
0
 10
-19.7528
 20
-20.4391
 11
-19.6
 21
-20.5072
  0
LINE
  8
0
 10
-19.6
 20
-20.5072
 11
-19.4647
 21
-20.6055
  0
LINE
  8
0
 10
-19.4647
 20
-20.6055
 11
-19.3528
 21
-20.7298
  0
LINE
  8
0
 10
-19.3528
 20
-20.7298
 11
-19.2692
 21
-20.8746
  0
LINE
  8
0
 10
-19.2692
 20
-20.8746
 11
-19.2175
 21
-21.0337
  0
LINE
  8
0
 10
-19.2175
 20
-21.0337
 11
-19.2
 21
-21.2
  0
LINE
  8
0
 10
-19.2
 20
-21.2
 11
-19.2175
 21
-21.3663
  0
LINE
  8
0
 10
-19.2175
 20
-21.3663
 11
-19.2692
 21
-21.5254
  0
LINE
  8
0
 10
-19.2692
 20
-21.5254
 11
-19.3528
 21
-21.6702
  0
LINE
  8
0
 10
-19.3528
 20
-21.6702
 11
-19.4647
 21
-21.7945
  0
LINE
  8
0
 10
-19.4647
 20
-21.7945
 11
-19.6
 21
-21.8928
  0
LINE
  8
0
 10
-19.6
 20
-21.8928
 11
-19.7528
 21
-21.9608
  0
LINE
  8
0
 10
-19.7528
 20
-21.9608
 11
-19.9164
 21
-21.9956
  0
LINE
  8
0
 10
-19.9164
 20
-21.9956
 11
-20.0836
 21
-21.9956
  0
ENDSEC
  0
SECTION
  2
OBJECTS
  0
DICTIONARY
  0
ENDSEC
  0
EOF
