<?xml version="1.0" standalone="no"?>
<!DOCTYPE svg PUBLIC "-//W3C//DTD SVG 1.1//EN" "http://www.w3.org/Graphics/SVG/1.1/DTD/svg11.dtd">
<svg width="193" height="178" viewBox="-95 -154 193 178" xmlns="http://www.w3.org/2000/svg" version="1.1">
<title>OpenSCAD Model</title>
<path d="
M -19.3476,-95.0194 L -18.1845,-95.1509 L -17.0604,-95.4001 L -15.9685,-95.7654 L -14.9208,-96.2429 L -13.9287,-96.8273
 L -13.0031,-97.5121 L -12.1543,-98.29 L -11.3913,-99.1523 L -10.7227,-100.09 L -10.1557,-101.092 L -9.69661,-102.148
 L -9.35039,-103.246 L -9.12083,-104.374 L -9.01048,-105.52 L -9,-106 L -9,-151.7 L -9.04372,-152.116
 L -9.17291,-152.513 L -9.38197,-152.876 L -9.66174,-153.186 L -10,-153.432 L -10.382,-153.602 L -10.791,-153.689
 L -11,-153.689 L -11,-153.7 L -29,-153.7 L -29,-153.689 L -29.209,-153.689 L -29.618,-153.602
 L -30,-153.432 L -30.3383,-153.186 L -30.618,-152.876 L -30.8271,-152.513 L -30.9563,-152.116 L -31,-151.7
 L -30.9849,-105.424 L -30.8646,-104.279 L -30.6252,-103.153 L -30.2694,-102.058 L -29.8011,-101.006 L -29.2254,-100.009
 L -28.5486,-99.0775 L -27.7782,-98.2218 L -26.9076,-97.4393 L -25.9588,-96.7538 L -24.9596,-96.1816 L -23.9062,-95.7169
 L -22.8099,-95.3649 L -21.6639,-95.1266 L -20.5182,-95.0122 z
M -20.0836,-150.404 L -20.2472,-150.439 L -20.4,-150.507 L -20.5353,-150.605 L -20.6472,-150.73 L -20.7308,-150.875
 L -20.7825,-151.034 L -20.8,-151.2 L -20.7825,-151.366 L -20.7308,-151.525 L -20.6472,-151.67 L -20.5353,-151.795
 L -20.4,-151.893 L -20.2472,-151.961 L -20.0836,-151.996 L -19.9164,-151.996 L -19.7528,-151.961 L -19.6,-151.893
 L -19.4647,-151.795 L -19.3528,-151.67 L -19.2692,-151.525 L -19.2175,-151.366 L -19.2,-151.2 L -19.2175,-151.034
 L -19.2692,-150.875 L -19.3528,-150.73 L -19.4647,-150.605 L -19.6,-150.507 L -19.7528,-150.439 L -19.9164,-150.404
 z
M -20.2613,-134.214 L -20.7725,-134.322 L -21.25,-134.535 L -21.6728,-134.842 L -22.0225,-135.231 L -22.2839,-135.683
 L -22.4454,-136.18 L -22.5,-136.7 L -22.5,-137.553 L -22.875,-137.72 L -23.8475,-138.427 L -24.6518,-139.32
 L -25.2529,-140.361 L -25.6243,-141.505 L -25.75,-142.7 L -25.6243,-143.895 L -25.2529,-145.039 L -24.6518,-146.08
 L -23.8475,-146.973 L -22.875,-147.68 L -21.7768,-148.169 L -20.601,-148.419 L -19.399,-148.419 L -18.2232,-148.169
 L -17.125,-147.68 L -16.1525,-146.973 L -15.3482,-146.08 L -14.7471,-145.039 L -14.3757,-143.895 L -14.25,-142.7
 L -14.3757,-141.505 L -14.7471,-140.361 L -15.3482,-139.32 L -16.1525,-138.427 L -17.125,-137.72 L -17.5,-137.553
 L -17.5,-136.7 L -17.5546,-136.18 L -17.7161,-135.683 L -17.9775,-135.231 L -18.3272,-134.842 L -18.75,-134.535
 L -19.2275,-134.322 L -19.7387,-134.214 z
M -20.0836,-122.704 L -20.2472,-122.739 L -20.4,-122.807 L -20.5353,-122.905 L -20.6472,-123.03 L -20.7308,-123.175
 L -20.7825,-123.334 L -20.8,-123.5 L -20.7825,-123.666 L -20.7308,-123.825 L -20.6472,-123.97 L -20.5353,-124.095
 L -20.4,-124.193 L -20.2472,-124.261 L -20.0836,-124.296 L -19.9164,-124.296 L -19.7528,-124.261 L -19.6,-124.193
 L -19.4647,-124.095 L -19.3528,-123.97 L -19.2692,-123.825 L -19.2175,-123.666 L -19.2,-123.5 L -19.2175,-123.334
 L -19.2692,-123.175 L -19.3528,-123.03 L -19.4647,-122.905 L -19.6,-122.807 L -19.7528,-122.739 L -19.9164,-122.704
 z
M -14.804,-114.691 L -14.9034,-114.723 L -14.9939,-114.775 L -15.0716,-114.845 L -15.133,-114.93 L -15.1755,-115.025
 L -15.1973,-115.128 L -15.1973,-115.232 L -15.1755,-115.334 L -15.133,-115.43 L -15.0716,-115.514 L -14.9939,-115.584
 L -14.9034,-115.637 L -14.804,-115.669 L -14.7,-115.68 L -14.5961,-115.669 L -14.4966,-115.637 L -14.4061,-115.584
 L -14.3284,-115.514 L -14.267,-115.43 L -14.2245,-115.334 L -14.2027,-115.232 L -14.2027,-115.128 L -14.2245,-115.025
 L -14.267,-114.93 L -14.3284,-114.845 L -14.4061,-114.775 L -14.4966,-114.723 L -14.5961,-114.691 L -14.7,-114.68
 z
M -20.3658,-102.519 L -21.0816,-102.671 L -21.75,-102.969 L -22.3419,-103.399 L -22.8316,-103.943 L -23.1974,-104.576
 L -23.4235,-105.272 L -23.5,-106 L -23.4235,-106.728 L -23.1974,-107.424 L -22.8316,-108.057 L -22.3419,-108.601
 L -21.75,-109.031 L -21.0816,-109.329 L -20.3658,-109.481 L -19.6342,-109.481 L -18.9184,-109.329 L -18.25,-109.031
 L -17.6581,-108.601 L -17.1684,-108.057 L -16.8026,-107.424 L -16.5765,-106.728 L -16.5,-106 L -16.5765,-105.272
 L -16.8026,-104.576 L -17.1684,-103.943 L -17.6581,-103.399 L -18.25,-102.969 L -18.9184,-102.671 L -19.6342,-102.519
 z
M 20.6524,-95.0193 L 21.8155,-95.1508 L 22.9396,-95.4001 L 24.0315,-95.7654 L 25.0792,-96.2429 L 26.0713,-96.8273
 L 26.9969,-97.5121 L 27.8457,-98.29 L 28.6087,-99.1523 L 29.2773,-100.09 L 29.8443,-101.092 L 30.3034,-102.148
 L 30.6496,-103.246 L 30.8792,-104.374 L 30.9895,-105.52 L 31,-106 L 31,-151.7 L 30.9563,-152.116
 L 30.8271,-152.513 L 30.618,-152.876 L 30.3383,-153.186 L 30,-153.432 L 29.618,-153.602 L 29.209,-153.689
 L 29,-153.689 L 29,-153.7 L 11,-153.7 L 11,-153.689 L 10.791,-153.689 L 10.382,-153.602
 L 10,-153.432 L 9.66174,-153.186 L 9.38197,-152.876 L 9.17291,-152.513 L 9.04372,-152.116 L 9,-151.7
 L 9.01508,-105.424 L 9.13544,-104.279 L 9.37482,-103.153 L 9.73062,-102.058 L 10.1989,-101.006 L 10.7746,-100.009
 L 11.4514,-99.0775 L 12.2218,-98.2218 L 13.0924,-97.4393 L 14.0412,-96.7538 L 15.0404,-96.1815 L 16.0938,-95.7169
 L 17.1901,-95.3649 L 18.3361,-95.1266 L 19.4818,-95.0122 z
M 19.9164,-150.404 L 19.7528,-150.439 L 19.6,-150.507 L 19.4647,-150.605 L 19.3528,-150.73 L 19.2692,-150.875
 L 19.2175,-151.034 L 19.2,-151.2 L 19.2175,-151.366 L 19.2692,-151.525 L 19.3528,-151.67 L 19.4647,-151.795
 L 19.6,-151.893 L 19.7528,-151.961 L 19.9164,-151.996 L 20.0836,-151.996 L 20.2472,-151.961 L 20.4,-151.893
 L 20.5353,-151.795 L 20.6472,-151.67 L 20.7308,-151.525 L 20.7825,-151.366 L 20.8,-151.2 L 20.7825,-151.034
 L 20.7308,-150.875 L 20.6472,-150.73 L 20.5353,-150.605 L 20.4,-150.507 L 20.2472,-150.439 L 20.0836,-150.404
 z
M 19.7387,-134.214 L 19.2275,-134.322 L 18.75,-134.535 L 18.3272,-134.842 L 17.9775,-135.231 L 17.7161,-135.683
 L 17.5546,-136.18 L 17.5,-136.7 L 17.5,-137.553 L 17.125,-137.72 L 16.1525,-138.427 L 15.3482,-139.32
 L 14.7471,-140.361 L 14.3757,-141.505 L 14.25,-142.7 L 14.3757,-143.895 L 14.7471,-145.039 L 15.3482,-146.08
 L 16.1525,-146.973 L 17.125,-147.68 L 18.2232,-148.169 L 19.399,-148.419 L 20.601,-148.419 L 21.7768,-148.169
 L 22.875,-147.68 L 23.8475,-146.973 L 24.6518,-146.08 L 25.2529,-145.039 L 25.6243,-143.895 L 25.75,-142.7
 L 25.6243,-141.505 L 25.2529,-140.361 L 24.6518,-139.32 L 23.8475,-138.427 L 22.875,-137.72 L 22.5,-137.553
 L 22.5,-136.7 L 22.4454,-136.18 L 22.2839,-135.683 L 22.0225,-135.231 L 21.6728,-134.842 L 21.25,-134.535
 L 20.7725,-134.322 L 20.2613,-134.214 z
M 19.9164,-122.704 L 19.7528,-122.739 L 19.6,-122.807 L 19.4647,-122.905 L 19.3528,-123.03 L 19.2692,-123.175
 L 19.2175,-123.334 L 19.2,-123.5 L 19.2175,-123.666 L 19.2692,-123.825 L 19.3528,-123.97 L 19.4647,-124.095
 L 19.6,-124.193 L 19.7528,-124.261 L 19.9164,-124.296 L 20.0836,-124.296 L 20.2472,-124.261 L 20.4,-124.193
 L 20.5353,-124.095 L 20.6472,-123.97 L 20.7308,-123.825 L 20.7825,-123.666 L 20.8,-123.5 L 20.7825,-123.334
 L 20.7308,-123.175 L 20.6472,-123.03 L 20.5353,-122.905 L 20.4,-122.807 L 20.2472,-122.739 L 20.0836,-122.704
 z
M 25.196,-114.691 L 25.0966,-114.723 L 25.0061,-114.775 L 24.9284,-114.845 L 24.867,-114.93 L 24.8245,-115.025
 L 24.8027,-115.128 L 24.8027,-115.232 L 24.8245,-115.334 L 24.867,-115.43 L 24.9284,-115.514 L 25.0061,-115.584
 L 25.0966,-115.637 L 25.196,-115.669 L 25.3,-115.68 L 25.4039,-115.669 L 25.5034,-115.637 L 25.5939,-115.584
 L 25.6716,-115.514 L 25.733,-115.43 L 25.7755,-115.334 L 25.7973,-115.232 L 25.7973,-115.128 L 25.7755,-115.025
 L 25.733,-114.93 L 25.6716,-114.845 L 25.5939,-114.775 L 25.5034,-114.723 L 25.4039,-114.691 L 25.3,-114.68
 z
M 19.6342,-102.519 L 18.9184,-102.671 L 18.25,-102.969 L 17.6581,-103.399 L 17.1684,-103.943 L 16.8026,-104.576
 L 16.5765,-105.272 L 16.5,-106 L 16.5765,-106.728 L 16.8026,-107.424 L 17.1684,-108.057 L 17.6581,-108.601
 L 18.25,-109.031 L 18.9184,-109.329 L 19.6342,-109.481 L 20.3658,-109.481 L 21.0816,-109.329 L 21.75,-109.031
 L 22.3419,-108.601 L 22.8316,-108.057 L 23.1974,-107.424 L 23.4235,-106.728 L 23.5,-106 L 23.4235,-105.272
 L 23.1974,-104.576 L 22.8316,-103.943 L 22.3419,-103.399 L 21.75,-102.969 L 21.0816,-102.671 L 20.3658,-102.519
 z
M 31.9627,-67 L 32,-67 L 32,-67.0373 L 70.1421,-105.179 L 70.4053,-105.504 L 70.5951,-105.877
 L 70.7033,-106.281 L 70.7252,-106.698 L 70.6598,-107.111 L 70.5099,-107.502 L 70.2822,-107.852 L 70.1344,-108
 L 70.1421,-108.008 L 57.4142,-120.736 L 57.4065,-120.728 L 57.2586,-120.876 L 56.908,-121.104 L 56.5176,-121.253
 L 56.1047,-121.319 L 55.6871,-121.297 L 55.2833,-121.189 L 54.9107,-120.999 L 54.5858,-120.736 L 26.85,-93
 L 5,-93 L 5,-108 L 4.89075,-109.04 L 4.56773,-110.034 L 4.04509,-110.939 L 3.34566,-111.716
 L 2.5,-112.33 L 1.54509,-112.755 L 0.522644,-112.973 L -0.522644,-112.973 L -1.54507,-112.755 L -2.5,-112.33
 L -3.34564,-111.716 L -4.04507,-110.939 L -4.56772,-110.034 L -4.89073,-109.04 L -5,-108 L -5,-93
 L -26.9,-93 L -54.6358,-120.736 L -54.9607,-120.999 L -55.3333,-121.189 L -55.7371,-121.297 L -56.1547,-121.319
 L -56.5676,-121.253 L -56.958,-121.104 L -57.3086,-120.876 L -57.4565,-120.728 L -57.4642,-120.736 L -70.1921,-108.008
 L -70.1844,-108 L -70.3322,-107.852 L -70.5599,-107.502 L -70.7098,-107.111 L -70.7752,-106.698 L -70.7533,-106.281
 L -70.6451,-105.877 L -70.4553,-105.504 L -70.1921,-105.179 L -32.0084,-66.9957 L -32,-67.004 L -32,-67
 L 31.954,-67 L 31.9584,-66.9957 z
M 39.9487,-99.0276 L 56,-115.079 L 64.4853,-106.594 L 48.4339,-90.5423 z
M -64.5353,-106.594 L -56.05,-115.079 L -39.9987,-99.0276 L -48.4839,-90.5423 z
M 61.8033,-111.831 L 61.6472,-111.891 L 61.5069,-111.982 L 61.3887,-112.101 L 61.2976,-112.241 L 61.2377,-112.397
 L 61.2115,-112.562 L 61.2202,-112.729 L 61.2635,-112.891 L 61.3395,-113.04 L 61.4447,-113.17 L 61.5747,-113.275
 L 61.7237,-113.351 L 61.8853,-113.394 L 62.0523,-113.403 L 62.2175,-113.377 L 62.3736,-113.317 L 62.5139,-113.226
 L 62.6321,-113.108 L 62.7232,-112.967 L 62.7831,-112.811 L 62.8093,-112.646 L 62.8006,-112.479 L 62.7573,-112.317
 L 62.6813,-112.168 L 62.5761,-112.038 L 62.4461,-111.933 L 62.2971,-111.857 L 62.1355,-111.814 L 61.9685,-111.805
 z
M -62.1855,-111.814 L -62.3471,-111.857 L -62.4961,-111.933 L -62.6261,-112.038 L -62.7313,-112.168 L -62.8073,-112.317
 L -62.8506,-112.479 L -62.8593,-112.646 L -62.8331,-112.811 L -62.7732,-112.967 L -62.6821,-113.108 L -62.5639,-113.226
 L -62.4236,-113.317 L -62.2675,-113.377 L -62.1023,-113.403 L -61.9353,-113.394 L -61.7737,-113.351 L -61.6247,-113.275
 L -61.4947,-113.17 L -61.3895,-113.04 L -61.3135,-112.891 L -61.2702,-112.729 L -61.2615,-112.562 L -61.2877,-112.397
 L -61.3476,-112.241 L -61.4387,-112.101 L -61.5569,-111.982 L -61.6972,-111.891 L -61.8533,-111.831 L -62.0185,-111.805
 z
M -0.156784,-106.508 L -0.463516,-106.573 L -0.75,-106.701 L -1.00369,-106.885 L -1.21352,-107.118 L -1.37032,-107.39
 L -1.46721,-107.688 L -1.5,-108 L -1.46721,-108.312 L -1.37032,-108.61 L -1.21352,-108.882 L -1.00369,-109.115
 L -0.75,-109.299 L -0.463516,-109.427 L -0.156784,-109.492 L 0.156799,-109.492 L 0.463531,-109.427 L 0.75,-109.299
 L 1.00371,-109.115 L 1.21353,-108.882 L 1.37033,-108.61 L 1.46722,-108.312 L 1.5,-108 L 1.46722,-107.688
 L 1.37033,-107.39 L 1.21353,-107.118 L 1.00371,-106.885 L 0.75,-106.701 L 0.463531,-106.573 L 0.156799,-106.508
 z
M 42.2165,-92.2445 L 42.0603,-92.3044 L 41.9201,-92.3955 L 41.8018,-92.5137 L 41.7107,-92.654 L 41.6508,-92.8102
 L 41.6246,-92.9753 L 41.6334,-93.1423 L 41.6767,-93.3039 L 41.7526,-93.4529 L 41.8579,-93.5829 L 41.9878,-93.6881
 L 42.1369,-93.7641 L 42.2984,-93.8073 L 42.4654,-93.8161 L 42.6306,-93.7899 L 42.7867,-93.73 L 42.927,-93.6389
 L 43.0453,-93.5206 L 43.1364,-93.3804 L 43.1963,-93.2242 L 43.2224,-93.0591 L 43.2137,-92.8921 L 43.1704,-92.7305
 L 43.0945,-92.5815 L 42.9892,-92.4515 L 42.8593,-92.3463 L 42.7102,-92.2703 L 42.5487,-92.2271 L 42.3817,-92.2183
 z
M -42.5987,-92.2271 L -42.7602,-92.2703 L -42.9093,-92.3463 L -43.0392,-92.4515 L -43.1445,-92.5815 L -43.2204,-92.7305
 L -43.2637,-92.8921 L -43.2724,-93.0591 L -43.2463,-93.2242 L -43.1864,-93.3804 L -43.0953,-93.5206 L -42.977,-93.6389
 L -42.8367,-93.73 L -42.6806,-93.7899 L -42.5154,-93.8161 L -42.3484,-93.8073 L -42.1869,-93.7641 L -42.0378,-93.6881
 L -41.9079,-93.5829 L -41.8026,-93.4529 L -41.7267,-93.3039 L -41.6834,-93.1423 L -41.6746,-92.9753 L -41.7008,-92.8102
 L -41.7607,-92.654 L -41.8518,-92.5137 L -41.9701,-92.3955 L -42.1104,-92.3044 L -42.2665,-92.2445 L -42.4317,-92.2183
 z
M -30.6568,-69.5082 L -30.9635,-69.5734 L -31.25,-69.701 L -31.5037,-69.8853 L -31.7135,-70.1183 L -31.8703,-70.3899
 L -31.9672,-70.6881 L -32,-71 L -31.9672,-71.3119 L -31.8703,-71.6101 L -31.7135,-71.8817 L -31.5037,-72.1147
 L -31.25,-72.299 L -30.9635,-72.4266 L -30.6568,-72.4918 L -30.3432,-72.4918 L -30.0365,-72.4266 L -29.75,-72.299
 L -29.4963,-72.1147 L -29.2865,-71.8817 L -29.1297,-71.6101 L -29.0328,-71.3119 L -29,-71 L -29.0328,-70.6881
 L -29.1297,-70.3899 L -29.2865,-70.1183 L -29.4963,-69.8853 L -29.75,-69.701 L -30.0365,-69.5734 L -30.3432,-69.5082
 z
M 30.3432,-69.5082 L 30.0365,-69.5734 L 29.75,-69.701 L 29.4963,-69.8853 L 29.2865,-70.1183 L 29.1297,-70.3899
 L 29.0328,-70.6881 L 29,-71 L 29.0328,-71.3119 L 29.1297,-71.6101 L 29.2865,-71.8817 L 29.4963,-72.1147
 L 29.75,-72.299 L 30.0365,-72.4266 L 30.3432,-72.4918 L 30.6568,-72.4918 L 30.9635,-72.4266 L 31.25,-72.299
 L 31.5037,-72.1147 L 31.7135,-71.8817 L 31.8703,-71.6101 L 31.9672,-71.3119 L 32,-71 L 31.9672,-70.6881
 L 31.8703,-70.3899 L 31.7135,-70.1183 L 31.5037,-69.8853 L 31.25,-69.701 L 30.9635,-69.5734 L 30.6568,-69.5082
 z
M -82.2816,-43.3496 L -81.1632,-43.5257 L -80.0505,-43.8218 L -78.9749,-44.2325 L -77.9481,-44.7535 L -76.9814,-45.3789
 L -76.0853,-46.1019 L -75.2697,-46.9146 L -74.5435,-47.8082 L -73.9148,-48.7727 L -73.406,-49.7627 L -58.0151,-83.9
 L -57.8381,-84.6786 L -57.8079,-85.1272 L -57.849,-85.745 L -58.0452,-86.5293 L -58.2258,-86.9519 L -58.6508,-87.6278
 L -58.9886,-88.0092 L -59.0029,-88.0233 L -59.6335,-88.5289 L -60.087,-88.7824 L -60.8385,-89.0522 L -61.3397,-89.1439
 L -61.7385,-89.1707 L -62.5342,-89.1048 L -63.1796,-88.9287 L -63.8986,-88.5813 L -64.5342,-88.0981 L -64.5993,-88.036
 L -91.5155,-61.7491 L -92.251,-60.8632 L -92.8996,-59.8888 L -93.433,-58.8684 L -93.863,-57.7797 L -94.1707,-56.6702
 L -94.3629,-55.5155 L -94.4312,-54.3661 L -94.3771,-53.1968 L -94.2029,-52.0587 L -93.9049,-50.9267 L -93.496,-49.8503
 L -92.9769,-48.8226 L -92.3531,-47.8548 L -91.6317,-46.9575 L -90.8204,-46.1405 L -89.9126,-45.4014 L -88.9481,-44.7727
 L -87.9231,-44.2482 L -86.8489,-43.8336 L -85.7185,-43.5297 L -84.5813,-43.3496 L -83.4315,-43.2893 z
M -77.4977,-62.4942 L -77.5939,-62.535 L -77.6796,-62.595 L -77.7509,-62.6714 L -77.8047,-62.761 L -77.8387,-62.8598
 L -77.8515,-62.9636 L -77.8424,-63.0677 L -77.8118,-63.1677 L -77.7611,-63.2591 L -77.6925,-63.338 L -77.6091,-63.4009
 L -77.5143,-63.4451 L -77.4125,-63.4686 L -77.308,-63.4704 L -77.2054,-63.4505 L -77.1091,-63.4096 L -77.0235,-63.3497
 L -76.9523,-63.2732 L -76.8984,-63.1836 L -76.8644,-63.0848 L -76.8516,-62.981 L -76.8607,-62.8769 L -76.8913,-62.777
 L -76.942,-62.6855 L -77.0106,-62.6066 L -77.094,-62.5437 L -77.1888,-62.4996 L -77.2906,-62.476 L -77.3951,-62.4742
 z
M -84.4547,-50.9423 L -85.1283,-51.2282 L -85.7276,-51.6478 L -86.2267,-52.183 L -86.6035,-52.8102 L -86.8417,-53.502
 L -86.9309,-54.2283 L -86.8671,-54.9572 L -86.6532,-55.6569 L -86.2985,-56.2968 L -85.8184,-56.849 L -85.2341,-57.2894
 L -84.5709,-57.5986 L -83.858,-57.7632 L -83.1264,-57.776 L -82.4082,-57.6364 L -81.7346,-57.3505 L -81.1353,-56.9308
 L -80.6362,-56.3957 L -80.2594,-55.7685 L -80.0212,-55.0766 L -79.932,-54.3504 L -79.9958,-53.6215 L -80.2097,-52.9218
 L -80.5644,-52.2818 L -81.0445,-51.7296 L -81.6288,-51.2892 L -82.292,-50.98 L -83.0049,-50.8154 L -83.7365,-50.8027
 z
M 93.745,-51.849 L 94.5293,-52.0452 L 94.9519,-52.2258 L 95.6278,-52.6508 L 96.0092,-52.9886 L 96.0233,-53.0029
 L 96.5289,-53.6335 L 96.7824,-54.087 L 97.0522,-54.8385 L 97.1439,-55.3397 L 97.1707,-55.7385 L 97.1048,-56.5342
 L 96.9287,-57.1796 L 96.5813,-57.8986 L 96.0981,-58.5342 L 96.036,-58.5993 L 69.7491,-85.5155 L 68.8632,-86.251
 L 67.8888,-86.8996 L 66.8684,-87.433 L 65.7797,-87.863 L 64.6702,-88.1707 L 63.5155,-88.3629 L 62.3661,-88.4312
 L 61.1968,-88.3771 L 60.0587,-88.2029 L 58.9267,-87.9049 L 57.8503,-87.496 L 56.8226,-86.9769 L 55.8548,-86.3531
 L 54.9575,-85.6317 L 54.1405,-84.8204 L 53.4014,-83.9126 L 52.7727,-82.9481 L 52.2482,-81.9231 L 51.8336,-80.8489
 L 51.5297,-79.7185 L 51.3496,-78.5813 L 51.2893,-77.4315 L 51.3496,-76.2816 L 51.5257,-75.1632 L 51.8218,-74.0505
 L 52.2325,-72.9749 L 52.7535,-71.9481 L 53.3789,-70.9814 L 54.1019,-70.0853 L 54.9146,-69.2697 L 55.8082,-68.5435
 L 56.7727,-67.9148 L 57.7627,-67.406 L 91.9,-52.0151 L 92.6786,-51.8381 L 93.1272,-51.8079 z
M 61.6215,-73.9958 L 60.9218,-74.2097 L 60.2818,-74.5644 L 59.7296,-75.0445 L 59.2892,-75.6288 L 58.98,-76.292
 L 58.8154,-77.0049 L 58.8027,-77.7365 L 58.9423,-78.4547 L 59.2282,-79.1283 L 59.6478,-79.7276 L 60.183,-80.2267
 L 60.8102,-80.6035 L 61.502,-80.8417 L 62.2283,-80.9309 L 62.9572,-80.8671 L 63.6569,-80.6532 L 64.2968,-80.2985
 L 64.849,-79.8184 L 65.2894,-79.2341 L 65.5986,-78.5709 L 65.7632,-77.858 L 65.776,-77.1264 L 65.6364,-76.4082
 L 65.3505,-75.7346 L 64.9308,-75.1353 L 64.3957,-74.6362 L 63.7685,-74.2594 L 63.0766,-74.0212 L 62.3504,-73.932
 z
M 70.8769,-70.8607 L 70.777,-70.8913 L 70.6855,-70.942 L 70.6066,-71.0106 L 70.5437,-71.094 L 70.4996,-71.1888
 L 70.476,-71.2906 L 70.4742,-71.3951 L 70.4942,-71.4977 L 70.535,-71.5939 L 70.595,-71.6796 L 70.6714,-71.7509
 L 70.761,-71.8047 L 70.8598,-71.8387 L 70.9636,-71.8515 L 71.0677,-71.8424 L 71.1677,-71.8118 L 71.2591,-71.7611
 L 71.338,-71.6925 L 71.4009,-71.6091 L 71.4451,-71.5143 L 71.4686,-71.4125 L 71.4704,-71.308 L 71.4505,-71.2054
 L 71.4096,-71.1091 L 71.3497,-71.0235 L 71.2732,-70.9523 L 71.1836,-70.8984 L 71.0848,-70.8644 L 70.981,-70.8516
 z
M -70.3876,-32.2018 L -69.7422,-32.3779 L -69.0232,-32.7252 L -68.3876,-33.2085 L -68.3225,-33.2705 L -41.4063,-59.5575
 L -40.6708,-60.4434 L -40.0222,-61.4178 L -39.4888,-62.4381 L -39.0588,-63.5269 L -38.7511,-64.6364 L -38.5589,-65.7911
 L -38.4906,-66.9404 L -38.5447,-68.1098 L -38.7189,-69.2479 L -39.0169,-70.3799 L -39.4258,-71.4562 L -39.9449,-72.484
 L -40.5686,-73.4518 L -41.2901,-74.3491 L -42.1014,-75.1661 L -43.0092,-75.9051 L -43.9737,-76.5339 L -44.9987,-77.0584
 L -46.0729,-77.4729 L -47.2033,-77.7769 L -48.3405,-77.957 L -49.4903,-78.0172 L -50.6402,-77.957 L -51.7586,-77.7808
 L -52.8713,-77.4848 L -53.9469,-77.074 L -54.9737,-76.5531 L -55.9404,-75.9277 L -56.8365,-75.2047 L -57.6521,-74.3919
 L -58.3782,-73.4984 L -59.007,-72.5339 L -59.5158,-71.5439 L -74.9067,-37.4066 L -75.0837,-36.628 L -75.1139,-36.1794
 L -75.0728,-35.5615 L -74.8766,-34.7773 L -74.696,-34.3547 L -74.271,-33.6788 L -73.9332,-33.2974 L -73.9189,-33.2833
 L -73.2883,-32.7776 L -72.8348,-32.5242 L -72.0833,-32.2544 L -71.5821,-32.1627 L -71.1833,-32.1358 z
M -50.5136,-63.6702 L -51.1872,-63.9561 L -51.7865,-64.3758 L -52.2856,-64.9109 L -52.6624,-65.5381 L -52.9006,-66.2299
 L -52.9898,-66.9562 L -52.926,-67.6851 L -52.7121,-68.3848 L -52.3574,-69.0248 L -51.8773,-69.577 L -51.293,-70.0173
 L -50.6298,-70.3265 L -49.9169,-70.4911 L -49.1853,-70.5039 L -48.467,-70.3643 L -47.7935,-70.0784 L -47.1941,-69.6587
 L -46.6951,-69.1236 L -46.3183,-68.4964 L -46.08,-67.8046 L -45.9909,-67.0783 L -46.0546,-66.3494 L -46.2686,-65.6497
 L -46.6233,-65.0097 L -47.1033,-64.4575 L -47.6877,-64.0172 L -48.3508,-63.7079 L -49.0638,-63.5433 L -49.7954,-63.5306
 z
M -55.7164,-57.8561 L -55.8127,-57.8969 L -55.8983,-57.9569 L -55.9695,-58.0333 L -56.0234,-58.1229 L -56.0574,-58.2218
 L -56.0702,-58.3255 L -56.0611,-58.4296 L -56.0305,-58.5296 L -55.9798,-58.621 L -55.9112,-58.6999 L -55.8278,-58.7628
 L -55.733,-58.807 L -55.6312,-58.8305 L -55.5266,-58.8323 L -55.424,-58.8124 L -55.3278,-58.7715 L -55.2422,-58.7116
 L -55.1709,-58.6351 L -55.1171,-58.5455 L -55.0831,-58.4467 L -55.0703,-58.343 L -55.0794,-58.2388 L -55.11,-58.1389
 L -55.1607,-58.0474 L -55.2292,-57.9686 L -55.3127,-57.9057 L -55.4075,-57.8615 L -55.5093,-57.838 L -55.6138,-57.8361
 z
M 76.1098,-32.5447 L 77.2479,-32.7189 L 78.3799,-33.0169 L 79.4562,-33.4258 L 80.484,-33.9449 L 81.4518,-34.5686
 L 82.3491,-35.2901 L 83.1661,-36.1014 L 83.9051,-37.0092 L 84.5339,-37.9737 L 85.0584,-38.9987 L 85.4729,-40.0729
 L 85.7769,-41.2033 L 85.957,-42.3405 L 86.0172,-43.4903 L 85.957,-44.6402 L 85.7808,-45.7586 L 85.4848,-46.8713
 L 85.074,-47.9469 L 84.5531,-48.9737 L 83.9277,-49.9404 L 83.2047,-50.8365 L 82.3919,-51.6521 L 81.4984,-52.3782
 L 80.5339,-53.007 L 79.5439,-53.5158 L 45.4066,-68.9067 L 44.628,-69.0837 L 44.1794,-69.1139 L 43.5615,-69.0728
 L 42.7773,-68.8766 L 42.3547,-68.696 L 41.6787,-68.271 L 41.2974,-67.9332 L 41.2833,-67.9189 L 40.7776,-67.2883
 L 40.5242,-66.8348 L 40.2544,-66.0833 L 40.1627,-65.5821 L 40.1358,-65.1833 L 40.2018,-64.3876 L 40.3779,-63.7422
 L 40.7252,-63.0232 L 41.2084,-62.3876 L 41.2705,-62.3225 L 67.5575,-35.4063 L 68.4434,-34.6708 L 69.4178,-34.0222
 L 70.4381,-33.4888 L 71.5269,-33.0588 L 72.6364,-32.7511 L 73.7911,-32.5589 L 74.9404,-32.4906 z
M 66.2388,-49.0794 L 66.1389,-49.11 L 66.0474,-49.1607 L 65.9686,-49.2292 L 65.9057,-49.3127 L 65.8615,-49.4075
 L 65.838,-49.5093 L 65.8361,-49.6138 L 65.8561,-49.7164 L 65.8969,-49.8127 L 65.9569,-49.8983 L 66.0333,-49.9695
 L 66.1229,-50.0234 L 66.2218,-50.0574 L 66.3255,-50.0702 L 66.4296,-50.0611 L 66.5296,-50.0305 L 66.621,-49.9798
 L 66.6999,-49.9112 L 66.7628,-49.8278 L 66.807,-49.733 L 66.8305,-49.6312 L 66.8323,-49.5266 L 66.8124,-49.424
 L 66.7715,-49.3278 L 66.7116,-49.2422 L 66.6351,-49.1709 L 66.5455,-49.1171 L 66.4467,-49.0831 L 66.343,-49.0703
 z
M 74.3494,-40.0546 L 73.6497,-40.2686 L 73.0097,-40.6233 L 72.4575,-41.1033 L 72.0172,-41.6877 L 71.7079,-42.3508
 L 71.5433,-43.0638 L 71.5306,-43.7954 L 71.6702,-44.5136 L 71.9561,-45.1872 L 72.3758,-45.7865 L 72.9109,-46.2856
 L 73.5381,-46.6624 L 74.2299,-46.9006 L 74.9562,-46.9898 L 75.6851,-46.926 L 76.3848,-46.7121 L 77.0248,-46.3574
 L 77.577,-45.8773 L 78.0173,-45.293 L 78.3265,-44.6298 L 78.4911,-43.9169 L 78.5039,-43.1853 L 78.3643,-42.467
 L 78.0784,-41.7935 L 77.6587,-41.1941 L 77.1236,-40.6951 L 76.4964,-40.3183 L 75.8046,-40.08 L 75.0783,-39.9909
 z
M 56.5676,-9.74658 L 56.958,-9.89642 L 57.3086,-10.1241 L 57.4565,-10.272 L 57.4642,-10.2642 L 70.1921,-22.9921
 L 70.1844,-22.9999 L 70.3322,-23.1477 L 70.5599,-23.4984 L 70.7098,-23.8887 L 70.7752,-24.3017 L 70.7533,-24.7192
 L 70.6451,-25.1231 L 70.4553,-25.4956 L 70.1921,-25.8206 L 32.0084,-64.0043 L 32,-63.996 L 32,-64
 L -31.954,-64 L -31.9584,-64.0043 L -31.9627,-64 L -32,-64 L -32,-63.9627 L -70.1421,-25.8206
 L -70.4053,-25.4956 L -70.5951,-25.1231 L -70.7033,-24.7192 L -70.7252,-24.3017 L -70.6598,-23.8887 L -70.5099,-23.4984
 L -70.2822,-23.1477 L -70.1344,-22.9999 L -70.1421,-22.9921 L -57.4142,-10.2642 L -57.4065,-10.272 L -57.2586,-10.1241
 L -56.908,-9.89642 L -56.5176,-9.74658 L -56.1047,-9.68118 L -55.6871,-9.70306 L -55.2833,-9.81128 L -54.9107,-10.0011
 L -54.5858,-10.2642 L -26.85,-38 L -5,-38 L -5,-23 L -4.89075,-21.9604 L -4.56773,-20.9663
 L -4.04509,-20.0611 L -3.34566,-19.2843 L -2.5,-18.6699 L -1.54509,-18.2447 L -0.522644,-18.0274 L 0.522644,-18.0274
 L 1.54507,-18.2447 L 2.5,-18.6699 L 3.34564,-19.2843 L 4.04507,-20.0611 L 4.56772,-20.9663 L 4.89073,-21.9604
 L 5,-23 L 5,-38 L 26.9,-38 L 54.6358,-10.2642 L 54.9607,-10.0011 L 55.3333,-9.81128
 L 55.7371,-9.70306 L 56.1547,-9.68118 z
M -30.6568,-58.5082 L -30.9635,-58.5734 L -31.25,-58.701 L -31.5037,-58.8853 L -31.7135,-59.1183 L -31.8703,-59.3899
 L -31.9672,-59.6881 L -32,-60 L -31.9672,-60.3119 L -31.8703,-60.6101 L -31.7135,-60.8817 L -31.5037,-61.1147
 L -31.25,-61.299 L -30.9635,-61.4266 L -30.6568,-61.4918 L -30.3432,-61.4918 L -30.0365,-61.4266 L -29.75,-61.299
 L -29.4963,-61.1147 L -29.2865,-60.8817 L -29.1297,-60.6101 L -29.0328,-60.3119 L -29,-60 L -29.0328,-59.6881
 L -29.1297,-59.3899 L -29.2865,-59.1183 L -29.4963,-58.8853 L -29.75,-58.701 L -30.0365,-58.5734 L -30.3432,-58.5082
 z
M 30.3432,-58.5082 L 30.0365,-58.5734 L 29.75,-58.701 L 29.4963,-58.8853 L 29.2865,-59.1183 L 29.1297,-59.3899
 L 29.0328,-59.6881 L 29,-60 L 29.0328,-60.3119 L 29.1297,-60.6101 L 29.2865,-60.8817 L 29.4963,-61.1147
 L 29.75,-61.299 L 30.0365,-61.4266 L 30.3432,-61.4918 L 30.6568,-61.4918 L 30.9635,-61.4266 L 31.25,-61.299
 L 31.5037,-61.1147 L 31.7135,-60.8817 L 31.8703,-60.6101 L 31.9672,-60.3119 L 32,-60 L 31.9672,-59.6881
 L 31.8703,-59.3899 L 31.7135,-59.1183 L 31.5037,-58.8853 L 31.25,-58.701 L 30.9635,-58.5734 L 30.6568,-58.5082
 z
M -64.4853,-24.4064 L -48.4339,-40.4577 L -39.9487,-31.9724 L -56,-15.9211 z
M 39.9987,-31.9724 L 48.4839,-40.4577 L 64.5353,-24.4064 L 56.05,-15.9211 z
M -42.6306,-37.2101 L -42.7867,-37.27 L -42.927,-37.3611 L -43.0453,-37.4794 L -43.1364,-37.6196 L -43.1963,-37.7758
 L -43.2224,-37.9409 L -43.2137,-38.1079 L -43.1704,-38.2695 L -43.0945,-38.4185 L -42.9892,-38.5485 L -42.8593,-38.6537
 L -42.7102,-38.7297 L -42.5487,-38.7729 L -42.3817,-38.7817 L -42.2165,-38.7555 L -42.0603,-38.6956 L -41.9201,-38.6045
 L -41.8018,-38.4863 L -41.7107,-38.346 L -41.6508,-38.1898 L -41.6246,-38.0247 L -41.6334,-37.8577 L -41.6767,-37.6961
 L -41.7526,-37.5471 L -41.8579,-37.4171 L -41.9878,-37.3119 L -42.1369,-37.2359 L -42.2984,-37.1927 L -42.4654,-37.1839
 z
M 42.3484,-37.1927 L 42.1869,-37.2359 L 42.0378,-37.3119 L 41.9079,-37.4171 L 41.8026,-37.5471 L 41.7267,-37.6961
 L 41.6834,-37.8577 L 41.6746,-38.0247 L 41.7008,-38.1898 L 41.7607,-38.346 L 41.8518,-38.4863 L 41.9701,-38.6045
 L 42.1104,-38.6956 L 42.2665,-38.7555 L 42.4317,-38.7817 L 42.5987,-38.7729 L 42.7602,-38.7297 L 42.9093,-38.6537
 L 43.0392,-38.5485 L 43.1445,-38.4185 L 43.2204,-38.2695 L 43.2637,-38.1079 L 43.2724,-37.9409 L 43.2463,-37.7758
 L 43.1864,-37.6196 L 43.0953,-37.4794 L 42.977,-37.3611 L 42.8367,-37.27 L 42.6806,-37.2101 L 42.5154,-37.1839
 z
M -0.156799,-21.5082 L -0.463531,-21.5734 L -0.75,-21.701 L -1.00371,-21.8853 L -1.21353,-22.1183 L -1.37033,-22.3899
 L -1.46722,-22.6881 L -1.5,-23 L -1.46722,-23.3119 L -1.37033,-23.6101 L -1.21353,-23.8817 L -1.00371,-24.1147
 L -0.75,-24.299 L -0.463531,-24.4266 L -0.156799,-24.4918 L 0.156784,-24.4918 L 0.463516,-24.4266 L 0.75,-24.299
 L 1.00369,-24.1147 L 1.21352,-23.8817 L 1.37032,-23.6101 L 1.46721,-23.3119 L 1.5,-23 L 1.46721,-22.6881
 L 1.37032,-22.3899 L 1.21352,-22.1183 L 1.00369,-21.8853 L 0.75,-21.701 L 0.463516,-21.5734 L 0.156784,-21.5082
 z
M -62.2175,-17.6232 L -62.3736,-17.6831 L -62.5139,-17.7742 L -62.6321,-17.8925 L -62.7232,-18.0328 L -62.7831,-18.1889
 L -62.8093,-18.3541 L -62.8006,-18.5211 L -62.7573,-18.6826 L -62.6813,-18.8317 L -62.5761,-18.9616 L -62.4461,-19.0669
 L -62.2971,-19.1428 L -62.1355,-19.1861 L -61.9685,-19.1949 L -61.8033,-19.1687 L -61.6472,-19.1087 L -61.5069,-19.0177
 L -61.3887,-18.8994 L -61.2976,-18.7591 L -61.2377,-18.603 L -61.2115,-18.4378 L -61.2202,-18.2708 L -61.2635,-18.1093
 L -61.3395,-17.9602 L -61.4447,-17.8303 L -61.5747,-17.725 L -61.7237,-17.6491 L -61.8853,-17.6058 L -62.0523,-17.597
 z
M 61.9353,-17.6058 L 61.7737,-17.6491 L 61.6247,-17.725 L 61.4947,-17.8303 L 61.3895,-17.9602 L 61.3135,-18.1093
 L 61.2702,-18.2708 L 61.2615,-18.4378 L 61.2877,-18.603 L 61.3476,-18.7591 L 61.4387,-18.8994 L 61.5569,-19.0177
 L 61.6972,-19.1087 L 61.8533,-19.1687 L 62.0185,-19.1949 L 62.1855,-19.1861 L 62.3471,-19.1428 L 62.4961,-19.0669
 L 62.6261,-18.9616 L 62.7313,-18.8317 L 62.8073,-18.6826 L 62.8506,-18.5211 L 62.8593,-18.3541 L 62.8331,-18.1889
 L 62.7732,-18.0328 L 62.6821,-17.8925 L 62.5639,-17.7742 L 62.4236,-17.6831 L 62.2675,-17.6232 L 62.1023,-17.597
 z
M 29,23.689 L 29.209,23.689 L 29.618,23.6021 L 30,23.432 L 30.3383,23.1863 L 30.618,22.8756
 L 30.8271,22.5135 L 30.9563,22.1158 L 31,21.7 L 30.9849,-24.5757 L 30.8646,-25.7208 L 30.6252,-26.847
 L 30.2694,-27.942 L 29.8011,-28.9939 L 29.2254,-29.991 L 28.5486,-30.9225 L 27.7782,-31.7782 L 26.9076,-32.5607
 L 25.9588,-33.2462 L 24.9596,-33.8184 L 23.9062,-34.2831 L 22.8099,-34.6351 L 21.6639,-34.8734 L 20.5182,-34.9878
 L 19.3476,-34.9806 L 18.1845,-34.8491 L 17.0604,-34.5999 L 15.9685,-34.2346 L 14.9208,-33.7571 L 13.9287,-33.1727
 L 13.0031,-32.4879 L 12.1543,-31.71 L 11.3913,-30.8477 L 10.7227,-29.9103 L 10.1557,-28.9082 L 9.69661,-27.8523
 L 9.35039,-26.7542 L 9.12083,-25.6259 L 9.01048,-24.4798 L 9,-24 L 9,21.7 L 9.04372,22.1158
 L 9.17291,22.5135 L 9.38197,22.8756 L 9.66174,23.1863 L 10,23.432 L 10.382,23.6021 L 10.791,23.689
 L 11,23.689 L 11,23.7 L 29,23.7 z
M 19.6342,-20.5192 L 18.9184,-20.6713 L 18.25,-20.9689 L 17.6581,-21.399 L 17.1684,-21.9428 L 16.8026,-22.5764
 L 16.5765,-23.2723 L 16.5,-24 L 16.5765,-24.7277 L 16.8026,-25.4236 L 17.1684,-26.0572 L 17.6581,-26.601
 L 18.25,-27.0311 L 18.9184,-27.3287 L 19.6342,-27.4808 L 20.3658,-27.4808 L 21.0816,-27.3287 L 21.75,-27.0311
 L 22.3419,-26.601 L 22.8316,-26.0572 L 23.1974,-25.4236 L 23.4235,-24.7277 L 23.5,-24 L 23.4235,-23.2723
 L 23.1974,-22.5764 L 22.8316,-21.9428 L 22.3419,-21.399 L 21.75,-20.9689 L 21.0816,-20.6713 L 20.3658,-20.5192
 z
M 14.5961,-14.3311 L 14.4966,-14.3634 L 14.4061,-14.4156 L 14.3284,-14.4856 L 14.267,-14.5701 L 14.2245,-14.6656
 L 14.2027,-14.7679 L 14.2027,-14.8724 L 14.2245,-14.9746 L 14.267,-15.0701 L 14.3284,-15.1547 L 14.4061,-15.2246
 L 14.4966,-15.2769 L 14.5961,-15.3092 L 14.7,-15.3201 L 14.804,-15.3092 L 14.9034,-15.2769 L 14.9939,-15.2246
 L 15.0716,-15.1547 L 15.133,-15.0701 L 15.1755,-14.9746 L 15.1973,-14.8724 L 15.1973,-14.7679 L 15.1755,-14.6656
 L 15.133,-14.5701 L 15.0716,-14.4856 L 14.9939,-14.4156 L 14.9034,-14.3634 L 14.804,-14.3311 L 14.7,-14.3201
 z
M 19.9164,-5.70439 L 19.7528,-5.73917 L 19.6,-5.80719 L 19.4647,-5.90549 L 19.3528,-6.02979 L 19.2692,-6.17462
 L 19.2175,-6.33368 L 19.2,-6.5 L 19.2175,-6.66634 L 19.2692,-6.82539 L 19.3528,-6.97023 L 19.4647,-7.09453
 L 19.6,-7.19283 L 19.7528,-7.26085 L 19.9164,-7.29562 L 20.0836,-7.29562 L 20.2472,-7.26085 L 20.4,-7.19283
 L 20.5353,-7.09453 L 20.6472,-6.97023 L 20.7308,-6.82539 L 20.7825,-6.66634 L 20.8,-6.5 L 20.7825,-6.33368
 L 20.7308,-6.17462 L 20.6472,-6.02979 L 20.5353,-5.90549 L 20.4,-5.80719 L 20.2472,-5.73917 L 20.0836,-5.70439
 z
M 19.399,18.4185 L 18.2232,18.1686 L 17.125,17.6796 L 16.1525,16.9731 L 15.3482,16.0798 L 14.7471,15.0387
 L 14.3757,13.8955 L 14.25,12.7 L 14.3757,11.5045 L 14.7471,10.3613 L 15.3482,9.32024 L 16.1525,8.42691
 L 17.125,7.72035 L 17.5,7.55339 L 17.5,6.7 L 17.5546,6.18022 L 17.7161,5.68315 L 17.9775,5.23053
 L 18.3272,4.84213 L 18.75,4.53493 L 19.2275,4.32236 L 19.7387,4.21368 L 20.2613,4.21368 L 20.7725,4.32236
 L 21.25,4.53493 L 21.6728,4.84213 L 22.0225,5.23053 L 22.2839,5.68315 L 22.4454,6.18022 L 22.5,6.7
 L 22.5,7.55339 L 22.875,7.72035 L 23.8475,8.42691 L 24.6518,9.32024 L 25.2529,10.3613 L 25.6243,11.5045
 L 25.75,12.7 L 25.6243,13.8955 L 25.2529,15.0387 L 24.6518,16.0798 L 23.8475,16.9731 L 22.875,17.6796
 L 21.7768,18.1686 L 20.601,18.4185 z
M 19.9164,21.9956 L 19.7528,21.9608 L 19.6,21.8928 L 19.4647,21.7945 L 19.3528,21.6702 L 19.2692,21.5254
 L 19.2175,21.3663 L 19.2,21.2 L 19.2175,21.0337 L 19.2692,20.8746 L 19.3528,20.7298 L 19.4647,20.6055
 L 19.6,20.5072 L 19.7528,20.4391 L 19.9164,20.4044 L 20.0836,20.4044 L 20.2472,20.4391 L 20.4,20.5072
 L 20.5353,20.6055 L 20.6472,20.7298 L 20.7308,20.8746 L 20.7825,21.0337 L 20.8,21.2 L 20.7825,21.3663
 L 20.7308,21.5254 L 20.6472,21.6702 L 20.5353,21.7945 L 20.4,21.8928 L 20.2472,21.9608 L 20.0836,21.9956
 z
M -11,23.689 L -10.791,23.689 L -10.382,23.6021 L -10,23.432 L -9.66174,23.1863 L -9.38197,22.8756
 L -9.17291,22.5135 L -9.04372,22.1158 L -9,21.7 L -9.01508,-24.5757 L -9.13544,-25.7208 L -9.37482,-26.847
 L -9.73062,-27.942 L -10.1989,-28.9939 L -10.7746,-29.991 L -11.4514,-30.9225 L -12.2218,-31.7782 L -13.0924,-32.5607
 L -14.0412,-33.2462 L -15.0404,-33.8184 L -16.0938,-34.2831 L -17.1901,-34.6351 L -18.3361,-34.8734 L -19.4818,-34.9878
 L -20.6524,-34.9806 L -21.8155,-34.8491 L -22.9396,-34.5999 L -24.0315,-34.2346 L -25.0792,-33.7571 L -26.0713,-33.1727
 L -26.9969,-32.4879 L -27.8457,-31.71 L -28.6087,-30.8477 L -29.2773,-29.9103 L -29.8443,-28.9082 L -30.3034,-27.8523
 L -30.6496,-26.7542 L -30.8792,-25.6259 L -30.9895,-24.4798 L -31,-24 L -31,21.7 L -30.9563,22.1158
 L -30.8271,22.5135 L -30.618,22.8756 L -30.3383,23.1863 L -30,23.432 L -29.618,23.6021 L -29.209,23.689
 L -29,23.689 L -29,23.7 L -11,23.7 z
M -20.3658,-20.5192 L -21.0816,-20.6713 L -21.75,-20.9689 L -22.3419,-21.399 L -22.8316,-21.9428 L -23.1974,-22.5764
 L -23.4235,-23.2723 L -23.5,-24 L -23.4235,-24.7277 L -23.1974,-25.4236 L -22.8316,-26.0572 L -22.3419,-26.601
 L -21.75,-27.0311 L -21.0816,-27.3287 L -20.3658,-27.4808 L -19.6342,-27.4808 L -18.9184,-27.3287 L -18.25,-27.0311
 L -17.6581,-26.601 L -17.1684,-26.0572 L -16.8026,-25.4236 L -16.5765,-24.7277 L -16.5,-24 L -16.5765,-23.2723
 L -16.8026,-22.5764 L -17.1684,-21.9428 L -17.6581,-21.399 L -18.25,-20.9689 L -18.9184,-20.6713 L -19.6342,-20.5192
 z
M -25.4039,-14.3311 L -25.5034,-14.3634 L -25.5939,-14.4156 L -25.6716,-14.4856 L -25.733,-14.5701 L -25.7755,-14.6656
 L -25.7973,-14.7679 L -25.7973,-14.8724 L -25.7755,-14.9746 L -25.733,-15.0701 L -25.6716,-15.1547 L -25.5939,-15.2246
 L -25.5034,-15.2769 L -25.4039,-15.3092 L -25.3,-15.3201 L -25.196,-15.3092 L -25.0966,-15.2769 L -25.0061,-15.2246
 L -24.9284,-15.1547 L -24.867,-15.0701 L -24.8245,-14.9746 L -24.8027,-14.8724 L -24.8027,-14.7679 L -24.8245,-14.6656
 L -24.867,-14.5701 L -24.9284,-14.4856 L -25.0061,-14.4156 L -25.0966,-14.3634 L -25.196,-14.3311 L -25.3,-14.3201
 z
M -20.0836,-5.70439 L -20.2472,-5.73917 L -20.4,-5.80719 L -20.5353,-5.90549 L -20.6472,-6.02979 L -20.7308,-6.17462
 L -20.7825,-6.33368 L -20.8,-6.5 L -20.7825,-6.66634 L -20.7308,-6.82539 L -20.6472,-6.97023 L -20.5353,-7.09453
 L -20.4,-7.19283 L -20.2472,-7.26085 L -20.0836,-7.29562 L -19.9164,-7.29562 L -19.7528,-7.26085 L -19.6,-7.19283
 L -19.4647,-7.09453 L -19.3528,-6.97023 L -19.2692,-6.82539 L -19.2175,-6.66634 L -19.2,-6.5 L -19.2175,-6.33368
 L -19.2692,-6.17462 L -19.3528,-6.02979 L -19.4647,-5.90549 L -19.6,-5.80719 L -19.7528,-5.73917 L -19.9164,-5.70439
 z
M -20.601,18.4185 L -21.7768,18.1686 L -22.875,17.6796 L -23.8475,16.9731 L -24.6518,16.0798 L -25.2529,15.0387
 L -25.6243,13.8955 L -25.75,12.7 L -25.6243,11.5045 L -25.2529,10.3613 L -24.6518,9.32024 L -23.8475,8.42691
 L -22.875,7.72035 L -22.5,7.55339 L -22.5,6.7 L -22.4454,6.18022 L -22.2839,5.68315 L -22.0225,5.23053
 L -21.6728,4.84213 L -21.25,4.53493 L -20.7725,4.32236 L -20.2613,4.21368 L -19.7387,4.21368 L -19.2275,4.32236
 L -18.75,4.53493 L -18.3272,4.84213 L -17.9775,5.23053 L -17.7161,5.68315 L -17.5546,6.18022 L -17.5,6.7
 L -17.5,7.55339 L -17.125,7.72035 L -16.1525,8.42691 L -15.3482,9.32024 L -14.7471,10.3613 L -14.3757,11.5045
 L -14.25,12.7 L -14.3757,13.8955 L -14.7471,15.0387 L -15.3482,16.0798 L -16.1525,16.9731 L -17.125,17.6796
 L -18.2232,18.1686 L -19.399,18.4185 z
M -20.0836,21.9956 L -20.2472,21.9608 L -20.4,21.8928 L -20.5353,21.7945 L -20.6472,21.6702 L -20.7308,21.5254
 L -20.7825,21.3663 L -20.8,21.2 L -20.7825,21.0337 L -20.7308,20.8746 L -20.6472,20.7298 L -20.5353,20.6055
 L -20.4,20.5072 L -20.2472,20.4391 L -20.0836,20.4044 L -19.9164,20.4044 L -19.7528,20.4391 L -19.6,20.5072
 L -19.4647,20.6055 L -19.3528,20.7298 L -19.2692,20.8746 L -19.2175,21.0337 L -19.2,21.2 L -19.2175,21.3663
 L -19.2692,21.5254 L -19.3528,21.6702 L -19.4647,21.7945 L -19.6,21.8928 L -19.7528,21.9608 L -19.9164,21.9956
 z
" stroke="black" fill="lightgray" stroke-width="0.5"/></svg>
