  0
SECTION
  2
BLOCKS
  0
ENDSEC
  0
SECTION
  2
ENTITIES
  0
LINE
  8
0
 10
94.2071
 20
70.3664
 11
95.3433
 21
70.5525
  0
LINE
  8
0
 10
95.3433
 20
70.5525
 11
96.4539
 21
70.8563
  0
LINE
  8
0
 10
96.4539
 20
70.8563
 11
97.5267
 21
71.2746
  0
LINE
  8
0
 10
97.5267
 20
71.2746
 11
98.5664
 21
71.8123
  0
LINE
  8
0
 10
98.5664
 20
71.8123
 11
99.5276
 21
72.4462
  0
LINE
  8
0
 10
99.5276
 20
72.4462
 11
100.403
 21
73.1641
  0
LINE
  8
0
 10
100.403
 20
73.1641
 11
100.873
 21
73.6174
  0
LINE
  8
0
 10
100.873
 20
73.6174
 11
101.633
 21
74.4824
  0
LINE
  8
0
 10
101.633
 20
74.4824
 11
102.308
 21
75.4384
  0
LINE
  8
0
 10
102.308
 20
75.4384
 11
102.87
 21
76.4434
  0
LINE
  8
0
 10
102.87
 20
76.4434
 11
103.33
 21
77.5197
  0
LINE
  8
0
 10
103.33
 20
77.5197
 11
103.673
 21
78.6389
  0
LINE
  8
0
 10
103.673
 20
78.6389
 11
103.893
 21
79.7691
  0
LINE
  8
0
 10
103.893
 20
79.7691
 11
103.954
 21
80.3
  0
LINE
  8
0
 10
103.954
 20
80.3
 11
104
 21
80.3
  0
LINE
  8
0
 10
104
 20
80.3
 11
103.985
 21
118.576
  0
LINE
  8
0
 10
103.985
 20
118.576
 11
103.865
 21
119.721
  0
LINE
  8
0
 10
103.865
 20
119.721
 11
103.625
 21
120.847
  0
LINE
  8
0
 10
103.625
 20
120.847
 11
103.269
 21
121.942
  0
LINE
  8
0
 10
103.269
 20
121.942
 11
102.801
 21
122.994
  0
LINE
  8
0
 10
102.801
 20
122.994
 11
102.225
 21
123.991
  0
LINE
  8
0
 10
102.225
 20
123.991
 11
101.549
 21
124.923
  0
LINE
  8
0
 10
101.549
 20
124.923
 11
100.778
 21
125.778
  0
LINE
  8
0
 10
100.778
 20
125.778
 11
99.9076
 21
126.561
  0
LINE
  8
0
 10
99.9076
 20
126.561
 11
98.9588
 21
127.246
  0
LINE
  8
0
 10
98.9588
 20
127.246
 11
97.9596
 21
127.818
  0
LINE
  8
0
 10
97.9596
 20
127.818
 11
96.9062
 21
128.283
  0
LINE
  8
0
 10
96.9062
 20
128.283
 11
95.8099
 21
128.635
  0
LINE
  8
0
 10
95.8099
 20
128.635
 11
94.6639
 21
128.873
  0
LINE
  8
0
 10
94.6639
 20
128.873
 11
93.5182
 21
128.988
  0
LINE
  8
0
 10
93.5182
 20
128.988
 11
92.3476
 21
128.981
  0
LINE
  8
0
 10
92.3476
 20
128.981
 11
91.1845
 21
128.849
  0
LINE
  8
0
 10
91.1845
 20
128.849
 11
90.0604
 21
128.6
  0
LINE
  8
0
 10
90.0604
 20
128.6
 11
88.9685
 21
128.235
  0
LINE
  8
0
 10
88.9685
 20
128.235
 11
87.9208
 21
127.757
  0
LINE
  8
0
 10
87.9208
 20
127.757
 11
86.9287
 21
127.173
  0
LINE
  8
0
 10
86.9287
 20
127.173
 11
86.0031
 21
126.488
  0
LINE
  8
0
 10
86.0031
 20
126.488
 11
85.1543
 21
125.71
  0
LINE
  8
0
 10
85.1543
 20
125.71
 11
84.3913
 21
124.848
  0
LINE
  8
0
 10
84.3913
 20
124.848
 11
83.7227
 21
123.91
  0
LINE
  8
0
 10
83.7227
 20
123.91
 11
83.1557
 21
122.908
  0
LINE
  8
0
 10
83.1557
 20
122.908
 11
82.6966
 21
121.852
  0
LINE
  8
0
 10
82.6966
 20
121.852
 11
82.3504
 21
120.754
  0
LINE
  8
0
 10
82.3504
 20
120.754
 11
82.1208
 21
119.626
  0
LINE
  8
0
 10
82.1208
 20
119.626
 11
82.0105
 21
118.48
  0
LINE
  8
0
 10
82.0105
 20
118.48
 11
82
 21
118
  0
LINE
  8
0
 10
82
 20
118
 11
82
 21
80.3
  0
LINE
  8
0
 10
82
 20
80.3
 11
82.0456
 21
80.3
  0
LINE
  8
0
 10
82.0456
 20
80.3
 11
82.2132
 21
79.1446
  0
LINE
  8
0
 10
82.2132
 20
79.1446
 11
82.4976
 21
78.0289
  0
LINE
  8
0
 10
82.4976
 20
78.0289
 11
82.8971
 21
76.949
  0
LINE
  8
0
 10
82.8971
 20
76.949
 11
83.4072
 21
75.9168
  0
LINE
  8
0
 10
83.4072
 20
75.9168
 11
84.0225
 21
74.9436
  0
LINE
  8
0
 10
84.0225
 20
74.9436
 11
84.7488
 21
74.0256
  0
LINE
  8
0
 10
84.7488
 20
74.0256
 11
85.5544
 21
73.2029
  0
LINE
  8
0
 10
85.5544
 20
73.2029
 11
86.4415
 21
72.469
  0
LINE
  8
0
 10
86.4415
 20
72.469
 11
87.4171
 21
71.8221
  0
LINE
  8
0
 10
87.4171
 20
71.8221
 11
88.4209
 21
71.2984
  0
LINE
  8
0
 10
88.4209
 20
71.2984
 11
89.5097
 21
70.8684
  0
LINE
  8
0
 10
89.5097
 20
70.8684
 11
90.6192
 21
70.5607
  0
LINE
  8
0
 10
90.6192
 20
70.5607
 11
91.7548
 21
70.3707
  0
LINE
  8
0
 10
91.7548
 20
70.3707
 11
91.8884
 21
70.3563
  0
LINE
  8
0
 10
91.8884
 20
70.3563
 11
93.0576
 21
70.3002
  0
LINE
  8
0
 10
93.0576
 20
70.3002
 11
94.2071
 21
70.3664
  0
LINE
  8
0
 10
92.6342
 20
114.519
 11
91.9184
 21
114.671
  0
LINE
  8
0
 10
91.9184
 20
114.671
 11
91.25
 21
114.969
  0
LINE
  8
0
 10
91.25
 20
114.969
 11
90.6581
 21
115.399
  0
LINE
  8
0
 10
90.6581
 20
115.399
 11
90.1684
 21
115.943
  0
LINE
  8
0
 10
90.1684
 20
115.943
 11
89.8026
 21
116.576
  0
LINE
  8
0
 10
89.8026
 20
116.576
 11
89.5765
 21
117.272
  0
LINE
  8
0
 10
89.5765
 20
117.272
 11
89.5
 21
118
  0
LINE
  8
0
 10
89.5
 20
118
 11
89.5765
 21
118.728
  0
LINE
  8
0
 10
89.5765
 20
118.728
 11
89.8026
 21
119.424
  0
LINE
  8
0
 10
89.8026
 20
119.424
 11
90.1684
 21
120.057
  0
LINE
  8
0
 10
90.1684
 20
120.057
 11
90.6581
 21
120.601
  0
LINE
  8
0
 10
90.6581
 20
120.601
 11
91.25
 21
121.031
  0
LINE
  8
0
 10
91.25
 20
121.031
 11
91.9184
 21
121.329
  0
LINE
  8
0
 10
91.9184
 20
121.329
 11
92.6342
 21
121.481
  0
LINE
  8
0
 10
92.6342
 20
121.481
 11
93.3658
 21
121.481
  0
LINE
  8
0
 10
93.3658
 20
121.481
 11
94.0816
 21
121.329
  0
LINE
  8
0
 10
94.0816
 20
121.329
 11
94.75
 21
121.031
  0
LINE
  8
0
 10
94.75
 20
121.031
 11
95.3419
 21
120.601
  0
LINE
  8
0
 10
95.3419
 20
120.601
 11
95.8316
 21
120.057
  0
LINE
  8
0
 10
95.8316
 20
120.057
 11
96.1974
 21
119.424
  0
LINE
  8
0
 10
96.1974
 20
119.424
 11
96.4235
 21
118.728
  0
LINE
  8
0
 10
96.4235
 20
118.728
 11
96.5
 21
118
  0
LINE
  8
0
 10
96.5
 20
118
 11
96.4235
 21
117.272
  0
LINE
  8
0
 10
96.4235
 20
117.272
 11
96.1974
 21
116.576
  0
LINE
  8
0
 10
96.1974
 20
116.576
 11
95.8316
 21
115.943
  0
LINE
  8
0
 10
95.8316
 20
115.943
 11
95.3419
 21
115.399
  0
LINE
  8
0
 10
95.3419
 20
115.399
 11
94.75
 21
114.969
  0
LINE
  8
0
 10
94.75
 20
114.969
 11
94.0816
 21
114.671
  0
LINE
  8
0
 10
94.0816
 20
114.671
 11
93.3658
 21
114.519
  0
LINE
  8
0
 10
93.3658
 20
114.519
 11
92.6342
 21
114.519
  0
LINE
  8
0
 10
87.5961
 20
108.331
 11
87.4966
 21
108.363
  0
LINE
  8
0
 10
87.4966
 20
108.363
 11
87.4061
 21
108.416
  0
LINE
  8
0
 10
87.4061
 20
108.416
 11
87.3284
 21
108.486
  0
LINE
  8
0
 10
87.3284
 20
108.486
 11
87.267
 21
108.57
  0
LINE
  8
0
 10
87.267
 20
108.57
 11
87.2245
 21
108.666
  0
LINE
  8
0
 10
87.2245
 20
108.666
 11
87.2027
 21
108.768
  0
LINE
  8
0
 10
87.2027
 20
108.768
 11
87.2027
 21
108.872
  0
LINE
  8
0
 10
87.2027
 20
108.872
 11
87.2245
 21
108.975
  0
LINE
  8
0
 10
87.2245
 20
108.975
 11
87.267
 21
109.07
  0
LINE
  8
0
 10
87.267
 20
109.07
 11
87.3284
 21
109.155
  0
LINE
  8
0
 10
87.3284
 20
109.155
 11
87.4061
 21
109.225
  0
LINE
  8
0
 10
87.4061
 20
109.225
 11
87.4966
 21
109.277
  0
LINE
  8
0
 10
87.4966
 20
109.277
 11
87.5961
 21
109.309
  0
LINE
  8
0
 10
87.5961
 20
109.309
 11
87.7
 21
109.32
  0
LINE
  8
0
 10
87.7
 20
109.32
 11
87.804
 21
109.309
  0
LINE
  8
0
 10
87.804
 20
109.309
 11
87.9034
 21
109.277
  0
LINE
  8
0
 10
87.9034
 20
109.277
 11
87.9939
 21
109.225
  0
LINE
  8
0
 10
87.9939
 20
109.225
 11
88.0716
 21
109.155
  0
LINE
  8
0
 10
88.0716
 20
109.155
 11
88.133
 21
109.07
  0
LINE
  8
0
 10
88.133
 20
109.07
 11
88.1755
 21
108.975
  0
LINE
  8
0
 10
88.1755
 20
108.975
 11
88.1973
 21
108.872
  0
LINE
  8
0
 10
88.1973
 20
108.872
 11
88.1973
 21
108.768
  0
LINE
  8
0
 10
88.1973
 20
108.768
 11
88.1755
 21
108.666
  0
LINE
  8
0
 10
88.1755
 20
108.666
 11
88.133
 21
108.57
  0
LINE
  8
0
 10
88.133
 20
108.57
 11
88.0716
 21
108.486
  0
LINE
  8
0
 10
88.0716
 20
108.486
 11
87.9939
 21
108.416
  0
LINE
  8
0
 10
87.9939
 20
108.416
 11
87.9034
 21
108.363
  0
LINE
  8
0
 10
87.9034
 20
108.363
 11
87.804
 21
108.331
  0
LINE
  8
0
 10
87.804
 20
108.331
 11
87.7
 21
108.32
  0
LINE
  8
0
 10
87.7
 20
108.32
 11
87.5961
 21
108.331
  0
LINE
  8
0
 10
92.9164
 20
100.704
 11
92.7528
 21
100.739
  0
LINE
  8
0
 10
92.7528
 20
100.739
 11
92.6
 21
100.807
  0
LINE
  8
0
 10
92.6
 20
100.807
 11
92.4647
 21
100.905
  0
LINE
  8
0
 10
92.4647
 20
100.905
 11
92.3528
 21
101.03
  0
LINE
  8
0
 10
92.3528
 20
101.03
 11
92.2692
 21
101.175
  0
LINE
  8
0
 10
92.2692
 20
101.175
 11
92.2175
 21
101.334
  0
LINE
  8
0
 10
92.2175
 20
101.334
 11
92.2
 21
101.5
  0
LINE
  8
0
 10
92.2
 20
101.5
 11
92.2175
 21
101.666
  0
LINE
  8
0
 10
92.2175
 20
101.666
 11
92.2692
 21
101.825
  0
LINE
  8
0
 10
92.2692
 20
101.825
 11
92.3528
 21
101.97
  0
LINE
  8
0
 10
92.3528
 20
101.97
 11
92.4647
 21
102.095
  0
LINE
  8
0
 10
92.4647
 20
102.095
 11
92.6
 21
102.193
  0
LINE
  8
0
 10
92.6
 20
102.193
 11
92.7528
 21
102.261
  0
LINE
  8
0
 10
92.7528
 20
102.261
 11
92.9164
 21
102.296
  0
LINE
  8
0
 10
92.9164
 20
102.296
 11
93.0836
 21
102.296
  0
LINE
  8
0
 10
93.0836
 20
102.296
 11
93.2472
 21
102.261
  0
LINE
  8
0
 10
93.2472
 20
102.261
 11
93.4
 21
102.193
  0
LINE
  8
0
 10
93.4
 20
102.193
 11
93.5353
 21
102.095
  0
LINE
  8
0
 10
93.5353
 20
102.095
 11
93.6472
 21
101.97
  0
LINE
  8
0
 10
93.6472
 20
101.97
 11
93.7308
 21
101.825
  0
LINE
  8
0
 10
93.7308
 20
101.825
 11
93.7825
 21
101.666
  0
LINE
  8
0
 10
93.7825
 20
101.666
 11
93.8
 21
101.5
  0
LINE
  8
0
 10
93.8
 20
101.5
 11
93.7825
 21
101.334
  0
LINE
  8
0
 10
93.7825
 20
101.334
 11
93.7308
 21
101.175
  0
LINE
  8
0
 10
93.7308
 20
101.175
 11
93.6472
 21
101.03
  0
LINE
  8
0
 10
93.6472
 20
101.03
 11
93.5353
 21
100.905
  0
LINE
  8
0
 10
93.5353
 20
100.905
 11
93.4
 21
100.807
  0
LINE
  8
0
 10
93.4
 20
100.807
 11
93.2472
 21
100.739
  0
LINE
  8
0
 10
93.2472
 20
100.739
 11
93.0836
 21
100.704
  0
LINE
  8
0
 10
93.0836
 20
100.704
 11
92.9164
 21
100.704
  0
LINE
  8
0
 10
92.3937
 20
75.5318
 11
91.2077
 21
75.7839
  0
LINE
  8
0
 10
91.2077
 20
75.7839
 11
90.1
 21
76.2771
  0
LINE
  8
0
 10
90.1
 20
76.2771
 11
89.119
 21
76.9898
  0
LINE
  8
0
 10
89.119
 20
76.9898
 11
88.3077
 21
77.8909
  0
LINE
  8
0
 10
88.3077
 20
77.8909
 11
87.7014
 21
78.9409
  0
LINE
  8
0
 10
87.7014
 20
78.9409
 11
87.3268
 21
80.0941
  0
LINE
  8
0
 10
87.3268
 20
80.0941
 11
87.2
 21
81.3
  0
LINE
  8
0
 10
87.2
 20
81.3
 11
87.3268
 21
82.5059
  0
LINE
  8
0
 10
87.3268
 20
82.5059
 11
87.7014
 21
83.6591
  0
LINE
  8
0
 10
87.7014
 20
83.6591
 11
88.3077
 21
84.7092
  0
LINE
  8
0
 10
88.3077
 20
84.7092
 11
89.119
 21
85.6102
  0
LINE
  8
0
 10
89.119
 20
85.6102
 11
90
 21
86.2503
  0
LINE
  8
0
 10
90
 20
86.2503
 11
90
 21
87.8
  0
LINE
  8
0
 10
90
 20
87.8
 11
90.0656
 21
88.4237
  0
LINE
  8
0
 10
90.0656
 20
88.4237
 11
90.2594
 21
89.0202
  0
LINE
  8
0
 10
90.2594
 20
89.0202
 11
90.573
 21
89.5634
  0
LINE
  8
0
 10
90.573
 20
89.5634
 11
90.9926
 21
90.0294
  0
LINE
  8
0
 10
90.9926
 20
90.0294
 11
91.5
 21
90.3981
  0
LINE
  8
0
 10
91.5
 20
90.3981
 11
92.073
 21
90.6532
  0
LINE
  8
0
 10
92.073
 20
90.6532
 11
92.6864
 21
90.7836
  0
LINE
  8
0
 10
92.6864
 20
90.7836
 11
93.3136
 21
90.7836
  0
LINE
  8
0
 10
93.3136
 20
90.7836
 11
93.927
 21
90.6532
  0
LINE
  8
0
 10
93.927
 20
90.6532
 11
94.5
 21
90.3981
  0
LINE
  8
0
 10
94.5
 20
90.3981
 11
95.0074
 21
90.0294
  0
LINE
  8
0
 10
95.0074
 20
90.0294
 11
95.427
 21
89.5634
  0
LINE
  8
0
 10
95.427
 20
89.5634
 11
95.7406
 21
89.0202
  0
LINE
  8
0
 10
95.7406
 20
89.0202
 11
95.9344
 21
88.4237
  0
LINE
  8
0
 10
95.9344
 20
88.4237
 11
96
 21
87.8
  0
LINE
  8
0
 10
96
 20
87.8
 11
96
 21
86.2503
  0
LINE
  8
0
 10
96
 20
86.2503
 11
96.881
 21
85.6102
  0
LINE
  8
0
 10
96.881
 20
85.6102
 11
97.6923
 21
84.7092
  0
LINE
  8
0
 10
97.6923
 20
84.7092
 11
98.2986
 21
83.6591
  0
LINE
  8
0
 10
98.2986
 20
83.6591
 11
98.6732
 21
82.5059
  0
LINE
  8
0
 10
98.6732
 20
82.5059
 11
98.8
 21
81.3
  0
LINE
  8
0
 10
98.8
 20
81.3
 11
98.6732
 21
80.0941
  0
LINE
  8
0
 10
98.6732
 20
80.0941
 11
98.2986
 21
78.9409
  0
LINE
  8
0
 10
98.2986
 20
78.9409
 11
97.6923
 21
77.8909
  0
LINE
  8
0
 10
97.6923
 20
77.8909
 11
96.881
 21
76.9898
  0
LINE
  8
0
 10
96.881
 20
76.9898
 11
95.9
 21
76.2771
  0
LINE
  8
0
 10
95.9
 20
76.2771
 11
94.7923
 21
75.7839
  0
LINE
  8
0
 10
94.7923
 20
75.7839
 11
93.6063
 21
75.5318
  0
LINE
  8
0
 10
93.6063
 20
75.5318
 11
92.3937
 21
75.5318
  0
LINE
  8
0
 10
92.9164
 20
72.0044
 11
92.7528
 21
72.0392
  0
LINE
  8
0
 10
92.7528
 20
72.0392
 11
92.6
 21
72.1072
  0
LINE
  8
0
 10
92.6
 20
72.1072
 11
92.4647
 21
72.2055
  0
LINE
  8
0
 10
92.4647
 20
72.2055
 11
92.3528
 21
72.3298
  0
LINE
  8
0
 10
92.3528
 20
72.3298
 11
92.2692
 21
72.4746
  0
LINE
  8
0
 10
92.2692
 20
72.4746
 11
92.2175
 21
72.6337
  0
LINE
  8
0
 10
92.2175
 20
72.6337
 11
92.2
 21
72.8
  0
LINE
  8
0
 10
92.2
 20
72.8
 11
92.2175
 21
72.9663
  0
LINE
  8
0
 10
92.2175
 20
72.9663
 11
92.2692
 21
73.1254
  0
LINE
  8
0
 10
92.2692
 20
73.1254
 11
92.3528
 21
73.2702
  0
LINE
  8
0
 10
92.3528
 20
73.2702
 11
92.4647
 21
73.3945
  0
LINE
  8
0
 10
92.4647
 20
73.3945
 11
92.6
 21
73.4928
  0
LINE
  8
0
 10
92.6
 20
73.4928
 11
92.7528
 21
73.5609
  0
LINE
  8
0
 10
92.7528
 20
73.5609
 11
92.9164
 21
73.5956
  0
LINE
  8
0
 10
92.9164
 20
73.5956
 11
93.0836
 21
73.5956
  0
LINE
  8
0
 10
93.0836
 20
73.5956
 11
93.2472
 21
73.5609
  0
LINE
  8
0
 10
93.2472
 20
73.5609
 11
93.4
 21
73.4928
  0
LINE
  8
0
 10
93.4
 20
73.4928
 11
93.5353
 21
73.3945
  0
LINE
  8
0
 10
93.5353
 20
73.3945
 11
93.6472
 21
73.2702
  0
LINE
  8
0
 10
93.6472
 20
73.2702
 11
93.7308
 21
73.1254
  0
LINE
  8
0
 10
93.7308
 20
73.1254
 11
93.7825
 21
72.9663
  0
LINE
  8
0
 10
93.7825
 20
72.9663
 11
93.8
 21
72.8
  0
LINE
  8
0
 10
93.8
 20
72.8
 11
93.7825
 21
72.6337
  0
LINE
  8
0
 10
93.7825
 20
72.6337
 11
93.7308
 21
72.4746
  0
LINE
  8
0
 10
93.7308
 20
72.4746
 11
93.6472
 21
72.3298
  0
LINE
  8
0
 10
93.6472
 20
72.3298
 11
93.5353
 21
72.2055
  0
LINE
  8
0
 10
93.5353
 20
72.2055
 11
93.4
 21
72.1072
  0
LINE
  8
0
 10
93.4
 20
72.1072
 11
93.2472
 21
72.0392
  0
LINE
  8
0
 10
93.2472
 20
72.0392
 11
93.0836
 21
72.0044
  0
LINE
  8
0
 10
93.0836
 20
72.0044
 11
92.9164
 21
72.0044
  0
LINE
  8
0
 10
122.844
 20
102.032
 11
123.986
 21
102.181
  0
LINE
  8
0
 10
123.986
 20
102.181
 11
125.106
 21
102.448
  0
LINE
  8
0
 10
125.106
 20
102.448
 11
125.654
 21
102.625
  0
LINE
  8
0
 10
125.654
 20
102.625
 11
165.753
 21
116.795
  0
LINE
  8
0
 10
165.753
 20
116.795
 11
166.446
 21
117.211
  0
LINE
  8
0
 10
166.446
 20
117.211
 11
166.848
 21
117.555
  0
LINE
  8
0
 10
166.848
 20
117.555
 11
167.256
 21
118.021
  0
LINE
  8
0
 10
167.256
 20
118.021
 11
167.672
 21
118.715
  0
LINE
  8
0
 10
167.672
 20
118.715
 11
167.843
 21
119.141
  0
LINE
  8
0
 10
167.843
 20
119.141
 11
168.021
 21
119.92
  0
LINE
  8
0
 10
168.021
 20
119.92
 11
168.051
 21
120.428
  0
LINE
  8
0
 10
168.051
 20
120.428
 11
168.051
 21
120.448
  0
LINE
  8
0
 10
168.051
 20
120.448
 11
167.963
 21
121.252
  0
LINE
  8
0
 10
167.963
 20
121.252
 11
167.821
 21
121.751
  0
LINE
  8
0
 10
167.821
 20
121.751
 11
167.481
 21
122.474
  0
LINE
  8
0
 10
167.481
 20
122.474
 11
167.191
 21
122.893
  0
LINE
  8
0
 10
167.191
 20
122.893
 11
166.928
 21
123.194
  0
LINE
  8
0
 10
166.928
 20
123.194
 11
166.319
 21
123.71
  0
LINE
  8
0
 10
166.319
 20
123.71
 11
165.738
 21
124.042
  0
LINE
  8
0
 10
165.738
 20
124.042
 11
164.984
 21
124.305
  0
LINE
  8
0
 10
164.984
 20
124.305
 11
164.193
 21
124.412
  0
LINE
  8
0
 10
164.193
 20
124.412
 11
164.013
 21
124.415
  0
LINE
  8
0
 10
164.013
 20
124.415
 11
121.309
 21
123.978
  0
LINE
  8
0
 10
121.309
 20
123.978
 11
120.147
 21
123.843
  0
LINE
  8
0
 10
120.147
 20
123.843
 11
119.023
 21
123.59
  0
LINE
  8
0
 10
119.023
 20
123.59
 11
117.933
 21
123.22
  0
LINE
  8
0
 10
117.933
 20
123.22
 11
116.87
 21
122.73
  0
LINE
  8
0
 10
116.87
 20
122.73
 11
115.865
 21
122.13
  0
LINE
  8
0
 10
115.865
 20
122.13
 11
114.944
 21
121.439
  0
LINE
  8
0
 10
114.944
 20
121.439
 11
114.087
 21
120.641
  0
LINE
  8
0
 10
114.087
 20
120.641
 11
113.332
 21
119.772
  0
LINE
  8
0
 10
113.332
 20
119.772
 11
112.671
 21
118.829
  0
LINE
  8
0
 10
112.671
 20
118.829
 11
112.113
 21
117.822
  0
LINE
  8
0
 10
112.113
 20
117.822
 11
111.663
 21
116.762
  0
LINE
  8
0
 10
111.663
 20
116.762
 11
111.327
 21
115.661
  0
LINE
  8
0
 10
111.327
 20
115.661
 11
111.107
 21
114.531
  0
LINE
  8
0
 10
111.107
 20
114.531
 11
111.006
 21
113.365
  0
LINE
  8
0
 10
111.006
 20
113.365
 11
111.028
 21
112.214
  0
LINE
  8
0
 10
111.028
 20
112.214
 11
111.167
 21
111.09
  0
LINE
  8
0
 10
111.167
 20
111.09
 11
111.431
 21
109.95
  0
LINE
  8
0
 10
111.431
 20
109.95
 11
111.808
 21
108.862
  0
LINE
  8
0
 10
111.808
 20
108.862
 11
112.306
 21
107.802
  0
LINE
  8
0
 10
112.306
 20
107.802
 11
112.902
 21
106.817
  0
LINE
  8
0
 10
112.902
 20
106.817
 11
113.598
 21
105.9
  0
LINE
  8
0
 10
113.598
 20
105.9
 11
114.386
 21
105.061
  0
LINE
  8
0
 10
114.386
 20
105.061
 11
115.273
 21
104.297
  0
LINE
  8
0
 10
115.273
 20
104.297
 11
116.22
 21
103.641
  0
LINE
  8
0
 10
116.22
 20
103.641
 11
117.247
 21
103.08
  0
LINE
  8
0
 10
117.247
 20
103.08
 11
118.31
 21
102.637
  0
LINE
  8
0
 10
118.31
 20
102.637
 11
119.413
 21
102.308
  0
LINE
  8
0
 10
119.413
 20
102.308
 11
120.545
 21
102.097
  0
LINE
  8
0
 10
120.545
 20
102.097
 11
121.693
 21
102.004
  0
LINE
  8
0
 10
121.693
 20
102.004
 11
122.844
 21
102.032
  0
LINE
  8
0
 10
121.105
 20
109.41
 11
120.378
 21
109.674
  0
LINE
  8
0
 10
120.378
 20
109.674
 11
119.722
 21
110.084
  0
LINE
  8
0
 10
119.722
 20
110.084
 11
119.166
 21
110.622
  0
LINE
  8
0
 10
119.166
 20
110.622
 11
118.733
 21
111.263
  0
LINE
  8
0
 10
118.733
 20
111.263
 11
118.443
 21
111.98
  0
LINE
  8
0
 10
118.443
 20
111.98
 11
118.309
 21
112.742
  0
LINE
  8
0
 10
118.309
 20
112.742
 11
118.336
 21
113.515
  0
LINE
  8
0
 10
118.336
 20
113.515
 11
118.523
 21
114.265
  0
LINE
  8
0
 10
118.523
 20
114.265
 11
118.862
 21
114.961
  0
LINE
  8
0
 10
118.862
 20
114.961
 11
119.338
 21
115.57
  0
LINE
  8
0
 10
119.338
 20
115.57
 11
119.931
 21
116.067
  0
LINE
  8
0
 10
119.931
 20
116.067
 11
120.614
 21
116.431
  0
LINE
  8
0
 10
120.614
 20
116.431
 11
121.358
 21
116.644
  0
LINE
  8
0
 10
121.358
 20
116.644
 11
122.129
 21
116.698
  0
LINE
  8
0
 10
122.129
 20
116.698
 11
122.895
 21
116.59
  0
LINE
  8
0
 10
122.895
 20
116.59
 11
123.622
 21
116.326
  0
LINE
  8
0
 10
123.622
 20
116.326
 11
124.278
 21
115.916
  0
LINE
  8
0
 10
124.278
 20
115.916
 11
124.834
 21
115.378
  0
LINE
  8
0
 10
124.834
 20
115.378
 11
125.267
 21
114.737
  0
LINE
  8
0
 10
125.267
 20
114.737
 11
125.557
 21
114.02
  0
LINE
  8
0
 10
125.557
 20
114.02
 11
125.691
 21
113.258
  0
LINE
  8
0
 10
125.691
 20
113.258
 11
125.664
 21
112.485
  0
LINE
  8
0
 10
125.664
 20
112.485
 11
125.477
 21
111.735
  0
LINE
  8
0
 10
125.477
 20
111.735
 11
125.138
 21
111.039
  0
LINE
  8
0
 10
125.138
 20
111.039
 11
124.662
 21
110.43
  0
LINE
  8
0
 10
124.662
 20
110.43
 11
124.069
 21
109.933
  0
LINE
  8
0
 10
124.069
 20
109.933
 11
123.386
 21
109.569
  0
LINE
  8
0
 10
123.386
 20
109.569
 11
122.643
 21
109.356
  0
LINE
  8
0
 10
122.643
 20
109.356
 11
121.871
 21
109.302
  0
LINE
  8
0
 10
121.871
 20
109.302
 11
121.105
 21
109.41
  0
LINE
  8
0
 10
132.416
 20
114.373
 11
132.318
 21
114.409
  0
LINE
  8
0
 10
132.318
 20
114.409
 11
132.23
 21
114.464
  0
LINE
  8
0
 10
132.23
 20
114.464
 11
132.154
 21
114.537
  0
LINE
  8
0
 10
132.154
 20
114.537
 11
132.096
 21
114.623
  0
LINE
  8
0
 10
132.096
 20
114.623
 11
132.057
 21
114.72
  0
LINE
  8
0
 10
132.057
 20
114.72
 11
132.039
 21
114.823
  0
LINE
  8
0
 10
132.039
 20
114.823
 11
132.042
 21
114.928
  0
LINE
  8
0
 10
132.042
 20
114.928
 11
132.068
 21
115.029
  0
LINE
  8
0
 10
132.068
 20
115.029
 11
132.113
 21
115.123
  0
LINE
  8
0
 10
132.113
 20
115.123
 11
132.178
 21
115.205
  0
LINE
  8
0
 10
132.178
 20
115.205
 11
132.258
 21
115.273
  0
LINE
  8
0
 10
132.258
 20
115.273
 11
132.35
 21
115.322
  0
LINE
  8
0
 10
132.35
 20
115.322
 11
132.451
 21
115.35
  0
LINE
  8
0
 10
132.451
 20
115.35
 11
132.555
 21
115.358
  0
LINE
  8
0
 10
132.555
 20
115.358
 11
132.658
 21
115.343
  0
LINE
  8
0
 10
132.658
 20
115.343
 11
132.757
 21
115.307
  0
LINE
  8
0
 10
132.757
 20
115.307
 11
132.845
 21
115.252
  0
LINE
  8
0
 10
132.845
 20
115.252
 11
132.92
 21
115.179
  0
LINE
  8
0
 10
132.92
 20
115.179
 11
132.979
 21
115.093
  0
LINE
  8
0
 10
132.979
 20
115.093
 11
133.018
 21
114.996
  0
LINE
  8
0
 10
133.018
 20
114.996
 11
133.036
 21
114.893
  0
LINE
  8
0
 10
133.036
 20
114.893
 11
133.033
 21
114.788
  0
LINE
  8
0
 10
133.033
 20
114.788
 11
133.007
 21
114.687
  0
LINE
  8
0
 10
133.007
 20
114.687
 11
132.961
 21
114.593
  0
LINE
  8
0
 10
132.961
 20
114.593
 11
132.897
 21
114.511
  0
LINE
  8
0
 10
132.897
 20
114.511
 11
132.817
 21
114.444
  0
LINE
  8
0
 10
132.817
 20
114.444
 11
132.725
 21
114.394
  0
LINE
  8
0
 10
132.725
 20
114.394
 11
132.624
 21
114.366
  0
LINE
  8
0
 10
132.624
 20
114.366
 11
132.52
 21
114.358
  0
LINE
  8
0
 10
132.52
 20
114.358
 11
132.416
 21
114.373
  0
LINE
  8
0
 10
20.7
 20
97.0455
 11
21.8554
 21
97.2132
  0
LINE
  8
0
 10
21.8554
 20
97.2132
 11
22.9711
 21
97.4976
  0
LINE
  8
0
 10
22.9711
 20
97.4976
 11
24.051
 21
97.8971
  0
LINE
  8
0
 10
24.051
 20
97.8971
 11
25.0832
 21
98.4072
  0
LINE
  8
0
 10
25.0832
 20
98.4072
 11
26.0564
 21
99.0225
  0
LINE
  8
0
 10
26.0564
 20
99.0225
 11
26.9744
 21
99.7488
  0
LINE
  8
0
 10
26.9744
 20
99.7488
 11
27.7971
 21
100.554
  0
LINE
  8
0
 10
27.7971
 20
100.554
 11
28.531
 21
101.442
  0
LINE
  8
0
 10
28.531
 20
101.442
 11
29.1779
 21
102.417
  0
LINE
  8
0
 10
29.1779
 20
102.417
 11
29.7016
 21
103.421
  0
LINE
  8
0
 10
29.7016
 20
103.421
 11
30.1316
 21
104.51
  0
LINE
  8
0
 10
30.1316
 20
104.51
 11
30.4393
 21
105.619
  0
LINE
  8
0
 10
30.4393
 20
105.619
 11
30.6293
 21
106.755
  0
LINE
  8
0
 10
30.6293
 20
106.755
 11
30.6437
 21
106.888
  0
LINE
  8
0
 10
30.6437
 20
106.888
 11
30.6998
 21
108.058
  0
LINE
  8
0
 10
30.6998
 20
108.058
 11
30.6336
 21
109.207
  0
LINE
  8
0
 10
30.6336
 20
109.207
 11
30.4475
 21
110.343
  0
LINE
  8
0
 10
30.4475
 20
110.343
 11
30.1437
 21
111.454
  0
LINE
  8
0
 10
30.1437
 20
111.454
 11
29.7254
 21
112.527
  0
LINE
  8
0
 10
29.7254
 20
112.527
 11
29.1877
 21
113.566
  0
LINE
  8
0
 10
29.1877
 20
113.566
 11
28.5538
 21
114.528
  0
LINE
  8
0
 10
28.5538
 20
114.528
 11
27.8359
 21
115.403
  0
LINE
  8
0
 10
27.8359
 20
115.403
 11
27.3826
 21
115.873
  0
LINE
  8
0
 10
27.3826
 20
115.873
 11
26.5176
 21
116.633
  0
LINE
  8
0
 10
26.5176
 20
116.633
 11
25.5616
 21
117.308
  0
LINE
  8
0
 10
25.5616
 20
117.308
 11
24.5566
 21
117.87
  0
LINE
  8
0
 10
24.5566
 20
117.87
 11
23.4803
 21
118.33
  0
LINE
  8
0
 10
23.4803
 20
118.33
 11
22.3611
 21
118.673
  0
LINE
  8
0
 10
22.3611
 20
118.673
 11
21.2309
 21
118.893
  0
LINE
  8
0
 10
21.2309
 20
118.893
 11
20.7
 21
118.954
  0
LINE
  8
0
 10
20.7
 20
118.954
 11
20.7
 21
119
  0
LINE
  8
0
 10
20.7
 20
119
 11
-17.5757
 21
118.985
  0
LINE
  8
0
 10
-17.5757
 20
118.985
 11
-18.7208
 21
118.865
  0
LINE
  8
0
 10
-18.7208
 20
118.865
 11
-19.847
 21
118.625
  0
LINE
  8
0
 10
-19.847
 20
118.625
 11
-20.942
 21
118.269
  0
LINE
  8
0
 10
-20.942
 20
118.269
 11
-21.9939
 21
117.801
  0
LINE
  8
0
 10
-21.9939
 20
117.801
 11
-22.991
 21
117.225
  0
LINE
  8
0
 10
-22.991
 20
117.225
 11
-23.9225
 21
116.549
  0
LINE
  8
0
 10
-23.9225
 20
116.549
 11
-24.7782
 21
115.778
  0
LINE
  8
0
 10
-24.7782
 20
115.778
 11
-25.5607
 21
114.908
  0
LINE
  8
0
 10
-25.5607
 20
114.908
 11
-26.2462
 21
113.959
  0
LINE
  8
0
 10
-26.2462
 20
113.959
 11
-26.8184
 21
112.96
  0
LINE
  8
0
 10
-26.8184
 20
112.96
 11
-27.2831
 21
111.906
  0
LINE
  8
0
 10
-27.2831
 20
111.906
 11
-27.6351
 21
110.81
  0
LINE
  8
0
 10
-27.6351
 20
110.81
 11
-27.8734
 21
109.664
  0
LINE
  8
0
 10
-27.8734
 20
109.664
 11
-27.9878
 21
108.518
  0
LINE
  8
0
 10
-27.9878
 20
108.518
 11
-27.9806
 21
107.348
  0
LINE
  8
0
 10
-27.9806
 20
107.348
 11
-27.8491
 21
106.184
  0
LINE
  8
0
 10
-27.8491
 20
106.184
 11
-27.5999
 21
105.06
  0
LINE
  8
0
 10
-27.5999
 20
105.06
 11
-27.2346
 21
103.968
  0
LINE
  8
0
 10
-27.2346
 20
103.968
 11
-26.7571
 21
102.921
  0
LINE
  8
0
 10
-26.7571
 20
102.921
 11
-26.1727
 21
101.929
  0
LINE
  8
0
 10
-26.1727
 20
101.929
 11
-25.4879
 21
101.003
  0
LINE
  8
0
 10
-25.4879
 20
101.003
 11
-24.71
 21
100.154
  0
LINE
  8
0
 10
-24.71
 20
100.154
 11
-23.8477
 21
99.3913
  0
LINE
  8
0
 10
-23.8477
 20
99.3913
 11
-22.9103
 21
98.7227
  0
LINE
  8
0
 10
-22.9103
 20
98.7227
 11
-21.9082
 21
98.1557
  0
LINE
  8
0
 10
-21.9082
 20
98.1557
 11
-20.8523
 21
97.6966
  0
LINE
  8
0
 10
-20.8523
 20
97.6966
 11
-19.7542
 21
97.3504
  0
LINE
  8
0
 10
-19.7542
 20
97.3504
 11
-18.6259
 21
97.1208
  0
LINE
  8
0
 10
-18.6259
 20
97.1208
 11
-17.4798
 21
97.0105
  0
LINE
  8
0
 10
-17.4798
 20
97.0105
 11
-17
 21
97
  0
LINE
  8
0
 10
-17
 20
97
 11
20.7
 21
97
  0
LINE
  8
0
 10
20.7
 20
97
 11
20.7
 21
97.0455
  0
LINE
  8
0
 10
18.4941
 20
102.327
 11
17.3409
 21
102.701
  0
LINE
  8
0
 10
17.3409
 20
102.701
 11
16.2908
 21
103.308
  0
LINE
  8
0
 10
16.2908
 20
103.308
 11
15.3898
 21
104.119
  0
LINE
  8
0
 10
15.3898
 20
104.119
 11
14.7497
 21
105
  0
LINE
  8
0
 10
14.7497
 20
105
 11
13.2
 21
105
  0
LINE
  8
0
 10
13.2
 20
105
 11
12.5763
 21
105.066
  0
LINE
  8
0
 10
12.5763
 20
105.066
 11
11.9798
 21
105.259
  0
LINE
  8
0
 10
11.9798
 20
105.259
 11
11.4366
 21
105.573
  0
LINE
  8
0
 10
11.4366
 20
105.573
 11
10.9706
 21
105.993
  0
LINE
  8
0
 10
10.9706
 20
105.993
 11
10.6019
 21
106.5
  0
LINE
  8
0
 10
10.6019
 20
106.5
 11
10.3468
 21
107.073
  0
LINE
  8
0
 10
10.3468
 20
107.073
 11
10.2164
 21
107.686
  0
LINE
  8
0
 10
10.2164
 20
107.686
 11
10.2164
 21
108.314
  0
LINE
  8
0
 10
10.2164
 20
108.314
 11
10.3468
 21
108.927
  0
LINE
  8
0
 10
10.3468
 20
108.927
 11
10.6019
 21
109.5
  0
LINE
  8
0
 10
10.6019
 20
109.5
 11
10.9706
 21
110.007
  0
LINE
  8
0
 10
10.9706
 20
110.007
 11
11.4366
 21
110.427
  0
LINE
  8
0
 10
11.4366
 20
110.427
 11
11.9798
 21
110.741
  0
LINE
  8
0
 10
11.9798
 20
110.741
 11
12.5763
 21
110.934
  0
LINE
  8
0
 10
12.5763
 20
110.934
 11
13.2
 21
111
  0
LINE
  8
0
 10
13.2
 20
111
 11
14.7497
 21
111
  0
LINE
  8
0
 10
14.7497
 20
111
 11
15.3898
 21
111.881
  0
LINE
  8
0
 10
15.3898
 20
111.881
 11
16.2908
 21
112.692
  0
LINE
  8
0
 10
16.2908
 20
112.692
 11
17.3409
 21
113.299
  0
LINE
  8
0
 10
17.3409
 20
113.299
 11
18.4941
 21
113.673
  0
LINE
  8
0
 10
18.4941
 20
113.673
 11
19.7
 21
113.8
  0
LINE
  8
0
 10
19.7
 20
113.8
 11
20.9059
 21
113.673
  0
LINE
  8
0
 10
20.9059
 20
113.673
 11
22.0591
 21
113.299
  0
LINE
  8
0
 10
22.0591
 20
113.299
 11
23.1091
 21
112.692
  0
LINE
  8
0
 10
23.1091
 20
112.692
 11
24.0102
 21
111.881
  0
LINE
  8
0
 10
24.0102
 20
111.881
 11
24.7229
 21
110.9
  0
LINE
  8
0
 10
24.7229
 20
110.9
 11
25.2161
 21
109.792
  0
LINE
  8
0
 10
25.2161
 20
109.792
 11
25.4682
 21
108.606
  0
LINE
  8
0
 10
25.4682
 20
108.606
 11
25.4682
 21
107.394
  0
LINE
  8
0
 10
25.4682
 20
107.394
 11
25.2161
 21
106.208
  0
LINE
  8
0
 10
25.2161
 20
106.208
 11
24.7229
 21
105.1
  0
LINE
  8
0
 10
24.7229
 20
105.1
 11
24.0102
 21
104.119
  0
LINE
  8
0
 10
24.0102
 20
104.119
 11
23.1091
 21
103.308
  0
LINE
  8
0
 10
23.1091
 20
103.308
 11
22.0591
 21
102.701
  0
LINE
  8
0
 10
22.0591
 20
102.701
 11
20.9059
 21
102.327
  0
LINE
  8
0
 10
20.9059
 20
102.327
 11
19.7
 21
102.2
  0
LINE
  8
0
 10
19.7
 20
102.2
 11
18.4941
 21
102.327
  0
LINE
  8
0
 10
-17.7277
 20
104.576
 11
-18.4236
 21
104.803
  0
LINE
  8
0
 10
-18.4236
 20
104.803
 11
-19.0572
 21
105.168
  0
LINE
  8
0
 10
-19.0572
 20
105.168
 11
-19.601
 21
105.658
  0
LINE
  8
0
 10
-19.601
 20
105.658
 11
-20.0311
 21
106.25
  0
LINE
  8
0
 10
-20.0311
 20
106.25
 11
-20.3287
 21
106.918
  0
LINE
  8
0
 10
-20.3287
 20
106.918
 11
-20.4808
 21
107.634
  0
LINE
  8
0
 10
-20.4808
 20
107.634
 11
-20.4808
 21
108.366
  0
LINE
  8
0
 10
-20.4808
 20
108.366
 11
-20.3287
 21
109.082
  0
LINE
  8
0
 10
-20.3287
 20
109.082
 11
-20.0311
 21
109.75
  0
LINE
  8
0
 10
-20.0311
 20
109.75
 11
-19.601
 21
110.342
  0
LINE
  8
0
 10
-19.601
 20
110.342
 11
-19.0572
 21
110.832
  0
LINE
  8
0
 10
-19.0572
 20
110.832
 11
-18.4236
 21
111.197
  0
LINE
  8
0
 10
-18.4236
 20
111.197
 11
-17.7277
 21
111.424
  0
LINE
  8
0
 10
-17.7277
 20
111.424
 11
-17
 21
111.5
  0
LINE
  8
0
 10
-17
 20
111.5
 11
-16.2723
 21
111.424
  0
LINE
  8
0
 10
-16.2723
 20
111.424
 11
-15.5764
 21
111.197
  0
LINE
  8
0
 10
-15.5764
 20
111.197
 11
-14.9428
 21
110.832
  0
LINE
  8
0
 10
-14.9428
 20
110.832
 11
-14.399
 21
110.342
  0
LINE
  8
0
 10
-14.399
 20
110.342
 11
-13.9689
 21
109.75
  0
LINE
  8
0
 10
-13.9689
 20
109.75
 11
-13.6713
 21
109.082
  0
LINE
  8
0
 10
-13.6713
 20
109.082
 11
-13.5192
 21
108.366
  0
LINE
  8
0
 10
-13.5192
 20
108.366
 11
-13.5192
 21
107.634
  0
LINE
  8
0
 10
-13.5192
 20
107.634
 11
-13.6713
 21
106.918
  0
LINE
  8
0
 10
-13.6713
 20
106.918
 11
-13.9689
 21
106.25
  0
LINE
  8
0
 10
-13.9689
 20
106.25
 11
-14.399
 21
105.658
  0
LINE
  8
0
 10
-14.399
 20
105.658
 11
-14.9428
 21
105.168
  0
LINE
  8
0
 10
-14.9428
 20
105.168
 11
-15.5764
 21
104.803
  0
LINE
  8
0
 10
-15.5764
 20
104.803
 11
-16.2723
 21
104.576
  0
LINE
  8
0
 10
-16.2723
 20
104.576
 11
-17
 21
104.5
  0
LINE
  8
0
 10
-17
 20
104.5
 11
-17.7277
 21
104.576
  0
LINE
  8
0
 10
-0.666336
 20
107.217
 11
-0.825394
 21
107.269
  0
LINE
  8
0
 10
-0.825394
 20
107.269
 11
-0.97023
 21
107.353
  0
LINE
  8
0
 10
-0.97023
 20
107.353
 11
-1.09453
 21
107.465
  0
LINE
  8
0
 10
-1.09453
 20
107.465
 11
-1.19283
 21
107.6
  0
LINE
  8
0
 10
-1.19283
 20
107.6
 11
-1.26085
 21
107.753
  0
LINE
  8
0
 10
-1.26085
 20
107.753
 11
-1.29562
 21
107.916
  0
LINE
  8
0
 10
-1.29562
 20
107.916
 11
-1.29562
 21
108.084
  0
LINE
  8
0
 10
-1.29562
 20
108.084
 11
-1.26085
 21
108.247
  0
LINE
  8
0
 10
-1.26085
 20
108.247
 11
-1.19283
 21
108.4
  0
LINE
  8
0
 10
-1.19283
 20
108.4
 11
-1.09453
 21
108.535
  0
LINE
  8
0
 10
-1.09453
 20
108.535
 11
-0.97023
 21
108.647
  0
LINE
  8
0
 10
-0.97023
 20
108.647
 11
-0.825394
 21
108.731
  0
LINE
  8
0
 10
-0.825394
 20
108.731
 11
-0.666336
 21
108.783
  0
LINE
  8
0
 10
-0.666336
 20
108.783
 11
-0.5
 21
108.8
  0
LINE
  8
0
 10
-0.5
 20
108.8
 11
-0.333679
 21
108.783
  0
LINE
  8
0
 10
-0.333679
 20
108.783
 11
-0.174622
 21
108.731
  0
LINE
  8
0
 10
-0.174622
 20
108.731
 11
-0.0297852
 21
108.647
  0
LINE
  8
0
 10
-0.0297852
 20
108.647
 11
0.0945129
 21
108.535
  0
LINE
  8
0
 10
0.0945129
 20
108.535
 11
0.19281
 21
108.4
  0
LINE
  8
0
 10
0.19281
 20
108.4
 11
0.260834
 21
108.247
  0
LINE
  8
0
 10
0.260834
 20
108.247
 11
0.295609
 21
108.084
  0
LINE
  8
0
 10
0.295609
 20
108.084
 11
0.295609
 21
107.916
  0
LINE
  8
0
 10
0.295609
 20
107.916
 11
0.260834
 21
107.753
  0
LINE
  8
0
 10
0.260834
 20
107.753
 11
0.19281
 21
107.6
  0
LINE
  8
0
 10
0.19281
 20
107.6
 11
0.0945129
 21
107.465
  0
LINE
  8
0
 10
0.0945129
 20
107.465
 11
-0.0297852
 21
107.353
  0
LINE
  8
0
 10
-0.0297852
 20
107.353
 11
-0.174622
 21
107.269
  0
LINE
  8
0
 10
-0.174622
 20
107.269
 11
-0.333679
 21
107.217
  0
LINE
  8
0
 10
-0.333679
 20
107.217
 11
-0.5
 21
107.2
  0
LINE
  8
0
 10
-0.5
 20
107.2
 11
-0.666336
 21
107.217
  0
LINE
  8
0
 10
28.0337
 20
107.217
 11
27.8746
 21
107.269
  0
LINE
  8
0
 10
27.8746
 20
107.269
 11
27.7298
 21
107.353
  0
LINE
  8
0
 10
27.7298
 20
107.353
 11
27.6055
 21
107.465
  0
LINE
  8
0
 10
27.6055
 20
107.465
 11
27.5072
 21
107.6
  0
LINE
  8
0
 10
27.5072
 20
107.6
 11
27.4391
 21
107.753
  0
LINE
  8
0
 10
27.4391
 20
107.753
 11
27.4044
 21
107.916
  0
LINE
  8
0
 10
27.4044
 20
107.916
 11
27.4044
 21
108.084
  0
LINE
  8
0
 10
27.4044
 20
108.084
 11
27.4391
 21
108.247
  0
LINE
  8
0
 10
27.4391
 20
108.247
 11
27.5072
 21
108.4
  0
LINE
  8
0
 10
27.5072
 20
108.4
 11
27.6055
 21
108.535
  0
LINE
  8
0
 10
27.6055
 20
108.535
 11
27.7298
 21
108.647
  0
LINE
  8
0
 10
27.7298
 20
108.647
 11
27.8746
 21
108.731
  0
LINE
  8
0
 10
27.8746
 20
108.731
 11
28.0337
 21
108.783
  0
LINE
  8
0
 10
28.0337
 20
108.783
 11
28.2
 21
108.8
  0
LINE
  8
0
 10
28.2
 20
108.8
 11
28.3663
 21
108.783
  0
LINE
  8
0
 10
28.3663
 20
108.783
 11
28.5254
 21
108.731
  0
LINE
  8
0
 10
28.5254
 20
108.731
 11
28.6702
 21
108.647
  0
LINE
  8
0
 10
28.6702
 20
108.647
 11
28.7945
 21
108.535
  0
LINE
  8
0
 10
28.7945
 20
108.535
 11
28.8928
 21
108.4
  0
LINE
  8
0
 10
28.8928
 20
108.4
 11
28.9608
 21
108.247
  0
LINE
  8
0
 10
28.9608
 20
108.247
 11
28.9956
 21
108.084
  0
LINE
  8
0
 10
28.9956
 20
108.084
 11
28.9956
 21
107.916
  0
LINE
  8
0
 10
28.9956
 20
107.916
 11
28.9608
 21
107.753
  0
LINE
  8
0
 10
28.9608
 20
107.753
 11
28.8928
 21
107.6
  0
LINE
  8
0
 10
28.8928
 20
107.6
 11
28.7945
 21
107.465
  0
LINE
  8
0
 10
28.7945
 20
107.465
 11
28.6702
 21
107.353
  0
LINE
  8
0
 10
28.6702
 20
107.353
 11
28.5254
 21
107.269
  0
LINE
  8
0
 10
28.5254
 20
107.269
 11
28.3663
 21
107.217
  0
LINE
  8
0
 10
28.3663
 20
107.217
 11
28.2
 21
107.2
  0
LINE
  8
0
 10
28.2
 20
107.2
 11
28.0337
 21
107.217
  0
LINE
  8
0
 10
-7.87241
 20
102.203
 11
-7.97464
 21
102.224
  0
LINE
  8
0
 10
-7.97464
 20
102.224
 11
-8.07014
 21
102.267
  0
LINE
  8
0
 10
-8.07014
 20
102.267
 11
-8.15471
 21
102.328
  0
LINE
  8
0
 10
-8.15471
 20
102.328
 11
-8.22464
 21
102.406
  0
LINE
  8
0
 10
-8.22464
 20
102.406
 11
-8.27692
 21
102.497
  0
LINE
  8
0
 10
-8.27692
 20
102.497
 11
-8.30922
 21
102.596
  0
LINE
  8
0
 10
-8.30922
 20
102.596
 11
-8.32014
 21
102.7
  0
LINE
  8
0
 10
-8.32014
 20
102.7
 11
-8.30922
 21
102.804
  0
LINE
  8
0
 10
-8.30922
 20
102.804
 11
-8.27692
 21
102.903
  0
LINE
  8
0
 10
-8.27692
 20
102.903
 11
-8.22464
 21
102.994
  0
LINE
  8
0
 10
-8.22464
 20
102.994
 11
-8.15471
 21
103.072
  0
LINE
  8
0
 10
-8.15471
 20
103.072
 11
-8.07014
 21
103.133
  0
LINE
  8
0
 10
-8.07014
 20
103.133
 11
-7.97464
 21
103.176
  0
LINE
  8
0
 10
-7.97464
 20
103.176
 11
-7.87241
 21
103.197
  0
LINE
  8
0
 10
-7.87241
 20
103.197
 11
-7.76787
 21
103.197
  0
LINE
  8
0
 10
-7.76787
 20
103.197
 11
-7.66563
 21
103.176
  0
LINE
  8
0
 10
-7.66563
 20
103.176
 11
-7.57014
 21
103.133
  0
LINE
  8
0
 10
-7.57014
 20
103.133
 11
-7.48558
 21
103.072
  0
LINE
  8
0
 10
-7.48558
 20
103.072
 11
-7.41563
 21
102.994
  0
LINE
  8
0
 10
-7.41563
 20
102.994
 11
-7.36337
 21
102.903
  0
LINE
  8
0
 10
-7.36337
 20
102.903
 11
-7.33107
 21
102.804
  0
LINE
  8
0
 10
-7.33107
 20
102.804
 11
-7.32014
 21
102.7
  0
LINE
  8
0
 10
-7.32014
 20
102.7
 11
-7.33107
 21
102.596
  0
LINE
  8
0
 10
-7.33107
 20
102.596
 11
-7.36337
 21
102.497
  0
LINE
  8
0
 10
-7.36337
 20
102.497
 11
-7.41563
 21
102.406
  0
LINE
  8
0
 10
-7.41563
 20
102.406
 11
-7.48558
 21
102.328
  0
LINE
  8
0
 10
-7.48558
 20
102.328
 11
-7.57014
 21
102.267
  0
LINE
  8
0
 10
-7.57014
 20
102.267
 11
-7.66563
 21
102.224
  0
LINE
  8
0
 10
-7.66563
 20
102.224
 11
-7.76787
 21
102.203
  0
LINE
  8
0
 10
-7.76787
 20
102.203
 11
-7.87241
 21
102.203
  0
LINE
  8
0
 10
31.9627
 20
67
 11
32
 21
67
  0
LINE
  8
0
 10
32
 20
67
 11
32
 21
67.0373
  0
LINE
  8
0
 10
32
 20
67.0373
 11
64.4853
 21
99.5226
  0
LINE
  8
0
 10
64.4853
 20
99.5226
 11
64.4531
 21
99.5548
  0
LINE
  8
0
 10
64.4531
 20
99.5548
 11
65.1408
 21
100.474
  0
LINE
  8
0
 10
65.1408
 20
100.474
 11
65.7304
 21
101.463
  0
LINE
  8
0
 10
65.7304
 20
101.463
 11
66.2205
 21
102.526
  0
LINE
  8
0
 10
66.2205
 20
102.526
 11
66.5948
 21
103.636
  0
LINE
  8
0
 10
66.5948
 20
103.636
 11
66.8459
 21
104.759
  0
LINE
  8
0
 10
66.8459
 20
104.759
 11
66.9783
 21
105.903
  0
LINE
  8
0
 10
66.9783
 20
105.903
 11
66.9903
 21
107.054
  0
LINE
  8
0
 10
66.9903
 20
107.054
 11
66.882
 21
108.201
  0
LINE
  8
0
 10
66.882
 20
108.201
 11
66.6544
 21
109.329
  0
LINE
  8
0
 10
66.6544
 20
109.329
 11
66.3034
 21
110.446
  0
LINE
  8
0
 10
66.3034
 20
110.446
 11
65.8357
 21
111.519
  0
LINE
  8
0
 10
65.8357
 20
111.519
 11
65.267
 21
112.52
  0
LINE
  8
0
 10
65.267
 20
112.52
 11
64.5967
 21
113.456
  0
LINE
  8
0
 10
64.5967
 20
113.456
 11
63.8188
 21
114.331
  0
LINE
  8
0
 10
63.8188
 20
114.331
 11
62.9523
 21
115.118
  0
LINE
  8
0
 10
62.9523
 20
115.118
 11
62.0232
 21
115.798
  0
LINE
  8
0
 10
62.0232
 20
115.798
 11
61.0281
 21
116.377
  0
LINE
  8
0
 10
61.0281
 20
116.377
 11
59.9779
 21
116.849
  0
LINE
  8
0
 10
59.9779
 20
116.849
 11
58.8841
 21
117.209
  0
LINE
  8
0
 10
58.8841
 20
117.209
 11
57.7587
 21
117.452
  0
LINE
  8
0
 10
57.7587
 20
117.452
 11
56.614
 21
117.576
  0
LINE
  8
0
 10
56.614
 20
117.576
 11
55.4435
 21
117.58
  0
LINE
  8
0
 10
55.4435
 20
117.58
 11
54.2792
 21
117.458
  0
LINE
  8
0
 10
54.2792
 20
117.458
 11
53.153
 21
117.219
  0
LINE
  8
0
 10
53.153
 20
117.219
 11
52.058
 21
116.863
  0
LINE
  8
0
 10
52.058
 20
116.863
 11
50.989
 21
116.386
  0
LINE
  8
0
 10
50.989
 20
116.386
 11
49.9768
 21
115.798
  0
LINE
  8
0
 10
49.9768
 20
115.798
 11
49.1073
 21
115.166
  0
LINE
  8
0
 10
49.1073
 20
115.166
 11
48.9611
 21
115.047
  0
LINE
  8
0
 10
48.9611
 20
115.047
 11
48.9289
 21
115.079
  0
LINE
  8
0
 10
48.9289
 20
115.079
 11
26.85
 21
93
  0
LINE
  8
0
 10
26.85
 20
93
 11
-26.9
 21
93
  0
LINE
  8
0
 10
-26.9
 20
93
 11
-48.9789
 21
115.079
  0
LINE
  8
0
 10
-48.9789
 20
115.079
 11
-49.0111
 21
115.047
  0
LINE
  8
0
 10
-49.0111
 20
115.047
 11
-49.9307
 21
115.734
  0
LINE
  8
0
 10
-49.9307
 20
115.734
 11
-50.9197
 21
116.324
  0
LINE
  8
0
 10
-50.9197
 20
116.324
 11
-51.965
 21
116.807
  0
LINE
  8
0
 10
-51.965
 20
116.807
 11
-53.0364
 21
117.173
  0
LINE
  8
0
 10
-53.0364
 20
117.173
 11
-54.1777
 21
117.433
  0
LINE
  8
0
 10
-54.1777
 20
117.433
 11
-54.9384
 21
117.537
  0
LINE
  8
0
 10
-54.9384
 20
117.537
 11
-56.0884
 21
117.594
  0
LINE
  8
0
 10
-56.0884
 20
117.594
 11
-57.238
 21
117.529
  0
LINE
  8
0
 10
-57.238
 20
117.529
 11
-58.3746
 21
117.345
  0
LINE
  8
0
 10
-58.3746
 20
117.345
 11
-59.4857
 21
117.043
  0
LINE
  8
0
 10
-59.4857
 20
117.043
 11
-60.5591
 21
116.627
  0
LINE
  8
0
 10
-60.5591
 20
116.627
 11
-61.5998
 21
116.091
  0
LINE
  8
0
 10
-61.5998
 20
116.091
 11
-62.5621
 21
115.459
  0
LINE
  8
0
 10
-62.5621
 20
115.459
 11
-63.4531
 21
114.73
  0
LINE
  8
0
 10
-63.4531
 20
114.73
 11
-64.263
 21
113.911
  0
LINE
  8
0
 10
-64.263
 20
113.911
 11
-64.9829
 21
113.013
  0
LINE
  8
0
 10
-64.9829
 20
113.013
 11
-65.6049
 21
112.044
  0
LINE
  8
0
 10
-65.6049
 20
112.044
 11
-66.1223
 21
111.015
  0
LINE
  8
0
 10
-66.1223
 20
111.015
 11
-66.5351
 21
109.92
  0
LINE
  8
0
 10
-66.5351
 20
109.92
 11
-66.8253
 21
108.805
  0
LINE
  8
0
 10
-66.8253
 20
108.805
 11
-66.9994
 21
107.648
  0
LINE
  8
0
 10
-66.9994
 20
107.648
 11
-67.0496
 21
106.498
  0
LINE
  8
0
 10
-67.0496
 20
106.498
 11
-66.9793
 21
105.348
  0
LINE
  8
0
 10
-66.9793
 20
105.348
 11
-66.7934
 21
104.232
  0
LINE
  8
0
 10
-66.7934
 20
104.232
 11
-66.4937
 21
103.14
  0
LINE
  8
0
 10
-66.4937
 20
103.14
 11
-66.0754
 21
102.067
  0
LINE
  8
0
 10
-66.0754
 20
102.067
 11
-65.5473
 21
101.044
  0
LINE
  8
0
 10
-65.5473
 20
101.044
 11
-64.9152
 21
100.081
  0
LINE
  8
0
 10
-64.9152
 20
100.081
 11
-64.5031
 21
99.5548
  0
LINE
  8
0
 10
-64.5031
 20
99.5548
 11
-64.5353
 21
99.5226
  0
LINE
  8
0
 10
-64.5353
 20
99.5226
 11
-32.0084
 21
66.9957
  0
LINE
  8
0
 10
-32.0084
 20
66.9957
 11
-32
 21
67.004
  0
LINE
  8
0
 10
-32
 20
67.004
 11
-32
 21
67
  0
LINE
  8
0
 10
-32
 20
67
 11
31.954
 21
67
  0
LINE
  8
0
 10
31.954
 20
67
 11
31.9584
 21
66.9957
  0
LINE
  8
0
 10
31.9584
 20
66.9957
 11
31.9627
 21
67
  0
LINE
  8
0
 10
-62.1855
 20
111.814
 11
-62.3471
 21
111.857
  0
LINE
  8
0
 10
-62.3471
 20
111.857
 11
-62.4961
 21
111.933
  0
LINE
  8
0
 10
-62.4961
 20
111.933
 11
-62.6261
 21
112.038
  0
LINE
  8
0
 10
-62.6261
 20
112.038
 11
-62.7313
 21
112.168
  0
LINE
  8
0
 10
-62.7313
 20
112.168
 11
-62.8073
 21
112.317
  0
LINE
  8
0
 10
-62.8073
 20
112.317
 11
-62.8506
 21
112.479
  0
LINE
  8
0
 10
-62.8506
 20
112.479
 11
-62.8593
 21
112.646
  0
LINE
  8
0
 10
-62.8593
 20
112.646
 11
-62.8331
 21
112.811
  0
LINE
  8
0
 10
-62.8331
 20
112.811
 11
-62.7732
 21
112.967
  0
LINE
  8
0
 10
-62.7732
 20
112.967
 11
-62.6821
 21
113.108
  0
LINE
  8
0
 10
-62.6821
 20
113.108
 11
-62.5639
 21
113.226
  0
LINE
  8
0
 10
-62.5639
 20
113.226
 11
-62.4236
 21
113.317
  0
LINE
  8
0
 10
-62.4236
 20
113.317
 11
-62.2675
 21
113.377
  0
LINE
  8
0
 10
-62.2675
 20
113.377
 11
-62.1023
 21
113.403
  0
LINE
  8
0
 10
-62.1023
 20
113.403
 11
-61.9353
 21
113.394
  0
LINE
  8
0
 10
-61.9353
 20
113.394
 11
-61.7737
 21
113.351
  0
LINE
  8
0
 10
-61.7737
 20
113.351
 11
-61.6247
 21
113.275
  0
LINE
  8
0
 10
-61.6247
 20
113.275
 11
-61.4947
 21
113.17
  0
LINE
  8
0
 10
-61.4947
 20
113.17
 11
-61.3895
 21
113.04
  0
LINE
  8
0
 10
-61.3895
 20
113.04
 11
-61.3135
 21
112.891
  0
LINE
  8
0
 10
-61.3135
 20
112.891
 11
-61.2702
 21
112.729
  0
LINE
  8
0
 10
-61.2702
 20
112.729
 11
-61.2615
 21
112.562
  0
LINE
  8
0
 10
-61.2615
 20
112.562
 11
-61.2877
 21
112.397
  0
LINE
  8
0
 10
-61.2877
 20
112.397
 11
-61.3476
 21
112.241
  0
LINE
  8
0
 10
-61.3476
 20
112.241
 11
-61.4387
 21
112.101
  0
LINE
  8
0
 10
-61.4387
 20
112.101
 11
-61.5569
 21
111.982
  0
LINE
  8
0
 10
-61.5569
 20
111.982
 11
-61.6972
 21
111.891
  0
LINE
  8
0
 10
-61.6972
 20
111.891
 11
-61.8533
 21
111.831
  0
LINE
  8
0
 10
-61.8533
 20
111.831
 11
-62.0185
 21
111.805
  0
LINE
  8
0
 10
-62.0185
 20
111.805
 11
-62.1855
 21
111.814
  0
LINE
  8
0
 10
61.8033
 20
111.831
 11
61.6472
 21
111.891
  0
LINE
  8
0
 10
61.6472
 20
111.891
 11
61.5069
 21
111.982
  0
LINE
  8
0
 10
61.5069
 20
111.982
 11
61.3887
 21
112.101
  0
LINE
  8
0
 10
61.3887
 20
112.101
 11
61.2976
 21
112.241
  0
LINE
  8
0
 10
61.2976
 20
112.241
 11
61.2377
 21
112.397
  0
LINE
  8
0
 10
61.2377
 20
112.397
 11
61.2115
 21
112.562
  0
LINE
  8
0
 10
61.2115
 20
112.562
 11
61.2202
 21
112.729
  0
LINE
  8
0
 10
61.2202
 20
112.729
 11
61.2635
 21
112.891
  0
LINE
  8
0
 10
61.2635
 20
112.891
 11
61.3395
 21
113.04
  0
LINE
  8
0
 10
61.3395
 20
113.04
 11
61.4447
 21
113.17
  0
LINE
  8
0
 10
61.4447
 20
113.17
 11
61.5747
 21
113.275
  0
LINE
  8
0
 10
61.5747
 20
113.275
 11
61.7237
 21
113.351
  0
LINE
  8
0
 10
61.7237
 20
113.351
 11
61.8853
 21
113.394
  0
LINE
  8
0
 10
61.8853
 20
113.394
 11
62.0523
 21
113.403
  0
LINE
  8
0
 10
62.0523
 20
113.403
 11
62.2175
 21
113.377
  0
LINE
  8
0
 10
62.2175
 20
113.377
 11
62.3736
 21
113.317
  0
LINE
  8
0
 10
62.3736
 20
113.317
 11
62.5139
 21
113.226
  0
LINE
  8
0
 10
62.5139
 20
113.226
 11
62.6321
 21
113.108
  0
LINE
  8
0
 10
62.6321
 20
113.108
 11
62.7232
 21
112.967
  0
LINE
  8
0
 10
62.7232
 20
112.967
 11
62.7831
 21
112.811
  0
LINE
  8
0
 10
62.7831
 20
112.811
 11
62.8093
 21
112.646
  0
LINE
  8
0
 10
62.8093
 20
112.646
 11
62.8006
 21
112.479
  0
LINE
  8
0
 10
62.8006
 20
112.479
 11
62.7573
 21
112.317
  0
LINE
  8
0
 10
62.7573
 20
112.317
 11
62.6813
 21
112.168
  0
LINE
  8
0
 10
62.6813
 20
112.168
 11
62.5761
 21
112.038
  0
LINE
  8
0
 10
62.5761
 20
112.038
 11
62.4461
 21
111.933
  0
LINE
  8
0
 10
62.4461
 20
111.933
 11
62.2971
 21
111.857
  0
LINE
  8
0
 10
62.2971
 20
111.857
 11
62.1355
 21
111.814
  0
LINE
  8
0
 10
62.1355
 20
111.814
 11
61.9685
 21
111.805
  0
LINE
  8
0
 10
61.9685
 20
111.805
 11
61.8033
 21
111.831
  0
LINE
  8
0
 10
50.6273
 20
99.0997
 11
50.0418
 21
99.3244
  0
LINE
  8
0
 10
50.0418
 20
99.3244
 11
49.5158
 21
99.666
  0
LINE
  8
0
 10
49.5158
 20
99.666
 11
49.0724
 21
100.109
  0
LINE
  8
0
 10
49.0724
 20
100.109
 11
48.7308
 21
100.635
  0
LINE
  8
0
 10
48.7308
 20
100.635
 11
48.506
 21
101.221
  0
LINE
  8
0
 10
48.506
 20
101.221
 11
48.4079
 21
101.84
  0
LINE
  8
0
 10
48.4079
 20
101.84
 11
48.4407
 21
102.467
  0
LINE
  8
0
 10
48.4407
 20
102.467
 11
48.6031
 21
103.073
  0
LINE
  8
0
 10
48.6031
 20
103.073
 11
48.8878
 21
103.631
  0
LINE
  8
0
 10
48.8878
 20
103.631
 11
49.2825
 21
104.119
  0
LINE
  8
0
 10
49.2825
 20
104.119
 11
50.3783
 21
105.215
  0
LINE
  8
0
 10
50.3783
 20
105.215
 11
50.2079
 21
106.29
  0
LINE
  8
0
 10
50.2079
 20
106.29
 11
50.2714
 21
107.501
  0
LINE
  8
0
 10
50.2714
 20
107.501
 11
50.5852
 21
108.672
  0
LINE
  8
0
 10
50.5852
 20
108.672
 11
51.1357
 21
109.753
  0
LINE
  8
0
 10
51.1357
 20
109.753
 11
51.8988
 21
110.695
  0
LINE
  8
0
 10
51.8988
 20
110.695
 11
52.8411
 21
111.458
  0
LINE
  8
0
 10
52.8411
 20
111.458
 11
53.9215
 21
112.008
  0
LINE
  8
0
 10
53.9215
 20
112.008
 11
55.0927
 21
112.322
  0
LINE
  8
0
 10
55.0927
 20
112.322
 11
56.3035
 21
112.386
  0
LINE
  8
0
 10
56.3035
 20
112.386
 11
57.5011
 21
112.196
  0
LINE
  8
0
 10
57.5011
 20
112.196
 11
58.6331
 21
111.761
  0
LINE
  8
0
 10
58.6331
 20
111.761
 11
59.6501
 21
111.101
  0
LINE
  8
0
 10
59.6501
 20
111.101
 11
60.5074
 21
110.244
  0
LINE
  8
0
 10
60.5074
 20
110.244
 11
61.1678
 21
109.227
  0
LINE
  8
0
 10
61.1678
 20
109.227
 11
61.6024
 21
108.095
  0
LINE
  8
0
 10
61.6024
 20
108.095
 11
61.792
 21
106.897
  0
LINE
  8
0
 10
61.792
 20
106.897
 11
61.7286
 21
105.686
  0
LINE
  8
0
 10
61.7286
 20
105.686
 11
61.4148
 21
104.515
  0
LINE
  8
0
 10
61.4148
 20
104.515
 11
60.8643
 21
103.435
  0
LINE
  8
0
 10
60.8643
 20
103.435
 11
60.1012
 21
102.492
  0
LINE
  8
0
 10
60.1012
 20
102.492
 11
59.1589
 21
101.729
  0
LINE
  8
0
 10
59.1589
 20
101.729
 11
58.0785
 21
101.179
  0
LINE
  8
0
 10
58.0785
 20
101.179
 11
56.9073
 21
100.865
  0
LINE
  8
0
 10
56.9073
 20
100.865
 11
55.6964
 21
100.802
  0
LINE
  8
0
 10
55.6964
 20
100.802
 11
54.6209
 21
100.972
  0
LINE
  8
0
 10
54.6209
 20
100.972
 11
53.5251
 21
99.8761
  0
LINE
  8
0
 10
53.5251
 20
99.8761
 11
53.0377
 21
99.4814
  0
LINE
  8
0
 10
53.0377
 20
99.4814
 11
52.4789
 21
99.1967
  0
LINE
  8
0
 10
52.4789
 20
99.1967
 11
51.8731
 21
99.0344
  0
LINE
  8
0
 10
51.8731
 20
99.0344
 11
51.2468
 21
99.0016
  0
LINE
  8
0
 10
51.2468
 20
99.0016
 11
50.6273
 21
99.0997
  0
LINE
  8
0
 10
-51.9231
 20
99.0344
 11
-52.5289
 21
99.1967
  0
LINE
  8
0
 10
-52.5289
 20
99.1967
 11
-53.0877
 21
99.4814
  0
LINE
  8
0
 10
-53.0877
 20
99.4814
 11
-53.5751
 21
99.8761
  0
LINE
  8
0
 10
-53.5751
 20
99.8761
 11
-54.6709
 21
100.972
  0
LINE
  8
0
 10
-54.6709
 20
100.972
 11
-55.7464
 21
100.802
  0
LINE
  8
0
 10
-55.7464
 20
100.802
 11
-56.9573
 21
100.865
  0
LINE
  8
0
 10
-56.9573
 20
100.865
 11
-58.1285
 21
101.179
  0
LINE
  8
0
 10
-58.1285
 20
101.179
 11
-59.2089
 21
101.729
  0
LINE
  8
0
 10
-59.2089
 20
101.729
 11
-60.1512
 21
102.492
  0
LINE
  8
0
 10
-60.1512
 20
102.492
 11
-60.9143
 21
103.435
  0
LINE
  8
0
 10
-60.9143
 20
103.435
 11
-61.4648
 21
104.515
  0
LINE
  8
0
 10
-61.4648
 20
104.515
 11
-61.7786
 21
105.686
  0
LINE
  8
0
 10
-61.7786
 20
105.686
 11
-61.842
 21
106.897
  0
LINE
  8
0
 10
-61.842
 20
106.897
 11
-61.6524
 21
108.095
  0
LINE
  8
0
 10
-61.6524
 20
108.095
 11
-61.2178
 21
109.227
  0
LINE
  8
0
 10
-61.2178
 20
109.227
 11
-60.5574
 21
110.244
  0
LINE
  8
0
 10
-60.5574
 20
110.244
 11
-59.7001
 21
111.101
  0
LINE
  8
0
 10
-59.7001
 20
111.101
 11
-58.6831
 21
111.761
  0
LINE
  8
0
 10
-58.6831
 20
111.761
 11
-57.5511
 21
112.196
  0
LINE
  8
0
 10
-57.5511
 20
112.196
 11
-56.3535
 21
112.386
  0
LINE
  8
0
 10
-56.3535
 20
112.386
 11
-55.1427
 21
112.322
  0
LINE
  8
0
 10
-55.1427
 20
112.322
 11
-53.9715
 21
112.008
  0
LINE
  8
0
 10
-53.9715
 20
112.008
 11
-52.8911
 21
111.458
  0
LINE
  8
0
 10
-52.8911
 20
111.458
 11
-51.9488
 21
110.695
  0
LINE
  8
0
 10
-51.9488
 20
110.695
 11
-51.1857
 21
109.753
  0
LINE
  8
0
 10
-51.1857
 20
109.753
 11
-50.6352
 21
108.672
  0
LINE
  8
0
 10
-50.6352
 20
108.672
 11
-50.3214
 21
107.501
  0
LINE
  8
0
 10
-50.3214
 20
107.501
 11
-50.2579
 21
106.29
  0
LINE
  8
0
 10
-50.2579
 20
106.29
 11
-50.4283
 21
105.215
  0
LINE
  8
0
 10
-50.4283
 20
105.215
 11
-49.3325
 21
104.119
  0
LINE
  8
0
 10
-49.3325
 20
104.119
 11
-48.9378
 21
103.631
  0
LINE
  8
0
 10
-48.9378
 20
103.631
 11
-48.6531
 21
103.073
  0
LINE
  8
0
 10
-48.6531
 20
103.073
 11
-48.4907
 21
102.467
  0
LINE
  8
0
 10
-48.4907
 20
102.467
 11
-48.4579
 21
101.84
  0
LINE
  8
0
 10
-48.4579
 20
101.84
 11
-48.556
 21
101.221
  0
LINE
  8
0
 10
-48.556
 20
101.221
 11
-48.7808
 21
100.635
  0
LINE
  8
0
 10
-48.7808
 20
100.635
 11
-49.1224
 21
100.109
  0
LINE
  8
0
 10
-49.1224
 20
100.109
 11
-49.5658
 21
99.666
  0
LINE
  8
0
 10
-49.5658
 20
99.666
 11
-50.0918
 21
99.3244
  0
LINE
  8
0
 10
-50.0918
 20
99.3244
 11
-50.6773
 21
99.0997
  0
LINE
  8
0
 10
-50.6773
 20
99.0997
 11
-51.2968
 21
99.0016
  0
LINE
  8
0
 10
-51.2968
 20
99.0016
 11
-51.9231
 21
99.0344
  0
LINE
  8
0
 10
-41.8916
 20
91.52
 11
-42.0531
 21
91.5632
  0
LINE
  8
0
 10
-42.0531
 20
91.5632
 11
-42.2021
 21
91.6392
  0
LINE
  8
0
 10
-42.2021
 20
91.6392
 11
-42.3321
 21
91.7444
  0
LINE
  8
0
 10
-42.3321
 20
91.7444
 11
-42.4374
 21
91.8744
  0
LINE
  8
0
 10
-42.4374
 20
91.8744
 11
-42.5133
 21
92.0234
  0
LINE
  8
0
 10
-42.5133
 20
92.0234
 11
-42.5566
 21
92.185
  0
LINE
  8
0
 10
-42.5566
 20
92.185
 11
-42.5653
 21
92.352
  0
LINE
  8
0
 10
-42.5653
 20
92.352
 11
-42.5392
 21
92.5172
  0
LINE
  8
0
 10
-42.5392
 20
92.5172
 11
-42.4792
 21
92.6733
  0
LINE
  8
0
 10
-42.4792
 20
92.6733
 11
-42.3882
 21
92.8136
  0
LINE
  8
0
 10
-42.3882
 20
92.8136
 11
-42.2699
 21
92.9318
  0
LINE
  8
0
 10
-42.2699
 20
92.9318
 11
-42.1296
 21
93.0229
  0
LINE
  8
0
 10
-42.1296
 20
93.0229
 11
-41.9735
 21
93.0828
  0
LINE
  8
0
 10
-41.9735
 20
93.0828
 11
-41.8083
 21
93.109
  0
LINE
  8
0
 10
-41.8083
 20
93.109
 11
-41.6413
 21
93.1002
  0
LINE
  8
0
 10
-41.6413
 20
93.1002
 11
-41.4798
 21
93.0569
  0
LINE
  8
0
 10
-41.4798
 20
93.0569
 11
-41.3307
 21
92.981
  0
LINE
  8
0
 10
-41.3307
 20
92.981
 11
-41.2008
 21
92.8758
  0
LINE
  8
0
 10
-41.2008
 20
92.8758
 11
-41.0955
 21
92.7458
  0
LINE
  8
0
 10
-41.0955
 20
92.7458
 11
-41.0196
 21
92.5968
  0
LINE
  8
0
 10
-41.0196
 20
92.5968
 11
-40.9763
 21
92.4353
  0
LINE
  8
0
 10
-40.9763
 20
92.4353
 11
-40.9675
 21
92.2682
  0
LINE
  8
0
 10
-40.9675
 20
92.2682
 11
-40.9937
 21
92.103
  0
LINE
  8
0
 10
-40.9937
 20
92.103
 11
-41.0536
 21
91.9469
  0
LINE
  8
0
 10
-41.0536
 20
91.9469
 11
-41.1447
 21
91.8066
  0
LINE
  8
0
 10
-41.1447
 20
91.8066
 11
-41.263
 21
91.6884
  0
LINE
  8
0
 10
-41.263
 20
91.6884
 11
-41.4032
 21
91.5973
  0
LINE
  8
0
 10
-41.4032
 20
91.5973
 11
-41.5594
 21
91.5374
  0
LINE
  8
0
 10
-41.5594
 20
91.5374
 11
-41.7246
 21
91.5112
  0
LINE
  8
0
 10
-41.7246
 20
91.5112
 11
-41.8916
 21
91.52
  0
LINE
  8
0
 10
41.5094
 20
91.5374
 11
41.3532
 21
91.5973
  0
LINE
  8
0
 10
41.3532
 20
91.5973
 11
41.213
 21
91.6884
  0
LINE
  8
0
 10
41.213
 20
91.6884
 11
41.0947
 21
91.8066
  0
LINE
  8
0
 10
41.0947
 20
91.8066
 11
41.0036
 21
91.9469
  0
LINE
  8
0
 10
41.0036
 20
91.9469
 11
40.9437
 21
92.103
  0
LINE
  8
0
 10
40.9437
 20
92.103
 11
40.9175
 21
92.2682
  0
LINE
  8
0
 10
40.9175
 20
92.2682
 11
40.9263
 21
92.4353
  0
LINE
  8
0
 10
40.9263
 20
92.4353
 11
40.9696
 21
92.5968
  0
LINE
  8
0
 10
40.9696
 20
92.5968
 11
41.0455
 21
92.7458
  0
LINE
  8
0
 10
41.0455
 20
92.7458
 11
41.1508
 21
92.8758
  0
LINE
  8
0
 10
41.1508
 20
92.8758
 11
41.2807
 21
92.981
  0
LINE
  8
0
 10
41.2807
 20
92.981
 11
41.4297
 21
93.0569
  0
LINE
  8
0
 10
41.4297
 20
93.0569
 11
41.5913
 21
93.1002
  0
LINE
  8
0
 10
41.5913
 20
93.1002
 11
41.7583
 21
93.109
  0
LINE
  8
0
 10
41.7583
 20
93.109
 11
41.9235
 21
93.0828
  0
LINE
  8
0
 10
41.9235
 20
93.0828
 11
42.0796
 21
93.0229
  0
LINE
  8
0
 10
42.0796
 20
93.0229
 11
42.2199
 21
92.9318
  0
LINE
  8
0
 10
42.2199
 20
92.9318
 11
42.3382
 21
92.8136
  0
LINE
  8
0
 10
42.3382
 20
92.8136
 11
42.4292
 21
92.6733
  0
LINE
  8
0
 10
42.4292
 20
92.6733
 11
42.4892
 21
92.5172
  0
LINE
  8
0
 10
42.4892
 20
92.5172
 11
42.5153
 21
92.352
  0
LINE
  8
0
 10
42.5153
 20
92.352
 11
42.5066
 21
92.185
  0
LINE
  8
0
 10
42.5066
 20
92.185
 11
42.4633
 21
92.0234
  0
LINE
  8
0
 10
42.4633
 20
92.0234
 11
42.3874
 21
91.8744
  0
LINE
  8
0
 10
42.3874
 20
91.8744
 11
42.2821
 21
91.7444
  0
LINE
  8
0
 10
42.2821
 20
91.7444
 11
42.1521
 21
91.6392
  0
LINE
  8
0
 10
42.1521
 20
91.6392
 11
42.0031
 21
91.5632
  0
LINE
  8
0
 10
42.0031
 20
91.5632
 11
41.8416
 21
91.52
  0
LINE
  8
0
 10
41.8416
 20
91.52
 11
41.6746
 21
91.5112
  0
LINE
  8
0
 10
41.6746
 20
91.5112
 11
41.5094
 21
91.5374
  0
LINE
  8
0
 10
34
 20
78
 11
34
 21
88
  0
LINE
  8
0
 10
34
 20
88
 11
37
 21
88
  0
LINE
  8
0
 10
37
 20
88
 11
37
 21
78
  0
LINE
  8
0
 10
37
 20
78
 11
34
 21
78
  0
LINE
  8
0
 10
-37
 20
78
 11
-37
 21
88
  0
LINE
  8
0
 10
-37
 20
88
 11
-34
 21
88
  0
LINE
  8
0
 10
-34
 20
88
 11
-34
 21
78
  0
LINE
  8
0
 10
-34
 20
78
 11
-37
 21
78
  0
LINE
  8
0
 10
-41.1568
 20
81.5082
 11
-41.4635
 21
81.5734
  0
LINE
  8
0
 10
-41.4635
 20
81.5734
 11
-41.75
 21
81.701
  0
LINE
  8
0
 10
-41.75
 20
81.701
 11
-42.0037
 21
81.8853
  0
LINE
  8
0
 10
-42.0037
 20
81.8853
 11
-42.2135
 21
82.1183
  0
LINE
  8
0
 10
-42.2135
 20
82.1183
 11
-42.3703
 21
82.3899
  0
LINE
  8
0
 10
-42.3703
 20
82.3899
 11
-42.4672
 21
82.6881
  0
LINE
  8
0
 10
-42.4672
 20
82.6881
 11
-42.5
 21
83
  0
LINE
  8
0
 10
-42.5
 20
83
 11
-42.4672
 21
83.3119
  0
LINE
  8
0
 10
-42.4672
 20
83.3119
 11
-42.3703
 21
83.6101
  0
LINE
  8
0
 10
-42.3703
 20
83.6101
 11
-42.2135
 21
83.8817
  0
LINE
  8
0
 10
-42.2135
 20
83.8817
 11
-42.0037
 21
84.1147
  0
LINE
  8
0
 10
-42.0037
 20
84.1147
 11
-41.75
 21
84.299
  0
LINE
  8
0
 10
-41.75
 20
84.299
 11
-41.4635
 21
84.4266
  0
LINE
  8
0
 10
-41.4635
 20
84.4266
 11
-41.1568
 21
84.4918
  0
LINE
  8
0
 10
-41.1568
 20
84.4918
 11
-40.8432
 21
84.4918
  0
LINE
  8
0
 10
-40.8432
 20
84.4918
 11
-40.5365
 21
84.4266
  0
LINE
  8
0
 10
-40.5365
 20
84.4266
 11
-40.25
 21
84.299
  0
LINE
  8
0
 10
-40.25
 20
84.299
 11
-39.9963
 21
84.1147
  0
LINE
  8
0
 10
-39.9963
 20
84.1147
 11
-39.7865
 21
83.8817
  0
LINE
  8
0
 10
-39.7865
 20
83.8817
 11
-39.6297
 21
83.6101
  0
LINE
  8
0
 10
-39.6297
 20
83.6101
 11
-39.5328
 21
83.3119
  0
LINE
  8
0
 10
-39.5328
 20
83.3119
 11
-39.5
 21
83
  0
LINE
  8
0
 10
-39.5
 20
83
 11
-39.5328
 21
82.6881
  0
LINE
  8
0
 10
-39.5328
 20
82.6881
 11
-39.6297
 21
82.3899
  0
LINE
  8
0
 10
-39.6297
 20
82.3899
 11
-39.7865
 21
82.1183
  0
LINE
  8
0
 10
-39.7865
 20
82.1183
 11
-39.9963
 21
81.8853
  0
LINE
  8
0
 10
-39.9963
 20
81.8853
 11
-40.25
 21
81.701
  0
LINE
  8
0
 10
-40.25
 20
81.701
 11
-40.5365
 21
81.5734
  0
LINE
  8
0
 10
-40.5365
 20
81.5734
 11
-40.8432
 21
81.5082
  0
LINE
  8
0
 10
-40.8432
 20
81.5082
 11
-41.1568
 21
81.5082
  0
LINE
  8
0
 10
41.3432
 20
81.5082
 11
41.0365
 21
81.5734
  0
LINE
  8
0
 10
41.0365
 20
81.5734
 11
40.75
 21
81.701
  0
LINE
  8
0
 10
40.75
 20
81.701
 11
40.4963
 21
81.8853
  0
LINE
  8
0
 10
40.4963
 20
81.8853
 11
40.2865
 21
82.1183
  0
LINE
  8
0
 10
40.2865
 20
82.1183
 11
40.1297
 21
82.3899
  0
LINE
  8
0
 10
40.1297
 20
82.3899
 11
40.0328
 21
82.6881
  0
LINE
  8
0
 10
40.0328
 20
82.6881
 11
40
 21
83
  0
LINE
  8
0
 10
40
 20
83
 11
40.0328
 21
83.3119
  0
LINE
  8
0
 10
40.0328
 20
83.3119
 11
40.1297
 21
83.6101
  0
LINE
  8
0
 10
40.1297
 20
83.6101
 11
40.2865
 21
83.8817
  0
LINE
  8
0
 10
40.2865
 20
83.8817
 11
40.4963
 21
84.1147
  0
LINE
  8
0
 10
40.4963
 20
84.1147
 11
40.75
 21
84.299
  0
LINE
  8
0
 10
40.75
 20
84.299
 11
41.0365
 21
84.4266
  0
LINE
  8
0
 10
41.0365
 20
84.4266
 11
41.3432
 21
84.4918
  0
LINE
  8
0
 10
41.3432
 20
84.4918
 11
41.6568
 21
84.4918
  0
LINE
  8
0
 10
41.6568
 20
84.4918
 11
41.9635
 21
84.4266
  0
LINE
  8
0
 10
41.9635
 20
84.4266
 11
42.25
 21
84.299
  0
LINE
  8
0
 10
42.25
 20
84.299
 11
42.5037
 21
84.1147
  0
LINE
  8
0
 10
42.5037
 20
84.1147
 11
42.7135
 21
83.8817
  0
LINE
  8
0
 10
42.7135
 20
83.8817
 11
42.8703
 21
83.6101
  0
LINE
  8
0
 10
42.8703
 20
83.6101
 11
42.9672
 21
83.3119
  0
LINE
  8
0
 10
42.9672
 20
83.3119
 11
43
 21
83
  0
LINE
  8
0
 10
43
 20
83
 11
42.9672
 21
82.6881
  0
LINE
  8
0
 10
42.9672
 20
82.6881
 11
42.8703
 21
82.3899
  0
LINE
  8
0
 10
42.8703
 20
82.3899
 11
42.7135
 21
82.1183
  0
LINE
  8
0
 10
42.7135
 20
82.1183
 11
42.5037
 21
81.8853
  0
LINE
  8
0
 10
42.5037
 20
81.8853
 11
42.25
 21
81.701
  0
LINE
  8
0
 10
42.25
 20
81.701
 11
41.9635
 21
81.5734
  0
LINE
  8
0
 10
41.9635
 20
81.5734
 11
41.6568
 21
81.5082
  0
LINE
  8
0
 10
41.6568
 20
81.5082
 11
41.3432
 21
81.5082
  0
LINE
  8
0
 10
155.691
 20
87.0217
 11
156.853
 21
87.1573
  0
LINE
  8
0
 10
156.853
 20
87.1573
 11
157.977
 21
87.4104
  0
LINE
  8
0
 10
157.977
 20
87.4104
 11
159.067
 21
87.7796
  0
LINE
  8
0
 10
159.067
 20
87.7796
 11
160.13
 21
88.2696
  0
LINE
  8
0
 10
160.13
 20
88.2696
 11
161.135
 21
88.8699
  0
LINE
  8
0
 10
161.135
 20
88.8699
 11
162.056
 21
89.5612
  0
LINE
  8
0
 10
162.056
 20
89.5612
 11
162.913
 21
90.3588
  0
LINE
  8
0
 10
162.913
 20
90.3588
 11
163.668
 21
91.2277
  0
LINE
  8
0
 10
163.668
 20
91.2277
 11
164.329
 21
92.1709
  0
LINE
  8
0
 10
164.329
 20
92.1709
 11
164.887
 21
93.1779
  0
LINE
  8
0
 10
164.887
 20
93.1779
 11
165.337
 21
94.2378
  0
LINE
  8
0
 10
165.337
 20
94.2378
 11
165.673
 21
95.3389
  0
LINE
  8
0
 10
165.673
 20
95.3389
 11
165.893
 21
96.4691
  0
LINE
  8
0
 10
165.893
 20
96.4691
 11
165.994
 21
97.6353
  0
LINE
  8
0
 10
165.994
 20
97.6353
 11
165.972
 21
98.7865
  0
LINE
  8
0
 10
165.972
 20
98.7865
 11
165.833
 21
99.9101
  0
LINE
  8
0
 10
165.833
 20
99.9101
 11
165.569
 21
101.05
  0
LINE
  8
0
 10
165.569
 20
101.05
 11
165.192
 21
102.138
  0
LINE
  8
0
 10
165.192
 20
102.138
 11
164.694
 21
103.198
  0
LINE
  8
0
 10
164.694
 20
103.198
 11
164.098
 21
104.183
  0
LINE
  8
0
 10
164.098
 20
104.183
 11
163.402
 21
105.1
  0
LINE
  8
0
 10
163.402
 20
105.1
 11
162.614
 21
105.939
  0
LINE
  8
0
 10
162.614
 20
105.939
 11
161.727
 21
106.703
  0
LINE
  8
0
 10
161.727
 20
106.703
 11
160.78
 21
107.359
  0
LINE
  8
0
 10
160.78
 20
107.359
 11
159.753
 21
107.92
  0
LINE
  8
0
 10
159.753
 20
107.92
 11
158.69
 21
108.363
  0
LINE
  8
0
 10
158.69
 20
108.363
 11
157.587
 21
108.692
  0
LINE
  8
0
 10
157.587
 20
108.692
 11
156.455
 21
108.903
  0
LINE
  8
0
 10
156.455
 20
108.903
 11
155.307
 21
108.996
  0
LINE
  8
0
 10
155.307
 20
108.996
 11
154.156
 21
108.968
  0
LINE
  8
0
 10
154.156
 20
108.968
 11
153.014
 21
108.819
  0
LINE
  8
0
 10
153.014
 20
108.819
 11
151.894
 21
108.552
  0
LINE
  8
0
 10
151.894
 20
108.552
 11
151.346
 21
108.375
  0
LINE
  8
0
 10
151.346
 20
108.375
 11
111.247
 21
94.2052
  0
LINE
  8
0
 10
111.247
 20
94.2052
 11
110.554
 21
93.7891
  0
LINE
  8
0
 10
110.554
 20
93.7891
 11
110.152
 21
93.4447
  0
LINE
  8
0
 10
110.152
 20
93.4447
 11
109.744
 21
92.9788
  0
LINE
  8
0
 10
109.744
 20
92.9788
 11
109.328
 21
92.2855
  0
LINE
  8
0
 10
109.328
 20
92.2855
 11
109.157
 21
91.8589
  0
LINE
  8
0
 10
109.157
 20
91.8589
 11
108.979
 21
91.0805
  0
LINE
  8
0
 10
108.979
 20
91.0805
 11
108.949
 21
90.5719
  0
LINE
  8
0
 10
108.949
 20
90.5719
 11
108.949
 21
90.5519
  0
LINE
  8
0
 10
108.949
 20
90.5519
 11
109.037
 21
89.7484
  0
LINE
  8
0
 10
109.037
 20
89.7484
 11
109.179
 21
89.2485
  0
LINE
  8
0
 10
109.179
 20
89.2485
 11
109.519
 21
88.5264
  0
LINE
  8
0
 10
109.519
 20
88.5264
 11
109.809
 21
88.1071
  0
LINE
  8
0
 10
109.809
 20
88.1071
 11
110.072
 21
87.8061
  0
LINE
  8
0
 10
110.072
 20
87.8061
 11
110.681
 21
87.2901
  0
LINE
  8
0
 10
110.681
 20
87.2901
 11
111.262
 21
86.9583
  0
LINE
  8
0
 10
111.262
 20
86.9583
 11
112.016
 21
86.6955
  0
LINE
  8
0
 10
112.016
 20
86.6955
 11
112.807
 21
86.5877
  0
LINE
  8
0
 10
112.807
 20
86.5877
 11
112.987
 21
86.5854
  0
LINE
  8
0
 10
112.987
 20
86.5854
 11
155.691
 21
87.0217
  0
LINE
  8
0
 10
154.105
 20
94.4099
 11
153.378
 21
94.6745
  0
LINE
  8
0
 10
153.378
 20
94.6745
 11
152.722
 21
95.0844
  0
LINE
  8
0
 10
152.722
 20
95.0844
 11
152.166
 21
95.6217
  0
LINE
  8
0
 10
152.166
 20
95.6217
 11
151.733
 21
96.263
  0
LINE
  8
0
 10
151.733
 20
96.263
 11
151.443
 21
96.9802
  0
LINE
  8
0
 10
151.443
 20
96.9802
 11
151.309
 21
97.7419
  0
LINE
  8
0
 10
151.309
 20
97.7419
 11
151.336
 21
98.5149
  0
LINE
  8
0
 10
151.336
 20
98.5149
 11
151.523
 21
99.2655
  0
LINE
  8
0
 10
151.523
 20
99.2655
 11
151.862
 21
99.9607
  0
LINE
  8
0
 10
151.862
 20
99.9607
 11
152.338
 21
100.57
  0
LINE
  8
0
 10
152.338
 20
100.57
 11
152.931
 21
101.067
  0
LINE
  8
0
 10
152.931
 20
101.067
 11
153.614
 21
101.431
  0
LINE
  8
0
 10
153.614
 20
101.431
 11
154.357
 21
101.644
  0
LINE
  8
0
 10
154.357
 20
101.644
 11
155.129
 21
101.698
  0
LINE
  8
0
 10
155.129
 20
101.698
 11
155.895
 21
101.59
  0
LINE
  8
0
 10
155.895
 20
101.59
 11
156.622
 21
101.326
  0
LINE
  8
0
 10
156.622
 20
101.326
 11
157.278
 21
100.916
  0
LINE
  8
0
 10
157.278
 20
100.916
 11
157.834
 21
100.378
  0
LINE
  8
0
 10
157.834
 20
100.378
 11
158.267
 21
99.737
  0
LINE
  8
0
 10
158.267
 20
99.737
 11
158.557
 21
99.0199
  0
LINE
  8
0
 10
158.557
 20
99.0199
 11
158.691
 21
98.2581
  0
LINE
  8
0
 10
158.691
 20
98.2581
 11
158.664
 21
97.4851
  0
LINE
  8
0
 10
158.664
 20
97.4851
 11
158.477
 21
96.7345
  0
LINE
  8
0
 10
158.477
 20
96.7345
 11
158.138
 21
96.0393
  0
LINE
  8
0
 10
158.138
 20
96.0393
 11
157.662
 21
95.4298
  0
LINE
  8
0
 10
157.662
 20
95.4298
 11
157.069
 21
94.9326
  0
LINE
  8
0
 10
157.069
 20
94.9326
 11
156.386
 21
94.5694
  0
LINE
  8
0
 10
156.386
 20
94.5694
 11
155.642
 21
94.3562
  0
LINE
  8
0
 10
155.642
 20
94.3562
 11
154.871
 21
94.3023
  0
LINE
  8
0
 10
154.871
 20
94.3023
 11
154.105
 21
94.4099
  0
LINE
  8
0
 10
144.342
 20
95.6568
 11
144.243
 21
95.6926
  0
LINE
  8
0
 10
144.243
 20
95.6926
 11
144.155
 21
95.748
  0
LINE
  8
0
 10
144.155
 20
95.748
 11
144.08
 21
95.8206
  0
LINE
  8
0
 10
144.08
 20
95.8206
 11
144.021
 21
95.9073
  0
LINE
  8
0
 10
144.021
 20
95.9073
 11
143.982
 21
96.0042
  0
LINE
  8
0
 10
143.982
 20
96.0042
 11
143.964
 21
96.1071
  0
LINE
  8
0
 10
143.964
 20
96.1071
 11
143.967
 21
96.2115
  0
LINE
  8
0
 10
143.967
 20
96.2115
 11
143.993
 21
96.313
  0
LINE
  8
0
 10
143.993
 20
96.313
 11
144.039
 21
96.4069
  0
LINE
  8
0
 10
144.039
 20
96.4069
 11
144.103
 21
96.4893
  0
LINE
  8
0
 10
144.103
 20
96.4893
 11
144.183
 21
96.5565
  0
LINE
  8
0
 10
144.183
 20
96.5565
 11
144.275
 21
96.6055
  0
LINE
  8
0
 10
144.275
 20
96.6055
 11
144.376
 21
96.6344
  0
LINE
  8
0
 10
144.376
 20
96.6344
 11
144.48
 21
96.6416
  0
LINE
  8
0
 10
144.48
 20
96.6416
 11
144.584
 21
96.6271
  0
LINE
  8
0
 10
144.584
 20
96.6271
 11
144.682
 21
96.5914
  0
LINE
  8
0
 10
144.682
 20
96.5914
 11
144.77
 21
96.536
  0
LINE
  8
0
 10
144.77
 20
96.536
 11
144.846
 21
96.4633
  0
LINE
  8
0
 10
144.846
 20
96.4633
 11
144.904
 21
96.3767
  0
LINE
  8
0
 10
144.904
 20
96.3767
 11
144.943
 21
96.2798
  0
LINE
  8
0
 10
144.943
 20
96.2798
 11
144.961
 21
96.1768
  0
LINE
  8
0
 10
144.961
 20
96.1768
 11
144.958
 21
96.0724
  0
LINE
  8
0
 10
144.958
 20
96.0724
 11
144.932
 21
95.971
  0
LINE
  8
0
 10
144.932
 20
95.971
 11
144.887
 21
95.877
  0
LINE
  8
0
 10
144.887
 20
95.877
 11
144.822
 21
95.7947
  0
LINE
  8
0
 10
144.822
 20
95.7947
 11
144.742
 21
95.7274
  0
LINE
  8
0
 10
144.742
 20
95.7274
 11
144.65
 21
95.6784
  0
LINE
  8
0
 10
144.65
 20
95.6784
 11
144.549
 21
95.6496
  0
LINE
  8
0
 10
144.549
 20
95.6496
 11
144.445
 21
95.6423
  0
LINE
  8
0
 10
144.445
 20
95.6423
 11
144.342
 21
95.6568
  0
LINE
  8
0
 10
97.8408
 20
48.9811
 11
98.625
 21
49.1773
  0
LINE
  8
0
 10
98.625
 20
49.1773
 11
99.0477
 21
49.3579
  0
LINE
  8
0
 10
99.0477
 20
49.3579
 11
99.7236
 21
49.7829
  0
LINE
  8
0
 10
99.7236
 20
49.7829
 11
100.105
 21
50.1208
  0
LINE
  8
0
 10
100.105
 20
50.1208
 11
100.119
 21
50.135
  0
LINE
  8
0
 10
100.119
 20
50.135
 11
100.625
 21
50.7657
  0
LINE
  8
0
 10
100.625
 20
50.7657
 11
100.878
 21
51.2191
  0
LINE
  8
0
 10
100.878
 20
51.2191
 11
101.148
 21
51.9706
  0
LINE
  8
0
 10
101.148
 20
51.9706
 11
101.24
 21
52.4718
  0
LINE
  8
0
 10
101.24
 20
52.4718
 11
101.267
 21
52.8706
  0
LINE
  8
0
 10
101.267
 20
52.8706
 11
101.201
 21
53.6663
  0
LINE
  8
0
 10
101.201
 20
53.6663
 11
101.024
 21
54.3117
  0
LINE
  8
0
 10
101.024
 20
54.3117
 11
100.677
 21
55.0307
  0
LINE
  8
0
 10
100.677
 20
55.0307
 11
100.194
 21
55.6663
  0
LINE
  8
0
 10
100.194
 20
55.6663
 11
100.068
 21
55.7952
  0
LINE
  8
0
 10
100.068
 20
55.7952
 11
69.5638
 21
85.6827
  0
LINE
  8
0
 10
69.5638
 20
85.6827
 11
68.6458
 21
86.409
  0
LINE
  8
0
 10
68.6458
 20
86.409
 11
67.6725
 21
87.0242
  0
LINE
  8
0
 10
67.6725
 20
87.0242
 11
66.6403
 21
87.5343
  0
LINE
  8
0
 10
66.6403
 20
87.5343
 11
65.5421
 21
87.9395
  0
LINE
  8
0
 10
65.5421
 20
87.9395
 11
64.4071
 21
88.2257
  0
LINE
  8
0
 10
64.4071
 20
88.2257
 11
63.2672
 21
88.3879
  0
LINE
  8
0
 10
63.2672
 20
88.3879
 11
62.0974
 21
88.4298
  0
LINE
  8
0
 10
62.0974
 20
88.4298
 11
60.9488
 21
88.3495
  0
LINE
  8
0
 10
60.9488
 20
88.3495
 11
59.8149
 21
88.1495
  0
LINE
  8
0
 10
59.8149
 20
88.1495
 11
58.7081
 21
87.8321
  0
LINE
  8
0
 10
58.7081
 20
87.8321
 11
57.6405
 21
87.4008
  0
LINE
  8
0
 10
57.6405
 20
87.4008
 11
56.6239
 21
86.8603
  0
LINE
  8
0
 10
56.6239
 20
86.8603
 11
55.6694
 21
86.2164
  0
LINE
  8
0
 10
55.6694
 20
86.2164
 11
54.7733
 21
85.4632
  0
LINE
  8
0
 10
54.7733
 20
85.4632
 11
53.9749
 21
84.6336
  0
LINE
  8
0
 10
53.9749
 20
84.6336
 11
53.2787
 21
83.7408
  0
LINE
  8
0
 10
53.2787
 20
83.7408
 11
52.6592
 21
82.7476
  0
LINE
  8
0
 10
52.6592
 20
82.7476
 11
52.1563
 21
81.7118
  0
LINE
  8
0
 10
52.1563
 20
81.7118
 11
51.7588
 21
80.6108
  0
LINE
  8
0
 10
51.7588
 20
80.6108
 11
51.4842
 21
79.4926
  0
LINE
  8
0
 10
51.4842
 20
79.4926
 11
51.3279
 21
78.3519
  0
LINE
  8
0
 10
51.3279
 20
78.3519
 11
51.2917
 21
77.2011
  0
LINE
  8
0
 10
51.2917
 20
77.2011
 11
51.3785
 21
76.0337
  0
LINE
  8
0
 10
51.3785
 20
76.0337
 11
51.5844
 21
74.9009
  0
LINE
  8
0
 10
51.5844
 20
74.9009
 11
51.9139
 21
73.7777
  0
LINE
  8
0
 10
51.9139
 20
73.7777
 11
52.3526
 21
72.7132
  0
LINE
  8
0
 10
52.3526
 20
72.7132
 11
52.9003
 21
71.7003
  0
LINE
  8
0
 10
52.9003
 20
71.7003
 11
53.5508
 21
70.7503
  0
LINE
  8
0
 10
53.5508
 20
70.7503
 11
54.297
 21
69.8735
  0
LINE
  8
0
 10
54.297
 20
69.8735
 11
55.1308
 21
69.0795
  0
LINE
  8
0
 10
55.1308
 20
69.0795
 11
56.043
 21
68.377
  0
LINE
  8
0
 10
56.043
 20
68.377
 11
57.0237
 21
67.7736
  0
LINE
  8
0
 10
57.0237
 20
67.7736
 11
57.5364
 21
67.5113
  0
LINE
  8
0
 10
57.5364
 20
67.5113
 11
95.9108
 21
49.1767
  0
LINE
  8
0
 10
95.9108
 20
49.1767
 11
96.6951
 21
48.9809
  0
LINE
  8
0
 10
96.6951
 20
48.9809
 11
97.2229
 21
48.94
  0
LINE
  8
0
 10
97.2229
 20
48.94
 11
97.8408
 21
48.9811
  0
LINE
  8
0
 10
61.5833
 20
73.7994
 11
60.8436
 21
74.0256
  0
LINE
  8
0
 10
60.8436
 20
74.0256
 11
60.1671
 21
74.4006
  0
LINE
  8
0
 10
60.1671
 20
74.4006
 11
59.5833
 21
74.9081
  0
LINE
  8
0
 10
59.5833
 20
74.9081
 11
59.1178
 21
75.5258
  0
LINE
  8
0
 10
59.1178
 20
75.5258
 11
58.7909
 21
76.2269
  0
LINE
  8
0
 10
58.7909
 20
76.2269
 11
58.6169
 21
76.9805
  0
LINE
  8
0
 10
58.6169
 20
76.9805
 11
58.6034
 21
77.7539
  0
LINE
  8
0
 10
58.6034
 20
77.7539
 11
58.751
 21
78.5132
  0
LINE
  8
0
 10
58.751
 20
78.5132
 11
59.0532
 21
79.2253
  0
LINE
  8
0
 10
59.0532
 20
79.2253
 11
59.4969
 21
79.8589
  0
LINE
  8
0
 10
59.4969
 20
79.8589
 11
60.0626
 21
80.3864
  0
LINE
  8
0
 10
60.0626
 20
80.3864
 11
60.7256
 21
80.7848
  0
LINE
  8
0
 10
60.7256
 20
80.7848
 11
61.457
 21
81.0366
  0
LINE
  8
0
 10
61.457
 20
81.0366
 11
62.2247
 21
81.1309
  0
LINE
  8
0
 10
62.2247
 20
81.1309
 11
62.9953
 21
81.0635
  0
LINE
  8
0
 10
62.9953
 20
81.0635
 11
63.735
 21
80.8373
  0
LINE
  8
0
 10
63.735
 20
80.8373
 11
64.4116
 21
80.4623
  0
LINE
  8
0
 10
64.4116
 20
80.4623
 11
64.9953
 21
79.9548
  0
LINE
  8
0
 10
64.9953
 20
79.9548
 11
65.4608
 21
79.3371
  0
LINE
  8
0
 10
65.4608
 20
79.3371
 11
65.7878
 21
78.636
  0
LINE
  8
0
 10
65.7878
 20
78.636
 11
65.9617
 21
77.8824
  0
LINE
  8
0
 10
65.9617
 20
77.8824
 11
65.9752
 21
77.109
  0
LINE
  8
0
 10
65.9752
 20
77.109
 11
65.8276
 21
76.3497
  0
LINE
  8
0
 10
65.8276
 20
76.3497
 11
65.5254
 21
75.6376
  0
LINE
  8
0
 10
65.5254
 20
75.6376
 11
65.0817
 21
75.004
  0
LINE
  8
0
 10
65.0817
 20
75.004
 11
64.5161
 21
74.4765
  0
LINE
  8
0
 10
64.5161
 20
74.4765
 11
63.853
 21
74.0781
  0
LINE
  8
0
 10
63.853
 20
74.0781
 11
63.1217
 21
73.8263
  0
LINE
  8
0
 10
63.1217
 20
73.8263
 11
62.3539
 21
73.732
  0
LINE
  8
0
 10
62.3539
 20
73.732
 11
61.5833
 21
73.7994
  0
LINE
  8
0
 10
70.9588
 20
70.8034
 11
70.8589
 21
70.834
  0
LINE
  8
0
 10
70.8589
 20
70.834
 11
70.7674
 21
70.8846
  0
LINE
  8
0
 10
70.7674
 20
70.8846
 11
70.6886
 21
70.9532
  0
LINE
  8
0
 10
70.6886
 20
70.9532
 11
70.6257
 21
71.0367
  0
LINE
  8
0
 10
70.6257
 20
71.0367
 11
70.5815
 21
71.1314
  0
LINE
  8
0
 10
70.5815
 20
71.1314
 11
70.558
 21
71.2333
  0
LINE
  8
0
 10
70.558
 20
71.2333
 11
70.5562
 21
71.3378
  0
LINE
  8
0
 10
70.5562
 20
71.3378
 11
70.5761
 21
71.4404
  0
LINE
  8
0
 10
70.5761
 20
71.4404
 11
70.6169
 21
71.5366
  0
LINE
  8
0
 10
70.6169
 20
71.5366
 11
70.6769
 21
71.6222
  0
LINE
  8
0
 10
70.6769
 20
71.6222
 11
70.7533
 21
71.6935
  0
LINE
  8
0
 10
70.7533
 20
71.6935
 11
70.8429
 21
71.7473
  0
LINE
  8
0
 10
70.8429
 20
71.7473
 11
70.9418
 21
71.7814
  0
LINE
  8
0
 10
70.9418
 20
71.7814
 11
71.0455
 21
71.7941
  0
LINE
  8
0
 10
71.0455
 20
71.7941
 11
71.1496
 21
71.785
  0
LINE
  8
0
 10
71.1496
 20
71.785
 11
71.2496
 21
71.7544
  0
LINE
  8
0
 10
71.2496
 20
71.7544
 11
71.341
 21
71.7038
  0
LINE
  8
0
 10
71.341
 20
71.7038
 11
71.4199
 21
71.6352
  0
LINE
  8
0
 10
71.4199
 20
71.6352
 11
71.4828
 21
71.5517
  0
LINE
  8
0
 10
71.4828
 20
71.5517
 11
71.527
 21
71.457
  0
LINE
  8
0
 10
71.527
 20
71.457
 11
71.5505
 21
71.3551
  0
LINE
  8
0
 10
71.5505
 20
71.3551
 11
71.5523
 21
71.2506
  0
LINE
  8
0
 10
71.5523
 20
71.2506
 11
71.5324
 21
71.148
  0
LINE
  8
0
 10
71.5324
 20
71.148
 11
71.4915
 21
71.0518
  0
LINE
  8
0
 10
71.4915
 20
71.0518
 11
71.4316
 21
70.9662
  0
LINE
  8
0
 10
71.4316
 20
70.9662
 11
71.3551
 21
70.8949
  0
LINE
  8
0
 10
71.3551
 20
70.8949
 11
71.2655
 21
70.841
  0
LINE
  8
0
 10
71.2655
 20
70.841
 11
71.1667
 21
70.807
  0
LINE
  8
0
 10
71.1667
 20
70.807
 11
71.063
 21
70.7943
  0
LINE
  8
0
 10
71.063
 20
70.7943
 11
70.9588
 21
70.8034
  0
LINE
  8
0
 10
131.5
 20
70
 11
134.5
 21
70
  0
LINE
  8
0
 10
134.5
 20
70
 11
134.5
 21
63
  0
LINE
  8
0
 10
134.5
 20
63
 11
157
 21
63
  0
LINE
  8
0
 10
157
 20
63
 11
157
 21
70
  0
LINE
  8
0
 10
157
 20
70
 11
160
 21
70
  0
LINE
  8
0
 10
160
 20
70
 11
160
 21
80
  0
LINE
  8
0
 10
160
 20
80
 11
157
 21
80
  0
LINE
  8
0
 10
157
 20
80
 11
157
 21
83
  0
LINE
  8
0
 10
157
 20
83
 11
134.5
 21
83
  0
LINE
  8
0
 10
134.5
 20
83
 11
134.5
 21
80
  0
LINE
  8
0
 10
134.5
 20
80
 11
131.5
 21
80
  0
LINE
  8
0
 10
131.5
 20
80
 11
131.5
 21
83
  0
LINE
  8
0
 10
131.5
 20
83
 11
113
 21
83
  0
LINE
  8
0
 10
113
 20
83
 11
113
 21
80
  0
LINE
  8
0
 10
113
 20
80
 11
110
 21
80
  0
LINE
  8
0
 10
110
 20
80
 11
110
 21
70
  0
LINE
  8
0
 10
110
 20
70
 11
113
 21
70
  0
LINE
  8
0
 10
113
 20
70
 11
113
 21
63
  0
LINE
  8
0
 10
113
 20
63
 11
131.5
 21
63
  0
LINE
  8
0
 10
131.5
 20
63
 11
131.5
 21
70
  0
LINE
  8
0
 10
76.3578
 20
32.5724
 11
77.4917
 21
32.7723
  0
LINE
  8
0
 10
77.4917
 20
32.7723
 11
78.5985
 21
33.0897
  0
LINE
  8
0
 10
78.5985
 20
33.0897
 11
79.666
 21
33.521
  0
LINE
  8
0
 10
79.666
 20
33.521
 11
80.6827
 21
34.0615
  0
LINE
  8
0
 10
80.6827
 20
34.0615
 11
81.6372
 21
34.7054
  0
LINE
  8
0
 10
81.6372
 20
34.7054
 11
82.5332
 21
35.4586
  0
LINE
  8
0
 10
82.5332
 20
35.4586
 11
83.3316
 21
36.2882
  0
LINE
  8
0
 10
83.3316
 20
36.2882
 11
84.0279
 21
37.181
  0
LINE
  8
0
 10
84.0279
 20
37.181
 11
84.6473
 21
38.1742
  0
LINE
  8
0
 10
84.6473
 20
38.1742
 11
85.1503
 21
39.21
  0
LINE
  8
0
 10
85.1503
 20
39.21
 11
85.5477
 21
40.311
  0
LINE
  8
0
 10
85.5477
 20
40.311
 11
85.8224
 21
41.4291
  0
LINE
  8
0
 10
85.8224
 20
41.4291
 11
85.9787
 21
42.5699
  0
LINE
  8
0
 10
85.9787
 20
42.5699
 11
86.0148
 21
43.7207
  0
LINE
  8
0
 10
86.0148
 20
43.7207
 11
85.9281
 21
44.888
  0
LINE
  8
0
 10
85.9281
 20
44.888
 11
85.7222
 21
46.0209
  0
LINE
  8
0
 10
85.7222
 20
46.0209
 11
85.3927
 21
47.1441
  0
LINE
  8
0
 10
85.3927
 20
47.1441
 11
84.9539
 21
48.2086
  0
LINE
  8
0
 10
84.9539
 20
48.2086
 11
84.4063
 21
49.2214
  0
LINE
  8
0
 10
84.4063
 20
49.2214
 11
83.7558
 21
50.1715
  0
LINE
  8
0
 10
83.7558
 20
50.1715
 11
83.0096
 21
51.0483
  0
LINE
  8
0
 10
83.0096
 20
51.0483
 11
82.1757
 21
51.8423
  0
LINE
  8
0
 10
82.1757
 20
51.8423
 11
81.2635
 21
52.5448
  0
LINE
  8
0
 10
81.2635
 20
52.5448
 11
80.2829
 21
53.1481
  0
LINE
  8
0
 10
80.2829
 20
53.1481
 11
79.7702
 21
53.4105
  0
LINE
  8
0
 10
79.7702
 20
53.4105
 11
41.3958
 21
71.7451
  0
LINE
  8
0
 10
41.3958
 20
71.7451
 11
40.6115
 21
71.9409
  0
LINE
  8
0
 10
40.6115
 20
71.9409
 11
40.0836
 21
71.9818
  0
LINE
  8
0
 10
40.0836
 20
71.9818
 11
39.4658
 21
71.9407
  0
LINE
  8
0
 10
39.4658
 20
71.9407
 11
38.6815
 21
71.7445
  0
LINE
  8
0
 10
38.6815
 20
71.7445
 11
38.2589
 21
71.5639
  0
LINE
  8
0
 10
38.2589
 20
71.5639
 11
37.583
 21
71.1389
  0
LINE
  8
0
 10
37.583
 20
71.1389
 11
37.2016
 21
70.801
  0
LINE
  8
0
 10
37.2016
 20
70.801
 11
37.1875
 21
70.7868
  0
LINE
  8
0
 10
37.1875
 20
70.7868
 11
36.6819
 21
70.1561
  0
LINE
  8
0
 10
36.6819
 20
70.1561
 11
36.4284
 21
69.7027
  0
LINE
  8
0
 10
36.4284
 20
69.7027
 11
36.1586
 21
68.9512
  0
LINE
  8
0
 10
36.1586
 20
68.9512
 11
36.0669
 21
68.45
  0
LINE
  8
0
 10
36.0669
 20
68.45
 11
36.0401
 21
68.0512
  0
LINE
  8
0
 10
36.0401
 20
68.0512
 11
36.106
 21
67.2555
  0
LINE
  8
0
 10
36.106
 20
67.2555
 11
36.2821
 21
66.61
  0
LINE
  8
0
 10
36.2821
 20
66.61
 11
36.6295
 21
65.8911
  0
LINE
  8
0
 10
36.6295
 20
65.8911
 11
37.1127
 21
65.2555
  0
LINE
  8
0
 10
37.1127
 20
65.2555
 11
37.2383
 21
65.1266
  0
LINE
  8
0
 10
37.2383
 20
65.1266
 11
67.7428
 21
35.2391
  0
LINE
  8
0
 10
67.7428
 20
35.2391
 11
68.6608
 21
34.5128
  0
LINE
  8
0
 10
68.6608
 20
34.5128
 11
69.634
 21
33.8976
  0
LINE
  8
0
 10
69.634
 20
33.8976
 11
70.6662
 21
33.3875
  0
LINE
  8
0
 10
70.6662
 20
33.3875
 11
71.7645
 21
32.9823
  0
LINE
  8
0
 10
71.7645
 20
32.9823
 11
72.8995
 21
32.6961
  0
LINE
  8
0
 10
72.8995
 20
32.6961
 11
74.0394
 21
32.5339
  0
LINE
  8
0
 10
74.0394
 20
32.5339
 11
75.2092
 21
32.492
  0
LINE
  8
0
 10
75.2092
 20
32.492
 11
76.3578
 21
32.5724
  0
LINE
  8
0
 10
66.1569
 20
49.1368
 11
66.057
 21
49.1674
  0
LINE
  8
0
 10
66.057
 20
49.1674
 11
65.9655
 21
49.218
  0
LINE
  8
0
 10
65.9655
 20
49.218
 11
65.8866
 21
49.2866
  0
LINE
  8
0
 10
65.8866
 20
49.2866
 11
65.8237
 21
49.3701
  0
LINE
  8
0
 10
65.8237
 20
49.3701
 11
65.7796
 21
49.4648
  0
LINE
  8
0
 10
65.7796
 20
49.4648
 11
65.756
 21
49.5667
  0
LINE
  8
0
 10
65.756
 20
49.5667
 11
65.7542
 21
49.6712
  0
LINE
  8
0
 10
65.7542
 20
49.6712
 11
65.7742
 21
49.7738
  0
LINE
  8
0
 10
65.7742
 20
49.7738
 11
65.815
 21
49.87
  0
LINE
  8
0
 10
65.815
 20
49.87
 11
65.875
 21
49.9556
  0
LINE
  8
0
 10
65.875
 20
49.9556
 11
65.9514
 21
50.0269
  0
LINE
  8
0
 10
65.9514
 20
50.0269
 11
66.041
 21
50.0808
  0
LINE
  8
0
 10
66.041
 20
50.0808
 11
66.1398
 21
50.1148
  0
LINE
  8
0
 10
66.1398
 20
50.1148
 11
66.2436
 21
50.1275
  0
LINE
  8
0
 10
66.2436
 20
50.1275
 11
66.3477
 21
50.1184
  0
LINE
  8
0
 10
66.3477
 20
50.1184
 11
66.4477
 21
50.0878
  0
LINE
  8
0
 10
66.4477
 20
50.0878
 11
66.5391
 21
50.0372
  0
LINE
  8
0
 10
66.5391
 20
50.0372
 11
66.618
 21
49.9686
  0
LINE
  8
0
 10
66.618
 20
49.9686
 11
66.6809
 21
49.8851
  0
LINE
  8
0
 10
66.6809
 20
49.8851
 11
66.7251
 21
49.7904
  0
LINE
  8
0
 10
66.7251
 20
49.7904
 11
66.7486
 21
49.6885
  0
LINE
  8
0
 10
66.7486
 20
49.6885
 11
66.7504
 21
49.584
  0
LINE
  8
0
 10
66.7504
 20
49.584
 11
66.7305
 21
49.4814
  0
LINE
  8
0
 10
66.7305
 20
49.4814
 11
66.6896
 21
49.3852
  0
LINE
  8
0
 10
66.6896
 20
49.3852
 11
66.6297
 21
49.2996
  0
LINE
  8
0
 10
66.6297
 20
49.2996
 11
66.5532
 21
49.2283
  0
LINE
  8
0
 10
66.5532
 20
49.2283
 11
66.4636
 21
49.1744
  0
LINE
  8
0
 10
66.4636
 20
49.1744
 11
66.3648
 21
49.1404
  0
LINE
  8
0
 10
66.3648
 20
49.1404
 11
66.261
 21
49.1277
  0
LINE
  8
0
 10
66.261
 20
49.1277
 11
66.1569
 21
49.1368
  0
LINE
  8
0
 10
74.3112
 20
39.8583
 11
73.5715
 21
40.0845
  0
LINE
  8
0
 10
73.5715
 20
40.0845
 11
72.895
 21
40.4595
  0
LINE
  8
0
 10
72.895
 20
40.4595
 11
72.3112
 21
40.9669
  0
LINE
  8
0
 10
72.3112
 20
40.9669
 11
71.8457
 21
41.5847
  0
LINE
  8
0
 10
71.8457
 20
41.5847
 11
71.5188
 21
42.2857
  0
LINE
  8
0
 10
71.5188
 20
42.2857
 11
71.3448
 21
43.0394
  0
LINE
  8
0
 10
71.3448
 20
43.0394
 11
71.3313
 21
43.8128
  0
LINE
  8
0
 10
71.3313
 20
43.8128
 11
71.4789
 21
44.5721
  0
LINE
  8
0
 10
71.4789
 20
44.5721
 11
71.7812
 21
45.2841
  0
LINE
  8
0
 10
71.7812
 20
45.2841
 11
72.2248
 21
45.9177
  0
LINE
  8
0
 10
72.2248
 20
45.9177
 11
72.7905
 21
46.4453
  0
LINE
  8
0
 10
72.7905
 20
46.4453
 11
73.4536
 21
46.8437
  0
LINE
  8
0
 10
73.4536
 20
46.8437
 11
74.1849
 21
47.0955
  0
LINE
  8
0
 10
74.1849
 20
47.0955
 11
74.9527
 21
47.1898
  0
LINE
  8
0
 10
74.9527
 20
47.1898
 11
75.7232
 21
47.1223
  0
LINE
  8
0
 10
75.7232
 20
47.1223
 11
76.463
 21
46.8962
  0
LINE
  8
0
 10
76.463
 20
46.8962
 11
77.1395
 21
46.5212
  0
LINE
  8
0
 10
77.1395
 20
46.5212
 11
77.7233
 21
46.0137
  0
LINE
  8
0
 10
77.7233
 20
46.0137
 11
78.1887
 21
45.396
  0
LINE
  8
0
 10
78.1887
 20
45.396
 11
78.5157
 21
44.6949
  0
LINE
  8
0
 10
78.5157
 20
44.6949
 11
78.6897
 21
43.9412
  0
LINE
  8
0
 10
78.6897
 20
43.9412
 11
78.7031
 21
43.1679
  0
LINE
  8
0
 10
78.7031
 20
43.1679
 11
78.5556
 21
42.4086
  0
LINE
  8
0
 10
78.5556
 20
42.4086
 11
78.2533
 21
41.6965
  0
LINE
  8
0
 10
78.2533
 20
41.6965
 11
77.8097
 21
41.0629
  0
LINE
  8
0
 10
77.8097
 20
41.0629
 11
77.244
 21
40.5354
  0
LINE
  8
0
 10
77.244
 20
40.5354
 11
76.5809
 21
40.137
  0
LINE
  8
0
 10
76.5809
 20
40.137
 11
75.8496
 21
39.8852
  0
LINE
  8
0
 10
75.8496
 20
39.8852
 11
75.0818
 21
39.7909
  0
LINE
  8
0
 10
75.0818
 20
39.7909
 11
74.3112
 21
39.8583
  0
LINE
  8
0
 10
57.238
 20
13.4707
 11
58.3746
 21
13.6548
  0
LINE
  8
0
 10
58.3746
 20
13.6548
 11
59.4857
 21
13.9567
  0
LINE
  8
0
 10
59.4857
 20
13.9567
 11
60.5591
 21
14.373
  0
LINE
  8
0
 10
60.5591
 20
14.373
 11
61.5998
 21
14.909
  0
LINE
  8
0
 10
61.5998
 20
14.909
 11
62.5621
 21
15.5411
  0
LINE
  8
0
 10
62.5621
 20
15.5411
 11
63.4531
 21
16.2704
  0
LINE
  8
0
 10
63.4531
 20
16.2704
 11
64.263
 21
17.0888
  0
LINE
  8
0
 10
64.263
 20
17.0888
 11
64.9829
 21
17.9874
  0
LINE
  8
0
 10
64.9829
 20
17.9874
 11
65.6049
 21
18.9563
  0
LINE
  8
0
 10
65.6049
 20
18.9563
 11
66.1223
 21
19.9849
  0
LINE
  8
0
 10
66.1223
 20
19.9849
 11
66.5351
 21
21.0803
  0
LINE
  8
0
 10
66.5351
 20
21.0803
 11
66.8253
 21
22.1945
  0
LINE
  8
0
 10
66.8253
 20
22.1945
 11
66.9994
 21
23.3521
  0
LINE
  8
0
 10
66.9994
 20
23.3521
 11
67.0496
 21
24.5023
  0
LINE
  8
0
 10
67.0496
 20
24.5023
 11
66.9793
 21
25.6516
  0
LINE
  8
0
 10
66.9793
 20
25.6516
 11
66.7934
 21
26.7684
  0
LINE
  8
0
 10
66.7934
 20
26.7684
 11
66.4937
 21
27.8603
  0
LINE
  8
0
 10
66.4937
 20
27.8603
 11
66.0754
 21
28.933
  0
LINE
  8
0
 10
66.0754
 20
28.933
 11
65.5473
 21
29.9562
  0
LINE
  8
0
 10
65.5473
 20
29.9562
 11
64.9152
 21
30.9185
  0
LINE
  8
0
 10
64.9152
 20
30.9185
 11
64.5031
 21
31.4452
  0
LINE
  8
0
 10
64.5031
 20
31.4452
 11
64.5353
 21
31.4774
  0
LINE
  8
0
 10
64.5353
 20
31.4774
 11
32.0084
 21
64.0043
  0
LINE
  8
0
 10
32.0084
 20
64.0043
 11
32
 21
63.996
  0
LINE
  8
0
 10
32
 20
63.996
 11
32
 21
64
  0
LINE
  8
0
 10
32
 20
64
 11
-31.954
 21
64
  0
LINE
  8
0
 10
-31.954
 20
64
 11
-31.9584
 21
64.0043
  0
LINE
  8
0
 10
-31.9584
 20
64.0043
 11
-31.9627
 21
64
  0
LINE
  8
0
 10
-31.9627
 20
64
 11
-32
 21
64
  0
LINE
  8
0
 10
-32
 20
64
 11
-32
 21
63.9627
  0
LINE
  8
0
 10
-32
 20
63.9627
 11
-64.4853
 21
31.4774
  0
LINE
  8
0
 10
-64.4853
 20
31.4774
 11
-64.4531
 21
31.4452
  0
LINE
  8
0
 10
-64.4531
 20
31.4452
 11
-65.1408
 21
30.5256
  0
LINE
  8
0
 10
-65.1408
 20
30.5256
 11
-65.7304
 21
29.5366
  0
LINE
  8
0
 10
-65.7304
 20
29.5366
 11
-66.2205
 21
28.4736
  0
LINE
  8
0
 10
-66.2205
 20
28.4736
 11
-66.5948
 21
27.3645
  0
LINE
  8
0
 10
-66.5948
 20
27.3645
 11
-66.8459
 21
26.2408
  0
LINE
  8
0
 10
-66.8459
 20
26.2408
 11
-66.9783
 21
25.097
  0
LINE
  8
0
 10
-66.9783
 20
25.097
 11
-66.9903
 21
23.9457
  0
LINE
  8
0
 10
-66.9903
 20
23.9457
 11
-66.882
 21
22.7994
  0
LINE
  8
0
 10
-66.882
 20
22.7994
 11
-66.6544
 21
21.6708
  0
LINE
  8
0
 10
-66.6544
 20
21.6708
 11
-66.3034
 21
20.5541
  0
LINE
  8
0
 10
-66.3034
 20
20.5541
 11
-65.8357
 21
19.481
  0
LINE
  8
0
 10
-65.8357
 20
19.481
 11
-65.267
 21
18.4799
  0
LINE
  8
0
 10
-65.267
 20
18.4799
 11
-64.5967
 21
17.5437
  0
LINE
  8
0
 10
-64.5967
 20
17.5437
 11
-63.8188
 21
16.669
  0
LINE
  8
0
 10
-63.8188
 20
16.669
 11
-62.9523
 21
15.882
  0
LINE
  8
0
 10
-62.9523
 20
15.882
 11
-62.0232
 21
15.202
  0
LINE
  8
0
 10
-62.0232
 20
15.202
 11
-61.0281
 21
14.6228
  0
LINE
  8
0
 10
-61.0281
 20
14.6228
 11
-59.9779
 21
14.1508
  0
LINE
  8
0
 10
-59.9779
 20
14.1508
 11
-58.8841
 21
13.7912
  0
LINE
  8
0
 10
-58.8841
 20
13.7912
 11
-57.7587
 21
13.5479
  0
LINE
  8
0
 10
-57.7587
 20
13.5479
 11
-56.614
 21
13.4235
  0
LINE
  8
0
 10
-56.614
 20
13.4235
 11
-55.4435
 21
13.4204
  0
LINE
  8
0
 10
-55.4435
 20
13.4204
 11
-54.2792
 21
13.5418
  0
LINE
  8
0
 10
-54.2792
 20
13.5418
 11
-53.153
 21
13.7812
  0
LINE
  8
0
 10
-53.153
 20
13.7812
 11
-52.058
 21
14.137
  0
LINE
  8
0
 10
-52.058
 20
14.137
 11
-50.989
 21
14.614
  0
LINE
  8
0
 10
-50.989
 20
14.614
 11
-49.9768
 21
15.202
  0
LINE
  8
0
 10
-49.9768
 20
15.202
 11
-49.1073
 21
15.8336
  0
LINE
  8
0
 10
-49.1073
 20
15.8336
 11
-48.9611
 21
15.9533
  0
LINE
  8
0
 10
-48.9611
 20
15.9533
 11
-48.9289
 21
15.9211
  0
LINE
  8
0
 10
-48.9289
 20
15.9211
 11
-26.85
 21
38
  0
LINE
  8
0
 10
-26.85
 20
38
 11
26.9
 21
38
  0
LINE
  8
0
 10
26.9
 20
38
 11
48.9789
 21
15.9211
  0
LINE
  8
0
 10
48.9789
 20
15.9211
 11
49.0111
 21
15.9533
  0
LINE
  8
0
 10
49.0111
 20
15.9533
 11
49.9307
 21
15.2655
  0
LINE
  8
0
 10
49.9307
 20
15.2655
 11
50.9197
 21
14.676
  0
LINE
  8
0
 10
50.9197
 20
14.676
 11
51.965
 21
14.193
  0
LINE
  8
0
 10
51.965
 20
14.193
 11
53.0364
 21
13.8272
  0
LINE
  8
0
 10
53.0364
 20
13.8272
 11
54.1777
 21
13.5669
  0
LINE
  8
0
 10
54.1777
 20
13.5669
 11
54.9384
 21
13.4627
  0
LINE
  8
0
 10
54.9384
 20
13.4627
 11
56.0884
 21
13.4064
  0
LINE
  8
0
 10
56.0884
 20
13.4064
 11
57.238
 21
13.4707
  0
LINE
  8
0
 10
34
 20
43
 11
34
 21
53
  0
LINE
  8
0
 10
34
 20
53
 11
37
 21
53
  0
LINE
  8
0
 10
37
 20
53
 11
37
 21
43
  0
LINE
  8
0
 10
37
 20
43
 11
34
 21
43
  0
LINE
  8
0
 10
-37
 20
43
 11
-37
 21
53
  0
LINE
  8
0
 10
-37
 20
53
 11
-34
 21
53
  0
LINE
  8
0
 10
-34
 20
53
 11
-34
 21
43
  0
LINE
  8
0
 10
-34
 20
43
 11
-37
 21
43
  0
LINE
  8
0
 10
40.8432
 20
46.5082
 11
40.5365
 21
46.5734
  0
LINE
  8
0
 10
40.5365
 20
46.5734
 11
40.25
 21
46.701
  0
LINE
  8
0
 10
40.25
 20
46.701
 11
39.9963
 21
46.8853
  0
LINE
  8
0
 10
39.9963
 20
46.8853
 11
39.7865
 21
47.1183
  0
LINE
  8
0
 10
39.7865
 20
47.1183
 11
39.6297
 21
47.3899
  0
LINE
  8
0
 10
39.6297
 20
47.3899
 11
39.5328
 21
47.6881
  0
LINE
  8
0
 10
39.5328
 20
47.6881
 11
39.5
 21
48
  0
LINE
  8
0
 10
39.5
 20
48
 11
39.5328
 21
48.3119
  0
LINE
  8
0
 10
39.5328
 20
48.3119
 11
39.6297
 21
48.6101
  0
LINE
  8
0
 10
39.6297
 20
48.6101
 11
39.7865
 21
48.8817
  0
LINE
  8
0
 10
39.7865
 20
48.8817
 11
39.9963
 21
49.1147
  0
LINE
  8
0
 10
39.9963
 20
49.1147
 11
40.25
 21
49.299
  0
LINE
  8
0
 10
40.25
 20
49.299
 11
40.5365
 21
49.4266
  0
LINE
  8
0
 10
40.5365
 20
49.4266
 11
40.8432
 21
49.4918
  0
LINE
  8
0
 10
40.8432
 20
49.4918
 11
41.1568
 21
49.4918
  0
LINE
  8
0
 10
41.1568
 20
49.4918
 11
41.4635
 21
49.4266
  0
LINE
  8
0
 10
41.4635
 20
49.4266
 11
41.75
 21
49.299
  0
LINE
  8
0
 10
41.75
 20
49.299
 11
42.0037
 21
49.1147
  0
LINE
  8
0
 10
42.0037
 20
49.1147
 11
42.2135
 21
48.8817
  0
LINE
  8
0
 10
42.2135
 20
48.8817
 11
42.3703
 21
48.6101
  0
LINE
  8
0
 10
42.3703
 20
48.6101
 11
42.4672
 21
48.3119
  0
LINE
  8
0
 10
42.4672
 20
48.3119
 11
42.5
 21
48
  0
LINE
  8
0
 10
42.5
 20
48
 11
42.4672
 21
47.6881
  0
LINE
  8
0
 10
42.4672
 20
47.6881
 11
42.3703
 21
47.3899
  0
LINE
  8
0
 10
42.3703
 20
47.3899
 11
42.2135
 21
47.1183
  0
LINE
  8
0
 10
42.2135
 20
47.1183
 11
42.0037
 21
46.8853
  0
LINE
  8
0
 10
42.0037
 20
46.8853
 11
41.75
 21
46.701
  0
LINE
  8
0
 10
41.75
 20
46.701
 11
41.4635
 21
46.5734
  0
LINE
  8
0
 10
41.4635
 20
46.5734
 11
41.1568
 21
46.5082
  0
LINE
  8
0
 10
41.1568
 20
46.5082
 11
40.8432
 21
46.5082
  0
LINE
  8
0
 10
-41.6568
 20
46.5082
 11
-41.9635
 21
46.5734
  0
LINE
  8
0
 10
-41.9635
 20
46.5734
 11
-42.25
 21
46.701
  0
LINE
  8
0
 10
-42.25
 20
46.701
 11
-42.5037
 21
46.8853
  0
LINE
  8
0
 10
-42.5037
 20
46.8853
 11
-42.7135
 21
47.1183
  0
LINE
  8
0
 10
-42.7135
 20
47.1183
 11
-42.8703
 21
47.3899
  0
LINE
  8
0
 10
-42.8703
 20
47.3899
 11
-42.9672
 21
47.6881
  0
LINE
  8
0
 10
-42.9672
 20
47.6881
 11
-43
 21
48
  0
LINE
  8
0
 10
-43
 20
48
 11
-42.9672
 21
48.3119
  0
LINE
  8
0
 10
-42.9672
 20
48.3119
 11
-42.8703
 21
48.6101
  0
LINE
  8
0
 10
-42.8703
 20
48.6101
 11
-42.7135
 21
48.8817
  0
LINE
  8
0
 10
-42.7135
 20
48.8817
 11
-42.5037
 21
49.1147
  0
LINE
  8
0
 10
-42.5037
 20
49.1147
 11
-42.25
 21
49.299
  0
LINE
  8
0
 10
-42.25
 20
49.299
 11
-41.9635
 21
49.4266
  0
LINE
  8
0
 10
-41.9635
 20
49.4266
 11
-41.6568
 21
49.4918
  0
LINE
  8
0
 10
-41.6568
 20
49.4918
 11
-41.3432
 21
49.4918
  0
LINE
  8
0
 10
-41.3432
 20
49.4918
 11
-41.0365
 21
49.4266
  0
LINE
  8
0
 10
-41.0365
 20
49.4266
 11
-40.75
 21
49.299
  0
LINE
  8
0
 10
-40.75
 20
49.299
 11
-40.4963
 21
49.1147
  0
LINE
  8
0
 10
-40.4963
 20
49.1147
 11
-40.2865
 21
48.8817
  0
LINE
  8
0
 10
-40.2865
 20
48.8817
 11
-40.1297
 21
48.6101
  0
LINE
  8
0
 10
-40.1297
 20
48.6101
 11
-40.0328
 21
48.3119
  0
LINE
  8
0
 10
-40.0328
 20
48.3119
 11
-40
 21
48
  0
LINE
  8
0
 10
-40
 20
48
 11
-40.0328
 21
47.6881
  0
LINE
  8
0
 10
-40.0328
 20
47.6881
 11
-40.1297
 21
47.3899
  0
LINE
  8
0
 10
-40.1297
 20
47.3899
 11
-40.2865
 21
47.1183
  0
LINE
  8
0
 10
-40.2865
 20
47.1183
 11
-40.4963
 21
46.8853
  0
LINE
  8
0
 10
-40.4963
 20
46.8853
 11
-40.75
 21
46.701
  0
LINE
  8
0
 10
-40.75
 20
46.701
 11
-41.0365
 21
46.5734
  0
LINE
  8
0
 10
-41.0365
 20
46.5734
 11
-41.3432
 21
46.5082
  0
LINE
  8
0
 10
-41.3432
 20
46.5082
 11
-41.6568
 21
46.5082
  0
LINE
  8
0
 10
41.6413
 20
37.8998
 11
41.4798
 21
37.9431
  0
LINE
  8
0
 10
41.4798
 20
37.9431
 11
41.3307
 21
38.019
  0
LINE
  8
0
 10
41.3307
 20
38.019
 11
41.2008
 21
38.1242
  0
LINE
  8
0
 10
41.2008
 20
38.1242
 11
41.0955
 21
38.2542
  0
LINE
  8
0
 10
41.0955
 20
38.2542
 11
41.0196
 21
38.4032
  0
LINE
  8
0
 10
41.0196
 20
38.4032
 11
40.9763
 21
38.5647
  0
LINE
  8
0
 10
40.9763
 20
38.5647
 11
40.9675
 21
38.7318
  0
LINE
  8
0
 10
40.9675
 20
38.7318
 11
40.9937
 21
38.897
  0
LINE
  8
0
 10
40.9937
 20
38.897
 11
41.0536
 21
39.0531
  0
LINE
  8
0
 10
41.0536
 20
39.0531
 11
41.1447
 21
39.1934
  0
LINE
  8
0
 10
41.1447
 20
39.1934
 11
41.263
 21
39.3116
  0
LINE
  8
0
 10
41.263
 20
39.3116
 11
41.4032
 21
39.4027
  0
LINE
  8
0
 10
41.4032
 20
39.4027
 11
41.5594
 21
39.4626
  0
LINE
  8
0
 10
41.5594
 20
39.4626
 11
41.7246
 21
39.4888
  0
LINE
  8
0
 10
41.7246
 20
39.4888
 11
41.8916
 21
39.48
  0
LINE
  8
0
 10
41.8916
 20
39.48
 11
42.0531
 21
39.4368
  0
LINE
  8
0
 10
42.0531
 20
39.4368
 11
42.2021
 21
39.3608
  0
LINE
  8
0
 10
42.2021
 20
39.3608
 11
42.3321
 21
39.2556
  0
LINE
  8
0
 10
42.3321
 20
39.2556
 11
42.4374
 21
39.1256
  0
LINE
  8
0
 10
42.4374
 20
39.1256
 11
42.5133
 21
38.9766
  0
LINE
  8
0
 10
42.5133
 20
38.9766
 11
42.5566
 21
38.815
  0
LINE
  8
0
 10
42.5566
 20
38.815
 11
42.5653
 21
38.648
  0
LINE
  8
0
 10
42.5653
 20
38.648
 11
42.5392
 21
38.4828
  0
LINE
  8
0
 10
42.5392
 20
38.4828
 11
42.4792
 21
38.3267
  0
LINE
  8
0
 10
42.4792
 20
38.3267
 11
42.3882
 21
38.1864
  0
LINE
  8
0
 10
42.3882
 20
38.1864
 11
42.2699
 21
38.0682
  0
LINE
  8
0
 10
42.2699
 20
38.0682
 11
42.1296
 21
37.9771
  0
LINE
  8
0
 10
42.1296
 20
37.9771
 11
41.9735
 21
37.9172
  0
LINE
  8
0
 10
41.9735
 20
37.9172
 11
41.8083
 21
37.891
  0
LINE
  8
0
 10
41.8083
 20
37.891
 11
41.6413
 21
37.8998
  0
LINE
  8
0
 10
-41.9235
 20
37.9172
 11
-42.0796
 21
37.9771
  0
LINE
  8
0
 10
-42.0796
 20
37.9771
 11
-42.2199
 21
38.0682
  0
LINE
  8
0
 10
-42.2199
 20
38.0682
 11
-42.3382
 21
38.1864
  0
LINE
  8
0
 10
-42.3382
 20
38.1864
 11
-42.4292
 21
38.3267
  0
LINE
  8
0
 10
-42.4292
 20
38.3267
 11
-42.4892
 21
38.4828
  0
LINE
  8
0
 10
-42.4892
 20
38.4828
 11
-42.5153
 21
38.648
  0
LINE
  8
0
 10
-42.5153
 20
38.648
 11
-42.5066
 21
38.815
  0
LINE
  8
0
 10
-42.5066
 20
38.815
 11
-42.4633
 21
38.9766
  0
LINE
  8
0
 10
-42.4633
 20
38.9766
 11
-42.3874
 21
39.1256
  0
LINE
  8
0
 10
-42.3874
 20
39.1256
 11
-42.2821
 21
39.2556
  0
LINE
  8
0
 10
-42.2821
 20
39.2556
 11
-42.1521
 21
39.3608
  0
LINE
  8
0
 10
-42.1521
 20
39.3608
 11
-42.0031
 21
39.4368
  0
LINE
  8
0
 10
-42.0031
 20
39.4368
 11
-41.8416
 21
39.48
  0
LINE
  8
0
 10
-41.8416
 20
39.48
 11
-41.6746
 21
39.4888
  0
LINE
  8
0
 10
-41.6746
 20
39.4888
 11
-41.5094
 21
39.4626
  0
LINE
  8
0
 10
-41.5094
 20
39.4626
 11
-41.3532
 21
39.4027
  0
LINE
  8
0
 10
-41.3532
 20
39.4027
 11
-41.213
 21
39.3116
  0
LINE
  8
0
 10
-41.213
 20
39.3116
 11
-41.0947
 21
39.1934
  0
LINE
  8
0
 10
-41.0947
 20
39.1934
 11
-41.0036
 21
39.0531
  0
LINE
  8
0
 10
-41.0036
 20
39.0531
 11
-40.9437
 21
38.897
  0
LINE
  8
0
 10
-40.9437
 20
38.897
 11
-40.9175
 21
38.7318
  0
LINE
  8
0
 10
-40.9175
 20
38.7318
 11
-40.9263
 21
38.5647
  0
LINE
  8
0
 10
-40.9263
 20
38.5647
 11
-40.9696
 21
38.4032
  0
LINE
  8
0
 10
-40.9696
 20
38.4032
 11
-41.0455
 21
38.2542
  0
LINE
  8
0
 10
-41.0455
 20
38.2542
 11
-41.1508
 21
38.1242
  0
LINE
  8
0
 10
-41.1508
 20
38.1242
 11
-41.2807
 21
38.019
  0
LINE
  8
0
 10
-41.2807
 20
38.019
 11
-41.4297
 21
37.9431
  0
LINE
  8
0
 10
-41.4297
 20
37.9431
 11
-41.5913
 21
37.8998
  0
LINE
  8
0
 10
-41.5913
 20
37.8998
 11
-41.7583
 21
37.891
  0
LINE
  8
0
 10
-41.7583
 20
37.891
 11
-41.9235
 21
37.9172
  0
LINE
  8
0
 10
55.1427
 20
18.6778
 11
53.9715
 21
18.9916
  0
LINE
  8
0
 10
53.9715
 20
18.9916
 11
52.8911
 21
19.5421
  0
LINE
  8
0
 10
52.8911
 20
19.5421
 11
51.9488
 21
20.3051
  0
LINE
  8
0
 10
51.9488
 20
20.3051
 11
51.1857
 21
21.2475
  0
LINE
  8
0
 10
51.1857
 20
21.2475
 11
50.6352
 21
22.3278
  0
LINE
  8
0
 10
50.6352
 20
22.3278
 11
50.3214
 21
23.499
  0
LINE
  8
0
 10
50.3214
 20
23.499
 11
50.2579
 21
24.7099
  0
LINE
  8
0
 10
50.2579
 20
24.7099
 11
50.4283
 21
25.7854
  0
LINE
  8
0
 10
50.4283
 20
25.7854
 11
49.3325
 21
26.8812
  0
LINE
  8
0
 10
49.3325
 20
26.8812
 11
48.9378
 21
27.3686
  0
LINE
  8
0
 10
48.9378
 20
27.3686
 11
48.6531
 21
27.9274
  0
LINE
  8
0
 10
48.6531
 20
27.9274
 11
48.4907
 21
28.5332
  0
LINE
  8
0
 10
48.4907
 20
28.5332
 11
48.4579
 21
29.1596
  0
LINE
  8
0
 10
48.4579
 20
29.1596
 11
48.556
 21
29.779
  0
LINE
  8
0
 10
48.556
 20
29.779
 11
48.7808
 21
30.3645
  0
LINE
  8
0
 10
48.7808
 20
30.3645
 11
49.1224
 21
30.8905
  0
LINE
  8
0
 10
49.1224
 20
30.8905
 11
49.5658
 21
31.334
  0
LINE
  8
0
 10
49.5658
 20
31.334
 11
50.0918
 21
31.6756
  0
LINE
  8
0
 10
50.0918
 20
31.6756
 11
50.6773
 21
31.9003
  0
LINE
  8
0
 10
50.6773
 20
31.9003
 11
51.2968
 21
31.9984
  0
LINE
  8
0
 10
51.2968
 20
31.9984
 11
51.9231
 21
31.9656
  0
LINE
  8
0
 10
51.9231
 20
31.9656
 11
52.5289
 21
31.8033
  0
LINE
  8
0
 10
52.5289
 20
31.8033
 11
53.0877
 21
31.5186
  0
LINE
  8
0
 10
53.0877
 20
31.5186
 11
53.5751
 21
31.1239
  0
LINE
  8
0
 10
53.5751
 20
31.1239
 11
54.6709
 21
30.0281
  0
LINE
  8
0
 10
54.6709
 20
30.0281
 11
55.7464
 21
30.1984
  0
LINE
  8
0
 10
55.7464
 20
30.1984
 11
56.9573
 21
30.1349
  0
LINE
  8
0
 10
56.9573
 20
30.1349
 11
58.1285
 21
29.8211
  0
LINE
  8
0
 10
58.1285
 20
29.8211
 11
59.2089
 21
29.2706
  0
LINE
  8
0
 10
59.2089
 20
29.2706
 11
60.1512
 21
28.5076
  0
LINE
  8
0
 10
60.1512
 20
28.5076
 11
60.9143
 21
27.5653
  0
LINE
  8
0
 10
60.9143
 20
27.5653
 11
61.4648
 21
26.4849
  0
LINE
  8
0
 10
61.4648
 20
26.4849
 11
61.7786
 21
25.3137
  0
LINE
  8
0
 10
61.7786
 20
25.3137
 11
61.842
 21
24.1028
  0
LINE
  8
0
 10
61.842
 20
24.1028
 11
61.6524
 21
22.9052
  0
LINE
  8
0
 10
61.6524
 20
22.9052
 11
61.2178
 21
21.7732
  0
LINE
  8
0
 10
61.2178
 20
21.7732
 11
60.5574
 21
20.7563
  0
LINE
  8
0
 10
60.5574
 20
20.7563
 11
59.7001
 21
19.8989
  0
LINE
  8
0
 10
59.7001
 20
19.8989
 11
58.6831
 21
19.2385
  0
LINE
  8
0
 10
58.6831
 20
19.2385
 11
57.5511
 21
18.804
  0
LINE
  8
0
 10
57.5511
 20
18.804
 11
56.3535
 21
18.6143
  0
LINE
  8
0
 10
56.3535
 20
18.6143
 11
55.1427
 21
18.6778
  0
LINE
  8
0
 10
-57.5011
 20
18.804
 11
-58.6331
 21
19.2385
  0
LINE
  8
0
 10
-58.6331
 20
19.2385
 11
-59.6501
 21
19.8989
  0
LINE
  8
0
 10
-59.6501
 20
19.8989
 11
-60.5074
 21
20.7563
  0
LINE
  8
0
 10
-60.5074
 20
20.7563
 11
-61.1678
 21
21.7732
  0
LINE
  8
0
 10
-61.1678
 20
21.7732
 11
-61.6024
 21
22.9052
  0
LINE
  8
0
 10
-61.6024
 20
22.9052
 11
-61.792
 21
24.1028
  0
LINE
  8
0
 10
-61.792
 20
24.1028
 11
-61.7286
 21
25.3137
  0
LINE
  8
0
 10
-61.7286
 20
25.3137
 11
-61.4148
 21
26.4849
  0
LINE
  8
0
 10
-61.4148
 20
26.4849
 11
-60.8643
 21
27.5653
  0
LINE
  8
0
 10
-60.8643
 20
27.5653
 11
-60.1012
 21
28.5076
  0
LINE
  8
0
 10
-60.1012
 20
28.5076
 11
-59.1589
 21
29.2706
  0
LINE
  8
0
 10
-59.1589
 20
29.2706
 11
-58.0785
 21
29.8211
  0
LINE
  8
0
 10
-58.0785
 20
29.8211
 11
-56.9073
 21
30.1349
  0
LINE
  8
0
 10
-56.9073
 20
30.1349
 11
-55.6964
 21
30.1984
  0
LINE
  8
0
 10
-55.6964
 20
30.1984
 11
-54.6209
 21
30.0281
  0
LINE
  8
0
 10
-54.6209
 20
30.0281
 11
-53.5251
 21
31.1239
  0
LINE
  8
0
 10
-53.5251
 20
31.1239
 11
-53.0377
 21
31.5186
  0
LINE
  8
0
 10
-53.0377
 20
31.5186
 11
-52.4789
 21
31.8033
  0
LINE
  8
0
 10
-52.4789
 20
31.8033
 11
-51.8731
 21
31.9656
  0
LINE
  8
0
 10
-51.8731
 20
31.9656
 11
-51.2468
 21
31.9984
  0
LINE
  8
0
 10
-51.2468
 20
31.9984
 11
-50.6273
 21
31.9003
  0
LINE
  8
0
 10
-50.6273
 20
31.9003
 11
-50.0418
 21
31.6756
  0
LINE
  8
0
 10
-50.0418
 20
31.6756
 11
-49.5158
 21
31.334
  0
LINE
  8
0
 10
-49.5158
 20
31.334
 11
-49.0724
 21
30.8905
  0
LINE
  8
0
 10
-49.0724
 20
30.8905
 11
-48.7308
 21
30.3645
  0
LINE
  8
0
 10
-48.7308
 20
30.3645
 11
-48.506
 21
29.779
  0
LINE
  8
0
 10
-48.506
 20
29.779
 11
-48.4079
 21
29.1596
  0
LINE
  8
0
 10
-48.4079
 20
29.1596
 11
-48.4407
 21
28.5332
  0
LINE
  8
0
 10
-48.4407
 20
28.5332
 11
-48.6031
 21
27.9274
  0
LINE
  8
0
 10
-48.6031
 20
27.9274
 11
-48.8878
 21
27.3686
  0
LINE
  8
0
 10
-48.8878
 20
27.3686
 11
-49.2825
 21
26.8812
  0
LINE
  8
0
 10
-49.2825
 20
26.8812
 11
-50.3783
 21
25.7854
  0
LINE
  8
0
 10
-50.3783
 20
25.7854
 11
-50.2079
 21
24.7099
  0
LINE
  8
0
 10
-50.2079
 20
24.7099
 11
-50.2714
 21
23.499
  0
LINE
  8
0
 10
-50.2714
 20
23.499
 11
-50.5852
 21
22.3278
  0
LINE
  8
0
 10
-50.5852
 20
22.3278
 11
-51.1357
 21
21.2475
  0
LINE
  8
0
 10
-51.1357
 20
21.2475
 11
-51.8988
 21
20.3051
  0
LINE
  8
0
 10
-51.8988
 20
20.3051
 11
-52.8411
 21
19.5421
  0
LINE
  8
0
 10
-52.8411
 20
19.5421
 11
-53.9215
 21
18.9916
  0
LINE
  8
0
 10
-53.9215
 20
18.9916
 11
-55.0927
 21
18.6778
  0
LINE
  8
0
 10
-55.0927
 20
18.6778
 11
-56.3035
 21
18.6143
  0
LINE
  8
0
 10
-56.3035
 20
18.6143
 11
-57.5011
 21
18.804
  0
LINE
  8
0
 10
-62.2175
 20
17.6232
 11
-62.3736
 21
17.6831
  0
LINE
  8
0
 10
-62.3736
 20
17.6831
 11
-62.5139
 21
17.7742
  0
LINE
  8
0
 10
-62.5139
 20
17.7742
 11
-62.6321
 21
17.8925
  0
LINE
  8
0
 10
-62.6321
 20
17.8925
 11
-62.7232
 21
18.0328
  0
LINE
  8
0
 10
-62.7232
 20
18.0328
 11
-62.7831
 21
18.1889
  0
LINE
  8
0
 10
-62.7831
 20
18.1889
 11
-62.8093
 21
18.3541
  0
LINE
  8
0
 10
-62.8093
 20
18.3541
 11
-62.8006
 21
18.5211
  0
LINE
  8
0
 10
-62.8006
 20
18.5211
 11
-62.7573
 21
18.6826
  0
LINE
  8
0
 10
-62.7573
 20
18.6826
 11
-62.6813
 21
18.8317
  0
LINE
  8
0
 10
-62.6813
 20
18.8317
 11
-62.5761
 21
18.9616
  0
LINE
  8
0
 10
-62.5761
 20
18.9616
 11
-62.4461
 21
19.0669
  0
LINE
  8
0
 10
-62.4461
 20
19.0669
 11
-62.2971
 21
19.1428
  0
LINE
  8
0
 10
-62.2971
 20
19.1428
 11
-62.1355
 21
19.1861
  0
LINE
  8
0
 10
-62.1355
 20
19.1861
 11
-61.9685
 21
19.1949
  0
LINE
  8
0
 10
-61.9685
 20
19.1949
 11
-61.8033
 21
19.1687
  0
LINE
  8
0
 10
-61.8033
 20
19.1687
 11
-61.6472
 21
19.1087
  0
LINE
  8
0
 10
-61.6472
 20
19.1087
 11
-61.5069
 21
19.0177
  0
LINE
  8
0
 10
-61.5069
 20
19.0177
 11
-61.3887
 21
18.8994
  0
LINE
  8
0
 10
-61.3887
 20
18.8994
 11
-61.2976
 21
18.7591
  0
LINE
  8
0
 10
-61.2976
 20
18.7591
 11
-61.2377
 21
18.603
  0
LINE
  8
0
 10
-61.2377
 20
18.603
 11
-61.2115
 21
18.4378
  0
LINE
  8
0
 10
-61.2115
 20
18.4378
 11
-61.2202
 21
18.2708
  0
LINE
  8
0
 10
-61.2202
 20
18.2708
 11
-61.2635
 21
18.1093
  0
LINE
  8
0
 10
-61.2635
 20
18.1093
 11
-61.3395
 21
17.9602
  0
LINE
  8
0
 10
-61.3395
 20
17.9602
 11
-61.4447
 21
17.8303
  0
LINE
  8
0
 10
-61.4447
 20
17.8303
 11
-61.5747
 21
17.725
  0
LINE
  8
0
 10
-61.5747
 20
17.725
 11
-61.7237
 21
17.6491
  0
LINE
  8
0
 10
-61.7237
 20
17.6491
 11
-61.8853
 21
17.6058
  0
LINE
  8
0
 10
-61.8853
 20
17.6058
 11
-62.0523
 21
17.597
  0
LINE
  8
0
 10
-62.0523
 20
17.597
 11
-62.2175
 21
17.6232
  0
LINE
  8
0
 10
61.9353
 20
17.6058
 11
61.7737
 21
17.6491
  0
LINE
  8
0
 10
61.7737
 20
17.6491
 11
61.6247
 21
17.725
  0
LINE
  8
0
 10
61.6247
 20
17.725
 11
61.4947
 21
17.8303
  0
LINE
  8
0
 10
61.4947
 20
17.8303
 11
61.3895
 21
17.9602
  0
LINE
  8
0
 10
61.3895
 20
17.9602
 11
61.3135
 21
18.1093
  0
LINE
  8
0
 10
61.3135
 20
18.1093
 11
61.2702
 21
18.2708
  0
LINE
  8
0
 10
61.2702
 20
18.2708
 11
61.2615
 21
18.4378
  0
LINE
  8
0
 10
61.2615
 20
18.4378
 11
61.2877
 21
18.603
  0
LINE
  8
0
 10
61.2877
 20
18.603
 11
61.3476
 21
18.7591
  0
LINE
  8
0
 10
61.3476
 20
18.7591
 11
61.4387
 21
18.8994
  0
LINE
  8
0
 10
61.4387
 20
18.8994
 11
61.5569
 21
19.0177
  0
LINE
  8
0
 10
61.5569
 20
19.0177
 11
61.6972
 21
19.1087
  0
LINE
  8
0
 10
61.6972
 20
19.1087
 11
61.8533
 21
19.1687
  0
LINE
  8
0
 10
61.8533
 20
19.1687
 11
62.0185
 21
19.1949
  0
LINE
  8
0
 10
62.0185
 20
19.1949
 11
62.1855
 21
19.1861
  0
LINE
  8
0
 10
62.1855
 20
19.1861
 11
62.3471
 21
19.1428
  0
LINE
  8
0
 10
62.3471
 20
19.1428
 11
62.4961
 21
19.0669
  0
LINE
  8
0
 10
62.4961
 20
19.0669
 11
62.6261
 21
18.9616
  0
LINE
  8
0
 10
62.6261
 20
18.9616
 11
62.7313
 21
18.8317
  0
LINE
  8
0
 10
62.7313
 20
18.8317
 11
62.8073
 21
18.6826
  0
LINE
  8
0
 10
62.8073
 20
18.6826
 11
62.8506
 21
18.5211
  0
LINE
  8
0
 10
62.8506
 20
18.5211
 11
62.8593
 21
18.3541
  0
LINE
  8
0
 10
62.8593
 20
18.3541
 11
62.8331
 21
18.1889
  0
LINE
  8
0
 10
62.8331
 20
18.1889
 11
62.7732
 21
18.0328
  0
LINE
  8
0
 10
62.7732
 20
18.0328
 11
62.6821
 21
17.8925
  0
LINE
  8
0
 10
62.6821
 20
17.8925
 11
62.5639
 21
17.7742
  0
LINE
  8
0
 10
62.5639
 20
17.7742
 11
62.4236
 21
17.6831
  0
LINE
  8
0
 10
62.4236
 20
17.6831
 11
62.2675
 21
17.6232
  0
LINE
  8
0
 10
62.2675
 20
17.6232
 11
62.1023
 21
17.597
  0
LINE
  8
0
 10
62.1023
 20
17.597
 11
61.9353
 21
17.6058
  0
LINE
  8
0
 10
135
 20
-12
 11
145
 21
-12
  0
LINE
  8
0
 10
145
 20
-12
 11
145
 21
-15
  0
LINE
  8
0
 10
145
 20
-15
 11
165
 21
-15
  0
LINE
  8
0
 10
165
 20
-15
 11
165
 21
60
  0
LINE
  8
0
 10
165
 20
60
 11
145
 21
60
  0
LINE
  8
0
 10
145
 20
60
 11
145
 21
57
  0
LINE
  8
0
 10
145
 20
57
 11
135
 21
57
  0
LINE
  8
0
 10
135
 20
57
 11
135
 21
60
  0
LINE
  8
0
 10
135
 20
60
 11
105
 21
60
  0
LINE
  8
0
 10
105
 20
60
 11
105
 21
47
  0
LINE
  8
0
 10
105
 20
47
 11
119.2
 21
47
  0
LINE
  8
0
 10
119.2
 20
47
 11
119.2
 21
46.9918
  0
LINE
  8
0
 10
119.2
 20
46.9918
 11
119.357
 21
46.9918
  0
LINE
  8
0
 10
119.357
 20
46.9918
 11
119.664
 21
46.9266
  0
LINE
  8
0
 10
119.664
 20
46.9266
 11
119.95
 21
46.799
  0
LINE
  8
0
 10
119.95
 20
46.799
 11
120.204
 21
46.6147
  0
LINE
  8
0
 10
120.204
 20
46.6147
 11
120.414
 21
46.3817
  0
LINE
  8
0
 10
120.414
 20
46.3817
 11
120.57
 21
46.1101
  0
LINE
  8
0
 10
120.57
 20
46.1101
 11
120.667
 21
45.8119
  0
LINE
  8
0
 10
120.667
 20
45.8119
 11
120.7
 21
45.5
  0
LINE
  8
0
 10
120.7
 20
45.5
 11
120.667
 21
45.1881
  0
LINE
  8
0
 10
120.667
 20
45.1881
 11
120.57
 21
44.8899
  0
LINE
  8
0
 10
120.57
 20
44.8899
 11
120.414
 21
44.6183
  0
LINE
  8
0
 10
120.414
 20
44.6183
 11
120.204
 21
44.3853
  0
LINE
  8
0
 10
120.204
 20
44.3853
 11
119.95
 21
44.201
  0
LINE
  8
0
 10
119.95
 20
44.201
 11
119.664
 21
44.0734
  0
LINE
  8
0
 10
119.664
 20
44.0734
 11
119.357
 21
44.0082
  0
LINE
  8
0
 10
119.357
 20
44.0082
 11
119.2
 21
44.0082
  0
LINE
  8
0
 10
119.2
 20
44.0082
 11
119.2
 21
44
  0
LINE
  8
0
 10
119.2
 20
44
 11
105
 21
44
  0
LINE
  8
0
 10
105
 20
44
 11
105
 21
-1.5
  0
LINE
  8
0
 10
105
 20
-1.5
 11
117.5
 21
-1.5
  0
LINE
  8
0
 10
117.5
 20
-1.5
 11
117.5
 21
-1.50822
  0
LINE
  8
0
 10
117.5
 20
-1.50822
 11
117.657
 21
-1.50822
  0
LINE
  8
0
 10
117.657
 20
-1.50822
 11
117.964
 21
-1.57343
  0
LINE
  8
0
 10
117.964
 20
-1.57343
 11
118.25
 21
-1.70097
  0
LINE
  8
0
 10
118.25
 20
-1.70097
 11
118.504
 21
-1.88528
  0
LINE
  8
0
 10
118.504
 20
-1.88528
 11
118.714
 21
-2.11833
  0
LINE
  8
0
 10
118.714
 20
-2.11833
 11
118.87
 21
-2.38991
  0
LINE
  8
0
 10
118.87
 20
-2.38991
 11
118.967
 21
-2.68814
  0
LINE
  8
0
 10
118.967
 20
-2.68814
 11
119
 21
-3
  0
LINE
  8
0
 10
119
 20
-3
 11
118.967
 21
-3.31187
  0
LINE
  8
0
 10
118.967
 20
-3.31187
 11
118.87
 21
-3.61011
  0
LINE
  8
0
 10
118.87
 20
-3.61011
 11
118.714
 21
-3.88168
  0
LINE
  8
0
 10
118.714
 20
-3.88168
 11
118.504
 21
-4.11473
  0
LINE
  8
0
 10
118.504
 20
-4.11473
 11
118.25
 21
-4.29904
  0
LINE
  8
0
 10
118.25
 20
-4.29904
 11
117.964
 21
-4.42659
  0
LINE
  8
0
 10
117.964
 20
-4.42659
 11
117.657
 21
-4.49179
  0
LINE
  8
0
 10
117.657
 20
-4.49179
 11
117.5
 21
-4.49179
  0
LINE
  8
0
 10
117.5
 20
-4.49179
 11
117.5
 21
-4.5
  0
LINE
  8
0
 10
117.5
 20
-4.5
 11
105
 21
-4.5
  0
LINE
  8
0
 10
105
 20
-4.5
 11
105
 21
-15
  0
LINE
  8
0
 10
105
 20
-15
 11
135
 21
-15
  0
LINE
  8
0
 10
135
 20
-15
 11
135
 21
-12
  0
LINE
  8
0
 10
21.2071
 20
-23.6336
 11
22.3433
 21
-23.4475
  0
LINE
  8
0
 10
22.3433
 20
-23.4475
 11
23.4539
 21
-23.1437
  0
LINE
  8
0
 10
23.4539
 20
-23.1437
 11
24.5267
 21
-22.7254
  0
LINE
  8
0
 10
24.5267
 20
-22.7254
 11
25.5664
 21
-22.1877
  0
LINE
  8
0
 10
25.5664
 20
-22.1877
 11
26.5276
 21
-21.5538
  0
LINE
  8
0
 10
26.5276
 20
-21.5538
 11
27.4031
 21
-20.8359
  0
LINE
  8
0
 10
27.4031
 20
-20.8359
 11
27.8726
 21
-20.3826
  0
LINE
  8
0
 10
27.8726
 20
-20.3826
 11
28.6325
 21
-19.5176
  0
LINE
  8
0
 10
28.6325
 20
-19.5176
 11
29.3081
 21
-18.5616
  0
LINE
  8
0
 10
29.3081
 20
-18.5616
 11
29.8698
 21
-17.5566
  0
LINE
  8
0
 10
29.8698
 20
-17.5566
 11
30.33
 21
-16.4803
  0
LINE
  8
0
 10
30.33
 20
-16.4803
 11
30.6732
 21
-15.3611
  0
LINE
  8
0
 10
30.6732
 20
-15.3611
 11
30.8929
 21
-14.2309
  0
LINE
  8
0
 10
30.8929
 20
-14.2309
 11
30.9544
 21
-13.7
  0
LINE
  8
0
 10
30.9544
 20
-13.7
 11
31
 21
-13.7
  0
LINE
  8
0
 10
31
 20
-13.7
 11
30.9849
 21
24.5757
  0
LINE
  8
0
 10
30.9849
 20
24.5757
 11
30.8646
 21
25.7208
  0
LINE
  8
0
 10
30.8646
 20
25.7208
 11
30.6252
 21
26.847
  0
LINE
  8
0
 10
30.6252
 20
26.847
 11
30.2694
 21
27.942
  0
LINE
  8
0
 10
30.2694
 20
27.942
 11
29.8011
 21
28.9939
  0
LINE
  8
0
 10
29.8011
 20
28.9939
 11
29.2254
 21
29.991
  0
LINE
  8
0
 10
29.2254
 20
29.991
 11
28.5486
 21
30.9225
  0
LINE
  8
0
 10
28.5486
 20
30.9225
 11
27.7782
 21
31.7782
  0
LINE
  8
0
 10
27.7782
 20
31.7782
 11
26.9076
 21
32.5607
  0
LINE
  8
0
 10
26.9076
 20
32.5607
 11
25.9588
 21
33.2462
  0
LINE
  8
0
 10
25.9588
 20
33.2462
 11
24.9596
 21
33.8184
  0
LINE
  8
0
 10
24.9596
 20
33.8184
 11
23.9062
 21
34.2831
  0
LINE
  8
0
 10
23.9062
 20
34.2831
 11
22.8099
 21
34.6351
  0
LINE
  8
0
 10
22.8099
 20
34.6351
 11
21.6639
 21
34.8734
  0
LINE
  8
0
 10
21.6639
 20
34.8734
 11
20.5182
 21
34.9878
  0
LINE
  8
0
 10
20.5182
 20
34.9878
 11
19.3476
 21
34.9806
  0
LINE
  8
0
 10
19.3476
 20
34.9806
 11
18.1845
 21
34.8491
  0
LINE
  8
0
 10
18.1845
 20
34.8491
 11
17.0604
 21
34.5999
  0
LINE
  8
0
 10
17.0604
 20
34.5999
 11
15.9685
 21
34.2346
  0
LINE
  8
0
 10
15.9685
 20
34.2346
 11
14.9208
 21
33.7571
  0
LINE
  8
0
 10
14.9208
 20
33.7571
 11
13.9287
 21
33.1727
  0
LINE
  8
0
 10
13.9287
 20
33.1727
 11
13.0031
 21
32.4879
  0
LINE
  8
0
 10
13.0031
 20
32.4879
 11
12.1543
 21
31.71
  0
LINE
  8
0
 10
12.1543
 20
31.71
 11
11.3913
 21
30.8477
  0
LINE
  8
0
 10
11.3913
 20
30.8477
 11
10.7227
 21
29.9103
  0
LINE
  8
0
 10
10.7227
 20
29.9103
 11
10.1557
 21
28.9082
  0
LINE
  8
0
 10
10.1557
 20
28.9082
 11
9.69661
 21
27.8523
  0
LINE
  8
0
 10
9.69661
 20
27.8523
 11
9.35039
 21
26.7542
  0
LINE
  8
0
 10
9.35039
 20
26.7542
 11
9.12083
 21
25.6259
  0
LINE
  8
0
 10
9.12083
 20
25.6259
 11
9.01048
 21
24.4798
  0
LINE
  8
0
 10
9.01048
 20
24.4798
 11
9
 21
24
  0
LINE
  8
0
 10
9
 20
24
 11
9
 21
-13.7
  0
LINE
  8
0
 10
9
 20
-13.7
 11
9.04556
 21
-13.7
  0
LINE
  8
0
 10
9.04556
 20
-13.7
 11
9.21324
 21
-14.8554
  0
LINE
  8
0
 10
9.21324
 20
-14.8554
 11
9.49763
 21
-15.9711
  0
LINE
  8
0
 10
9.49763
 20
-15.9711
 11
9.89709
 21
-17.051
  0
LINE
  8
0
 10
9.89709
 20
-17.051
 11
10.4072
 21
-18.0832
  0
LINE
  8
0
 10
10.4072
 20
-18.0832
 11
11.0225
 21
-19.0564
  0
LINE
  8
0
 10
11.0225
 20
-19.0564
 11
11.7488
 21
-19.9744
  0
LINE
  8
0
 10
11.7488
 20
-19.9744
 11
12.5544
 21
-20.7971
  0
LINE
  8
0
 10
12.5544
 20
-20.7971
 11
13.4415
 21
-21.531
  0
LINE
  8
0
 10
13.4415
 20
-21.531
 11
14.4171
 21
-22.1779
  0
LINE
  8
0
 10
14.4171
 20
-22.1779
 11
15.4209
 21
-22.7016
  0
LINE
  8
0
 10
15.4209
 20
-22.7016
 11
16.5097
 21
-23.1316
  0
LINE
  8
0
 10
16.5097
 20
-23.1316
 11
17.6192
 21
-23.4393
  0
LINE
  8
0
 10
17.6192
 20
-23.4393
 11
18.7548
 21
-23.6293
  0
LINE
  8
0
 10
18.7548
 20
-23.6293
 11
18.8884
 21
-23.6437
  0
LINE
  8
0
 10
18.8884
 20
-23.6437
 11
20.0576
 21
-23.6998
  0
LINE
  8
0
 10
20.0576
 20
-23.6998
 11
21.2071
 21
-23.6336
  0
LINE
  8
0
 10
19.6342
 20
20.5192
 11
18.9184
 21
20.6713
  0
LINE
  8
0
 10
18.9184
 20
20.6713
 11
18.25
 21
20.9689
  0
LINE
  8
0
 10
18.25
 20
20.9689
 11
17.6581
 21
21.399
  0
LINE
  8
0
 10
17.6581
 20
21.399
 11
17.1684
 21
21.9428
  0
LINE
  8
0
 10
17.1684
 20
21.9428
 11
16.8026
 21
22.5764
  0
LINE
  8
0
 10
16.8026
 20
22.5764
 11
16.5765
 21
23.2723
  0
LINE
  8
0
 10
16.5765
 20
23.2723
 11
16.5
 21
24
  0
LINE
  8
0
 10
16.5
 20
24
 11
16.5765
 21
24.7277
  0
LINE
  8
0
 10
16.5765
 20
24.7277
 11
16.8026
 21
25.4236
  0
LINE
  8
0
 10
16.8026
 20
25.4236
 11
17.1684
 21
26.0572
  0
LINE
  8
0
 10
17.1684
 20
26.0572
 11
17.6581
 21
26.601
  0
LINE
  8
0
 10
17.6581
 20
26.601
 11
18.25
 21
27.0311
  0
LINE
  8
0
 10
18.25
 20
27.0311
 11
18.9184
 21
27.3287
  0
LINE
  8
0
 10
18.9184
 20
27.3287
 11
19.6342
 21
27.4808
  0
LINE
  8
0
 10
19.6342
 20
27.4808
 11
20.3658
 21
27.4808
  0
LINE
  8
0
 10
20.3658
 20
27.4808
 11
21.0816
 21
27.3287
  0
LINE
  8
0
 10
21.0816
 20
27.3287
 11
21.75
 21
27.0311
  0
LINE
  8
0
 10
21.75
 20
27.0311
 11
22.3419
 21
26.601
  0
LINE
  8
0
 10
22.3419
 20
26.601
 11
22.8316
 21
26.0572
  0
LINE
  8
0
 10
22.8316
 20
26.0572
 11
23.1974
 21
25.4236
  0
LINE
  8
0
 10
23.1974
 20
25.4236
 11
23.4235
 21
24.7277
  0
LINE
  8
0
 10
23.4235
 20
24.7277
 11
23.5
 21
24
  0
LINE
  8
0
 10
23.5
 20
24
 11
23.4235
 21
23.2723
  0
LINE
  8
0
 10
23.4235
 20
23.2723
 11
23.1974
 21
22.5764
  0
LINE
  8
0
 10
23.1974
 20
22.5764
 11
22.8316
 21
21.9428
  0
LINE
  8
0
 10
22.8316
 20
21.9428
 11
22.3419
 21
21.399
  0
LINE
  8
0
 10
22.3419
 20
21.399
 11
21.75
 21
20.9689
  0
LINE
  8
0
 10
21.75
 20
20.9689
 11
21.0816
 21
20.6713
  0
LINE
  8
0
 10
21.0816
 20
20.6713
 11
20.3658
 21
20.5192
  0
LINE
  8
0
 10
20.3658
 20
20.5192
 11
19.6342
 21
20.5192
  0
LINE
  8
0
 10
14.5961
 20
14.3311
 11
14.4966
 21
14.3634
  0
LINE
  8
0
 10
14.4966
 20
14.3634
 11
14.4061
 21
14.4156
  0
LINE
  8
0
 10
14.4061
 20
14.4156
 11
14.3284
 21
14.4856
  0
LINE
  8
0
 10
14.3284
 20
14.4856
 11
14.267
 21
14.5701
  0
LINE
  8
0
 10
14.267
 20
14.5701
 11
14.2245
 21
14.6656
  0
LINE
  8
0
 10
14.2245
 20
14.6656
 11
14.2027
 21
14.7679
  0
LINE
  8
0
 10
14.2027
 20
14.7679
 11
14.2027
 21
14.8724
  0
LINE
  8
0
 10
14.2027
 20
14.8724
 11
14.2245
 21
14.9746
  0
LINE
  8
0
 10
14.2245
 20
14.9746
 11
14.267
 21
15.0701
  0
LINE
  8
0
 10
14.267
 20
15.0701
 11
14.3284
 21
15.1547
  0
LINE
  8
0
 10
14.3284
 20
15.1547
 11
14.4061
 21
15.2246
  0
LINE
  8
0
 10
14.4061
 20
15.2246
 11
14.4966
 21
15.2769
  0
LINE
  8
0
 10
14.4966
 20
15.2769
 11
14.5961
 21
15.3092
  0
LINE
  8
0
 10
14.5961
 20
15.3092
 11
14.7
 21
15.3201
  0
LINE
  8
0
 10
14.7
 20
15.3201
 11
14.804
 21
15.3092
  0
LINE
  8
0
 10
14.804
 20
15.3092
 11
14.9034
 21
15.2769
  0
LINE
  8
0
 10
14.9034
 20
15.2769
 11
14.9939
 21
15.2246
  0
LINE
  8
0
 10
14.9939
 20
15.2246
 11
15.0716
 21
15.1547
  0
LINE
  8
0
 10
15.0716
 20
15.1547
 11
15.133
 21
15.0701
  0
LINE
  8
0
 10
15.133
 20
15.0701
 11
15.1755
 21
14.9746
  0
LINE
  8
0
 10
15.1755
 20
14.9746
 11
15.1973
 21
14.8724
  0
LINE
  8
0
 10
15.1973
 20
14.8724
 11
15.1973
 21
14.7679
  0
LINE
  8
0
 10
15.1973
 20
14.7679
 11
15.1755
 21
14.6656
  0
LINE
  8
0
 10
15.1755
 20
14.6656
 11
15.133
 21
14.5701
  0
LINE
  8
0
 10
15.133
 20
14.5701
 11
15.0716
 21
14.4856
  0
LINE
  8
0
 10
15.0716
 20
14.4856
 11
14.9939
 21
14.4156
  0
LINE
  8
0
 10
14.9939
 20
14.4156
 11
14.9034
 21
14.3634
  0
LINE
  8
0
 10
14.9034
 20
14.3634
 11
14.804
 21
14.3311
  0
LINE
  8
0
 10
14.804
 20
14.3311
 11
14.7
 21
14.3201
  0
LINE
  8
0
 10
14.7
 20
14.3201
 11
14.5961
 21
14.3311
  0
LINE
  8
0
 10
19.9164
 20
6.70439
 11
19.7528
 21
6.73917
  0
LINE
  8
0
 10
19.7528
 20
6.73917
 11
19.6
 21
6.80719
  0
LINE
  8
0
 10
19.6
 20
6.80719
 11
19.4647
 21
6.90549
  0
LINE
  8
0
 10
19.4647
 20
6.90549
 11
19.3528
 21
7.02979
  0
LINE
  8
0
 10
19.3528
 20
7.02979
 11
19.2692
 21
7.17462
  0
LINE
  8
0
 10
19.2692
 20
7.17462
 11
19.2175
 21
7.33368
  0
LINE
  8
0
 10
19.2175
 20
7.33368
 11
19.2
 21
7.5
  0
LINE
  8
0
 10
19.2
 20
7.5
 11
19.2175
 21
7.66634
  0
LINE
  8
0
 10
19.2175
 20
7.66634
 11
19.2692
 21
7.82539
  0
LINE
  8
0
 10
19.2692
 20
7.82539
 11
19.3528
 21
7.97023
  0
LINE
  8
0
 10
19.3528
 20
7.97023
 11
19.4647
 21
8.09453
  0
LINE
  8
0
 10
19.4647
 20
8.09453
 11
19.6
 21
8.19283
  0
LINE
  8
0
 10
19.6
 20
8.19283
 11
19.7528
 21
8.26085
  0
LINE
  8
0
 10
19.7528
 20
8.26085
 11
19.9164
 21
8.29562
  0
LINE
  8
0
 10
19.9164
 20
8.29562
 11
20.0836
 21
8.29562
  0
LINE
  8
0
 10
20.0836
 20
8.29562
 11
20.2472
 21
8.26085
  0
LINE
  8
0
 10
20.2472
 20
8.26085
 11
20.4
 21
8.19283
  0
LINE
  8
0
 10
20.4
 20
8.19283
 11
20.5353
 21
8.09453
  0
LINE
  8
0
 10
20.5353
 20
8.09453
 11
20.6472
 21
7.97023
  0
LINE
  8
0
 10
20.6472
 20
7.97023
 11
20.7308
 21
7.82539
  0
LINE
  8
0
 10
20.7308
 20
7.82539
 11
20.7825
 21
7.66634
  0
LINE
  8
0
 10
20.7825
 20
7.66634
 11
20.8
 21
7.5
  0
LINE
  8
0
 10
20.8
 20
7.5
 11
20.7825
 21
7.33368
  0
LINE
  8
0
 10
20.7825
 20
7.33368
 11
20.7308
 21
7.17462
  0
LINE
  8
0
 10
20.7308
 20
7.17462
 11
20.6472
 21
7.02979
  0
LINE
  8
0
 10
20.6472
 20
7.02979
 11
20.5353
 21
6.90549
  0
LINE
  8
0
 10
20.5353
 20
6.90549
 11
20.4
 21
6.80719
  0
LINE
  8
0
 10
20.4
 20
6.80719
 11
20.2472
 21
6.73917
  0
LINE
  8
0
 10
20.2472
 20
6.73917
 11
20.0836
 21
6.70439
  0
LINE
  8
0
 10
20.0836
 20
6.70439
 11
19.9164
 21
6.70439
  0
LINE
  8
0
 10
19.3937
 20
-18.4682
 11
18.2077
 21
-18.2161
  0
LINE
  8
0
 10
18.2077
 20
-18.2161
 11
17.1
 21
-17.7229
  0
LINE
  8
0
 10
17.1
 20
-17.7229
 11
16.119
 21
-17.0102
  0
LINE
  8
0
 10
16.119
 20
-17.0102
 11
15.3077
 21
-16.1091
  0
LINE
  8
0
 10
15.3077
 20
-16.1091
 11
14.7014
 21
-15.0591
  0
LINE
  8
0
 10
14.7014
 20
-15.0591
 11
14.3268
 21
-13.9059
  0
LINE
  8
0
 10
14.3268
 20
-13.9059
 11
14.2
 21
-12.7
  0
LINE
  8
0
 10
14.2
 20
-12.7
 11
14.3268
 21
-11.4941
  0
LINE
  8
0
 10
14.3268
 20
-11.4941
 11
14.7014
 21
-10.3409
  0
LINE
  8
0
 10
14.7014
 20
-10.3409
 11
15.3077
 21
-9.29085
  0
LINE
  8
0
 10
15.3077
 20
-9.29085
 11
16.119
 21
-8.38976
  0
LINE
  8
0
 10
16.119
 20
-8.38976
 11
17
 21
-7.74969
  0
LINE
  8
0
 10
17
 20
-7.74969
 11
17
 21
-6.2
  0
LINE
  8
0
 10
17
 20
-6.2
 11
17.0656
 21
-5.57626
  0
LINE
  8
0
 10
17.0656
 20
-5.57626
 11
17.2594
 21
-4.97978
  0
LINE
  8
0
 10
17.2594
 20
-4.97978
 11
17.573
 21
-4.43665
  0
LINE
  8
0
 10
17.573
 20
-4.43665
 11
17.9926
 21
-3.97057
  0
LINE
  8
0
 10
17.9926
 20
-3.97057
 11
18.5
 21
-3.60191
  0
LINE
  8
0
 10
18.5
 20
-3.60191
 11
19.073
 21
-3.34682
  0
LINE
  8
0
 10
19.073
 20
-3.34682
 11
19.6864
 21
-3.21643
  0
LINE
  8
0
 10
19.6864
 20
-3.21643
 11
20.3136
 21
-3.21643
  0
LINE
  8
0
 10
20.3136
 20
-3.21643
 11
20.927
 21
-3.34682
  0
LINE
  8
0
 10
20.927
 20
-3.34682
 11
21.5
 21
-3.60191
  0
LINE
  8
0
 10
21.5
 20
-3.60191
 11
22.0074
 21
-3.97057
  0
LINE
  8
0
 10
22.0074
 20
-3.97057
 11
22.427
 21
-4.43665
  0
LINE
  8
0
 10
22.427
 20
-4.43665
 11
22.7406
 21
-4.97978
  0
LINE
  8
0
 10
22.7406
 20
-4.97978
 11
22.9344
 21
-5.57626
  0
LINE
  8
0
 10
22.9344
 20
-5.57626
 11
23
 21
-6.2
  0
LINE
  8
0
 10
23
 20
-6.2
 11
23
 21
-7.74969
  0
LINE
  8
0
 10
23
 20
-7.74969
 11
23.881
 21
-8.38976
  0
LINE
  8
0
 10
23.881
 20
-8.38976
 11
24.6923
 21
-9.29085
  0
LINE
  8
0
 10
24.6923
 20
-9.29085
 11
25.2986
 21
-10.3409
  0
LINE
  8
0
 10
25.2986
 20
-10.3409
 11
25.6732
 21
-11.4941
  0
LINE
  8
0
 10
25.6732
 20
-11.4941
 11
25.8
 21
-12.7
  0
LINE
  8
0
 10
25.8
 20
-12.7
 11
25.6732
 21
-13.9059
  0
LINE
  8
0
 10
25.6732
 20
-13.9059
 11
25.2986
 21
-15.0591
  0
LINE
  8
0
 10
25.2986
 20
-15.0591
 11
24.6923
 21
-16.1091
  0
LINE
  8
0
 10
24.6923
 20
-16.1091
 11
23.881
 21
-17.0102
  0
LINE
  8
0
 10
23.881
 20
-17.0102
 11
22.9
 21
-17.7229
  0
LINE
  8
0
 10
22.9
 20
-17.7229
 11
21.7923
 21
-18.2161
  0
LINE
  8
0
 10
21.7923
 20
-18.2161
 11
20.6063
 21
-18.4682
  0
LINE
  8
0
 10
20.6063
 20
-18.4682
 11
19.3937
 21
-18.4682
  0
LINE
  8
0
 10
19.9164
 20
-21.9956
 11
19.7528
 21
-21.9608
  0
LINE
  8
0
 10
19.7528
 20
-21.9608
 11
19.6
 21
-21.8928
  0
LINE
  8
0
 10
19.6
 20
-21.8928
 11
19.4647
 21
-21.7945
  0
LINE
  8
0
 10
19.4647
 20
-21.7945
 11
19.3528
 21
-21.6702
  0
LINE
  8
0
 10
19.3528
 20
-21.6702
 11
19.2692
 21
-21.5254
  0
LINE
  8
0
 10
19.2692
 20
-21.5254
 11
19.2175
 21
-21.3663
  0
LINE
  8
0
 10
19.2175
 20
-21.3663
 11
19.2
 21
-21.2
  0
LINE
  8
0
 10
19.2
 20
-21.2
 11
19.2175
 21
-21.0337
  0
LINE
  8
0
 10
19.2175
 20
-21.0337
 11
19.2692
 21
-20.8746
  0
LINE
  8
0
 10
19.2692
 20
-20.8746
 11
19.3528
 21
-20.7298
  0
LINE
  8
0
 10
19.3528
 20
-20.7298
 11
19.4647
 21
-20.6055
  0
LINE
  8
0
 10
19.4647
 20
-20.6055
 11
19.6
 21
-20.5072
  0
LINE
  8
0
 10
19.6
 20
-20.5072
 11
19.7528
 21
-20.4391
  0
LINE
  8
0
 10
19.7528
 20
-20.4391
 11
19.9164
 21
-20.4044
  0
LINE
  8
0
 10
19.9164
 20
-20.4044
 11
20.0836
 21
-20.4044
  0
LINE
  8
0
 10
20.0836
 20
-20.4044
 11
20.2472
 21
-20.4391
  0
LINE
  8
0
 10
20.2472
 20
-20.4391
 11
20.4
 21
-20.5072
  0
LINE
  8
0
 10
20.4
 20
-20.5072
 11
20.5353
 21
-20.6055
  0
LINE
  8
0
 10
20.5353
 20
-20.6055
 11
20.6472
 21
-20.7298
  0
LINE
  8
0
 10
20.6472
 20
-20.7298
 11
20.7308
 21
-20.8746
  0
LINE
  8
0
 10
20.7308
 20
-20.8746
 11
20.7825
 21
-21.0337
  0
LINE
  8
0
 10
20.7825
 20
-21.0337
 11
20.8
 21
-21.2
  0
LINE
  8
0
 10
20.8
 20
-21.2
 11
20.7825
 21
-21.3663
  0
LINE
  8
0
 10
20.7825
 20
-21.3663
 11
20.7308
 21
-21.5254
  0
LINE
  8
0
 10
20.7308
 20
-21.5254
 11
20.6472
 21
-21.6702
  0
LINE
  8
0
 10
20.6472
 20
-21.6702
 11
20.5353
 21
-21.7945
  0
LINE
  8
0
 10
20.5353
 20
-21.7945
 11
20.4
 21
-21.8928
  0
LINE
  8
0
 10
20.4
 20
-21.8928
 11
20.2472
 21
-21.9608
  0
LINE
  8
0
 10
20.2472
 20
-21.9608
 11
20.0836
 21
-21.9956
  0
LINE
  8
0
 10
20.0836
 20
-21.9956
 11
19.9164
 21
-21.9956
  0
LINE
  8
0
 10
-18.7929
 20
-23.6336
 11
-17.6567
 21
-23.4475
  0
LINE
  8
0
 10
-17.6567
 20
-23.4475
 11
-16.5461
 21
-23.1437
  0
LINE
  8
0
 10
-16.5461
 20
-23.1437
 11
-15.4733
 21
-22.7254
  0
LINE
  8
0
 10
-15.4733
 20
-22.7254
 11
-14.4336
 21
-22.1877
  0
LINE
  8
0
 10
-14.4336
 20
-22.1877
 11
-13.4724
 21
-21.5538
  0
LINE
  8
0
 10
-13.4724
 20
-21.5538
 11
-12.5969
 21
-20.8359
  0
LINE
  8
0
 10
-12.5969
 20
-20.8359
 11
-12.1274
 21
-20.3826
  0
LINE
  8
0
 10
-12.1274
 20
-20.3826
 11
-11.3675
 21
-19.5176
  0
LINE
  8
0
 10
-11.3675
 20
-19.5176
 11
-10.6919
 21
-18.5616
  0
LINE
  8
0
 10
-10.6919
 20
-18.5616
 11
-10.1302
 21
-17.5566
  0
LINE
  8
0
 10
-10.1302
 20
-17.5566
 11
-9.66997
 21
-16.4803
  0
LINE
  8
0
 10
-9.66997
 20
-16.4803
 11
-9.32675
 21
-15.3611
  0
LINE
  8
0
 10
-9.32675
 20
-15.3611
 11
-9.10706
 21
-14.2309
  0
LINE
  8
0
 10
-9.10706
 20
-14.2309
 11
-9.04556
 21
-13.7
  0
LINE
  8
0
 10
-9.04556
 20
-13.7
 11
-9
 21
-13.7
  0
LINE
  8
0
 10
-9
 20
-13.7
 11
-9.01508
 21
24.5757
  0
LINE
  8
0
 10
-9.01508
 20
24.5757
 11
-9.13544
 21
25.7208
  0
LINE
  8
0
 10
-9.13544
 20
25.7208
 11
-9.37482
 21
26.847
  0
LINE
  8
0
 10
-9.37482
 20
26.847
 11
-9.73062
 21
27.942
  0
LINE
  8
0
 10
-9.73062
 20
27.942
 11
-10.1989
 21
28.9939
  0
LINE
  8
0
 10
-10.1989
 20
28.9939
 11
-10.7746
 21
29.991
  0
LINE
  8
0
 10
-10.7746
 20
29.991
 11
-11.4514
 21
30.9225
  0
LINE
  8
0
 10
-11.4514
 20
30.9225
 11
-12.2218
 21
31.7782
  0
LINE
  8
0
 10
-12.2218
 20
31.7782
 11
-13.0924
 21
32.5607
  0
LINE
  8
0
 10
-13.0924
 20
32.5607
 11
-14.0412
 21
33.2462
  0
LINE
  8
0
 10
-14.0412
 20
33.2462
 11
-15.0404
 21
33.8184
  0
LINE
  8
0
 10
-15.0404
 20
33.8184
 11
-16.0938
 21
34.2831
  0
LINE
  8
0
 10
-16.0938
 20
34.2831
 11
-17.1901
 21
34.6351
  0
LINE
  8
0
 10
-17.1901
 20
34.6351
 11
-18.3361
 21
34.8734
  0
LINE
  8
0
 10
-18.3361
 20
34.8734
 11
-19.4818
 21
34.9878
  0
LINE
  8
0
 10
-19.4818
 20
34.9878
 11
-20.6524
 21
34.9806
  0
LINE
  8
0
 10
-20.6524
 20
34.9806
 11
-21.8155
 21
34.8491
  0
LINE
  8
0
 10
-21.8155
 20
34.8491
 11
-22.9396
 21
34.5999
  0
LINE
  8
0
 10
-22.9396
 20
34.5999
 11
-24.0315
 21
34.2346
  0
LINE
  8
0
 10
-24.0315
 20
34.2346
 11
-25.0792
 21
33.7571
  0
LINE
  8
0
 10
-25.0792
 20
33.7571
 11
-26.0713
 21
33.1727
  0
LINE
  8
0
 10
-26.0713
 20
33.1727
 11
-26.9969
 21
32.4879
  0
LINE
  8
0
 10
-26.9969
 20
32.4879
 11
-27.8457
 21
31.71
  0
LINE
  8
0
 10
-27.8457
 20
31.71
 11
-28.6087
 21
30.8477
  0
LINE
  8
0
 10
-28.6087
 20
30.8477
 11
-29.2773
 21
29.9103
  0
LINE
  8
0
 10
-29.2773
 20
29.9103
 11
-29.8443
 21
28.9082
  0
LINE
  8
0
 10
-29.8443
 20
28.9082
 11
-30.3034
 21
27.8523
  0
LINE
  8
0
 10
-30.3034
 20
27.8523
 11
-30.6496
 21
26.7542
  0
LINE
  8
0
 10
-30.6496
 20
26.7542
 11
-30.8792
 21
25.6259
  0
LINE
  8
0
 10
-30.8792
 20
25.6259
 11
-30.9895
 21
24.4798
  0
LINE
  8
0
 10
-30.9895
 20
24.4798
 11
-31
 21
24
  0
LINE
  8
0
 10
-31
 20
24
 11
-31
 21
-13.7
  0
LINE
  8
0
 10
-31
 20
-13.7
 11
-30.9544
 21
-13.7
  0
LINE
  8
0
 10
-30.9544
 20
-13.7
 11
-30.7868
 21
-14.8554
  0
LINE
  8
0
 10
-30.7868
 20
-14.8554
 11
-30.5024
 21
-15.9711
  0
LINE
  8
0
 10
-30.5024
 20
-15.9711
 11
-30.1029
 21
-17.051
  0
LINE
  8
0
 10
-30.1029
 20
-17.051
 11
-29.5928
 21
-18.0832
  0
LINE
  8
0
 10
-29.5928
 20
-18.0832
 11
-28.9775
 21
-19.0564
  0
LINE
  8
0
 10
-28.9775
 20
-19.0564
 11
-28.2512
 21
-19.9744
  0
LINE
  8
0
 10
-28.2512
 20
-19.9744
 11
-27.4456
 21
-20.7971
  0
LINE
  8
0
 10
-27.4456
 20
-20.7971
 11
-26.5585
 21
-21.531
  0
LINE
  8
0
 10
-26.5585
 20
-21.531
 11
-25.5829
 21
-22.1779
  0
LINE
  8
0
 10
-25.5829
 20
-22.1779
 11
-24.5791
 21
-22.7016
  0
LINE
  8
0
 10
-24.5791
 20
-22.7016
 11
-23.4903
 21
-23.1316
  0
LINE
  8
0
 10
-23.4903
 20
-23.1316
 11
-22.3808
 21
-23.4393
  0
LINE
  8
0
 10
-22.3808
 20
-23.4393
 11
-21.2452
 21
-23.6293
  0
LINE
  8
0
 10
-21.2452
 20
-23.6293
 11
-21.1116
 21
-23.6437
  0
LINE
  8
0
 10
-21.1116
 20
-23.6437
 11
-19.9424
 21
-23.6998
  0
LINE
  8
0
 10
-19.9424
 20
-23.6998
 11
-18.7929
 21
-23.6336
  0
LINE
  8
0
 10
-20.3658
 20
20.5192
 11
-21.0816
 21
20.6713
  0
LINE
  8
0
 10
-21.0816
 20
20.6713
 11
-21.75
 21
20.9689
  0
LINE
  8
0
 10
-21.75
 20
20.9689
 11
-22.3419
 21
21.399
  0
LINE
  8
0
 10
-22.3419
 20
21.399
 11
-22.8316
 21
21.9428
  0
LINE
  8
0
 10
-22.8316
 20
21.9428
 11
-23.1974
 21
22.5764
  0
LINE
  8
0
 10
-23.1974
 20
22.5764
 11
-23.4235
 21
23.2723
  0
LINE
  8
0
 10
-23.4235
 20
23.2723
 11
-23.5
 21
24
  0
LINE
  8
0
 10
-23.5
 20
24
 11
-23.4235
 21
24.7277
  0
LINE
  8
0
 10
-23.4235
 20
24.7277
 11
-23.1974
 21
25.4236
  0
LINE
  8
0
 10
-23.1974
 20
25.4236
 11
-22.8316
 21
26.0572
  0
LINE
  8
0
 10
-22.8316
 20
26.0572
 11
-22.3419
 21
26.601
  0
LINE
  8
0
 10
-22.3419
 20
26.601
 11
-21.75
 21
27.0311
  0
LINE
  8
0
 10
-21.75
 20
27.0311
 11
-21.0816
 21
27.3287
  0
LINE
  8
0
 10
-21.0816
 20
27.3287
 11
-20.3658
 21
27.4808
  0
LINE
  8
0
 10
-20.3658
 20
27.4808
 11
-19.6342
 21
27.4808
  0
LINE
  8
0
 10
-19.6342
 20
27.4808
 11
-18.9184
 21
27.3287
  0
LINE
  8
0
 10
-18.9184
 20
27.3287
 11
-18.25
 21
27.0311
  0
LINE
  8
0
 10
-18.25
 20
27.0311
 11
-17.6581
 21
26.601
  0
LINE
  8
0
 10
-17.6581
 20
26.601
 11
-17.1684
 21
26.0572
  0
LINE
  8
0
 10
-17.1684
 20
26.0572
 11
-16.8026
 21
25.4236
  0
LINE
  8
0
 10
-16.8026
 20
25.4236
 11
-16.5765
 21
24.7277
  0
LINE
  8
0
 10
-16.5765
 20
24.7277
 11
-16.5
 21
24
  0
LINE
  8
0
 10
-16.5
 20
24
 11
-16.5765
 21
23.2723
  0
LINE
  8
0
 10
-16.5765
 20
23.2723
 11
-16.8026
 21
22.5764
  0
LINE
  8
0
 10
-16.8026
 20
22.5764
 11
-17.1684
 21
21.9428
  0
LINE
  8
0
 10
-17.1684
 20
21.9428
 11
-17.6581
 21
21.399
  0
LINE
  8
0
 10
-17.6581
 20
21.399
 11
-18.25
 21
20.9689
  0
LINE
  8
0
 10
-18.25
 20
20.9689
 11
-18.9184
 21
20.6713
  0
LINE
  8
0
 10
-18.9184
 20
20.6713
 11
-19.6342
 21
20.5192
  0
LINE
  8
0
 10
-19.6342
 20
20.5192
 11
-20.3658
 21
20.5192
  0
LINE
  8
0
 10
-25.4039
 20
14.3311
 11
-25.5034
 21
14.3634
  0
LINE
  8
0
 10
-25.5034
 20
14.3634
 11
-25.5939
 21
14.4156
  0
LINE
  8
0
 10
-25.5939
 20
14.4156
 11
-25.6716
 21
14.4856
  0
LINE
  8
0
 10
-25.6716
 20
14.4856
 11
-25.733
 21
14.5701
  0
LINE
  8
0
 10
-25.733
 20
14.5701
 11
-25.7755
 21
14.6656
  0
LINE
  8
0
 10
-25.7755
 20
14.6656
 11
-25.7973
 21
14.7679
  0
LINE
  8
0
 10
-25.7973
 20
14.7679
 11
-25.7973
 21
14.8724
  0
LINE
  8
0
 10
-25.7973
 20
14.8724
 11
-25.7755
 21
14.9746
  0
LINE
  8
0
 10
-25.7755
 20
14.9746
 11
-25.733
 21
15.0701
  0
LINE
  8
0
 10
-25.733
 20
15.0701
 11
-25.6716
 21
15.1547
  0
LINE
  8
0
 10
-25.6716
 20
15.1547
 11
-25.5939
 21
15.2246
  0
LINE
  8
0
 10
-25.5939
 20
15.2246
 11
-25.5034
 21
15.2769
  0
LINE
  8
0
 10
-25.5034
 20
15.2769
 11
-25.4039
 21
15.3092
  0
LINE
  8
0
 10
-25.4039
 20
15.3092
 11
-25.3
 21
15.3201
  0
LINE
  8
0
 10
-25.3
 20
15.3201
 11
-25.196
 21
15.3092
  0
LINE
  8
0
 10
-25.196
 20
15.3092
 11
-25.0966
 21
15.2769
  0
LINE
  8
0
 10
-25.0966
 20
15.2769
 11
-25.0061
 21
15.2246
  0
LINE
  8
0
 10
-25.0061
 20
15.2246
 11
-24.9284
 21
15.1547
  0
LINE
  8
0
 10
-24.9284
 20
15.1547
 11
-24.867
 21
15.0701
  0
LINE
  8
0
 10
-24.867
 20
15.0701
 11
-24.8245
 21
14.9746
  0
LINE
  8
0
 10
-24.8245
 20
14.9746
 11
-24.8027
 21
14.8724
  0
LINE
  8
0
 10
-24.8027
 20
14.8724
 11
-24.8027
 21
14.7679
  0
LINE
  8
0
 10
-24.8027
 20
14.7679
 11
-24.8245
 21
14.6656
  0
LINE
  8
0
 10
-24.8245
 20
14.6656
 11
-24.867
 21
14.5701
  0
LINE
  8
0
 10
-24.867
 20
14.5701
 11
-24.9284
 21
14.4856
  0
LINE
  8
0
 10
-24.9284
 20
14.4856
 11
-25.0061
 21
14.4156
  0
LINE
  8
0
 10
-25.0061
 20
14.4156
 11
-25.0966
 21
14.3634
  0
LINE
  8
0
 10
-25.0966
 20
14.3634
 11
-25.196
 21
14.3311
  0
LINE
  8
0
 10
-25.196
 20
14.3311
 11
-25.3
 21
14.3201
  0
LINE
  8
0
 10
-25.3
 20
14.3201
 11
-25.4039
 21
14.3311
  0
LINE
  8
0
 10
-20.0836
 20
6.70439
 11
-20.2472
 21
6.73917
  0
LINE
  8
0
 10
-20.2472
 20
6.73917
 11
-20.4
 21
6.80719
  0
LINE
  8
0
 10
-20.4
 20
6.80719
 11
-20.5353
 21
6.90549
  0
LINE
  8
0
 10
-20.5353
 20
6.90549
 11
-20.6472
 21
7.02979
  0
LINE
  8
0
 10
-20.6472
 20
7.02979
 11
-20.7308
 21
7.17462
  0
LINE
  8
0
 10
-20.7308
 20
7.17462
 11
-20.7825
 21
7.33368
  0
LINE
  8
0
 10
-20.7825
 20
7.33368
 11
-20.8
 21
7.5
  0
LINE
  8
0
 10
-20.8
 20
7.5
 11
-20.7825
 21
7.66634
  0
LINE
  8
0
 10
-20.7825
 20
7.66634
 11
-20.7308
 21
7.82539
  0
LINE
  8
0
 10
-20.7308
 20
7.82539
 11
-20.6472
 21
7.97023
  0
LINE
  8
0
 10
-20.6472
 20
7.97023
 11
-20.5353
 21
8.09453
  0
LINE
  8
0
 10
-20.5353
 20
8.09453
 11
-20.4
 21
8.19283
  0
LINE
  8
0
 10
-20.4
 20
8.19283
 11
-20.2472
 21
8.26085
  0
LINE
  8
0
 10
-20.2472
 20
8.26085
 11
-20.0836
 21
8.29562
  0
LINE
  8
0
 10
-20.0836
 20
8.29562
 11
-19.9164
 21
8.29562
  0
LINE
  8
0
 10
-19.9164
 20
8.29562
 11
-19.7528
 21
8.26085
  0
LINE
  8
0
 10
-19.7528
 20
8.26085
 11
-19.6
 21
8.19283
  0
LINE
  8
0
 10
-19.6
 20
8.19283
 11
-19.4647
 21
8.09453
  0
LINE
  8
0
 10
-19.4647
 20
8.09453
 11
-19.3528
 21
7.97023
  0
LINE
  8
0
 10
-19.3528
 20
7.97023
 11
-19.2692
 21
7.82539
  0
LINE
  8
0
 10
-19.2692
 20
7.82539
 11
-19.2175
 21
7.66634
  0
LINE
  8
0
 10
-19.2175
 20
7.66634
 11
-19.2
 21
7.5
  0
LINE
  8
0
 10
-19.2
 20
7.5
 11
-19.2175
 21
7.33368
  0
LINE
  8
0
 10
-19.2175
 20
7.33368
 11
-19.2692
 21
7.17462
  0
LINE
  8
0
 10
-19.2692
 20
7.17462
 11
-19.3528
 21
7.02979
  0
LINE
  8
0
 10
-19.3528
 20
7.02979
 11
-19.4647
 21
6.90549
  0
LINE
  8
0
 10
-19.4647
 20
6.90549
 11
-19.6
 21
6.80719
  0
LINE
  8
0
 10
-19.6
 20
6.80719
 11
-19.7528
 21
6.73917
  0
LINE
  8
0
 10
-19.7528
 20
6.73917
 11
-19.9164
 21
6.70439
  0
LINE
  8
0
 10
-19.9164
 20
6.70439
 11
-20.0836
 21
6.70439
  0
LINE
  8
0
 10
-20.6063
 20
-18.4682
 11
-21.7923
 21
-18.2161
  0
LINE
  8
0
 10
-21.7923
 20
-18.2161
 11
-22.9
 21
-17.7229
  0
LINE
  8
0
 10
-22.9
 20
-17.7229
 11
-23.881
 21
-17.0102
  0
LINE
  8
0
 10
-23.881
 20
-17.0102
 11
-24.6923
 21
-16.1091
  0
LINE
  8
0
 10
-24.6923
 20
-16.1091
 11
-25.2986
 21
-15.0591
  0
LINE
  8
0
 10
-25.2986
 20
-15.0591
 11
-25.6732
 21
-13.9059
  0
LINE
  8
0
 10
-25.6732
 20
-13.9059
 11
-25.8
 21
-12.7
  0
LINE
  8
0
 10
-25.8
 20
-12.7
 11
-25.6732
 21
-11.4941
  0
LINE
  8
0
 10
-25.6732
 20
-11.4941
 11
-25.2986
 21
-10.3409
  0
LINE
  8
0
 10
-25.2986
 20
-10.3409
 11
-24.6923
 21
-9.29085
  0
LINE
  8
0
 10
-24.6923
 20
-9.29085
 11
-23.881
 21
-8.38976
  0
LINE
  8
0
 10
-23.881
 20
-8.38976
 11
-23
 21
-7.74969
  0
LINE
  8
0
 10
-23
 20
-7.74969
 11
-23
 21
-6.2
  0
LINE
  8
0
 10
-23
 20
-6.2
 11
-22.9344
 21
-5.57626
  0
LINE
  8
0
 10
-22.9344
 20
-5.57626
 11
-22.7406
 21
-4.97978
  0
LINE
  8
0
 10
-22.7406
 20
-4.97978
 11
-22.427
 21
-4.43665
  0
LINE
  8
0
 10
-22.427
 20
-4.43665
 11
-22.0074
 21
-3.97057
  0
LINE
  8
0
 10
-22.0074
 20
-3.97057
 11
-21.5
 21
-3.60191
  0
LINE
  8
0
 10
-21.5
 20
-3.60191
 11
-20.927
 21
-3.34682
  0
LINE
  8
0
 10
-20.927
 20
-3.34682
 11
-20.3136
 21
-3.21643
  0
LINE
  8
0
 10
-20.3136
 20
-3.21643
 11
-19.6864
 21
-3.21643
  0
LINE
  8
0
 10
-19.6864
 20
-3.21643
 11
-19.073
 21
-3.34682
  0
LINE
  8
0
 10
-19.073
 20
-3.34682
 11
-18.5
 21
-3.60191
  0
LINE
  8
0
 10
-18.5
 20
-3.60191
 11
-17.9926
 21
-3.97057
  0
LINE
  8
0
 10
-17.9926
 20
-3.97057
 11
-17.573
 21
-4.43665
  0
LINE
  8
0
 10
-17.573
 20
-4.43665
 11
-17.2594
 21
-4.97978
  0
LINE
  8
0
 10
-17.2594
 20
-4.97978
 11
-17.0656
 21
-5.57626
  0
LINE
  8
0
 10
-17.0656
 20
-5.57626
 11
-17
 21
-6.2
  0
LINE
  8
0
 10
-17
 20
-6.2
 11
-17
 21
-7.74969
  0
LINE
  8
0
 10
-17
 20
-7.74969
 11
-16.119
 21
-8.38976
  0
LINE
  8
0
 10
-16.119
 20
-8.38976
 11
-15.3077
 21
-9.29085
  0
LINE
  8
0
 10
-15.3077
 20
-9.29085
 11
-14.7014
 21
-10.3409
  0
LINE
  8
0
 10
-14.7014
 20
-10.3409
 11
-14.3268
 21
-11.4941
  0
LINE
  8
0
 10
-14.3268
 20
-11.4941
 11
-14.2
 21
-12.7
  0
LINE
  8
0
 10
-14.2
 20
-12.7
 11
-14.3268
 21
-13.9059
  0
LINE
  8
0
 10
-14.3268
 20
-13.9059
 11
-14.7014
 21
-15.0591
  0
LINE
  8
0
 10
-14.7014
 20
-15.0591
 11
-15.3077
 21
-16.1091
  0
LINE
  8
0
 10
-15.3077
 20
-16.1091
 11
-16.119
 21
-17.0102
  0
LINE
  8
0
 10
-16.119
 20
-17.0102
 11
-17.1
 21
-17.7229
  0
LINE
  8
0
 10
-17.1
 20
-17.7229
 11
-18.2077
 21
-18.2161
  0
LINE
  8
0
 10
-18.2077
 20
-18.2161
 11
-19.3937
 21
-18.4682
  0
LINE
  8
0
 10
-19.3937
 20
-18.4682
 11
-20.6063
 21
-18.4682
  0
LINE
  8
0
 10
-20.0836
 20
-21.9956
 11
-20.2472
 21
-21.9608
  0
LINE
  8
0
 10
-20.2472
 20
-21.9608
 11
-20.4
 21
-21.8928
  0
LINE
  8
0
 10
-20.4
 20
-21.8928
 11
-20.5353
 21
-21.7945
  0
LINE
  8
0
 10
-20.5353
 20
-21.7945
 11
-20.6472
 21
-21.6702
  0
LINE
  8
0
 10
-20.6472
 20
-21.6702
 11
-20.7308
 21
-21.5254
  0
LINE
  8
0
 10
-20.7308
 20
-21.5254
 11
-20.7825
 21
-21.3663
  0
LINE
  8
0
 10
-20.7825
 20
-21.3663
 11
-20.8
 21
-21.2
  0
LINE
  8
0
 10
-20.8
 20
-21.2
 11
-20.7825
 21
-21.0337
  0
LINE
  8
0
 10
-20.7825
 20
-21.0337
 11
-20.7308
 21
-20.8746
  0
LINE
  8
0
 10
-20.7308
 20
-20.8746
 11
-20.6472
 21
-20.7298
  0
LINE
  8
0
 10
-20.6472
 20
-20.7298
 11
-20.5353
 21
-20.6055
  0
LINE
  8
0
 10
-20.5353
 20
-20.6055
 11
-20.4
 21
-20.5072
  0
LINE
  8
0
 10
-20.4
 20
-20.5072
 11
-20.2472
 21
-20.4391
  0
LINE
  8
0
 10
-20.2472
 20
-20.4391
 11
-20.0836
 21
-20.4044
  0
LINE
  8
0
 10
-20.0836
 20
-20.4044
 11
-19.9164
 21
-20.4044
  0
LINE
  8
0
 10
-19.9164
 20
-20.4044
 11
-19.7528
 21
-20.4391
  0
LINE
  8
0
 10
-19.7528
 20
-20.4391
 11
-19.6
 21
-20.5072
  0
LINE
  8
0
 10
-19.6
 20
-20.5072
 11
-19.4647
 21
-20.6055
  0
LINE
  8
0
 10
-19.4647
 20
-20.6055
 11
-19.3528
 21
-20.7298
  0
LINE
  8
0
 10
-19.3528
 20
-20.7298
 11
-19.2692
 21
-20.8746
  0
LINE
  8
0
 10
-19.2692
 20
-20.8746
 11
-19.2175
 21
-21.0337
  0
LINE
  8
0
 10
-19.2175
 20
-21.0337
 11
-19.2
 21
-21.2
  0
LINE
  8
0
 10
-19.2
 20
-21.2
 11
-19.2175
 21
-21.3663
  0
LINE
  8
0
 10
-19.2175
 20
-21.3663
 11
-19.2692
 21
-21.5254
  0
LINE
  8
0
 10
-19.2692
 20
-21.5254
 11
-19.3528
 21
-21.6702
  0
LINE
  8
0
 10
-19.3528
 20
-21.6702
 11
-19.4647
 21
-21.7945
  0
LINE
  8
0
 10
-19.4647
 20
-21.7945
 11
-19.6
 21
-21.8928
  0
LINE
  8
0
 10
-19.6
 20
-21.8928
 11
-19.7528
 21
-21.9608
  0
LINE
  8
0
 10
-19.7528
 20
-21.9608
 11
-19.9164
 21
-21.9956
  0
LINE
  8
0
 10
-19.9164
 20
-21.9956
 11
-20.0836
 21
-21.9956
  0
LINE
  8
0
 10
61.5
 20
-8
 11
64.5
 21
-8
  0
LINE
  8
0
 10
64.5
 20
-8
 11
64.5
 21
-15
  0
LINE
  8
0
 10
64.5
 20
-15
 11
87
 21
-15
  0
LINE
  8
0
 10
87
 20
-15
 11
87
 21
-8
  0
LINE
  8
0
 10
87
 20
-8
 11
90
 21
-8
  0
LINE
  8
0
 10
90
 20
-8
 11
90
 21
2
  0
LINE
  8
0
 10
90
 20
2
 11
87
 21
2
  0
LINE
  8
0
 10
87
 20
2
 11
87
 21
5
  0
LINE
  8
0
 10
87
 20
5
 11
64.5
 21
5
  0
LINE
  8
0
 10
64.5
 20
5
 11
64.5
 21
2
  0
LINE
  8
0
 10
64.5
 20
2
 11
61.5
 21
2
  0
LINE
  8
0
 10
61.5
 20
2
 11
61.5
 21
5
  0
LINE
  8
0
 10
61.5
 20
5
 11
43
 21
5
  0
LINE
  8
0
 10
43
 20
5
 11
43
 21
2
  0
LINE
  8
0
 10
43
 20
2
 11
40
 21
2
  0
LINE
  8
0
 10
40
 20
2
 11
40
 21
-8
  0
LINE
  8
0
 10
40
 20
-8
 11
43
 21
-8
  0
LINE
  8
0
 10
43
 20
-8
 11
43
 21
-15
  0
LINE
  8
0
 10
43
 20
-15
 11
61.5
 21
-15
  0
LINE
  8
0
 10
61.5
 20
-15
 11
61.5
 21
-8
  0
ENDSEC
  0
SECTION
  2
OBJECTS
  0
DICTIONARY
  0
ENDSEC
  0
EOF
