<?xml version="1.0" standalone="no"?>
<!DOCTYPE svg PUBLIC "-//W3C//DTD SVG 1.1//EN" "http://www.w3.org/Graphics/SVG/1.1/DTD/svg11.dtd">
<svg width="237" height="153" viewBox="-68 -129 237 153" xmlns="http://www.w3.org/2000/svg" version="1.1">
<title>OpenSCAD Model</title>
<path d="
M 94.2071,-70.3664 L 95.3433,-70.5525 L 96.4539,-70.8563 L 97.5267,-71.2746 L 98.5664,-71.8123 L 99.5276,-72.4462
 L 100.403,-73.1641 L 100.873,-73.6174 L 101.633,-74.4824 L 102.308,-75.4384 L 102.87,-76.4434 L 103.33,-77.5197
 L 103.673,-78.6389 L 103.893,-79.7691 L 103.954,-80.3 L 104,-80.3 L 103.985,-118.576 L 103.865,-119.721
 L 103.625,-120.847 L 103.269,-121.942 L 102.801,-122.994 L 102.225,-123.991 L 101.549,-124.923 L 100.778,-125.778
 L 99.9076,-126.561 L 98.9588,-127.246 L 97.9596,-127.818 L 96.9062,-128.283 L 95.8099,-128.635 L 94.6639,-128.873
 L 93.5182,-128.988 L 92.3476,-128.981 L 91.1845,-128.849 L 90.0604,-128.6 L 88.9685,-128.235 L 87.9208,-127.757
 L 86.9287,-127.173 L 86.0031,-126.488 L 85.1543,-125.71 L 84.3913,-124.848 L 83.7227,-123.91 L 83.1557,-122.908
 L 82.6966,-121.852 L 82.3504,-120.754 L 82.1208,-119.626 L 82.0105,-118.48 L 82,-118 L 82,-80.3
 L 82.0456,-80.3 L 82.2132,-79.1446 L 82.4976,-78.0289 L 82.8971,-76.949 L 83.4072,-75.9168 L 84.0225,-74.9436
 L 84.7488,-74.0256 L 85.5544,-73.2029 L 86.4415,-72.469 L 87.4171,-71.8221 L 88.4209,-71.2984 L 89.5097,-70.8684
 L 90.6192,-70.5607 L 91.7548,-70.3707 L 91.8884,-70.3563 L 93.0576,-70.3002 z
M 92.6342,-114.519 L 91.9184,-114.671 L 91.25,-114.969 L 90.6581,-115.399 L 90.1684,-115.943 L 89.8026,-116.576
 L 89.5765,-117.272 L 89.5,-118 L 89.5765,-118.728 L 89.8026,-119.424 L 90.1684,-120.057 L 90.6581,-120.601
 L 91.25,-121.031 L 91.9184,-121.329 L 92.6342,-121.481 L 93.3658,-121.481 L 94.0816,-121.329 L 94.75,-121.031
 L 95.3419,-120.601 L 95.8316,-120.057 L 96.1974,-119.424 L 96.4235,-118.728 L 96.5,-118 L 96.4235,-117.272
 L 96.1974,-116.576 L 95.8316,-115.943 L 95.3419,-115.399 L 94.75,-114.969 L 94.0816,-114.671 L 93.3658,-114.519
 z
M 87.5961,-108.331 L 87.4966,-108.363 L 87.4061,-108.416 L 87.3284,-108.486 L 87.267,-108.57 L 87.2245,-108.666
 L 87.2027,-108.768 L 87.2027,-108.872 L 87.2245,-108.975 L 87.267,-109.07 L 87.3284,-109.155 L 87.4061,-109.225
 L 87.4966,-109.277 L 87.5961,-109.309 L 87.7,-109.32 L 87.804,-109.309 L 87.9034,-109.277 L 87.9939,-109.225
 L 88.0716,-109.155 L 88.133,-109.07 L 88.1755,-108.975 L 88.1973,-108.872 L 88.1973,-108.768 L 88.1755,-108.666
 L 88.133,-108.57 L 88.0716,-108.486 L 87.9939,-108.416 L 87.9034,-108.363 L 87.804,-108.331 L 87.7,-108.32
 z
M 92.9164,-100.704 L 92.7528,-100.739 L 92.6,-100.807 L 92.4647,-100.905 L 92.3528,-101.03 L 92.2692,-101.175
 L 92.2175,-101.334 L 92.2,-101.5 L 92.2175,-101.666 L 92.2692,-101.825 L 92.3528,-101.97 L 92.4647,-102.095
 L 92.6,-102.193 L 92.7528,-102.261 L 92.9164,-102.296 L 93.0836,-102.296 L 93.2472,-102.261 L 93.4,-102.193
 L 93.5353,-102.095 L 93.6472,-101.97 L 93.7308,-101.825 L 93.7825,-101.666 L 93.8,-101.5 L 93.7825,-101.334
 L 93.7308,-101.175 L 93.6472,-101.03 L 93.5353,-100.905 L 93.4,-100.807 L 93.2472,-100.739 L 93.0836,-100.704
 z
M 92.3937,-75.5318 L 91.2077,-75.7839 L 90.1,-76.2771 L 89.119,-76.9898 L 88.3077,-77.8909 L 87.7014,-78.9409
 L 87.3268,-80.0941 L 87.2,-81.3 L 87.3268,-82.5059 L 87.7014,-83.6591 L 88.3077,-84.7092 L 89.119,-85.6102
 L 90,-86.2503 L 90,-87.8 L 90.0656,-88.4237 L 90.2594,-89.0202 L 90.573,-89.5634 L 90.9926,-90.0294
 L 91.5,-90.3981 L 92.073,-90.6532 L 92.6864,-90.7836 L 93.3136,-90.7836 L 93.927,-90.6532 L 94.5,-90.3981
 L 95.0074,-90.0294 L 95.427,-89.5634 L 95.7406,-89.0202 L 95.9344,-88.4237 L 96,-87.8 L 96,-86.2503
 L 96.881,-85.6102 L 97.6923,-84.7092 L 98.2986,-83.6591 L 98.6732,-82.5059 L 98.8,-81.3 L 98.6732,-80.0941
 L 98.2986,-78.9409 L 97.6923,-77.8909 L 96.881,-76.9898 L 95.9,-76.2771 L 94.7923,-75.7839 L 93.6063,-75.5318
 z
M 92.9164,-72.0044 L 92.7528,-72.0392 L 92.6,-72.1072 L 92.4647,-72.2055 L 92.3528,-72.3298 L 92.2692,-72.4746
 L 92.2175,-72.6337 L 92.2,-72.8 L 92.2175,-72.9663 L 92.2692,-73.1254 L 92.3528,-73.2702 L 92.4647,-73.3945
 L 92.6,-73.4928 L 92.7528,-73.5609 L 92.9164,-73.5956 L 93.0836,-73.5956 L 93.2472,-73.5609 L 93.4,-73.4928
 L 93.5353,-73.3945 L 93.6472,-73.2702 L 93.7308,-73.1254 L 93.7825,-72.9663 L 93.8,-72.8 L 93.7825,-72.6337
 L 93.7308,-72.4746 L 93.6472,-72.3298 L 93.5353,-72.2055 L 93.4,-72.1072 L 93.2472,-72.0392 L 93.0836,-72.0044
 z
M 122.844,-102.032 L 123.986,-102.181 L 125.106,-102.448 L 125.654,-102.625 L 165.753,-116.795 L 166.446,-117.211
 L 166.848,-117.555 L 167.256,-118.021 L 167.672,-118.715 L 167.843,-119.141 L 168.021,-119.92 L 168.051,-120.428
 L 168.051,-120.448 L 167.963,-121.252 L 167.821,-121.751 L 167.481,-122.474 L 167.191,-122.893 L 166.928,-123.194
 L 166.319,-123.71 L 165.738,-124.042 L 164.984,-124.305 L 164.193,-124.412 L 164.013,-124.415 L 121.309,-123.978
 L 120.147,-123.843 L 119.023,-123.59 L 117.933,-123.22 L 116.87,-122.73 L 115.865,-122.13 L 114.944,-121.439
 L 114.087,-120.641 L 113.332,-119.772 L 112.671,-118.829 L 112.113,-117.822 L 111.663,-116.762 L 111.327,-115.661
 L 111.107,-114.531 L 111.006,-113.365 L 111.028,-112.214 L 111.167,-111.09 L 111.431,-109.95 L 111.808,-108.862
 L 112.306,-107.802 L 112.902,-106.817 L 113.598,-105.9 L 114.386,-105.061 L 115.273,-104.297 L 116.22,-103.641
 L 117.247,-103.08 L 118.31,-102.637 L 119.413,-102.308 L 120.545,-102.097 L 121.693,-102.004 z
M 121.105,-109.41 L 120.378,-109.674 L 119.722,-110.084 L 119.166,-110.622 L 118.733,-111.263 L 118.443,-111.98
 L 118.309,-112.742 L 118.336,-113.515 L 118.523,-114.265 L 118.862,-114.961 L 119.338,-115.57 L 119.931,-116.067
 L 120.614,-116.431 L 121.358,-116.644 L 122.129,-116.698 L 122.895,-116.59 L 123.622,-116.326 L 124.278,-115.916
 L 124.834,-115.378 L 125.267,-114.737 L 125.557,-114.02 L 125.691,-113.258 L 125.664,-112.485 L 125.477,-111.735
 L 125.138,-111.039 L 124.662,-110.43 L 124.069,-109.933 L 123.386,-109.569 L 122.643,-109.356 L 121.871,-109.302
 z
M 132.416,-114.373 L 132.318,-114.409 L 132.23,-114.464 L 132.154,-114.537 L 132.096,-114.623 L 132.057,-114.72
 L 132.039,-114.823 L 132.042,-114.928 L 132.068,-115.029 L 132.113,-115.123 L 132.178,-115.205 L 132.258,-115.273
 L 132.35,-115.322 L 132.451,-115.35 L 132.555,-115.358 L 132.658,-115.343 L 132.757,-115.307 L 132.845,-115.252
 L 132.92,-115.179 L 132.979,-115.093 L 133.018,-114.996 L 133.036,-114.893 L 133.033,-114.788 L 133.007,-114.687
 L 132.961,-114.593 L 132.897,-114.511 L 132.817,-114.444 L 132.725,-114.394 L 132.624,-114.366 L 132.52,-114.358
 z
M 20.7,-97.0455 L 21.8554,-97.2132 L 22.9711,-97.4976 L 24.051,-97.8971 L 25.0832,-98.4072 L 26.0564,-99.0225
 L 26.9744,-99.7488 L 27.7971,-100.554 L 28.531,-101.442 L 29.1779,-102.417 L 29.7016,-103.421 L 30.1316,-104.51
 L 30.4393,-105.619 L 30.6293,-106.755 L 30.6437,-106.888 L 30.6998,-108.058 L 30.6336,-109.207 L 30.4475,-110.343
 L 30.1437,-111.454 L 29.7254,-112.527 L 29.1877,-113.566 L 28.5538,-114.528 L 27.8359,-115.403 L 27.3826,-115.873
 L 26.5176,-116.633 L 25.5616,-117.308 L 24.5566,-117.87 L 23.4803,-118.33 L 22.3611,-118.673 L 21.2309,-118.893
 L 20.7,-118.954 L 20.7,-119 L -17.5757,-118.985 L -18.7208,-118.865 L -19.847,-118.625 L -20.942,-118.269
 L -21.9939,-117.801 L -22.991,-117.225 L -23.9225,-116.549 L -24.7782,-115.778 L -25.5607,-114.908 L -26.2462,-113.959
 L -26.8184,-112.96 L -27.2831,-111.906 L -27.6351,-110.81 L -27.8734,-109.664 L -27.9878,-108.518 L -27.9806,-107.348
 L -27.8491,-106.184 L -27.5999,-105.06 L -27.2346,-103.968 L -26.7571,-102.921 L -26.1727,-101.929 L -25.4879,-101.003
 L -24.71,-100.154 L -23.8477,-99.3913 L -22.9103,-98.7227 L -21.9082,-98.1557 L -20.8523,-97.6966 L -19.7542,-97.3504
 L -18.6259,-97.1208 L -17.4798,-97.0105 L -17,-97 L 20.7,-97 z
M 18.4941,-102.327 L 17.3409,-102.701 L 16.2908,-103.308 L 15.3898,-104.119 L 14.7497,-105 L 13.2,-105
 L 12.5763,-105.066 L 11.9798,-105.259 L 11.4366,-105.573 L 10.9706,-105.993 L 10.6019,-106.5 L 10.3468,-107.073
 L 10.2164,-107.686 L 10.2164,-108.314 L 10.3468,-108.927 L 10.6019,-109.5 L 10.9706,-110.007 L 11.4366,-110.427
 L 11.9798,-110.741 L 12.5763,-110.934 L 13.2,-111 L 14.7497,-111 L 15.3898,-111.881 L 16.2908,-112.692
 L 17.3409,-113.299 L 18.4941,-113.673 L 19.7,-113.8 L 20.9059,-113.673 L 22.0591,-113.299 L 23.1091,-112.692
 L 24.0102,-111.881 L 24.7229,-110.9 L 25.2161,-109.792 L 25.4682,-108.606 L 25.4682,-107.394 L 25.2161,-106.208
 L 24.7229,-105.1 L 24.0102,-104.119 L 23.1091,-103.308 L 22.0591,-102.701 L 20.9059,-102.327 L 19.7,-102.2
 z
M -17.7277,-104.576 L -18.4236,-104.803 L -19.0572,-105.168 L -19.601,-105.658 L -20.0311,-106.25 L -20.3287,-106.918
 L -20.4808,-107.634 L -20.4808,-108.366 L -20.3287,-109.082 L -20.0311,-109.75 L -19.601,-110.342 L -19.0572,-110.832
 L -18.4236,-111.197 L -17.7277,-111.424 L -17,-111.5 L -16.2723,-111.424 L -15.5764,-111.197 L -14.9428,-110.832
 L -14.399,-110.342 L -13.9689,-109.75 L -13.6713,-109.082 L -13.5192,-108.366 L -13.5192,-107.634 L -13.6713,-106.918
 L -13.9689,-106.25 L -14.399,-105.658 L -14.9428,-105.168 L -15.5764,-104.803 L -16.2723,-104.576 L -17,-104.5
 z
M -0.666336,-107.217 L -0.825394,-107.269 L -0.97023,-107.353 L -1.09453,-107.465 L -1.19283,-107.6 L -1.26085,-107.753
 L -1.29562,-107.916 L -1.29562,-108.084 L -1.26085,-108.247 L -1.19283,-108.4 L -1.09453,-108.535 L -0.97023,-108.647
 L -0.825394,-108.731 L -0.666336,-108.783 L -0.5,-108.8 L -0.333679,-108.783 L -0.174622,-108.731 L -0.0297852,-108.647
 L 0.0945129,-108.535 L 0.19281,-108.4 L 0.260834,-108.247 L 0.295609,-108.084 L 0.295609,-107.916 L 0.260834,-107.753
 L 0.19281,-107.6 L 0.0945129,-107.465 L -0.0297852,-107.353 L -0.174622,-107.269 L -0.333679,-107.217 L -0.5,-107.2
 z
M 28.0337,-107.217 L 27.8746,-107.269 L 27.7298,-107.353 L 27.6055,-107.465 L 27.5072,-107.6 L 27.4391,-107.753
 L 27.4044,-107.916 L 27.4044,-108.084 L 27.4391,-108.247 L 27.5072,-108.4 L 27.6055,-108.535 L 27.7298,-108.647
 L 27.8746,-108.731 L 28.0337,-108.783 L 28.2,-108.8 L 28.3663,-108.783 L 28.5254,-108.731 L 28.6702,-108.647
 L 28.7945,-108.535 L 28.8928,-108.4 L 28.9608,-108.247 L 28.9956,-108.084 L 28.9956,-107.916 L 28.9608,-107.753
 L 28.8928,-107.6 L 28.7945,-107.465 L 28.6702,-107.353 L 28.5254,-107.269 L 28.3663,-107.217 L 28.2,-107.2
 z
M -7.87241,-102.203 L -7.97464,-102.224 L -8.07014,-102.267 L -8.15471,-102.328 L -8.22464,-102.406 L -8.27692,-102.497
 L -8.30922,-102.596 L -8.32014,-102.7 L -8.30922,-102.804 L -8.27692,-102.903 L -8.22464,-102.994 L -8.15471,-103.072
 L -8.07014,-103.133 L -7.97464,-103.176 L -7.87241,-103.197 L -7.76787,-103.197 L -7.66563,-103.176 L -7.57014,-103.133
 L -7.48558,-103.072 L -7.41563,-102.994 L -7.36337,-102.903 L -7.33107,-102.804 L -7.32014,-102.7 L -7.33107,-102.596
 L -7.36337,-102.497 L -7.41563,-102.406 L -7.48558,-102.328 L -7.57014,-102.267 L -7.66563,-102.224 L -7.76787,-102.203
 z
M 31.9627,-67 L 32,-67 L 32,-67.0373 L 64.4853,-99.5226 L 64.4531,-99.5548 L 65.1408,-100.474
 L 65.7304,-101.463 L 66.2205,-102.526 L 66.5948,-103.636 L 66.8459,-104.759 L 66.9783,-105.903 L 66.9903,-107.054
 L 66.882,-108.201 L 66.6544,-109.329 L 66.3034,-110.446 L 65.8357,-111.519 L 65.267,-112.52 L 64.5967,-113.456
 L 63.8188,-114.331 L 62.9523,-115.118 L 62.0232,-115.798 L 61.0281,-116.377 L 59.9779,-116.849 L 58.8841,-117.209
 L 57.7587,-117.452 L 56.614,-117.576 L 55.4435,-117.58 L 54.2792,-117.458 L 53.153,-117.219 L 52.058,-116.863
 L 50.989,-116.386 L 49.9768,-115.798 L 49.1073,-115.166 L 48.9611,-115.047 L 48.9289,-115.079 L 26.85,-93
 L -26.9,-93 L -48.9789,-115.079 L -49.0111,-115.047 L -49.9307,-115.734 L -50.9197,-116.324 L -51.965,-116.807
 L -53.0364,-117.173 L -54.1777,-117.433 L -54.9384,-117.537 L -56.0884,-117.594 L -57.238,-117.529 L -58.3746,-117.345
 L -59.4857,-117.043 L -60.5591,-116.627 L -61.5998,-116.091 L -62.5621,-115.459 L -63.4531,-114.73 L -64.263,-113.911
 L -64.9829,-113.013 L -65.6049,-112.044 L -66.1223,-111.015 L -66.5351,-109.92 L -66.8253,-108.805 L -66.9994,-107.648
 L -67.0496,-106.498 L -66.9793,-105.348 L -66.7934,-104.232 L -66.4937,-103.14 L -66.0754,-102.067 L -65.5473,-101.044
 L -64.9152,-100.081 L -64.5031,-99.5548 L -64.5353,-99.5226 L -32.0084,-66.9957 L -32,-67.004 L -32,-67
 L 31.954,-67 L 31.9584,-66.9957 z
M -62.1855,-111.814 L -62.3471,-111.857 L -62.4961,-111.933 L -62.6261,-112.038 L -62.7313,-112.168 L -62.8073,-112.317
 L -62.8506,-112.479 L -62.8593,-112.646 L -62.8331,-112.811 L -62.7732,-112.967 L -62.6821,-113.108 L -62.5639,-113.226
 L -62.4236,-113.317 L -62.2675,-113.377 L -62.1023,-113.403 L -61.9353,-113.394 L -61.7737,-113.351 L -61.6247,-113.275
 L -61.4947,-113.17 L -61.3895,-113.04 L -61.3135,-112.891 L -61.2702,-112.729 L -61.2615,-112.562 L -61.2877,-112.397
 L -61.3476,-112.241 L -61.4387,-112.101 L -61.5569,-111.982 L -61.6972,-111.891 L -61.8533,-111.831 L -62.0185,-111.805
 z
M 61.8033,-111.831 L 61.6472,-111.891 L 61.5069,-111.982 L 61.3887,-112.101 L 61.2976,-112.241 L 61.2377,-112.397
 L 61.2115,-112.562 L 61.2202,-112.729 L 61.2635,-112.891 L 61.3395,-113.04 L 61.4447,-113.17 L 61.5747,-113.275
 L 61.7237,-113.351 L 61.8853,-113.394 L 62.0523,-113.403 L 62.2175,-113.377 L 62.3736,-113.317 L 62.5139,-113.226
 L 62.6321,-113.108 L 62.7232,-112.967 L 62.7831,-112.811 L 62.8093,-112.646 L 62.8006,-112.479 L 62.7573,-112.317
 L 62.6813,-112.168 L 62.5761,-112.038 L 62.4461,-111.933 L 62.2971,-111.857 L 62.1355,-111.814 L 61.9685,-111.805
 z
M 50.6273,-99.0997 L 50.0418,-99.3244 L 49.5158,-99.666 L 49.0724,-100.109 L 48.7308,-100.635 L 48.506,-101.221
 L 48.4079,-101.84 L 48.4407,-102.467 L 48.6031,-103.073 L 48.8878,-103.631 L 49.2825,-104.119 L 50.3783,-105.215
 L 50.2079,-106.29 L 50.2714,-107.501 L 50.5852,-108.672 L 51.1357,-109.753 L 51.8988,-110.695 L 52.8411,-111.458
 L 53.9215,-112.008 L 55.0927,-112.322 L 56.3035,-112.386 L 57.5011,-112.196 L 58.6331,-111.761 L 59.6501,-111.101
 L 60.5074,-110.244 L 61.1678,-109.227 L 61.6024,-108.095 L 61.792,-106.897 L 61.7286,-105.686 L 61.4148,-104.515
 L 60.8643,-103.435 L 60.1012,-102.492 L 59.1589,-101.729 L 58.0785,-101.179 L 56.9073,-100.865 L 55.6964,-100.802
 L 54.6209,-100.972 L 53.5251,-99.8761 L 53.0377,-99.4814 L 52.4789,-99.1967 L 51.8731,-99.0344 L 51.2468,-99.0016
 z
M -51.9231,-99.0344 L -52.5289,-99.1967 L -53.0877,-99.4814 L -53.5751,-99.8761 L -54.6709,-100.972 L -55.7464,-100.802
 L -56.9573,-100.865 L -58.1285,-101.179 L -59.2089,-101.729 L -60.1512,-102.492 L -60.9143,-103.435 L -61.4648,-104.515
 L -61.7786,-105.686 L -61.842,-106.897 L -61.6524,-108.095 L -61.2178,-109.227 L -60.5574,-110.244 L -59.7001,-111.101
 L -58.6831,-111.761 L -57.5511,-112.196 L -56.3535,-112.386 L -55.1427,-112.322 L -53.9715,-112.008 L -52.8911,-111.458
 L -51.9488,-110.695 L -51.1857,-109.753 L -50.6352,-108.672 L -50.3214,-107.501 L -50.2579,-106.29 L -50.4283,-105.215
 L -49.3325,-104.119 L -48.9378,-103.631 L -48.6531,-103.073 L -48.4907,-102.467 L -48.4579,-101.84 L -48.556,-101.221
 L -48.7808,-100.635 L -49.1224,-100.109 L -49.5658,-99.666 L -50.0918,-99.3244 L -50.6773,-99.0997 L -51.2968,-99.0016
 z
M -41.8916,-91.52 L -42.0531,-91.5632 L -42.2021,-91.6392 L -42.3321,-91.7444 L -42.4374,-91.8744 L -42.5133,-92.0234
 L -42.5566,-92.185 L -42.5653,-92.352 L -42.5392,-92.5172 L -42.4792,-92.6733 L -42.3882,-92.8136 L -42.2699,-92.9318
 L -42.1296,-93.0229 L -41.9735,-93.0828 L -41.8083,-93.109 L -41.6413,-93.1002 L -41.4798,-93.0569 L -41.3307,-92.981
 L -41.2008,-92.8758 L -41.0955,-92.7458 L -41.0196,-92.5968 L -40.9763,-92.4353 L -40.9675,-92.2682 L -40.9937,-92.103
 L -41.0536,-91.9469 L -41.1447,-91.8066 L -41.263,-91.6884 L -41.4032,-91.5973 L -41.5594,-91.5374 L -41.7246,-91.5112
 z
M 41.5094,-91.5374 L 41.3532,-91.5973 L 41.213,-91.6884 L 41.0947,-91.8066 L 41.0036,-91.9469 L 40.9437,-92.103
 L 40.9175,-92.2682 L 40.9263,-92.4353 L 40.9696,-92.5968 L 41.0455,-92.7458 L 41.1508,-92.8758 L 41.2807,-92.981
 L 41.4297,-93.0569 L 41.5913,-93.1002 L 41.7583,-93.109 L 41.9235,-93.0828 L 42.0796,-93.0229 L 42.2199,-92.9318
 L 42.3382,-92.8136 L 42.4292,-92.6733 L 42.4892,-92.5172 L 42.5153,-92.352 L 42.5066,-92.185 L 42.4633,-92.0234
 L 42.3874,-91.8744 L 42.2821,-91.7444 L 42.1521,-91.6392 L 42.0031,-91.5632 L 41.8416,-91.52 L 41.6746,-91.5112
 z
M 34,-78 L 34,-88 L 37,-88 L 37,-78 z
M -37,-78 L -37,-88 L -34,-88 L -34,-78 z
M -41.1568,-81.5082 L -41.4635,-81.5734 L -41.75,-81.701 L -42.0037,-81.8853 L -42.2135,-82.1183 L -42.3703,-82.3899
 L -42.4672,-82.6881 L -42.5,-83 L -42.4672,-83.3119 L -42.3703,-83.6101 L -42.2135,-83.8817 L -42.0037,-84.1147
 L -41.75,-84.299 L -41.4635,-84.4266 L -41.1568,-84.4918 L -40.8432,-84.4918 L -40.5365,-84.4266 L -40.25,-84.299
 L -39.9963,-84.1147 L -39.7865,-83.8817 L -39.6297,-83.6101 L -39.5328,-83.3119 L -39.5,-83 L -39.5328,-82.6881
 L -39.6297,-82.3899 L -39.7865,-82.1183 L -39.9963,-81.8853 L -40.25,-81.701 L -40.5365,-81.5734 L -40.8432,-81.5082
 z
M 41.3432,-81.5082 L 41.0365,-81.5734 L 40.75,-81.701 L 40.4963,-81.8853 L 40.2865,-82.1183 L 40.1297,-82.3899
 L 40.0328,-82.6881 L 40,-83 L 40.0328,-83.3119 L 40.1297,-83.6101 L 40.2865,-83.8817 L 40.4963,-84.1147
 L 40.75,-84.299 L 41.0365,-84.4266 L 41.3432,-84.4918 L 41.6568,-84.4918 L 41.9635,-84.4266 L 42.25,-84.299
 L 42.5037,-84.1147 L 42.7135,-83.8817 L 42.8703,-83.6101 L 42.9672,-83.3119 L 43,-83 L 42.9672,-82.6881
 L 42.8703,-82.3899 L 42.7135,-82.1183 L 42.5037,-81.8853 L 42.25,-81.701 L 41.9635,-81.5734 L 41.6568,-81.5082
 z
M 155.691,-87.0217 L 156.853,-87.1573 L 157.977,-87.4104 L 159.067,-87.7796 L 160.13,-88.2696 L 161.135,-88.8699
 L 162.056,-89.5612 L 162.913,-90.3588 L 163.668,-91.2277 L 164.329,-92.1709 L 164.887,-93.1779 L 165.337,-94.2378
 L 165.673,-95.3389 L 165.893,-96.4691 L 165.994,-97.6353 L 165.972,-98.7865 L 165.833,-99.9101 L 165.569,-101.05
 L 165.192,-102.138 L 164.694,-103.198 L 164.098,-104.183 L 163.402,-105.1 L 162.614,-105.939 L 161.727,-106.703
 L 160.78,-107.359 L 159.753,-107.92 L 158.69,-108.363 L 157.587,-108.692 L 156.455,-108.903 L 155.307,-108.996
 L 154.156,-108.968 L 153.014,-108.819 L 151.894,-108.552 L 151.346,-108.375 L 111.247,-94.2052 L 110.554,-93.7891
 L 110.152,-93.4447 L 109.744,-92.9788 L 109.328,-92.2855 L 109.157,-91.8589 L 108.979,-91.0805 L 108.949,-90.5719
 L 108.949,-90.5519 L 109.037,-89.7484 L 109.179,-89.2485 L 109.519,-88.5264 L 109.809,-88.1071 L 110.072,-87.8061
 L 110.681,-87.2901 L 111.262,-86.9583 L 112.016,-86.6955 L 112.807,-86.5877 L 112.987,-86.5854 z
M 154.105,-94.4099 L 153.378,-94.6745 L 152.722,-95.0844 L 152.166,-95.6217 L 151.733,-96.263 L 151.443,-96.9802
 L 151.309,-97.7419 L 151.336,-98.5149 L 151.523,-99.2655 L 151.862,-99.9607 L 152.338,-100.57 L 152.931,-101.067
 L 153.614,-101.431 L 154.357,-101.644 L 155.129,-101.698 L 155.895,-101.59 L 156.622,-101.326 L 157.278,-100.916
 L 157.834,-100.378 L 158.267,-99.737 L 158.557,-99.0199 L 158.691,-98.2581 L 158.664,-97.4851 L 158.477,-96.7345
 L 158.138,-96.0393 L 157.662,-95.4298 L 157.069,-94.9326 L 156.386,-94.5694 L 155.642,-94.3562 L 154.871,-94.3023
 z
M 144.342,-95.6568 L 144.243,-95.6926 L 144.155,-95.748 L 144.08,-95.8206 L 144.021,-95.9073 L 143.982,-96.0042
 L 143.964,-96.1071 L 143.967,-96.2115 L 143.993,-96.313 L 144.039,-96.4069 L 144.103,-96.4893 L 144.183,-96.5565
 L 144.275,-96.6055 L 144.376,-96.6344 L 144.48,-96.6416 L 144.584,-96.6271 L 144.682,-96.5914 L 144.77,-96.536
 L 144.846,-96.4633 L 144.904,-96.3767 L 144.943,-96.2798 L 144.961,-96.1768 L 144.958,-96.0724 L 144.932,-95.971
 L 144.887,-95.877 L 144.822,-95.7947 L 144.742,-95.7274 L 144.65,-95.6784 L 144.549,-95.6496 L 144.445,-95.6423
 z
M 97.8408,-48.9811 L 98.625,-49.1773 L 99.0477,-49.3579 L 99.7236,-49.7829 L 100.105,-50.1208 L 100.119,-50.135
 L 100.625,-50.7657 L 100.878,-51.2191 L 101.148,-51.9706 L 101.24,-52.4718 L 101.267,-52.8706 L 101.201,-53.6663
 L 101.024,-54.3117 L 100.677,-55.0307 L 100.194,-55.6663 L 100.068,-55.7952 L 69.5638,-85.6827 L 68.6458,-86.409
 L 67.6725,-87.0242 L 66.6403,-87.5343 L 65.5421,-87.9395 L 64.4071,-88.2257 L 63.2672,-88.3879 L 62.0974,-88.4298
 L 60.9488,-88.3495 L 59.8149,-88.1495 L 58.7081,-87.8321 L 57.6405,-87.4008 L 56.6239,-86.8603 L 55.6694,-86.2164
 L 54.7733,-85.4632 L 53.9749,-84.6336 L 53.2787,-83.7408 L 52.6592,-82.7476 L 52.1563,-81.7118 L 51.7588,-80.6108
 L 51.4842,-79.4926 L 51.3279,-78.3519 L 51.2917,-77.2011 L 51.3785,-76.0337 L 51.5844,-74.9009 L 51.9139,-73.7777
 L 52.3526,-72.7132 L 52.9003,-71.7003 L 53.5508,-70.7503 L 54.297,-69.8735 L 55.1308,-69.0795 L 56.043,-68.377
 L 57.0237,-67.7736 L 57.5364,-67.5113 L 95.9108,-49.1767 L 96.6951,-48.9809 L 97.2229,-48.94 z
M 61.5833,-73.7994 L 60.8436,-74.0256 L 60.1671,-74.4006 L 59.5833,-74.9081 L 59.1178,-75.5258 L 58.7909,-76.2269
 L 58.6169,-76.9805 L 58.6034,-77.7539 L 58.751,-78.5132 L 59.0532,-79.2253 L 59.4969,-79.8589 L 60.0626,-80.3864
 L 60.7256,-80.7848 L 61.457,-81.0366 L 62.2247,-81.1309 L 62.9953,-81.0635 L 63.735,-80.8373 L 64.4116,-80.4623
 L 64.9953,-79.9548 L 65.4608,-79.3371 L 65.7878,-78.636 L 65.9617,-77.8824 L 65.9752,-77.109 L 65.8276,-76.3497
 L 65.5254,-75.6376 L 65.0817,-75.004 L 64.5161,-74.4765 L 63.853,-74.0781 L 63.1217,-73.8263 L 62.3539,-73.732
 z
M 70.9588,-70.8034 L 70.8589,-70.834 L 70.7674,-70.8846 L 70.6886,-70.9532 L 70.6257,-71.0367 L 70.5815,-71.1314
 L 70.558,-71.2333 L 70.5562,-71.3378 L 70.5761,-71.4404 L 70.6169,-71.5366 L 70.6769,-71.6222 L 70.7533,-71.6935
 L 70.8429,-71.7473 L 70.9418,-71.7814 L 71.0455,-71.7941 L 71.1496,-71.785 L 71.2496,-71.7544 L 71.341,-71.7038
 L 71.4199,-71.6352 L 71.4828,-71.5517 L 71.527,-71.457 L 71.5505,-71.3551 L 71.5523,-71.2506 L 71.5324,-71.148
 L 71.4915,-71.0518 L 71.4316,-70.9662 L 71.3551,-70.8949 L 71.2655,-70.841 L 71.1667,-70.807 L 71.063,-70.7943
 z
M 131.5,-70 L 134.5,-70 L 134.5,-63 L 157,-63 L 157,-70 L 160,-70
 L 160,-80 L 157,-80 L 157,-83 L 134.5,-83 L 134.5,-80 L 131.5,-80
 L 131.5,-83 L 113,-83 L 113,-80 L 110,-80 L 110,-70 L 113,-70
 L 113,-63 L 131.5,-63 z
M 76.3578,-32.5724 L 77.4917,-32.7723 L 78.5985,-33.0897 L 79.666,-33.521 L 80.6827,-34.0615 L 81.6372,-34.7054
 L 82.5332,-35.4586 L 83.3316,-36.2882 L 84.0279,-37.181 L 84.6473,-38.1742 L 85.1503,-39.21 L 85.5477,-40.311
 L 85.8224,-41.4291 L 85.9787,-42.5699 L 86.0148,-43.7207 L 85.9281,-44.888 L 85.7222,-46.0209 L 85.3927,-47.1441
 L 84.9539,-48.2086 L 84.4063,-49.2214 L 83.7558,-50.1715 L 83.0096,-51.0483 L 82.1757,-51.8423 L 81.2635,-52.5448
 L 80.2829,-53.1481 L 79.7702,-53.4105 L 41.3958,-71.7451 L 40.6115,-71.9409 L 40.0836,-71.9818 L 39.4658,-71.9407
 L 38.6815,-71.7445 L 38.2589,-71.5639 L 37.583,-71.1389 L 37.2016,-70.801 L 37.1875,-70.7868 L 36.6819,-70.1561
 L 36.4284,-69.7027 L 36.1586,-68.9512 L 36.0669,-68.45 L 36.0401,-68.0512 L 36.106,-67.2555 L 36.2821,-66.61
 L 36.6295,-65.8911 L 37.1127,-65.2555 L 37.2383,-65.1266 L 67.7428,-35.2391 L 68.6608,-34.5128 L 69.634,-33.8976
 L 70.6662,-33.3875 L 71.7645,-32.9823 L 72.8995,-32.6961 L 74.0394,-32.5339 L 75.2092,-32.492 z
M 66.1569,-49.1368 L 66.057,-49.1674 L 65.9655,-49.218 L 65.8866,-49.2866 L 65.8237,-49.3701 L 65.7796,-49.4648
 L 65.756,-49.5667 L 65.7542,-49.6712 L 65.7742,-49.7738 L 65.815,-49.87 L 65.875,-49.9556 L 65.9514,-50.0269
 L 66.041,-50.0808 L 66.1398,-50.1148 L 66.2436,-50.1275 L 66.3477,-50.1184 L 66.4477,-50.0878 L 66.5391,-50.0372
 L 66.618,-49.9686 L 66.6809,-49.8851 L 66.7251,-49.7904 L 66.7486,-49.6885 L 66.7504,-49.584 L 66.7305,-49.4814
 L 66.6896,-49.3852 L 66.6297,-49.2996 L 66.5532,-49.2283 L 66.4636,-49.1744 L 66.3648,-49.1404 L 66.261,-49.1277
 z
M 74.3112,-39.8583 L 73.5715,-40.0845 L 72.895,-40.4595 L 72.3112,-40.9669 L 71.8457,-41.5847 L 71.5188,-42.2857
 L 71.3448,-43.0394 L 71.3313,-43.8128 L 71.4789,-44.5721 L 71.7812,-45.2841 L 72.2248,-45.9177 L 72.7905,-46.4453
 L 73.4536,-46.8437 L 74.1849,-47.0955 L 74.9527,-47.1898 L 75.7232,-47.1223 L 76.463,-46.8962 L 77.1395,-46.5212
 L 77.7233,-46.0137 L 78.1887,-45.396 L 78.5157,-44.6949 L 78.6897,-43.9412 L 78.7031,-43.1679 L 78.5556,-42.4086
 L 78.2533,-41.6965 L 77.8097,-41.0629 L 77.244,-40.5354 L 76.5809,-40.137 L 75.8496,-39.8852 L 75.0818,-39.7909
 z
M 57.238,-13.4707 L 58.3746,-13.6548 L 59.4857,-13.9567 L 60.5591,-14.373 L 61.5998,-14.909 L 62.5621,-15.5411
 L 63.4531,-16.2704 L 64.263,-17.0888 L 64.9829,-17.9874 L 65.6049,-18.9563 L 66.1223,-19.9849 L 66.5351,-21.0803
 L 66.8253,-22.1945 L 66.9994,-23.3521 L 67.0496,-24.5023 L 66.9793,-25.6516 L 66.7934,-26.7684 L 66.4937,-27.8603
 L 66.0754,-28.933 L 65.5473,-29.9562 L 64.9152,-30.9185 L 64.5031,-31.4452 L 64.5353,-31.4774 L 32.0084,-64.0043
 L 32,-63.996 L 32,-64 L -31.954,-64 L -31.9584,-64.0043 L -31.9627,-64 L -32,-64
 L -32,-63.9627 L -64.4853,-31.4774 L -64.4531,-31.4452 L -65.1408,-30.5256 L -65.7304,-29.5366 L -66.2205,-28.4736
 L -66.5948,-27.3645 L -66.8459,-26.2408 L -66.9783,-25.097 L -66.9903,-23.9457 L -66.882,-22.7994 L -66.6544,-21.6708
 L -66.3034,-20.5541 L -65.8357,-19.481 L -65.267,-18.4799 L -64.5967,-17.5437 L -63.8188,-16.669 L -62.9523,-15.882
 L -62.0232,-15.202 L -61.0281,-14.6228 L -59.9779,-14.1508 L -58.8841,-13.7912 L -57.7587,-13.5479 L -56.614,-13.4235
 L -55.4435,-13.4204 L -54.2792,-13.5418 L -53.153,-13.7812 L -52.058,-14.137 L -50.989,-14.614 L -49.9768,-15.202
 L -49.1073,-15.8336 L -48.9611,-15.9533 L -48.9289,-15.9211 L -26.85,-38 L 26.9,-38 L 48.9789,-15.9211
 L 49.0111,-15.9533 L 49.9307,-15.2655 L 50.9197,-14.676 L 51.965,-14.193 L 53.0364,-13.8272 L 54.1777,-13.5669
 L 54.9384,-13.4627 L 56.0884,-13.4064 z
M 34,-43 L 34,-53 L 37,-53 L 37,-43 z
M -37,-43 L -37,-53 L -34,-53 L -34,-43 z
M 40.8432,-46.5082 L 40.5365,-46.5734 L 40.25,-46.701 L 39.9963,-46.8853 L 39.7865,-47.1183 L 39.6297,-47.3899
 L 39.5328,-47.6881 L 39.5,-48 L 39.5328,-48.3119 L 39.6297,-48.6101 L 39.7865,-48.8817 L 39.9963,-49.1147
 L 40.25,-49.299 L 40.5365,-49.4266 L 40.8432,-49.4918 L 41.1568,-49.4918 L 41.4635,-49.4266 L 41.75,-49.299
 L 42.0037,-49.1147 L 42.2135,-48.8817 L 42.3703,-48.6101 L 42.4672,-48.3119 L 42.5,-48 L 42.4672,-47.6881
 L 42.3703,-47.3899 L 42.2135,-47.1183 L 42.0037,-46.8853 L 41.75,-46.701 L 41.4635,-46.5734 L 41.1568,-46.5082
 z
M -41.6568,-46.5082 L -41.9635,-46.5734 L -42.25,-46.701 L -42.5037,-46.8853 L -42.7135,-47.1183 L -42.8703,-47.3899
 L -42.9672,-47.6881 L -43,-48 L -42.9672,-48.3119 L -42.8703,-48.6101 L -42.7135,-48.8817 L -42.5037,-49.1147
 L -42.25,-49.299 L -41.9635,-49.4266 L -41.6568,-49.4918 L -41.3432,-49.4918 L -41.0365,-49.4266 L -40.75,-49.299
 L -40.4963,-49.1147 L -40.2865,-48.8817 L -40.1297,-48.6101 L -40.0328,-48.3119 L -40,-48 L -40.0328,-47.6881
 L -40.1297,-47.3899 L -40.2865,-47.1183 L -40.4963,-46.8853 L -40.75,-46.701 L -41.0365,-46.5734 L -41.3432,-46.5082
 z
M 41.6413,-37.8998 L 41.4798,-37.9431 L 41.3307,-38.019 L 41.2008,-38.1242 L 41.0955,-38.2542 L 41.0196,-38.4032
 L 40.9763,-38.5647 L 40.9675,-38.7318 L 40.9937,-38.897 L 41.0536,-39.0531 L 41.1447,-39.1934 L 41.263,-39.3116
 L 41.4032,-39.4027 L 41.5594,-39.4626 L 41.7246,-39.4888 L 41.8916,-39.48 L 42.0531,-39.4368 L 42.2021,-39.3608
 L 42.3321,-39.2556 L 42.4374,-39.1256 L 42.5133,-38.9766 L 42.5566,-38.815 L 42.5653,-38.648 L 42.5392,-38.4828
 L 42.4792,-38.3267 L 42.3882,-38.1864 L 42.2699,-38.0682 L 42.1296,-37.9771 L 41.9735,-37.9172 L 41.8083,-37.891
 z
M -41.9235,-37.9172 L -42.0796,-37.9771 L -42.2199,-38.0682 L -42.3382,-38.1864 L -42.4292,-38.3267 L -42.4892,-38.4828
 L -42.5153,-38.648 L -42.5066,-38.815 L -42.4633,-38.9766 L -42.3874,-39.1256 L -42.2821,-39.2556 L -42.1521,-39.3608
 L -42.0031,-39.4368 L -41.8416,-39.48 L -41.6746,-39.4888 L -41.5094,-39.4626 L -41.3532,-39.4027 L -41.213,-39.3116
 L -41.0947,-39.1934 L -41.0036,-39.0531 L -40.9437,-38.897 L -40.9175,-38.7318 L -40.9263,-38.5647 L -40.9696,-38.4032
 L -41.0455,-38.2542 L -41.1508,-38.1242 L -41.2807,-38.019 L -41.4297,-37.9431 L -41.5913,-37.8998 L -41.7583,-37.891
 z
M 55.1427,-18.6778 L 53.9715,-18.9916 L 52.8911,-19.5421 L 51.9488,-20.3051 L 51.1857,-21.2475 L 50.6352,-22.3278
 L 50.3214,-23.499 L 50.2579,-24.7099 L 50.4283,-25.7854 L 49.3325,-26.8812 L 48.9378,-27.3686 L 48.6531,-27.9274
 L 48.4907,-28.5332 L 48.4579,-29.1596 L 48.556,-29.779 L 48.7808,-30.3645 L 49.1224,-30.8905 L 49.5658,-31.334
 L 50.0918,-31.6756 L 50.6773,-31.9003 L 51.2968,-31.9984 L 51.9231,-31.9656 L 52.5289,-31.8033 L 53.0877,-31.5186
 L 53.5751,-31.1239 L 54.6709,-30.0281 L 55.7464,-30.1984 L 56.9573,-30.1349 L 58.1285,-29.8211 L 59.2089,-29.2706
 L 60.1512,-28.5076 L 60.9143,-27.5653 L 61.4648,-26.4849 L 61.7786,-25.3137 L 61.842,-24.1028 L 61.6524,-22.9052
 L 61.2178,-21.7732 L 60.5574,-20.7563 L 59.7001,-19.8989 L 58.6831,-19.2385 L 57.5511,-18.804 L 56.3535,-18.6143
 z
M -57.5011,-18.804 L -58.6331,-19.2385 L -59.6501,-19.8989 L -60.5074,-20.7563 L -61.1678,-21.7732 L -61.6024,-22.9052
 L -61.792,-24.1028 L -61.7286,-25.3137 L -61.4148,-26.4849 L -60.8643,-27.5653 L -60.1012,-28.5076 L -59.1589,-29.2706
 L -58.0785,-29.8211 L -56.9073,-30.1349 L -55.6964,-30.1984 L -54.6209,-30.0281 L -53.5251,-31.1239 L -53.0377,-31.5186
 L -52.4789,-31.8033 L -51.8731,-31.9656 L -51.2468,-31.9984 L -50.6273,-31.9003 L -50.0418,-31.6756 L -49.5158,-31.334
 L -49.0724,-30.8905 L -48.7308,-30.3645 L -48.506,-29.779 L -48.4079,-29.1596 L -48.4407,-28.5332 L -48.6031,-27.9274
 L -48.8878,-27.3686 L -49.2825,-26.8812 L -50.3783,-25.7854 L -50.2079,-24.7099 L -50.2714,-23.499 L -50.5852,-22.3278
 L -51.1357,-21.2475 L -51.8988,-20.3051 L -52.8411,-19.5421 L -53.9215,-18.9916 L -55.0927,-18.6778 L -56.3035,-18.6143
 z
M -62.2175,-17.6232 L -62.3736,-17.6831 L -62.5139,-17.7742 L -62.6321,-17.8925 L -62.7232,-18.0328 L -62.7831,-18.1889
 L -62.8093,-18.3541 L -62.8006,-18.5211 L -62.7573,-18.6826 L -62.6813,-18.8317 L -62.5761,-18.9616 L -62.4461,-19.0669
 L -62.2971,-19.1428 L -62.1355,-19.1861 L -61.9685,-19.1949 L -61.8033,-19.1687 L -61.6472,-19.1087 L -61.5069,-19.0177
 L -61.3887,-18.8994 L -61.2976,-18.7591 L -61.2377,-18.603 L -61.2115,-18.4378 L -61.2202,-18.2708 L -61.2635,-18.1093
 L -61.3395,-17.9602 L -61.4447,-17.8303 L -61.5747,-17.725 L -61.7237,-17.6491 L -61.8853,-17.6058 L -62.0523,-17.597
 z
M 61.9353,-17.6058 L 61.7737,-17.6491 L 61.6247,-17.725 L 61.4947,-17.8303 L 61.3895,-17.9602 L 61.3135,-18.1093
 L 61.2702,-18.2708 L 61.2615,-18.4378 L 61.2877,-18.603 L 61.3476,-18.7591 L 61.4387,-18.8994 L 61.5569,-19.0177
 L 61.6972,-19.1087 L 61.8533,-19.1687 L 62.0185,-19.1949 L 62.1855,-19.1861 L 62.3471,-19.1428 L 62.4961,-19.0669
 L 62.6261,-18.9616 L 62.7313,-18.8317 L 62.8073,-18.6826 L 62.8506,-18.5211 L 62.8593,-18.3541 L 62.8331,-18.1889
 L 62.7732,-18.0328 L 62.6821,-17.8925 L 62.5639,-17.7742 L 62.4236,-17.6831 L 62.2675,-17.6232 L 62.1023,-17.597
 z
M 135,12 L 145,12 L 145,15 L 165,15 L 165,-60 L 145,-60
 L 145,-57 L 135,-57 L 135,-60 L 105,-60 L 105,-47 L 119.2,-47
 L 119.2,-46.9918 L 119.357,-46.9918 L 119.664,-46.9266 L 119.95,-46.799 L 120.204,-46.6147 L 120.414,-46.3817
 L 120.57,-46.1101 L 120.667,-45.8119 L 120.7,-45.5 L 120.667,-45.1881 L 120.57,-44.8899 L 120.414,-44.6183
 L 120.204,-44.3853 L 119.95,-44.201 L 119.664,-44.0734 L 119.357,-44.0082 L 119.2,-44.0082 L 119.2,-44
 L 105,-44 L 105,1.5 L 117.5,1.5 L 117.5,1.50822 L 117.657,1.50822 L 117.964,1.57343
 L 118.25,1.70097 L 118.504,1.88528 L 118.714,2.11833 L 118.87,2.38991 L 118.967,2.68814 L 119,3
 L 118.967,3.31187 L 118.87,3.61011 L 118.714,3.88168 L 118.504,4.11473 L 118.25,4.29904 L 117.964,4.42659
 L 117.657,4.49179 L 117.5,4.49179 L 117.5,4.5 L 105,4.5 L 105,15 L 135,15
 z
M 21.2071,23.6336 L 22.3433,23.4475 L 23.4539,23.1437 L 24.5267,22.7254 L 25.5664,22.1877 L 26.5276,21.5538
 L 27.4031,20.8359 L 27.8726,20.3826 L 28.6325,19.5176 L 29.3081,18.5616 L 29.8698,17.5566 L 30.33,16.4803
 L 30.6732,15.3611 L 30.8929,14.2309 L 30.9544,13.7 L 31,13.7 L 30.9849,-24.5757 L 30.8646,-25.7208
 L 30.6252,-26.847 L 30.2694,-27.942 L 29.8011,-28.9939 L 29.2254,-29.991 L 28.5486,-30.9225 L 27.7782,-31.7782
 L 26.9076,-32.5607 L 25.9588,-33.2462 L 24.9596,-33.8184 L 23.9062,-34.2831 L 22.8099,-34.6351 L 21.6639,-34.8734
 L 20.5182,-34.9878 L 19.3476,-34.9806 L 18.1845,-34.8491 L 17.0604,-34.5999 L 15.9685,-34.2346 L 14.9208,-33.7571
 L 13.9287,-33.1727 L 13.0031,-32.4879 L 12.1543,-31.71 L 11.3913,-30.8477 L 10.7227,-29.9103 L 10.1557,-28.9082
 L 9.69661,-27.8523 L 9.35039,-26.7542 L 9.12083,-25.6259 L 9.01048,-24.4798 L 9,-24 L 9,13.7
 L 9.04556,13.7 L 9.21324,14.8554 L 9.49763,15.9711 L 9.89709,17.051 L 10.4072,18.0832 L 11.0225,19.0564
 L 11.7488,19.9744 L 12.5544,20.7971 L 13.4415,21.531 L 14.4171,22.1779 L 15.4209,22.7016 L 16.5097,23.1316
 L 17.6192,23.4393 L 18.7548,23.6293 L 18.8884,23.6437 L 20.0576,23.6998 z
M 19.6342,-20.5192 L 18.9184,-20.6713 L 18.25,-20.9689 L 17.6581,-21.399 L 17.1684,-21.9428 L 16.8026,-22.5764
 L 16.5765,-23.2723 L 16.5,-24 L 16.5765,-24.7277 L 16.8026,-25.4236 L 17.1684,-26.0572 L 17.6581,-26.601
 L 18.25,-27.0311 L 18.9184,-27.3287 L 19.6342,-27.4808 L 20.3658,-27.4808 L 21.0816,-27.3287 L 21.75,-27.0311
 L 22.3419,-26.601 L 22.8316,-26.0572 L 23.1974,-25.4236 L 23.4235,-24.7277 L 23.5,-24 L 23.4235,-23.2723
 L 23.1974,-22.5764 L 22.8316,-21.9428 L 22.3419,-21.399 L 21.75,-20.9689 L 21.0816,-20.6713 L 20.3658,-20.5192
 z
M 14.5961,-14.3311 L 14.4966,-14.3634 L 14.4061,-14.4156 L 14.3284,-14.4856 L 14.267,-14.5701 L 14.2245,-14.6656
 L 14.2027,-14.7679 L 14.2027,-14.8724 L 14.2245,-14.9746 L 14.267,-15.0701 L 14.3284,-15.1547 L 14.4061,-15.2246
 L 14.4966,-15.2769 L 14.5961,-15.3092 L 14.7,-15.3201 L 14.804,-15.3092 L 14.9034,-15.2769 L 14.9939,-15.2246
 L 15.0716,-15.1547 L 15.133,-15.0701 L 15.1755,-14.9746 L 15.1973,-14.8724 L 15.1973,-14.7679 L 15.1755,-14.6656
 L 15.133,-14.5701 L 15.0716,-14.4856 L 14.9939,-14.4156 L 14.9034,-14.3634 L 14.804,-14.3311 L 14.7,-14.3201
 z
M 19.9164,-6.70439 L 19.7528,-6.73917 L 19.6,-6.80719 L 19.4647,-6.90549 L 19.3528,-7.02979 L 19.2692,-7.17462
 L 19.2175,-7.33368 L 19.2,-7.5 L 19.2175,-7.66634 L 19.2692,-7.82539 L 19.3528,-7.97023 L 19.4647,-8.09453
 L 19.6,-8.19283 L 19.7528,-8.26085 L 19.9164,-8.29562 L 20.0836,-8.29562 L 20.2472,-8.26085 L 20.4,-8.19283
 L 20.5353,-8.09453 L 20.6472,-7.97023 L 20.7308,-7.82539 L 20.7825,-7.66634 L 20.8,-7.5 L 20.7825,-7.33368
 L 20.7308,-7.17462 L 20.6472,-7.02979 L 20.5353,-6.90549 L 20.4,-6.80719 L 20.2472,-6.73917 L 20.0836,-6.70439
 z
M 19.3937,18.4682 L 18.2077,18.2161 L 17.1,17.7229 L 16.119,17.0102 L 15.3077,16.1091 L 14.7014,15.0591
 L 14.3268,13.9059 L 14.2,12.7 L 14.3268,11.4941 L 14.7014,10.3409 L 15.3077,9.29085 L 16.119,8.38976
 L 17,7.74969 L 17,6.2 L 17.0656,5.57626 L 17.2594,4.97978 L 17.573,4.43665 L 17.9926,3.97057
 L 18.5,3.60191 L 19.073,3.34682 L 19.6864,3.21643 L 20.3136,3.21643 L 20.927,3.34682 L 21.5,3.60191
 L 22.0074,3.97057 L 22.427,4.43665 L 22.7406,4.97978 L 22.9344,5.57626 L 23,6.2 L 23,7.74969
 L 23.881,8.38976 L 24.6923,9.29085 L 25.2986,10.3409 L 25.6732,11.4941 L 25.8,12.7 L 25.6732,13.9059
 L 25.2986,15.0591 L 24.6923,16.1091 L 23.881,17.0102 L 22.9,17.7229 L 21.7923,18.2161 L 20.6063,18.4682
 z
M 19.9164,21.9956 L 19.7528,21.9608 L 19.6,21.8928 L 19.4647,21.7945 L 19.3528,21.6702 L 19.2692,21.5254
 L 19.2175,21.3663 L 19.2,21.2 L 19.2175,21.0337 L 19.2692,20.8746 L 19.3528,20.7298 L 19.4647,20.6055
 L 19.6,20.5072 L 19.7528,20.4391 L 19.9164,20.4044 L 20.0836,20.4044 L 20.2472,20.4391 L 20.4,20.5072
 L 20.5353,20.6055 L 20.6472,20.7298 L 20.7308,20.8746 L 20.7825,21.0337 L 20.8,21.2 L 20.7825,21.3663
 L 20.7308,21.5254 L 20.6472,21.6702 L 20.5353,21.7945 L 20.4,21.8928 L 20.2472,21.9608 L 20.0836,21.9956
 z
M -18.7929,23.6336 L -17.6567,23.4475 L -16.5461,23.1437 L -15.4733,22.7254 L -14.4336,22.1877 L -13.4724,21.5538
 L -12.5969,20.8359 L -12.1274,20.3826 L -11.3675,19.5176 L -10.6919,18.5616 L -10.1302,17.5566 L -9.66997,16.4803
 L -9.32675,15.3611 L -9.10706,14.2309 L -9.04556,13.7 L -9,13.7 L -9.01508,-24.5757 L -9.13544,-25.7208
 L -9.37482,-26.847 L -9.73062,-27.942 L -10.1989,-28.9939 L -10.7746,-29.991 L -11.4514,-30.9225 L -12.2218,-31.7782
 L -13.0924,-32.5607 L -14.0412,-33.2462 L -15.0404,-33.8184 L -16.0938,-34.2831 L -17.1901,-34.6351 L -18.3361,-34.8734
 L -19.4818,-34.9878 L -20.6524,-34.9806 L -21.8155,-34.8491 L -22.9396,-34.5999 L -24.0315,-34.2346 L -25.0792,-33.7571
 L -26.0713,-33.1727 L -26.9969,-32.4879 L -27.8457,-31.71 L -28.6087,-30.8477 L -29.2773,-29.9103 L -29.8443,-28.9082
 L -30.3034,-27.8523 L -30.6496,-26.7542 L -30.8792,-25.6259 L -30.9895,-24.4798 L -31,-24 L -31,13.7
 L -30.9544,13.7 L -30.7868,14.8554 L -30.5024,15.9711 L -30.1029,17.051 L -29.5928,18.0832 L -28.9775,19.0564
 L -28.2512,19.9744 L -27.4456,20.7971 L -26.5585,21.531 L -25.5829,22.1779 L -24.5791,22.7016 L -23.4903,23.1316
 L -22.3808,23.4393 L -21.2452,23.6293 L -21.1116,23.6437 L -19.9424,23.6998 z
M -20.3658,-20.5192 L -21.0816,-20.6713 L -21.75,-20.9689 L -22.3419,-21.399 L -22.8316,-21.9428 L -23.1974,-22.5764
 L -23.4235,-23.2723 L -23.5,-24 L -23.4235,-24.7277 L -23.1974,-25.4236 L -22.8316,-26.0572 L -22.3419,-26.601
 L -21.75,-27.0311 L -21.0816,-27.3287 L -20.3658,-27.4808 L -19.6342,-27.4808 L -18.9184,-27.3287 L -18.25,-27.0311
 L -17.6581,-26.601 L -17.1684,-26.0572 L -16.8026,-25.4236 L -16.5765,-24.7277 L -16.5,-24 L -16.5765,-23.2723
 L -16.8026,-22.5764 L -17.1684,-21.9428 L -17.6581,-21.399 L -18.25,-20.9689 L -18.9184,-20.6713 L -19.6342,-20.5192
 z
M -25.4039,-14.3311 L -25.5034,-14.3634 L -25.5939,-14.4156 L -25.6716,-14.4856 L -25.733,-14.5701 L -25.7755,-14.6656
 L -25.7973,-14.7679 L -25.7973,-14.8724 L -25.7755,-14.9746 L -25.733,-15.0701 L -25.6716,-15.1547 L -25.5939,-15.2246
 L -25.5034,-15.2769 L -25.4039,-15.3092 L -25.3,-15.3201 L -25.196,-15.3092 L -25.0966,-15.2769 L -25.0061,-15.2246
 L -24.9284,-15.1547 L -24.867,-15.0701 L -24.8245,-14.9746 L -24.8027,-14.8724 L -24.8027,-14.7679 L -24.8245,-14.6656
 L -24.867,-14.5701 L -24.9284,-14.4856 L -25.0061,-14.4156 L -25.0966,-14.3634 L -25.196,-14.3311 L -25.3,-14.3201
 z
M -20.0836,-6.70439 L -20.2472,-6.73917 L -20.4,-6.80719 L -20.5353,-6.90549 L -20.6472,-7.02979 L -20.7308,-7.17462
 L -20.7825,-7.33368 L -20.8,-7.5 L -20.7825,-7.66634 L -20.7308,-7.82539 L -20.6472,-7.97023 L -20.5353,-8.09453
 L -20.4,-8.19283 L -20.2472,-8.26085 L -20.0836,-8.29562 L -19.9164,-8.29562 L -19.7528,-8.26085 L -19.6,-8.19283
 L -19.4647,-8.09453 L -19.3528,-7.97023 L -19.2692,-7.82539 L -19.2175,-7.66634 L -19.2,-7.5 L -19.2175,-7.33368
 L -19.2692,-7.17462 L -19.3528,-7.02979 L -19.4647,-6.90549 L -19.6,-6.80719 L -19.7528,-6.73917 L -19.9164,-6.70439
 z
M -20.6063,18.4682 L -21.7923,18.2161 L -22.9,17.7229 L -23.881,17.0102 L -24.6923,16.1091 L -25.2986,15.0591
 L -25.6732,13.9059 L -25.8,12.7 L -25.6732,11.4941 L -25.2986,10.3409 L -24.6923,9.29085 L -23.881,8.38976
 L -23,7.74969 L -23,6.2 L -22.9344,5.57626 L -22.7406,4.97978 L -22.427,4.43665 L -22.0074,3.97057
 L -21.5,3.60191 L -20.927,3.34682 L -20.3136,3.21643 L -19.6864,3.21643 L -19.073,3.34682 L -18.5,3.60191
 L -17.9926,3.97057 L -17.573,4.43665 L -17.2594,4.97978 L -17.0656,5.57626 L -17,6.2 L -17,7.74969
 L -16.119,8.38976 L -15.3077,9.29085 L -14.7014,10.3409 L -14.3268,11.4941 L -14.2,12.7 L -14.3268,13.9059
 L -14.7014,15.0591 L -15.3077,16.1091 L -16.119,17.0102 L -17.1,17.7229 L -18.2077,18.2161 L -19.3937,18.4682
 z
M -20.0836,21.9956 L -20.2472,21.9608 L -20.4,21.8928 L -20.5353,21.7945 L -20.6472,21.6702 L -20.7308,21.5254
 L -20.7825,21.3663 L -20.8,21.2 L -20.7825,21.0337 L -20.7308,20.8746 L -20.6472,20.7298 L -20.5353,20.6055
 L -20.4,20.5072 L -20.2472,20.4391 L -20.0836,20.4044 L -19.9164,20.4044 L -19.7528,20.4391 L -19.6,20.5072
 L -19.4647,20.6055 L -19.3528,20.7298 L -19.2692,20.8746 L -19.2175,21.0337 L -19.2,21.2 L -19.2175,21.3663
 L -19.2692,21.5254 L -19.3528,21.6702 L -19.4647,21.7945 L -19.6,21.8928 L -19.7528,21.9608 L -19.9164,21.9956
 z
M 61.5,8 L 64.5,8 L 64.5,15 L 87,15 L 87,8 L 90,8
 L 90,-2 L 87,-2 L 87,-5 L 64.5,-5 L 64.5,-2 L 61.5,-2
 L 61.5,-5 L 43,-5 L 43,-2 L 40,-2 L 40,8 L 43,8
 L 43,15 L 61.5,15 z
" stroke="black" fill="lightgray" stroke-width="0.5"/></svg>
