<?xml version="1.0" standalone="no"?>
<!DOCTYPE svg PUBLIC "-//W3C//DTD SVG 1.1//EN" "http://www.w3.org/Graphics/SVG/1.1/DTD/svg11.dtd">
<svg width="175" height="182" viewBox="-88 -103 175 182" xmlns="http://www.w3.org/2000/svg" version="1.1">
<title>OpenSCAD Model</title>
<path d="
M 61.0176,-48.9966 L 61.408,-49.1464 L 61.7586,-49.3741 L 61.9065,-49.522 L 61.9142,-49.5142 L 74.6421,-62.2421
 L 74.6344,-62.2499 L 74.7822,-62.3977 L 75.0099,-62.7484 L 75.1598,-63.1387 L 75.2252,-63.5517 L 75.2033,-63.9692
 L 75.0951,-64.3731 L 74.9053,-64.7456 L 74.6421,-65.0706 L 36.8119,-102.901 L 36.6,-102.689 L 36.6,-102.8
 L -36.6,-102.8 L -36.6,-102.689 L -36.8119,-102.901 L -74.6421,-65.0706 L -74.9053,-64.7456 L -75.0951,-64.3731
 L -75.2033,-63.9692 L -75.2252,-63.5517 L -75.1598,-63.1387 L -75.0099,-62.7484 L -74.7822,-62.3977 L -74.6344,-62.2499
 L -74.6421,-62.2421 L -61.9142,-49.5142 L -61.9065,-49.522 L -61.7586,-49.3741 L -61.408,-49.1464 L -61.0176,-48.9966
 L -60.6047,-48.9312 L -60.1871,-48.9531 L -59.7833,-49.0613 L -59.4107,-49.2511 L -59.0858,-49.5142 L -36.6,-72
 L 36.6,-72 L 59.0858,-49.5142 L 59.4107,-49.2511 L 59.7833,-49.0613 L 60.1871,-48.9531 L 60.6047,-48.9312
 z
M -66.864,-65.7777 L -50.8126,-81.829 L -42.3274,-73.3437 L -58.3787,-57.2924 z
M 42.3274,-73.3437 L 50.8126,-81.829 L 66.864,-65.7777 L 58.3787,-57.2924 z
M 43.5851,-79.4271 L 43.3832,-79.4812 L 43.1969,-79.5761 L 43.0345,-79.7077 L 42.9029,-79.8701 L 42.808,-80.0564
 L 42.7539,-80.2583 L 42.7429,-80.4671 L 42.7756,-80.6736 L 42.8506,-80.8688 L 42.9644,-81.0441 L 43.1122,-81.1919
 L 43.2876,-81.3058 L 43.4827,-81.3807 L 43.6892,-81.4134 L 43.898,-81.4025 L 44.0999,-81.3484 L 44.2862,-81.2534
 L 44.4487,-81.1219 L 44.5802,-80.9594 L 44.6751,-80.7731 L 44.7293,-80.5712 L 44.7402,-80.3624 L 44.7075,-80.156
 L 44.6326,-79.9608 L 44.5187,-79.7854 L 44.3709,-79.6376 L 44.1956,-79.5238 L 44.0004,-79.4489 L 43.7939,-79.4161
 z
M -44.0004,-79.4489 L -44.1956,-79.5238 L -44.3709,-79.6376 L -44.5187,-79.7854 L -44.6326,-79.9608 L -44.7075,-80.156
 L -44.7402,-80.3624 L -44.7293,-80.5712 L -44.6751,-80.7731 L -44.5802,-80.9594 L -44.4487,-81.1219 L -44.2862,-81.2534
 L -44.0999,-81.3484 L -43.898,-81.4025 L -43.6892,-81.4134 L -43.4827,-81.3807 L -43.2876,-81.3058 L -43.1122,-81.1919
 L -42.9644,-81.0441 L -42.8505,-80.8688 L -42.7756,-80.6736 L -42.7429,-80.4671 L -42.7539,-80.2583 L -42.808,-80.0564
 L -42.9029,-79.8701 L -43.0344,-79.7077 L -43.1969,-79.5761 L -43.3832,-79.4812 L -43.5851,-79.4271 L -43.7939,-79.4161
 z
M -32.5,-76 L -32.5,-79 L 32.5,-79 L 32.5,-76 z
M -65.7086,-57.7407 L -65.9037,-57.8156 L -66.0791,-57.9295 L -66.2269,-58.0773 L -66.3408,-58.2526 L -66.4157,-58.4478
 L -66.4484,-58.6543 L -66.4374,-58.863 L -66.3833,-59.065 L -66.2884,-59.2513 L -66.1569,-59.4137 L -65.9944,-59.5453
 L -65.8081,-59.6402 L -65.6062,-59.6943 L -65.3974,-59.7052 L -65.1909,-59.6725 L -64.9958,-59.5976 L -64.8204,-59.4837
 L -64.6726,-59.3359 L -64.5587,-59.1606 L -64.4838,-58.9654 L -64.4511,-58.7589 L -64.462,-58.5502 L -64.5162,-58.3482
 L -64.6111,-58.162 L -64.7426,-57.9995 L -64.9051,-57.8679 L -65.0914,-57.773 L -65.2933,-57.7189 L -65.5021,-57.708
 z
M 65.2933,-57.7189 L 65.0914,-57.773 L 64.9051,-57.8679 L 64.7426,-57.9995 L 64.6111,-58.162 L 64.5162,-58.3482
 L 64.4621,-58.5502 L 64.4511,-58.7589 L 64.4838,-58.9654 L 64.5587,-59.1606 L 64.6726,-59.3359 L 64.8204,-59.4837
 L 64.9957,-59.5976 L 65.1909,-59.6725 L 65.3974,-59.7052 L 65.6062,-59.6943 L 65.8081,-59.6402 L 65.9944,-59.5453
 L 66.1569,-59.4137 L 66.2884,-59.2513 L 66.3833,-59.065 L 66.4374,-58.863 L 66.4484,-58.6543 L 66.4157,-58.4478
 L 66.3408,-58.2526 L 66.2269,-58.0773 L 66.0791,-57.9295 L 65.9037,-57.8156 L 65.7086,-57.7407 L 65.5021,-57.708
 z
M 61.0176,-14.9966 L 61.408,-15.1464 L 61.7586,-15.3741 L 61.9065,-15.522 L 61.9142,-15.5142 L 74.6421,-28.2421
 L 74.6344,-28.2499 L 74.7822,-28.3977 L 75.0099,-28.7484 L 75.1598,-29.1387 L 75.2252,-29.5517 L 75.2033,-29.9692
 L 75.0951,-30.3731 L 74.9053,-30.7456 L 74.6421,-31.0706 L 36.8119,-68.9008 L 36.6,-68.6888 L 36.6,-68.8
 L -36.6,-68.8 L -36.6,-68.6888 L -36.8119,-68.9008 L -74.6421,-31.0706 L -74.9053,-30.7456 L -75.0951,-30.3731
 L -75.2033,-29.9692 L -75.2252,-29.5517 L -75.1598,-29.1387 L -75.0099,-28.7484 L -74.7822,-28.3977 L -74.6344,-28.2499
 L -74.6421,-28.2421 L -61.9142,-15.5142 L -61.9065,-15.522 L -61.7586,-15.3741 L -61.408,-15.1464 L -61.0176,-14.9966
 L -60.6047,-14.9312 L -60.1871,-14.9531 L -59.7833,-15.0613 L -59.4107,-15.2511 L -59.0858,-15.5142 L -36.6,-38
 L 36.6,-38 L 59.0858,-15.5142 L 59.4107,-15.2511 L 59.7833,-15.0613 L 60.1871,-14.9531 L 60.6047,-14.9312
 z
M -66.864,-31.7777 L -50.8126,-47.829 L -42.3274,-39.3437 L -58.3787,-23.2924 z
M 42.3274,-39.3437 L 50.8126,-47.829 L 66.864,-31.7777 L 58.3787,-23.2924 z
M 43.5851,-45.4271 L 43.3832,-45.4812 L 43.1969,-45.5761 L 43.0345,-45.7077 L 42.9029,-45.8701 L 42.808,-46.0564
 L 42.7539,-46.2583 L 42.7429,-46.4671 L 42.7756,-46.6736 L 42.8506,-46.8688 L 42.9644,-47.0441 L 43.1122,-47.1919
 L 43.2876,-47.3058 L 43.4827,-47.3807 L 43.6892,-47.4134 L 43.898,-47.4025 L 44.0999,-47.3484 L 44.2862,-47.2534
 L 44.4487,-47.1219 L 44.5802,-46.9594 L 44.6751,-46.7731 L 44.7293,-46.5712 L 44.7402,-46.3624 L 44.7075,-46.156
 L 44.6326,-45.9608 L 44.5187,-45.7854 L 44.3709,-45.6376 L 44.1956,-45.5238 L 44.0004,-45.4489 L 43.7939,-45.4161
 z
M -44.0004,-45.4489 L -44.1956,-45.5238 L -44.3709,-45.6376 L -44.5187,-45.7854 L -44.6326,-45.9608 L -44.7075,-46.156
 L -44.7402,-46.3624 L -44.7293,-46.5712 L -44.6751,-46.7731 L -44.5802,-46.9594 L -44.4487,-47.1219 L -44.2862,-47.2534
 L -44.0999,-47.3484 L -43.898,-47.4025 L -43.6892,-47.4134 L -43.4827,-47.3807 L -43.2876,-47.3058 L -43.1122,-47.1919
 L -42.9644,-47.0441 L -42.8505,-46.8688 L -42.7756,-46.6736 L -42.7429,-46.4671 L -42.7539,-46.2583 L -42.808,-46.0564
 L -42.9029,-45.8701 L -43.0344,-45.7077 L -43.1969,-45.5761 L -43.3832,-45.4812 L -43.5851,-45.4271 L -43.7939,-45.4161
 z
M -32.5,-42 L -32.5,-45 L 32.5,-45 L 32.5,-42 z
M -65.7086,-23.7407 L -65.9037,-23.8156 L -66.0791,-23.9295 L -66.2269,-24.0773 L -66.3408,-24.2526 L -66.4157,-24.4478
 L -66.4484,-24.6543 L -66.4374,-24.863 L -66.3833,-25.065 L -66.2884,-25.2513 L -66.1569,-25.4137 L -65.9944,-25.5453
 L -65.8081,-25.6402 L -65.6062,-25.6943 L -65.3974,-25.7052 L -65.1909,-25.6725 L -64.9958,-25.5976 L -64.8204,-25.4837
 L -64.6726,-25.3359 L -64.5587,-25.1606 L -64.4838,-24.9654 L -64.4511,-24.7589 L -64.462,-24.5502 L -64.5162,-24.3482
 L -64.6111,-24.162 L -64.7426,-23.9995 L -64.9051,-23.8679 L -65.0914,-23.773 L -65.2933,-23.7189 L -65.5021,-23.708
 z
M 65.2933,-23.7189 L 65.0914,-23.773 L 64.9051,-23.8679 L 64.7426,-23.9995 L 64.6111,-24.162 L 64.5162,-24.3482
 L 64.4621,-24.5502 L 64.4511,-24.7589 L 64.4838,-24.9654 L 64.5587,-25.1606 L 64.6726,-25.3359 L 64.8204,-25.4837
 L 64.9957,-25.5976 L 65.1909,-25.6725 L 65.3974,-25.7052 L 65.6062,-25.6943 L 65.8081,-25.6402 L 65.9944,-25.5453
 L 66.1569,-25.4137 L 66.2884,-25.2513 L 66.3833,-25.065 L 66.4374,-24.863 L 66.4484,-24.6543 L 66.4157,-24.4478
 L 66.3408,-24.2526 L 66.2269,-24.0773 L 66.0791,-23.9295 L 65.9037,-23.8156 L 65.7086,-23.7407 L 65.5021,-23.708
 z
M 32.4,33 L 36.4,33 L 36.4,-32 L 32.4,-32 L 32.4,-36 L -32.6,-36
 L -32.6,-32 L -36.6,-32 L -36.6,33 L -32.6,33 L -32.6,37 L 32.4,37
 z
M -22.5568,-22.5082 L -22.8635,-22.5734 L -23.15,-22.701 L -23.4037,-22.8853 L -23.6135,-23.1183 L -23.7703,-23.3899
 L -23.8672,-23.6881 L -23.9,-24 L -23.8672,-24.3119 L -23.7703,-24.6101 L -23.6135,-24.8817 L -23.4037,-25.1147
 L -23.15,-25.299 L -22.8635,-25.4266 L -22.5568,-25.4918 L -22.2432,-25.4918 L -21.9365,-25.4266 L -21.65,-25.299
 L -21.3963,-25.1147 L -21.1865,-24.8817 L -21.0297,-24.6101 L -20.9328,-24.3119 L -20.9,-24 L -20.9328,-23.6881
 L -21.0297,-23.3899 L -21.1865,-23.1183 L -21.3963,-22.8853 L -21.65,-22.701 L -21.9365,-22.5734 L -22.2432,-22.5082
 z
M 27.6432,-7.00821 L 27.3365,-7.07341 L 27.05,-7.20096 L 26.7963,-7.38528 L 26.5865,-7.61832 L 26.4297,-7.88989
 L 26.3328,-8.18813 L 26.3,-8.5 L 26.3328,-8.81186 L 26.4297,-9.11009 L 26.5865,-9.38167 L 26.7963,-9.61472
 L 27.05,-9.79903 L 27.3365,-9.92657 L 27.6432,-9.99178 L 27.9568,-9.99178 L 28.2635,-9.92657 L 28.55,-9.79903
 L 28.8037,-9.61472 L 29.0135,-9.38167 L 29.1703,-9.11009 L 29.2672,-8.81186 L 29.3,-8.5 L 29.2672,-8.18813
 L 29.1703,-7.88989 L 29.0135,-7.61832 L 28.8037,-7.38528 L 28.55,-7.20096 L 28.2635,-7.07341 L 27.9568,-7.00821
 z
M 27.6432,21.0918 L 27.3365,21.0266 L 27.05,20.899 L 26.7963,20.7147 L 26.5865,20.4817 L 26.4297,20.2101
 L 26.3328,19.9119 L 26.3,19.6 L 26.3328,19.2881 L 26.4297,18.9899 L 26.5865,18.7183 L 26.7963,18.4853
 L 27.05,18.301 L 27.3365,18.1734 L 27.6432,18.1082 L 27.9568,18.1082 L 28.2635,18.1734 L 28.55,18.301
 L 28.8037,18.4853 L 29.0135,18.7183 L 29.1703,18.9899 L 29.2672,19.2881 L 29.3,19.6 L 29.2672,19.9119
 L 29.1703,20.2101 L 29.0135,20.4817 L 28.8037,20.7147 L 28.55,20.899 L 28.2635,21.0266 L 27.9568,21.0918
 z
M -24.2568,25.9918 L -24.5635,25.9266 L -24.85,25.799 L -25.1037,25.6147 L -25.3135,25.3817 L -25.4703,25.1101
 L -25.5672,24.8119 L -25.6,24.5 L -25.5672,24.1881 L -25.4703,23.8899 L -25.3135,23.6183 L -25.1037,23.3853
 L -24.85,23.201 L -24.5635,23.0734 L -24.2568,23.0082 L -23.9432,23.0082 L -23.6365,23.0734 L -23.35,23.201
 L -23.0963,23.3853 L -22.8865,23.6183 L -22.7297,23.8899 L -22.6328,24.1881 L -22.6,24.5 L -22.6328,24.8119
 L -22.7297,25.1101 L -22.8865,25.3817 L -23.0963,25.6147 L -23.35,25.799 L -23.6365,25.9266 L -23.9432,25.9918
 z
M 59.4,38.689 L 59.609,38.689 L 60.018,38.6021 L 60.4,38.432 L 60.7383,38.1863 L 61.018,37.8756
 L 61.2271,37.5135 L 61.3563,37.1158 L 61.4,36.7 L 61.4,-4 L 61.1596,-6.28702 L 60.449,-8.47409
 L 59.2992,-10.4656 L 57.7604,-12.1746 L 55.9,-13.5263 L 53.7992,-14.4616 L 51.5498,-14.9397 L 49.2502,-14.9397
 L 47.0008,-14.4616 L 44.9,-13.5263 L 43.0396,-12.1746 L 41.5008,-10.4656 L 40.351,-8.47409 L 39.6404,-6.28702
 L 39.4,-4 L 39.4,36.7 L 39.4437,37.1158 L 39.5729,37.5135 L 39.782,37.8756 L 40.0617,38.1863
 L 40.4,38.432 L 40.782,38.6021 L 41.191,38.689 L 41.4,38.689 L 41.4,38.7 L 59.4,38.7
 z
M 50.1387,-1.5137 L 49.6275,-1.62236 L 49.15,-1.83495 L 48.7272,-2.14215 L 48.3775,-2.53055 L 48.1161,-2.98317
 L 47.9546,-3.48022 L 47.9,-4 L 47.9546,-4.51978 L 48.1161,-5.01683 L 48.3775,-5.46945 L 48.7272,-5.85785
 L 49.15,-6.16505 L 49.6275,-6.37764 L 50.1387,-6.4863 L 50.6613,-6.4863 L 51.1725,-6.37764 L 51.65,-6.16505
 L 52.0728,-5.85785 L 52.4225,-5.46945 L 52.6839,-5.01683 L 52.8454,-4.51978 L 52.9,-4 L 52.8454,-3.48022
 L 52.6839,-2.98317 L 52.4225,-2.53055 L 52.0728,-2.14215 L 51.65,-1.83495 L 51.1725,-1.62236 L 50.6613,-1.5137
 z
M 50.2955,4.99452 L 50.091,4.95105 L 49.9,4.86601 L 49.7309,4.74313 L 49.591,4.58778 L 49.4865,4.40672
 L 49.4219,4.2079 L 49.4,4 L 49.4219,3.79208 L 49.4865,3.59326 L 49.591,3.4122 L 49.7309,3.25685
 L 49.9,3.13397 L 50.091,3.04893 L 50.2955,3.00548 L 50.5045,3.00548 L 50.709,3.04893 L 50.9,3.13397
 L 51.0691,3.25685 L 51.209,3.4122 L 51.3135,3.59326 L 51.3781,3.79208 L 51.4,4 L 51.3781,4.2079
 L 51.3135,4.40672 L 51.209,4.58778 L 51.0691,4.74313 L 50.9,4.86601 L 50.709,4.95105 L 50.5045,4.99452
 z
M 44.4,30.7 L 44.4,8 L 56.4,8 L 56.4,30.7 z
M 50.2955,35.6945 L 50.091,35.651 L 49.9,35.566 L 49.7309,35.4431 L 49.591,35.2878 L 49.4865,35.1067
 L 49.4219,34.9079 L 49.4,34.7 L 49.4219,34.4921 L 49.4865,34.2933 L 49.591,34.1122 L 49.7309,33.9568
 L 49.9,33.834 L 50.091,33.7489 L 50.2955,33.7055 L 50.5045,33.7055 L 50.709,33.7489 L 50.9,33.834
 L 51.0691,33.9568 L 51.209,34.1122 L 51.3135,34.2933 L 51.3781,34.4921 L 51.4,34.7 L 51.3781,34.9079
 L 51.3135,35.1067 L 51.209,35.2878 L 51.0691,35.4431 L 50.9,35.566 L 50.709,35.651 L 50.5045,35.6945
 z
M -41.6,38.689 L -41.391,38.689 L -40.982,38.6021 L -40.6,38.432 L -40.2617,38.1863 L -39.982,37.8756
 L -39.7729,37.5135 L -39.6437,37.1158 L -39.6,36.7 L -39.6,-4 L -39.8404,-6.28702 L -40.551,-8.47409
 L -41.7008,-10.4656 L -43.2396,-12.1746 L -45.1,-13.5263 L -47.2008,-14.4616 L -49.4502,-14.9397 L -51.7498,-14.9397
 L -53.9992,-14.4616 L -56.1,-13.5263 L -57.9604,-12.1746 L -59.4992,-10.4656 L -60.649,-8.47409 L -61.3596,-6.28702
 L -61.6,-4 L -61.6,36.7 L -61.5563,37.1158 L -61.4271,37.5135 L -61.218,37.8756 L -60.9383,38.1863
 L -60.6,38.432 L -60.218,38.6021 L -59.809,38.689 L -59.6,38.689 L -59.6,38.7 L -41.6,38.7
 z
M -50.8613,-1.5137 L -51.3725,-1.62236 L -51.85,-1.83495 L -52.2728,-2.14215 L -52.6225,-2.53055 L -52.8839,-2.98317
 L -53.0454,-3.48022 L -53.1,-4 L -53.0454,-4.51978 L -52.8839,-5.01683 L -52.6225,-5.46945 L -52.2728,-5.85785
 L -51.85,-6.16505 L -51.3725,-6.37764 L -50.8613,-6.4863 L -50.3387,-6.4863 L -49.8275,-6.37764 L -49.35,-6.16505
 L -48.9272,-5.85785 L -48.5775,-5.46945 L -48.3161,-5.01683 L -48.1546,-4.51978 L -48.1,-4 L -48.1546,-3.48022
 L -48.3161,-2.98317 L -48.5775,-2.53055 L -48.9272,-2.14215 L -49.35,-1.83495 L -49.8275,-1.62236 L -50.3387,-1.5137
 z
M -50.7045,4.99452 L -50.909,4.95105 L -51.1,4.86601 L -51.2691,4.74313 L -51.409,4.58778 L -51.5135,4.40672
 L -51.5781,4.2079 L -51.6,4 L -51.5781,3.79208 L -51.5135,3.59326 L -51.409,3.4122 L -51.2691,3.25685
 L -51.1,3.13397 L -50.909,3.04893 L -50.7045,3.00548 L -50.4955,3.00548 L -50.291,3.04893 L -50.1,3.13397
 L -49.9309,3.25685 L -49.791,3.4122 L -49.6865,3.59326 L -49.6219,3.79208 L -49.6,4 L -49.6219,4.2079
 L -49.6865,4.40672 L -49.791,4.58778 L -49.9309,4.74313 L -50.1,4.86601 L -50.291,4.95105 L -50.4955,4.99452
 z
M -56.6,30.7 L -56.6,8 L -44.6,8 L -44.6,30.7 z
M -50.7045,35.6945 L -50.909,35.651 L -51.1,35.566 L -51.2691,35.4431 L -51.409,35.2878 L -51.5135,35.1067
 L -51.5781,34.9079 L -51.6,34.7 L -51.5781,34.4921 L -51.5135,34.2933 L -51.409,34.1122 L -51.2691,33.9568
 L -51.1,33.834 L -50.909,33.7489 L -50.7045,33.7055 L -50.4955,33.7055 L -50.291,33.7489 L -50.1,33.834
 L -49.9309,33.9568 L -49.791,34.1122 L -49.6865,34.2933 L -49.6219,34.4921 L -49.6,34.7 L -49.6219,34.9079
 L -49.6865,35.1067 L -49.791,35.2878 L -49.9309,35.4431 L -50.1,35.566 L -50.291,35.651 L -50.4955,35.6945
 z
M 84.4,38.689 L 84.609,38.689 L 85.018,38.6021 L 85.4,38.432 L 85.7383,38.1863 L 86.018,37.8756
 L 86.2271,37.5135 L 86.3563,37.1158 L 86.4,36.7 L 86.4,-4 L 86.1596,-6.28702 L 85.449,-8.47409
 L 84.2992,-10.4656 L 82.7604,-12.1746 L 80.9,-13.5263 L 78.7992,-14.4616 L 76.5498,-14.9397 L 74.2502,-14.9397
 L 72.0008,-14.4616 L 69.9,-13.5263 L 68.0396,-12.1746 L 66.5008,-10.4656 L 65.351,-8.47409 L 64.6404,-6.28702
 L 64.4,-4 L 64.4,36.7 L 64.4437,37.1158 L 64.5729,37.5135 L 64.782,37.8756 L 65.0617,38.1863
 L 65.4,38.432 L 65.782,38.6021 L 66.191,38.689 L 66.4,38.689 L 66.4,38.7 L 84.4,38.7
 z
M 75.1387,-1.5137 L 74.6275,-1.62236 L 74.15,-1.83495 L 73.7272,-2.14215 L 73.3775,-2.53055 L 73.1161,-2.98317
 L 72.9546,-3.48022 L 72.9,-4 L 72.9546,-4.51978 L 73.1161,-5.01683 L 73.3775,-5.46945 L 73.7272,-5.85785
 L 74.15,-6.16505 L 74.6275,-6.37764 L 75.1387,-6.4863 L 75.6613,-6.4863 L 76.1725,-6.37764 L 76.65,-6.16505
 L 77.0728,-5.85785 L 77.4225,-5.46945 L 77.6839,-5.01683 L 77.8454,-4.51978 L 77.9,-4 L 77.8454,-3.48022
 L 77.6839,-2.98317 L 77.4225,-2.53055 L 77.0728,-2.14215 L 76.65,-1.83495 L 76.1725,-1.62236 L 75.6613,-1.5137
 z
M 75.2955,4.99452 L 75.091,4.95105 L 74.9,4.86601 L 74.7309,4.74313 L 74.591,4.58778 L 74.4865,4.40672
 L 74.4219,4.2079 L 74.4,4 L 74.4219,3.79208 L 74.4865,3.59326 L 74.591,3.4122 L 74.7309,3.25685
 L 74.9,3.13397 L 75.091,3.04893 L 75.2955,3.00548 L 75.5045,3.00548 L 75.709,3.04893 L 75.9,3.13397
 L 76.0691,3.25685 L 76.209,3.4122 L 76.3135,3.59326 L 76.3781,3.79208 L 76.4,4 L 76.3781,4.2079
 L 76.3135,4.40672 L 76.209,4.58778 L 76.0691,4.74313 L 75.9,4.86601 L 75.709,4.95105 L 75.5045,4.99452
 z
M 69.4,30.7 L 69.4,8 L 81.4,8 L 81.4,30.7 z
M 75.2955,35.6945 L 75.091,35.651 L 74.9,35.566 L 74.7309,35.4431 L 74.591,35.2878 L 74.4865,35.1067
 L 74.4219,34.9079 L 74.4,34.7 L 74.4219,34.4921 L 74.4865,34.2933 L 74.591,34.1122 L 74.7309,33.9568
 L 74.9,33.834 L 75.091,33.7489 L 75.2955,33.7055 L 75.5045,33.7055 L 75.709,33.7489 L 75.9,33.834
 L 76.0691,33.9568 L 76.209,34.1122 L 76.3135,34.2933 L 76.3781,34.4921 L 76.4,34.7 L 76.3781,34.9079
 L 76.3135,35.1067 L 76.209,35.2878 L 76.0691,35.4431 L 75.9,35.566 L 75.709,35.651 L 75.5045,35.6945
 z
M -67.6,38.689 L -67.391,38.689 L -66.982,38.6021 L -66.6,38.432 L -66.2617,38.1863 L -65.982,37.8756
 L -65.7729,37.5135 L -65.6437,37.1158 L -65.6,36.7 L -65.6,-4 L -65.8404,-6.28702 L -66.551,-8.47409
 L -67.7008,-10.4656 L -69.2396,-12.1746 L -71.1,-13.5263 L -73.2008,-14.4616 L -75.4502,-14.9397 L -77.7498,-14.9397
 L -79.9992,-14.4616 L -82.1,-13.5263 L -83.9604,-12.1746 L -85.4992,-10.4656 L -86.649,-8.47409 L -87.3596,-6.28702
 L -87.6,-4 L -87.6,36.7 L -87.5563,37.1158 L -87.4271,37.5135 L -87.218,37.8756 L -86.9383,38.1863
 L -86.6,38.432 L -86.218,38.6021 L -85.809,38.689 L -85.6,38.689 L -85.6,38.7 L -67.6,38.7
 z
M -76.8613,-1.5137 L -77.3725,-1.62236 L -77.85,-1.83495 L -78.2728,-2.14215 L -78.6225,-2.53055 L -78.8839,-2.98317
 L -79.0454,-3.48022 L -79.1,-4 L -79.0454,-4.51978 L -78.8839,-5.01683 L -78.6225,-5.46945 L -78.2728,-5.85785
 L -77.85,-6.16505 L -77.3725,-6.37764 L -76.8613,-6.4863 L -76.3387,-6.4863 L -75.8275,-6.37764 L -75.35,-6.16505
 L -74.9272,-5.85785 L -74.5775,-5.46945 L -74.3161,-5.01683 L -74.1546,-4.51978 L -74.1,-4 L -74.1546,-3.48022
 L -74.3161,-2.98317 L -74.5775,-2.53055 L -74.9272,-2.14215 L -75.35,-1.83495 L -75.8275,-1.62236 L -76.3387,-1.5137
 z
M -76.7045,4.99452 L -76.909,4.95105 L -77.1,4.86601 L -77.2691,4.74313 L -77.409,4.58778 L -77.5135,4.40672
 L -77.5781,4.2079 L -77.6,4 L -77.5781,3.79208 L -77.5135,3.59326 L -77.409,3.4122 L -77.2691,3.25685
 L -77.1,3.13397 L -76.909,3.04893 L -76.7045,3.00548 L -76.4955,3.00548 L -76.291,3.04893 L -76.1,3.13397
 L -75.9309,3.25685 L -75.791,3.4122 L -75.6865,3.59326 L -75.6219,3.79208 L -75.6,4 L -75.6219,4.2079
 L -75.6865,4.40672 L -75.791,4.58778 L -75.9309,4.74313 L -76.1,4.86601 L -76.291,4.95105 L -76.4955,4.99452
 z
M -82.6,30.7 L -82.6,8 L -70.6,8 L -70.6,30.7 z
M -76.7045,35.6945 L -76.909,35.651 L -77.1,35.566 L -77.2691,35.4431 L -77.409,35.2878 L -77.5135,35.1067
 L -77.5781,34.9079 L -77.6,34.7 L -77.5781,34.4921 L -77.5135,34.2933 L -77.409,34.1122 L -77.2691,33.9568
 L -77.1,33.834 L -76.909,33.7489 L -76.7045,33.7055 L -76.4955,33.7055 L -76.291,33.7489 L -76.1,33.834
 L -75.9309,33.9568 L -75.791,34.1122 L -75.6865,34.2933 L -75.6219,34.4921 L -75.6,34.7 L -75.6219,34.9079
 L -75.6865,35.1067 L -75.791,35.2878 L -75.9309,35.4431 L -76.1,35.566 L -76.291,35.651 L -76.4955,35.6945
 z
M -44.8982,62.8676 L -43.7715,62.6301 L -42.8558,62.3432 L -4.78045,48.5352 L -4.09953,48.1183 L -3.72131,47.792
 L -3.31349,47.326 L -2.8977,46.6328 L -2.72656,46.2062 L -2.54911,45.4278 L -2.51835,44.9192 L -2.51847,44.8992
 L -2.60685,44.0957 L -2.74828,43.5958 L -3.08889,42.8736 L -3.37843,42.4544 L -3.64143,42.1534 L -4.25073,41.6374
 L -4.83164,41.3055 L -5.58561,41.0428 L -6.37673,40.935 L -6.52667,40.9325 L -47.1949,41.0161 L -48.3397,41.1384
 L -49.4655,41.3798 L -50.542,41.7306 L -51.5939,42.1989 L -52.591,42.7746 L -53.5225,43.4514 L -54.3782,44.2218
 L -55.1486,45.0775 L -55.8149,45.9929 L -56.3923,46.989 L -56.8625,48.04 L -57.2202,49.1344 L -57.4615,50.2603
 L -57.5839,51.4051 L -57.5859,52.5565 L -57.4676,53.7018 L -57.2301,54.8284 L -56.8762,55.9241 L -56.4098,56.9768
 L -55.8254,57.991 L -55.1486,58.9225 L -54.3782,59.7782 L -53.5225,60.5486 L -52.6071,61.2149 L -51.611,61.7923
 L -50.5599,62.2625 L -49.4655,62.6202 L -48.3397,62.8615 L -47.1949,62.9839 L -46.0435,62.9859 z
M -47.2048,54.4257 L -47.6959,54.247 L -48.1391,53.97 L -48.5151,53.6069 L -48.8074,53.1737 L -49.0031,52.6891
 L -49.0939,52.1744 L -49.0757,51.6521 L -48.9492,51.1449 L -48.7201,50.6752 L -48.3983,50.2634 L -47.998,49.9274
 L -47.5365,49.682 L -47.0341,49.538 L -46.5128,49.5015 L -45.9952,49.5743 L -45.5041,49.753 L -45.0608,50.03
 L -44.6849,50.393 L -44.3926,50.8263 L -44.1968,51.3109 L -44.1061,51.8256 L -44.1243,52.3479 L -44.2508,52.855
 L -44.4799,53.3248 L -44.8017,53.7366 L -45.202,54.0726 L -45.6635,54.3179 L -46.1659,54.462 L -46.6872,54.4985
 z
M 49.7405,62.918 L 50.8744,62.7181 L 51.9812,62.4007 L 53.0488,61.9694 L 54.0654,61.4288 L 55.0046,60.7965
 L 55.8879,60.058 L 56.6892,59.2311 L 57.3996,58.325 L 58.0115,57.3497 L 58.518,56.3157 L 58.9137,55.2344
 L 59.1942,54.1177 L 59.3564,52.9778 L 59.3986,51.8272 L 59.3203,50.6785 L 59.1181,49.5255 L 58.8007,48.4187
 L 58.3694,47.3512 L 57.8288,46.3346 L 57.1965,45.3954 L 56.458,44.5121 L 55.6311,43.7108 L 54.725,43.0004
 L 53.7497,42.3885 L 52.7157,41.882 L 51.6344,41.4863 L 50.5177,41.2058 L 49.3778,41.0435 L 48.4192,41
 L 7.91744,40.9527 L 7.13499,41.1116 L 6.66796,41.2888 L 6.12539,41.5872 L 5.49756,42.0965 L 5.19085,42.4388
 L 4.75785,43.1096 L 4.555,43.577 L 4.54827,43.5958 L 4.35651,44.3811 L 4.31846,44.8992 L 4.39152,45.6943
 L 4.52021,46.1873 L 4.6644,46.5601 L 5.06046,47.2534 L 5.49283,47.7639 L 6.11149,48.2686 L 6.81805,48.6405
 L 6.95807,48.6941 L 45.2023,62.5249 L 46.32,62.8015 L 47.4604,62.9598 L 48.592,62.9983 z
M 47.9659,54.462 L 47.4635,54.3179 L 47.002,54.0726 L 46.6017,53.7366 L 46.2799,53.3248 L 46.0508,52.855
 L 45.9243,52.3479 L 45.9061,51.8256 L 45.9968,51.3109 L 46.1926,50.8263 L 46.4849,50.393 L 46.8608,50.03
 L 47.3041,49.753 L 47.7952,49.5743 L 48.3128,49.5015 L 48.8341,49.538 L 49.3365,49.682 L 49.798,49.9274
 L 50.1983,50.2634 L 50.5201,50.6752 L 50.7492,51.145 L 50.8757,51.6521 L 50.8939,52.1744 L 50.8031,52.6891
 L 50.6074,53.1737 L 50.3151,53.607 L 49.9391,53.97 L 49.4959,54.247 L 49.0048,54.4257 L 48.4872,54.4985
 z
M 54.665,77.8884 L 55.132,77.7111 L 55.6746,77.4128 L 56.3024,76.9035 L 56.6091,76.5612 L 57.0421,75.8904
 L 57.245,75.423 L 57.2517,75.4042 L 57.4435,74.6189 L 57.4815,74.1008 L 57.4085,73.3057 L 57.2798,72.8127
 L 57.1356,72.4399 L 56.7395,71.7466 L 56.3072,71.2361 L 55.6885,70.7313 L 54.9819,70.3595 L 54.8419,70.3059
 L 16.5977,56.4751 L 15.48,56.1984 L 14.3396,56.0402 L 13.208,56.0017 L 12.0594,56.082 L 10.9255,56.2819
 L 9.81875,56.5993 L 8.75121,57.0306 L 7.73458,57.5712 L 6.79537,58.2035 L 5.91207,58.942 L 5.1108,59.7689
 L 4.40035,60.6749 L 3.7885,61.6503 L 3.28196,62.6843 L 2.88627,63.7656 L 2.60578,64.8823 L 2.44355,66.0221
 L 2.40136,67.1728 L 2.47967,68.3215 L 2.68192,69.4744 L 2.9993,70.5812 L 3.43061,71.6488 L 3.97115,72.6654
 L 4.60346,73.6046 L 5.34202,74.4879 L 6.16888,75.2892 L 7.07494,75.9996 L 8.0503,76.6115 L 9.08428,77.118
 L 10.1656,77.5137 L 11.2823,77.7942 L 12.4221,77.9564 L 13.3808,78 L 53.8825,78.0473 z
M 12.9659,69.462 L 12.4635,69.3179 L 12.002,69.0726 L 11.6017,68.7366 L 11.2799,68.3248 L 11.0508,67.855
 L 10.9243,67.3479 L 10.9061,66.8256 L 10.9968,66.3109 L 11.1926,65.8263 L 11.4849,65.393 L 11.8608,65.03
 L 12.3041,64.753 L 12.7952,64.5743 L 13.3128,64.5015 L 13.8341,64.538 L 14.3365,64.682 L 14.798,64.9274
 L 15.1983,65.2634 L 15.5201,65.6752 L 15.7492,66.1449 L 15.8757,66.6521 L 15.8939,67.1744 L 15.8031,67.6891
 L 15.6074,68.1737 L 15.3151,68.607 L 14.9391,68.97 L 14.4959,69.247 L 14.0048,69.4257 L 13.4872,69.4985
 z
M -13.0051,77.9839 L -11.8603,77.8615 L -10.7345,77.6202 L -9.65797,77.2694 L -8.60612,76.8011 L -7.60899,76.2254
 L -6.67748,75.5486 L -5.82185,74.7782 L -5.0514,73.9225 L -4.38511,73.0071 L -3.80767,72.011 L -3.33753,70.9599
 L -2.97982,69.8655 L -2.73847,68.7397 L -2.61611,67.5949 L -2.6141,66.4435 L -2.73245,65.2982 L -2.96987,64.1715
 L -3.32375,63.0759 L -3.79023,62.0232 L -4.37463,61.009 L -5.05142,60.0775 L -5.82183,59.2218 L -6.67748,58.4514
 L -7.59289,57.7851 L -8.58901,57.2077 L -9.64005,56.7375 L -10.7345,56.3798 L -11.8603,56.1385 L -13.0051,56.0161
 L -14.1565,56.0141 L -15.3018,56.1324 L -16.4285,56.3699 L -17.3442,56.6568 L -55.4195,70.4647 L -56.1005,70.8817
 L -56.4787,71.208 L -56.8865,71.674 L -57.3023,72.3672 L -57.4734,72.7938 L -57.6509,73.5722 L -57.6816,74.0808
 L -57.6815,74.1008 L -57.5931,74.9043 L -57.4517,75.4042 L -57.1111,76.1263 L -56.8216,76.5456 L -56.5586,76.8466
 L -55.9493,77.3626 L -55.3684,77.6945 L -54.6144,77.9572 L -53.8233,78.065 L -53.6733,78.0675 z
M -14.2048,69.4257 L -14.6959,69.247 L -15.1392,68.97 L -15.5151,68.607 L -15.8074,68.1737 L -16.0032,67.6891
 L -16.0939,67.1744 L -16.0757,66.6521 L -15.9492,66.1449 L -15.7201,65.6752 L -15.3983,65.2634 L -14.998,64.9274
 L -14.5365,64.682 L -14.0341,64.538 L -13.5128,64.5015 L -12.9952,64.5743 L -12.5041,64.753 L -12.0609,65.03
 L -11.6849,65.393 L -11.3926,65.8263 L -11.1969,66.3109 L -11.1061,66.8256 L -11.1243,67.3479 L -11.2508,67.855
 L -11.4799,68.3248 L -11.8017,68.7366 L -12.202,69.0726 L -12.6635,69.3179 L -13.1659,69.462 L -13.6872,69.4985
 z
" stroke="black" fill="lightgray" stroke-width="0.5"/></svg>
