<?xml version="1.0" standalone="no"?>
<!DOCTYPE svg PUBLIC "-//W3C//DTD SVG 1.1//EN" "http://www.w3.org/Graphics/SVG/1.1/DTD/svg11.dtd">
<svg width="218" height="292" viewBox="-109 -153 218 292" xmlns="http://www.w3.org/2000/svg" version="1.1">
<title>OpenSCAD Model</title>
<path d="
M -95.6771,-74.5381 L -95.0309,-74.669 L -94.2956,-74.9121 L -93.7357,-75.1726 L -93.0761,-75.5784 L -92.6069,-75.947
 L -92.3081,-76.2252 L -40.6119,-127.789 L -39.8446,-128.683 L -39.1644,-129.612 L -38.5576,-130.591 L -38.0165,-131.637
 L -37.5683,-132.698 L -37.2029,-133.79 L -36.9224,-134.907 L -36.7283,-136.042 L -36.6219,-137.189 L -36.6045,-138.366
 L -36.6768,-139.516 L -36.8417,-140.682 L -37.091,-141.806 L -37.4258,-142.908 L -37.8441,-143.981 L -38.3435,-145.019
 L -38.9211,-146.015 L -39.5734,-146.964 L -40.2965,-147.861 L -41.0864,-148.699 L -41.9582,-149.491 L -42.8894,-150.212
 L -43.852,-150.844 L -44.8602,-151.401 L -45.9082,-151.878 L -46.9896,-152.274 L -48.0983,-152.586 L -49.2535,-152.815
 L -50.4231,-152.954 L -51.5738,-153 L -52.7508,-152.956 L -53.8948,-152.823 L -55.0253,-152.604 L -56.1355,-152.298
 L -57.2434,-151.898 L -58.293,-151.424 L -59.3031,-150.871 L -60.2892,-150.227 L -61.2217,-149.507 L -62.0762,-148.735
 L -62.8862,-147.88 L -63.611,-146.985 L -64.2649,-146.037 L -64.471,-145.703 L -101.831,-83.3105 L -102.126,-82.6742
 L -102.328,-82.0685 L -102.471,-81.4035 L -102.541,-80.6323 L -102.529,-80.0567 L -102.454,-79.4436 L -102.319,-78.8516
 L -102.137,-78.3055 L -101.894,-77.7606 L -101.598,-77.2426 L -101.206,-76.6993 L -100.83,-76.2772 L -100.154,-75.6834
 L -99.5795,-75.3001 L -98.9358,-74.9729 L -98.3874,-74.7656 L -97.8215,-74.6129 L -97.0767,-74.499 L -96.3339,-74.4789
 z
M -52.0175,-135.029 L -52.626,-135.181 L -53.1897,-135.456 L -53.684,-135.842 L -54.0871,-136.322 L -54.3815,-136.876
 L -54.5544,-137.479 L -54.5982,-138.105 L -54.5109,-138.726 L -54.2964,-139.315 L -53.964,-139.847 L -53.5283,-140.298
 L -53.0084,-140.649 L -52.4269,-140.884 L -51.8093,-140.993 L -51.1825,-140.971 L -50.5739,-140.819 L -50.0102,-140.544
 L -49.516,-140.158 L -49.1129,-139.678 L -48.8184,-139.124 L -48.6456,-138.521 L -48.6018,-137.895 L -48.6891,-137.274
 L -48.9036,-136.685 L -49.236,-136.153 L -49.6716,-135.702 L -50.1916,-135.351 L -50.7731,-135.116 L -51.3907,-135.007
 z
M 99.0953,-74.5225 L 99.6828,-74.6266 L 100.257,-74.7886 L 100.879,-75.0374 L 101.379,-75.3001 L 102.119,-75.8123
 L 102.63,-76.2772 L 103.103,-76.8226 L 103.437,-77.3046 L 103.722,-77.8168 L 104.013,-78.5119 L 104.212,-79.2277
 L 104.314,-79.8793 L 104.343,-80.538 L 104.285,-81.3102 L 104.168,-81.9166 L 103.933,-82.6547 L 103.689,-83.1991
 L 103.492,-83.5564 L 65.9658,-146.192 L 65.2843,-147.152 L 64.5472,-148.037 L 63.7443,-148.863 L 62.8601,-149.641
 L 61.9392,-150.332 L 60.9679,-150.951 L 59.952,-151.493 L 58.8975,-151.956 L 57.8106,-152.337 L 56.6721,-152.639
 L 55.5394,-152.847 L 54.368,-152.969 L 53.2167,-152.999 L 52.0666,-152.941 L 50.9243,-152.794 L 49.7966,-152.561
 L 48.6901,-152.241 L 47.6114,-151.838 L 46.5668,-151.353 L 45.5625,-150.79 L 44.5832,-150.135 L 43.6583,-149.406
 L 42.8119,-148.625 L 42.028,-147.781 L 41.3111,-146.88 L 40.6654,-145.927 L 40.0948,-144.926 L 39.5924,-143.861
 L 39.1751,-142.76 L 38.8519,-141.654 L 38.6101,-140.502 L 38.4617,-139.359 L 38.4015,-138.209 L 38.4296,-137.058
 L 38.5496,-135.886 L 38.7556,-134.753 L 39.0478,-133.639 L 39.4342,-132.527 L 39.9066,-131.448 L 40.4491,-130.432
 L 41.0828,-129.439 L 41.7758,-128.52 L 42.5374,-127.656 L 42.8119,-127.375 L 94.313,-76.0304 L 94.8591,-75.5905
 L 95.3979,-75.2479 L 96.0085,-74.9481 L 96.7399,-74.6934 L 97.3014,-74.5664 L 97.9143,-74.4906 L 98.5213,-74.4778
 z
M 52.5731,-135.116 L 51.9916,-135.351 L 51.4716,-135.702 L 51.036,-136.153 L 50.7036,-136.685 L 50.4891,-137.274
 L 50.4018,-137.895 L 50.4456,-138.521 L 50.6185,-139.124 L 50.9129,-139.678 L 51.316,-140.158 L 51.8102,-140.544
 L 52.3739,-140.819 L 52.9825,-140.971 L 53.6093,-140.993 L 54.2269,-140.884 L 54.8084,-140.649 L 55.3283,-140.298
 L 55.764,-139.847 L 56.0964,-139.315 L 56.3109,-138.726 L 56.3982,-138.105 L 56.3544,-137.479 L 56.1815,-136.876
 L 55.8871,-136.322 L 55.484,-135.842 L 54.9897,-135.456 L 54.426,-135.181 L 53.8175,-135.029 L 53.1907,-135.007
 z
M 76.0176,-44.9966 L 76.408,-45.1464 L 76.7586,-45.3741 L 76.9065,-45.522 L 76.9142,-45.5142 L 95.299,-63.899
 L 95.2912,-63.9067 L 95.4391,-64.0546 L 95.6668,-64.4052 L 95.8166,-64.7956 L 95.882,-65.2085 L 95.8602,-65.6261
 L 95.7519,-66.03 L 95.5621,-66.4025 L 95.299,-66.7274 L 36.6091,-125.417 L 36.5918,-125.4 L 32.5,-125.4
 L 32.5,-121.4 L 17.5,-121.4 L 17.5,-125.4 L -17.5,-125.4 L -17.5,-121.4 L -32.5,-121.4
 L -32.5,-125.4 L -36.5919,-125.4 L -36.6091,-125.417 L -95.299,-66.7274 L -95.5621,-66.4025 L -95.7519,-66.03
 L -95.8601,-65.6261 L -95.882,-65.2085 L -95.8166,-64.7956 L -95.6668,-64.4052 L -95.4391,-64.0546 L -95.2912,-63.9067
 L -95.299,-63.899 L -76.9142,-45.5142 L -76.9065,-45.522 L -76.7586,-45.3741 L -76.408,-45.1464 L -76.0176,-44.9966
 L -75.6047,-44.9312 L -75.1871,-44.9531 L -74.7833,-45.0613 L -74.4107,-45.2511 L -74.0858,-45.5142 L -36.6,-83
 L 36.6,-83 L 74.0858,-45.5142 L 74.4107,-45.2511 L 74.7833,-45.0613 L 75.1871,-44.9531 L 75.6047,-44.9312
 z
M 53.345,-94.2373 L 53.0421,-94.3184 L 52.7627,-94.4608 L 52.519,-94.6581 L 52.3217,-94.9018 L 52.1793,-95.1812
 L 52.0982,-95.4841 L 52.0817,-95.7973 L 52.1308,-96.107 L 52.2432,-96.3998 L 52.414,-96.6628 L 52.6357,-96.8845
 L 52.8987,-97.0553 L 53.1915,-97.1677 L 53.5012,-97.2167 L 53.8143,-97.2003 L 54.1172,-97.1192 L 54.3966,-96.9768
 L 54.6403,-96.7794 L 54.8377,-96.5358 L 54.9801,-96.2563 L 55.0612,-95.9534 L 55.0776,-95.6403 L 55.0286,-95.3306
 L 54.9162,-95.0378 L 54.7454,-94.7748 L 54.5237,-94.5531 L 54.2607,-94.3823 L 53.9679,-94.2699 L 53.6582,-94.2208
 z
M -53.9679,-94.2699 L -54.2607,-94.3823 L -54.5237,-94.5531 L -54.7454,-94.7748 L -54.9162,-95.0378 L -55.0286,-95.3306
 L -55.0776,-95.6403 L -55.0612,-95.9534 L -54.9801,-96.2563 L -54.8377,-96.5358 L -54.6403,-96.7794 L -54.3966,-96.9768
 L -54.1172,-97.1192 L -53.8143,-97.2003 L -53.5012,-97.2167 L -53.1915,-97.1677 L -52.8987,-97.0553 L -52.6357,-96.8845
 L -52.414,-96.6628 L -52.2432,-96.3998 L -52.1308,-96.107 L -52.0817,-95.7973 L -52.0982,-95.4841 L -52.1793,-95.1812
 L -52.3217,-94.9018 L -52.519,-94.6581 L -52.7627,-94.4608 L -53.0421,-94.3184 L -53.345,-94.2373 L -53.6582,-94.2208
 z
M -87.5208,-67.4345 L -59.2365,-95.7188 L -45.0944,-81.5767 L -73.3787,-53.2924 z
M 45.0944,-81.5767 L 59.2365,-95.7188 L 87.5208,-67.4345 L 73.3787,-53.2924 z
M -32.5,-87 L -32.5,-91 L 32.5,-91 L 32.5,-87 z
M 44.8597,-85.752 L 44.5568,-85.8331 L 44.2774,-85.9755 L 44.0337,-86.1729 L 43.8364,-86.4165 L 43.694,-86.696
 L 43.6129,-86.9989 L 43.5965,-87.312 L 43.6455,-87.6217 L 43.7579,-87.9145 L 43.9287,-88.1775 L 44.1504,-88.3992
 L 44.4134,-88.57 L 44.7062,-88.6824 L 45.0159,-88.7314 L 45.3291,-88.715 L 45.6319,-88.6339 L 45.9114,-88.4915
 L 46.1551,-88.2942 L 46.3524,-88.0505 L 46.4948,-87.7711 L 46.5759,-87.4682 L 46.5924,-87.155 L 46.5433,-86.8453
 L 46.4309,-86.5525 L 46.2601,-86.2895 L 46.0384,-86.0678 L 45.7754,-85.897 L 45.4826,-85.7846 L 45.1729,-85.7356
 z
M -45.4826,-85.7846 L -45.7754,-85.897 L -46.0384,-86.0678 L -46.2601,-86.2895 L -46.4309,-86.5525 L -46.5433,-86.8453
 L -46.5923,-87.155 L -46.5759,-87.4682 L -46.4948,-87.7711 L -46.3524,-88.0505 L -46.1551,-88.2942 L -45.9114,-88.4915
 L -45.632,-88.6339 L -45.329,-88.715 L -45.0159,-88.7314 L -44.7062,-88.6824 L -44.4134,-88.57 L -44.1504,-88.3992
 L -43.9287,-88.1775 L -43.7579,-87.9145 L -43.6455,-87.6217 L -43.5965,-87.312 L -43.6129,-86.9989 L -43.694,-86.696
 L -43.8364,-86.4165 L -44.0337,-86.1729 L -44.2774,-85.9755 L -44.5568,-85.8331 L -44.8598,-85.752 L -45.1729,-85.7356
 z
M -87.909,-60.3288 L -88.2018,-60.4412 L -88.4648,-60.612 L -88.6865,-60.8337 L -88.8573,-61.0967 L -88.9697,-61.3895
 L -89.0187,-61.6992 L -89.0023,-62.0123 L -88.9212,-62.3152 L -88.7788,-62.5946 L -88.5815,-62.8383 L -88.3378,-63.0357
 L -88.0584,-63.178 L -87.7555,-63.2592 L -87.4423,-63.2756 L -87.1326,-63.2266 L -86.8398,-63.1142 L -86.5768,-62.9434
 L -86.3551,-62.7216 L -86.1843,-62.4587 L -86.0719,-62.1659 L -86.0229,-61.8562 L -86.0393,-61.543 L -86.1204,-61.2401
 L -86.2628,-60.9607 L -86.4602,-60.717 L -86.7039,-60.5197 L -86.9833,-60.3773 L -87.2862,-60.2961 L -87.5993,-60.2797
 z
M 87.2862,-60.2961 L 86.9833,-60.3773 L 86.7038,-60.5197 L 86.4602,-60.717 L 86.2628,-60.9607 L 86.1204,-61.2401
 L 86.0393,-61.543 L 86.0229,-61.8562 L 86.0719,-62.1659 L 86.1843,-62.4587 L 86.3551,-62.7216 L 86.5768,-62.9434
 L 86.8398,-63.1142 L 87.1326,-63.2266 L 87.4423,-63.2756 L 87.7555,-63.2592 L 88.0584,-63.178 L 88.3378,-63.0357
 L 88.5815,-62.8383 L 88.7788,-62.5946 L 88.9212,-62.3152 L 89.0023,-62.0123 L 89.0188,-61.6992 L 88.9697,-61.3895
 L 88.8573,-61.0967 L 88.6865,-60.8337 L 88.4648,-60.612 L 88.2018,-60.4412 L 87.909,-60.3288 L 87.5993,-60.2797
 z
M -79.4238,-51.8435 L -79.7165,-51.9559 L -79.9795,-52.1267 L -80.2012,-52.3484 L -80.372,-52.6114 L -80.4844,-52.9042
 L -80.5335,-53.2139 L -80.5171,-53.5271 L -80.4359,-53.8299 L -80.2935,-54.1094 L -80.0962,-54.3531 L -79.8525,-54.5504
 L -79.5731,-54.6928 L -79.2702,-54.7739 L -78.957,-54.7903 L -78.6473,-54.7413 L -78.3545,-54.6289 L -78.0915,-54.4581
 L -77.8698,-54.2364 L -77.699,-53.9734 L -77.5866,-53.6806 L -77.5376,-53.3709 L -77.554,-53.0577 L -77.6352,-52.7548
 L -77.7775,-52.4754 L -77.9749,-52.2317 L -78.2186,-52.0344 L -78.498,-51.892 L -78.8009,-51.8109 L -79.114,-51.7944
 z
M 78.8009,-51.8109 L 78.498,-51.892 L 78.2186,-52.0344 L 77.9749,-52.2317 L 77.7775,-52.4754 L 77.6352,-52.7548
 L 77.554,-53.0577 L 77.5376,-53.3709 L 77.5866,-53.6806 L 77.699,-53.9734 L 77.8698,-54.2364 L 78.0915,-54.4581
 L 78.3545,-54.6289 L 78.6473,-54.7413 L 78.957,-54.7903 L 79.2702,-54.7739 L 79.5731,-54.6928 L 79.8525,-54.5504
 L 80.0962,-54.3531 L 80.2935,-54.1094 L 80.4359,-53.8299 L 80.5171,-53.5271 L 80.5335,-53.2139 L 80.4844,-52.9042
 L 80.372,-52.6114 L 80.2013,-52.3484 L 79.9795,-52.1267 L 79.7165,-51.9559 L 79.4238,-51.8435 L 79.114,-51.7944
 z
M 76.0176,0.00341797 L 76.408,-0.146423 L 76.7586,-0.374146 L 76.9065,-0.521973 L 76.9142,-0.514221 L 95.299,-18.899
 L 95.2912,-18.9067 L 95.4391,-19.0546 L 95.6668,-19.4052 L 95.8166,-19.7956 L 95.882,-20.2085 L 95.8602,-20.6261
 L 95.7519,-21.03 L 95.5621,-21.4025 L 95.299,-21.7274 L 36.6091,-80.4173 L 36.5918,-80.4 L 32.5,-80.4
 L 32.5,-76.4 L 17.5,-76.4 L 17.5,-80.4 L -17.5,-80.4 L -17.5,-76.4 L -32.5,-76.4
 L -32.5,-80.4 L -36.5919,-80.4 L -36.6091,-80.4173 L -95.299,-21.7274 L -95.5621,-21.4025 L -95.7519,-21.03
 L -95.8601,-20.6261 L -95.882,-20.2085 L -95.8166,-19.7956 L -95.6668,-19.4052 L -95.4391,-19.0546 L -95.2912,-18.9067
 L -95.299,-18.899 L -76.9142,-0.514221 L -76.9065,-0.521973 L -76.7586,-0.374146 L -76.408,-0.146423 L -76.0176,0.00341797
 L -75.6047,0.0688324 L -75.1871,0.046936 L -74.7833,-0.0612793 L -74.4107,-0.251099 L -74.0858,-0.514221 L -36.6,-38
 L 36.6,-38 L 74.0858,-0.514221 L 74.4107,-0.251099 L 74.7833,-0.0612793 L 75.1871,0.046936 L 75.6047,0.0688324
 z
M -53.9679,-49.2699 L -54.2607,-49.3823 L -54.5237,-49.5531 L -54.7454,-49.7748 L -54.9162,-50.0378 L -55.0286,-50.3306
 L -55.0776,-50.6403 L -55.0612,-50.9534 L -54.9801,-51.2563 L -54.8377,-51.5358 L -54.6403,-51.7794 L -54.3966,-51.9768
 L -54.1172,-52.1192 L -53.8143,-52.2003 L -53.5012,-52.2167 L -53.1915,-52.1677 L -52.8987,-52.0553 L -52.6357,-51.8845
 L -52.414,-51.6628 L -52.2432,-51.3998 L -52.1308,-51.107 L -52.0817,-50.7973 L -52.0982,-50.4841 L -52.1793,-50.1812
 L -52.3217,-49.9018 L -52.519,-49.6581 L -52.7627,-49.4608 L -53.0421,-49.3184 L -53.345,-49.2373 L -53.6582,-49.2208
 z
M 53.345,-49.2373 L 53.0421,-49.3184 L 52.7627,-49.4608 L 52.519,-49.6581 L 52.3217,-49.9018 L 52.1793,-50.1812
 L 52.0982,-50.4841 L 52.0817,-50.7973 L 52.1308,-51.107 L 52.2432,-51.3998 L 52.414,-51.6628 L 52.6357,-51.8845
 L 52.8987,-52.0553 L 53.1915,-52.1677 L 53.5012,-52.2167 L 53.8143,-52.2003 L 54.1172,-52.1192 L 54.3966,-51.9768
 L 54.6403,-51.7794 L 54.8377,-51.5358 L 54.9801,-51.2563 L 55.0612,-50.9534 L 55.0776,-50.6403 L 55.0286,-50.3306
 L 54.9162,-50.0378 L 54.7454,-49.7748 L 54.5237,-49.5531 L 54.2607,-49.3823 L 53.9679,-49.2699 L 53.6582,-49.2208
 z
M -87.5208,-22.4345 L -59.2365,-50.7188 L -45.0944,-36.5767 L -73.3787,-8.29239 z
M 45.0944,-36.5767 L 59.2365,-50.7188 L 87.5208,-22.4345 L 73.3787,-8.29239 z
M -32.5,-42 L -32.5,-46 L 32.5,-46 L 32.5,-42 z
M -45.4826,-40.7846 L -45.7754,-40.897 L -46.0384,-41.0678 L -46.2601,-41.2895 L -46.4309,-41.5525 L -46.5433,-41.8453
 L -46.5923,-42.155 L -46.5759,-42.4682 L -46.4948,-42.7711 L -46.3524,-43.0505 L -46.1551,-43.2942 L -45.9114,-43.4915
 L -45.632,-43.6339 L -45.329,-43.715 L -45.0159,-43.7314 L -44.7062,-43.6824 L -44.4134,-43.57 L -44.1504,-43.3992
 L -43.9287,-43.1775 L -43.7579,-42.9145 L -43.6455,-42.6217 L -43.5965,-42.312 L -43.6129,-41.9989 L -43.694,-41.696
 L -43.8364,-41.4165 L -44.0337,-41.1729 L -44.2774,-40.9755 L -44.5568,-40.8331 L -44.8598,-40.752 L -45.1729,-40.7356
 z
M 44.8597,-40.752 L 44.5568,-40.8331 L 44.2774,-40.9755 L 44.0337,-41.1729 L 43.8364,-41.4165 L 43.694,-41.696
 L 43.6129,-41.9989 L 43.5965,-42.312 L 43.6455,-42.6217 L 43.7579,-42.9145 L 43.9287,-43.1775 L 44.1504,-43.3992
 L 44.4134,-43.57 L 44.7062,-43.6824 L 45.0159,-43.7314 L 45.3291,-43.715 L 45.6319,-43.6339 L 45.9114,-43.4915
 L 46.1551,-43.2942 L 46.3524,-43.0505 L 46.4948,-42.7711 L 46.5759,-42.4682 L 46.5924,-42.155 L 46.5433,-41.8453
 L 46.4309,-41.5525 L 46.2601,-41.2895 L 46.0384,-41.0678 L 45.7754,-40.897 L 45.4826,-40.7846 L 45.1729,-40.7356
 z
M 87.2862,-15.2961 L 86.9833,-15.3773 L 86.7038,-15.5197 L 86.4602,-15.717 L 86.2628,-15.9607 L 86.1204,-16.2401
 L 86.0393,-16.543 L 86.0229,-16.8562 L 86.0719,-17.1659 L 86.1843,-17.4587 L 86.3551,-17.7216 L 86.5768,-17.9434
 L 86.8398,-18.1142 L 87.1326,-18.2266 L 87.4423,-18.2756 L 87.7555,-18.2592 L 88.0584,-18.178 L 88.3378,-18.0357
 L 88.5815,-17.8383 L 88.7788,-17.5946 L 88.9212,-17.3152 L 89.0023,-17.0123 L 89.0188,-16.6992 L 88.9697,-16.3895
 L 88.8573,-16.0967 L 88.6865,-15.8337 L 88.4648,-15.612 L 88.2018,-15.4412 L 87.909,-15.3288 L 87.5993,-15.2797
 z
M -87.909,-15.3288 L -88.2018,-15.4412 L -88.4648,-15.612 L -88.6865,-15.8337 L -88.8573,-16.0967 L -88.9697,-16.3895
 L -89.0187,-16.6992 L -89.0023,-17.0123 L -88.9212,-17.3152 L -88.7788,-17.5946 L -88.5815,-17.8383 L -88.3378,-18.0357
 L -88.0584,-18.178 L -87.7555,-18.2592 L -87.4423,-18.2756 L -87.1326,-18.2266 L -86.8398,-18.1142 L -86.5768,-17.9434
 L -86.3551,-17.7216 L -86.1843,-17.4587 L -86.0719,-17.1659 L -86.0229,-16.8562 L -86.0393,-16.543 L -86.1204,-16.2401
 L -86.2628,-15.9607 L -86.4602,-15.717 L -86.7039,-15.5197 L -86.9833,-15.3773 L -87.2862,-15.2961 L -87.5993,-15.2797
 z
M -79.4238,-6.84351 L -79.7165,-6.95589 L -79.9795,-7.12668 L -80.2012,-7.34842 L -80.372,-7.6114 L -80.4844,-7.90416
 L -80.5335,-8.2139 L -80.5171,-8.52705 L -80.4359,-8.82994 L -80.2935,-9.10936 L -80.0962,-9.35306 L -79.8525,-9.5504
 L -79.5731,-9.69276 L -79.2702,-9.77393 L -78.957,-9.79034 L -78.6473,-9.74129 L -78.3545,-9.62891 L -78.0915,-9.45811
 L -77.8698,-9.23637 L -77.699,-8.97337 L -77.5866,-8.68062 L -77.5376,-8.3709 L -77.554,-8.05774 L -77.6352,-7.75484
 L -77.7775,-7.47543 L -77.9749,-7.23174 L -78.2186,-7.03439 L -78.498,-6.89203 L -78.8009,-6.81087 L -79.114,-6.79445
 z
M 78.8009,-6.81087 L 78.498,-6.89203 L 78.2186,-7.03439 L 77.9749,-7.23174 L 77.7775,-7.47543 L 77.6352,-7.75484
 L 77.554,-8.05774 L 77.5376,-8.3709 L 77.5866,-8.68062 L 77.699,-8.97337 L 77.8698,-9.23637 L 78.0915,-9.45811
 L 78.3545,-9.62891 L 78.6473,-9.74129 L 78.957,-9.79034 L 79.2702,-9.77393 L 79.5731,-9.69276 L 79.8525,-9.5504
 L 80.0962,-9.35306 L 80.2935,-9.10936 L 80.4359,-8.82994 L 80.5171,-8.52705 L 80.5335,-8.2139 L 80.4844,-7.90416
 L 80.372,-7.6114 L 80.2013,-7.34842 L 79.9795,-7.12668 L 79.7165,-6.95589 L 79.4238,-6.84351 L 79.114,-6.79445
 z
M -17.6,33 L 17.6,33 L 17.6,37 L 32.6,37 L 32.6,33 L 36.6,33
 L 36.6,-32 L 32.6,-32 L 32.6,-36 L 17.6,-36 L 17.6,-32 L -17.6,-32
 L -17.6,-36 L -32.6,-36 L -32.6,-32 L -36.6,-32 L -36.6,33 L -32.6,33
 L -32.6,37 L -17.6,37 z
M -22.5568,-22.5082 L -22.8635,-22.5734 L -23.15,-22.701 L -23.4037,-22.8853 L -23.6135,-23.1183 L -23.7703,-23.3899
 L -23.8672,-23.6881 L -23.9,-24 L -23.8672,-24.3119 L -23.7703,-24.6101 L -23.6135,-24.8817 L -23.4037,-25.1147
 L -23.15,-25.299 L -22.8635,-25.4266 L -22.5568,-25.4918 L -22.2432,-25.4918 L -21.9365,-25.4266 L -21.65,-25.299
 L -21.3963,-25.1147 L -21.1865,-24.8817 L -21.0297,-24.6101 L -20.9328,-24.3119 L -20.9,-24 L -20.9328,-23.6881
 L -21.0297,-23.3899 L -21.1865,-23.1183 L -21.3963,-22.8853 L -21.65,-22.701 L -21.9365,-22.5734 L -22.2432,-22.5082
 z
M 27.6432,-7.00821 L 27.3365,-7.07341 L 27.05,-7.20096 L 26.7963,-7.38528 L 26.5865,-7.61832 L 26.4297,-7.88989
 L 26.3328,-8.18813 L 26.3,-8.5 L 26.3328,-8.81186 L 26.4297,-9.11009 L 26.5865,-9.38167 L 26.7963,-9.61472
 L 27.05,-9.79903 L 27.3365,-9.92657 L 27.6432,-9.99178 L 27.9568,-9.99178 L 28.2635,-9.92657 L 28.55,-9.79903
 L 28.8037,-9.61472 L 29.0135,-9.38167 L 29.1703,-9.11009 L 29.2672,-8.81186 L 29.3,-8.5 L 29.2672,-8.18813
 L 29.1703,-7.88989 L 29.0135,-7.61832 L 28.8037,-7.38528 L 28.55,-7.20096 L 28.2635,-7.07341 L 27.9568,-7.00821
 z
M 27.6432,21.0918 L 27.3365,21.0266 L 27.05,20.899 L 26.7963,20.7147 L 26.5865,20.4817 L 26.4297,20.2101
 L 26.3328,19.9119 L 26.3,19.6 L 26.3328,19.2881 L 26.4297,18.9899 L 26.5865,18.7183 L 26.7963,18.4853
 L 27.05,18.301 L 27.3365,18.1734 L 27.6432,18.1082 L 27.9568,18.1082 L 28.2635,18.1734 L 28.55,18.301
 L 28.8037,18.4853 L 29.0135,18.7183 L 29.1703,18.9899 L 29.2672,19.2881 L 29.3,19.6 L 29.2672,19.9119
 L 29.1703,20.2101 L 29.0135,20.4817 L 28.8037,20.7147 L 28.55,20.899 L 28.2635,21.0266 L 27.9568,21.0918
 z
M -24.2568,25.9918 L -24.5635,25.9266 L -24.85,25.799 L -25.1037,25.6147 L -25.3135,25.3817 L -25.4703,25.1101
 L -25.5672,24.8119 L -25.6,24.5 L -25.5672,24.1881 L -25.4703,23.8899 L -25.3135,23.6183 L -25.1037,23.3853
 L -24.85,23.201 L -24.5635,23.0734 L -24.2568,23.0082 L -23.9432,23.0082 L -23.6365,23.0734 L -23.35,23.201
 L -23.0963,23.3853 L -22.8865,23.6183 L -22.7297,23.8899 L -22.6328,24.1881 L -22.6,24.5 L -22.6328,24.8119
 L -22.7297,25.1101 L -22.8865,25.3817 L -23.0963,25.6147 L -23.35,25.799 L -23.6365,25.9266 L -23.9432,25.9918
 z
M 106.4,79.989 L 106.609,79.989 L 107.018,79.9021 L 107.4,79.732 L 107.738,79.4863 L 108.018,79.1756
 L 108.227,78.8135 L 108.356,78.4158 L 108.4,78 L 108.389,6.42419 L 108.301,5.27596 L 108.124,4.13788
 L 107.861,3.01666 L 107.513,1.91895 L 107.082,0.851166 L 106.57,-0.180374 L 105.966,-1.19153 L 105.3,-2.13141
 L 104.565,-3.01749 L 103.763,-3.8445 L 102.88,-4.62416 L 101.961,-5.31723 L 100.99,-5.9377 L 99.9756,-6.4819
 L 98.9219,-6.94664 L 97.8356,-7.32916 L 96.7232,-7.62723 L 95.5912,-7.83908 L 94.4463,-7.96346 L 93.2953,-7.99963
 L 92.1448,-7.94739 L 91.0018,-7.80704 L 89.8729,-7.57941 L 88.7647,-7.26584 L 87.684,-6.86818 L 86.6368,-6.38878
 L 85.6296,-5.83046 L 84.6682,-5.1965 L 83.7382,-4.47382 L 82.8677,-3.68039 L 82.0794,-2.84088 L 81.3422,-1.92233
 L 80.6932,-0.970978 L 80.1191,0.0273743 L 79.6233,1.06682 L 79.2003,2.16602 L 78.8713,3.26965 L 78.6279,4.39528
 L 78.4716,5.53627 L 78.4033,6.68587 L 78.4,7 L 78.4,78 L 78.4437,78.4158 L 78.5729,78.8135
 L 78.782,79.1756 L 79.0617,79.4863 L 79.4,79.732 L 79.782,79.9021 L 80.191,79.989 L 80.4,79.989
 L 80.4,80 L 106.4,80 z
M 93.0864,9.98357 L 92.473,9.85316 L 91.9,9.59807 L 91.3926,9.22943 L 90.973,8.76335 L 90.6594,8.2202
 L 90.4656,7.62373 L 90.4,7 L 90.4656,6.37627 L 90.6594,5.7798 L 90.973,5.23665 L 91.3926,4.77057
 L 91.9,4.40193 L 92.473,4.14684 L 93.0864,4.01645 L 93.7136,4.01645 L 94.327,4.14684 L 94.9,4.40193
 L 95.4074,4.77057 L 95.827,5.23665 L 96.1406,5.7798 L 96.3344,6.37627 L 96.4,7 L 96.3344,7.62373
 L 96.1406,8.2202 L 95.827,8.76335 L 95.4074,9.22943 L 94.9,9.59807 L 94.327,9.85316 L 93.7136,9.98357
 z
M 99.2432,29.4918 L 98.9365,29.4266 L 98.65,29.299 L 98.3963,29.1147 L 98.1865,28.8817 L 98.0297,28.6101
 L 97.9328,28.3119 L 97.9,28 L 97.9328,27.6881 L 98.0297,27.3899 L 98.1865,27.1183 L 98.3963,26.8853
 L 98.65,26.701 L 98.9365,26.5734 L 99.2432,26.5082 L 99.5568,26.5082 L 99.8635,26.5734 L 100.15,26.701
 L 100.404,26.8853 L 100.614,27.1183 L 100.77,27.3899 L 100.867,27.6881 L 100.9,28 L 100.867,28.3119
 L 100.77,28.6101 L 100.614,28.8817 L 100.404,29.1147 L 100.15,29.299 L 99.8635,29.4266 L 99.5568,29.4918
 z
M 87.2432,29.4918 L 86.9365,29.4266 L 86.65,29.299 L 86.3963,29.1147 L 86.1865,28.8817 L 86.0297,28.6101
 L 85.9328,28.3119 L 85.9,28 L 85.9328,27.6881 L 86.0297,27.3899 L 86.1865,27.1183 L 86.3963,26.8853
 L 86.65,26.701 L 86.9365,26.5734 L 87.2432,26.5082 L 87.5568,26.5082 L 87.8635,26.5734 L 88.15,26.701
 L 88.4037,26.8853 L 88.6135,27.1183 L 88.7703,27.3899 L 88.8672,27.6881 L 88.9,28 L 88.8672,28.3119
 L 88.7703,28.6101 L 88.6135,28.8817 L 88.4037,29.1147 L 88.15,29.299 L 87.8635,29.4266 L 87.5568,29.4918
 z
M 83.4,72 L 83.4,32 L 103.4,32 L 103.4,72 z
M 87.2432,77.4918 L 86.9365,77.4266 L 86.65,77.299 L 86.3963,77.1147 L 86.1865,76.8817 L 86.0297,76.6101
 L 85.9328,76.3119 L 85.9,76 L 85.9328,75.6881 L 86.0297,75.3899 L 86.1865,75.1183 L 86.3963,74.8853
 L 86.65,74.701 L 86.9365,74.5734 L 87.2432,74.5082 L 87.5568,74.5082 L 87.8635,74.5734 L 88.15,74.701
 L 88.4037,74.8853 L 88.6135,75.1183 L 88.7703,75.3899 L 88.8672,75.6881 L 88.9,76 L 88.8672,76.3119
 L 88.7703,76.6101 L 88.6135,76.8817 L 88.4037,77.1147 L 88.15,77.299 L 87.8635,77.4266 L 87.5568,77.4918
 z
M 99.2432,77.4918 L 98.9365,77.4266 L 98.65,77.299 L 98.3963,77.1147 L 98.1865,76.8817 L 98.0297,76.6101
 L 97.9328,76.3119 L 97.9,76 L 97.9328,75.6881 L 98.0297,75.3899 L 98.1865,75.1183 L 98.3963,74.8853
 L 98.65,74.701 L 98.9365,74.5734 L 99.2432,74.5082 L 99.5568,74.5082 L 99.8635,74.5734 L 100.15,74.701
 L 100.404,74.8853 L 100.614,75.1183 L 100.77,75.3899 L 100.867,75.6881 L 100.9,76 L 100.867,76.3119
 L 100.77,76.6101 L 100.614,76.8817 L 100.404,77.1147 L 100.15,77.299 L 99.8635,77.4266 L 99.5568,77.4918
 z
M 68.4,79.989 L 68.609,79.989 L 69.018,79.9021 L 69.4,79.732 L 69.7383,79.4863 L 70.018,79.1756
 L 70.2271,78.8135 L 70.3563,78.4158 L 70.4,78 L 70.3889,6.42419 L 70.3006,5.27596 L 70.1244,4.13788
 L 69.8614,3.01666 L 69.5132,1.91895 L 69.0818,0.851166 L 68.5697,-0.180374 L 67.9658,-1.19153 L 67.3003,-2.13141
 L 66.5647,-3.01749 L 65.7632,-3.8445 L 64.8804,-4.62416 L 63.9607,-5.31723 L 62.9905,-5.9377 L 61.9756,-6.4819
 L 60.9219,-6.94664 L 59.8356,-7.32916 L 58.7232,-7.62723 L 57.5912,-7.83908 L 56.4463,-7.96346 L 55.2953,-7.99963
 L 54.1448,-7.94739 L 53.0018,-7.80704 L 51.8729,-7.57941 L 50.7647,-7.26584 L 49.684,-6.86818 L 48.6368,-6.38878
 L 47.6296,-5.83046 L 46.6682,-5.1965 L 45.7382,-4.47382 L 44.8677,-3.68039 L 44.0794,-2.84088 L 43.3422,-1.92233
 L 42.6932,-0.970978 L 42.1191,0.0273743 L 41.6233,1.06682 L 41.2003,2.16602 L 40.8713,3.26965 L 40.6279,4.39528
 L 40.4716,5.53627 L 40.4033,6.68587 L 40.4,7 L 40.4,78 L 40.4437,78.4158 L 40.5729,78.8135
 L 40.782,79.1756 L 41.0617,79.4863 L 41.4,79.732 L 41.782,79.9021 L 42.191,79.989 L 42.4,79.989
 L 42.4,80 L 68.4,80 z
M 55.0864,9.98357 L 54.473,9.85316 L 53.9,9.59807 L 53.3926,9.22943 L 52.973,8.76335 L 52.6594,8.2202
 L 52.4656,7.62373 L 52.4,7 L 52.4656,6.37627 L 52.6594,5.7798 L 52.973,5.23665 L 53.3926,4.77057
 L 53.9,4.40193 L 54.473,4.14684 L 55.0864,4.01645 L 55.7136,4.01645 L 56.327,4.14684 L 56.9,4.40193
 L 57.4074,4.77057 L 57.827,5.23665 L 58.1406,5.7798 L 58.3344,6.37627 L 58.4,7 L 58.3344,7.62373
 L 58.1406,8.2202 L 57.827,8.76335 L 57.4074,9.22943 L 56.9,9.59807 L 56.327,9.85316 L 55.7136,9.98357
 z
M 61.2432,29.4918 L 60.9365,29.4266 L 60.65,29.299 L 60.3963,29.1147 L 60.1865,28.8817 L 60.0297,28.6101
 L 59.9328,28.3119 L 59.9,28 L 59.9328,27.6881 L 60.0297,27.3899 L 60.1865,27.1183 L 60.3963,26.8853
 L 60.65,26.701 L 60.9365,26.5734 L 61.2432,26.5082 L 61.5568,26.5082 L 61.8635,26.5734 L 62.15,26.701
 L 62.4037,26.8853 L 62.6135,27.1183 L 62.7703,27.3899 L 62.8672,27.6881 L 62.9,28 L 62.8672,28.3119
 L 62.7703,28.6101 L 62.6135,28.8817 L 62.4037,29.1147 L 62.15,29.299 L 61.8635,29.4266 L 61.5568,29.4918
 z
M 49.2432,29.4918 L 48.9365,29.4266 L 48.65,29.299 L 48.3963,29.1147 L 48.1865,28.8817 L 48.0297,28.6101
 L 47.9328,28.3119 L 47.9,28 L 47.9328,27.6881 L 48.0297,27.3899 L 48.1865,27.1183 L 48.3963,26.8853
 L 48.65,26.701 L 48.9365,26.5734 L 49.2432,26.5082 L 49.5568,26.5082 L 49.8635,26.5734 L 50.15,26.701
 L 50.4037,26.8853 L 50.6135,27.1183 L 50.7703,27.3899 L 50.8672,27.6881 L 50.9,28 L 50.8672,28.3119
 L 50.7703,28.6101 L 50.6135,28.8817 L 50.4037,29.1147 L 50.15,29.299 L 49.8635,29.4266 L 49.5568,29.4918
 z
M 45.4,72 L 45.4,32 L 65.4,32 L 65.4,72 z
M 49.2432,77.4918 L 48.9365,77.4266 L 48.65,77.299 L 48.3963,77.1147 L 48.1865,76.8817 L 48.0297,76.6101
 L 47.9328,76.3119 L 47.9,76 L 47.9328,75.6881 L 48.0297,75.3899 L 48.1865,75.1183 L 48.3963,74.8853
 L 48.65,74.701 L 48.9365,74.5734 L 49.2432,74.5082 L 49.5568,74.5082 L 49.8635,74.5734 L 50.15,74.701
 L 50.4037,74.8853 L 50.6135,75.1183 L 50.7703,75.3899 L 50.8672,75.6881 L 50.9,76 L 50.8672,76.3119
 L 50.7703,76.6101 L 50.6135,76.8817 L 50.4037,77.1147 L 50.15,77.299 L 49.8635,77.4266 L 49.5568,77.4918
 z
M 61.2432,77.4918 L 60.9365,77.4266 L 60.65,77.299 L 60.3963,77.1147 L 60.1865,76.8817 L 60.0297,76.6101
 L 59.9328,76.3119 L 59.9,76 L 59.9328,75.6881 L 60.0297,75.3899 L 60.1865,75.1183 L 60.3963,74.8853
 L 60.65,74.701 L 60.9365,74.5734 L 61.2432,74.5082 L 61.5568,74.5082 L 61.8635,74.5734 L 62.15,74.701
 L 62.4037,74.8853 L 62.6135,75.1183 L 62.7703,75.3899 L 62.8672,75.6881 L 62.9,76 L 62.8672,76.3119
 L 62.7703,76.6101 L 62.6135,76.8817 L 62.4037,77.1147 L 62.15,77.299 L 61.8635,77.4266 L 61.5568,77.4918
 z
M -80.6,79.989 L -80.391,79.989 L -79.982,79.9021 L -79.6,79.732 L -79.2617,79.4863 L -78.982,79.1756
 L -78.7729,78.8135 L -78.6437,78.4158 L -78.6,78 L -78.6111,6.42419 L -78.6994,5.27596 L -78.8756,4.13788
 L -79.1386,3.01666 L -79.4868,1.91895 L -79.9182,0.851166 L -80.4303,-0.180374 L -81.0342,-1.19153 L -81.6997,-2.13141
 L -82.4353,-3.01749 L -83.2368,-3.8445 L -84.1196,-4.62416 L -85.0393,-5.31723 L -86.0095,-5.9377 L -87.0244,-6.4819
 L -88.0781,-6.94664 L -89.1644,-7.32916 L -90.2768,-7.62723 L -91.4088,-7.83908 L -92.5537,-7.96346 L -93.7047,-7.99963
 L -94.8552,-7.94739 L -95.9982,-7.80704 L -97.1271,-7.57941 L -98.2353,-7.26584 L -99.316,-6.86818 L -100.363,-6.38878
 L -101.37,-5.83046 L -102.332,-5.1965 L -103.262,-4.47382 L -104.132,-3.68039 L -104.921,-2.84088 L -105.658,-1.92233
 L -106.307,-0.970978 L -106.881,0.0273743 L -107.377,1.06682 L -107.8,2.16602 L -108.129,3.26965 L -108.372,4.39528
 L -108.528,5.53627 L -108.597,6.68587 L -108.6,7 L -108.6,78 L -108.556,78.4158 L -108.427,78.8135
 L -108.218,79.1756 L -107.938,79.4863 L -107.6,79.732 L -107.218,79.9021 L -106.809,79.989 L -106.6,79.989
 L -106.6,80 L -80.6,80 z
M -93.9136,9.98357 L -94.527,9.85316 L -95.1,9.59807 L -95.6074,9.22943 L -96.027,8.76335 L -96.3406,8.2202
 L -96.5344,7.62373 L -96.6,7 L -96.5344,6.37627 L -96.3406,5.7798 L -96.027,5.23665 L -95.6074,4.77057
 L -95.1,4.40193 L -94.527,4.14684 L -93.9136,4.01645 L -93.2864,4.01645 L -92.673,4.14684 L -92.1,4.40193
 L -91.5926,4.77057 L -91.173,5.23665 L -90.8594,5.7798 L -90.6656,6.37627 L -90.6,7 L -90.6656,7.62373
 L -90.8594,8.2202 L -91.173,8.76335 L -91.5926,9.22943 L -92.1,9.59807 L -92.673,9.85316 L -93.2864,9.98357
 z
M -99.7568,29.4918 L -100.064,29.4266 L -100.35,29.299 L -100.604,29.1147 L -100.814,28.8817 L -100.97,28.6101
 L -101.067,28.3119 L -101.1,28 L -101.067,27.6881 L -100.97,27.3899 L -100.814,27.1183 L -100.604,26.8853
 L -100.35,26.701 L -100.064,26.5734 L -99.7568,26.5082 L -99.4432,26.5082 L -99.1365,26.5734 L -98.85,26.701
 L -98.5963,26.8853 L -98.3865,27.1183 L -98.2297,27.3899 L -98.1328,27.6881 L -98.1,28 L -98.1328,28.3119
 L -98.2297,28.6101 L -98.3865,28.8817 L -98.5963,29.1147 L -98.85,29.299 L -99.1365,29.4266 L -99.4432,29.4918
 z
M -87.7568,29.4918 L -88.0635,29.4266 L -88.35,29.299 L -88.6037,29.1147 L -88.8135,28.8817 L -88.9703,28.6101
 L -89.0672,28.3119 L -89.1,28 L -89.0672,27.6881 L -88.9703,27.3899 L -88.8135,27.1183 L -88.6037,26.8853
 L -88.35,26.701 L -88.0635,26.5734 L -87.7568,26.5082 L -87.4432,26.5082 L -87.1365,26.5734 L -86.85,26.701
 L -86.5963,26.8853 L -86.3865,27.1183 L -86.2297,27.3899 L -86.1328,27.6881 L -86.1,28 L -86.1328,28.3119
 L -86.2297,28.6101 L -86.3865,28.8817 L -86.5963,29.1147 L -86.85,29.299 L -87.1365,29.4266 L -87.4432,29.4918
 z
M -103.6,72 L -103.6,32 L -83.6,32 L -83.6,72 z
M -87.7568,77.4918 L -88.0635,77.4266 L -88.35,77.299 L -88.6037,77.1147 L -88.8135,76.8817 L -88.9703,76.6101
 L -89.0672,76.3119 L -89.1,76 L -89.0672,75.6881 L -88.9703,75.3899 L -88.8135,75.1183 L -88.6037,74.8853
 L -88.35,74.701 L -88.0635,74.5734 L -87.7568,74.5082 L -87.4432,74.5082 L -87.1365,74.5734 L -86.85,74.701
 L -86.5963,74.8853 L -86.3865,75.1183 L -86.2297,75.3899 L -86.1328,75.6881 L -86.1,76 L -86.1328,76.3119
 L -86.2297,76.6101 L -86.3865,76.8817 L -86.5963,77.1147 L -86.85,77.299 L -87.1365,77.4266 L -87.4432,77.4918
 z
M -99.7568,77.4918 L -100.064,77.4266 L -100.35,77.299 L -100.604,77.1147 L -100.814,76.8817 L -100.97,76.6101
 L -101.067,76.3119 L -101.1,76 L -101.067,75.6881 L -100.97,75.3899 L -100.814,75.1183 L -100.604,74.8853
 L -100.35,74.701 L -100.064,74.5734 L -99.7568,74.5082 L -99.4432,74.5082 L -99.1365,74.5734 L -98.85,74.701
 L -98.5963,74.8853 L -98.3865,75.1183 L -98.2297,75.3899 L -98.1328,75.6881 L -98.1,76 L -98.1328,76.3119
 L -98.2297,76.6101 L -98.3865,76.8817 L -98.5963,77.1147 L -98.85,77.299 L -99.1365,77.4266 L -99.4432,77.4918
 z
M -43.6,79.989 L -43.391,79.989 L -42.982,79.9021 L -42.6,79.732 L -42.2617,79.4863 L -41.982,79.1756
 L -41.7729,78.8135 L -41.6437,78.4158 L -41.6,78 L -41.6111,6.42419 L -41.6994,5.27596 L -41.8756,4.13788
 L -42.1386,3.01666 L -42.4868,1.91895 L -42.9182,0.851166 L -43.4303,-0.180374 L -44.0342,-1.19153 L -44.6997,-2.13141
 L -45.4353,-3.01749 L -46.2368,-3.8445 L -47.1196,-4.62416 L -48.0393,-5.31723 L -49.0095,-5.9377 L -50.0244,-6.4819
 L -51.0781,-6.94664 L -52.1644,-7.32916 L -53.2768,-7.62723 L -54.4088,-7.83908 L -55.5537,-7.96346 L -56.7047,-7.99963
 L -57.8552,-7.94739 L -58.9982,-7.80704 L -60.1271,-7.57941 L -61.2353,-7.26584 L -62.316,-6.86818 L -63.3632,-6.38878
 L -64.3704,-5.83046 L -65.3318,-5.1965 L -66.2618,-4.47382 L -67.1323,-3.68039 L -67.9206,-2.84088 L -68.6578,-1.92233
 L -69.3068,-0.970978 L -69.8809,0.0273743 L -70.3767,1.06682 L -70.7997,2.16602 L -71.1287,3.26965 L -71.3721,4.39528
 L -71.5284,5.53627 L -71.5967,6.68587 L -71.6,7 L -71.6,78 L -71.5563,78.4158 L -71.4271,78.8135
 L -71.218,79.1756 L -70.9383,79.4863 L -70.6,79.732 L -70.218,79.9021 L -69.809,79.989 L -69.6,79.989
 L -69.6,80 L -43.6,80 z
M -56.9136,9.98357 L -57.527,9.85316 L -58.1,9.59807 L -58.6074,9.22943 L -59.027,8.76335 L -59.3406,8.2202
 L -59.5344,7.62373 L -59.6,7 L -59.5344,6.37627 L -59.3406,5.7798 L -59.027,5.23665 L -58.6074,4.77057
 L -58.1,4.40193 L -57.527,4.14684 L -56.9136,4.01645 L -56.2864,4.01645 L -55.673,4.14684 L -55.1,4.40193
 L -54.5926,4.77057 L -54.173,5.23665 L -53.8594,5.7798 L -53.6656,6.37627 L -53.6,7 L -53.6656,7.62373
 L -53.8594,8.2202 L -54.173,8.76335 L -54.5926,9.22943 L -55.1,9.59807 L -55.673,9.85316 L -56.2864,9.98357
 z
M -62.7568,29.4918 L -63.0635,29.4266 L -63.35,29.299 L -63.6037,29.1147 L -63.8135,28.8817 L -63.9703,28.6101
 L -64.0672,28.3119 L -64.1,28 L -64.0672,27.6881 L -63.9703,27.3899 L -63.8135,27.1183 L -63.6037,26.8853
 L -63.35,26.701 L -63.0635,26.5734 L -62.7568,26.5082 L -62.4432,26.5082 L -62.1365,26.5734 L -61.85,26.701
 L -61.5963,26.8853 L -61.3865,27.1183 L -61.2297,27.3899 L -61.1328,27.6881 L -61.1,28 L -61.1328,28.3119
 L -61.2297,28.6101 L -61.3865,28.8817 L -61.5963,29.1147 L -61.85,29.299 L -62.1365,29.4266 L -62.4432,29.4918
 z
M -50.7568,29.4918 L -51.0635,29.4266 L -51.35,29.299 L -51.6037,29.1147 L -51.8135,28.8817 L -51.9703,28.6101
 L -52.0672,28.3119 L -52.1,28 L -52.0672,27.6881 L -51.9703,27.3899 L -51.8135,27.1183 L -51.6037,26.8853
 L -51.35,26.701 L -51.0635,26.5734 L -50.7568,26.5082 L -50.4432,26.5082 L -50.1365,26.5734 L -49.85,26.701
 L -49.5963,26.8853 L -49.3865,27.1183 L -49.2297,27.3899 L -49.1328,27.6881 L -49.1,28 L -49.1328,28.3119
 L -49.2297,28.6101 L -49.3865,28.8817 L -49.5963,29.1147 L -49.85,29.299 L -50.1365,29.4266 L -50.4432,29.4918
 z
M -66.6,72 L -66.6,32 L -46.6,32 L -46.6,72 z
M -50.7568,77.4918 L -51.0635,77.4266 L -51.35,77.299 L -51.6037,77.1147 L -51.8135,76.8817 L -51.9703,76.6101
 L -52.0672,76.3119 L -52.1,76 L -52.0672,75.6881 L -51.9703,75.3899 L -51.8135,75.1183 L -51.6037,74.8853
 L -51.35,74.701 L -51.0635,74.5734 L -50.7568,74.5082 L -50.4432,74.5082 L -50.1365,74.5734 L -49.85,74.701
 L -49.5963,74.8853 L -49.3865,75.1183 L -49.2297,75.3899 L -49.1328,75.6881 L -49.1,76 L -49.1328,76.3119
 L -49.2297,76.6101 L -49.3865,76.8817 L -49.5963,77.1147 L -49.85,77.299 L -50.1365,77.4266 L -50.4432,77.4918
 z
M -62.7568,77.4918 L -63.0635,77.4266 L -63.35,77.299 L -63.6037,77.1147 L -63.8135,76.8817 L -63.9703,76.6101
 L -64.0672,76.3119 L -64.1,76 L -64.0672,75.6881 L -63.9703,75.3899 L -63.8135,75.1183 L -63.6037,74.8853
 L -63.35,74.701 L -63.0635,74.5734 L -62.7568,74.5082 L -62.4432,74.5082 L -62.1365,74.5734 L -61.85,74.701
 L -61.5963,74.8853 L -61.3865,75.1183 L -61.2297,75.3899 L -61.1328,75.6881 L -61.1,76 L -61.1328,76.3119
 L -61.2297,76.6101 L -61.3865,76.8817 L -61.5963,77.1147 L -61.85,77.299 L -62.1365,77.4266 L -62.4432,77.4918
 z
M 32.4,108 L 36.4,108 L 36.4,43 L 32.4,43 L 32.4,39 L -32.6,39
 L -32.6,43 L -36.6,43 L -36.6,108 L -32.6,108 L -32.6,112 L 32.4,112
 z
M -22.5568,52.4918 L -22.8635,52.4266 L -23.15,52.299 L -23.4037,52.1147 L -23.6135,51.8817 L -23.7703,51.6101
 L -23.8672,51.3119 L -23.9,51 L -23.8672,50.6881 L -23.7703,50.3899 L -23.6135,50.1183 L -23.4037,49.8853
 L -23.15,49.701 L -22.8635,49.5734 L -22.5568,49.5082 L -22.2432,49.5082 L -21.9365,49.5734 L -21.65,49.701
 L -21.3963,49.8853 L -21.1865,50.1183 L -21.0297,50.3899 L -20.9328,50.6881 L -20.9,51 L -20.9328,51.3119
 L -21.0297,51.6101 L -21.1865,51.8817 L -21.3963,52.1147 L -21.65,52.299 L -21.9365,52.4266 L -22.2432,52.4918
 z
M 27.6432,67.9918 L 27.3365,67.9266 L 27.05,67.799 L 26.7963,67.6147 L 26.5865,67.3817 L 26.4297,67.1101
 L 26.3328,66.8119 L 26.3,66.5 L 26.3328,66.1881 L 26.4297,65.8899 L 26.5865,65.6183 L 26.7963,65.3853
 L 27.05,65.201 L 27.3365,65.0734 L 27.6432,65.0082 L 27.9568,65.0082 L 28.2635,65.0734 L 28.55,65.201
 L 28.8037,65.3853 L 29.0135,65.6183 L 29.1703,65.8899 L 29.2672,66.1881 L 29.3,66.5 L 29.2672,66.8119
 L 29.1703,67.1101 L 29.0135,67.3817 L 28.8037,67.6147 L 28.55,67.799 L 28.2635,67.9266 L 27.9568,67.9918
 z
M 27.6432,96.0918 L 27.3365,96.0266 L 27.05,95.899 L 26.7963,95.7147 L 26.5865,95.4817 L 26.4297,95.2101
 L 26.3328,94.9119 L 26.3,94.6 L 26.3328,94.2881 L 26.4297,93.9899 L 26.5865,93.7183 L 26.7963,93.4853
 L 27.05,93.301 L 27.3365,93.1734 L 27.6432,93.1082 L 27.9568,93.1082 L 28.2635,93.1734 L 28.55,93.301
 L 28.8037,93.4853 L 29.0135,93.7183 L 29.1703,93.9899 L 29.2672,94.2881 L 29.3,94.6 L 29.2672,94.9119
 L 29.1703,95.2101 L 29.0135,95.4817 L 28.8037,95.7147 L 28.55,95.899 L 28.2635,96.0266 L 27.9568,96.0918
 z
M -24.2568,100.992 L -24.5635,100.927 L -24.85,100.799 L -25.1037,100.615 L -25.3135,100.382 L -25.4703,100.11
 L -25.5672,99.8119 L -25.6,99.5 L -25.5672,99.1881 L -25.4703,98.8899 L -25.3135,98.6183 L -25.1037,98.3853
 L -24.85,98.201 L -24.5635,98.0734 L -24.2568,98.0082 L -23.9432,98.0082 L -23.6365,98.0734 L -23.35,98.201
 L -23.0963,98.3853 L -22.8865,98.6183 L -22.7297,98.8899 L -22.6328,99.1881 L -22.6,99.5 L -22.6328,99.8119
 L -22.7297,100.11 L -22.8865,100.382 L -23.0963,100.615 L -23.35,100.799 L -23.6365,100.927 L -23.9432,100.992
 z
M 18.1057,138.788 L 18.6911,138.673 L 19.0837,138.561 L 88.5549,116.086 L 89.6442,115.639 L 90.6721,115.119
 L 91.6572,114.523 L 92.6143,113.836 L 93.4952,113.094 L 94.3166,112.287 L 95.0736,111.419 L 95.7619,110.496
 L 96.3773,109.523 L 96.9275,108.481 L 97.3848,107.424 L 97.7673,106.31 L 98.0557,105.195 L 98.2576,104.062
 L 98.372,102.916 L 98.3981,101.764 L 98.3359,100.614 L 98.1855,99.4726 L 97.9481,98.3458 L 97.6248,97.2404
 L 97.2076,96.139 L 96.7052,95.0738 L 96.1346,94.0734 L 95.4889,93.1198 L 94.772,92.2185 L 93.9881,91.3749
 L 93.1417,90.5939 L 92.2168,89.8647 L 91.2375,89.2104 L 90.2332,88.6468 L 89.1644,88.1518 L 88.085,87.7504
 L 86.978,87.433 L 85.8499,87.2014 L 84.6812,87.0548 L 83.5309,87.0006 L 82.3798,87.0347 L 81.2087,87.1609
 L 80.0512,87.3786 L 78.9394,87.6786 L 77.8295,88.0727 L 76.7774,88.5411 L 75.7644,89.0889 L 75.429,89.2932
 L 13.8152,127.924 L 13.2638,128.357 L 12.8088,128.805 L 12.3793,129.333 L 11.9666,129.988 L 11.7165,130.507
 L 11.5048,131.087 L 11.3558,131.675 L 11.2702,132.245 L 11.2395,132.841 L 11.2682,133.437 L 11.3706,134.099
 L 11.5141,134.645 L 11.8468,135.481 L 12.1848,136.084 L 12.6098,136.668 L 13.0043,137.101 L 13.4392,137.494
 L 14.0511,137.934 L 14.7038,138.289 L 15.3158,138.534 L 15.9511,138.711 L 16.7166,138.828 L 17.3338,138.85
 z
M 82.8276,104.945 L 82.2278,104.762 L 81.6793,104.457 L 81.2059,104.046 L 80.8285,103.545 L 80.5635,102.977
 L 80.4224,102.366 L 80.4114,101.739 L 80.5311,101.123 L 80.7761,100.546 L 81.1359,100.032 L 81.5945,99.6041
 L 82.1321,99.2811 L 82.7251,99.0769 L 83.3476,99.0005 L 83.9724,99.0551 L 84.5722,99.2385 L 85.1207,99.5426
 L 85.594,99.954 L 85.9715,100.455 L 86.2365,101.023 L 86.3776,101.634 L 86.3886,102.261 L 86.2689,102.877
 L 86.0238,103.454 L 85.6641,103.968 L 85.2054,104.396 L 84.6679,104.719 L 84.0748,104.923 L 83.4524,105
 z
M -17.0106,138.836 L -16.2433,138.731 L -15.6853,138.589 L -15.1048,138.378 L -14.5582,138.114 L -14.067,137.814
 L -13.5908,137.454 L -13.1527,137.049 L -12.7115,136.545 L -12.3848,136.084 L -11.9583,135.292 L -11.7141,134.645
 L -11.54,133.945 L -11.4615,133.364 L -11.44,132.778 L -11.4965,132.026 L -11.644,131.298 L -11.8494,130.672
 L -12.1223,130.071 L -12.5246,129.41 L -12.9044,128.923 L -13.4482,128.371 L -13.9128,127.997 L -14.2512,127.768
 L -76.1227,88.9965 L -77.166,88.45 L -78.2245,87.9963 L -79.3147,87.6252 L -80.4557,87.3333 L -81.5902,87.1353
 L -82.7365,87.0249 L -83.8879,87.0028 L -85.0377,87.0691 L -86.1789,87.2234 L -87.3303,87.4713 L -88.434,87.8003
 L -89.5332,88.2233 L -90.5726,88.7191 L -91.571,89.2932 L -92.5223,89.9421 L -93.4211,90.6622 L -94.262,91.4491
 L -95.04,92.2982 L -95.7506,93.2044 L -96.3896,94.1625 L -96.9651,95.1901 L -97.4582,96.2597 L -97.8577,97.3398
 L -98.1732,98.4474 L -98.4028,99.5759 L -98.5452,100.719 L -98.5994,101.869 L -98.5635,103.046 L -98.4352,104.217
 L -98.2214,105.349 L -97.9136,106.486 L -97.5273,107.571 L -97.0589,108.623 L -96.5111,109.636 L -95.8722,110.625
 L -95.1744,111.541 L -94.4083,112.401 L -93.5589,113.217 L -92.6481,113.964 L -91.7036,114.623 L -90.6882,115.22
 L -89.6532,115.724 L -88.5824,116.148 L -88.2103,116.274 L -19.0127,138.641 L -18.3264,138.785 L -17.6908,138.846
 z
M -84.2748,104.923 L -84.8679,104.719 L -85.4054,104.396 L -85.8641,103.968 L -86.2238,103.454 L -86.4689,102.877
 L -86.5886,102.261 L -86.5776,101.634 L -86.4365,101.023 L -86.1715,100.455 L -85.794,99.954 L -85.3207,99.5425
 L -84.7722,99.2385 L -84.1724,99.0551 L -83.5476,99.0005 L -82.9251,99.0769 L -82.3321,99.2811 L -81.7945,99.6041
 L -81.3359,100.032 L -80.9761,100.546 L -80.7311,101.123 L -80.6114,101.739 L -80.6224,102.366 L -80.7635,102.977
 L -81.0285,103.545 L -81.4059,104.046 L -81.8793,104.457 L -82.4278,104.762 L -83.0276,104.945 L -83.6524,105
 z
" stroke="black" fill="lightgray" stroke-width="0.5"/></svg>
