  0
SECTION
  2
BLOCKS
  0
ENDSEC
  0
SECTION
  2
ENTITIES
  0
LINE
  8
0
 10
-95.6771
 20
74.5381
 11
-95.0309
 21
74.669
  0
LINE
  8
0
 10
-95.0309
 20
74.669
 11
-94.2956
 21
74.9121
  0
LINE
  8
0
 10
-94.2956
 20
74.9121
 11
-93.7357
 21
75.1726
  0
LINE
  8
0
 10
-93.7357
 20
75.1726
 11
-93.0761
 21
75.5784
  0
LINE
  8
0
 10
-93.0761
 20
75.5784
 11
-92.6069
 21
75.947
  0
LINE
  8
0
 10
-92.6069
 20
75.947
 11
-92.3081
 21
76.2252
  0
LINE
  8
0
 10
-92.3081
 20
76.2252
 11
-40.6119
 21
127.789
  0
LINE
  8
0
 10
-40.6119
 20
127.789
 11
-39.8446
 21
128.683
  0
LINE
  8
0
 10
-39.8446
 20
128.683
 11
-39.1644
 21
129.612
  0
LINE
  8
0
 10
-39.1644
 20
129.612
 11
-38.5576
 21
130.591
  0
LINE
  8
0
 10
-38.5576
 20
130.591
 11
-38.0165
 21
131.637
  0
LINE
  8
0
 10
-38.0165
 20
131.637
 11
-37.5683
 21
132.698
  0
LINE
  8
0
 10
-37.5683
 20
132.698
 11
-37.2029
 21
133.79
  0
LINE
  8
0
 10
-37.2029
 20
133.79
 11
-36.9224
 21
134.907
  0
LINE
  8
0
 10
-36.9224
 20
134.907
 11
-36.7283
 21
136.042
  0
LINE
  8
0
 10
-36.7283
 20
136.042
 11
-36.6219
 21
137.189
  0
LINE
  8
0
 10
-36.6219
 20
137.189
 11
-36.6045
 21
138.366
  0
LINE
  8
0
 10
-36.6045
 20
138.366
 11
-36.6768
 21
139.516
  0
LINE
  8
0
 10
-36.6768
 20
139.516
 11
-36.8417
 21
140.682
  0
LINE
  8
0
 10
-36.8417
 20
140.682
 11
-37.091
 21
141.806
  0
LINE
  8
0
 10
-37.091
 20
141.806
 11
-37.4258
 21
142.908
  0
LINE
  8
0
 10
-37.4258
 20
142.908
 11
-37.8441
 21
143.981
  0
LINE
  8
0
 10
-37.8441
 20
143.981
 11
-38.3435
 21
145.019
  0
LINE
  8
0
 10
-38.3435
 20
145.019
 11
-38.9211
 21
146.015
  0
LINE
  8
0
 10
-38.9211
 20
146.015
 11
-39.5734
 21
146.964
  0
LINE
  8
0
 10
-39.5734
 20
146.964
 11
-40.2965
 21
147.861
  0
LINE
  8
0
 10
-40.2965
 20
147.861
 11
-41.0864
 21
148.699
  0
LINE
  8
0
 10
-41.0864
 20
148.699
 11
-41.9582
 21
149.491
  0
LINE
  8
0
 10
-41.9582
 20
149.491
 11
-42.8894
 21
150.212
  0
LINE
  8
0
 10
-42.8894
 20
150.212
 11
-43.852
 21
150.844
  0
LINE
  8
0
 10
-43.852
 20
150.844
 11
-44.8602
 21
151.401
  0
LINE
  8
0
 10
-44.8602
 20
151.401
 11
-45.9082
 21
151.878
  0
LINE
  8
0
 10
-45.9082
 20
151.878
 11
-46.9896
 21
152.274
  0
LINE
  8
0
 10
-46.9896
 20
152.274
 11
-48.0983
 21
152.586
  0
LINE
  8
0
 10
-48.0983
 20
152.586
 11
-49.2535
 21
152.815
  0
LINE
  8
0
 10
-49.2535
 20
152.815
 11
-50.4231
 21
152.954
  0
LINE
  8
0
 10
-50.4231
 20
152.954
 11
-51.5738
 21
153
  0
LINE
  8
0
 10
-51.5738
 20
153
 11
-52.7508
 21
152.956
  0
LINE
  8
0
 10
-52.7508
 20
152.956
 11
-53.8948
 21
152.823
  0
LINE
  8
0
 10
-53.8948
 20
152.823
 11
-55.0253
 21
152.604
  0
LINE
  8
0
 10
-55.0253
 20
152.604
 11
-56.1355
 21
152.298
  0
LINE
  8
0
 10
-56.1355
 20
152.298
 11
-57.2434
 21
151.898
  0
LINE
  8
0
 10
-57.2434
 20
151.898
 11
-58.293
 21
151.424
  0
LINE
  8
0
 10
-58.293
 20
151.424
 11
-59.3031
 21
150.871
  0
LINE
  8
0
 10
-59.3031
 20
150.871
 11
-60.2892
 21
150.227
  0
LINE
  8
0
 10
-60.2892
 20
150.227
 11
-61.2217
 21
149.507
  0
LINE
  8
0
 10
-61.2217
 20
149.507
 11
-62.0762
 21
148.735
  0
LINE
  8
0
 10
-62.0762
 20
148.735
 11
-62.8862
 21
147.88
  0
LINE
  8
0
 10
-62.8862
 20
147.88
 11
-63.611
 21
146.985
  0
LINE
  8
0
 10
-63.611
 20
146.985
 11
-64.2649
 21
146.037
  0
LINE
  8
0
 10
-64.2649
 20
146.037
 11
-64.471
 21
145.703
  0
LINE
  8
0
 10
-64.471
 20
145.703
 11
-101.831
 21
83.3105
  0
LINE
  8
0
 10
-101.831
 20
83.3105
 11
-102.126
 21
82.6742
  0
LINE
  8
0
 10
-102.126
 20
82.6742
 11
-102.328
 21
82.0685
  0
LINE
  8
0
 10
-102.328
 20
82.0685
 11
-102.471
 21
81.4035
  0
LINE
  8
0
 10
-102.471
 20
81.4035
 11
-102.541
 21
80.6323
  0
LINE
  8
0
 10
-102.541
 20
80.6323
 11
-102.529
 21
80.0567
  0
LINE
  8
0
 10
-102.529
 20
80.0567
 11
-102.454
 21
79.4436
  0
LINE
  8
0
 10
-102.454
 20
79.4436
 11
-102.319
 21
78.8516
  0
LINE
  8
0
 10
-102.319
 20
78.8516
 11
-102.137
 21
78.3055
  0
LINE
  8
0
 10
-102.137
 20
78.3055
 11
-101.894
 21
77.7606
  0
LINE
  8
0
 10
-101.894
 20
77.7606
 11
-101.598
 21
77.2426
  0
LINE
  8
0
 10
-101.598
 20
77.2426
 11
-101.206
 21
76.6993
  0
LINE
  8
0
 10
-101.206
 20
76.6993
 11
-100.83
 21
76.2772
  0
LINE
  8
0
 10
-100.83
 20
76.2772
 11
-100.154
 21
75.6834
  0
LINE
  8
0
 10
-100.154
 20
75.6834
 11
-99.5795
 21
75.3001
  0
LINE
  8
0
 10
-99.5795
 20
75.3001
 11
-98.9358
 21
74.9729
  0
LINE
  8
0
 10
-98.9358
 20
74.9729
 11
-98.3874
 21
74.7656
  0
LINE
  8
0
 10
-98.3874
 20
74.7656
 11
-97.8215
 21
74.6129
  0
LINE
  8
0
 10
-97.8215
 20
74.6129
 11
-97.0767
 21
74.499
  0
LINE
  8
0
 10
-97.0767
 20
74.499
 11
-96.3339
 21
74.4789
  0
LINE
  8
0
 10
-96.3339
 20
74.4789
 11
-95.6771
 21
74.5381
  0
LINE
  8
0
 10
-52.0175
 20
135.029
 11
-52.626
 21
135.181
  0
LINE
  8
0
 10
-52.626
 20
135.181
 11
-53.1897
 21
135.456
  0
LINE
  8
0
 10
-53.1897
 20
135.456
 11
-53.684
 21
135.842
  0
LINE
  8
0
 10
-53.684
 20
135.842
 11
-54.0871
 21
136.322
  0
LINE
  8
0
 10
-54.0871
 20
136.322
 11
-54.3815
 21
136.876
  0
LINE
  8
0
 10
-54.3815
 20
136.876
 11
-54.5544
 21
137.479
  0
LINE
  8
0
 10
-54.5544
 20
137.479
 11
-54.5982
 21
138.105
  0
LINE
  8
0
 10
-54.5982
 20
138.105
 11
-54.5109
 21
138.726
  0
LINE
  8
0
 10
-54.5109
 20
138.726
 11
-54.2964
 21
139.315
  0
LINE
  8
0
 10
-54.2964
 20
139.315
 11
-53.964
 21
139.847
  0
LINE
  8
0
 10
-53.964
 20
139.847
 11
-53.5283
 21
140.298
  0
LINE
  8
0
 10
-53.5283
 20
140.298
 11
-53.0084
 21
140.649
  0
LINE
  8
0
 10
-53.0084
 20
140.649
 11
-52.4269
 21
140.884
  0
LINE
  8
0
 10
-52.4269
 20
140.884
 11
-51.8093
 21
140.993
  0
LINE
  8
0
 10
-51.8093
 20
140.993
 11
-51.1825
 21
140.971
  0
LINE
  8
0
 10
-51.1825
 20
140.971
 11
-50.5739
 21
140.819
  0
LINE
  8
0
 10
-50.5739
 20
140.819
 11
-50.0102
 21
140.544
  0
LINE
  8
0
 10
-50.0102
 20
140.544
 11
-49.516
 21
140.158
  0
LINE
  8
0
 10
-49.516
 20
140.158
 11
-49.1129
 21
139.678
  0
LINE
  8
0
 10
-49.1129
 20
139.678
 11
-48.8184
 21
139.124
  0
LINE
  8
0
 10
-48.8184
 20
139.124
 11
-48.6456
 21
138.521
  0
LINE
  8
0
 10
-48.6456
 20
138.521
 11
-48.6018
 21
137.895
  0
LINE
  8
0
 10
-48.6018
 20
137.895
 11
-48.6891
 21
137.274
  0
LINE
  8
0
 10
-48.6891
 20
137.274
 11
-48.9036
 21
136.685
  0
LINE
  8
0
 10
-48.9036
 20
136.685
 11
-49.236
 21
136.153
  0
LINE
  8
0
 10
-49.236
 20
136.153
 11
-49.6716
 21
135.702
  0
LINE
  8
0
 10
-49.6716
 20
135.702
 11
-50.1916
 21
135.351
  0
LINE
  8
0
 10
-50.1916
 20
135.351
 11
-50.7731
 21
135.116
  0
LINE
  8
0
 10
-50.7731
 20
135.116
 11
-51.3907
 21
135.007
  0
LINE
  8
0
 10
-51.3907
 20
135.007
 11
-52.0175
 21
135.029
  0
LINE
  8
0
 10
99.0953
 20
74.5225
 11
99.6828
 21
74.6266
  0
LINE
  8
0
 10
99.6828
 20
74.6266
 11
100.257
 21
74.7886
  0
LINE
  8
0
 10
100.257
 20
74.7886
 11
100.879
 21
75.0374
  0
LINE
  8
0
 10
100.879
 20
75.0374
 11
101.379
 21
75.3001
  0
LINE
  8
0
 10
101.379
 20
75.3001
 11
102.119
 21
75.8123
  0
LINE
  8
0
 10
102.119
 20
75.8123
 11
102.63
 21
76.2772
  0
LINE
  8
0
 10
102.63
 20
76.2772
 11
103.103
 21
76.8226
  0
LINE
  8
0
 10
103.103
 20
76.8226
 11
103.437
 21
77.3046
  0
LINE
  8
0
 10
103.437
 20
77.3046
 11
103.722
 21
77.8168
  0
LINE
  8
0
 10
103.722
 20
77.8168
 11
104.013
 21
78.5119
  0
LINE
  8
0
 10
104.013
 20
78.5119
 11
104.212
 21
79.2277
  0
LINE
  8
0
 10
104.212
 20
79.2277
 11
104.314
 21
79.8793
  0
LINE
  8
0
 10
104.314
 20
79.8793
 11
104.343
 21
80.538
  0
LINE
  8
0
 10
104.343
 20
80.538
 11
104.285
 21
81.3102
  0
LINE
  8
0
 10
104.285
 20
81.3102
 11
104.168
 21
81.9166
  0
LINE
  8
0
 10
104.168
 20
81.9166
 11
103.933
 21
82.6547
  0
LINE
  8
0
 10
103.933
 20
82.6547
 11
103.689
 21
83.1991
  0
LINE
  8
0
 10
103.689
 20
83.1991
 11
103.492
 21
83.5564
  0
LINE
  8
0
 10
103.492
 20
83.5564
 11
65.9658
 21
146.192
  0
LINE
  8
0
 10
65.9658
 20
146.192
 11
65.2843
 21
147.152
  0
LINE
  8
0
 10
65.2843
 20
147.152
 11
64.5472
 21
148.037
  0
LINE
  8
0
 10
64.5472
 20
148.037
 11
63.7443
 21
148.863
  0
LINE
  8
0
 10
63.7443
 20
148.863
 11
62.8601
 21
149.641
  0
LINE
  8
0
 10
62.8601
 20
149.641
 11
61.9392
 21
150.332
  0
LINE
  8
0
 10
61.9392
 20
150.332
 11
60.9679
 21
150.951
  0
LINE
  8
0
 10
60.9679
 20
150.951
 11
59.952
 21
151.493
  0
LINE
  8
0
 10
59.952
 20
151.493
 11
58.8975
 21
151.956
  0
LINE
  8
0
 10
58.8975
 20
151.956
 11
57.8106
 21
152.337
  0
LINE
  8
0
 10
57.8106
 20
152.337
 11
56.6721
 21
152.639
  0
LINE
  8
0
 10
56.6721
 20
152.639
 11
55.5394
 21
152.847
  0
LINE
  8
0
 10
55.5394
 20
152.847
 11
54.368
 21
152.969
  0
LINE
  8
0
 10
54.368
 20
152.969
 11
53.2167
 21
152.999
  0
LINE
  8
0
 10
53.2167
 20
152.999
 11
52.0666
 21
152.941
  0
LINE
  8
0
 10
52.0666
 20
152.941
 11
50.9243
 21
152.794
  0
LINE
  8
0
 10
50.9243
 20
152.794
 11
49.7966
 21
152.561
  0
LINE
  8
0
 10
49.7966
 20
152.561
 11
48.6901
 21
152.241
  0
LINE
  8
0
 10
48.6901
 20
152.241
 11
47.6114
 21
151.838
  0
LINE
  8
0
 10
47.6114
 20
151.838
 11
46.5668
 21
151.353
  0
LINE
  8
0
 10
46.5668
 20
151.353
 11
45.5625
 21
150.79
  0
LINE
  8
0
 10
45.5625
 20
150.79
 11
44.5832
 21
150.135
  0
LINE
  8
0
 10
44.5832
 20
150.135
 11
43.6583
 21
149.406
  0
LINE
  8
0
 10
43.6583
 20
149.406
 11
42.8119
 21
148.625
  0
LINE
  8
0
 10
42.8119
 20
148.625
 11
42.028
 21
147.781
  0
LINE
  8
0
 10
42.028
 20
147.781
 11
41.3111
 21
146.88
  0
LINE
  8
0
 10
41.3111
 20
146.88
 11
40.6654
 21
145.927
  0
LINE
  8
0
 10
40.6654
 20
145.927
 11
40.0948
 21
144.926
  0
LINE
  8
0
 10
40.0948
 20
144.926
 11
39.5924
 21
143.861
  0
LINE
  8
0
 10
39.5924
 20
143.861
 11
39.1751
 21
142.76
  0
LINE
  8
0
 10
39.1751
 20
142.76
 11
38.8519
 21
141.654
  0
LINE
  8
0
 10
38.8519
 20
141.654
 11
38.6101
 21
140.502
  0
LINE
  8
0
 10
38.6101
 20
140.502
 11
38.4617
 21
139.359
  0
LINE
  8
0
 10
38.4617
 20
139.359
 11
38.4015
 21
138.209
  0
LINE
  8
0
 10
38.4015
 20
138.209
 11
38.4296
 21
137.058
  0
LINE
  8
0
 10
38.4296
 20
137.058
 11
38.5496
 21
135.886
  0
LINE
  8
0
 10
38.5496
 20
135.886
 11
38.7556
 21
134.753
  0
LINE
  8
0
 10
38.7556
 20
134.753
 11
39.0478
 21
133.639
  0
LINE
  8
0
 10
39.0478
 20
133.639
 11
39.4342
 21
132.527
  0
LINE
  8
0
 10
39.4342
 20
132.527
 11
39.9066
 21
131.448
  0
LINE
  8
0
 10
39.9066
 20
131.448
 11
40.4491
 21
130.432
  0
LINE
  8
0
 10
40.4491
 20
130.432
 11
41.0828
 21
129.439
  0
LINE
  8
0
 10
41.0828
 20
129.439
 11
41.7758
 21
128.52
  0
LINE
  8
0
 10
41.7758
 20
128.52
 11
42.5374
 21
127.656
  0
LINE
  8
0
 10
42.5374
 20
127.656
 11
42.8119
 21
127.375
  0
LINE
  8
0
 10
42.8119
 20
127.375
 11
94.313
 21
76.0304
  0
LINE
  8
0
 10
94.313
 20
76.0304
 11
94.8591
 21
75.5905
  0
LINE
  8
0
 10
94.8591
 20
75.5905
 11
95.3979
 21
75.2479
  0
LINE
  8
0
 10
95.3979
 20
75.2479
 11
96.0085
 21
74.9481
  0
LINE
  8
0
 10
96.0085
 20
74.9481
 11
96.7399
 21
74.6934
  0
LINE
  8
0
 10
96.7399
 20
74.6934
 11
97.3014
 21
74.5664
  0
LINE
  8
0
 10
97.3014
 20
74.5664
 11
97.9143
 21
74.4906
  0
LINE
  8
0
 10
97.9143
 20
74.4906
 11
98.5213
 21
74.4778
  0
LINE
  8
0
 10
98.5213
 20
74.4778
 11
99.0953
 21
74.5225
  0
LINE
  8
0
 10
52.5731
 20
135.116
 11
51.9916
 21
135.351
  0
LINE
  8
0
 10
51.9916
 20
135.351
 11
51.4716
 21
135.702
  0
LINE
  8
0
 10
51.4716
 20
135.702
 11
51.036
 21
136.153
  0
LINE
  8
0
 10
51.036
 20
136.153
 11
50.7036
 21
136.685
  0
LINE
  8
0
 10
50.7036
 20
136.685
 11
50.4891
 21
137.274
  0
LINE
  8
0
 10
50.4891
 20
137.274
 11
50.4018
 21
137.895
  0
LINE
  8
0
 10
50.4018
 20
137.895
 11
50.4456
 21
138.521
  0
LINE
  8
0
 10
50.4456
 20
138.521
 11
50.6185
 21
139.124
  0
LINE
  8
0
 10
50.6185
 20
139.124
 11
50.9129
 21
139.678
  0
LINE
  8
0
 10
50.9129
 20
139.678
 11
51.316
 21
140.158
  0
LINE
  8
0
 10
51.316
 20
140.158
 11
51.8102
 21
140.544
  0
LINE
  8
0
 10
51.8102
 20
140.544
 11
52.3739
 21
140.819
  0
LINE
  8
0
 10
52.3739
 20
140.819
 11
52.9825
 21
140.971
  0
LINE
  8
0
 10
52.9825
 20
140.971
 11
53.6093
 21
140.993
  0
LINE
  8
0
 10
53.6093
 20
140.993
 11
54.2269
 21
140.884
  0
LINE
  8
0
 10
54.2269
 20
140.884
 11
54.8084
 21
140.649
  0
LINE
  8
0
 10
54.8084
 20
140.649
 11
55.3283
 21
140.298
  0
LINE
  8
0
 10
55.3283
 20
140.298
 11
55.764
 21
139.847
  0
LINE
  8
0
 10
55.764
 20
139.847
 11
56.0964
 21
139.315
  0
LINE
  8
0
 10
56.0964
 20
139.315
 11
56.3109
 21
138.726
  0
LINE
  8
0
 10
56.3109
 20
138.726
 11
56.3982
 21
138.105
  0
LINE
  8
0
 10
56.3982
 20
138.105
 11
56.3544
 21
137.479
  0
LINE
  8
0
 10
56.3544
 20
137.479
 11
56.1815
 21
136.876
  0
LINE
  8
0
 10
56.1815
 20
136.876
 11
55.8871
 21
136.322
  0
LINE
  8
0
 10
55.8871
 20
136.322
 11
55.484
 21
135.842
  0
LINE
  8
0
 10
55.484
 20
135.842
 11
54.9897
 21
135.456
  0
LINE
  8
0
 10
54.9897
 20
135.456
 11
54.426
 21
135.181
  0
LINE
  8
0
 10
54.426
 20
135.181
 11
53.8175
 21
135.029
  0
LINE
  8
0
 10
53.8175
 20
135.029
 11
53.1907
 21
135.007
  0
LINE
  8
0
 10
53.1907
 20
135.007
 11
52.5731
 21
135.116
  0
LINE
  8
0
 10
76.0176
 20
44.9966
 11
76.408
 21
45.1464
  0
LINE
  8
0
 10
76.408
 20
45.1464
 11
76.7586
 21
45.3741
  0
LINE
  8
0
 10
76.7586
 20
45.3741
 11
76.9065
 21
45.522
  0
LINE
  8
0
 10
76.9065
 20
45.522
 11
76.9142
 21
45.5142
  0
LINE
  8
0
 10
76.9142
 20
45.5142
 11
95.299
 21
63.899
  0
LINE
  8
0
 10
95.299
 20
63.899
 11
95.2912
 21
63.9067
  0
LINE
  8
0
 10
95.2912
 20
63.9067
 11
95.4391
 21
64.0546
  0
LINE
  8
0
 10
95.4391
 20
64.0546
 11
95.6668
 21
64.4052
  0
LINE
  8
0
 10
95.6668
 20
64.4052
 11
95.8166
 21
64.7956
  0
LINE
  8
0
 10
95.8166
 20
64.7956
 11
95.882
 21
65.2085
  0
LINE
  8
0
 10
95.882
 20
65.2085
 11
95.8602
 21
65.6261
  0
LINE
  8
0
 10
95.8602
 20
65.6261
 11
95.7519
 21
66.03
  0
LINE
  8
0
 10
95.7519
 20
66.03
 11
95.5621
 21
66.4025
  0
LINE
  8
0
 10
95.5621
 20
66.4025
 11
95.299
 21
66.7274
  0
LINE
  8
0
 10
95.299
 20
66.7274
 11
36.6091
 21
125.417
  0
LINE
  8
0
 10
36.6091
 20
125.417
 11
36.5918
 21
125.4
  0
LINE
  8
0
 10
36.5918
 20
125.4
 11
32.5
 21
125.4
  0
LINE
  8
0
 10
32.5
 20
125.4
 11
32.5
 21
121.4
  0
LINE
  8
0
 10
32.5
 20
121.4
 11
17.5
 21
121.4
  0
LINE
  8
0
 10
17.5
 20
121.4
 11
17.5
 21
125.4
  0
LINE
  8
0
 10
17.5
 20
125.4
 11
-17.5
 21
125.4
  0
LINE
  8
0
 10
-17.5
 20
125.4
 11
-17.5
 21
121.4
  0
LINE
  8
0
 10
-17.5
 20
121.4
 11
-32.5
 21
121.4
  0
LINE
  8
0
 10
-32.5
 20
121.4
 11
-32.5
 21
125.4
  0
LINE
  8
0
 10
-32.5
 20
125.4
 11
-36.5919
 21
125.4
  0
LINE
  8
0
 10
-36.5919
 20
125.4
 11
-36.6091
 21
125.417
  0
LINE
  8
0
 10
-36.6091
 20
125.417
 11
-95.299
 21
66.7274
  0
LINE
  8
0
 10
-95.299
 20
66.7274
 11
-95.5621
 21
66.4025
  0
LINE
  8
0
 10
-95.5621
 20
66.4025
 11
-95.7519
 21
66.03
  0
LINE
  8
0
 10
-95.7519
 20
66.03
 11
-95.8601
 21
65.6261
  0
LINE
  8
0
 10
-95.8601
 20
65.6261
 11
-95.882
 21
65.2085
  0
LINE
  8
0
 10
-95.882
 20
65.2085
 11
-95.8166
 21
64.7956
  0
LINE
  8
0
 10
-95.8166
 20
64.7956
 11
-95.6668
 21
64.4052
  0
LINE
  8
0
 10
-95.6668
 20
64.4052
 11
-95.4391
 21
64.0546
  0
LINE
  8
0
 10
-95.4391
 20
64.0546
 11
-95.2912
 21
63.9067
  0
LINE
  8
0
 10
-95.2912
 20
63.9067
 11
-95.299
 21
63.899
  0
LINE
  8
0
 10
-95.299
 20
63.899
 11
-76.9142
 21
45.5142
  0
LINE
  8
0
 10
-76.9142
 20
45.5142
 11
-76.9065
 21
45.522
  0
LINE
  8
0
 10
-76.9065
 20
45.522
 11
-76.7586
 21
45.3741
  0
LINE
  8
0
 10
-76.7586
 20
45.3741
 11
-76.408
 21
45.1464
  0
LINE
  8
0
 10
-76.408
 20
45.1464
 11
-76.0176
 21
44.9966
  0
LINE
  8
0
 10
-76.0176
 20
44.9966
 11
-75.6047
 21
44.9312
  0
LINE
  8
0
 10
-75.6047
 20
44.9312
 11
-75.1871
 21
44.9531
  0
LINE
  8
0
 10
-75.1871
 20
44.9531
 11
-74.7833
 21
45.0613
  0
LINE
  8
0
 10
-74.7833
 20
45.0613
 11
-74.4107
 21
45.2511
  0
LINE
  8
0
 10
-74.4107
 20
45.2511
 11
-74.0858
 21
45.5142
  0
LINE
  8
0
 10
-74.0858
 20
45.5142
 11
-36.6
 21
83
  0
LINE
  8
0
 10
-36.6
 20
83
 11
36.6
 21
83
  0
LINE
  8
0
 10
36.6
 20
83
 11
74.0858
 21
45.5142
  0
LINE
  8
0
 10
74.0858
 20
45.5142
 11
74.4107
 21
45.2511
  0
LINE
  8
0
 10
74.4107
 20
45.2511
 11
74.7833
 21
45.0613
  0
LINE
  8
0
 10
74.7833
 20
45.0613
 11
75.1871
 21
44.9531
  0
LINE
  8
0
 10
75.1871
 20
44.9531
 11
75.6047
 21
44.9312
  0
LINE
  8
0
 10
75.6047
 20
44.9312
 11
76.0176
 21
44.9966
  0
LINE
  8
0
 10
53.345
 20
94.2373
 11
53.0421
 21
94.3184
  0
LINE
  8
0
 10
53.0421
 20
94.3184
 11
52.7627
 21
94.4608
  0
LINE
  8
0
 10
52.7627
 20
94.4608
 11
52.519
 21
94.6581
  0
LINE
  8
0
 10
52.519
 20
94.6581
 11
52.3217
 21
94.9018
  0
LINE
  8
0
 10
52.3217
 20
94.9018
 11
52.1793
 21
95.1812
  0
LINE
  8
0
 10
52.1793
 20
95.1812
 11
52.0982
 21
95.4841
  0
LINE
  8
0
 10
52.0982
 20
95.4841
 11
52.0817
 21
95.7973
  0
LINE
  8
0
 10
52.0817
 20
95.7973
 11
52.1308
 21
96.107
  0
LINE
  8
0
 10
52.1308
 20
96.107
 11
52.2432
 21
96.3998
  0
LINE
  8
0
 10
52.2432
 20
96.3998
 11
52.414
 21
96.6628
  0
LINE
  8
0
 10
52.414
 20
96.6628
 11
52.6357
 21
96.8845
  0
LINE
  8
0
 10
52.6357
 20
96.8845
 11
52.8987
 21
97.0553
  0
LINE
  8
0
 10
52.8987
 20
97.0553
 11
53.1915
 21
97.1677
  0
LINE
  8
0
 10
53.1915
 20
97.1677
 11
53.5012
 21
97.2167
  0
LINE
  8
0
 10
53.5012
 20
97.2167
 11
53.8143
 21
97.2003
  0
LINE
  8
0
 10
53.8143
 20
97.2003
 11
54.1172
 21
97.1192
  0
LINE
  8
0
 10
54.1172
 20
97.1192
 11
54.3966
 21
96.9768
  0
LINE
  8
0
 10
54.3966
 20
96.9768
 11
54.6403
 21
96.7794
  0
LINE
  8
0
 10
54.6403
 20
96.7794
 11
54.8377
 21
96.5358
  0
LINE
  8
0
 10
54.8377
 20
96.5358
 11
54.9801
 21
96.2563
  0
LINE
  8
0
 10
54.9801
 20
96.2563
 11
55.0612
 21
95.9534
  0
LINE
  8
0
 10
55.0612
 20
95.9534
 11
55.0776
 21
95.6403
  0
LINE
  8
0
 10
55.0776
 20
95.6403
 11
55.0286
 21
95.3306
  0
LINE
  8
0
 10
55.0286
 20
95.3306
 11
54.9162
 21
95.0378
  0
LINE
  8
0
 10
54.9162
 20
95.0378
 11
54.7454
 21
94.7748
  0
LINE
  8
0
 10
54.7454
 20
94.7748
 11
54.5237
 21
94.5531
  0
LINE
  8
0
 10
54.5237
 20
94.5531
 11
54.2607
 21
94.3823
  0
LINE
  8
0
 10
54.2607
 20
94.3823
 11
53.9679
 21
94.2699
  0
LINE
  8
0
 10
53.9679
 20
94.2699
 11
53.6582
 21
94.2208
  0
LINE
  8
0
 10
53.6582
 20
94.2208
 11
53.345
 21
94.2373
  0
LINE
  8
0
 10
-53.9679
 20
94.2699
 11
-54.2607
 21
94.3823
  0
LINE
  8
0
 10
-54.2607
 20
94.3823
 11
-54.5237
 21
94.5531
  0
LINE
  8
0
 10
-54.5237
 20
94.5531
 11
-54.7454
 21
94.7748
  0
LINE
  8
0
 10
-54.7454
 20
94.7748
 11
-54.9162
 21
95.0378
  0
LINE
  8
0
 10
-54.9162
 20
95.0378
 11
-55.0286
 21
95.3306
  0
LINE
  8
0
 10
-55.0286
 20
95.3306
 11
-55.0776
 21
95.6403
  0
LINE
  8
0
 10
-55.0776
 20
95.6403
 11
-55.0612
 21
95.9534
  0
LINE
  8
0
 10
-55.0612
 20
95.9534
 11
-54.9801
 21
96.2563
  0
LINE
  8
0
 10
-54.9801
 20
96.2563
 11
-54.8377
 21
96.5358
  0
LINE
  8
0
 10
-54.8377
 20
96.5358
 11
-54.6403
 21
96.7794
  0
LINE
  8
0
 10
-54.6403
 20
96.7794
 11
-54.3966
 21
96.9768
  0
LINE
  8
0
 10
-54.3966
 20
96.9768
 11
-54.1172
 21
97.1192
  0
LINE
  8
0
 10
-54.1172
 20
97.1192
 11
-53.8143
 21
97.2003
  0
LINE
  8
0
 10
-53.8143
 20
97.2003
 11
-53.5012
 21
97.2167
  0
LINE
  8
0
 10
-53.5012
 20
97.2167
 11
-53.1915
 21
97.1677
  0
LINE
  8
0
 10
-53.1915
 20
97.1677
 11
-52.8987
 21
97.0553
  0
LINE
  8
0
 10
-52.8987
 20
97.0553
 11
-52.6357
 21
96.8845
  0
LINE
  8
0
 10
-52.6357
 20
96.8845
 11
-52.414
 21
96.6628
  0
LINE
  8
0
 10
-52.414
 20
96.6628
 11
-52.2432
 21
96.3998
  0
LINE
  8
0
 10
-52.2432
 20
96.3998
 11
-52.1308
 21
96.107
  0
LINE
  8
0
 10
-52.1308
 20
96.107
 11
-52.0817
 21
95.7973
  0
LINE
  8
0
 10
-52.0817
 20
95.7973
 11
-52.0982
 21
95.4841
  0
LINE
  8
0
 10
-52.0982
 20
95.4841
 11
-52.1793
 21
95.1812
  0
LINE
  8
0
 10
-52.1793
 20
95.1812
 11
-52.3217
 21
94.9018
  0
LINE
  8
0
 10
-52.3217
 20
94.9018
 11
-52.519
 21
94.6581
  0
LINE
  8
0
 10
-52.519
 20
94.6581
 11
-52.7627
 21
94.4608
  0
LINE
  8
0
 10
-52.7627
 20
94.4608
 11
-53.0421
 21
94.3184
  0
LINE
  8
0
 10
-53.0421
 20
94.3184
 11
-53.345
 21
94.2373
  0
LINE
  8
0
 10
-53.345
 20
94.2373
 11
-53.6582
 21
94.2208
  0
LINE
  8
0
 10
-53.6582
 20
94.2208
 11
-53.9679
 21
94.2699
  0
LINE
  8
0
 10
-87.5208
 20
67.4345
 11
-59.2365
 21
95.7188
  0
LINE
  8
0
 10
-59.2365
 20
95.7188
 11
-45.0944
 21
81.5767
  0
LINE
  8
0
 10
-45.0944
 20
81.5767
 11
-73.3787
 21
53.2924
  0
LINE
  8
0
 10
-73.3787
 20
53.2924
 11
-87.5208
 21
67.4345
  0
LINE
  8
0
 10
45.0944
 20
81.5767
 11
59.2365
 21
95.7188
  0
LINE
  8
0
 10
59.2365
 20
95.7188
 11
87.5208
 21
67.4345
  0
LINE
  8
0
 10
87.5208
 20
67.4345
 11
73.3787
 21
53.2924
  0
LINE
  8
0
 10
73.3787
 20
53.2924
 11
45.0944
 21
81.5767
  0
LINE
  8
0
 10
-32.5
 20
87
 11
-32.5
 21
91
  0
LINE
  8
0
 10
-32.5
 20
91
 11
32.5
 21
91
  0
LINE
  8
0
 10
32.5
 20
91
 11
32.5
 21
87
  0
LINE
  8
0
 10
32.5
 20
87
 11
-32.5
 21
87
  0
LINE
  8
0
 10
44.8597
 20
85.752
 11
44.5568
 21
85.8331
  0
LINE
  8
0
 10
44.5568
 20
85.8331
 11
44.2774
 21
85.9755
  0
LINE
  8
0
 10
44.2774
 20
85.9755
 11
44.0337
 21
86.1729
  0
LINE
  8
0
 10
44.0337
 20
86.1729
 11
43.8364
 21
86.4165
  0
LINE
  8
0
 10
43.8364
 20
86.4165
 11
43.694
 21
86.696
  0
LINE
  8
0
 10
43.694
 20
86.696
 11
43.6129
 21
86.9989
  0
LINE
  8
0
 10
43.6129
 20
86.9989
 11
43.5965
 21
87.312
  0
LINE
  8
0
 10
43.5965
 20
87.312
 11
43.6455
 21
87.6217
  0
LINE
  8
0
 10
43.6455
 20
87.6217
 11
43.7579
 21
87.9145
  0
LINE
  8
0
 10
43.7579
 20
87.9145
 11
43.9287
 21
88.1775
  0
LINE
  8
0
 10
43.9287
 20
88.1775
 11
44.1504
 21
88.3992
  0
LINE
  8
0
 10
44.1504
 20
88.3992
 11
44.4134
 21
88.57
  0
LINE
  8
0
 10
44.4134
 20
88.57
 11
44.7062
 21
88.6824
  0
LINE
  8
0
 10
44.7062
 20
88.6824
 11
45.0159
 21
88.7314
  0
LINE
  8
0
 10
45.0159
 20
88.7314
 11
45.3291
 21
88.715
  0
LINE
  8
0
 10
45.3291
 20
88.715
 11
45.6319
 21
88.6339
  0
LINE
  8
0
 10
45.6319
 20
88.6339
 11
45.9114
 21
88.4915
  0
LINE
  8
0
 10
45.9114
 20
88.4915
 11
46.1551
 21
88.2942
  0
LINE
  8
0
 10
46.1551
 20
88.2942
 11
46.3524
 21
88.0505
  0
LINE
  8
0
 10
46.3524
 20
88.0505
 11
46.4948
 21
87.7711
  0
LINE
  8
0
 10
46.4948
 20
87.7711
 11
46.5759
 21
87.4682
  0
LINE
  8
0
 10
46.5759
 20
87.4682
 11
46.5924
 21
87.155
  0
LINE
  8
0
 10
46.5924
 20
87.155
 11
46.5433
 21
86.8453
  0
LINE
  8
0
 10
46.5433
 20
86.8453
 11
46.4309
 21
86.5525
  0
LINE
  8
0
 10
46.4309
 20
86.5525
 11
46.2601
 21
86.2895
  0
LINE
  8
0
 10
46.2601
 20
86.2895
 11
46.0384
 21
86.0678
  0
LINE
  8
0
 10
46.0384
 20
86.0678
 11
45.7754
 21
85.897
  0
LINE
  8
0
 10
45.7754
 20
85.897
 11
45.4826
 21
85.7846
  0
LINE
  8
0
 10
45.4826
 20
85.7846
 11
45.1729
 21
85.7356
  0
LINE
  8
0
 10
45.1729
 20
85.7356
 11
44.8597
 21
85.752
  0
LINE
  8
0
 10
-45.4826
 20
85.7846
 11
-45.7754
 21
85.897
  0
LINE
  8
0
 10
-45.7754
 20
85.897
 11
-46.0384
 21
86.0678
  0
LINE
  8
0
 10
-46.0384
 20
86.0678
 11
-46.2601
 21
86.2895
  0
LINE
  8
0
 10
-46.2601
 20
86.2895
 11
-46.4309
 21
86.5525
  0
LINE
  8
0
 10
-46.4309
 20
86.5525
 11
-46.5433
 21
86.8453
  0
LINE
  8
0
 10
-46.5433
 20
86.8453
 11
-46.5923
 21
87.155
  0
LINE
  8
0
 10
-46.5923
 20
87.155
 11
-46.5759
 21
87.4682
  0
LINE
  8
0
 10
-46.5759
 20
87.4682
 11
-46.4948
 21
87.7711
  0
LINE
  8
0
 10
-46.4948
 20
87.7711
 11
-46.3524
 21
88.0505
  0
LINE
  8
0
 10
-46.3524
 20
88.0505
 11
-46.1551
 21
88.2942
  0
LINE
  8
0
 10
-46.1551
 20
88.2942
 11
-45.9114
 21
88.4915
  0
LINE
  8
0
 10
-45.9114
 20
88.4915
 11
-45.632
 21
88.6339
  0
LINE
  8
0
 10
-45.632
 20
88.6339
 11
-45.329
 21
88.715
  0
LINE
  8
0
 10
-45.329
 20
88.715
 11
-45.0159
 21
88.7314
  0
LINE
  8
0
 10
-45.0159
 20
88.7314
 11
-44.7062
 21
88.6824
  0
LINE
  8
0
 10
-44.7062
 20
88.6824
 11
-44.4134
 21
88.57
  0
LINE
  8
0
 10
-44.4134
 20
88.57
 11
-44.1504
 21
88.3992
  0
LINE
  8
0
 10
-44.1504
 20
88.3992
 11
-43.9287
 21
88.1775
  0
LINE
  8
0
 10
-43.9287
 20
88.1775
 11
-43.7579
 21
87.9145
  0
LINE
  8
0
 10
-43.7579
 20
87.9145
 11
-43.6455
 21
87.6217
  0
LINE
  8
0
 10
-43.6455
 20
87.6217
 11
-43.5965
 21
87.312
  0
LINE
  8
0
 10
-43.5965
 20
87.312
 11
-43.6129
 21
86.9989
  0
LINE
  8
0
 10
-43.6129
 20
86.9989
 11
-43.694
 21
86.696
  0
LINE
  8
0
 10
-43.694
 20
86.696
 11
-43.8364
 21
86.4165
  0
LINE
  8
0
 10
-43.8364
 20
86.4165
 11
-44.0337
 21
86.1729
  0
LINE
  8
0
 10
-44.0337
 20
86.1729
 11
-44.2774
 21
85.9755
  0
LINE
  8
0
 10
-44.2774
 20
85.9755
 11
-44.5568
 21
85.8331
  0
LINE
  8
0
 10
-44.5568
 20
85.8331
 11
-44.8598
 21
85.752
  0
LINE
  8
0
 10
-44.8598
 20
85.752
 11
-45.1729
 21
85.7356
  0
LINE
  8
0
 10
-45.1729
 20
85.7356
 11
-45.4826
 21
85.7846
  0
LINE
  8
0
 10
-87.909
 20
60.3288
 11
-88.2018
 21
60.4412
  0
LINE
  8
0
 10
-88.2018
 20
60.4412
 11
-88.4648
 21
60.612
  0
LINE
  8
0
 10
-88.4648
 20
60.612
 11
-88.6865
 21
60.8337
  0
LINE
  8
0
 10
-88.6865
 20
60.8337
 11
-88.8573
 21
61.0967
  0
LINE
  8
0
 10
-88.8573
 20
61.0967
 11
-88.9697
 21
61.3895
  0
LINE
  8
0
 10
-88.9697
 20
61.3895
 11
-89.0187
 21
61.6992
  0
LINE
  8
0
 10
-89.0187
 20
61.6992
 11
-89.0023
 21
62.0123
  0
LINE
  8
0
 10
-89.0023
 20
62.0123
 11
-88.9212
 21
62.3152
  0
LINE
  8
0
 10
-88.9212
 20
62.3152
 11
-88.7788
 21
62.5946
  0
LINE
  8
0
 10
-88.7788
 20
62.5946
 11
-88.5815
 21
62.8383
  0
LINE
  8
0
 10
-88.5815
 20
62.8383
 11
-88.3378
 21
63.0357
  0
LINE
  8
0
 10
-88.3378
 20
63.0357
 11
-88.0584
 21
63.178
  0
LINE
  8
0
 10
-88.0584
 20
63.178
 11
-87.7555
 21
63.2592
  0
LINE
  8
0
 10
-87.7555
 20
63.2592
 11
-87.4423
 21
63.2756
  0
LINE
  8
0
 10
-87.4423
 20
63.2756
 11
-87.1326
 21
63.2266
  0
LINE
  8
0
 10
-87.1326
 20
63.2266
 11
-86.8398
 21
63.1142
  0
LINE
  8
0
 10
-86.8398
 20
63.1142
 11
-86.5768
 21
62.9434
  0
LINE
  8
0
 10
-86.5768
 20
62.9434
 11
-86.3551
 21
62.7216
  0
LINE
  8
0
 10
-86.3551
 20
62.7216
 11
-86.1843
 21
62.4587
  0
LINE
  8
0
 10
-86.1843
 20
62.4587
 11
-86.0719
 21
62.1659
  0
LINE
  8
0
 10
-86.0719
 20
62.1659
 11
-86.0229
 21
61.8562
  0
LINE
  8
0
 10
-86.0229
 20
61.8562
 11
-86.0393
 21
61.543
  0
LINE
  8
0
 10
-86.0393
 20
61.543
 11
-86.1204
 21
61.2401
  0
LINE
  8
0
 10
-86.1204
 20
61.2401
 11
-86.2628
 21
60.9607
  0
LINE
  8
0
 10
-86.2628
 20
60.9607
 11
-86.4602
 21
60.717
  0
LINE
  8
0
 10
-86.4602
 20
60.717
 11
-86.7039
 21
60.5197
  0
LINE
  8
0
 10
-86.7039
 20
60.5197
 11
-86.9833
 21
60.3773
  0
LINE
  8
0
 10
-86.9833
 20
60.3773
 11
-87.2862
 21
60.2961
  0
LINE
  8
0
 10
-87.2862
 20
60.2961
 11
-87.5993
 21
60.2797
  0
LINE
  8
0
 10
-87.5993
 20
60.2797
 11
-87.909
 21
60.3288
  0
LINE
  8
0
 10
87.2862
 20
60.2961
 11
86.9833
 21
60.3773
  0
LINE
  8
0
 10
86.9833
 20
60.3773
 11
86.7038
 21
60.5197
  0
LINE
  8
0
 10
86.7038
 20
60.5197
 11
86.4602
 21
60.717
  0
LINE
  8
0
 10
86.4602
 20
60.717
 11
86.2628
 21
60.9607
  0
LINE
  8
0
 10
86.2628
 20
60.9607
 11
86.1204
 21
61.2401
  0
LINE
  8
0
 10
86.1204
 20
61.2401
 11
86.0393
 21
61.543
  0
LINE
  8
0
 10
86.0393
 20
61.543
 11
86.0229
 21
61.8562
  0
LINE
  8
0
 10
86.0229
 20
61.8562
 11
86.0719
 21
62.1659
  0
LINE
  8
0
 10
86.0719
 20
62.1659
 11
86.1843
 21
62.4587
  0
LINE
  8
0
 10
86.1843
 20
62.4587
 11
86.3551
 21
62.7216
  0
LINE
  8
0
 10
86.3551
 20
62.7216
 11
86.5768
 21
62.9434
  0
LINE
  8
0
 10
86.5768
 20
62.9434
 11
86.8398
 21
63.1142
  0
LINE
  8
0
 10
86.8398
 20
63.1142
 11
87.1326
 21
63.2266
  0
LINE
  8
0
 10
87.1326
 20
63.2266
 11
87.4423
 21
63.2756
  0
LINE
  8
0
 10
87.4423
 20
63.2756
 11
87.7555
 21
63.2592
  0
LINE
  8
0
 10
87.7555
 20
63.2592
 11
88.0584
 21
63.178
  0
LINE
  8
0
 10
88.0584
 20
63.178
 11
88.3378
 21
63.0357
  0
LINE
  8
0
 10
88.3378
 20
63.0357
 11
88.5815
 21
62.8383
  0
LINE
  8
0
 10
88.5815
 20
62.8383
 11
88.7788
 21
62.5946
  0
LINE
  8
0
 10
88.7788
 20
62.5946
 11
88.9212
 21
62.3152
  0
LINE
  8
0
 10
88.9212
 20
62.3152
 11
89.0023
 21
62.0123
  0
LINE
  8
0
 10
89.0023
 20
62.0123
 11
89.0188
 21
61.6992
  0
LINE
  8
0
 10
89.0188
 20
61.6992
 11
88.9697
 21
61.3895
  0
LINE
  8
0
 10
88.9697
 20
61.3895
 11
88.8573
 21
61.0967
  0
LINE
  8
0
 10
88.8573
 20
61.0967
 11
88.6865
 21
60.8337
  0
LINE
  8
0
 10
88.6865
 20
60.8337
 11
88.4648
 21
60.612
  0
LINE
  8
0
 10
88.4648
 20
60.612
 11
88.2018
 21
60.4412
  0
LINE
  8
0
 10
88.2018
 20
60.4412
 11
87.909
 21
60.3288
  0
LINE
  8
0
 10
87.909
 20
60.3288
 11
87.5993
 21
60.2797
  0
LINE
  8
0
 10
87.5993
 20
60.2797
 11
87.2862
 21
60.2961
  0
LINE
  8
0
 10
-79.4238
 20
51.8435
 11
-79.7165
 21
51.9559
  0
LINE
  8
0
 10
-79.7165
 20
51.9559
 11
-79.9795
 21
52.1267
  0
LINE
  8
0
 10
-79.9795
 20
52.1267
 11
-80.2012
 21
52.3484
  0
LINE
  8
0
 10
-80.2012
 20
52.3484
 11
-80.372
 21
52.6114
  0
LINE
  8
0
 10
-80.372
 20
52.6114
 11
-80.4844
 21
52.9042
  0
LINE
  8
0
 10
-80.4844
 20
52.9042
 11
-80.5335
 21
53.2139
  0
LINE
  8
0
 10
-80.5335
 20
53.2139
 11
-80.5171
 21
53.5271
  0
LINE
  8
0
 10
-80.5171
 20
53.5271
 11
-80.4359
 21
53.8299
  0
LINE
  8
0
 10
-80.4359
 20
53.8299
 11
-80.2935
 21
54.1094
  0
LINE
  8
0
 10
-80.2935
 20
54.1094
 11
-80.0962
 21
54.3531
  0
LINE
  8
0
 10
-80.0962
 20
54.3531
 11
-79.8525
 21
54.5504
  0
LINE
  8
0
 10
-79.8525
 20
54.5504
 11
-79.5731
 21
54.6928
  0
LINE
  8
0
 10
-79.5731
 20
54.6928
 11
-79.2702
 21
54.7739
  0
LINE
  8
0
 10
-79.2702
 20
54.7739
 11
-78.957
 21
54.7903
  0
LINE
  8
0
 10
-78.957
 20
54.7903
 11
-78.6473
 21
54.7413
  0
LINE
  8
0
 10
-78.6473
 20
54.7413
 11
-78.3545
 21
54.6289
  0
LINE
  8
0
 10
-78.3545
 20
54.6289
 11
-78.0915
 21
54.4581
  0
LINE
  8
0
 10
-78.0915
 20
54.4581
 11
-77.8698
 21
54.2364
  0
LINE
  8
0
 10
-77.8698
 20
54.2364
 11
-77.699
 21
53.9734
  0
LINE
  8
0
 10
-77.699
 20
53.9734
 11
-77.5866
 21
53.6806
  0
LINE
  8
0
 10
-77.5866
 20
53.6806
 11
-77.5376
 21
53.3709
  0
LINE
  8
0
 10
-77.5376
 20
53.3709
 11
-77.554
 21
53.0577
  0
LINE
  8
0
 10
-77.554
 20
53.0577
 11
-77.6352
 21
52.7548
  0
LINE
  8
0
 10
-77.6352
 20
52.7548
 11
-77.7775
 21
52.4754
  0
LINE
  8
0
 10
-77.7775
 20
52.4754
 11
-77.9749
 21
52.2317
  0
LINE
  8
0
 10
-77.9749
 20
52.2317
 11
-78.2186
 21
52.0344
  0
LINE
  8
0
 10
-78.2186
 20
52.0344
 11
-78.498
 21
51.892
  0
LINE
  8
0
 10
-78.498
 20
51.892
 11
-78.8009
 21
51.8109
  0
LINE
  8
0
 10
-78.8009
 20
51.8109
 11
-79.114
 21
51.7944
  0
LINE
  8
0
 10
-79.114
 20
51.7944
 11
-79.4238
 21
51.8435
  0
LINE
  8
0
 10
78.8009
 20
51.8109
 11
78.498
 21
51.892
  0
LINE
  8
0
 10
78.498
 20
51.892
 11
78.2186
 21
52.0344
  0
LINE
  8
0
 10
78.2186
 20
52.0344
 11
77.9749
 21
52.2317
  0
LINE
  8
0
 10
77.9749
 20
52.2317
 11
77.7775
 21
52.4754
  0
LINE
  8
0
 10
77.7775
 20
52.4754
 11
77.6352
 21
52.7548
  0
LINE
  8
0
 10
77.6352
 20
52.7548
 11
77.554
 21
53.0577
  0
LINE
  8
0
 10
77.554
 20
53.0577
 11
77.5376
 21
53.3709
  0
LINE
  8
0
 10
77.5376
 20
53.3709
 11
77.5866
 21
53.6806
  0
LINE
  8
0
 10
77.5866
 20
53.6806
 11
77.699
 21
53.9734
  0
LINE
  8
0
 10
77.699
 20
53.9734
 11
77.8698
 21
54.2364
  0
LINE
  8
0
 10
77.8698
 20
54.2364
 11
78.0915
 21
54.4581
  0
LINE
  8
0
 10
78.0915
 20
54.4581
 11
78.3545
 21
54.6289
  0
LINE
  8
0
 10
78.3545
 20
54.6289
 11
78.6473
 21
54.7413
  0
LINE
  8
0
 10
78.6473
 20
54.7413
 11
78.957
 21
54.7903
  0
LINE
  8
0
 10
78.957
 20
54.7903
 11
79.2702
 21
54.7739
  0
LINE
  8
0
 10
79.2702
 20
54.7739
 11
79.5731
 21
54.6928
  0
LINE
  8
0
 10
79.5731
 20
54.6928
 11
79.8525
 21
54.5504
  0
LINE
  8
0
 10
79.8525
 20
54.5504
 11
80.0962
 21
54.3531
  0
LINE
  8
0
 10
80.0962
 20
54.3531
 11
80.2935
 21
54.1094
  0
LINE
  8
0
 10
80.2935
 20
54.1094
 11
80.4359
 21
53.8299
  0
LINE
  8
0
 10
80.4359
 20
53.8299
 11
80.5171
 21
53.5271
  0
LINE
  8
0
 10
80.5171
 20
53.5271
 11
80.5335
 21
53.2139
  0
LINE
  8
0
 10
80.5335
 20
53.2139
 11
80.4844
 21
52.9042
  0
LINE
  8
0
 10
80.4844
 20
52.9042
 11
80.372
 21
52.6114
  0
LINE
  8
0
 10
80.372
 20
52.6114
 11
80.2013
 21
52.3484
  0
LINE
  8
0
 10
80.2013
 20
52.3484
 11
79.9795
 21
52.1267
  0
LINE
  8
0
 10
79.9795
 20
52.1267
 11
79.7165
 21
51.9559
  0
LINE
  8
0
 10
79.7165
 20
51.9559
 11
79.4238
 21
51.8435
  0
LINE
  8
0
 10
79.4238
 20
51.8435
 11
79.114
 21
51.7944
  0
LINE
  8
0
 10
79.114
 20
51.7944
 11
78.8009
 21
51.8109
  0
LINE
  8
0
 10
76.0176
 20
-0.00341797
 11
76.408
 21
0.146423
  0
LINE
  8
0
 10
76.408
 20
0.146423
 11
76.7586
 21
0.374146
  0
LINE
  8
0
 10
76.7586
 20
0.374146
 11
76.9065
 21
0.521973
  0
LINE
  8
0
 10
76.9065
 20
0.521973
 11
76.9142
 21
0.514221
  0
LINE
  8
0
 10
76.9142
 20
0.514221
 11
95.299
 21
18.899
  0
LINE
  8
0
 10
95.299
 20
18.899
 11
95.2912
 21
18.9067
  0
LINE
  8
0
 10
95.2912
 20
18.9067
 11
95.4391
 21
19.0546
  0
LINE
  8
0
 10
95.4391
 20
19.0546
 11
95.6668
 21
19.4052
  0
LINE
  8
0
 10
95.6668
 20
19.4052
 11
95.8166
 21
19.7956
  0
LINE
  8
0
 10
95.8166
 20
19.7956
 11
95.882
 21
20.2085
  0
LINE
  8
0
 10
95.882
 20
20.2085
 11
95.8602
 21
20.6261
  0
LINE
  8
0
 10
95.8602
 20
20.6261
 11
95.7519
 21
21.03
  0
LINE
  8
0
 10
95.7519
 20
21.03
 11
95.5621
 21
21.4025
  0
LINE
  8
0
 10
95.5621
 20
21.4025
 11
95.299
 21
21.7274
  0
LINE
  8
0
 10
95.299
 20
21.7274
 11
36.6091
 21
80.4173
  0
LINE
  8
0
 10
36.6091
 20
80.4173
 11
36.5918
 21
80.4
  0
LINE
  8
0
 10
36.5918
 20
80.4
 11
32.5
 21
80.4
  0
LINE
  8
0
 10
32.5
 20
80.4
 11
32.5
 21
76.4
  0
LINE
  8
0
 10
32.5
 20
76.4
 11
17.5
 21
76.4
  0
LINE
  8
0
 10
17.5
 20
76.4
 11
17.5
 21
80.4
  0
LINE
  8
0
 10
17.5
 20
80.4
 11
-17.5
 21
80.4
  0
LINE
  8
0
 10
-17.5
 20
80.4
 11
-17.5
 21
76.4
  0
LINE
  8
0
 10
-17.5
 20
76.4
 11
-32.5
 21
76.4
  0
LINE
  8
0
 10
-32.5
 20
76.4
 11
-32.5
 21
80.4
  0
LINE
  8
0
 10
-32.5
 20
80.4
 11
-36.5919
 21
80.4
  0
LINE
  8
0
 10
-36.5919
 20
80.4
 11
-36.6091
 21
80.4173
  0
LINE
  8
0
 10
-36.6091
 20
80.4173
 11
-95.299
 21
21.7274
  0
LINE
  8
0
 10
-95.299
 20
21.7274
 11
-95.5621
 21
21.4025
  0
LINE
  8
0
 10
-95.5621
 20
21.4025
 11
-95.7519
 21
21.03
  0
LINE
  8
0
 10
-95.7519
 20
21.03
 11
-95.8601
 21
20.6261
  0
LINE
  8
0
 10
-95.8601
 20
20.6261
 11
-95.882
 21
20.2085
  0
LINE
  8
0
 10
-95.882
 20
20.2085
 11
-95.8166
 21
19.7956
  0
LINE
  8
0
 10
-95.8166
 20
19.7956
 11
-95.6668
 21
19.4052
  0
LINE
  8
0
 10
-95.6668
 20
19.4052
 11
-95.4391
 21
19.0546
  0
LINE
  8
0
 10
-95.4391
 20
19.0546
 11
-95.2912
 21
18.9067
  0
LINE
  8
0
 10
-95.2912
 20
18.9067
 11
-95.299
 21
18.899
  0
LINE
  8
0
 10
-95.299
 20
18.899
 11
-76.9142
 21
0.514221
  0
LINE
  8
0
 10
-76.9142
 20
0.514221
 11
-76.9065
 21
0.521973
  0
LINE
  8
0
 10
-76.9065
 20
0.521973
 11
-76.7586
 21
0.374146
  0
LINE
  8
0
 10
-76.7586
 20
0.374146
 11
-76.408
 21
0.146423
  0
LINE
  8
0
 10
-76.408
 20
0.146423
 11
-76.0176
 21
-0.00341797
  0
LINE
  8
0
 10
-76.0176
 20
-0.00341797
 11
-75.6047
 21
-0.0688324
  0
LINE
  8
0
 10
-75.6047
 20
-0.0688324
 11
-75.1871
 21
-0.046936
  0
LINE
  8
0
 10
-75.1871
 20
-0.046936
 11
-74.7833
 21
0.0612793
  0
LINE
  8
0
 10
-74.7833
 20
0.0612793
 11
-74.4107
 21
0.251099
  0
LINE
  8
0
 10
-74.4107
 20
0.251099
 11
-74.0858
 21
0.514221
  0
LINE
  8
0
 10
-74.0858
 20
0.514221
 11
-36.6
 21
38
  0
LINE
  8
0
 10
-36.6
 20
38
 11
36.6
 21
38
  0
LINE
  8
0
 10
36.6
 20
38
 11
74.0858
 21
0.514221
  0
LINE
  8
0
 10
74.0858
 20
0.514221
 11
74.4107
 21
0.251099
  0
LINE
  8
0
 10
74.4107
 20
0.251099
 11
74.7833
 21
0.0612793
  0
LINE
  8
0
 10
74.7833
 20
0.0612793
 11
75.1871
 21
-0.046936
  0
LINE
  8
0
 10
75.1871
 20
-0.046936
 11
75.6047
 21
-0.0688324
  0
LINE
  8
0
 10
75.6047
 20
-0.0688324
 11
76.0176
 21
-0.00341797
  0
LINE
  8
0
 10
-53.9679
 20
49.2699
 11
-54.2607
 21
49.3823
  0
LINE
  8
0
 10
-54.2607
 20
49.3823
 11
-54.5237
 21
49.5531
  0
LINE
  8
0
 10
-54.5237
 20
49.5531
 11
-54.7454
 21
49.7748
  0
LINE
  8
0
 10
-54.7454
 20
49.7748
 11
-54.9162
 21
50.0378
  0
LINE
  8
0
 10
-54.9162
 20
50.0378
 11
-55.0286
 21
50.3306
  0
LINE
  8
0
 10
-55.0286
 20
50.3306
 11
-55.0776
 21
50.6403
  0
LINE
  8
0
 10
-55.0776
 20
50.6403
 11
-55.0612
 21
50.9534
  0
LINE
  8
0
 10
-55.0612
 20
50.9534
 11
-54.9801
 21
51.2563
  0
LINE
  8
0
 10
-54.9801
 20
51.2563
 11
-54.8377
 21
51.5358
  0
LINE
  8
0
 10
-54.8377
 20
51.5358
 11
-54.6403
 21
51.7794
  0
LINE
  8
0
 10
-54.6403
 20
51.7794
 11
-54.3966
 21
51.9768
  0
LINE
  8
0
 10
-54.3966
 20
51.9768
 11
-54.1172
 21
52.1192
  0
LINE
  8
0
 10
-54.1172
 20
52.1192
 11
-53.8143
 21
52.2003
  0
LINE
  8
0
 10
-53.8143
 20
52.2003
 11
-53.5012
 21
52.2167
  0
LINE
  8
0
 10
-53.5012
 20
52.2167
 11
-53.1915
 21
52.1677
  0
LINE
  8
0
 10
-53.1915
 20
52.1677
 11
-52.8987
 21
52.0553
  0
LINE
  8
0
 10
-52.8987
 20
52.0553
 11
-52.6357
 21
51.8845
  0
LINE
  8
0
 10
-52.6357
 20
51.8845
 11
-52.414
 21
51.6628
  0
LINE
  8
0
 10
-52.414
 20
51.6628
 11
-52.2432
 21
51.3998
  0
LINE
  8
0
 10
-52.2432
 20
51.3998
 11
-52.1308
 21
51.107
  0
LINE
  8
0
 10
-52.1308
 20
51.107
 11
-52.0817
 21
50.7973
  0
LINE
  8
0
 10
-52.0817
 20
50.7973
 11
-52.0982
 21
50.4841
  0
LINE
  8
0
 10
-52.0982
 20
50.4841
 11
-52.1793
 21
50.1812
  0
LINE
  8
0
 10
-52.1793
 20
50.1812
 11
-52.3217
 21
49.9018
  0
LINE
  8
0
 10
-52.3217
 20
49.9018
 11
-52.519
 21
49.6581
  0
LINE
  8
0
 10
-52.519
 20
49.6581
 11
-52.7627
 21
49.4608
  0
LINE
  8
0
 10
-52.7627
 20
49.4608
 11
-53.0421
 21
49.3184
  0
LINE
  8
0
 10
-53.0421
 20
49.3184
 11
-53.345
 21
49.2373
  0
LINE
  8
0
 10
-53.345
 20
49.2373
 11
-53.6582
 21
49.2208
  0
LINE
  8
0
 10
-53.6582
 20
49.2208
 11
-53.9679
 21
49.2699
  0
LINE
  8
0
 10
53.345
 20
49.2373
 11
53.0421
 21
49.3184
  0
LINE
  8
0
 10
53.0421
 20
49.3184
 11
52.7627
 21
49.4608
  0
LINE
  8
0
 10
52.7627
 20
49.4608
 11
52.519
 21
49.6581
  0
LINE
  8
0
 10
52.519
 20
49.6581
 11
52.3217
 21
49.9018
  0
LINE
  8
0
 10
52.3217
 20
49.9018
 11
52.1793
 21
50.1812
  0
LINE
  8
0
 10
52.1793
 20
50.1812
 11
52.0982
 21
50.4841
  0
LINE
  8
0
 10
52.0982
 20
50.4841
 11
52.0817
 21
50.7973
  0
LINE
  8
0
 10
52.0817
 20
50.7973
 11
52.1308
 21
51.107
  0
LINE
  8
0
 10
52.1308
 20
51.107
 11
52.2432
 21
51.3998
  0
LINE
  8
0
 10
52.2432
 20
51.3998
 11
52.414
 21
51.6628
  0
LINE
  8
0
 10
52.414
 20
51.6628
 11
52.6357
 21
51.8845
  0
LINE
  8
0
 10
52.6357
 20
51.8845
 11
52.8987
 21
52.0553
  0
LINE
  8
0
 10
52.8987
 20
52.0553
 11
53.1915
 21
52.1677
  0
LINE
  8
0
 10
53.1915
 20
52.1677
 11
53.5012
 21
52.2167
  0
LINE
  8
0
 10
53.5012
 20
52.2167
 11
53.8143
 21
52.2003
  0
LINE
  8
0
 10
53.8143
 20
52.2003
 11
54.1172
 21
52.1192
  0
LINE
  8
0
 10
54.1172
 20
52.1192
 11
54.3966
 21
51.9768
  0
LINE
  8
0
 10
54.3966
 20
51.9768
 11
54.6403
 21
51.7794
  0
LINE
  8
0
 10
54.6403
 20
51.7794
 11
54.8377
 21
51.5358
  0
LINE
  8
0
 10
54.8377
 20
51.5358
 11
54.9801
 21
51.2563
  0
LINE
  8
0
 10
54.9801
 20
51.2563
 11
55.0612
 21
50.9534
  0
LINE
  8
0
 10
55.0612
 20
50.9534
 11
55.0776
 21
50.6403
  0
LINE
  8
0
 10
55.0776
 20
50.6403
 11
55.0286
 21
50.3306
  0
LINE
  8
0
 10
55.0286
 20
50.3306
 11
54.9162
 21
50.0378
  0
LINE
  8
0
 10
54.9162
 20
50.0378
 11
54.7454
 21
49.7748
  0
LINE
  8
0
 10
54.7454
 20
49.7748
 11
54.5237
 21
49.5531
  0
LINE
  8
0
 10
54.5237
 20
49.5531
 11
54.2607
 21
49.3823
  0
LINE
  8
0
 10
54.2607
 20
49.3823
 11
53.9679
 21
49.2699
  0
LINE
  8
0
 10
53.9679
 20
49.2699
 11
53.6582
 21
49.2208
  0
LINE
  8
0
 10
53.6582
 20
49.2208
 11
53.345
 21
49.2373
  0
LINE
  8
0
 10
-87.5208
 20
22.4345
 11
-59.2365
 21
50.7188
  0
LINE
  8
0
 10
-59.2365
 20
50.7188
 11
-45.0944
 21
36.5767
  0
LINE
  8
0
 10
-45.0944
 20
36.5767
 11
-73.3787
 21
8.29239
  0
LINE
  8
0
 10
-73.3787
 20
8.29239
 11
-87.5208
 21
22.4345
  0
LINE
  8
0
 10
45.0944
 20
36.5767
 11
59.2365
 21
50.7188
  0
LINE
  8
0
 10
59.2365
 20
50.7188
 11
87.5208
 21
22.4345
  0
LINE
  8
0
 10
87.5208
 20
22.4345
 11
73.3787
 21
8.29239
  0
LINE
  8
0
 10
73.3787
 20
8.29239
 11
45.0944
 21
36.5767
  0
LINE
  8
0
 10
-32.5
 20
42
 11
-32.5
 21
46
  0
LINE
  8
0
 10
-32.5
 20
46
 11
32.5
 21
46
  0
LINE
  8
0
 10
32.5
 20
46
 11
32.5
 21
42
  0
LINE
  8
0
 10
32.5
 20
42
 11
-32.5
 21
42
  0
LINE
  8
0
 10
-45.4826
 20
40.7846
 11
-45.7754
 21
40.897
  0
LINE
  8
0
 10
-45.7754
 20
40.897
 11
-46.0384
 21
41.0678
  0
LINE
  8
0
 10
-46.0384
 20
41.0678
 11
-46.2601
 21
41.2895
  0
LINE
  8
0
 10
-46.2601
 20
41.2895
 11
-46.4309
 21
41.5525
  0
LINE
  8
0
 10
-46.4309
 20
41.5525
 11
-46.5433
 21
41.8453
  0
LINE
  8
0
 10
-46.5433
 20
41.8453
 11
-46.5923
 21
42.155
  0
LINE
  8
0
 10
-46.5923
 20
42.155
 11
-46.5759
 21
42.4682
  0
LINE
  8
0
 10
-46.5759
 20
42.4682
 11
-46.4948
 21
42.7711
  0
LINE
  8
0
 10
-46.4948
 20
42.7711
 11
-46.3524
 21
43.0505
  0
LINE
  8
0
 10
-46.3524
 20
43.0505
 11
-46.1551
 21
43.2942
  0
LINE
  8
0
 10
-46.1551
 20
43.2942
 11
-45.9114
 21
43.4915
  0
LINE
  8
0
 10
-45.9114
 20
43.4915
 11
-45.632
 21
43.6339
  0
LINE
  8
0
 10
-45.632
 20
43.6339
 11
-45.329
 21
43.715
  0
LINE
  8
0
 10
-45.329
 20
43.715
 11
-45.0159
 21
43.7314
  0
LINE
  8
0
 10
-45.0159
 20
43.7314
 11
-44.7062
 21
43.6824
  0
LINE
  8
0
 10
-44.7062
 20
43.6824
 11
-44.4134
 21
43.57
  0
LINE
  8
0
 10
-44.4134
 20
43.57
 11
-44.1504
 21
43.3992
  0
LINE
  8
0
 10
-44.1504
 20
43.3992
 11
-43.9287
 21
43.1775
  0
LINE
  8
0
 10
-43.9287
 20
43.1775
 11
-43.7579
 21
42.9145
  0
LINE
  8
0
 10
-43.7579
 20
42.9145
 11
-43.6455
 21
42.6217
  0
LINE
  8
0
 10
-43.6455
 20
42.6217
 11
-43.5965
 21
42.312
  0
LINE
  8
0
 10
-43.5965
 20
42.312
 11
-43.6129
 21
41.9989
  0
LINE
  8
0
 10
-43.6129
 20
41.9989
 11
-43.694
 21
41.696
  0
LINE
  8
0
 10
-43.694
 20
41.696
 11
-43.8364
 21
41.4165
  0
LINE
  8
0
 10
-43.8364
 20
41.4165
 11
-44.0337
 21
41.1729
  0
LINE
  8
0
 10
-44.0337
 20
41.1729
 11
-44.2774
 21
40.9755
  0
LINE
  8
0
 10
-44.2774
 20
40.9755
 11
-44.5568
 21
40.8331
  0
LINE
  8
0
 10
-44.5568
 20
40.8331
 11
-44.8598
 21
40.752
  0
LINE
  8
0
 10
-44.8598
 20
40.752
 11
-45.1729
 21
40.7356
  0
LINE
  8
0
 10
-45.1729
 20
40.7356
 11
-45.4826
 21
40.7846
  0
LINE
  8
0
 10
44.8597
 20
40.752
 11
44.5568
 21
40.8331
  0
LINE
  8
0
 10
44.5568
 20
40.8331
 11
44.2774
 21
40.9755
  0
LINE
  8
0
 10
44.2774
 20
40.9755
 11
44.0337
 21
41.1729
  0
LINE
  8
0
 10
44.0337
 20
41.1729
 11
43.8364
 21
41.4165
  0
LINE
  8
0
 10
43.8364
 20
41.4165
 11
43.694
 21
41.696
  0
LINE
  8
0
 10
43.694
 20
41.696
 11
43.6129
 21
41.9989
  0
LINE
  8
0
 10
43.6129
 20
41.9989
 11
43.5965
 21
42.312
  0
LINE
  8
0
 10
43.5965
 20
42.312
 11
43.6455
 21
42.6217
  0
LINE
  8
0
 10
43.6455
 20
42.6217
 11
43.7579
 21
42.9145
  0
LINE
  8
0
 10
43.7579
 20
42.9145
 11
43.9287
 21
43.1775
  0
LINE
  8
0
 10
43.9287
 20
43.1775
 11
44.1504
 21
43.3992
  0
LINE
  8
0
 10
44.1504
 20
43.3992
 11
44.4134
 21
43.57
  0
LINE
  8
0
 10
44.4134
 20
43.57
 11
44.7062
 21
43.6824
  0
LINE
  8
0
 10
44.7062
 20
43.6824
 11
45.0159
 21
43.7314
  0
LINE
  8
0
 10
45.0159
 20
43.7314
 11
45.3291
 21
43.715
  0
LINE
  8
0
 10
45.3291
 20
43.715
 11
45.6319
 21
43.6339
  0
LINE
  8
0
 10
45.6319
 20
43.6339
 11
45.9114
 21
43.4915
  0
LINE
  8
0
 10
45.9114
 20
43.4915
 11
46.1551
 21
43.2942
  0
LINE
  8
0
 10
46.1551
 20
43.2942
 11
46.3524
 21
43.0505
  0
LINE
  8
0
 10
46.3524
 20
43.0505
 11
46.4948
 21
42.7711
  0
LINE
  8
0
 10
46.4948
 20
42.7711
 11
46.5759
 21
42.4682
  0
LINE
  8
0
 10
46.5759
 20
42.4682
 11
46.5924
 21
42.155
  0
LINE
  8
0
 10
46.5924
 20
42.155
 11
46.5433
 21
41.8453
  0
LINE
  8
0
 10
46.5433
 20
41.8453
 11
46.4309
 21
41.5525
  0
LINE
  8
0
 10
46.4309
 20
41.5525
 11
46.2601
 21
41.2895
  0
LINE
  8
0
 10
46.2601
 20
41.2895
 11
46.0384
 21
41.0678
  0
LINE
  8
0
 10
46.0384
 20
41.0678
 11
45.7754
 21
40.897
  0
LINE
  8
0
 10
45.7754
 20
40.897
 11
45.4826
 21
40.7846
  0
LINE
  8
0
 10
45.4826
 20
40.7846
 11
45.1729
 21
40.7356
  0
LINE
  8
0
 10
45.1729
 20
40.7356
 11
44.8597
 21
40.752
  0
LINE
  8
0
 10
87.2862
 20
15.2961
 11
86.9833
 21
15.3773
  0
LINE
  8
0
 10
86.9833
 20
15.3773
 11
86.7038
 21
15.5197
  0
LINE
  8
0
 10
86.7038
 20
15.5197
 11
86.4602
 21
15.717
  0
LINE
  8
0
 10
86.4602
 20
15.717
 11
86.2628
 21
15.9607
  0
LINE
  8
0
 10
86.2628
 20
15.9607
 11
86.1204
 21
16.2401
  0
LINE
  8
0
 10
86.1204
 20
16.2401
 11
86.0393
 21
16.543
  0
LINE
  8
0
 10
86.0393
 20
16.543
 11
86.0229
 21
16.8562
  0
LINE
  8
0
 10
86.0229
 20
16.8562
 11
86.0719
 21
17.1659
  0
LINE
  8
0
 10
86.0719
 20
17.1659
 11
86.1843
 21
17.4587
  0
LINE
  8
0
 10
86.1843
 20
17.4587
 11
86.3551
 21
17.7216
  0
LINE
  8
0
 10
86.3551
 20
17.7216
 11
86.5768
 21
17.9434
  0
LINE
  8
0
 10
86.5768
 20
17.9434
 11
86.8398
 21
18.1142
  0
LINE
  8
0
 10
86.8398
 20
18.1142
 11
87.1326
 21
18.2266
  0
LINE
  8
0
 10
87.1326
 20
18.2266
 11
87.4423
 21
18.2756
  0
LINE
  8
0
 10
87.4423
 20
18.2756
 11
87.7555
 21
18.2592
  0
LINE
  8
0
 10
87.7555
 20
18.2592
 11
88.0584
 21
18.178
  0
LINE
  8
0
 10
88.0584
 20
18.178
 11
88.3378
 21
18.0357
  0
LINE
  8
0
 10
88.3378
 20
18.0357
 11
88.5815
 21
17.8383
  0
LINE
  8
0
 10
88.5815
 20
17.8383
 11
88.7788
 21
17.5946
  0
LINE
  8
0
 10
88.7788
 20
17.5946
 11
88.9212
 21
17.3152
  0
LINE
  8
0
 10
88.9212
 20
17.3152
 11
89.0023
 21
17.0123
  0
LINE
  8
0
 10
89.0023
 20
17.0123
 11
89.0188
 21
16.6992
  0
LINE
  8
0
 10
89.0188
 20
16.6992
 11
88.9697
 21
16.3895
  0
LINE
  8
0
 10
88.9697
 20
16.3895
 11
88.8573
 21
16.0967
  0
LINE
  8
0
 10
88.8573
 20
16.0967
 11
88.6865
 21
15.8337
  0
LINE
  8
0
 10
88.6865
 20
15.8337
 11
88.4648
 21
15.612
  0
LINE
  8
0
 10
88.4648
 20
15.612
 11
88.2018
 21
15.4412
  0
LINE
  8
0
 10
88.2018
 20
15.4412
 11
87.909
 21
15.3288
  0
LINE
  8
0
 10
87.909
 20
15.3288
 11
87.5993
 21
15.2797
  0
LINE
  8
0
 10
87.5993
 20
15.2797
 11
87.2862
 21
15.2961
  0
LINE
  8
0
 10
-87.909
 20
15.3288
 11
-88.2018
 21
15.4412
  0
LINE
  8
0
 10
-88.2018
 20
15.4412
 11
-88.4648
 21
15.612
  0
LINE
  8
0
 10
-88.4648
 20
15.612
 11
-88.6865
 21
15.8337
  0
LINE
  8
0
 10
-88.6865
 20
15.8337
 11
-88.8573
 21
16.0967
  0
LINE
  8
0
 10
-88.8573
 20
16.0967
 11
-88.9697
 21
16.3895
  0
LINE
  8
0
 10
-88.9697
 20
16.3895
 11
-89.0187
 21
16.6992
  0
LINE
  8
0
 10
-89.0187
 20
16.6992
 11
-89.0023
 21
17.0123
  0
LINE
  8
0
 10
-89.0023
 20
17.0123
 11
-88.9212
 21
17.3152
  0
LINE
  8
0
 10
-88.9212
 20
17.3152
 11
-88.7788
 21
17.5946
  0
LINE
  8
0
 10
-88.7788
 20
17.5946
 11
-88.5815
 21
17.8383
  0
LINE
  8
0
 10
-88.5815
 20
17.8383
 11
-88.3378
 21
18.0357
  0
LINE
  8
0
 10
-88.3378
 20
18.0357
 11
-88.0584
 21
18.178
  0
LINE
  8
0
 10
-88.0584
 20
18.178
 11
-87.7555
 21
18.2592
  0
LINE
  8
0
 10
-87.7555
 20
18.2592
 11
-87.4423
 21
18.2756
  0
LINE
  8
0
 10
-87.4423
 20
18.2756
 11
-87.1326
 21
18.2266
  0
LINE
  8
0
 10
-87.1326
 20
18.2266
 11
-86.8398
 21
18.1142
  0
LINE
  8
0
 10
-86.8398
 20
18.1142
 11
-86.5768
 21
17.9434
  0
LINE
  8
0
 10
-86.5768
 20
17.9434
 11
-86.3551
 21
17.7216
  0
LINE
  8
0
 10
-86.3551
 20
17.7216
 11
-86.1843
 21
17.4587
  0
LINE
  8
0
 10
-86.1843
 20
17.4587
 11
-86.0719
 21
17.1659
  0
LINE
  8
0
 10
-86.0719
 20
17.1659
 11
-86.0229
 21
16.8562
  0
LINE
  8
0
 10
-86.0229
 20
16.8562
 11
-86.0393
 21
16.543
  0
LINE
  8
0
 10
-86.0393
 20
16.543
 11
-86.1204
 21
16.2401
  0
LINE
  8
0
 10
-86.1204
 20
16.2401
 11
-86.2628
 21
15.9607
  0
LINE
  8
0
 10
-86.2628
 20
15.9607
 11
-86.4602
 21
15.717
  0
LINE
  8
0
 10
-86.4602
 20
15.717
 11
-86.7039
 21
15.5197
  0
LINE
  8
0
 10
-86.7039
 20
15.5197
 11
-86.9833
 21
15.3773
  0
LINE
  8
0
 10
-86.9833
 20
15.3773
 11
-87.2862
 21
15.2961
  0
LINE
  8
0
 10
-87.2862
 20
15.2961
 11
-87.5993
 21
15.2797
  0
LINE
  8
0
 10
-87.5993
 20
15.2797
 11
-87.909
 21
15.3288
  0
LINE
  8
0
 10
-79.4238
 20
6.84351
 11
-79.7165
 21
6.95589
  0
LINE
  8
0
 10
-79.7165
 20
6.95589
 11
-79.9795
 21
7.12668
  0
LINE
  8
0
 10
-79.9795
 20
7.12668
 11
-80.2012
 21
7.34842
  0
LINE
  8
0
 10
-80.2012
 20
7.34842
 11
-80.372
 21
7.6114
  0
LINE
  8
0
 10
-80.372
 20
7.6114
 11
-80.4844
 21
7.90416
  0
LINE
  8
0
 10
-80.4844
 20
7.90416
 11
-80.5335
 21
8.2139
  0
LINE
  8
0
 10
-80.5335
 20
8.2139
 11
-80.5171
 21
8.52705
  0
LINE
  8
0
 10
-80.5171
 20
8.52705
 11
-80.4359
 21
8.82994
  0
LINE
  8
0
 10
-80.4359
 20
8.82994
 11
-80.2935
 21
9.10936
  0
LINE
  8
0
 10
-80.2935
 20
9.10936
 11
-80.0962
 21
9.35306
  0
LINE
  8
0
 10
-80.0962
 20
9.35306
 11
-79.8525
 21
9.5504
  0
LINE
  8
0
 10
-79.8525
 20
9.5504
 11
-79.5731
 21
9.69276
  0
LINE
  8
0
 10
-79.5731
 20
9.69276
 11
-79.2702
 21
9.77393
  0
LINE
  8
0
 10
-79.2702
 20
9.77393
 11
-78.957
 21
9.79034
  0
LINE
  8
0
 10
-78.957
 20
9.79034
 11
-78.6473
 21
9.74129
  0
LINE
  8
0
 10
-78.6473
 20
9.74129
 11
-78.3545
 21
9.62891
  0
LINE
  8
0
 10
-78.3545
 20
9.62891
 11
-78.0915
 21
9.45811
  0
LINE
  8
0
 10
-78.0915
 20
9.45811
 11
-77.8698
 21
9.23637
  0
LINE
  8
0
 10
-77.8698
 20
9.23637
 11
-77.699
 21
8.97337
  0
LINE
  8
0
 10
-77.699
 20
8.97337
 11
-77.5866
 21
8.68062
  0
LINE
  8
0
 10
-77.5866
 20
8.68062
 11
-77.5376
 21
8.3709
  0
LINE
  8
0
 10
-77.5376
 20
8.3709
 11
-77.554
 21
8.05774
  0
LINE
  8
0
 10
-77.554
 20
8.05774
 11
-77.6352
 21
7.75484
  0
LINE
  8
0
 10
-77.6352
 20
7.75484
 11
-77.7775
 21
7.47543
  0
LINE
  8
0
 10
-77.7775
 20
7.47543
 11
-77.9749
 21
7.23174
  0
LINE
  8
0
 10
-77.9749
 20
7.23174
 11
-78.2186
 21
7.03439
  0
LINE
  8
0
 10
-78.2186
 20
7.03439
 11
-78.498
 21
6.89203
  0
LINE
  8
0
 10
-78.498
 20
6.89203
 11
-78.8009
 21
6.81087
  0
LINE
  8
0
 10
-78.8009
 20
6.81087
 11
-79.114
 21
6.79445
  0
LINE
  8
0
 10
-79.114
 20
6.79445
 11
-79.4238
 21
6.84351
  0
LINE
  8
0
 10
78.8009
 20
6.81087
 11
78.498
 21
6.89203
  0
LINE
  8
0
 10
78.498
 20
6.89203
 11
78.2186
 21
7.03439
  0
LINE
  8
0
 10
78.2186
 20
7.03439
 11
77.9749
 21
7.23174
  0
LINE
  8
0
 10
77.9749
 20
7.23174
 11
77.7775
 21
7.47543
  0
LINE
  8
0
 10
77.7775
 20
7.47543
 11
77.6352
 21
7.75484
  0
LINE
  8
0
 10
77.6352
 20
7.75484
 11
77.554
 21
8.05774
  0
LINE
  8
0
 10
77.554
 20
8.05774
 11
77.5376
 21
8.3709
  0
LINE
  8
0
 10
77.5376
 20
8.3709
 11
77.5866
 21
8.68062
  0
LINE
  8
0
 10
77.5866
 20
8.68062
 11
77.699
 21
8.97337
  0
LINE
  8
0
 10
77.699
 20
8.97337
 11
77.8698
 21
9.23637
  0
LINE
  8
0
 10
77.8698
 20
9.23637
 11
78.0915
 21
9.45811
  0
LINE
  8
0
 10
78.0915
 20
9.45811
 11
78.3545
 21
9.62891
  0
LINE
  8
0
 10
78.3545
 20
9.62891
 11
78.6473
 21
9.74129
  0
LINE
  8
0
 10
78.6473
 20
9.74129
 11
78.957
 21
9.79034
  0
LINE
  8
0
 10
78.957
 20
9.79034
 11
79.2702
 21
9.77393
  0
LINE
  8
0
 10
79.2702
 20
9.77393
 11
79.5731
 21
9.69276
  0
LINE
  8
0
 10
79.5731
 20
9.69276
 11
79.8525
 21
9.5504
  0
LINE
  8
0
 10
79.8525
 20
9.5504
 11
80.0962
 21
9.35306
  0
LINE
  8
0
 10
80.0962
 20
9.35306
 11
80.2935
 21
9.10936
  0
LINE
  8
0
 10
80.2935
 20
9.10936
 11
80.4359
 21
8.82994
  0
LINE
  8
0
 10
80.4359
 20
8.82994
 11
80.5171
 21
8.52705
  0
LINE
  8
0
 10
80.5171
 20
8.52705
 11
80.5335
 21
8.2139
  0
LINE
  8
0
 10
80.5335
 20
8.2139
 11
80.4844
 21
7.90416
  0
LINE
  8
0
 10
80.4844
 20
7.90416
 11
80.372
 21
7.6114
  0
LINE
  8
0
 10
80.372
 20
7.6114
 11
80.2013
 21
7.34842
  0
LINE
  8
0
 10
80.2013
 20
7.34842
 11
79.9795
 21
7.12668
  0
LINE
  8
0
 10
79.9795
 20
7.12668
 11
79.7165
 21
6.95589
  0
LINE
  8
0
 10
79.7165
 20
6.95589
 11
79.4238
 21
6.84351
  0
LINE
  8
0
 10
79.4238
 20
6.84351
 11
79.114
 21
6.79445
  0
LINE
  8
0
 10
79.114
 20
6.79445
 11
78.8009
 21
6.81087
  0
LINE
  8
0
 10
-17.6
 20
-33
 11
17.6
 21
-33
  0
LINE
  8
0
 10
17.6
 20
-33
 11
17.6
 21
-37
  0
LINE
  8
0
 10
17.6
 20
-37
 11
32.6
 21
-37
  0
LINE
  8
0
 10
32.6
 20
-37
 11
32.6
 21
-33
  0
LINE
  8
0
 10
32.6
 20
-33
 11
36.6
 21
-33
  0
LINE
  8
0
 10
36.6
 20
-33
 11
36.6
 21
32
  0
LINE
  8
0
 10
36.6
 20
32
 11
32.6
 21
32
  0
LINE
  8
0
 10
32.6
 20
32
 11
32.6
 21
36
  0
LINE
  8
0
 10
32.6
 20
36
 11
17.6
 21
36
  0
LINE
  8
0
 10
17.6
 20
36
 11
17.6
 21
32
  0
LINE
  8
0
 10
17.6
 20
32
 11
-17.6
 21
32
  0
LINE
  8
0
 10
-17.6
 20
32
 11
-17.6
 21
36
  0
LINE
  8
0
 10
-17.6
 20
36
 11
-32.6
 21
36
  0
LINE
  8
0
 10
-32.6
 20
36
 11
-32.6
 21
32
  0
LINE
  8
0
 10
-32.6
 20
32
 11
-36.6
 21
32
  0
LINE
  8
0
 10
-36.6
 20
32
 11
-36.6
 21
-33
  0
LINE
  8
0
 10
-36.6
 20
-33
 11
-32.6
 21
-33
  0
LINE
  8
0
 10
-32.6
 20
-33
 11
-32.6
 21
-37
  0
LINE
  8
0
 10
-32.6
 20
-37
 11
-17.6
 21
-37
  0
LINE
  8
0
 10
-17.6
 20
-37
 11
-17.6
 21
-33
  0
LINE
  8
0
 10
-22.5568
 20
22.5082
 11
-22.8635
 21
22.5734
  0
LINE
  8
0
 10
-22.8635
 20
22.5734
 11
-23.15
 21
22.701
  0
LINE
  8
0
 10
-23.15
 20
22.701
 11
-23.4037
 21
22.8853
  0
LINE
  8
0
 10
-23.4037
 20
22.8853
 11
-23.6135
 21
23.1183
  0
LINE
  8
0
 10
-23.6135
 20
23.1183
 11
-23.7703
 21
23.3899
  0
LINE
  8
0
 10
-23.7703
 20
23.3899
 11
-23.8672
 21
23.6881
  0
LINE
  8
0
 10
-23.8672
 20
23.6881
 11
-23.9
 21
24
  0
LINE
  8
0
 10
-23.9
 20
24
 11
-23.8672
 21
24.3119
  0
LINE
  8
0
 10
-23.8672
 20
24.3119
 11
-23.7703
 21
24.6101
  0
LINE
  8
0
 10
-23.7703
 20
24.6101
 11
-23.6135
 21
24.8817
  0
LINE
  8
0
 10
-23.6135
 20
24.8817
 11
-23.4037
 21
25.1147
  0
LINE
  8
0
 10
-23.4037
 20
25.1147
 11
-23.15
 21
25.299
  0
LINE
  8
0
 10
-23.15
 20
25.299
 11
-22.8635
 21
25.4266
  0
LINE
  8
0
 10
-22.8635
 20
25.4266
 11
-22.5568
 21
25.4918
  0
LINE
  8
0
 10
-22.5568
 20
25.4918
 11
-22.2432
 21
25.4918
  0
LINE
  8
0
 10
-22.2432
 20
25.4918
 11
-21.9365
 21
25.4266
  0
LINE
  8
0
 10
-21.9365
 20
25.4266
 11
-21.65
 21
25.299
  0
LINE
  8
0
 10
-21.65
 20
25.299
 11
-21.3963
 21
25.1147
  0
LINE
  8
0
 10
-21.3963
 20
25.1147
 11
-21.1865
 21
24.8817
  0
LINE
  8
0
 10
-21.1865
 20
24.8817
 11
-21.0297
 21
24.6101
  0
LINE
  8
0
 10
-21.0297
 20
24.6101
 11
-20.9328
 21
24.3119
  0
LINE
  8
0
 10
-20.9328
 20
24.3119
 11
-20.9
 21
24
  0
LINE
  8
0
 10
-20.9
 20
24
 11
-20.9328
 21
23.6881
  0
LINE
  8
0
 10
-20.9328
 20
23.6881
 11
-21.0297
 21
23.3899
  0
LINE
  8
0
 10
-21.0297
 20
23.3899
 11
-21.1865
 21
23.1183
  0
LINE
  8
0
 10
-21.1865
 20
23.1183
 11
-21.3963
 21
22.8853
  0
LINE
  8
0
 10
-21.3963
 20
22.8853
 11
-21.65
 21
22.701
  0
LINE
  8
0
 10
-21.65
 20
22.701
 11
-21.9365
 21
22.5734
  0
LINE
  8
0
 10
-21.9365
 20
22.5734
 11
-22.2432
 21
22.5082
  0
LINE
  8
0
 10
-22.2432
 20
22.5082
 11
-22.5568
 21
22.5082
  0
LINE
  8
0
 10
27.6432
 20
7.00821
 11
27.3365
 21
7.07341
  0
LINE
  8
0
 10
27.3365
 20
7.07341
 11
27.05
 21
7.20096
  0
LINE
  8
0
 10
27.05
 20
7.20096
 11
26.7963
 21
7.38528
  0
LINE
  8
0
 10
26.7963
 20
7.38528
 11
26.5865
 21
7.61832
  0
LINE
  8
0
 10
26.5865
 20
7.61832
 11
26.4297
 21
7.88989
  0
LINE
  8
0
 10
26.4297
 20
7.88989
 11
26.3328
 21
8.18813
  0
LINE
  8
0
 10
26.3328
 20
8.18813
 11
26.3
 21
8.5
  0
LINE
  8
0
 10
26.3
 20
8.5
 11
26.3328
 21
8.81186
  0
LINE
  8
0
 10
26.3328
 20
8.81186
 11
26.4297
 21
9.11009
  0
LINE
  8
0
 10
26.4297
 20
9.11009
 11
26.5865
 21
9.38167
  0
LINE
  8
0
 10
26.5865
 20
9.38167
 11
26.7963
 21
9.61472
  0
LINE
  8
0
 10
26.7963
 20
9.61472
 11
27.05
 21
9.79903
  0
LINE
  8
0
 10
27.05
 20
9.79903
 11
27.3365
 21
9.92657
  0
LINE
  8
0
 10
27.3365
 20
9.92657
 11
27.6432
 21
9.99178
  0
LINE
  8
0
 10
27.6432
 20
9.99178
 11
27.9568
 21
9.99178
  0
LINE
  8
0
 10
27.9568
 20
9.99178
 11
28.2635
 21
9.92657
  0
LINE
  8
0
 10
28.2635
 20
9.92657
 11
28.55
 21
9.79903
  0
LINE
  8
0
 10
28.55
 20
9.79903
 11
28.8037
 21
9.61472
  0
LINE
  8
0
 10
28.8037
 20
9.61472
 11
29.0135
 21
9.38167
  0
LINE
  8
0
 10
29.0135
 20
9.38167
 11
29.1703
 21
9.11009
  0
LINE
  8
0
 10
29.1703
 20
9.11009
 11
29.2672
 21
8.81186
  0
LINE
  8
0
 10
29.2672
 20
8.81186
 11
29.3
 21
8.5
  0
LINE
  8
0
 10
29.3
 20
8.5
 11
29.2672
 21
8.18813
  0
LINE
  8
0
 10
29.2672
 20
8.18813
 11
29.1703
 21
7.88989
  0
LINE
  8
0
 10
29.1703
 20
7.88989
 11
29.0135
 21
7.61832
  0
LINE
  8
0
 10
29.0135
 20
7.61832
 11
28.8037
 21
7.38528
  0
LINE
  8
0
 10
28.8037
 20
7.38528
 11
28.55
 21
7.20096
  0
LINE
  8
0
 10
28.55
 20
7.20096
 11
28.2635
 21
7.07341
  0
LINE
  8
0
 10
28.2635
 20
7.07341
 11
27.9568
 21
7.00821
  0
LINE
  8
0
 10
27.9568
 20
7.00821
 11
27.6432
 21
7.00821
  0
LINE
  8
0
 10
27.6432
 20
-21.0918
 11
27.3365
 21
-21.0266
  0
LINE
  8
0
 10
27.3365
 20
-21.0266
 11
27.05
 21
-20.899
  0
LINE
  8
0
 10
27.05
 20
-20.899
 11
26.7963
 21
-20.7147
  0
LINE
  8
0
 10
26.7963
 20
-20.7147
 11
26.5865
 21
-20.4817
  0
LINE
  8
0
 10
26.5865
 20
-20.4817
 11
26.4297
 21
-20.2101
  0
LINE
  8
0
 10
26.4297
 20
-20.2101
 11
26.3328
 21
-19.9119
  0
LINE
  8
0
 10
26.3328
 20
-19.9119
 11
26.3
 21
-19.6
  0
LINE
  8
0
 10
26.3
 20
-19.6
 11
26.3328
 21
-19.2881
  0
LINE
  8
0
 10
26.3328
 20
-19.2881
 11
26.4297
 21
-18.9899
  0
LINE
  8
0
 10
26.4297
 20
-18.9899
 11
26.5865
 21
-18.7183
  0
LINE
  8
0
 10
26.5865
 20
-18.7183
 11
26.7963
 21
-18.4853
  0
LINE
  8
0
 10
26.7963
 20
-18.4853
 11
27.05
 21
-18.301
  0
LINE
  8
0
 10
27.05
 20
-18.301
 11
27.3365
 21
-18.1734
  0
LINE
  8
0
 10
27.3365
 20
-18.1734
 11
27.6432
 21
-18.1082
  0
LINE
  8
0
 10
27.6432
 20
-18.1082
 11
27.9568
 21
-18.1082
  0
LINE
  8
0
 10
27.9568
 20
-18.1082
 11
28.2635
 21
-18.1734
  0
LINE
  8
0
 10
28.2635
 20
-18.1734
 11
28.55
 21
-18.301
  0
LINE
  8
0
 10
28.55
 20
-18.301
 11
28.8037
 21
-18.4853
  0
LINE
  8
0
 10
28.8037
 20
-18.4853
 11
29.0135
 21
-18.7183
  0
LINE
  8
0
 10
29.0135
 20
-18.7183
 11
29.1703
 21
-18.9899
  0
LINE
  8
0
 10
29.1703
 20
-18.9899
 11
29.2672
 21
-19.2881
  0
LINE
  8
0
 10
29.2672
 20
-19.2881
 11
29.3
 21
-19.6
  0
LINE
  8
0
 10
29.3
 20
-19.6
 11
29.2672
 21
-19.9119
  0
LINE
  8
0
 10
29.2672
 20
-19.9119
 11
29.1703
 21
-20.2101
  0
LINE
  8
0
 10
29.1703
 20
-20.2101
 11
29.0135
 21
-20.4817
  0
LINE
  8
0
 10
29.0135
 20
-20.4817
 11
28.8037
 21
-20.7147
  0
LINE
  8
0
 10
28.8037
 20
-20.7147
 11
28.55
 21
-20.899
  0
LINE
  8
0
 10
28.55
 20
-20.899
 11
28.2635
 21
-21.0266
  0
LINE
  8
0
 10
28.2635
 20
-21.0266
 11
27.9568
 21
-21.0918
  0
LINE
  8
0
 10
27.9568
 20
-21.0918
 11
27.6432
 21
-21.0918
  0
LINE
  8
0
 10
-24.2568
 20
-25.9918
 11
-24.5635
 21
-25.9266
  0
LINE
  8
0
 10
-24.5635
 20
-25.9266
 11
-24.85
 21
-25.799
  0
LINE
  8
0
 10
-24.85
 20
-25.799
 11
-25.1037
 21
-25.6147
  0
LINE
  8
0
 10
-25.1037
 20
-25.6147
 11
-25.3135
 21
-25.3817
  0
LINE
  8
0
 10
-25.3135
 20
-25.3817
 11
-25.4703
 21
-25.1101
  0
LINE
  8
0
 10
-25.4703
 20
-25.1101
 11
-25.5672
 21
-24.8119
  0
LINE
  8
0
 10
-25.5672
 20
-24.8119
 11
-25.6
 21
-24.5
  0
LINE
  8
0
 10
-25.6
 20
-24.5
 11
-25.5672
 21
-24.1881
  0
LINE
  8
0
 10
-25.5672
 20
-24.1881
 11
-25.4703
 21
-23.8899
  0
LINE
  8
0
 10
-25.4703
 20
-23.8899
 11
-25.3135
 21
-23.6183
  0
LINE
  8
0
 10
-25.3135
 20
-23.6183
 11
-25.1037
 21
-23.3853
  0
LINE
  8
0
 10
-25.1037
 20
-23.3853
 11
-24.85
 21
-23.201
  0
LINE
  8
0
 10
-24.85
 20
-23.201
 11
-24.5635
 21
-23.0734
  0
LINE
  8
0
 10
-24.5635
 20
-23.0734
 11
-24.2568
 21
-23.0082
  0
LINE
  8
0
 10
-24.2568
 20
-23.0082
 11
-23.9432
 21
-23.0082
  0
LINE
  8
0
 10
-23.9432
 20
-23.0082
 11
-23.6365
 21
-23.0734
  0
LINE
  8
0
 10
-23.6365
 20
-23.0734
 11
-23.35
 21
-23.201
  0
LINE
  8
0
 10
-23.35
 20
-23.201
 11
-23.0963
 21
-23.3853
  0
LINE
  8
0
 10
-23.0963
 20
-23.3853
 11
-22.8865
 21
-23.6183
  0
LINE
  8
0
 10
-22.8865
 20
-23.6183
 11
-22.7297
 21
-23.8899
  0
LINE
  8
0
 10
-22.7297
 20
-23.8899
 11
-22.6328
 21
-24.1881
  0
LINE
  8
0
 10
-22.6328
 20
-24.1881
 11
-22.6
 21
-24.5
  0
LINE
  8
0
 10
-22.6
 20
-24.5
 11
-22.6328
 21
-24.8119
  0
LINE
  8
0
 10
-22.6328
 20
-24.8119
 11
-22.7297
 21
-25.1101
  0
LINE
  8
0
 10
-22.7297
 20
-25.1101
 11
-22.8865
 21
-25.3817
  0
LINE
  8
0
 10
-22.8865
 20
-25.3817
 11
-23.0963
 21
-25.6147
  0
LINE
  8
0
 10
-23.0963
 20
-25.6147
 11
-23.35
 21
-25.799
  0
LINE
  8
0
 10
-23.35
 20
-25.799
 11
-23.6365
 21
-25.9266
  0
LINE
  8
0
 10
-23.6365
 20
-25.9266
 11
-23.9432
 21
-25.9918
  0
LINE
  8
0
 10
-23.9432
 20
-25.9918
 11
-24.2568
 21
-25.9918
  0
LINE
  8
0
 10
106.4
 20
-79.989
 11
106.609
 21
-79.989
  0
LINE
  8
0
 10
106.609
 20
-79.989
 11
107.018
 21
-79.9021
  0
LINE
  8
0
 10
107.018
 20
-79.9021
 11
107.4
 21
-79.732
  0
LINE
  8
0
 10
107.4
 20
-79.732
 11
107.738
 21
-79.4863
  0
LINE
  8
0
 10
107.738
 20
-79.4863
 11
108.018
 21
-79.1756
  0
LINE
  8
0
 10
108.018
 20
-79.1756
 11
108.227
 21
-78.8135
  0
LINE
  8
0
 10
108.227
 20
-78.8135
 11
108.356
 21
-78.4158
  0
LINE
  8
0
 10
108.356
 20
-78.4158
 11
108.4
 21
-78
  0
LINE
  8
0
 10
108.4
 20
-78
 11
108.389
 21
-6.42419
  0
LINE
  8
0
 10
108.389
 20
-6.42419
 11
108.301
 21
-5.27596
  0
LINE
  8
0
 10
108.301
 20
-5.27596
 11
108.124
 21
-4.13788
  0
LINE
  8
0
 10
108.124
 20
-4.13788
 11
107.861
 21
-3.01666
  0
LINE
  8
0
 10
107.861
 20
-3.01666
 11
107.513
 21
-1.91895
  0
LINE
  8
0
 10
107.513
 20
-1.91895
 11
107.082
 21
-0.851166
  0
LINE
  8
0
 10
107.082
 20
-0.851166
 11
106.57
 21
0.180374
  0
LINE
  8
0
 10
106.57
 20
0.180374
 11
105.966
 21
1.19153
  0
LINE
  8
0
 10
105.966
 20
1.19153
 11
105.3
 21
2.13141
  0
LINE
  8
0
 10
105.3
 20
2.13141
 11
104.565
 21
3.01749
  0
LINE
  8
0
 10
104.565
 20
3.01749
 11
103.763
 21
3.8445
  0
LINE
  8
0
 10
103.763
 20
3.8445
 11
102.88
 21
4.62416
  0
LINE
  8
0
 10
102.88
 20
4.62416
 11
101.961
 21
5.31723
  0
LINE
  8
0
 10
101.961
 20
5.31723
 11
100.99
 21
5.9377
  0
LINE
  8
0
 10
100.99
 20
5.9377
 11
99.9756
 21
6.4819
  0
LINE
  8
0
 10
99.9756
 20
6.4819
 11
98.9219
 21
6.94664
  0
LINE
  8
0
 10
98.9219
 20
6.94664
 11
97.8356
 21
7.32916
  0
LINE
  8
0
 10
97.8356
 20
7.32916
 11
96.7232
 21
7.62723
  0
LINE
  8
0
 10
96.7232
 20
7.62723
 11
95.5912
 21
7.83908
  0
LINE
  8
0
 10
95.5912
 20
7.83908
 11
94.4463
 21
7.96346
  0
LINE
  8
0
 10
94.4463
 20
7.96346
 11
93.2953
 21
7.99963
  0
LINE
  8
0
 10
93.2953
 20
7.99963
 11
92.1448
 21
7.94739
  0
LINE
  8
0
 10
92.1448
 20
7.94739
 11
91.0018
 21
7.80704
  0
LINE
  8
0
 10
91.0018
 20
7.80704
 11
89.8729
 21
7.57941
  0
LINE
  8
0
 10
89.8729
 20
7.57941
 11
88.7647
 21
7.26584
  0
LINE
  8
0
 10
88.7647
 20
7.26584
 11
87.684
 21
6.86818
  0
LINE
  8
0
 10
87.684
 20
6.86818
 11
86.6368
 21
6.38878
  0
LINE
  8
0
 10
86.6368
 20
6.38878
 11
85.6296
 21
5.83046
  0
LINE
  8
0
 10
85.6296
 20
5.83046
 11
84.6682
 21
5.1965
  0
LINE
  8
0
 10
84.6682
 20
5.1965
 11
83.7382
 21
4.47382
  0
LINE
  8
0
 10
83.7382
 20
4.47382
 11
82.8677
 21
3.68039
  0
LINE
  8
0
 10
82.8677
 20
3.68039
 11
82.0794
 21
2.84088
  0
LINE
  8
0
 10
82.0794
 20
2.84088
 11
81.3422
 21
1.92233
  0
LINE
  8
0
 10
81.3422
 20
1.92233
 11
80.6932
 21
0.970978
  0
LINE
  8
0
 10
80.6932
 20
0.970978
 11
80.1191
 21
-0.0273743
  0
LINE
  8
0
 10
80.1191
 20
-0.0273743
 11
79.6233
 21
-1.06682
  0
LINE
  8
0
 10
79.6233
 20
-1.06682
 11
79.2003
 21
-2.16602
  0
LINE
  8
0
 10
79.2003
 20
-2.16602
 11
78.8713
 21
-3.26965
  0
LINE
  8
0
 10
78.8713
 20
-3.26965
 11
78.6279
 21
-4.39528
  0
LINE
  8
0
 10
78.6279
 20
-4.39528
 11
78.4716
 21
-5.53627
  0
LINE
  8
0
 10
78.4716
 20
-5.53627
 11
78.4033
 21
-6.68587
  0
LINE
  8
0
 10
78.4033
 20
-6.68587
 11
78.4
 21
-7
  0
LINE
  8
0
 10
78.4
 20
-7
 11
78.4
 21
-78
  0
LINE
  8
0
 10
78.4
 20
-78
 11
78.4437
 21
-78.4158
  0
LINE
  8
0
 10
78.4437
 20
-78.4158
 11
78.5729
 21
-78.8135
  0
LINE
  8
0
 10
78.5729
 20
-78.8135
 11
78.782
 21
-79.1756
  0
LINE
  8
0
 10
78.782
 20
-79.1756
 11
79.0617
 21
-79.4863
  0
LINE
  8
0
 10
79.0617
 20
-79.4863
 11
79.4
 21
-79.732
  0
LINE
  8
0
 10
79.4
 20
-79.732
 11
79.782
 21
-79.9021
  0
LINE
  8
0
 10
79.782
 20
-79.9021
 11
80.191
 21
-79.989
  0
LINE
  8
0
 10
80.191
 20
-79.989
 11
80.4
 21
-79.989
  0
LINE
  8
0
 10
80.4
 20
-79.989
 11
80.4
 21
-80
  0
LINE
  8
0
 10
80.4
 20
-80
 11
106.4
 21
-80
  0
LINE
  8
0
 10
106.4
 20
-80
 11
106.4
 21
-79.989
  0
LINE
  8
0
 10
93.0864
 20
-9.98357
 11
92.473
 21
-9.85316
  0
LINE
  8
0
 10
92.473
 20
-9.85316
 11
91.9
 21
-9.59807
  0
LINE
  8
0
 10
91.9
 20
-9.59807
 11
91.3926
 21
-9.22943
  0
LINE
  8
0
 10
91.3926
 20
-9.22943
 11
90.973
 21
-8.76335
  0
LINE
  8
0
 10
90.973
 20
-8.76335
 11
90.6594
 21
-8.2202
  0
LINE
  8
0
 10
90.6594
 20
-8.2202
 11
90.4656
 21
-7.62373
  0
LINE
  8
0
 10
90.4656
 20
-7.62373
 11
90.4
 21
-7
  0
LINE
  8
0
 10
90.4
 20
-7
 11
90.4656
 21
-6.37627
  0
LINE
  8
0
 10
90.4656
 20
-6.37627
 11
90.6594
 21
-5.7798
  0
LINE
  8
0
 10
90.6594
 20
-5.7798
 11
90.973
 21
-5.23665
  0
LINE
  8
0
 10
90.973
 20
-5.23665
 11
91.3926
 21
-4.77057
  0
LINE
  8
0
 10
91.3926
 20
-4.77057
 11
91.9
 21
-4.40193
  0
LINE
  8
0
 10
91.9
 20
-4.40193
 11
92.473
 21
-4.14684
  0
LINE
  8
0
 10
92.473
 20
-4.14684
 11
93.0864
 21
-4.01645
  0
LINE
  8
0
 10
93.0864
 20
-4.01645
 11
93.7136
 21
-4.01645
  0
LINE
  8
0
 10
93.7136
 20
-4.01645
 11
94.327
 21
-4.14684
  0
LINE
  8
0
 10
94.327
 20
-4.14684
 11
94.9
 21
-4.40193
  0
LINE
  8
0
 10
94.9
 20
-4.40193
 11
95.4074
 21
-4.77057
  0
LINE
  8
0
 10
95.4074
 20
-4.77057
 11
95.827
 21
-5.23665
  0
LINE
  8
0
 10
95.827
 20
-5.23665
 11
96.1406
 21
-5.7798
  0
LINE
  8
0
 10
96.1406
 20
-5.7798
 11
96.3344
 21
-6.37627
  0
LINE
  8
0
 10
96.3344
 20
-6.37627
 11
96.4
 21
-7
  0
LINE
  8
0
 10
96.4
 20
-7
 11
96.3344
 21
-7.62373
  0
LINE
  8
0
 10
96.3344
 20
-7.62373
 11
96.1406
 21
-8.2202
  0
LINE
  8
0
 10
96.1406
 20
-8.2202
 11
95.827
 21
-8.76335
  0
LINE
  8
0
 10
95.827
 20
-8.76335
 11
95.4074
 21
-9.22943
  0
LINE
  8
0
 10
95.4074
 20
-9.22943
 11
94.9
 21
-9.59807
  0
LINE
  8
0
 10
94.9
 20
-9.59807
 11
94.327
 21
-9.85316
  0
LINE
  8
0
 10
94.327
 20
-9.85316
 11
93.7136
 21
-9.98357
  0
LINE
  8
0
 10
93.7136
 20
-9.98357
 11
93.0864
 21
-9.98357
  0
LINE
  8
0
 10
99.2432
 20
-29.4918
 11
98.9365
 21
-29.4266
  0
LINE
  8
0
 10
98.9365
 20
-29.4266
 11
98.65
 21
-29.299
  0
LINE
  8
0
 10
98.65
 20
-29.299
 11
98.3963
 21
-29.1147
  0
LINE
  8
0
 10
98.3963
 20
-29.1147
 11
98.1865
 21
-28.8817
  0
LINE
  8
0
 10
98.1865
 20
-28.8817
 11
98.0297
 21
-28.6101
  0
LINE
  8
0
 10
98.0297
 20
-28.6101
 11
97.9328
 21
-28.3119
  0
LINE
  8
0
 10
97.9328
 20
-28.3119
 11
97.9
 21
-28
  0
LINE
  8
0
 10
97.9
 20
-28
 11
97.9328
 21
-27.6881
  0
LINE
  8
0
 10
97.9328
 20
-27.6881
 11
98.0297
 21
-27.3899
  0
LINE
  8
0
 10
98.0297
 20
-27.3899
 11
98.1865
 21
-27.1183
  0
LINE
  8
0
 10
98.1865
 20
-27.1183
 11
98.3963
 21
-26.8853
  0
LINE
  8
0
 10
98.3963
 20
-26.8853
 11
98.65
 21
-26.701
  0
LINE
  8
0
 10
98.65
 20
-26.701
 11
98.9365
 21
-26.5734
  0
LINE
  8
0
 10
98.9365
 20
-26.5734
 11
99.2432
 21
-26.5082
  0
LINE
  8
0
 10
99.2432
 20
-26.5082
 11
99.5568
 21
-26.5082
  0
LINE
  8
0
 10
99.5568
 20
-26.5082
 11
99.8635
 21
-26.5734
  0
LINE
  8
0
 10
99.8635
 20
-26.5734
 11
100.15
 21
-26.701
  0
LINE
  8
0
 10
100.15
 20
-26.701
 11
100.404
 21
-26.8853
  0
LINE
  8
0
 10
100.404
 20
-26.8853
 11
100.614
 21
-27.1183
  0
LINE
  8
0
 10
100.614
 20
-27.1183
 11
100.77
 21
-27.3899
  0
LINE
  8
0
 10
100.77
 20
-27.3899
 11
100.867
 21
-27.6881
  0
LINE
  8
0
 10
100.867
 20
-27.6881
 11
100.9
 21
-28
  0
LINE
  8
0
 10
100.9
 20
-28
 11
100.867
 21
-28.3119
  0
LINE
  8
0
 10
100.867
 20
-28.3119
 11
100.77
 21
-28.6101
  0
LINE
  8
0
 10
100.77
 20
-28.6101
 11
100.614
 21
-28.8817
  0
LINE
  8
0
 10
100.614
 20
-28.8817
 11
100.404
 21
-29.1147
  0
LINE
  8
0
 10
100.404
 20
-29.1147
 11
100.15
 21
-29.299
  0
LINE
  8
0
 10
100.15
 20
-29.299
 11
99.8635
 21
-29.4266
  0
LINE
  8
0
 10
99.8635
 20
-29.4266
 11
99.5568
 21
-29.4918
  0
LINE
  8
0
 10
99.5568
 20
-29.4918
 11
99.2432
 21
-29.4918
  0
LINE
  8
0
 10
87.2432
 20
-29.4918
 11
86.9365
 21
-29.4266
  0
LINE
  8
0
 10
86.9365
 20
-29.4266
 11
86.65
 21
-29.299
  0
LINE
  8
0
 10
86.65
 20
-29.299
 11
86.3963
 21
-29.1147
  0
LINE
  8
0
 10
86.3963
 20
-29.1147
 11
86.1865
 21
-28.8817
  0
LINE
  8
0
 10
86.1865
 20
-28.8817
 11
86.0297
 21
-28.6101
  0
LINE
  8
0
 10
86.0297
 20
-28.6101
 11
85.9328
 21
-28.3119
  0
LINE
  8
0
 10
85.9328
 20
-28.3119
 11
85.9
 21
-28
  0
LINE
  8
0
 10
85.9
 20
-28
 11
85.9328
 21
-27.6881
  0
LINE
  8
0
 10
85.9328
 20
-27.6881
 11
86.0297
 21
-27.3899
  0
LINE
  8
0
 10
86.0297
 20
-27.3899
 11
86.1865
 21
-27.1183
  0
LINE
  8
0
 10
86.1865
 20
-27.1183
 11
86.3963
 21
-26.8853
  0
LINE
  8
0
 10
86.3963
 20
-26.8853
 11
86.65
 21
-26.701
  0
LINE
  8
0
 10
86.65
 20
-26.701
 11
86.9365
 21
-26.5734
  0
LINE
  8
0
 10
86.9365
 20
-26.5734
 11
87.2432
 21
-26.5082
  0
LINE
  8
0
 10
87.2432
 20
-26.5082
 11
87.5568
 21
-26.5082
  0
LINE
  8
0
 10
87.5568
 20
-26.5082
 11
87.8635
 21
-26.5734
  0
LINE
  8
0
 10
87.8635
 20
-26.5734
 11
88.15
 21
-26.701
  0
LINE
  8
0
 10
88.15
 20
-26.701
 11
88.4037
 21
-26.8853
  0
LINE
  8
0
 10
88.4037
 20
-26.8853
 11
88.6135
 21
-27.1183
  0
LINE
  8
0
 10
88.6135
 20
-27.1183
 11
88.7703
 21
-27.3899
  0
LINE
  8
0
 10
88.7703
 20
-27.3899
 11
88.8672
 21
-27.6881
  0
LINE
  8
0
 10
88.8672
 20
-27.6881
 11
88.9
 21
-28
  0
LINE
  8
0
 10
88.9
 20
-28
 11
88.8672
 21
-28.3119
  0
LINE
  8
0
 10
88.8672
 20
-28.3119
 11
88.7703
 21
-28.6101
  0
LINE
  8
0
 10
88.7703
 20
-28.6101
 11
88.6135
 21
-28.8817
  0
LINE
  8
0
 10
88.6135
 20
-28.8817
 11
88.4037
 21
-29.1147
  0
LINE
  8
0
 10
88.4037
 20
-29.1147
 11
88.15
 21
-29.299
  0
LINE
  8
0
 10
88.15
 20
-29.299
 11
87.8635
 21
-29.4266
  0
LINE
  8
0
 10
87.8635
 20
-29.4266
 11
87.5568
 21
-29.4918
  0
LINE
  8
0
 10
87.5568
 20
-29.4918
 11
87.2432
 21
-29.4918
  0
LINE
  8
0
 10
83.4
 20
-72
 11
83.4
 21
-32
  0
LINE
  8
0
 10
83.4
 20
-32
 11
103.4
 21
-32
  0
LINE
  8
0
 10
103.4
 20
-32
 11
103.4
 21
-72
  0
LINE
  8
0
 10
103.4
 20
-72
 11
83.4
 21
-72
  0
LINE
  8
0
 10
87.2432
 20
-77.4918
 11
86.9365
 21
-77.4266
  0
LINE
  8
0
 10
86.9365
 20
-77.4266
 11
86.65
 21
-77.299
  0
LINE
  8
0
 10
86.65
 20
-77.299
 11
86.3963
 21
-77.1147
  0
LINE
  8
0
 10
86.3963
 20
-77.1147
 11
86.1865
 21
-76.8817
  0
LINE
  8
0
 10
86.1865
 20
-76.8817
 11
86.0297
 21
-76.6101
  0
LINE
  8
0
 10
86.0297
 20
-76.6101
 11
85.9328
 21
-76.3119
  0
LINE
  8
0
 10
85.9328
 20
-76.3119
 11
85.9
 21
-76
  0
LINE
  8
0
 10
85.9
 20
-76
 11
85.9328
 21
-75.6881
  0
LINE
  8
0
 10
85.9328
 20
-75.6881
 11
86.0297
 21
-75.3899
  0
LINE
  8
0
 10
86.0297
 20
-75.3899
 11
86.1865
 21
-75.1183
  0
LINE
  8
0
 10
86.1865
 20
-75.1183
 11
86.3963
 21
-74.8853
  0
LINE
  8
0
 10
86.3963
 20
-74.8853
 11
86.65
 21
-74.701
  0
LINE
  8
0
 10
86.65
 20
-74.701
 11
86.9365
 21
-74.5734
  0
LINE
  8
0
 10
86.9365
 20
-74.5734
 11
87.2432
 21
-74.5082
  0
LINE
  8
0
 10
87.2432
 20
-74.5082
 11
87.5568
 21
-74.5082
  0
LINE
  8
0
 10
87.5568
 20
-74.5082
 11
87.8635
 21
-74.5734
  0
LINE
  8
0
 10
87.8635
 20
-74.5734
 11
88.15
 21
-74.701
  0
LINE
  8
0
 10
88.15
 20
-74.701
 11
88.4037
 21
-74.8853
  0
LINE
  8
0
 10
88.4037
 20
-74.8853
 11
88.6135
 21
-75.1183
  0
LINE
  8
0
 10
88.6135
 20
-75.1183
 11
88.7703
 21
-75.3899
  0
LINE
  8
0
 10
88.7703
 20
-75.3899
 11
88.8672
 21
-75.6881
  0
LINE
  8
0
 10
88.8672
 20
-75.6881
 11
88.9
 21
-76
  0
LINE
  8
0
 10
88.9
 20
-76
 11
88.8672
 21
-76.3119
  0
LINE
  8
0
 10
88.8672
 20
-76.3119
 11
88.7703
 21
-76.6101
  0
LINE
  8
0
 10
88.7703
 20
-76.6101
 11
88.6135
 21
-76.8817
  0
LINE
  8
0
 10
88.6135
 20
-76.8817
 11
88.4037
 21
-77.1147
  0
LINE
  8
0
 10
88.4037
 20
-77.1147
 11
88.15
 21
-77.299
  0
LINE
  8
0
 10
88.15
 20
-77.299
 11
87.8635
 21
-77.4266
  0
LINE
  8
0
 10
87.8635
 20
-77.4266
 11
87.5568
 21
-77.4918
  0
LINE
  8
0
 10
87.5568
 20
-77.4918
 11
87.2432
 21
-77.4918
  0
LINE
  8
0
 10
99.2432
 20
-77.4918
 11
98.9365
 21
-77.4266
  0
LINE
  8
0
 10
98.9365
 20
-77.4266
 11
98.65
 21
-77.299
  0
LINE
  8
0
 10
98.65
 20
-77.299
 11
98.3963
 21
-77.1147
  0
LINE
  8
0
 10
98.3963
 20
-77.1147
 11
98.1865
 21
-76.8817
  0
LINE
  8
0
 10
98.1865
 20
-76.8817
 11
98.0297
 21
-76.6101
  0
LINE
  8
0
 10
98.0297
 20
-76.6101
 11
97.9328
 21
-76.3119
  0
LINE
  8
0
 10
97.9328
 20
-76.3119
 11
97.9
 21
-76
  0
LINE
  8
0
 10
97.9
 20
-76
 11
97.9328
 21
-75.6881
  0
LINE
  8
0
 10
97.9328
 20
-75.6881
 11
98.0297
 21
-75.3899
  0
LINE
  8
0
 10
98.0297
 20
-75.3899
 11
98.1865
 21
-75.1183
  0
LINE
  8
0
 10
98.1865
 20
-75.1183
 11
98.3963
 21
-74.8853
  0
LINE
  8
0
 10
98.3963
 20
-74.8853
 11
98.65
 21
-74.701
  0
LINE
  8
0
 10
98.65
 20
-74.701
 11
98.9365
 21
-74.5734
  0
LINE
  8
0
 10
98.9365
 20
-74.5734
 11
99.2432
 21
-74.5082
  0
LINE
  8
0
 10
99.2432
 20
-74.5082
 11
99.5568
 21
-74.5082
  0
LINE
  8
0
 10
99.5568
 20
-74.5082
 11
99.8635
 21
-74.5734
  0
LINE
  8
0
 10
99.8635
 20
-74.5734
 11
100.15
 21
-74.701
  0
LINE
  8
0
 10
100.15
 20
-74.701
 11
100.404
 21
-74.8853
  0
LINE
  8
0
 10
100.404
 20
-74.8853
 11
100.614
 21
-75.1183
  0
LINE
  8
0
 10
100.614
 20
-75.1183
 11
100.77
 21
-75.3899
  0
LINE
  8
0
 10
100.77
 20
-75.3899
 11
100.867
 21
-75.6881
  0
LINE
  8
0
 10
100.867
 20
-75.6881
 11
100.9
 21
-76
  0
LINE
  8
0
 10
100.9
 20
-76
 11
100.867
 21
-76.3119
  0
LINE
  8
0
 10
100.867
 20
-76.3119
 11
100.77
 21
-76.6101
  0
LINE
  8
0
 10
100.77
 20
-76.6101
 11
100.614
 21
-76.8817
  0
LINE
  8
0
 10
100.614
 20
-76.8817
 11
100.404
 21
-77.1147
  0
LINE
  8
0
 10
100.404
 20
-77.1147
 11
100.15
 21
-77.299
  0
LINE
  8
0
 10
100.15
 20
-77.299
 11
99.8635
 21
-77.4266
  0
LINE
  8
0
 10
99.8635
 20
-77.4266
 11
99.5568
 21
-77.4918
  0
LINE
  8
0
 10
99.5568
 20
-77.4918
 11
99.2432
 21
-77.4918
  0
LINE
  8
0
 10
68.4
 20
-79.989
 11
68.609
 21
-79.989
  0
LINE
  8
0
 10
68.609
 20
-79.989
 11
69.018
 21
-79.9021
  0
LINE
  8
0
 10
69.018
 20
-79.9021
 11
69.4
 21
-79.732
  0
LINE
  8
0
 10
69.4
 20
-79.732
 11
69.7383
 21
-79.4863
  0
LINE
  8
0
 10
69.7383
 20
-79.4863
 11
70.018
 21
-79.1756
  0
LINE
  8
0
 10
70.018
 20
-79.1756
 11
70.2271
 21
-78.8135
  0
LINE
  8
0
 10
70.2271
 20
-78.8135
 11
70.3563
 21
-78.4158
  0
LINE
  8
0
 10
70.3563
 20
-78.4158
 11
70.4
 21
-78
  0
LINE
  8
0
 10
70.4
 20
-78
 11
70.3889
 21
-6.42419
  0
LINE
  8
0
 10
70.3889
 20
-6.42419
 11
70.3006
 21
-5.27596
  0
LINE
  8
0
 10
70.3006
 20
-5.27596
 11
70.1244
 21
-4.13788
  0
LINE
  8
0
 10
70.1244
 20
-4.13788
 11
69.8614
 21
-3.01666
  0
LINE
  8
0
 10
69.8614
 20
-3.01666
 11
69.5132
 21
-1.91895
  0
LINE
  8
0
 10
69.5132
 20
-1.91895
 11
69.0818
 21
-0.851166
  0
LINE
  8
0
 10
69.0818
 20
-0.851166
 11
68.5697
 21
0.180374
  0
LINE
  8
0
 10
68.5697
 20
0.180374
 11
67.9658
 21
1.19153
  0
LINE
  8
0
 10
67.9658
 20
1.19153
 11
67.3003
 21
2.13141
  0
LINE
  8
0
 10
67.3003
 20
2.13141
 11
66.5647
 21
3.01749
  0
LINE
  8
0
 10
66.5647
 20
3.01749
 11
65.7632
 21
3.8445
  0
LINE
  8
0
 10
65.7632
 20
3.8445
 11
64.8804
 21
4.62416
  0
LINE
  8
0
 10
64.8804
 20
4.62416
 11
63.9607
 21
5.31723
  0
LINE
  8
0
 10
63.9607
 20
5.31723
 11
62.9905
 21
5.9377
  0
LINE
  8
0
 10
62.9905
 20
5.9377
 11
61.9756
 21
6.4819
  0
LINE
  8
0
 10
61.9756
 20
6.4819
 11
60.9219
 21
6.94664
  0
LINE
  8
0
 10
60.9219
 20
6.94664
 11
59.8356
 21
7.32916
  0
LINE
  8
0
 10
59.8356
 20
7.32916
 11
58.7232
 21
7.62723
  0
LINE
  8
0
 10
58.7232
 20
7.62723
 11
57.5912
 21
7.83908
  0
LINE
  8
0
 10
57.5912
 20
7.83908
 11
56.4463
 21
7.96346
  0
LINE
  8
0
 10
56.4463
 20
7.96346
 11
55.2953
 21
7.99963
  0
LINE
  8
0
 10
55.2953
 20
7.99963
 11
54.1448
 21
7.94739
  0
LINE
  8
0
 10
54.1448
 20
7.94739
 11
53.0018
 21
7.80704
  0
LINE
  8
0
 10
53.0018
 20
7.80704
 11
51.8729
 21
7.57941
  0
LINE
  8
0
 10
51.8729
 20
7.57941
 11
50.7647
 21
7.26584
  0
LINE
  8
0
 10
50.7647
 20
7.26584
 11
49.684
 21
6.86818
  0
LINE
  8
0
 10
49.684
 20
6.86818
 11
48.6368
 21
6.38878
  0
LINE
  8
0
 10
48.6368
 20
6.38878
 11
47.6296
 21
5.83046
  0
LINE
  8
0
 10
47.6296
 20
5.83046
 11
46.6682
 21
5.1965
  0
LINE
  8
0
 10
46.6682
 20
5.1965
 11
45.7382
 21
4.47382
  0
LINE
  8
0
 10
45.7382
 20
4.47382
 11
44.8677
 21
3.68039
  0
LINE
  8
0
 10
44.8677
 20
3.68039
 11
44.0794
 21
2.84088
  0
LINE
  8
0
 10
44.0794
 20
2.84088
 11
43.3422
 21
1.92233
  0
LINE
  8
0
 10
43.3422
 20
1.92233
 11
42.6932
 21
0.970978
  0
LINE
  8
0
 10
42.6932
 20
0.970978
 11
42.1191
 21
-0.0273743
  0
LINE
  8
0
 10
42.1191
 20
-0.0273743
 11
41.6233
 21
-1.06682
  0
LINE
  8
0
 10
41.6233
 20
-1.06682
 11
41.2003
 21
-2.16602
  0
LINE
  8
0
 10
41.2003
 20
-2.16602
 11
40.8713
 21
-3.26965
  0
LINE
  8
0
 10
40.8713
 20
-3.26965
 11
40.6279
 21
-4.39528
  0
LINE
  8
0
 10
40.6279
 20
-4.39528
 11
40.4716
 21
-5.53627
  0
LINE
  8
0
 10
40.4716
 20
-5.53627
 11
40.4033
 21
-6.68587
  0
LINE
  8
0
 10
40.4033
 20
-6.68587
 11
40.4
 21
-7
  0
LINE
  8
0
 10
40.4
 20
-7
 11
40.4
 21
-78
  0
LINE
  8
0
 10
40.4
 20
-78
 11
40.4437
 21
-78.4158
  0
LINE
  8
0
 10
40.4437
 20
-78.4158
 11
40.5729
 21
-78.8135
  0
LINE
  8
0
 10
40.5729
 20
-78.8135
 11
40.782
 21
-79.1756
  0
LINE
  8
0
 10
40.782
 20
-79.1756
 11
41.0617
 21
-79.4863
  0
LINE
  8
0
 10
41.0617
 20
-79.4863
 11
41.4
 21
-79.732
  0
LINE
  8
0
 10
41.4
 20
-79.732
 11
41.782
 21
-79.9021
  0
LINE
  8
0
 10
41.782
 20
-79.9021
 11
42.191
 21
-79.989
  0
LINE
  8
0
 10
42.191
 20
-79.989
 11
42.4
 21
-79.989
  0
LINE
  8
0
 10
42.4
 20
-79.989
 11
42.4
 21
-80
  0
LINE
  8
0
 10
42.4
 20
-80
 11
68.4
 21
-80
  0
LINE
  8
0
 10
68.4
 20
-80
 11
68.4
 21
-79.989
  0
LINE
  8
0
 10
55.0864
 20
-9.98357
 11
54.473
 21
-9.85316
  0
LINE
  8
0
 10
54.473
 20
-9.85316
 11
53.9
 21
-9.59807
  0
LINE
  8
0
 10
53.9
 20
-9.59807
 11
53.3926
 21
-9.22943
  0
LINE
  8
0
 10
53.3926
 20
-9.22943
 11
52.973
 21
-8.76335
  0
LINE
  8
0
 10
52.973
 20
-8.76335
 11
52.6594
 21
-8.2202
  0
LINE
  8
0
 10
52.6594
 20
-8.2202
 11
52.4656
 21
-7.62373
  0
LINE
  8
0
 10
52.4656
 20
-7.62373
 11
52.4
 21
-7
  0
LINE
  8
0
 10
52.4
 20
-7
 11
52.4656
 21
-6.37627
  0
LINE
  8
0
 10
52.4656
 20
-6.37627
 11
52.6594
 21
-5.7798
  0
LINE
  8
0
 10
52.6594
 20
-5.7798
 11
52.973
 21
-5.23665
  0
LINE
  8
0
 10
52.973
 20
-5.23665
 11
53.3926
 21
-4.77057
  0
LINE
  8
0
 10
53.3926
 20
-4.77057
 11
53.9
 21
-4.40193
  0
LINE
  8
0
 10
53.9
 20
-4.40193
 11
54.473
 21
-4.14684
  0
LINE
  8
0
 10
54.473
 20
-4.14684
 11
55.0864
 21
-4.01645
  0
LINE
  8
0
 10
55.0864
 20
-4.01645
 11
55.7136
 21
-4.01645
  0
LINE
  8
0
 10
55.7136
 20
-4.01645
 11
56.327
 21
-4.14684
  0
LINE
  8
0
 10
56.327
 20
-4.14684
 11
56.9
 21
-4.40193
  0
LINE
  8
0
 10
56.9
 20
-4.40193
 11
57.4074
 21
-4.77057
  0
LINE
  8
0
 10
57.4074
 20
-4.77057
 11
57.827
 21
-5.23665
  0
LINE
  8
0
 10
57.827
 20
-5.23665
 11
58.1406
 21
-5.7798
  0
LINE
  8
0
 10
58.1406
 20
-5.7798
 11
58.3344
 21
-6.37627
  0
LINE
  8
0
 10
58.3344
 20
-6.37627
 11
58.4
 21
-7
  0
LINE
  8
0
 10
58.4
 20
-7
 11
58.3344
 21
-7.62373
  0
LINE
  8
0
 10
58.3344
 20
-7.62373
 11
58.1406
 21
-8.2202
  0
LINE
  8
0
 10
58.1406
 20
-8.2202
 11
57.827
 21
-8.76335
  0
LINE
  8
0
 10
57.827
 20
-8.76335
 11
57.4074
 21
-9.22943
  0
LINE
  8
0
 10
57.4074
 20
-9.22943
 11
56.9
 21
-9.59807
  0
LINE
  8
0
 10
56.9
 20
-9.59807
 11
56.327
 21
-9.85316
  0
LINE
  8
0
 10
56.327
 20
-9.85316
 11
55.7136
 21
-9.98357
  0
LINE
  8
0
 10
55.7136
 20
-9.98357
 11
55.0864
 21
-9.98357
  0
LINE
  8
0
 10
61.2432
 20
-29.4918
 11
60.9365
 21
-29.4266
  0
LINE
  8
0
 10
60.9365
 20
-29.4266
 11
60.65
 21
-29.299
  0
LINE
  8
0
 10
60.65
 20
-29.299
 11
60.3963
 21
-29.1147
  0
LINE
  8
0
 10
60.3963
 20
-29.1147
 11
60.1865
 21
-28.8817
  0
LINE
  8
0
 10
60.1865
 20
-28.8817
 11
60.0297
 21
-28.6101
  0
LINE
  8
0
 10
60.0297
 20
-28.6101
 11
59.9328
 21
-28.3119
  0
LINE
  8
0
 10
59.9328
 20
-28.3119
 11
59.9
 21
-28
  0
LINE
  8
0
 10
59.9
 20
-28
 11
59.9328
 21
-27.6881
  0
LINE
  8
0
 10
59.9328
 20
-27.6881
 11
60.0297
 21
-27.3899
  0
LINE
  8
0
 10
60.0297
 20
-27.3899
 11
60.1865
 21
-27.1183
  0
LINE
  8
0
 10
60.1865
 20
-27.1183
 11
60.3963
 21
-26.8853
  0
LINE
  8
0
 10
60.3963
 20
-26.8853
 11
60.65
 21
-26.701
  0
LINE
  8
0
 10
60.65
 20
-26.701
 11
60.9365
 21
-26.5734
  0
LINE
  8
0
 10
60.9365
 20
-26.5734
 11
61.2432
 21
-26.5082
  0
LINE
  8
0
 10
61.2432
 20
-26.5082
 11
61.5568
 21
-26.5082
  0
LINE
  8
0
 10
61.5568
 20
-26.5082
 11
61.8635
 21
-26.5734
  0
LINE
  8
0
 10
61.8635
 20
-26.5734
 11
62.15
 21
-26.701
  0
LINE
  8
0
 10
62.15
 20
-26.701
 11
62.4037
 21
-26.8853
  0
LINE
  8
0
 10
62.4037
 20
-26.8853
 11
62.6135
 21
-27.1183
  0
LINE
  8
0
 10
62.6135
 20
-27.1183
 11
62.7703
 21
-27.3899
  0
LINE
  8
0
 10
62.7703
 20
-27.3899
 11
62.8672
 21
-27.6881
  0
LINE
  8
0
 10
62.8672
 20
-27.6881
 11
62.9
 21
-28
  0
LINE
  8
0
 10
62.9
 20
-28
 11
62.8672
 21
-28.3119
  0
LINE
  8
0
 10
62.8672
 20
-28.3119
 11
62.7703
 21
-28.6101
  0
LINE
  8
0
 10
62.7703
 20
-28.6101
 11
62.6135
 21
-28.8817
  0
LINE
  8
0
 10
62.6135
 20
-28.8817
 11
62.4037
 21
-29.1147
  0
LINE
  8
0
 10
62.4037
 20
-29.1147
 11
62.15
 21
-29.299
  0
LINE
  8
0
 10
62.15
 20
-29.299
 11
61.8635
 21
-29.4266
  0
LINE
  8
0
 10
61.8635
 20
-29.4266
 11
61.5568
 21
-29.4918
  0
LINE
  8
0
 10
61.5568
 20
-29.4918
 11
61.2432
 21
-29.4918
  0
LINE
  8
0
 10
49.2432
 20
-29.4918
 11
48.9365
 21
-29.4266
  0
LINE
  8
0
 10
48.9365
 20
-29.4266
 11
48.65
 21
-29.299
  0
LINE
  8
0
 10
48.65
 20
-29.299
 11
48.3963
 21
-29.1147
  0
LINE
  8
0
 10
48.3963
 20
-29.1147
 11
48.1865
 21
-28.8817
  0
LINE
  8
0
 10
48.1865
 20
-28.8817
 11
48.0297
 21
-28.6101
  0
LINE
  8
0
 10
48.0297
 20
-28.6101
 11
47.9328
 21
-28.3119
  0
LINE
  8
0
 10
47.9328
 20
-28.3119
 11
47.9
 21
-28
  0
LINE
  8
0
 10
47.9
 20
-28
 11
47.9328
 21
-27.6881
  0
LINE
  8
0
 10
47.9328
 20
-27.6881
 11
48.0297
 21
-27.3899
  0
LINE
  8
0
 10
48.0297
 20
-27.3899
 11
48.1865
 21
-27.1183
  0
LINE
  8
0
 10
48.1865
 20
-27.1183
 11
48.3963
 21
-26.8853
  0
LINE
  8
0
 10
48.3963
 20
-26.8853
 11
48.65
 21
-26.701
  0
LINE
  8
0
 10
48.65
 20
-26.701
 11
48.9365
 21
-26.5734
  0
LINE
  8
0
 10
48.9365
 20
-26.5734
 11
49.2432
 21
-26.5082
  0
LINE
  8
0
 10
49.2432
 20
-26.5082
 11
49.5568
 21
-26.5082
  0
LINE
  8
0
 10
49.5568
 20
-26.5082
 11
49.8635
 21
-26.5734
  0
LINE
  8
0
 10
49.8635
 20
-26.5734
 11
50.15
 21
-26.701
  0
LINE
  8
0
 10
50.15
 20
-26.701
 11
50.4037
 21
-26.8853
  0
LINE
  8
0
 10
50.4037
 20
-26.8853
 11
50.6135
 21
-27.1183
  0
LINE
  8
0
 10
50.6135
 20
-27.1183
 11
50.7703
 21
-27.3899
  0
LINE
  8
0
 10
50.7703
 20
-27.3899
 11
50.8672
 21
-27.6881
  0
LINE
  8
0
 10
50.8672
 20
-27.6881
 11
50.9
 21
-28
  0
LINE
  8
0
 10
50.9
 20
-28
 11
50.8672
 21
-28.3119
  0
LINE
  8
0
 10
50.8672
 20
-28.3119
 11
50.7703
 21
-28.6101
  0
LINE
  8
0
 10
50.7703
 20
-28.6101
 11
50.6135
 21
-28.8817
  0
LINE
  8
0
 10
50.6135
 20
-28.8817
 11
50.4037
 21
-29.1147
  0
LINE
  8
0
 10
50.4037
 20
-29.1147
 11
50.15
 21
-29.299
  0
LINE
  8
0
 10
50.15
 20
-29.299
 11
49.8635
 21
-29.4266
  0
LINE
  8
0
 10
49.8635
 20
-29.4266
 11
49.5568
 21
-29.4918
  0
LINE
  8
0
 10
49.5568
 20
-29.4918
 11
49.2432
 21
-29.4918
  0
LINE
  8
0
 10
45.4
 20
-72
 11
45.4
 21
-32
  0
LINE
  8
0
 10
45.4
 20
-32
 11
65.4
 21
-32
  0
LINE
  8
0
 10
65.4
 20
-32
 11
65.4
 21
-72
  0
LINE
  8
0
 10
65.4
 20
-72
 11
45.4
 21
-72
  0
LINE
  8
0
 10
49.2432
 20
-77.4918
 11
48.9365
 21
-77.4266
  0
LINE
  8
0
 10
48.9365
 20
-77.4266
 11
48.65
 21
-77.299
  0
LINE
  8
0
 10
48.65
 20
-77.299
 11
48.3963
 21
-77.1147
  0
LINE
  8
0
 10
48.3963
 20
-77.1147
 11
48.1865
 21
-76.8817
  0
LINE
  8
0
 10
48.1865
 20
-76.8817
 11
48.0297
 21
-76.6101
  0
LINE
  8
0
 10
48.0297
 20
-76.6101
 11
47.9328
 21
-76.3119
  0
LINE
  8
0
 10
47.9328
 20
-76.3119
 11
47.9
 21
-76
  0
LINE
  8
0
 10
47.9
 20
-76
 11
47.9328
 21
-75.6881
  0
LINE
  8
0
 10
47.9328
 20
-75.6881
 11
48.0297
 21
-75.3899
  0
LINE
  8
0
 10
48.0297
 20
-75.3899
 11
48.1865
 21
-75.1183
  0
LINE
  8
0
 10
48.1865
 20
-75.1183
 11
48.3963
 21
-74.8853
  0
LINE
  8
0
 10
48.3963
 20
-74.8853
 11
48.65
 21
-74.701
  0
LINE
  8
0
 10
48.65
 20
-74.701
 11
48.9365
 21
-74.5734
  0
LINE
  8
0
 10
48.9365
 20
-74.5734
 11
49.2432
 21
-74.5082
  0
LINE
  8
0
 10
49.2432
 20
-74.5082
 11
49.5568
 21
-74.5082
  0
LINE
  8
0
 10
49.5568
 20
-74.5082
 11
49.8635
 21
-74.5734
  0
LINE
  8
0
 10
49.8635
 20
-74.5734
 11
50.15
 21
-74.701
  0
LINE
  8
0
 10
50.15
 20
-74.701
 11
50.4037
 21
-74.8853
  0
LINE
  8
0
 10
50.4037
 20
-74.8853
 11
50.6135
 21
-75.1183
  0
LINE
  8
0
 10
50.6135
 20
-75.1183
 11
50.7703
 21
-75.3899
  0
LINE
  8
0
 10
50.7703
 20
-75.3899
 11
50.8672
 21
-75.6881
  0
LINE
  8
0
 10
50.8672
 20
-75.6881
 11
50.9
 21
-76
  0
LINE
  8
0
 10
50.9
 20
-76
 11
50.8672
 21
-76.3119
  0
LINE
  8
0
 10
50.8672
 20
-76.3119
 11
50.7703
 21
-76.6101
  0
LINE
  8
0
 10
50.7703
 20
-76.6101
 11
50.6135
 21
-76.8817
  0
LINE
  8
0
 10
50.6135
 20
-76.8817
 11
50.4037
 21
-77.1147
  0
LINE
  8
0
 10
50.4037
 20
-77.1147
 11
50.15
 21
-77.299
  0
LINE
  8
0
 10
50.15
 20
-77.299
 11
49.8635
 21
-77.4266
  0
LINE
  8
0
 10
49.8635
 20
-77.4266
 11
49.5568
 21
-77.4918
  0
LINE
  8
0
 10
49.5568
 20
-77.4918
 11
49.2432
 21
-77.4918
  0
LINE
  8
0
 10
61.2432
 20
-77.4918
 11
60.9365
 21
-77.4266
  0
LINE
  8
0
 10
60.9365
 20
-77.4266
 11
60.65
 21
-77.299
  0
LINE
  8
0
 10
60.65
 20
-77.299
 11
60.3963
 21
-77.1147
  0
LINE
  8
0
 10
60.3963
 20
-77.1147
 11
60.1865
 21
-76.8817
  0
LINE
  8
0
 10
60.1865
 20
-76.8817
 11
60.0297
 21
-76.6101
  0
LINE
  8
0
 10
60.0297
 20
-76.6101
 11
59.9328
 21
-76.3119
  0
LINE
  8
0
 10
59.9328
 20
-76.3119
 11
59.9
 21
-76
  0
LINE
  8
0
 10
59.9
 20
-76
 11
59.9328
 21
-75.6881
  0
LINE
  8
0
 10
59.9328
 20
-75.6881
 11
60.0297
 21
-75.3899
  0
LINE
  8
0
 10
60.0297
 20
-75.3899
 11
60.1865
 21
-75.1183
  0
LINE
  8
0
 10
60.1865
 20
-75.1183
 11
60.3963
 21
-74.8853
  0
LINE
  8
0
 10
60.3963
 20
-74.8853
 11
60.65
 21
-74.701
  0
LINE
  8
0
 10
60.65
 20
-74.701
 11
60.9365
 21
-74.5734
  0
LINE
  8
0
 10
60.9365
 20
-74.5734
 11
61.2432
 21
-74.5082
  0
LINE
  8
0
 10
61.2432
 20
-74.5082
 11
61.5568
 21
-74.5082
  0
LINE
  8
0
 10
61.5568
 20
-74.5082
 11
61.8635
 21
-74.5734
  0
LINE
  8
0
 10
61.8635
 20
-74.5734
 11
62.15
 21
-74.701
  0
LINE
  8
0
 10
62.15
 20
-74.701
 11
62.4037
 21
-74.8853
  0
LINE
  8
0
 10
62.4037
 20
-74.8853
 11
62.6135
 21
-75.1183
  0
LINE
  8
0
 10
62.6135
 20
-75.1183
 11
62.7703
 21
-75.3899
  0
LINE
  8
0
 10
62.7703
 20
-75.3899
 11
62.8672
 21
-75.6881
  0
LINE
  8
0
 10
62.8672
 20
-75.6881
 11
62.9
 21
-76
  0
LINE
  8
0
 10
62.9
 20
-76
 11
62.8672
 21
-76.3119
  0
LINE
  8
0
 10
62.8672
 20
-76.3119
 11
62.7703
 21
-76.6101
  0
LINE
  8
0
 10
62.7703
 20
-76.6101
 11
62.6135
 21
-76.8817
  0
LINE
  8
0
 10
62.6135
 20
-76.8817
 11
62.4037
 21
-77.1147
  0
LINE
  8
0
 10
62.4037
 20
-77.1147
 11
62.15
 21
-77.299
  0
LINE
  8
0
 10
62.15
 20
-77.299
 11
61.8635
 21
-77.4266
  0
LINE
  8
0
 10
61.8635
 20
-77.4266
 11
61.5568
 21
-77.4918
  0
LINE
  8
0
 10
61.5568
 20
-77.4918
 11
61.2432
 21
-77.4918
  0
LINE
  8
0
 10
-80.6
 20
-79.989
 11
-80.391
 21
-79.989
  0
LINE
  8
0
 10
-80.391
 20
-79.989
 11
-79.982
 21
-79.9021
  0
LINE
  8
0
 10
-79.982
 20
-79.9021
 11
-79.6
 21
-79.732
  0
LINE
  8
0
 10
-79.6
 20
-79.732
 11
-79.2617
 21
-79.4863
  0
LINE
  8
0
 10
-79.2617
 20
-79.4863
 11
-78.982
 21
-79.1756
  0
LINE
  8
0
 10
-78.982
 20
-79.1756
 11
-78.7729
 21
-78.8135
  0
LINE
  8
0
 10
-78.7729
 20
-78.8135
 11
-78.6437
 21
-78.4158
  0
LINE
  8
0
 10
-78.6437
 20
-78.4158
 11
-78.6
 21
-78
  0
LINE
  8
0
 10
-78.6
 20
-78
 11
-78.6111
 21
-6.42419
  0
LINE
  8
0
 10
-78.6111
 20
-6.42419
 11
-78.6994
 21
-5.27596
  0
LINE
  8
0
 10
-78.6994
 20
-5.27596
 11
-78.8756
 21
-4.13788
  0
LINE
  8
0
 10
-78.8756
 20
-4.13788
 11
-79.1386
 21
-3.01666
  0
LINE
  8
0
 10
-79.1386
 20
-3.01666
 11
-79.4868
 21
-1.91895
  0
LINE
  8
0
 10
-79.4868
 20
-1.91895
 11
-79.9182
 21
-0.851166
  0
LINE
  8
0
 10
-79.9182
 20
-0.851166
 11
-80.4303
 21
0.180374
  0
LINE
  8
0
 10
-80.4303
 20
0.180374
 11
-81.0342
 21
1.19153
  0
LINE
  8
0
 10
-81.0342
 20
1.19153
 11
-81.6997
 21
2.13141
  0
LINE
  8
0
 10
-81.6997
 20
2.13141
 11
-82.4353
 21
3.01749
  0
LINE
  8
0
 10
-82.4353
 20
3.01749
 11
-83.2368
 21
3.8445
  0
LINE
  8
0
 10
-83.2368
 20
3.8445
 11
-84.1196
 21
4.62416
  0
LINE
  8
0
 10
-84.1196
 20
4.62416
 11
-85.0393
 21
5.31723
  0
LINE
  8
0
 10
-85.0393
 20
5.31723
 11
-86.0095
 21
5.9377
  0
LINE
  8
0
 10
-86.0095
 20
5.9377
 11
-87.0244
 21
6.4819
  0
LINE
  8
0
 10
-87.0244
 20
6.4819
 11
-88.0781
 21
6.94664
  0
LINE
  8
0
 10
-88.0781
 20
6.94664
 11
-89.1644
 21
7.32916
  0
LINE
  8
0
 10
-89.1644
 20
7.32916
 11
-90.2768
 21
7.62723
  0
LINE
  8
0
 10
-90.2768
 20
7.62723
 11
-91.4088
 21
7.83908
  0
LINE
  8
0
 10
-91.4088
 20
7.83908
 11
-92.5537
 21
7.96346
  0
LINE
  8
0
 10
-92.5537
 20
7.96346
 11
-93.7047
 21
7.99963
  0
LINE
  8
0
 10
-93.7047
 20
7.99963
 11
-94.8552
 21
7.94739
  0
LINE
  8
0
 10
-94.8552
 20
7.94739
 11
-95.9982
 21
7.80704
  0
LINE
  8
0
 10
-95.9982
 20
7.80704
 11
-97.1271
 21
7.57941
  0
LINE
  8
0
 10
-97.1271
 20
7.57941
 11
-98.2353
 21
7.26584
  0
LINE
  8
0
 10
-98.2353
 20
7.26584
 11
-99.316
 21
6.86818
  0
LINE
  8
0
 10
-99.316
 20
6.86818
 11
-100.363
 21
6.38878
  0
LINE
  8
0
 10
-100.363
 20
6.38878
 11
-101.37
 21
5.83046
  0
LINE
  8
0
 10
-101.37
 20
5.83046
 11
-102.332
 21
5.1965
  0
LINE
  8
0
 10
-102.332
 20
5.1965
 11
-103.262
 21
4.47382
  0
LINE
  8
0
 10
-103.262
 20
4.47382
 11
-104.132
 21
3.68039
  0
LINE
  8
0
 10
-104.132
 20
3.68039
 11
-104.921
 21
2.84088
  0
LINE
  8
0
 10
-104.921
 20
2.84088
 11
-105.658
 21
1.92233
  0
LINE
  8
0
 10
-105.658
 20
1.92233
 11
-106.307
 21
0.970978
  0
LINE
  8
0
 10
-106.307
 20
0.970978
 11
-106.881
 21
-0.0273743
  0
LINE
  8
0
 10
-106.881
 20
-0.0273743
 11
-107.377
 21
-1.06682
  0
LINE
  8
0
 10
-107.377
 20
-1.06682
 11
-107.8
 21
-2.16602
  0
LINE
  8
0
 10
-107.8
 20
-2.16602
 11
-108.129
 21
-3.26965
  0
LINE
  8
0
 10
-108.129
 20
-3.26965
 11
-108.372
 21
-4.39528
  0
LINE
  8
0
 10
-108.372
 20
-4.39528
 11
-108.528
 21
-5.53627
  0
LINE
  8
0
 10
-108.528
 20
-5.53627
 11
-108.597
 21
-6.68587
  0
LINE
  8
0
 10
-108.597
 20
-6.68587
 11
-108.6
 21
-7
  0
LINE
  8
0
 10
-108.6
 20
-7
 11
-108.6
 21
-78
  0
LINE
  8
0
 10
-108.6
 20
-78
 11
-108.556
 21
-78.4158
  0
LINE
  8
0
 10
-108.556
 20
-78.4158
 11
-108.427
 21
-78.8135
  0
LINE
  8
0
 10
-108.427
 20
-78.8135
 11
-108.218
 21
-79.1756
  0
LINE
  8
0
 10
-108.218
 20
-79.1756
 11
-107.938
 21
-79.4863
  0
LINE
  8
0
 10
-107.938
 20
-79.4863
 11
-107.6
 21
-79.732
  0
LINE
  8
0
 10
-107.6
 20
-79.732
 11
-107.218
 21
-79.9021
  0
LINE
  8
0
 10
-107.218
 20
-79.9021
 11
-106.809
 21
-79.989
  0
LINE
  8
0
 10
-106.809
 20
-79.989
 11
-106.6
 21
-79.989
  0
LINE
  8
0
 10
-106.6
 20
-79.989
 11
-106.6
 21
-80
  0
LINE
  8
0
 10
-106.6
 20
-80
 11
-80.6
 21
-80
  0
LINE
  8
0
 10
-80.6
 20
-80
 11
-80.6
 21
-79.989
  0
LINE
  8
0
 10
-93.9136
 20
-9.98357
 11
-94.527
 21
-9.85316
  0
LINE
  8
0
 10
-94.527
 20
-9.85316
 11
-95.1
 21
-9.59807
  0
LINE
  8
0
 10
-95.1
 20
-9.59807
 11
-95.6074
 21
-9.22943
  0
LINE
  8
0
 10
-95.6074
 20
-9.22943
 11
-96.027
 21
-8.76335
  0
LINE
  8
0
 10
-96.027
 20
-8.76335
 11
-96.3406
 21
-8.2202
  0
LINE
  8
0
 10
-96.3406
 20
-8.2202
 11
-96.5344
 21
-7.62373
  0
LINE
  8
0
 10
-96.5344
 20
-7.62373
 11
-96.6
 21
-7
  0
LINE
  8
0
 10
-96.6
 20
-7
 11
-96.5344
 21
-6.37627
  0
LINE
  8
0
 10
-96.5344
 20
-6.37627
 11
-96.3406
 21
-5.7798
  0
LINE
  8
0
 10
-96.3406
 20
-5.7798
 11
-96.027
 21
-5.23665
  0
LINE
  8
0
 10
-96.027
 20
-5.23665
 11
-95.6074
 21
-4.77057
  0
LINE
  8
0
 10
-95.6074
 20
-4.77057
 11
-95.1
 21
-4.40193
  0
LINE
  8
0
 10
-95.1
 20
-4.40193
 11
-94.527
 21
-4.14684
  0
LINE
  8
0
 10
-94.527
 20
-4.14684
 11
-93.9136
 21
-4.01645
  0
LINE
  8
0
 10
-93.9136
 20
-4.01645
 11
-93.2864
 21
-4.01645
  0
LINE
  8
0
 10
-93.2864
 20
-4.01645
 11
-92.673
 21
-4.14684
  0
LINE
  8
0
 10
-92.673
 20
-4.14684
 11
-92.1
 21
-4.40193
  0
LINE
  8
0
 10
-92.1
 20
-4.40193
 11
-91.5926
 21
-4.77057
  0
LINE
  8
0
 10
-91.5926
 20
-4.77057
 11
-91.173
 21
-5.23665
  0
LINE
  8
0
 10
-91.173
 20
-5.23665
 11
-90.8594
 21
-5.7798
  0
LINE
  8
0
 10
-90.8594
 20
-5.7798
 11
-90.6656
 21
-6.37627
  0
LINE
  8
0
 10
-90.6656
 20
-6.37627
 11
-90.6
 21
-7
  0
LINE
  8
0
 10
-90.6
 20
-7
 11
-90.6656
 21
-7.62373
  0
LINE
  8
0
 10
-90.6656
 20
-7.62373
 11
-90.8594
 21
-8.2202
  0
LINE
  8
0
 10
-90.8594
 20
-8.2202
 11
-91.173
 21
-8.76335
  0
LINE
  8
0
 10
-91.173
 20
-8.76335
 11
-91.5926
 21
-9.22943
  0
LINE
  8
0
 10
-91.5926
 20
-9.22943
 11
-92.1
 21
-9.59807
  0
LINE
  8
0
 10
-92.1
 20
-9.59807
 11
-92.673
 21
-9.85316
  0
LINE
  8
0
 10
-92.673
 20
-9.85316
 11
-93.2864
 21
-9.98357
  0
LINE
  8
0
 10
-93.2864
 20
-9.98357
 11
-93.9136
 21
-9.98357
  0
LINE
  8
0
 10
-99.7568
 20
-29.4918
 11
-100.064
 21
-29.4266
  0
LINE
  8
0
 10
-100.064
 20
-29.4266
 11
-100.35
 21
-29.299
  0
LINE
  8
0
 10
-100.35
 20
-29.299
 11
-100.604
 21
-29.1147
  0
LINE
  8
0
 10
-100.604
 20
-29.1147
 11
-100.814
 21
-28.8817
  0
LINE
  8
0
 10
-100.814
 20
-28.8817
 11
-100.97
 21
-28.6101
  0
LINE
  8
0
 10
-100.97
 20
-28.6101
 11
-101.067
 21
-28.3119
  0
LINE
  8
0
 10
-101.067
 20
-28.3119
 11
-101.1
 21
-28
  0
LINE
  8
0
 10
-101.1
 20
-28
 11
-101.067
 21
-27.6881
  0
LINE
  8
0
 10
-101.067
 20
-27.6881
 11
-100.97
 21
-27.3899
  0
LINE
  8
0
 10
-100.97
 20
-27.3899
 11
-100.814
 21
-27.1183
  0
LINE
  8
0
 10
-100.814
 20
-27.1183
 11
-100.604
 21
-26.8853
  0
LINE
  8
0
 10
-100.604
 20
-26.8853
 11
-100.35
 21
-26.701
  0
LINE
  8
0
 10
-100.35
 20
-26.701
 11
-100.064
 21
-26.5734
  0
LINE
  8
0
 10
-100.064
 20
-26.5734
 11
-99.7568
 21
-26.5082
  0
LINE
  8
0
 10
-99.7568
 20
-26.5082
 11
-99.4432
 21
-26.5082
  0
LINE
  8
0
 10
-99.4432
 20
-26.5082
 11
-99.1365
 21
-26.5734
  0
LINE
  8
0
 10
-99.1365
 20
-26.5734
 11
-98.85
 21
-26.701
  0
LINE
  8
0
 10
-98.85
 20
-26.701
 11
-98.5963
 21
-26.8853
  0
LINE
  8
0
 10
-98.5963
 20
-26.8853
 11
-98.3865
 21
-27.1183
  0
LINE
  8
0
 10
-98.3865
 20
-27.1183
 11
-98.2297
 21
-27.3899
  0
LINE
  8
0
 10
-98.2297
 20
-27.3899
 11
-98.1328
 21
-27.6881
  0
LINE
  8
0
 10
-98.1328
 20
-27.6881
 11
-98.1
 21
-28
  0
LINE
  8
0
 10
-98.1
 20
-28
 11
-98.1328
 21
-28.3119
  0
LINE
  8
0
 10
-98.1328
 20
-28.3119
 11
-98.2297
 21
-28.6101
  0
LINE
  8
0
 10
-98.2297
 20
-28.6101
 11
-98.3865
 21
-28.8817
  0
LINE
  8
0
 10
-98.3865
 20
-28.8817
 11
-98.5963
 21
-29.1147
  0
LINE
  8
0
 10
-98.5963
 20
-29.1147
 11
-98.85
 21
-29.299
  0
LINE
  8
0
 10
-98.85
 20
-29.299
 11
-99.1365
 21
-29.4266
  0
LINE
  8
0
 10
-99.1365
 20
-29.4266
 11
-99.4432
 21
-29.4918
  0
LINE
  8
0
 10
-99.4432
 20
-29.4918
 11
-99.7568
 21
-29.4918
  0
LINE
  8
0
 10
-87.7568
 20
-29.4918
 11
-88.0635
 21
-29.4266
  0
LINE
  8
0
 10
-88.0635
 20
-29.4266
 11
-88.35
 21
-29.299
  0
LINE
  8
0
 10
-88.35
 20
-29.299
 11
-88.6037
 21
-29.1147
  0
LINE
  8
0
 10
-88.6037
 20
-29.1147
 11
-88.8135
 21
-28.8817
  0
LINE
  8
0
 10
-88.8135
 20
-28.8817
 11
-88.9703
 21
-28.6101
  0
LINE
  8
0
 10
-88.9703
 20
-28.6101
 11
-89.0672
 21
-28.3119
  0
LINE
  8
0
 10
-89.0672
 20
-28.3119
 11
-89.1
 21
-28
  0
LINE
  8
0
 10
-89.1
 20
-28
 11
-89.0672
 21
-27.6881
  0
LINE
  8
0
 10
-89.0672
 20
-27.6881
 11
-88.9703
 21
-27.3899
  0
LINE
  8
0
 10
-88.9703
 20
-27.3899
 11
-88.8135
 21
-27.1183
  0
LINE
  8
0
 10
-88.8135
 20
-27.1183
 11
-88.6037
 21
-26.8853
  0
LINE
  8
0
 10
-88.6037
 20
-26.8853
 11
-88.35
 21
-26.701
  0
LINE
  8
0
 10
-88.35
 20
-26.701
 11
-88.0635
 21
-26.5734
  0
LINE
  8
0
 10
-88.0635
 20
-26.5734
 11
-87.7568
 21
-26.5082
  0
LINE
  8
0
 10
-87.7568
 20
-26.5082
 11
-87.4432
 21
-26.5082
  0
LINE
  8
0
 10
-87.4432
 20
-26.5082
 11
-87.1365
 21
-26.5734
  0
LINE
  8
0
 10
-87.1365
 20
-26.5734
 11
-86.85
 21
-26.701
  0
LINE
  8
0
 10
-86.85
 20
-26.701
 11
-86.5963
 21
-26.8853
  0
LINE
  8
0
 10
-86.5963
 20
-26.8853
 11
-86.3865
 21
-27.1183
  0
LINE
  8
0
 10
-86.3865
 20
-27.1183
 11
-86.2297
 21
-27.3899
  0
LINE
  8
0
 10
-86.2297
 20
-27.3899
 11
-86.1328
 21
-27.6881
  0
LINE
  8
0
 10
-86.1328
 20
-27.6881
 11
-86.1
 21
-28
  0
LINE
  8
0
 10
-86.1
 20
-28
 11
-86.1328
 21
-28.3119
  0
LINE
  8
0
 10
-86.1328
 20
-28.3119
 11
-86.2297
 21
-28.6101
  0
LINE
  8
0
 10
-86.2297
 20
-28.6101
 11
-86.3865
 21
-28.8817
  0
LINE
  8
0
 10
-86.3865
 20
-28.8817
 11
-86.5963
 21
-29.1147
  0
LINE
  8
0
 10
-86.5963
 20
-29.1147
 11
-86.85
 21
-29.299
  0
LINE
  8
0
 10
-86.85
 20
-29.299
 11
-87.1365
 21
-29.4266
  0
LINE
  8
0
 10
-87.1365
 20
-29.4266
 11
-87.4432
 21
-29.4918
  0
LINE
  8
0
 10
-87.4432
 20
-29.4918
 11
-87.7568
 21
-29.4918
  0
LINE
  8
0
 10
-103.6
 20
-72
 11
-103.6
 21
-32
  0
LINE
  8
0
 10
-103.6
 20
-32
 11
-83.6
 21
-32
  0
LINE
  8
0
 10
-83.6
 20
-32
 11
-83.6
 21
-72
  0
LINE
  8
0
 10
-83.6
 20
-72
 11
-103.6
 21
-72
  0
LINE
  8
0
 10
-87.7568
 20
-77.4918
 11
-88.0635
 21
-77.4266
  0
LINE
  8
0
 10
-88.0635
 20
-77.4266
 11
-88.35
 21
-77.299
  0
LINE
  8
0
 10
-88.35
 20
-77.299
 11
-88.6037
 21
-77.1147
  0
LINE
  8
0
 10
-88.6037
 20
-77.1147
 11
-88.8135
 21
-76.8817
  0
LINE
  8
0
 10
-88.8135
 20
-76.8817
 11
-88.9703
 21
-76.6101
  0
LINE
  8
0
 10
-88.9703
 20
-76.6101
 11
-89.0672
 21
-76.3119
  0
LINE
  8
0
 10
-89.0672
 20
-76.3119
 11
-89.1
 21
-76
  0
LINE
  8
0
 10
-89.1
 20
-76
 11
-89.0672
 21
-75.6881
  0
LINE
  8
0
 10
-89.0672
 20
-75.6881
 11
-88.9703
 21
-75.3899
  0
LINE
  8
0
 10
-88.9703
 20
-75.3899
 11
-88.8135
 21
-75.1183
  0
LINE
  8
0
 10
-88.8135
 20
-75.1183
 11
-88.6037
 21
-74.8853
  0
LINE
  8
0
 10
-88.6037
 20
-74.8853
 11
-88.35
 21
-74.701
  0
LINE
  8
0
 10
-88.35
 20
-74.701
 11
-88.0635
 21
-74.5734
  0
LINE
  8
0
 10
-88.0635
 20
-74.5734
 11
-87.7568
 21
-74.5082
  0
LINE
  8
0
 10
-87.7568
 20
-74.5082
 11
-87.4432
 21
-74.5082
  0
LINE
  8
0
 10
-87.4432
 20
-74.5082
 11
-87.1365
 21
-74.5734
  0
LINE
  8
0
 10
-87.1365
 20
-74.5734
 11
-86.85
 21
-74.701
  0
LINE
  8
0
 10
-86.85
 20
-74.701
 11
-86.5963
 21
-74.8853
  0
LINE
  8
0
 10
-86.5963
 20
-74.8853
 11
-86.3865
 21
-75.1183
  0
LINE
  8
0
 10
-86.3865
 20
-75.1183
 11
-86.2297
 21
-75.3899
  0
LINE
  8
0
 10
-86.2297
 20
-75.3899
 11
-86.1328
 21
-75.6881
  0
LINE
  8
0
 10
-86.1328
 20
-75.6881
 11
-86.1
 21
-76
  0
LINE
  8
0
 10
-86.1
 20
-76
 11
-86.1328
 21
-76.3119
  0
LINE
  8
0
 10
-86.1328
 20
-76.3119
 11
-86.2297
 21
-76.6101
  0
LINE
  8
0
 10
-86.2297
 20
-76.6101
 11
-86.3865
 21
-76.8817
  0
LINE
  8
0
 10
-86.3865
 20
-76.8817
 11
-86.5963
 21
-77.1147
  0
LINE
  8
0
 10
-86.5963
 20
-77.1147
 11
-86.85
 21
-77.299
  0
LINE
  8
0
 10
-86.85
 20
-77.299
 11
-87.1365
 21
-77.4266
  0
LINE
  8
0
 10
-87.1365
 20
-77.4266
 11
-87.4432
 21
-77.4918
  0
LINE
  8
0
 10
-87.4432
 20
-77.4918
 11
-87.7568
 21
-77.4918
  0
LINE
  8
0
 10
-99.7568
 20
-77.4918
 11
-100.064
 21
-77.4266
  0
LINE
  8
0
 10
-100.064
 20
-77.4266
 11
-100.35
 21
-77.299
  0
LINE
  8
0
 10
-100.35
 20
-77.299
 11
-100.604
 21
-77.1147
  0
LINE
  8
0
 10
-100.604
 20
-77.1147
 11
-100.814
 21
-76.8817
  0
LINE
  8
0
 10
-100.814
 20
-76.8817
 11
-100.97
 21
-76.6101
  0
LINE
  8
0
 10
-100.97
 20
-76.6101
 11
-101.067
 21
-76.3119
  0
LINE
  8
0
 10
-101.067
 20
-76.3119
 11
-101.1
 21
-76
  0
LINE
  8
0
 10
-101.1
 20
-76
 11
-101.067
 21
-75.6881
  0
LINE
  8
0
 10
-101.067
 20
-75.6881
 11
-100.97
 21
-75.3899
  0
LINE
  8
0
 10
-100.97
 20
-75.3899
 11
-100.814
 21
-75.1183
  0
LINE
  8
0
 10
-100.814
 20
-75.1183
 11
-100.604
 21
-74.8853
  0
LINE
  8
0
 10
-100.604
 20
-74.8853
 11
-100.35
 21
-74.701
  0
LINE
  8
0
 10
-100.35
 20
-74.701
 11
-100.064
 21
-74.5734
  0
LINE
  8
0
 10
-100.064
 20
-74.5734
 11
-99.7568
 21
-74.5082
  0
LINE
  8
0
 10
-99.7568
 20
-74.5082
 11
-99.4432
 21
-74.5082
  0
LINE
  8
0
 10
-99.4432
 20
-74.5082
 11
-99.1365
 21
-74.5734
  0
LINE
  8
0
 10
-99.1365
 20
-74.5734
 11
-98.85
 21
-74.701
  0
LINE
  8
0
 10
-98.85
 20
-74.701
 11
-98.5963
 21
-74.8853
  0
LINE
  8
0
 10
-98.5963
 20
-74.8853
 11
-98.3865
 21
-75.1183
  0
LINE
  8
0
 10
-98.3865
 20
-75.1183
 11
-98.2297
 21
-75.3899
  0
LINE
  8
0
 10
-98.2297
 20
-75.3899
 11
-98.1328
 21
-75.6881
  0
LINE
  8
0
 10
-98.1328
 20
-75.6881
 11
-98.1
 21
-76
  0
LINE
  8
0
 10
-98.1
 20
-76
 11
-98.1328
 21
-76.3119
  0
LINE
  8
0
 10
-98.1328
 20
-76.3119
 11
-98.2297
 21
-76.6101
  0
LINE
  8
0
 10
-98.2297
 20
-76.6101
 11
-98.3865
 21
-76.8817
  0
LINE
  8
0
 10
-98.3865
 20
-76.8817
 11
-98.5963
 21
-77.1147
  0
LINE
  8
0
 10
-98.5963
 20
-77.1147
 11
-98.85
 21
-77.299
  0
LINE
  8
0
 10
-98.85
 20
-77.299
 11
-99.1365
 21
-77.4266
  0
LINE
  8
0
 10
-99.1365
 20
-77.4266
 11
-99.4432
 21
-77.4918
  0
LINE
  8
0
 10
-99.4432
 20
-77.4918
 11
-99.7568
 21
-77.4918
  0
LINE
  8
0
 10
-43.6
 20
-79.989
 11
-43.391
 21
-79.989
  0
LINE
  8
0
 10
-43.391
 20
-79.989
 11
-42.982
 21
-79.9021
  0
LINE
  8
0
 10
-42.982
 20
-79.9021
 11
-42.6
 21
-79.732
  0
LINE
  8
0
 10
-42.6
 20
-79.732
 11
-42.2617
 21
-79.4863
  0
LINE
  8
0
 10
-42.2617
 20
-79.4863
 11
-41.982
 21
-79.1756
  0
LINE
  8
0
 10
-41.982
 20
-79.1756
 11
-41.7729
 21
-78.8135
  0
LINE
  8
0
 10
-41.7729
 20
-78.8135
 11
-41.6437
 21
-78.4158
  0
LINE
  8
0
 10
-41.6437
 20
-78.4158
 11
-41.6
 21
-78
  0
LINE
  8
0
 10
-41.6
 20
-78
 11
-41.6111
 21
-6.42419
  0
LINE
  8
0
 10
-41.6111
 20
-6.42419
 11
-41.6994
 21
-5.27596
  0
LINE
  8
0
 10
-41.6994
 20
-5.27596
 11
-41.8756
 21
-4.13788
  0
LINE
  8
0
 10
-41.8756
 20
-4.13788
 11
-42.1386
 21
-3.01666
  0
LINE
  8
0
 10
-42.1386
 20
-3.01666
 11
-42.4868
 21
-1.91895
  0
LINE
  8
0
 10
-42.4868
 20
-1.91895
 11
-42.9182
 21
-0.851166
  0
LINE
  8
0
 10
-42.9182
 20
-0.851166
 11
-43.4303
 21
0.180374
  0
LINE
  8
0
 10
-43.4303
 20
0.180374
 11
-44.0342
 21
1.19153
  0
LINE
  8
0
 10
-44.0342
 20
1.19153
 11
-44.6997
 21
2.13141
  0
LINE
  8
0
 10
-44.6997
 20
2.13141
 11
-45.4353
 21
3.01749
  0
LINE
  8
0
 10
-45.4353
 20
3.01749
 11
-46.2368
 21
3.8445
  0
LINE
  8
0
 10
-46.2368
 20
3.8445
 11
-47.1196
 21
4.62416
  0
LINE
  8
0
 10
-47.1196
 20
4.62416
 11
-48.0393
 21
5.31723
  0
LINE
  8
0
 10
-48.0393
 20
5.31723
 11
-49.0095
 21
5.9377
  0
LINE
  8
0
 10
-49.0095
 20
5.9377
 11
-50.0244
 21
6.4819
  0
LINE
  8
0
 10
-50.0244
 20
6.4819
 11
-51.0781
 21
6.94664
  0
LINE
  8
0
 10
-51.0781
 20
6.94664
 11
-52.1644
 21
7.32916
  0
LINE
  8
0
 10
-52.1644
 20
7.32916
 11
-53.2768
 21
7.62723
  0
LINE
  8
0
 10
-53.2768
 20
7.62723
 11
-54.4088
 21
7.83908
  0
LINE
  8
0
 10
-54.4088
 20
7.83908
 11
-55.5537
 21
7.96346
  0
LINE
  8
0
 10
-55.5537
 20
7.96346
 11
-56.7047
 21
7.99963
  0
LINE
  8
0
 10
-56.7047
 20
7.99963
 11
-57.8552
 21
7.94739
  0
LINE
  8
0
 10
-57.8552
 20
7.94739
 11
-58.9982
 21
7.80704
  0
LINE
  8
0
 10
-58.9982
 20
7.80704
 11
-60.1271
 21
7.57941
  0
LINE
  8
0
 10
-60.1271
 20
7.57941
 11
-61.2353
 21
7.26584
  0
LINE
  8
0
 10
-61.2353
 20
7.26584
 11
-62.316
 21
6.86818
  0
LINE
  8
0
 10
-62.316
 20
6.86818
 11
-63.3632
 21
6.38878
  0
LINE
  8
0
 10
-63.3632
 20
6.38878
 11
-64.3704
 21
5.83046
  0
LINE
  8
0
 10
-64.3704
 20
5.83046
 11
-65.3318
 21
5.1965
  0
LINE
  8
0
 10
-65.3318
 20
5.1965
 11
-66.2618
 21
4.47382
  0
LINE
  8
0
 10
-66.2618
 20
4.47382
 11
-67.1323
 21
3.68039
  0
LINE
  8
0
 10
-67.1323
 20
3.68039
 11
-67.9206
 21
2.84088
  0
LINE
  8
0
 10
-67.9206
 20
2.84088
 11
-68.6578
 21
1.92233
  0
LINE
  8
0
 10
-68.6578
 20
1.92233
 11
-69.3068
 21
0.970978
  0
LINE
  8
0
 10
-69.3068
 20
0.970978
 11
-69.8809
 21
-0.0273743
  0
LINE
  8
0
 10
-69.8809
 20
-0.0273743
 11
-70.3767
 21
-1.06682
  0
LINE
  8
0
 10
-70.3767
 20
-1.06682
 11
-70.7997
 21
-2.16602
  0
LINE
  8
0
 10
-70.7997
 20
-2.16602
 11
-71.1287
 21
-3.26965
  0
LINE
  8
0
 10
-71.1287
 20
-3.26965
 11
-71.3721
 21
-4.39528
  0
LINE
  8
0
 10
-71.3721
 20
-4.39528
 11
-71.5284
 21
-5.53627
  0
LINE
  8
0
 10
-71.5284
 20
-5.53627
 11
-71.5967
 21
-6.68587
  0
LINE
  8
0
 10
-71.5967
 20
-6.68587
 11
-71.6
 21
-7
  0
LINE
  8
0
 10
-71.6
 20
-7
 11
-71.6
 21
-78
  0
LINE
  8
0
 10
-71.6
 20
-78
 11
-71.5563
 21
-78.4158
  0
LINE
  8
0
 10
-71.5563
 20
-78.4158
 11
-71.4271
 21
-78.8135
  0
LINE
  8
0
 10
-71.4271
 20
-78.8135
 11
-71.218
 21
-79.1756
  0
LINE
  8
0
 10
-71.218
 20
-79.1756
 11
-70.9383
 21
-79.4863
  0
LINE
  8
0
 10
-70.9383
 20
-79.4863
 11
-70.6
 21
-79.732
  0
LINE
  8
0
 10
-70.6
 20
-79.732
 11
-70.218
 21
-79.9021
  0
LINE
  8
0
 10
-70.218
 20
-79.9021
 11
-69.809
 21
-79.989
  0
LINE
  8
0
 10
-69.809
 20
-79.989
 11
-69.6
 21
-79.989
  0
LINE
  8
0
 10
-69.6
 20
-79.989
 11
-69.6
 21
-80
  0
LINE
  8
0
 10
-69.6
 20
-80
 11
-43.6
 21
-80
  0
LINE
  8
0
 10
-43.6
 20
-80
 11
-43.6
 21
-79.989
  0
LINE
  8
0
 10
-56.9136
 20
-9.98357
 11
-57.527
 21
-9.85316
  0
LINE
  8
0
 10
-57.527
 20
-9.85316
 11
-58.1
 21
-9.59807
  0
LINE
  8
0
 10
-58.1
 20
-9.59807
 11
-58.6074
 21
-9.22943
  0
LINE
  8
0
 10
-58.6074
 20
-9.22943
 11
-59.027
 21
-8.76335
  0
LINE
  8
0
 10
-59.027
 20
-8.76335
 11
-59.3406
 21
-8.2202
  0
LINE
  8
0
 10
-59.3406
 20
-8.2202
 11
-59.5344
 21
-7.62373
  0
LINE
  8
0
 10
-59.5344
 20
-7.62373
 11
-59.6
 21
-7
  0
LINE
  8
0
 10
-59.6
 20
-7
 11
-59.5344
 21
-6.37627
  0
LINE
  8
0
 10
-59.5344
 20
-6.37627
 11
-59.3406
 21
-5.7798
  0
LINE
  8
0
 10
-59.3406
 20
-5.7798
 11
-59.027
 21
-5.23665
  0
LINE
  8
0
 10
-59.027
 20
-5.23665
 11
-58.6074
 21
-4.77057
  0
LINE
  8
0
 10
-58.6074
 20
-4.77057
 11
-58.1
 21
-4.40193
  0
LINE
  8
0
 10
-58.1
 20
-4.40193
 11
-57.527
 21
-4.14684
  0
LINE
  8
0
 10
-57.527
 20
-4.14684
 11
-56.9136
 21
-4.01645
  0
LINE
  8
0
 10
-56.9136
 20
-4.01645
 11
-56.2864
 21
-4.01645
  0
LINE
  8
0
 10
-56.2864
 20
-4.01645
 11
-55.673
 21
-4.14684
  0
LINE
  8
0
 10
-55.673
 20
-4.14684
 11
-55.1
 21
-4.40193
  0
LINE
  8
0
 10
-55.1
 20
-4.40193
 11
-54.5926
 21
-4.77057
  0
LINE
  8
0
 10
-54.5926
 20
-4.77057
 11
-54.173
 21
-5.23665
  0
LINE
  8
0
 10
-54.173
 20
-5.23665
 11
-53.8594
 21
-5.7798
  0
LINE
  8
0
 10
-53.8594
 20
-5.7798
 11
-53.6656
 21
-6.37627
  0
LINE
  8
0
 10
-53.6656
 20
-6.37627
 11
-53.6
 21
-7
  0
LINE
  8
0
 10
-53.6
 20
-7
 11
-53.6656
 21
-7.62373
  0
LINE
  8
0
 10
-53.6656
 20
-7.62373
 11
-53.8594
 21
-8.2202
  0
LINE
  8
0
 10
-53.8594
 20
-8.2202
 11
-54.173
 21
-8.76335
  0
LINE
  8
0
 10
-54.173
 20
-8.76335
 11
-54.5926
 21
-9.22943
  0
LINE
  8
0
 10
-54.5926
 20
-9.22943
 11
-55.1
 21
-9.59807
  0
LINE
  8
0
 10
-55.1
 20
-9.59807
 11
-55.673
 21
-9.85316
  0
LINE
  8
0
 10
-55.673
 20
-9.85316
 11
-56.2864
 21
-9.98357
  0
LINE
  8
0
 10
-56.2864
 20
-9.98357
 11
-56.9136
 21
-9.98357
  0
LINE
  8
0
 10
-62.7568
 20
-29.4918
 11
-63.0635
 21
-29.4266
  0
LINE
  8
0
 10
-63.0635
 20
-29.4266
 11
-63.35
 21
-29.299
  0
LINE
  8
0
 10
-63.35
 20
-29.299
 11
-63.6037
 21
-29.1147
  0
LINE
  8
0
 10
-63.6037
 20
-29.1147
 11
-63.8135
 21
-28.8817
  0
LINE
  8
0
 10
-63.8135
 20
-28.8817
 11
-63.9703
 21
-28.6101
  0
LINE
  8
0
 10
-63.9703
 20
-28.6101
 11
-64.0672
 21
-28.3119
  0
LINE
  8
0
 10
-64.0672
 20
-28.3119
 11
-64.1
 21
-28
  0
LINE
  8
0
 10
-64.1
 20
-28
 11
-64.0672
 21
-27.6881
  0
LINE
  8
0
 10
-64.0672
 20
-27.6881
 11
-63.9703
 21
-27.3899
  0
LINE
  8
0
 10
-63.9703
 20
-27.3899
 11
-63.8135
 21
-27.1183
  0
LINE
  8
0
 10
-63.8135
 20
-27.1183
 11
-63.6037
 21
-26.8853
  0
LINE
  8
0
 10
-63.6037
 20
-26.8853
 11
-63.35
 21
-26.701
  0
LINE
  8
0
 10
-63.35
 20
-26.701
 11
-63.0635
 21
-26.5734
  0
LINE
  8
0
 10
-63.0635
 20
-26.5734
 11
-62.7568
 21
-26.5082
  0
LINE
  8
0
 10
-62.7568
 20
-26.5082
 11
-62.4432
 21
-26.5082
  0
LINE
  8
0
 10
-62.4432
 20
-26.5082
 11
-62.1365
 21
-26.5734
  0
LINE
  8
0
 10
-62.1365
 20
-26.5734
 11
-61.85
 21
-26.701
  0
LINE
  8
0
 10
-61.85
 20
-26.701
 11
-61.5963
 21
-26.8853
  0
LINE
  8
0
 10
-61.5963
 20
-26.8853
 11
-61.3865
 21
-27.1183
  0
LINE
  8
0
 10
-61.3865
 20
-27.1183
 11
-61.2297
 21
-27.3899
  0
LINE
  8
0
 10
-61.2297
 20
-27.3899
 11
-61.1328
 21
-27.6881
  0
LINE
  8
0
 10
-61.1328
 20
-27.6881
 11
-61.1
 21
-28
  0
LINE
  8
0
 10
-61.1
 20
-28
 11
-61.1328
 21
-28.3119
  0
LINE
  8
0
 10
-61.1328
 20
-28.3119
 11
-61.2297
 21
-28.6101
  0
LINE
  8
0
 10
-61.2297
 20
-28.6101
 11
-61.3865
 21
-28.8817
  0
LINE
  8
0
 10
-61.3865
 20
-28.8817
 11
-61.5963
 21
-29.1147
  0
LINE
  8
0
 10
-61.5963
 20
-29.1147
 11
-61.85
 21
-29.299
  0
LINE
  8
0
 10
-61.85
 20
-29.299
 11
-62.1365
 21
-29.4266
  0
LINE
  8
0
 10
-62.1365
 20
-29.4266
 11
-62.4432
 21
-29.4918
  0
LINE
  8
0
 10
-62.4432
 20
-29.4918
 11
-62.7568
 21
-29.4918
  0
LINE
  8
0
 10
-50.7568
 20
-29.4918
 11
-51.0635
 21
-29.4266
  0
LINE
  8
0
 10
-51.0635
 20
-29.4266
 11
-51.35
 21
-29.299
  0
LINE
  8
0
 10
-51.35
 20
-29.299
 11
-51.6037
 21
-29.1147
  0
LINE
  8
0
 10
-51.6037
 20
-29.1147
 11
-51.8135
 21
-28.8817
  0
LINE
  8
0
 10
-51.8135
 20
-28.8817
 11
-51.9703
 21
-28.6101
  0
LINE
  8
0
 10
-51.9703
 20
-28.6101
 11
-52.0672
 21
-28.3119
  0
LINE
  8
0
 10
-52.0672
 20
-28.3119
 11
-52.1
 21
-28
  0
LINE
  8
0
 10
-52.1
 20
-28
 11
-52.0672
 21
-27.6881
  0
LINE
  8
0
 10
-52.0672
 20
-27.6881
 11
-51.9703
 21
-27.3899
  0
LINE
  8
0
 10
-51.9703
 20
-27.3899
 11
-51.8135
 21
-27.1183
  0
LINE
  8
0
 10
-51.8135
 20
-27.1183
 11
-51.6037
 21
-26.8853
  0
LINE
  8
0
 10
-51.6037
 20
-26.8853
 11
-51.35
 21
-26.701
  0
LINE
  8
0
 10
-51.35
 20
-26.701
 11
-51.0635
 21
-26.5734
  0
LINE
  8
0
 10
-51.0635
 20
-26.5734
 11
-50.7568
 21
-26.5082
  0
LINE
  8
0
 10
-50.7568
 20
-26.5082
 11
-50.4432
 21
-26.5082
  0
LINE
  8
0
 10
-50.4432
 20
-26.5082
 11
-50.1365
 21
-26.5734
  0
LINE
  8
0
 10
-50.1365
 20
-26.5734
 11
-49.85
 21
-26.701
  0
LINE
  8
0
 10
-49.85
 20
-26.701
 11
-49.5963
 21
-26.8853
  0
LINE
  8
0
 10
-49.5963
 20
-26.8853
 11
-49.3865
 21
-27.1183
  0
LINE
  8
0
 10
-49.3865
 20
-27.1183
 11
-49.2297
 21
-27.3899
  0
LINE
  8
0
 10
-49.2297
 20
-27.3899
 11
-49.1328
 21
-27.6881
  0
LINE
  8
0
 10
-49.1328
 20
-27.6881
 11
-49.1
 21
-28
  0
LINE
  8
0
 10
-49.1
 20
-28
 11
-49.1328
 21
-28.3119
  0
LINE
  8
0
 10
-49.1328
 20
-28.3119
 11
-49.2297
 21
-28.6101
  0
LINE
  8
0
 10
-49.2297
 20
-28.6101
 11
-49.3865
 21
-28.8817
  0
LINE
  8
0
 10
-49.3865
 20
-28.8817
 11
-49.5963
 21
-29.1147
  0
LINE
  8
0
 10
-49.5963
 20
-29.1147
 11
-49.85
 21
-29.299
  0
LINE
  8
0
 10
-49.85
 20
-29.299
 11
-50.1365
 21
-29.4266
  0
LINE
  8
0
 10
-50.1365
 20
-29.4266
 11
-50.4432
 21
-29.4918
  0
LINE
  8
0
 10
-50.4432
 20
-29.4918
 11
-50.7568
 21
-29.4918
  0
LINE
  8
0
 10
-66.6
 20
-72
 11
-66.6
 21
-32
  0
LINE
  8
0
 10
-66.6
 20
-32
 11
-46.6
 21
-32
  0
LINE
  8
0
 10
-46.6
 20
-32
 11
-46.6
 21
-72
  0
LINE
  8
0
 10
-46.6
 20
-72
 11
-66.6
 21
-72
  0
LINE
  8
0
 10
-50.7568
 20
-77.4918
 11
-51.0635
 21
-77.4266
  0
LINE
  8
0
 10
-51.0635
 20
-77.4266
 11
-51.35
 21
-77.299
  0
LINE
  8
0
 10
-51.35
 20
-77.299
 11
-51.6037
 21
-77.1147
  0
LINE
  8
0
 10
-51.6037
 20
-77.1147
 11
-51.8135
 21
-76.8817
  0
LINE
  8
0
 10
-51.8135
 20
-76.8817
 11
-51.9703
 21
-76.6101
  0
LINE
  8
0
 10
-51.9703
 20
-76.6101
 11
-52.0672
 21
-76.3119
  0
LINE
  8
0
 10
-52.0672
 20
-76.3119
 11
-52.1
 21
-76
  0
LINE
  8
0
 10
-52.1
 20
-76
 11
-52.0672
 21
-75.6881
  0
LINE
  8
0
 10
-52.0672
 20
-75.6881
 11
-51.9703
 21
-75.3899
  0
LINE
  8
0
 10
-51.9703
 20
-75.3899
 11
-51.8135
 21
-75.1183
  0
LINE
  8
0
 10
-51.8135
 20
-75.1183
 11
-51.6037
 21
-74.8853
  0
LINE
  8
0
 10
-51.6037
 20
-74.8853
 11
-51.35
 21
-74.701
  0
LINE
  8
0
 10
-51.35
 20
-74.701
 11
-51.0635
 21
-74.5734
  0
LINE
  8
0
 10
-51.0635
 20
-74.5734
 11
-50.7568
 21
-74.5082
  0
LINE
  8
0
 10
-50.7568
 20
-74.5082
 11
-50.4432
 21
-74.5082
  0
LINE
  8
0
 10
-50.4432
 20
-74.5082
 11
-50.1365
 21
-74.5734
  0
LINE
  8
0
 10
-50.1365
 20
-74.5734
 11
-49.85
 21
-74.701
  0
LINE
  8
0
 10
-49.85
 20
-74.701
 11
-49.5963
 21
-74.8853
  0
LINE
  8
0
 10
-49.5963
 20
-74.8853
 11
-49.3865
 21
-75.1183
  0
LINE
  8
0
 10
-49.3865
 20
-75.1183
 11
-49.2297
 21
-75.3899
  0
LINE
  8
0
 10
-49.2297
 20
-75.3899
 11
-49.1328
 21
-75.6881
  0
LINE
  8
0
 10
-49.1328
 20
-75.6881
 11
-49.1
 21
-76
  0
LINE
  8
0
 10
-49.1
 20
-76
 11
-49.1328
 21
-76.3119
  0
LINE
  8
0
 10
-49.1328
 20
-76.3119
 11
-49.2297
 21
-76.6101
  0
LINE
  8
0
 10
-49.2297
 20
-76.6101
 11
-49.3865
 21
-76.8817
  0
LINE
  8
0
 10
-49.3865
 20
-76.8817
 11
-49.5963
 21
-77.1147
  0
LINE
  8
0
 10
-49.5963
 20
-77.1147
 11
-49.85
 21
-77.299
  0
LINE
  8
0
 10
-49.85
 20
-77.299
 11
-50.1365
 21
-77.4266
  0
LINE
  8
0
 10
-50.1365
 20
-77.4266
 11
-50.4432
 21
-77.4918
  0
LINE
  8
0
 10
-50.4432
 20
-77.4918
 11
-50.7568
 21
-77.4918
  0
LINE
  8
0
 10
-62.7568
 20
-77.4918
 11
-63.0635
 21
-77.4266
  0
LINE
  8
0
 10
-63.0635
 20
-77.4266
 11
-63.35
 21
-77.299
  0
LINE
  8
0
 10
-63.35
 20
-77.299
 11
-63.6037
 21
-77.1147
  0
LINE
  8
0
 10
-63.6037
 20
-77.1147
 11
-63.8135
 21
-76.8817
  0
LINE
  8
0
 10
-63.8135
 20
-76.8817
 11
-63.9703
 21
-76.6101
  0
LINE
  8
0
 10
-63.9703
 20
-76.6101
 11
-64.0672
 21
-76.3119
  0
LINE
  8
0
 10
-64.0672
 20
-76.3119
 11
-64.1
 21
-76
  0
LINE
  8
0
 10
-64.1
 20
-76
 11
-64.0672
 21
-75.6881
  0
LINE
  8
0
 10
-64.0672
 20
-75.6881
 11
-63.9703
 21
-75.3899
  0
LINE
  8
0
 10
-63.9703
 20
-75.3899
 11
-63.8135
 21
-75.1183
  0
LINE
  8
0
 10
-63.8135
 20
-75.1183
 11
-63.6037
 21
-74.8853
  0
LINE
  8
0
 10
-63.6037
 20
-74.8853
 11
-63.35
 21
-74.701
  0
LINE
  8
0
 10
-63.35
 20
-74.701
 11
-63.0635
 21
-74.5734
  0
LINE
  8
0
 10
-63.0635
 20
-74.5734
 11
-62.7568
 21
-74.5082
  0
LINE
  8
0
 10
-62.7568
 20
-74.5082
 11
-62.4432
 21
-74.5082
  0
LINE
  8
0
 10
-62.4432
 20
-74.5082
 11
-62.1365
 21
-74.5734
  0
LINE
  8
0
 10
-62.1365
 20
-74.5734
 11
-61.85
 21
-74.701
  0
LINE
  8
0
 10
-61.85
 20
-74.701
 11
-61.5963
 21
-74.8853
  0
LINE
  8
0
 10
-61.5963
 20
-74.8853
 11
-61.3865
 21
-75.1183
  0
LINE
  8
0
 10
-61.3865
 20
-75.1183
 11
-61.2297
 21
-75.3899
  0
LINE
  8
0
 10
-61.2297
 20
-75.3899
 11
-61.1328
 21
-75.6881
  0
LINE
  8
0
 10
-61.1328
 20
-75.6881
 11
-61.1
 21
-76
  0
LINE
  8
0
 10
-61.1
 20
-76
 11
-61.1328
 21
-76.3119
  0
LINE
  8
0
 10
-61.1328
 20
-76.3119
 11
-61.2297
 21
-76.6101
  0
LINE
  8
0
 10
-61.2297
 20
-76.6101
 11
-61.3865
 21
-76.8817
  0
LINE
  8
0
 10
-61.3865
 20
-76.8817
 11
-61.5963
 21
-77.1147
  0
LINE
  8
0
 10
-61.5963
 20
-77.1147
 11
-61.85
 21
-77.299
  0
LINE
  8
0
 10
-61.85
 20
-77.299
 11
-62.1365
 21
-77.4266
  0
LINE
  8
0
 10
-62.1365
 20
-77.4266
 11
-62.4432
 21
-77.4918
  0
LINE
  8
0
 10
-62.4432
 20
-77.4918
 11
-62.7568
 21
-77.4918
  0
LINE
  8
0
 10
32.4
 20
-108
 11
36.4
 21
-108
  0
LINE
  8
0
 10
36.4
 20
-108
 11
36.4
 21
-43
  0
LINE
  8
0
 10
36.4
 20
-43
 11
32.4
 21
-43
  0
LINE
  8
0
 10
32.4
 20
-43
 11
32.4
 21
-39
  0
LINE
  8
0
 10
32.4
 20
-39
 11
-32.6
 21
-39
  0
LINE
  8
0
 10
-32.6
 20
-39
 11
-32.6
 21
-43
  0
LINE
  8
0
 10
-32.6
 20
-43
 11
-36.6
 21
-43
  0
LINE
  8
0
 10
-36.6
 20
-43
 11
-36.6
 21
-108
  0
LINE
  8
0
 10
-36.6
 20
-108
 11
-32.6
 21
-108
  0
LINE
  8
0
 10
-32.6
 20
-108
 11
-32.6
 21
-112
  0
LINE
  8
0
 10
-32.6
 20
-112
 11
32.4
 21
-112
  0
LINE
  8
0
 10
32.4
 20
-112
 11
32.4
 21
-108
  0
LINE
  8
0
 10
-22.5568
 20
-52.4918
 11
-22.8635
 21
-52.4266
  0
LINE
  8
0
 10
-22.8635
 20
-52.4266
 11
-23.15
 21
-52.299
  0
LINE
  8
0
 10
-23.15
 20
-52.299
 11
-23.4037
 21
-52.1147
  0
LINE
  8
0
 10
-23.4037
 20
-52.1147
 11
-23.6135
 21
-51.8817
  0
LINE
  8
0
 10
-23.6135
 20
-51.8817
 11
-23.7703
 21
-51.6101
  0
LINE
  8
0
 10
-23.7703
 20
-51.6101
 11
-23.8672
 21
-51.3119
  0
LINE
  8
0
 10
-23.8672
 20
-51.3119
 11
-23.9
 21
-51
  0
LINE
  8
0
 10
-23.9
 20
-51
 11
-23.8672
 21
-50.6881
  0
LINE
  8
0
 10
-23.8672
 20
-50.6881
 11
-23.7703
 21
-50.3899
  0
LINE
  8
0
 10
-23.7703
 20
-50.3899
 11
-23.6135
 21
-50.1183
  0
LINE
  8
0
 10
-23.6135
 20
-50.1183
 11
-23.4037
 21
-49.8853
  0
LINE
  8
0
 10
-23.4037
 20
-49.8853
 11
-23.15
 21
-49.701
  0
LINE
  8
0
 10
-23.15
 20
-49.701
 11
-22.8635
 21
-49.5734
  0
LINE
  8
0
 10
-22.8635
 20
-49.5734
 11
-22.5568
 21
-49.5082
  0
LINE
  8
0
 10
-22.5568
 20
-49.5082
 11
-22.2432
 21
-49.5082
  0
LINE
  8
0
 10
-22.2432
 20
-49.5082
 11
-21.9365
 21
-49.5734
  0
LINE
  8
0
 10
-21.9365
 20
-49.5734
 11
-21.65
 21
-49.701
  0
LINE
  8
0
 10
-21.65
 20
-49.701
 11
-21.3963
 21
-49.8853
  0
LINE
  8
0
 10
-21.3963
 20
-49.8853
 11
-21.1865
 21
-50.1183
  0
LINE
  8
0
 10
-21.1865
 20
-50.1183
 11
-21.0297
 21
-50.3899
  0
LINE
  8
0
 10
-21.0297
 20
-50.3899
 11
-20.9328
 21
-50.6881
  0
LINE
  8
0
 10
-20.9328
 20
-50.6881
 11
-20.9
 21
-51
  0
LINE
  8
0
 10
-20.9
 20
-51
 11
-20.9328
 21
-51.3119
  0
LINE
  8
0
 10
-20.9328
 20
-51.3119
 11
-21.0297
 21
-51.6101
  0
LINE
  8
0
 10
-21.0297
 20
-51.6101
 11
-21.1865
 21
-51.8817
  0
LINE
  8
0
 10
-21.1865
 20
-51.8817
 11
-21.3963
 21
-52.1147
  0
LINE
  8
0
 10
-21.3963
 20
-52.1147
 11
-21.65
 21
-52.299
  0
LINE
  8
0
 10
-21.65
 20
-52.299
 11
-21.9365
 21
-52.4266
  0
LINE
  8
0
 10
-21.9365
 20
-52.4266
 11
-22.2432
 21
-52.4918
  0
LINE
  8
0
 10
-22.2432
 20
-52.4918
 11
-22.5568
 21
-52.4918
  0
LINE
  8
0
 10
27.6432
 20
-67.9918
 11
27.3365
 21
-67.9266
  0
LINE
  8
0
 10
27.3365
 20
-67.9266
 11
27.05
 21
-67.799
  0
LINE
  8
0
 10
27.05
 20
-67.799
 11
26.7963
 21
-67.6147
  0
LINE
  8
0
 10
26.7963
 20
-67.6147
 11
26.5865
 21
-67.3817
  0
LINE
  8
0
 10
26.5865
 20
-67.3817
 11
26.4297
 21
-67.1101
  0
LINE
  8
0
 10
26.4297
 20
-67.1101
 11
26.3328
 21
-66.8119
  0
LINE
  8
0
 10
26.3328
 20
-66.8119
 11
26.3
 21
-66.5
  0
LINE
  8
0
 10
26.3
 20
-66.5
 11
26.3328
 21
-66.1881
  0
LINE
  8
0
 10
26.3328
 20
-66.1881
 11
26.4297
 21
-65.8899
  0
LINE
  8
0
 10
26.4297
 20
-65.8899
 11
26.5865
 21
-65.6183
  0
LINE
  8
0
 10
26.5865
 20
-65.6183
 11
26.7963
 21
-65.3853
  0
LINE
  8
0
 10
26.7963
 20
-65.3853
 11
27.05
 21
-65.201
  0
LINE
  8
0
 10
27.05
 20
-65.201
 11
27.3365
 21
-65.0734
  0
LINE
  8
0
 10
27.3365
 20
-65.0734
 11
27.6432
 21
-65.0082
  0
LINE
  8
0
 10
27.6432
 20
-65.0082
 11
27.9568
 21
-65.0082
  0
LINE
  8
0
 10
27.9568
 20
-65.0082
 11
28.2635
 21
-65.0734
  0
LINE
  8
0
 10
28.2635
 20
-65.0734
 11
28.55
 21
-65.201
  0
LINE
  8
0
 10
28.55
 20
-65.201
 11
28.8037
 21
-65.3853
  0
LINE
  8
0
 10
28.8037
 20
-65.3853
 11
29.0135
 21
-65.6183
  0
LINE
  8
0
 10
29.0135
 20
-65.6183
 11
29.1703
 21
-65.8899
  0
LINE
  8
0
 10
29.1703
 20
-65.8899
 11
29.2672
 21
-66.1881
  0
LINE
  8
0
 10
29.2672
 20
-66.1881
 11
29.3
 21
-66.5
  0
LINE
  8
0
 10
29.3
 20
-66.5
 11
29.2672
 21
-66.8119
  0
LINE
  8
0
 10
29.2672
 20
-66.8119
 11
29.1703
 21
-67.1101
  0
LINE
  8
0
 10
29.1703
 20
-67.1101
 11
29.0135
 21
-67.3817
  0
LINE
  8
0
 10
29.0135
 20
-67.3817
 11
28.8037
 21
-67.6147
  0
LINE
  8
0
 10
28.8037
 20
-67.6147
 11
28.55
 21
-67.799
  0
LINE
  8
0
 10
28.55
 20
-67.799
 11
28.2635
 21
-67.9266
  0
LINE
  8
0
 10
28.2635
 20
-67.9266
 11
27.9568
 21
-67.9918
  0
LINE
  8
0
 10
27.9568
 20
-67.9918
 11
27.6432
 21
-67.9918
  0
LINE
  8
0
 10
27.6432
 20
-96.0918
 11
27.3365
 21
-96.0266
  0
LINE
  8
0
 10
27.3365
 20
-96.0266
 11
27.05
 21
-95.899
  0
LINE
  8
0
 10
27.05
 20
-95.899
 11
26.7963
 21
-95.7147
  0
LINE
  8
0
 10
26.7963
 20
-95.7147
 11
26.5865
 21
-95.4817
  0
LINE
  8
0
 10
26.5865
 20
-95.4817
 11
26.4297
 21
-95.2101
  0
LINE
  8
0
 10
26.4297
 20
-95.2101
 11
26.3328
 21
-94.9119
  0
LINE
  8
0
 10
26.3328
 20
-94.9119
 11
26.3
 21
-94.6
  0
LINE
  8
0
 10
26.3
 20
-94.6
 11
26.3328
 21
-94.2881
  0
LINE
  8
0
 10
26.3328
 20
-94.2881
 11
26.4297
 21
-93.9899
  0
LINE
  8
0
 10
26.4297
 20
-93.9899
 11
26.5865
 21
-93.7183
  0
LINE
  8
0
 10
26.5865
 20
-93.7183
 11
26.7963
 21
-93.4853
  0
LINE
  8
0
 10
26.7963
 20
-93.4853
 11
27.05
 21
-93.301
  0
LINE
  8
0
 10
27.05
 20
-93.301
 11
27.3365
 21
-93.1734
  0
LINE
  8
0
 10
27.3365
 20
-93.1734
 11
27.6432
 21
-93.1082
  0
LINE
  8
0
 10
27.6432
 20
-93.1082
 11
27.9568
 21
-93.1082
  0
LINE
  8
0
 10
27.9568
 20
-93.1082
 11
28.2635
 21
-93.1734
  0
LINE
  8
0
 10
28.2635
 20
-93.1734
 11
28.55
 21
-93.301
  0
LINE
  8
0
 10
28.55
 20
-93.301
 11
28.8037
 21
-93.4853
  0
LINE
  8
0
 10
28.8037
 20
-93.4853
 11
29.0135
 21
-93.7183
  0
LINE
  8
0
 10
29.0135
 20
-93.7183
 11
29.1703
 21
-93.9899
  0
LINE
  8
0
 10
29.1703
 20
-93.9899
 11
29.2672
 21
-94.2881
  0
LINE
  8
0
 10
29.2672
 20
-94.2881
 11
29.3
 21
-94.6
  0
LINE
  8
0
 10
29.3
 20
-94.6
 11
29.2672
 21
-94.9119
  0
LINE
  8
0
 10
29.2672
 20
-94.9119
 11
29.1703
 21
-95.2101
  0
LINE
  8
0
 10
29.1703
 20
-95.2101
 11
29.0135
 21
-95.4817
  0
LINE
  8
0
 10
29.0135
 20
-95.4817
 11
28.8037
 21
-95.7147
  0
LINE
  8
0
 10
28.8037
 20
-95.7147
 11
28.55
 21
-95.899
  0
LINE
  8
0
 10
28.55
 20
-95.899
 11
28.2635
 21
-96.0266
  0
LINE
  8
0
 10
28.2635
 20
-96.0266
 11
27.9568
 21
-96.0918
  0
LINE
  8
0
 10
27.9568
 20
-96.0918
 11
27.6432
 21
-96.0918
  0
LINE
  8
0
 10
-24.2568
 20
-100.992
 11
-24.5635
 21
-100.927
  0
LINE
  8
0
 10
-24.5635
 20
-100.927
 11
-24.85
 21
-100.799
  0
LINE
  8
0
 10
-24.85
 20
-100.799
 11
-25.1037
 21
-100.615
  0
LINE
  8
0
 10
-25.1037
 20
-100.615
 11
-25.3135
 21
-100.382
  0
LINE
  8
0
 10
-25.3135
 20
-100.382
 11
-25.4703
 21
-100.11
  0
LINE
  8
0
 10
-25.4703
 20
-100.11
 11
-25.5672
 21
-99.8119
  0
LINE
  8
0
 10
-25.5672
 20
-99.8119
 11
-25.6
 21
-99.5
  0
LINE
  8
0
 10
-25.6
 20
-99.5
 11
-25.5672
 21
-99.1881
  0
LINE
  8
0
 10
-25.5672
 20
-99.1881
 11
-25.4703
 21
-98.8899
  0
LINE
  8
0
 10
-25.4703
 20
-98.8899
 11
-25.3135
 21
-98.6183
  0
LINE
  8
0
 10
-25.3135
 20
-98.6183
 11
-25.1037
 21
-98.3853
  0
LINE
  8
0
 10
-25.1037
 20
-98.3853
 11
-24.85
 21
-98.201
  0
LINE
  8
0
 10
-24.85
 20
-98.201
 11
-24.5635
 21
-98.0734
  0
LINE
  8
0
 10
-24.5635
 20
-98.0734
 11
-24.2568
 21
-98.0082
  0
LINE
  8
0
 10
-24.2568
 20
-98.0082
 11
-23.9432
 21
-98.0082
  0
LINE
  8
0
 10
-23.9432
 20
-98.0082
 11
-23.6365
 21
-98.0734
  0
LINE
  8
0
 10
-23.6365
 20
-98.0734
 11
-23.35
 21
-98.201
  0
LINE
  8
0
 10
-23.35
 20
-98.201
 11
-23.0963
 21
-98.3853
  0
LINE
  8
0
 10
-23.0963
 20
-98.3853
 11
-22.8865
 21
-98.6183
  0
LINE
  8
0
 10
-22.8865
 20
-98.6183
 11
-22.7297
 21
-98.8899
  0
LINE
  8
0
 10
-22.7297
 20
-98.8899
 11
-22.6328
 21
-99.1881
  0
LINE
  8
0
 10
-22.6328
 20
-99.1881
 11
-22.6
 21
-99.5
  0
LINE
  8
0
 10
-22.6
 20
-99.5
 11
-22.6328
 21
-99.8119
  0
LINE
  8
0
 10
-22.6328
 20
-99.8119
 11
-22.7297
 21
-100.11
  0
LINE
  8
0
 10
-22.7297
 20
-100.11
 11
-22.8865
 21
-100.382
  0
LINE
  8
0
 10
-22.8865
 20
-100.382
 11
-23.0963
 21
-100.615
  0
LINE
  8
0
 10
-23.0963
 20
-100.615
 11
-23.35
 21
-100.799
  0
LINE
  8
0
 10
-23.35
 20
-100.799
 11
-23.6365
 21
-100.927
  0
LINE
  8
0
 10
-23.6365
 20
-100.927
 11
-23.9432
 21
-100.992
  0
LINE
  8
0
 10
-23.9432
 20
-100.992
 11
-24.2568
 21
-100.992
  0
LINE
  8
0
 10
18.1057
 20
-138.788
 11
18.6911
 21
-138.673
  0
LINE
  8
0
 10
18.6911
 20
-138.673
 11
19.0837
 21
-138.561
  0
LINE
  8
0
 10
19.0837
 20
-138.561
 11
88.5549
 21
-116.086
  0
LINE
  8
0
 10
88.5549
 20
-116.086
 11
89.6442
 21
-115.639
  0
LINE
  8
0
 10
89.6442
 20
-115.639
 11
90.6721
 21
-115.119
  0
LINE
  8
0
 10
90.6721
 20
-115.119
 11
91.6572
 21
-114.523
  0
LINE
  8
0
 10
91.6572
 20
-114.523
 11
92.6143
 21
-113.836
  0
LINE
  8
0
 10
92.6143
 20
-113.836
 11
93.4952
 21
-113.094
  0
LINE
  8
0
 10
93.4952
 20
-113.094
 11
94.3166
 21
-112.287
  0
LINE
  8
0
 10
94.3166
 20
-112.287
 11
95.0736
 21
-111.419
  0
LINE
  8
0
 10
95.0736
 20
-111.419
 11
95.7619
 21
-110.496
  0
LINE
  8
0
 10
95.7619
 20
-110.496
 11
96.3773
 21
-109.523
  0
LINE
  8
0
 10
96.3773
 20
-109.523
 11
96.9275
 21
-108.481
  0
LINE
  8
0
 10
96.9275
 20
-108.481
 11
97.3848
 21
-107.424
  0
LINE
  8
0
 10
97.3848
 20
-107.424
 11
97.7673
 21
-106.31
  0
LINE
  8
0
 10
97.7673
 20
-106.31
 11
98.0557
 21
-105.195
  0
LINE
  8
0
 10
98.0557
 20
-105.195
 11
98.2576
 21
-104.062
  0
LINE
  8
0
 10
98.2576
 20
-104.062
 11
98.372
 21
-102.916
  0
LINE
  8
0
 10
98.372
 20
-102.916
 11
98.3981
 21
-101.764
  0
LINE
  8
0
 10
98.3981
 20
-101.764
 11
98.3359
 21
-100.614
  0
LINE
  8
0
 10
98.3359
 20
-100.614
 11
98.1855
 21
-99.4726
  0
LINE
  8
0
 10
98.1855
 20
-99.4726
 11
97.9481
 21
-98.3458
  0
LINE
  8
0
 10
97.9481
 20
-98.3458
 11
97.6248
 21
-97.2404
  0
LINE
  8
0
 10
97.6248
 20
-97.2404
 11
97.2076
 21
-96.139
  0
LINE
  8
0
 10
97.2076
 20
-96.139
 11
96.7052
 21
-95.0738
  0
LINE
  8
0
 10
96.7052
 20
-95.0738
 11
96.1346
 21
-94.0734
  0
LINE
  8
0
 10
96.1346
 20
-94.0734
 11
95.4889
 21
-93.1198
  0
LINE
  8
0
 10
95.4889
 20
-93.1198
 11
94.772
 21
-92.2185
  0
LINE
  8
0
 10
94.772
 20
-92.2185
 11
93.9881
 21
-91.3749
  0
LINE
  8
0
 10
93.9881
 20
-91.3749
 11
93.1417
 21
-90.5939
  0
LINE
  8
0
 10
93.1417
 20
-90.5939
 11
92.2168
 21
-89.8647
  0
LINE
  8
0
 10
92.2168
 20
-89.8647
 11
91.2375
 21
-89.2104
  0
LINE
  8
0
 10
91.2375
 20
-89.2104
 11
90.2332
 21
-88.6468
  0
LINE
  8
0
 10
90.2332
 20
-88.6468
 11
89.1644
 21
-88.1518
  0
LINE
  8
0
 10
89.1644
 20
-88.1518
 11
88.085
 21
-87.7504
  0
LINE
  8
0
 10
88.085
 20
-87.7504
 11
86.978
 21
-87.433
  0
LINE
  8
0
 10
86.978
 20
-87.433
 11
85.8499
 21
-87.2014
  0
LINE
  8
0
 10
85.8499
 20
-87.2014
 11
84.6812
 21
-87.0548
  0
LINE
  8
0
 10
84.6812
 20
-87.0548
 11
83.5309
 21
-87.0006
  0
LINE
  8
0
 10
83.5309
 20
-87.0006
 11
82.3798
 21
-87.0347
  0
LINE
  8
0
 10
82.3798
 20
-87.0347
 11
81.2087
 21
-87.1609
  0
LINE
  8
0
 10
81.2087
 20
-87.1609
 11
80.0512
 21
-87.3786
  0
LINE
  8
0
 10
80.0512
 20
-87.3786
 11
78.9394
 21
-87.6786
  0
LINE
  8
0
 10
78.9394
 20
-87.6786
 11
77.8295
 21
-88.0727
  0
LINE
  8
0
 10
77.8295
 20
-88.0727
 11
76.7774
 21
-88.5411
  0
LINE
  8
0
 10
76.7774
 20
-88.5411
 11
75.7644
 21
-89.0889
  0
LINE
  8
0
 10
75.7644
 20
-89.0889
 11
75.429
 21
-89.2932
  0
LINE
  8
0
 10
75.429
 20
-89.2932
 11
13.8152
 21
-127.924
  0
LINE
  8
0
 10
13.8152
 20
-127.924
 11
13.2638
 21
-128.357
  0
LINE
  8
0
 10
13.2638
 20
-128.357
 11
12.8088
 21
-128.805
  0
LINE
  8
0
 10
12.8088
 20
-128.805
 11
12.3793
 21
-129.333
  0
LINE
  8
0
 10
12.3793
 20
-129.333
 11
11.9666
 21
-129.988
  0
LINE
  8
0
 10
11.9666
 20
-129.988
 11
11.7165
 21
-130.507
  0
LINE
  8
0
 10
11.7165
 20
-130.507
 11
11.5048
 21
-131.087
  0
LINE
  8
0
 10
11.5048
 20
-131.087
 11
11.3558
 21
-131.675
  0
LINE
  8
0
 10
11.3558
 20
-131.675
 11
11.2702
 21
-132.245
  0
LINE
  8
0
 10
11.2702
 20
-132.245
 11
11.2395
 21
-132.841
  0
LINE
  8
0
 10
11.2395
 20
-132.841
 11
11.2682
 21
-133.437
  0
LINE
  8
0
 10
11.2682
 20
-133.437
 11
11.3706
 21
-134.099
  0
LINE
  8
0
 10
11.3706
 20
-134.099
 11
11.5141
 21
-134.645
  0
LINE
  8
0
 10
11.5141
 20
-134.645
 11
11.8468
 21
-135.481
  0
LINE
  8
0
 10
11.8468
 20
-135.481
 11
12.1848
 21
-136.084
  0
LINE
  8
0
 10
12.1848
 20
-136.084
 11
12.6098
 21
-136.668
  0
LINE
  8
0
 10
12.6098
 20
-136.668
 11
13.0043
 21
-137.101
  0
LINE
  8
0
 10
13.0043
 20
-137.101
 11
13.4392
 21
-137.494
  0
LINE
  8
0
 10
13.4392
 20
-137.494
 11
14.0511
 21
-137.934
  0
LINE
  8
0
 10
14.0511
 20
-137.934
 11
14.7038
 21
-138.289
  0
LINE
  8
0
 10
14.7038
 20
-138.289
 11
15.3158
 21
-138.534
  0
LINE
  8
0
 10
15.3158
 20
-138.534
 11
15.9511
 21
-138.711
  0
LINE
  8
0
 10
15.9511
 20
-138.711
 11
16.7166
 21
-138.828
  0
LINE
  8
0
 10
16.7166
 20
-138.828
 11
17.3338
 21
-138.85
  0
LINE
  8
0
 10
17.3338
 20
-138.85
 11
18.1057
 21
-138.788
  0
LINE
  8
0
 10
82.8276
 20
-104.945
 11
82.2278
 21
-104.762
  0
LINE
  8
0
 10
82.2278
 20
-104.762
 11
81.6793
 21
-104.457
  0
LINE
  8
0
 10
81.6793
 20
-104.457
 11
81.2059
 21
-104.046
  0
LINE
  8
0
 10
81.2059
 20
-104.046
 11
80.8285
 21
-103.545
  0
LINE
  8
0
 10
80.8285
 20
-103.545
 11
80.5635
 21
-102.977
  0
LINE
  8
0
 10
80.5635
 20
-102.977
 11
80.4224
 21
-102.366
  0
LINE
  8
0
 10
80.4224
 20
-102.366
 11
80.4114
 21
-101.739
  0
LINE
  8
0
 10
80.4114
 20
-101.739
 11
80.5311
 21
-101.123
  0
LINE
  8
0
 10
80.5311
 20
-101.123
 11
80.7761
 21
-100.546
  0
LINE
  8
0
 10
80.7761
 20
-100.546
 11
81.1359
 21
-100.032
  0
LINE
  8
0
 10
81.1359
 20
-100.032
 11
81.5945
 21
-99.6041
  0
LINE
  8
0
 10
81.5945
 20
-99.6041
 11
82.1321
 21
-99.2811
  0
LINE
  8
0
 10
82.1321
 20
-99.2811
 11
82.7251
 21
-99.0769
  0
LINE
  8
0
 10
82.7251
 20
-99.0769
 11
83.3476
 21
-99.0005
  0
LINE
  8
0
 10
83.3476
 20
-99.0005
 11
83.9724
 21
-99.0551
  0
LINE
  8
0
 10
83.9724
 20
-99.0551
 11
84.5722
 21
-99.2385
  0
LINE
  8
0
 10
84.5722
 20
-99.2385
 11
85.1207
 21
-99.5426
  0
LINE
  8
0
 10
85.1207
 20
-99.5426
 11
85.594
 21
-99.954
  0
LINE
  8
0
 10
85.594
 20
-99.954
 11
85.9715
 21
-100.455
  0
LINE
  8
0
 10
85.9715
 20
-100.455
 11
86.2365
 21
-101.023
  0
LINE
  8
0
 10
86.2365
 20
-101.023
 11
86.3776
 21
-101.634
  0
LINE
  8
0
 10
86.3776
 20
-101.634
 11
86.3886
 21
-102.261
  0
LINE
  8
0
 10
86.3886
 20
-102.261
 11
86.2689
 21
-102.877
  0
LINE
  8
0
 10
86.2689
 20
-102.877
 11
86.0238
 21
-103.454
  0
LINE
  8
0
 10
86.0238
 20
-103.454
 11
85.6641
 21
-103.968
  0
LINE
  8
0
 10
85.6641
 20
-103.968
 11
85.2054
 21
-104.396
  0
LINE
  8
0
 10
85.2054
 20
-104.396
 11
84.6679
 21
-104.719
  0
LINE
  8
0
 10
84.6679
 20
-104.719
 11
84.0748
 21
-104.923
  0
LINE
  8
0
 10
84.0748
 20
-104.923
 11
83.4524
 21
-105
  0
LINE
  8
0
 10
83.4524
 20
-105
 11
82.8276
 21
-104.945
  0
LINE
  8
0
 10
-17.0106
 20
-138.836
 11
-16.2433
 21
-138.731
  0
LINE
  8
0
 10
-16.2433
 20
-138.731
 11
-15.6853
 21
-138.589
  0
LINE
  8
0
 10
-15.6853
 20
-138.589
 11
-15.1048
 21
-138.378
  0
LINE
  8
0
 10
-15.1048
 20
-138.378
 11
-14.5582
 21
-138.114
  0
LINE
  8
0
 10
-14.5582
 20
-138.114
 11
-14.067
 21
-137.814
  0
LINE
  8
0
 10
-14.067
 20
-137.814
 11
-13.5908
 21
-137.454
  0
LINE
  8
0
 10
-13.5908
 20
-137.454
 11
-13.1527
 21
-137.049
  0
LINE
  8
0
 10
-13.1527
 20
-137.049
 11
-12.7115
 21
-136.545
  0
LINE
  8
0
 10
-12.7115
 20
-136.545
 11
-12.3848
 21
-136.084
  0
LINE
  8
0
 10
-12.3848
 20
-136.084
 11
-11.9583
 21
-135.292
  0
LINE
  8
0
 10
-11.9583
 20
-135.292
 11
-11.7141
 21
-134.645
  0
LINE
  8
0
 10
-11.7141
 20
-134.645
 11
-11.54
 21
-133.945
  0
LINE
  8
0
 10
-11.54
 20
-133.945
 11
-11.4615
 21
-133.364
  0
LINE
  8
0
 10
-11.4615
 20
-133.364
 11
-11.44
 21
-132.778
  0
LINE
  8
0
 10
-11.44
 20
-132.778
 11
-11.4965
 21
-132.026
  0
LINE
  8
0
 10
-11.4965
 20
-132.026
 11
-11.644
 21
-131.298
  0
LINE
  8
0
 10
-11.644
 20
-131.298
 11
-11.8494
 21
-130.672
  0
LINE
  8
0
 10
-11.8494
 20
-130.672
 11
-12.1223
 21
-130.071
  0
LINE
  8
0
 10
-12.1223
 20
-130.071
 11
-12.5246
 21
-129.41
  0
LINE
  8
0
 10
-12.5246
 20
-129.41
 11
-12.9044
 21
-128.923
  0
LINE
  8
0
 10
-12.9044
 20
-128.923
 11
-13.4482
 21
-128.371
  0
LINE
  8
0
 10
-13.4482
 20
-128.371
 11
-13.9128
 21
-127.997
  0
LINE
  8
0
 10
-13.9128
 20
-127.997
 11
-14.2512
 21
-127.768
  0
LINE
  8
0
 10
-14.2512
 20
-127.768
 11
-76.1227
 21
-88.9965
  0
LINE
  8
0
 10
-76.1227
 20
-88.9965
 11
-77.166
 21
-88.45
  0
LINE
  8
0
 10
-77.166
 20
-88.45
 11
-78.2245
 21
-87.9963
  0
LINE
  8
0
 10
-78.2245
 20
-87.9963
 11
-79.3147
 21
-87.6252
  0
LINE
  8
0
 10
-79.3147
 20
-87.6252
 11
-80.4557
 21
-87.3333
  0
LINE
  8
0
 10
-80.4557
 20
-87.3333
 11
-81.5902
 21
-87.1353
  0
LINE
  8
0
 10
-81.5902
 20
-87.1353
 11
-82.7365
 21
-87.0249
  0
LINE
  8
0
 10
-82.7365
 20
-87.0249
 11
-83.8879
 21
-87.0028
  0
LINE
  8
0
 10
-83.8879
 20
-87.0028
 11
-85.0377
 21
-87.0691
  0
LINE
  8
0
 10
-85.0377
 20
-87.0691
 11
-86.1789
 21
-87.2234
  0
LINE
  8
0
 10
-86.1789
 20
-87.2234
 11
-87.3303
 21
-87.4713
  0
LINE
  8
0
 10
-87.3303
 20
-87.4713
 11
-88.434
 21
-87.8003
  0
LINE
  8
0
 10
-88.434
 20
-87.8003
 11
-89.5332
 21
-88.2233
  0
LINE
  8
0
 10
-89.5332
 20
-88.2233
 11
-90.5726
 21
-88.7191
  0
LINE
  8
0
 10
-90.5726
 20
-88.7191
 11
-91.571
 21
-89.2932
  0
LINE
  8
0
 10
-91.571
 20
-89.2932
 11
-92.5223
 21
-89.9421
  0
LINE
  8
0
 10
-92.5223
 20
-89.9421
 11
-93.4211
 21
-90.6622
  0
LINE
  8
0
 10
-93.4211
 20
-90.6622
 11
-94.262
 21
-91.4491
  0
LINE
  8
0
 10
-94.262
 20
-91.4491
 11
-95.04
 21
-92.2982
  0
LINE
  8
0
 10
-95.04
 20
-92.2982
 11
-95.7506
 21
-93.2044
  0
LINE
  8
0
 10
-95.7506
 20
-93.2044
 11
-96.3896
 21
-94.1625
  0
LINE
  8
0
 10
-96.3896
 20
-94.1625
 11
-96.9651
 21
-95.1901
  0
LINE
  8
0
 10
-96.9651
 20
-95.1901
 11
-97.4582
 21
-96.2597
  0
LINE
  8
0
 10
-97.4582
 20
-96.2597
 11
-97.8577
 21
-97.3398
  0
LINE
  8
0
 10
-97.8577
 20
-97.3398
 11
-98.1732
 21
-98.4474
  0
LINE
  8
0
 10
-98.1732
 20
-98.4474
 11
-98.4028
 21
-99.5759
  0
LINE
  8
0
 10
-98.4028
 20
-99.5759
 11
-98.5452
 21
-100.719
  0
LINE
  8
0
 10
-98.5452
 20
-100.719
 11
-98.5994
 21
-101.869
  0
LINE
  8
0
 10
-98.5994
 20
-101.869
 11
-98.5635
 21
-103.046
  0
LINE
  8
0
 10
-98.5635
 20
-103.046
 11
-98.4352
 21
-104.217
  0
LINE
  8
0
 10
-98.4352
 20
-104.217
 11
-98.2214
 21
-105.349
  0
LINE
  8
0
 10
-98.2214
 20
-105.349
 11
-97.9136
 21
-106.486
  0
LINE
  8
0
 10
-97.9136
 20
-106.486
 11
-97.5273
 21
-107.571
  0
LINE
  8
0
 10
-97.5273
 20
-107.571
 11
-97.0589
 21
-108.623
  0
LINE
  8
0
 10
-97.0589
 20
-108.623
 11
-96.5111
 21
-109.636
  0
LINE
  8
0
 10
-96.5111
 20
-109.636
 11
-95.8722
 21
-110.625
  0
LINE
  8
0
 10
-95.8722
 20
-110.625
 11
-95.1744
 21
-111.541
  0
LINE
  8
0
 10
-95.1744
 20
-111.541
 11
-94.4083
 21
-112.401
  0
LINE
  8
0
 10
-94.4083
 20
-112.401
 11
-93.5589
 21
-113.217
  0
LINE
  8
0
 10
-93.5589
 20
-113.217
 11
-92.6481
 21
-113.964
  0
LINE
  8
0
 10
-92.6481
 20
-113.964
 11
-91.7036
 21
-114.623
  0
LINE
  8
0
 10
-91.7036
 20
-114.623
 11
-90.6882
 21
-115.22
  0
LINE
  8
0
 10
-90.6882
 20
-115.22
 11
-89.6532
 21
-115.724
  0
LINE
  8
0
 10
-89.6532
 20
-115.724
 11
-88.5824
 21
-116.148
  0
LINE
  8
0
 10
-88.5824
 20
-116.148
 11
-88.2103
 21
-116.274
  0
LINE
  8
0
 10
-88.2103
 20
-116.274
 11
-19.0127
 21
-138.641
  0
LINE
  8
0
 10
-19.0127
 20
-138.641
 11
-18.3264
 21
-138.785
  0
LINE
  8
0
 10
-18.3264
 20
-138.785
 11
-17.6908
 21
-138.846
  0
LINE
  8
0
 10
-17.6908
 20
-138.846
 11
-17.0106
 21
-138.836
  0
LINE
  8
0
 10
-84.2748
 20
-104.923
 11
-84.8679
 21
-104.719
  0
LINE
  8
0
 10
-84.8679
 20
-104.719
 11
-85.4054
 21
-104.396
  0
LINE
  8
0
 10
-85.4054
 20
-104.396
 11
-85.8641
 21
-103.968
  0
LINE
  8
0
 10
-85.8641
 20
-103.968
 11
-86.2238
 21
-103.454
  0
LINE
  8
0
 10
-86.2238
 20
-103.454
 11
-86.4689
 21
-102.877
  0
LINE
  8
0
 10
-86.4689
 20
-102.877
 11
-86.5886
 21
-102.261
  0
LINE
  8
0
 10
-86.5886
 20
-102.261
 11
-86.5776
 21
-101.634
  0
LINE
  8
0
 10
-86.5776
 20
-101.634
 11
-86.4365
 21
-101.023
  0
LINE
  8
0
 10
-86.4365
 20
-101.023
 11
-86.1715
 21
-100.455
  0
LINE
  8
0
 10
-86.1715
 20
-100.455
 11
-85.794
 21
-99.954
  0
LINE
  8
0
 10
-85.794
 20
-99.954
 11
-85.3207
 21
-99.5425
  0
LINE
  8
0
 10
-85.3207
 20
-99.5425
 11
-84.7722
 21
-99.2385
  0
LINE
  8
0
 10
-84.7722
 20
-99.2385
 11
-84.1724
 21
-99.0551
  0
LINE
  8
0
 10
-84.1724
 20
-99.0551
 11
-83.5476
 21
-99.0005
  0
LINE
  8
0
 10
-83.5476
 20
-99.0005
 11
-82.9251
 21
-99.0769
  0
LINE
  8
0
 10
-82.9251
 20
-99.0769
 11
-82.3321
 21
-99.2811
  0
LINE
  8
0
 10
-82.3321
 20
-99.2811
 11
-81.7945
 21
-99.6041
  0
LINE
  8
0
 10
-81.7945
 20
-99.6041
 11
-81.3359
 21
-100.032
  0
LINE
  8
0
 10
-81.3359
 20
-100.032
 11
-80.9761
 21
-100.546
  0
LINE
  8
0
 10
-80.9761
 20
-100.546
 11
-80.7311
 21
-101.123
  0
LINE
  8
0
 10
-80.7311
 20
-101.123
 11
-80.6114
 21
-101.739
  0
LINE
  8
0
 10
-80.6114
 20
-101.739
 11
-80.6224
 21
-102.366
  0
LINE
  8
0
 10
-80.6224
 20
-102.366
 11
-80.7635
 21
-102.977
  0
LINE
  8
0
 10
-80.7635
 20
-102.977
 11
-81.0285
 21
-103.545
  0
LINE
  8
0
 10
-81.0285
 20
-103.545
 11
-81.4059
 21
-104.046
  0
LINE
  8
0
 10
-81.4059
 20
-104.046
 11
-81.8793
 21
-104.457
  0
LINE
  8
0
 10
-81.8793
 20
-104.457
 11
-82.4278
 21
-104.762
  0
LINE
  8
0
 10
-82.4278
 20
-104.762
 11
-83.0276
 21
-104.945
  0
LINE
  8
0
 10
-83.0276
 20
-104.945
 11
-83.6524
 21
-105
  0
LINE
  8
0
 10
-83.6524
 20
-105
 11
-84.2748
 21
-104.923
  0
ENDSEC
  0
SECTION
  2
OBJECTS
  0
DICTIONARY
  0
ENDSEC
  0
EOF
